<svg width="38" height="39" viewBox="0 0 38 39" fill="none" xmlns="http://www.w3.org/2000/svg">
<g clip-path="url(#clip0_402_1262)">
<path d="M17.6702 35.9754C16.2631 36.8815 14.5884 37.2786 12.9243 37.1008C11.2602 36.923 9.70704 36.1812 8.52309 34.9983L7.49166 33.9669C7.0342 33.5043 6.77759 32.8803 6.77759 32.2297C6.77759 31.5794 7.0342 30.9551 7.49166 30.4926L11.8345 26.1769C12.2923 25.7211 12.9121 25.4652 13.5581 25.4652C14.2041 25.4652 14.8238 25.7211 15.2817 26.1769C15.7441 26.6344 16.3683 26.891 17.0188 26.891C17.6693 26.891 18.2935 26.6344 18.7559 26.1769L25.6774 19.2555C26.1349 18.793 26.3915 18.1688 26.3915 17.5183C26.3915 16.8678 26.1349 16.2436 25.6774 15.7812C25.2216 15.3234 24.9657 14.7036 24.9657 14.0576C24.9657 13.4116 25.2216 12.7918 25.6774 12.334L29.8573 7.99117C30.3198 7.53368 30.9441 7.2771 31.5944 7.2771C32.245 7.2771 32.8693 7.53368 33.3316 7.99117L34.363 9.0226C35.567 10.1899 36.3344 11.7347 36.5369 13.3994C36.7396 15.0641 36.365 16.7479 35.4758 18.1697C30.7429 25.1964 24.6969 31.2425 17.6702 35.9754Z" stroke="white" stroke-width="2.71429" stroke-linecap="round" stroke-linejoin="round"/>
<path d="M19 1.85718C16.6831 1.85718 14.3889 2.31352 12.2484 3.20016C10.1079 4.0868 8.16295 5.38637 6.52466 7.02466C4.88635 8.66295 3.5868 10.6079 2.70016 12.7484C1.81353 14.8889 1.35718 17.1831 1.35718 19.5" stroke="white" stroke-width="2.71429" stroke-linecap="round" stroke-linejoin="round"/>
<path d="M19 8.64282C16.1205 8.64282 13.3589 9.7867 11.3228 11.8228C9.2867 13.8589 8.14282 16.6205 8.14282 19.5" stroke="white" stroke-width="2.71429" stroke-linecap="round" stroke-linejoin="round"/>
</g>
<defs>
<clipPath id="clip0_402_1262">
<rect width="38" height="38" fill="white" transform="translate(0 0.5)"/>
</clipPath>
</defs>
</svg>
