<?xml version="1.0" standalone="no"?>
<!DOCTYPE svg PUBLIC "-//W3C//DTD SVG 20010904//EN"
 "http://www.w3.org/TR/2001/REC-SVG-20010904/DTD/svg10.dtd">
<svg version="1.0" xmlns="http://www.w3.org/2000/svg"
 width="928.000000pt" height="928.000000pt" viewBox="0 0 928.000000 928.000000"
 preserveAspectRatio="xMidYMid meet">
<metadata>
Created by potrace 1.14, written by Peter Selinger 2001-2017
</metadata>
<g transform="translate(0.000000,928.000000) scale(0.100000,-0.100000)"
fill="#000000" stroke="none">
<path d="M4318 9275 c-2 -2 -39 -6 -83 -10 -44 -3 -87 -7 -95 -10 -8 -2 -40
-7 -70 -10 -66 -8 -110 -14 -130 -20 -8 -2 -28 -7 -45 -10 -35 -6 -44 -8 -155
-35 -134 -33 -397 -121 -457 -153 -18 -10 -34 -16 -35 -15 -5 5 -312 -149
-350 -175 -20 -14 -39 -23 -42 -19 -3 3 -6 0 -6 -6 0 -7 -5 -12 -11 -12 -6 0
-25 -11 -43 -25 -18 -14 -36 -25 -40 -25 -4 0 -12 -5 -19 -10 -7 -6 -50 -37
-96 -70 -46 -33 -98 -72 -117 -87 -18 -16 -50 -41 -71 -58 -93 -74 -293 -270
-378 -371 -110 -130 -195 -241 -195 -253 0 -5 -4 -11 -9 -13 -10 -3 -123 -175
-143 -218 -7 -14 -15 -27 -18 -30 -3 -3 -16 -27 -30 -55 -14 -27 -27 -52 -30
-55 -3 -3 -29 -55 -58 -117 -117 -249 -202 -513 -257 -798 -3 -16 -8 -41 -10
-55 -3 -14 -8 -45 -11 -70 -3 -25 -7 -56 -9 -69 -20 -120 -26 -549 -11 -706 9
-95 31 -239 51 -335 3 -14 8 -38 11 -54 2 -16 7 -32 9 -36 2 -4 7 -22 10 -41
15 -87 95 -331 160 -489 45 -109 157 -328 208 -407 15 -24 27 -47 27 -53 0 -5
5 -10 10 -10 6 0 10 -7 10 -15 0 -8 5 -15 10 -15 6 0 10 -5 10 -11 0 -13 47
-81 148 -214 101 -134 377 -422 477 -500 21 -16 43 -35 49 -40 39 -37 348
-255 362 -255 3 0 19 -10 37 -22 l32 -23 -1 -430 c-1 -381 1 -438 17 -501 16
-64 54 -161 68 -174 4 -3 13 -18 21 -34 23 -45 140 -157 203 -194 66 -40 175
-79 243 -88 27 -4 515 -7 1084 -7 1092 0 1079 -1 1200 46 179 69 330 232 384
417 25 84 29 153 30 579 l1 394 40 24 c22 13 47 26 55 30 8 4 17 9 20 12 6 7
122 85 134 90 5 2 16 10 25 18 9 7 54 43 101 79 117 90 187 152 304 270 97 97
196 203 196 210 0 4 29 39 55 68 38 42 235 328 235 342 0 3 8 18 19 32 37 53
211 406 217 442 0 3 6 19 13 35 40 96 130 401 147 500 2 17 7 37 9 45 4 17 14
79 20 125 2 17 6 41 9 55 32 177 38 601 11 785 -2 17 -7 55 -10 85 -10 77 -21
149 -30 180 -2 8 -6 31 -9 50 -9 60 -63 262 -101 377 -39 114 -41 121 -74 195
-12 26 -21 50 -21 53 0 12 -109 233 -150 305 -23 41 -51 89 -61 107 -50 87
-179 267 -305 423 -48 60 -328 333 -399 390 -44 35 -82 67 -85 70 -3 3 -23 17
-45 32 -22 15 -53 39 -69 53 -16 14 -35 25 -43 25 -7 0 -13 3 -13 8 0 4 -16
16 -36 27 -19 10 -48 29 -62 42 -15 13 -30 23 -34 23 -3 0 -44 22 -90 48 -103
59 -270 141 -363 177 -38 14 -90 35 -115 45 -42 17 -197 68 -230 76 -8 2 -60
15 -115 29 -55 14 -116 28 -135 31 -19 2 -69 11 -110 19 -68 13 -97 17 -225
32 -51 5 -522 13 -527 8z m365 -641 c55 -2 115 -6 131 -8 17 -3 54 -8 81 -11
28 -3 57 -7 65 -9 8 -1 31 -6 50 -9 64 -12 85 -17 125 -26 268 -61 560 -184
805 -339 55 -35 220 -151 230 -162 3 -3 37 -32 75 -65 131 -112 249 -237 360
-382 42 -54 79 -102 83 -108 25 -32 140 -224 146 -242 4 -13 12 -23 17 -23 5
0 9 -5 9 -11 0 -7 18 -48 39 -93 54 -112 80 -175 85 -201 2 -12 9 -31 14 -41
10 -19 23 -50 28 -69 1 -5 16 -58 33 -118 16 -59 33 -126 36 -149 4 -24 8 -46
11 -49 2 -4 6 -22 9 -40 2 -19 6 -43 9 -55 4 -20 12 -89 22 -194 8 -81 8 -334
0 -420 -11 -119 -15 -153 -21 -180 -3 -14 -8 -43 -11 -65 -4 -32 -27 -131 -58
-256 -15 -58 -62 -196 -98 -283 -138 -337 -347 -643 -617 -900 -70 -67 -66
-63 -141 -124 -36 -28 -72 -59 -81 -67 -9 -8 -21 -15 -27 -15 -5 0 -12 -4 -14
-9 -3 -9 -179 -125 -238 -157 -19 -10 -37 -21 -40 -24 -3 -3 -35 -19 -71 -37
-85 -42 -143 -97 -176 -169 -27 -59 -28 -60 -29 -305 -1 -136 -4 -251 -8 -258
-4 -6 -4 -11 1 -11 9 0 9 -212 -1 -228 -3 -6 -3 -13 1 -15 6 -4 9 -251 4 -294
-1 -6 -1886 -9 -1958 -4 -10 1 -13 112 -13 521 0 507 -1 521 -22 577 -27 74
-100 146 -193 193 -39 19 -71 38 -73 42 -2 5 -9 8 -16 8 -16 0 -202 122 -295
193 -381 292 -659 656 -843 1104 -6 16 -12 33 -14 38 -2 6 -19 55 -38 110 -20
55 -38 114 -40 131 -3 17 -10 42 -15 56 -5 14 -12 42 -15 62 -4 21 -8 41 -10
45 -2 3 -7 22 -10 41 -3 19 -8 46 -11 60 -3 14 -8 49 -11 79 -3 30 -8 64 -10
75 -2 12 -6 76 -9 142 -2 67 -5 125 -6 130 -1 5 -1 11 0 14 1 3 4 57 6 120 2
63 6 129 8 145 3 17 9 55 12 85 4 30 9 64 12 75 2 11 5 29 7 40 2 11 9 47 16
80 7 33 14 67 15 75 2 8 4 15 5 15 1 0 3 11 6 23 19 106 134 399 220 562 54
102 188 313 219 344 8 8 15 19 15 24 0 6 3 12 8 14 4 2 27 28 52 58 25 30 54
64 65 76 155 163 192 199 310 292 50 39 97 77 105 84 49 42 385 241 410 243 3
0 15 6 28 13 12 7 22 9 22 5 0 -4 4 -3 8 2 6 9 39 26 87 46 35 14 169 61 185
64 8 2 29 8 45 15 17 6 30 11 30 10 0 -1 7 1 15 4 27 9 217 51 274 60 120 20
170 25 320 31 71 2 131 7 134 10 3 2 9 2 14 -1 5 -3 55 -8 111 -10z"/>
<path d="M4467 8089 c-123 -29 -221 -131 -243 -254 -4 -22 -8 -118 -8 -215 -1
-167 -2 -175 -21 -176 -54 -4 -126 -16 -156 -25 -19 -6 -45 -12 -59 -15 -36
-7 -209 -92 -250 -123 -72 -54 -139 -118 -186 -177 -36 -46 -104 -151 -104
-162 0 -4 -6 -19 -14 -33 -15 -30 -44 -114 -51 -147 -2 -12 -6 -25 -8 -30 -15
-25 -23 -221 -13 -302 18 -139 64 -262 143 -385 48 -74 204 -235 227 -235 8 0
16 -4 18 -9 13 -36 297 -151 372 -151 12 0 27 -5 34 -12 7 -7 12 -9 12 -6 0 3
39 -3 88 -14 48 -11 101 -22 117 -24 17 -3 66 -14 110 -25 44 -10 91 -21 105
-24 23 -4 38 -7 98 -20 12 -3 32 -7 45 -10 95 -20 129 -30 175 -51 234 -107
253 -439 32 -578 -75 -48 -108 -52 -390 -50 -146 1 -279 4 -297 7 -93 17 -183
96 -236 209 -68 146 -160 211 -302 212 -67 0 -89 -4 -136 -26 -107 -52 -182
-167 -182 -282 0 -66 5 -89 41 -175 53 -125 144 -247 275 -367 23 -20 132 -92
172 -112 56 -28 165 -72 165 -66 0 3 8 0 18 -5 11 -6 41 -13 68 -17 97 -13 91
-1 90 -181 0 -87 2 -182 6 -211 16 -129 103 -230 229 -266 148 -42 308 31 375
173 27 55 27 61 29 261 l2 205 76 16 c210 45 357 122 502 264 62 61 125 138
125 154 0 6 4 11 9 11 7 0 91 158 98 185 1 6 14 53 29 105 27 101 37 268 22
375 -11 71 -43 184 -72 250 -14 30 -26 59 -26 63 -1 4 -17 28 -36 55 -19 26
-34 51 -34 56 0 17 -228 241 -246 241 -3 0 -24 13 -47 28 -88 59 -300 132
-425 147 -18 2 -36 6 -40 9 -5 3 -24 8 -43 11 -19 3 -62 12 -95 20 -34 8 -73
16 -85 19 -13 2 -58 12 -99 21 -41 9 -115 26 -165 36 -49 11 -101 22 -114 25
-134 29 -227 177 -198 314 16 74 70 140 145 177 l56 27 291 1 c185 1 309 -3
341 -10 112 -25 184 -90 254 -231 68 -138 178 -204 317 -191 160 15 278 136
290 295 4 57 0 79 -26 151 -29 80 -127 251 -143 251 -5 0 -8 5 -8 11 0 16
-127 136 -197 186 -113 80 -305 158 -409 165 -19 1 -38 7 -42 12 -3 5 -6 96
-8 200 -2 193 -3 203 -26 266 -18 48 -107 136 -161 159 -54 23 -148 33 -200
20z"/>
<path d="M3190 792 c-65 -8 -121 -36 -173 -85 -72 -70 -100 -132 -101 -222 0
-109 20 -161 86 -226 67 -66 77 -72 143 -89 52 -13 233 -15 1405 -15 1254 1
1348 2 1397 18 28 10 62 27 75 38 12 12 28 24 34 27 25 17 73 92 89 141 15 45
22 111 15 131 -1 3 -4 18 -6 35 -15 87 -87 176 -181 220 -29 14 -56 25 -60 24
-4 -1 -10 0 -13 1 -8 3 -2681 5 -2710 2z"/>
</g>
</svg>
