<svg width="1392" height="600" viewBox="0 0 1392 600" fill="none" xmlns="http://www.w3.org/2000/svg">
<rect width="1392" height="600" fill="#1C1C1C"/>
<path d="M70.592 112.016C69.696 114.224 68.72 116.112 67.664 117.68C66.608 119.248 65.28 120.448 63.68 121.28C62.08 122.08 59.968 122.48 57.344 122.48C56.576 122.48 55.696 122.416 54.704 122.288C53.712 122.16 52.8 121.984 51.968 121.76V115.328C52.736 115.648 53.568 115.872 54.464 116C55.36 116.128 56.192 116.192 56.96 116.192C57.888 116.192 58.672 116.032 59.312 115.712C59.952 115.392 60.48 114.976 60.896 114.464C61.312 113.92 61.648 113.312 61.904 112.64L50.48 87.728H58.784L64.016 100.736C64.272 101.344 64.496 101.952 64.688 102.56C64.912 103.168 65.104 103.776 65.264 104.384C65.456 104.96 65.616 105.552 65.744 106.16H65.984C66.144 105.584 66.304 104.992 66.464 104.384C66.656 103.744 66.848 103.12 67.04 102.512C67.264 101.872 67.488 101.248 67.712 100.64L72.416 87.728H80.576L70.592 112.016ZM104.057 95.792V116.768H107.705V131.408H100.889V122H84.9534V131.408H78.1854V116.768H80.3454C81.3054 115.008 82.1374 113.008 82.8414 110.768C83.5774 108.496 84.1694 106.08 84.6174 103.52C85.0974 100.96 85.4334 98.384 85.6254 95.792H104.057ZM91.7694 101.168C91.5454 103.088 91.2734 104.96 90.9534 106.784C90.6334 108.576 90.2494 110.304 89.8014 111.968C89.3534 113.632 88.8094 115.232 88.1694 116.768H96.3774V101.168H91.7694ZM134.665 108.848C134.665 111.024 134.377 112.96 133.801 114.656C133.257 116.352 132.457 117.792 131.401 118.976C130.345 120.128 129.049 121.008 127.513 121.616C126.009 122.192 124.313 122.48 122.424 122.48C120.665 122.48 119.033 122.192 117.529 121.616C116.025 121.008 114.729 120.128 113.641 118.976C112.585 117.792 111.753 116.352 111.145 114.656C110.569 112.96 110.281 111.024 110.281 108.848C110.281 105.936 110.777 103.488 111.769 101.504C112.761 99.488 114.169 97.952 115.993 96.896C117.817 95.84 120.009 95.312 122.569 95.312C124.937 95.312 127.017 95.84 128.809 96.896C130.633 97.952 132.057 99.488 133.081 101.504C134.137 103.488 134.665 105.936 134.665 108.848ZM118.105 108.848C118.105 110.576 118.249 112.032 118.537 113.216C118.857 114.368 119.337 115.248 119.977 115.856C120.649 116.432 121.497 116.72 122.521 116.72C123.577 116.72 124.409 116.432 125.017 115.856C125.657 115.248 126.121 114.368 126.409 113.216C126.697 112.032 126.841 110.576 126.841 108.848C126.841 107.12 126.697 105.68 126.409 104.528C126.121 103.376 125.641 102.512 124.969 101.936C124.329 101.36 123.497 101.072 122.473 101.072C120.905 101.072 119.785 101.728 119.113 103.04C118.441 104.32 118.105 106.256 118.105 108.848ZM138.593 106.304C138.593 102.432 139.057 99.152 139.985 96.464C140.913 93.776 142.417 91.616 144.497 89.984C146.609 88.352 149.441 87.232 152.993 86.624C154.497 86.368 156.049 86.144 157.649 85.952C159.281 85.728 160.929 85.504 162.593 85.28L163.361 91.52C162.593 91.616 161.777 91.728 160.913 91.856C160.049 91.952 159.169 92.064 158.273 92.192C157.409 92.32 156.561 92.448 155.729 92.576C154.897 92.672 154.145 92.768 153.473 92.864C152.129 93.056 151.009 93.328 150.113 93.68C149.249 94 148.545 94.464 148.001 95.072C147.457 95.68 147.041 96.512 146.753 97.568C146.497 98.592 146.337 99.92 146.273 101.552H146.609C146.929 100.944 147.393 100.336 148.001 99.728C148.641 99.12 149.425 98.608 150.353 98.192C151.313 97.776 152.401 97.568 153.617 97.568C155.537 97.568 157.217 98 158.657 98.864C160.129 99.728 161.265 101.008 162.065 102.704C162.897 104.4 163.313 106.512 163.313 109.04C163.313 112.016 162.785 114.496 161.729 116.48C160.673 118.464 159.217 119.968 157.361 120.992C155.505 121.984 153.361 122.48 150.929 122.48C149.041 122.48 147.345 122.128 145.841 121.424C144.337 120.72 143.041 119.68 141.953 118.304C140.865 116.928 140.033 115.232 139.457 113.216C138.881 111.2 138.593 108.896 138.593 106.304ZM151.313 116.672C152.145 116.672 152.865 116.448 153.473 116C154.113 115.552 154.609 114.816 154.961 113.792C155.313 112.768 155.489 111.392 155.489 109.664C155.489 107.584 155.201 105.936 154.625 104.72C154.081 103.472 153.105 102.848 151.697 102.848C150.865 102.848 150.081 103.104 149.345 103.616C148.609 104.096 147.985 104.656 147.473 105.296C146.961 105.904 146.609 106.432 146.417 106.88C146.417 108.128 146.497 109.344 146.657 110.528C146.817 111.68 147.089 112.72 147.473 113.648C147.857 114.576 148.353 115.312 148.961 115.856C149.601 116.4 150.385 116.672 151.313 116.672ZM179.281 122.48C176.785 122.48 174.641 122.016 172.849 121.088C171.057 120.128 169.681 118.656 168.721 116.672C167.761 114.688 167.281 112.144 167.281 109.04C167.281 105.84 167.809 103.232 168.865 101.216C169.953 99.2 171.441 97.712 173.329 96.752C175.249 95.792 177.441 95.312 179.905 95.312C181.505 95.312 182.993 95.488 184.369 95.84C185.745 96.192 186.897 96.608 187.825 97.088L185.569 102.464C184.609 102.048 183.729 101.712 182.929 101.456C182.161 101.2 181.313 101.072 180.385 101.072C179.265 101.072 178.305 101.376 177.505 101.984C176.737 102.56 176.145 103.44 175.729 104.624C175.313 105.776 175.105 107.232 175.105 108.992C175.105 110.72 175.313 112.16 175.729 113.312C176.177 114.432 176.785 115.28 177.553 115.856C178.353 116.4 179.297 116.672 180.385 116.672C181.601 116.672 182.753 116.48 183.841 116.096C184.961 115.68 186.017 115.12 187.009 114.416V120.512C185.953 121.216 184.817 121.712 183.601 122C182.417 122.32 180.977 122.48 179.281 122.48ZM214.086 101.168H205.926V122H198.294V101.168H190.134V95.792H214.086V101.168ZM240.869 102.656C240.869 104.064 240.469 105.264 239.669 106.256C238.869 107.248 237.653 107.888 236.021 108.176V108.368C237.781 108.592 239.157 109.216 240.149 110.24C241.141 111.264 241.637 112.576 241.637 114.176C241.637 115.296 241.445 116.336 241.061 117.296C240.677 118.256 240.053 119.088 239.189 119.792C238.325 120.496 237.173 121.04 235.733 121.424C234.293 121.808 232.517 122 230.405 122H218.405V95.792H230.405C232.645 95.792 234.533 96.016 236.069 96.464C237.637 96.88 238.821 97.584 239.621 98.576C240.453 99.568 240.869 100.928 240.869 102.656ZM233.813 113.792C233.813 112.768 233.509 112.032 232.901 111.584C232.293 111.104 231.333 110.864 230.021 110.864H226.085V117.056H230.021C231.237 117.056 232.165 116.816 232.805 116.336C233.477 115.824 233.813 114.976 233.813 113.792ZM233.189 103.232C233.189 102.4 232.933 101.792 232.421 101.408C231.909 101.024 231.173 100.832 230.213 100.832H226.085V106.016H229.637C230.821 106.016 231.701 105.808 232.277 105.392C232.885 104.944 233.189 104.224 233.189 103.232ZM269.899 108.848C269.899 111.024 269.611 112.96 269.035 114.656C268.491 116.352 267.691 117.792 266.635 118.976C265.579 120.128 264.283 121.008 262.747 121.616C261.243 122.192 259.547 122.48 257.659 122.48C255.899 122.48 254.267 122.192 252.763 121.616C251.259 121.008 249.963 120.128 248.875 118.976C247.819 117.792 246.987 116.352 246.379 114.656C245.803 112.96 245.515 111.024 245.515 108.848C245.515 105.936 246.011 103.488 247.003 101.504C247.995 99.488 249.403 97.952 251.227 96.896C253.051 95.84 255.243 95.312 257.803 95.312C260.171 95.312 262.251 95.84 264.043 96.896C265.867 97.952 267.291 99.488 268.315 101.504C269.371 103.488 269.899 105.936 269.899 108.848ZM253.339 108.848C253.339 110.576 253.483 112.032 253.771 113.216C254.091 114.368 254.571 115.248 255.211 115.856C255.883 116.432 256.731 116.72 257.755 116.72C258.811 116.72 259.643 116.432 260.251 115.856C260.891 115.248 261.355 114.368 261.643 113.216C261.931 112.032 262.075 110.576 262.075 108.848C262.075 107.12 261.931 105.68 261.643 104.528C261.355 103.376 260.875 102.512 260.203 101.936C259.563 101.36 258.731 101.072 257.707 101.072C256.139 101.072 255.019 101.728 254.347 103.04C253.675 104.32 253.339 106.256 253.339 108.848Z" fill="white"/>
<path d="M59.264 284L54.08 268.976H53.984C54.016 269.296 54.04 269.704 54.056 270.2C54.088 270.696 54.112 271.24 54.128 271.832C54.144 272.408 54.152 273 54.152 273.608V284H52.184V266.864H55.304L60.176 280.904H60.272L65.24 266.864H68.36V284H66.248V273.464C66.248 272.904 66.256 272.352 66.272 271.808C66.288 271.248 66.312 270.728 66.344 270.248C66.376 269.752 66.4 269.336 66.416 269H66.32L61.04 284H59.264ZM83.0347 277.544C83.0347 278.616 82.8987 279.568 82.6267 280.4C82.3707 281.216 81.9947 281.912 81.4987 282.488C81.0027 283.064 80.4027 283.504 79.6987 283.808C78.9947 284.096 78.2107 284.24 77.3467 284.24C76.5467 284.24 75.8027 284.096 75.1147 283.808C74.4427 283.504 73.8507 283.064 73.3387 282.488C72.8427 281.912 72.4587 281.216 72.1867 280.4C71.9147 279.568 71.7787 278.616 71.7787 277.544C71.7787 276.12 72.0027 274.92 72.4507 273.944C72.9147 272.952 73.5707 272.2 74.4187 271.688C75.2667 271.16 76.2667 270.896 77.4187 270.896C78.5227 270.896 79.4907 271.16 80.3227 271.688C81.1707 272.2 81.8347 272.952 82.3147 273.944C82.7947 274.92 83.0347 276.12 83.0347 277.544ZM73.9387 277.544C73.9387 278.552 74.0587 279.432 74.2987 280.184C74.5387 280.92 74.9147 281.488 75.4267 281.888C75.9387 282.288 76.5947 282.488 77.3947 282.488C78.1947 282.488 78.8507 282.288 79.3627 281.888C79.8747 281.488 80.2507 280.92 80.4907 280.184C80.7467 279.432 80.8747 278.552 80.8747 277.544C80.8747 276.52 80.7467 275.648 80.4907 274.928C80.2507 274.208 79.8747 273.656 79.3627 273.272C78.8507 272.872 78.1867 272.672 77.3707 272.672C76.1707 272.672 75.2987 273.104 74.7547 273.968C74.2107 274.832 73.9387 276.024 73.9387 277.544ZM85.5142 276.272C85.5142 274.4 85.6902 272.808 86.0422 271.496C86.4102 270.168 86.9702 269.112 87.7222 268.328C88.4902 267.528 89.4742 266.992 90.6742 266.72C91.6342 266.496 92.5782 266.296 93.5062 266.12C94.4342 265.944 95.3062 265.784 96.1222 265.64L96.4822 267.488C96.0822 267.552 95.6422 267.632 95.1622 267.728C94.6822 267.808 94.1942 267.896 93.6982 267.992C93.2182 268.072 92.7462 268.16 92.2822 268.256C91.8342 268.336 91.4342 268.416 91.0822 268.496C90.5862 268.608 90.1382 268.8 89.7382 269.072C89.3542 269.328 89.0182 269.68 88.7302 270.128C88.4582 270.576 88.2342 271.128 88.0582 271.784C87.8982 272.44 87.8022 273.216 87.7702 274.112H87.9142C88.1222 273.808 88.4102 273.496 88.7782 273.176C89.1462 272.856 89.5862 272.584 90.0982 272.36C90.6102 272.136 91.1942 272.024 91.8502 272.024C92.8902 272.024 93.7622 272.272 94.4662 272.768C95.1702 273.248 95.6982 273.92 96.0502 274.784C96.4182 275.648 96.6022 276.656 96.6022 277.808C96.6022 279.232 96.3622 280.424 95.8822 281.384C95.4182 282.344 94.7702 283.064 93.9382 283.544C93.1062 284.008 92.1382 284.24 91.0342 284.24C90.2022 284.24 89.4422 284.072 88.7542 283.736C88.0822 283.384 87.4982 282.872 87.0022 282.2C86.5222 281.528 86.1542 280.696 85.8982 279.704C85.6422 278.712 85.5142 277.568 85.5142 276.272ZM91.2022 282.488C91.8422 282.488 92.4022 282.344 92.8822 282.056C93.3622 281.768 93.7302 281.296 93.9862 280.64C94.2582 279.984 94.3942 279.112 94.3942 278.024C94.3942 276.712 94.1702 275.68 93.7222 274.928C93.2742 274.16 92.5382 273.776 91.5142 273.776C90.8582 273.776 90.2662 273.936 89.7382 274.256C89.2102 274.56 88.7622 274.912 88.3942 275.312C88.0422 275.712 87.7942 276.048 87.6502 276.32C87.6502 277.104 87.6982 277.864 87.7942 278.6C87.9062 279.336 88.0902 280 88.3462 280.592C88.6182 281.168 88.9782 281.632 89.4262 281.984C89.8902 282.32 90.4822 282.488 91.2022 282.488ZM101.677 278.984C101.677 279.128 101.669 279.336 101.653 279.608C101.653 279.864 101.645 280.144 101.629 280.448C101.613 280.736 101.597 281.016 101.581 281.288C101.565 281.544 101.549 281.752 101.533 281.912L107.965 271.136H110.509V284H108.565V276.416C108.565 276.16 108.565 275.824 108.565 275.408C108.581 274.992 108.597 274.584 108.613 274.184C108.629 273.768 108.645 273.456 108.661 273.248L102.301 284H99.7085V271.136H101.677V278.984ZM123.694 284H121.582V272.888H118.054C117.91 274.92 117.718 276.656 117.478 278.096C117.254 279.52 116.966 280.68 116.614 281.576C116.278 282.472 115.87 283.128 115.39 283.544C114.91 283.96 114.342 284.168 113.686 284.168C113.478 284.168 113.27 284.152 113.062 284.12C112.87 284.104 112.71 284.064 112.582 284V282.416C112.678 282.448 112.782 282.472 112.894 282.488C113.006 282.504 113.118 282.512 113.229 282.512C113.55 282.512 113.838 282.368 114.094 282.08C114.366 281.792 114.606 281.352 114.814 280.76C115.038 280.168 115.238 279.424 115.414 278.528C115.59 277.616 115.742 276.544 115.87 275.312C116.014 274.08 116.142 272.688 116.254 271.136H123.694V284ZM133.074 276.416C134.13 276.416 135.01 276.552 135.714 276.824C136.418 277.096 136.946 277.504 137.298 278.048C137.666 278.576 137.85 279.248 137.85 280.064C137.85 280.864 137.682 281.56 137.346 282.152C137.01 282.744 136.482 283.2 135.762 283.52C135.058 283.84 134.138 284 133.002 284H127.482V271.136H129.57V276.416H133.074ZM135.762 280.184C135.762 279.4 135.506 278.872 134.994 278.6C134.482 278.312 133.77 278.168 132.858 278.168H129.57V282.296H132.906C133.722 282.296 134.402 282.136 134.946 281.816C135.49 281.496 135.762 280.952 135.762 280.184ZM143 271.136V276.488H149.432V271.136H151.52V284H149.432V278.264H143V284H140.912V271.136H143ZM155.302 284V271.136H157.39V276.416H160.414C161.486 276.416 162.366 276.552 163.054 276.824C163.742 277.096 164.254 277.504 164.59 278.048C164.926 278.576 165.094 279.248 165.094 280.064C165.094 280.864 164.926 281.56 164.59 282.152C164.27 282.744 163.758 283.2 163.054 283.52C162.366 283.84 161.462 284 160.342 284H155.302ZM160.15 282.296C160.998 282.296 161.686 282.144 162.214 281.84C162.742 281.52 163.006 280.968 163.006 280.184C163.006 279.4 162.758 278.872 162.262 278.6C161.782 278.312 161.086 278.168 160.174 278.168H157.39V282.296H160.15ZM167.086 284V271.136H169.174V284H167.086ZM177.678 270.896C178.718 270.896 179.614 271.136 180.366 271.616C181.118 272.096 181.694 272.776 182.094 273.656C182.51 274.52 182.718 275.536 182.718 276.704V277.976H174.462C174.494 279.432 174.838 280.544 175.494 281.312C176.15 282.064 177.07 282.44 178.254 282.44C179.022 282.44 179.702 282.368 180.294 282.224C180.902 282.064 181.526 281.84 182.166 281.552V283.4C181.542 283.688 180.926 283.896 180.318 284.024C179.726 284.168 179.006 284.24 178.158 284.24C177.006 284.24 175.99 283.992 175.11 283.496C174.23 283 173.542 282.264 173.046 281.288C172.55 280.296 172.302 279.088 172.302 277.664C172.302 276.256 172.526 275.048 172.974 274.04C173.422 273.032 174.046 272.256 174.846 271.712C175.662 271.168 176.606 270.896 177.678 270.896ZM177.678 272.624C176.75 272.624 176.014 272.952 175.47 273.608C174.926 274.248 174.606 275.144 174.51 276.296H180.558C180.558 275.56 180.454 274.92 180.246 274.376C180.038 273.832 179.718 273.408 179.286 273.104C178.87 272.784 178.334 272.624 177.678 272.624ZM201.903 271.136V284H199.815V272.936H193.695V284H191.607V271.136H201.903ZM211.548 270.896C213.036 270.896 214.228 271.448 215.124 272.552C216.036 273.656 216.492 275.32 216.492 277.544C216.492 279 216.284 280.232 215.868 281.24C215.452 282.232 214.868 282.984 214.116 283.496C213.38 283.992 212.516 284.24 211.524 284.24C210.9 284.24 210.348 284.152 209.868 283.976C209.404 283.8 209.004 283.576 208.668 283.304C208.332 283.016 208.044 282.704 207.804 282.368H207.66C207.692 282.64 207.724 282.984 207.756 283.4C207.788 283.816 207.804 284.176 207.804 284.48V289.76H205.716V271.136H207.42L207.708 272.888H207.804C208.044 272.52 208.332 272.184 208.668 271.88C209.004 271.576 209.404 271.336 209.868 271.16C210.348 270.984 210.908 270.896 211.548 270.896ZM211.14 272.672C210.34 272.672 209.692 272.84 209.196 273.176C208.716 273.496 208.364 273.984 208.14 274.64C207.916 275.296 207.804 276.128 207.804 277.136V277.544C207.804 278.6 207.9 279.496 208.092 280.232C208.3 280.968 208.652 281.528 209.148 281.912C209.644 282.296 210.324 282.488 211.188 282.488C211.908 282.488 212.5 282.272 212.964 281.84C213.428 281.408 213.772 280.824 213.996 280.088C214.22 279.336 214.332 278.48 214.332 277.52C214.332 276.048 214.068 274.872 213.54 273.992C213.028 273.112 212.228 272.672 211.14 272.672ZM221.583 278.984C221.583 279.128 221.575 279.336 221.559 279.608C221.559 279.864 221.551 280.144 221.535 280.448C221.519 280.736 221.503 281.016 221.487 281.288C221.471 281.544 221.455 281.752 221.439 281.912L227.871 271.136H230.415V284H228.471V276.416C228.471 276.16 228.471 275.824 228.471 275.408C228.487 274.992 228.503 274.584 228.519 274.184C228.535 273.768 228.551 273.456 228.567 273.248L222.207 284H219.615V271.136H221.583V278.984ZM243.6 284H241.488V272.888H237.96C237.816 274.92 237.624 276.656 237.384 278.096C237.16 279.52 236.872 280.68 236.52 281.576C236.184 282.472 235.776 283.128 235.296 283.544C234.816 283.96 234.248 284.168 233.592 284.168C233.384 284.168 233.176 284.152 232.968 284.12C232.776 284.104 232.616 284.064 232.488 284V282.416C232.584 282.448 232.688 282.472 232.8 282.488C232.912 282.504 233.024 282.512 233.136 282.512C233.456 282.512 233.744 282.368 234 282.08C234.272 281.792 234.512 281.352 234.72 280.76C234.944 280.168 235.144 279.424 235.32 278.528C235.496 277.616 235.648 276.544 235.776 275.312C235.92 274.08 236.048 272.688 236.16 271.136H243.6V284ZM257.972 277.544C257.972 278.616 257.836 279.568 257.564 280.4C257.308 281.216 256.932 281.912 256.436 282.488C255.94 283.064 255.34 283.504 254.636 283.808C253.932 284.096 253.148 284.24 252.284 284.24C251.484 284.24 250.74 284.096 250.052 283.808C249.38 283.504 248.788 283.064 248.276 282.488C247.78 281.912 247.396 281.216 247.124 280.4C246.852 279.568 246.716 278.616 246.716 277.544C246.716 276.12 246.94 274.92 247.388 273.944C247.852 272.952 248.508 272.2 249.356 271.688C250.204 271.16 251.204 270.896 252.356 270.896C253.46 270.896 254.428 271.16 255.26 271.688C256.108 272.2 256.772 272.952 257.252 273.944C257.732 274.92 257.972 276.12 257.972 277.544ZM248.876 277.544C248.876 278.552 248.996 279.432 249.236 280.184C249.476 280.92 249.852 281.488 250.364 281.888C250.876 282.288 251.532 282.488 252.332 282.488C253.132 282.488 253.788 282.288 254.3 281.888C254.812 281.488 255.188 280.92 255.428 280.184C255.684 279.432 255.812 278.552 255.812 277.544C255.812 276.52 255.684 275.648 255.428 274.928C255.188 274.208 254.812 273.656 254.3 273.272C253.788 272.872 253.124 272.672 252.308 272.672C251.108 272.672 250.236 273.104 249.692 273.968C249.148 274.832 248.876 276.024 248.876 277.544ZM275.39 271.136L270.422 277.376L275.798 284H273.446L268.262 277.472V284H266.318V277.472L261.11 284H258.758L264.134 277.376L259.19 271.136H261.446L266.318 277.376V271.136H268.262V277.376L273.134 271.136H275.39ZM282.022 270.896C283.062 270.896 283.958 271.136 284.71 271.616C285.462 272.096 286.038 272.776 286.438 273.656C286.854 274.52 287.062 275.536 287.062 276.704V277.976H278.806C278.838 279.432 279.182 280.544 279.838 281.312C280.494 282.064 281.414 282.44 282.598 282.44C283.366 282.44 284.046 282.368 284.638 282.224C285.246 282.064 285.87 281.84 286.51 281.552V283.4C285.886 283.688 285.27 283.896 284.662 284.024C284.07 284.168 283.35 284.24 282.502 284.24C281.35 284.24 280.334 283.992 279.454 283.496C278.574 283 277.886 282.264 277.39 281.288C276.894 280.296 276.646 279.088 276.646 277.664C276.646 276.256 276.87 275.048 277.318 274.04C277.766 273.032 278.39 272.256 279.19 271.712C280.006 271.168 280.95 270.896 282.022 270.896ZM282.022 272.624C281.094 272.624 280.358 272.952 279.814 273.608C279.27 274.248 278.95 275.144 278.854 276.296H284.902C284.902 275.56 284.798 274.92 284.59 274.376C284.382 273.832 284.062 273.408 283.63 273.104C283.214 272.784 282.678 272.624 282.022 272.624ZM292.179 271.136V276.488H298.611V271.136H300.699V284H298.611V278.264H292.179V284H290.091V271.136H292.179ZM306.45 278.984C306.45 279.128 306.442 279.336 306.426 279.608C306.426 279.864 306.418 280.144 306.402 280.448C306.386 280.736 306.37 281.016 306.354 281.288C306.338 281.544 306.322 281.752 306.306 281.912L312.738 271.136H315.282V284H313.338V276.416C313.338 276.16 313.338 275.824 313.338 275.408C313.354 274.992 313.37 274.584 313.386 274.184C313.402 273.768 313.418 273.456 313.434 273.248L307.074 284H304.482V271.136H306.45V278.984ZM319.947 284H317.547L320.979 278.6C320.515 278.472 320.067 278.272 319.635 278C319.219 277.712 318.875 277.32 318.603 276.824C318.331 276.312 318.195 275.68 318.195 274.928C318.195 273.696 318.587 272.76 319.371 272.12C320.171 271.464 321.227 271.136 322.539 271.136H327.987V284H325.899V278.888H323.043L319.947 284ZM320.235 274.952C320.235 275.688 320.483 276.24 320.979 276.608C321.491 276.96 322.203 277.136 323.115 277.136H325.899V272.888H322.731C321.835 272.888 321.195 273.08 320.811 273.464C320.427 273.848 320.235 274.344 320.235 274.952ZM347.942 271.136V284H345.854V272.936H339.734V284H337.646V271.136H347.942ZM362.339 277.544C362.339 278.616 362.203 279.568 361.931 280.4C361.675 281.216 361.299 281.912 360.803 282.488C360.307 283.064 359.707 283.504 359.003 283.808C358.299 284.096 357.515 284.24 356.651 284.24C355.851 284.24 355.107 284.096 354.419 283.808C353.747 283.504 353.155 283.064 352.643 282.488C352.147 281.912 351.763 281.216 351.491 280.4C351.219 279.568 351.083 278.616 351.083 277.544C351.083 276.12 351.307 274.92 351.755 273.944C352.219 272.952 352.875 272.2 353.723 271.688C354.571 271.16 355.571 270.896 356.723 270.896C357.827 270.896 358.795 271.16 359.627 271.688C360.475 272.2 361.139 272.952 361.619 273.944C362.099 274.92 362.339 276.12 362.339 277.544ZM353.243 277.544C353.243 278.552 353.363 279.432 353.603 280.184C353.843 280.92 354.219 281.488 354.731 281.888C355.243 282.288 355.899 282.488 356.699 282.488C357.499 282.488 358.155 282.288 358.667 281.888C359.179 281.488 359.555 280.92 359.795 280.184C360.051 279.432 360.179 278.552 360.179 277.544C360.179 276.52 360.051 275.648 359.795 274.928C359.555 274.208 359.179 273.656 358.667 273.272C358.155 272.872 357.491 272.672 356.675 272.672C355.475 272.672 354.603 273.104 354.059 273.968C353.515 274.832 353.243 276.024 353.243 277.544ZM368.731 270.896C369.643 270.896 370.435 271.032 371.107 271.304C371.795 271.56 372.331 271.944 372.715 272.456C373.099 272.952 373.291 273.56 373.291 274.28C373.291 275.064 373.083 275.688 372.667 276.152C372.267 276.6 371.715 276.928 371.011 277.136V277.232C371.491 277.376 371.931 277.576 372.331 277.832C372.747 278.088 373.075 278.424 373.315 278.84C373.571 279.256 373.699 279.792 373.699 280.448C373.699 281.152 373.515 281.792 373.147 282.368C372.779 282.944 372.203 283.4 371.419 283.736C370.651 284.072 369.667 284.24 368.467 284.24C367.891 284.24 367.339 284.208 366.811 284.144C366.299 284.08 365.827 283.984 365.395 283.856C364.979 283.728 364.611 283.576 364.291 283.4V281.504C364.803 281.76 365.411 281.992 366.115 282.2C366.819 282.408 367.587 282.512 368.419 282.512C369.027 282.512 369.571 282.44 370.051 282.296C370.531 282.152 370.915 281.928 371.203 281.624C371.491 281.304 371.635 280.872 371.635 280.328C371.635 279.832 371.507 279.432 371.251 279.128C370.995 278.808 370.611 278.568 370.099 278.408C369.603 278.248 368.963 278.168 368.179 278.168H366.595V276.44H367.891C368.931 276.44 369.763 276.296 370.387 276.008C371.011 275.704 371.323 275.192 371.323 274.472C371.323 273.864 371.083 273.408 370.603 273.104C370.139 272.8 369.467 272.648 368.587 272.648C367.931 272.648 367.339 272.72 366.811 272.864C366.299 272.992 365.747 273.192 365.155 273.464L364.411 271.784C365.067 271.48 365.755 271.256 366.475 271.112C367.195 270.968 367.947 270.896 368.731 270.896ZM386.415 274.376C386.415 275.176 386.191 275.8 385.743 276.248C385.295 276.696 384.711 277 383.991 277.16V277.256C384.743 277.368 385.399 277.656 385.959 278.12C386.519 278.568 386.799 279.272 386.799 280.232C386.799 280.776 386.703 281.28 386.511 281.744C386.335 282.208 386.047 282.608 385.647 282.944C385.247 283.28 384.735 283.544 384.111 283.736C383.487 283.912 382.735 284 381.855 284H376.599V271.136H381.831C382.711 271.136 383.495 271.24 384.183 271.448C384.871 271.64 385.415 271.976 385.815 272.456C386.215 272.92 386.415 273.56 386.415 274.376ZM384.639 280.232C384.639 279.496 384.375 278.968 383.847 278.648C383.335 278.328 382.583 278.168 381.591 278.168H378.687V282.296H381.639C382.599 282.296 383.335 282.144 383.847 281.84C384.375 281.52 384.639 280.984 384.639 280.232ZM384.303 274.64C384.303 274.032 384.095 273.592 383.679 273.32C383.279 273.032 382.631 272.888 381.735 272.888H378.687V276.416H381.351C382.327 276.416 383.063 276.272 383.559 275.984C384.055 275.696 384.303 275.248 384.303 274.64ZM400.261 277.544C400.261 278.616 400.125 279.568 399.853 280.4C399.597 281.216 399.221 281.912 398.725 282.488C398.229 283.064 397.629 283.504 396.925 283.808C396.221 284.096 395.437 284.24 394.573 284.24C393.773 284.24 393.029 284.096 392.341 283.808C391.669 283.504 391.077 283.064 390.565 282.488C390.069 281.912 389.685 281.216 389.413 280.4C389.141 279.568 389.005 278.616 389.005 277.544C389.005 276.12 389.229 274.92 389.677 273.944C390.141 272.952 390.797 272.2 391.645 271.688C392.493 271.16 393.493 270.896 394.645 270.896C395.749 270.896 396.717 271.16 397.549 271.688C398.397 272.2 399.061 272.952 399.541 273.944C400.021 274.92 400.261 276.12 400.261 277.544ZM391.165 277.544C391.165 278.552 391.285 279.432 391.525 280.184C391.765 280.92 392.141 281.488 392.653 281.888C393.165 282.288 393.821 282.488 394.621 282.488C395.421 282.488 396.077 282.288 396.589 281.888C397.101 281.488 397.477 280.92 397.717 280.184C397.973 279.432 398.101 278.552 398.101 277.544C398.101 276.52 397.973 275.648 397.717 274.928C397.477 274.208 397.101 273.656 396.589 273.272C396.077 272.872 395.413 272.672 394.597 272.672C393.397 272.672 392.525 273.104 391.981 273.968C391.437 274.832 391.165 276.024 391.165 277.544ZM412.725 284H410.613V272.888H407.085C406.941 274.92 406.749 276.656 406.509 278.096C406.285 279.52 405.997 280.68 405.645 281.576C405.309 282.472 404.901 283.128 404.421 283.544C403.941 283.96 403.373 284.168 402.717 284.168C402.509 284.168 402.301 284.152 402.093 284.12C401.901 284.104 401.741 284.064 401.613 284V282.416C401.709 282.448 401.813 282.472 401.925 282.488C402.037 282.504 402.149 282.512 402.261 282.512C402.581 282.512 402.869 282.368 403.125 282.08C403.397 281.792 403.637 281.352 403.845 280.76C404.069 280.168 404.269 279.424 404.445 278.528C404.621 277.616 404.773 276.544 404.901 275.312C405.045 274.08 405.173 272.688 405.285 271.136H412.725V284ZM417.353 284H414.953L418.385 278.6C417.921 278.472 417.473 278.272 417.041 278C416.625 277.712 416.281 277.32 416.009 276.824C415.737 276.312 415.601 275.68 415.601 274.928C415.601 273.696 415.993 272.76 416.777 272.12C417.577 271.464 418.633 271.136 419.945 271.136H425.393V284H423.305V278.888H420.449L417.353 284ZM417.641 274.952C417.641 275.688 417.889 276.24 418.385 276.608C418.897 276.96 419.609 277.136 420.521 277.136H423.305V272.888H420.137C419.241 272.888 418.601 273.08 418.217 273.464C417.833 273.848 417.641 274.344 417.641 274.952ZM444.985 277.544C444.985 278.968 444.769 280.184 444.337 281.192C443.905 282.184 443.281 282.944 442.465 283.472C441.665 283.984 440.713 284.24 439.609 284.24C438.601 284.24 437.705 284.016 436.921 283.568C436.153 283.104 435.537 282.432 435.073 281.552C434.625 280.656 434.361 279.56 434.281 278.264H431.281V284H429.193V271.136H431.281V276.488H434.305C434.417 275.272 434.697 274.256 435.145 273.44C435.609 272.608 436.225 271.976 436.993 271.544C437.761 271.112 438.649 270.896 439.657 270.896C440.713 270.896 441.641 271.16 442.441 271.688C443.241 272.2 443.865 272.952 444.313 273.944C444.761 274.92 444.985 276.12 444.985 277.544ZM436.417 277.544C436.417 278.616 436.529 279.52 436.753 280.256C436.977 280.992 437.329 281.552 437.809 281.936C438.289 282.304 438.897 282.488 439.633 282.488C440.385 282.488 440.993 282.304 441.457 281.936C441.937 281.552 442.281 280.992 442.489 280.256C442.713 279.52 442.825 278.616 442.825 277.544C442.825 276.472 442.713 275.576 442.489 274.856C442.265 274.136 441.921 273.592 441.457 273.224C440.993 272.856 440.385 272.672 439.633 272.672C438.897 272.672 438.289 272.856 437.809 273.224C437.329 273.592 436.977 274.136 436.753 274.856C436.529 275.576 436.417 276.472 436.417 277.544ZM456.392 272.912H452.432V284H450.368V272.912H446.456V271.136H456.392V272.912ZM470.462 270.896C471.95 270.896 473.142 271.448 474.038 272.552C474.95 273.656 475.406 275.32 475.406 277.544C475.406 279 475.198 280.232 474.782 281.24C474.366 282.232 473.782 282.984 473.03 283.496C472.294 283.992 471.43 284.24 470.438 284.24C469.814 284.24 469.262 284.152 468.782 283.976C468.318 283.8 467.918 283.576 467.582 283.304C467.246 283.016 466.958 282.704 466.718 282.368H466.574C466.606 282.64 466.638 282.984 466.67 283.4C466.702 283.816 466.718 284.176 466.718 284.48V289.76H464.63V271.136H466.334L466.622 272.888H466.718C466.958 272.52 467.246 272.184 467.582 271.88C467.918 271.576 468.318 271.336 468.782 271.16C469.262 270.984 469.822 270.896 470.462 270.896ZM470.054 272.672C469.254 272.672 468.606 272.84 468.11 273.176C467.63 273.496 467.278 273.984 467.054 274.64C466.83 275.296 466.718 276.128 466.718 277.136V277.544C466.718 278.6 466.814 279.496 467.006 280.232C467.214 280.968 467.566 281.528 468.062 281.912C468.558 282.296 469.238 282.488 470.102 282.488C470.822 282.488 471.414 282.272 471.878 281.84C472.342 281.408 472.686 280.824 472.91 280.088C473.134 279.336 473.246 278.48 473.246 277.52C473.246 276.048 472.982 274.872 472.454 273.992C471.942 273.112 471.142 272.672 470.054 272.672ZM483.233 270.896C484.273 270.896 485.169 271.136 485.921 271.616C486.673 272.096 487.249 272.776 487.649 273.656C488.065 274.52 488.273 275.536 488.273 276.704V277.976H480.017C480.049 279.432 480.393 280.544 481.049 281.312C481.705 282.064 482.625 282.44 483.809 282.44C484.577 282.44 485.257 282.368 485.849 282.224C486.457 282.064 487.081 281.84 487.721 281.552V283.4C487.097 283.688 486.481 283.896 485.873 284.024C485.281 284.168 484.561 284.24 483.713 284.24C482.561 284.24 481.545 283.992 480.665 283.496C479.785 283 479.097 282.264 478.601 281.288C478.105 280.296 477.857 279.088 477.857 277.664C477.857 276.256 478.081 275.048 478.529 274.04C478.977 273.032 479.601 272.256 480.401 271.712C481.217 271.168 482.161 270.896 483.233 270.896ZM483.233 272.624C482.305 272.624 481.569 272.952 481.025 273.608C480.481 274.248 480.161 275.144 480.065 276.296H486.113C486.113 275.56 486.009 274.92 485.801 274.376C485.593 273.832 485.273 273.408 484.841 273.104C484.425 272.784 483.889 272.624 483.233 272.624ZM495.934 270.92C497.406 270.92 498.502 271.264 499.222 271.952C499.958 272.64 500.326 273.736 500.326 275.24V284H498.814L498.406 282.176H498.31C497.958 282.64 497.598 283.032 497.23 283.352C496.878 283.656 496.462 283.88 495.982 284.024C495.518 284.168 494.942 284.24 494.254 284.24C493.534 284.24 492.886 284.104 492.31 283.832C491.734 283.56 491.278 283.144 490.942 282.584C490.606 282.008 490.438 281.288 490.438 280.424C490.438 279.144 490.91 278.16 491.854 277.472C492.798 276.768 494.254 276.384 496.222 276.32L498.262 276.248V275.48C498.262 274.408 498.046 273.664 497.614 273.248C497.198 272.832 496.598 272.624 495.814 272.624C495.19 272.624 494.59 272.728 494.014 272.936C493.454 273.128 492.918 273.352 492.406 273.608L491.758 272.024C492.302 271.72 492.934 271.464 493.654 271.256C494.374 271.032 495.134 270.92 495.934 270.92ZM496.51 277.784C495.038 277.848 494.014 278.104 493.438 278.552C492.878 279 492.598 279.632 492.598 280.448C492.598 281.168 492.798 281.696 493.198 282.032C493.598 282.368 494.118 282.536 494.758 282.536C495.75 282.536 496.582 282.24 497.254 281.648C497.926 281.04 498.262 280.112 498.262 278.864V277.712L496.51 277.784ZM513.412 284H511.3V272.888H507.772C507.628 274.92 507.436 276.656 507.196 278.096C506.972 279.52 506.684 280.68 506.332 281.576C505.996 282.472 505.588 283.128 505.108 283.544C504.628 283.96 504.06 284.168 503.404 284.168C503.196 284.168 502.988 284.152 502.78 284.12C502.588 284.104 502.428 284.064 502.3 284V282.416C502.396 282.448 502.5 282.472 502.612 282.488C502.724 282.504 502.836 282.512 502.948 282.512C503.268 282.512 503.556 282.368 503.812 282.08C504.084 281.792 504.324 281.352 504.532 280.76C504.756 280.168 504.956 279.424 505.132 278.528C505.308 277.616 505.46 276.544 505.588 275.312C505.732 274.08 505.86 272.688 505.972 271.136H513.412V284ZM519.169 278.984C519.169 279.128 519.161 279.336 519.145 279.608C519.145 279.864 519.137 280.144 519.121 280.448C519.105 280.736 519.089 281.016 519.073 281.288C519.057 281.544 519.041 281.752 519.025 281.912L525.457 271.136H528.001V284H526.057V276.416C526.057 276.16 526.057 275.824 526.057 275.408C526.073 274.992 526.089 274.584 526.105 274.184C526.121 273.768 526.137 273.456 526.153 273.248L519.793 284H517.201V271.136H519.169V278.984ZM535.114 270.896C536.026 270.896 536.818 271.032 537.49 271.304C538.178 271.56 538.714 271.944 539.098 272.456C539.482 272.952 539.674 273.56 539.674 274.28C539.674 275.064 539.466 275.688 539.05 276.152C538.65 276.6 538.098 276.928 537.394 277.136V277.232C537.874 277.376 538.314 277.576 538.714 277.832C539.13 278.088 539.458 278.424 539.698 278.84C539.954 279.256 540.082 279.792 540.082 280.448C540.082 281.152 539.898 281.792 539.53 282.368C539.162 282.944 538.586 283.4 537.802 283.736C537.034 284.072 536.05 284.24 534.85 284.24C534.274 284.24 533.722 284.208 533.194 284.144C532.682 284.08 532.21 283.984 531.778 283.856C531.362 283.728 530.994 283.576 530.674 283.4V281.504C531.186 281.76 531.794 281.992 532.498 282.2C533.202 282.408 533.97 282.512 534.802 282.512C535.41 282.512 535.954 282.44 536.434 282.296C536.914 282.152 537.298 281.928 537.586 281.624C537.874 281.304 538.018 280.872 538.018 280.328C538.018 279.832 537.89 279.432 537.634 279.128C537.378 278.808 536.994 278.568 536.482 278.408C535.986 278.248 535.346 278.168 534.562 278.168H532.978V276.44H534.274C535.314 276.44 536.146 276.296 536.77 276.008C537.394 275.704 537.706 275.192 537.706 274.472C537.706 273.864 537.466 273.408 536.986 273.104C536.522 272.8 535.85 272.648 534.97 272.648C534.314 272.648 533.722 272.72 533.194 272.864C532.682 272.992 532.13 273.192 531.538 273.464L530.794 271.784C531.45 271.48 532.138 271.256 532.858 271.112C533.578 270.968 534.33 270.896 535.114 270.896ZM553.566 277.544C553.566 278.616 553.43 279.568 553.158 280.4C552.902 281.216 552.526 281.912 552.03 282.488C551.534 283.064 550.934 283.504 550.23 283.808C549.526 284.096 548.742 284.24 547.878 284.24C547.078 284.24 546.334 284.096 545.646 283.808C544.974 283.504 544.382 283.064 543.87 282.488C543.374 281.912 542.99 281.216 542.718 280.4C542.446 279.568 542.31 278.616 542.31 277.544C542.31 276.12 542.534 274.92 542.982 273.944C543.446 272.952 544.102 272.2 544.95 271.688C545.798 271.16 546.798 270.896 547.95 270.896C549.054 270.896 550.022 271.16 550.854 271.688C551.702 272.2 552.366 272.952 552.846 273.944C553.326 274.92 553.566 276.12 553.566 277.544ZM544.47 277.544C544.47 278.552 544.59 279.432 544.83 280.184C545.07 280.92 545.446 281.488 545.958 281.888C546.47 282.288 547.126 282.488 547.926 282.488C548.726 282.488 549.382 282.288 549.894 281.888C550.406 281.488 550.782 280.92 551.022 280.184C551.278 279.432 551.406 278.552 551.406 277.544C551.406 276.52 551.278 275.648 551.022 274.928C550.782 274.208 550.406 273.656 549.894 273.272C549.382 272.872 548.718 272.672 547.902 272.672C546.702 272.672 545.83 273.104 545.286 273.968C544.742 274.832 544.47 276.024 544.47 277.544ZM566.485 274.376C566.485 275.176 566.261 275.8 565.813 276.248C565.365 276.696 564.781 277 564.061 277.16V277.256C564.813 277.368 565.469 277.656 566.029 278.12C566.589 278.568 566.869 279.272 566.869 280.232C566.869 280.776 566.773 281.28 566.581 281.744C566.405 282.208 566.117 282.608 565.717 282.944C565.317 283.28 564.805 283.544 564.181 283.736C563.557 283.912 562.805 284 561.925 284H556.669V271.136H561.901C562.781 271.136 563.565 271.24 564.253 271.448C564.941 271.64 565.485 271.976 565.885 272.456C566.285 272.92 566.485 273.56 566.485 274.376ZM564.709 280.232C564.709 279.496 564.445 278.968 563.917 278.648C563.405 278.328 562.653 278.168 561.661 278.168H558.757V282.296H561.709C562.669 282.296 563.405 282.144 563.917 281.84C564.445 281.52 564.709 280.984 564.709 280.232ZM564.373 274.64C564.373 274.032 564.165 273.592 563.749 273.32C563.349 273.032 562.701 272.888 561.805 272.888H558.757V276.416H561.421C562.397 276.416 563.133 276.272 563.629 275.984C564.125 275.696 564.373 275.248 564.373 274.64ZM574.38 270.92C575.852 270.92 576.948 271.264 577.668 271.952C578.404 272.64 578.772 273.736 578.772 275.24V284H577.26L576.852 282.176H576.756C576.404 282.64 576.044 283.032 575.676 283.352C575.324 283.656 574.908 283.88 574.428 284.024C573.964 284.168 573.388 284.24 572.7 284.24C571.98 284.24 571.332 284.104 570.756 283.832C570.18 283.56 569.724 283.144 569.388 282.584C569.052 282.008 568.884 281.288 568.884 280.424C568.884 279.144 569.356 278.16 570.3 277.472C571.244 276.768 572.7 276.384 574.668 276.32L576.708 276.248V275.48C576.708 274.408 576.492 273.664 576.06 273.248C575.644 272.832 575.044 272.624 574.26 272.624C573.636 272.624 573.036 272.728 572.46 272.936C571.9 273.128 571.364 273.352 570.852 273.608L570.204 272.024C570.748 271.72 571.38 271.464 572.1 271.256C572.82 271.032 573.58 270.92 574.38 270.92ZM574.956 277.784C573.484 277.848 572.46 278.104 571.884 278.552C571.324 279 571.044 279.632 571.044 280.448C571.044 281.168 571.244 281.696 571.644 282.032C572.044 282.368 572.564 282.536 573.204 282.536C574.196 282.536 575.028 282.24 575.7 281.648C576.372 281.04 576.708 280.112 576.708 278.864V277.712L574.956 277.784ZM590.994 272.912H587.034V284H584.97V272.912H581.058V271.136H590.994V272.912ZM598.965 276.416C600.021 276.416 600.901 276.552 601.605 276.824C602.309 277.096 602.837 277.504 603.189 278.048C603.557 278.576 603.741 279.248 603.741 280.064C603.741 280.864 603.573 281.56 603.237 282.152C602.901 282.744 602.373 283.2 601.653 283.52C600.949 283.84 600.029 284 598.893 284H593.373V271.136H595.461V276.416H598.965ZM601.653 280.184C601.653 279.4 601.397 278.872 600.885 278.6C600.373 278.312 599.661 278.168 598.749 278.168H595.461V282.296H598.797C599.613 282.296 600.293 282.136 600.837 281.816C601.381 281.496 601.653 280.952 601.653 280.184ZM59.264 294.944C60.48 295.056 61.536 295.392 62.432 295.952C63.328 296.512 64.024 297.264 64.52 298.208C65.032 299.152 65.288 300.272 65.288 301.568C65.288 302.864 65.048 303.992 64.568 304.952C64.088 305.896 63.4 306.648 62.504 307.208C61.608 307.752 60.528 308.08 59.264 308.192V313.76H57.224V308.192C56.024 308.08 54.968 307.752 54.056 307.208C53.16 306.648 52.456 305.896 51.944 304.952C51.448 303.992 51.2 302.864 51.2 301.568C51.2 300.256 51.44 299.128 51.92 298.184C52.4 297.224 53.096 296.472 54.008 295.928C54.92 295.368 56.016 295.04 57.296 294.944V289.76H59.264V294.944ZM57.296 296.696C56.384 296.792 55.64 297.04 55.064 297.44C54.488 297.84 54.064 298.384 53.792 299.072C53.52 299.76 53.384 300.592 53.384 301.568C53.384 302.528 53.52 303.36 53.792 304.064C54.064 304.752 54.488 305.304 55.064 305.72C55.64 306.12 56.384 306.368 57.296 306.464V296.696ZM59.264 306.464C60.144 306.352 60.864 306.096 61.424 305.696C62 305.296 62.424 304.752 62.696 304.064C62.984 303.36 63.128 302.528 63.128 301.568C63.128 300.608 62.984 299.784 62.696 299.096C62.424 298.408 62 297.864 61.424 297.464C60.848 297.064 60.128 296.816 59.264 296.72V306.464ZM66.3131 295.136H68.5691L71.1371 302.456C71.2971 302.888 71.4411 303.304 71.5691 303.704C71.6971 304.104 71.8091 304.496 71.9051 304.88C72.0011 305.248 72.0731 305.608 72.1211 305.96H72.1931C72.2891 305.56 72.4251 305.04 72.6011 304.4C72.7931 303.744 72.9931 303.088 73.2011 302.432L75.6251 295.136H77.9051L72.6971 309.776C72.4091 310.576 72.0651 311.272 71.6651 311.864C71.2811 312.472 70.8091 312.936 70.2491 313.256C69.6891 313.592 69.0171 313.76 68.2331 313.76C67.8811 313.76 67.5611 313.736 67.2731 313.688C67.0011 313.656 66.7691 313.616 66.5771 313.568V311.888C66.7371 311.92 66.9371 311.952 67.1771 311.984C67.4171 312.016 67.6651 312.032 67.9211 312.032C68.3851 312.032 68.7851 311.936 69.1211 311.744C69.4571 311.568 69.7451 311.304 69.9851 310.952C70.2251 310.616 70.4251 310.216 70.5851 309.752L71.1851 308.048L66.3131 295.136ZM81.8981 295.136V300.488H88.3301V295.136H90.4181V308H88.3301V302.264H81.8981V308H79.8101V295.136H81.8981ZM101.425 295.136H103.705L98.5687 301.328L104.137 308H101.713L96.2887 301.472V308H94.2007V295.136H96.2887V301.376L101.425 295.136ZM118.319 312.464H116.303V308H106.271V295.136H108.359V306.224H114.503V295.136H116.591V306.248H118.319V312.464ZM122.583 302.984C122.583 303.128 122.575 303.336 122.559 303.608C122.559 303.864 122.551 304.144 122.535 304.448C122.519 304.736 122.503 305.016 122.487 305.288C122.471 305.544 122.455 305.752 122.439 305.912L128.871 295.136H131.415V308H129.471V300.416C129.471 300.16 129.471 299.824 129.471 299.408C129.487 298.992 129.503 298.584 129.519 298.184C129.535 297.768 129.551 297.456 129.567 297.248L123.207 308H120.615V295.136H122.583V302.984ZM145.824 301.544C145.824 302.616 145.688 303.568 145.416 304.4C145.16 305.216 144.784 305.912 144.288 306.488C143.792 307.064 143.192 307.504 142.488 307.808C141.784 308.096 141 308.24 140.136 308.24C139.336 308.24 138.592 308.096 137.904 307.808C137.232 307.504 136.64 307.064 136.128 306.488C135.632 305.912 135.248 305.216 134.976 304.4C134.704 303.568 134.568 302.616 134.568 301.544C134.568 300.12 134.792 298.92 135.24 297.944C135.704 296.952 136.36 296.2 137.208 295.688C138.056 295.16 139.056 294.896 140.208 294.896C141.312 294.896 142.28 295.16 143.112 295.688C143.96 296.2 144.624 296.952 145.104 297.944C145.584 298.92 145.824 300.12 145.824 301.544ZM136.728 301.544C136.728 302.552 136.848 303.432 137.088 304.184C137.328 304.92 137.704 305.488 138.216 305.888C138.728 306.288 139.384 306.488 140.184 306.488C140.984 306.488 141.64 306.288 142.152 305.888C142.664 305.488 143.04 304.92 143.28 304.184C143.536 303.432 143.664 302.552 143.664 301.544C143.664 300.52 143.536 299.648 143.28 298.928C143.04 298.208 142.664 297.656 142.152 297.272C141.64 296.872 140.976 296.672 140.16 296.672C138.96 296.672 138.088 297.104 137.544 297.968C137 298.832 136.728 300.024 136.728 301.544ZM151.015 295.136V300.488H157.447V295.136H159.535V308H157.447V302.264H151.015V308H148.927V295.136H151.015ZM167.95 294.92C169.422 294.92 170.518 295.264 171.238 295.952C171.974 296.64 172.342 297.736 172.342 299.24V308H170.83L170.422 306.176H170.326C169.974 306.64 169.614 307.032 169.246 307.352C168.894 307.656 168.478 307.88 167.998 308.024C167.534 308.168 166.958 308.24 166.27 308.24C165.55 308.24 164.902 308.104 164.326 307.832C163.75 307.56 163.294 307.144 162.958 306.584C162.622 306.008 162.454 305.288 162.454 304.424C162.454 303.144 162.926 302.16 163.87 301.472C164.814 300.768 166.27 300.384 168.238 300.32L170.278 300.248V299.48C170.278 298.408 170.062 297.664 169.63 297.248C169.214 296.832 168.614 296.624 167.83 296.624C167.206 296.624 166.606 296.728 166.03 296.936C165.47 297.128 164.934 297.352 164.422 297.608L163.774 296.024C164.318 295.72 164.95 295.464 165.67 295.256C166.39 295.032 167.15 294.92 167.95 294.92ZM168.526 301.784C167.054 301.848 166.03 302.104 165.454 302.552C164.894 303 164.614 303.632 164.614 304.448C164.614 305.168 164.814 305.696 165.214 306.032C165.614 306.368 166.134 306.536 166.774 306.536C167.766 306.536 168.598 306.24 169.27 305.648C169.942 305.04 170.278 304.112 170.278 302.864V301.712L168.526 301.784ZM185.428 308H183.316V296.888H179.788C179.644 298.92 179.452 300.656 179.212 302.096C178.988 303.52 178.7 304.68 178.348 305.576C178.012 306.472 177.604 307.128 177.124 307.544C176.644 307.96 176.076 308.168 175.42 308.168C175.212 308.168 175.004 308.152 174.796 308.12C174.604 308.104 174.444 308.064 174.316 308V306.416C174.412 306.448 174.516 306.472 174.628 306.488C174.74 306.504 174.852 306.512 174.964 306.512C175.284 306.512 175.572 306.368 175.828 306.08C176.1 305.792 176.34 305.352 176.548 304.76C176.772 304.168 176.972 303.424 177.148 302.528C177.324 301.616 177.476 300.544 177.604 299.312C177.748 298.08 177.876 296.688 177.988 295.136H185.428V308ZM191.712 305.48C191.584 306.04 191.408 306.648 191.184 307.304C190.976 307.96 190.744 308.608 190.488 309.248C190.248 309.904 190.008 310.52 189.768 311.096H188.232C188.376 310.488 188.52 309.832 188.664 309.128C188.808 308.44 188.944 307.76 189.072 307.088C189.2 306.4 189.296 305.776 189.36 305.216H191.544L191.712 305.48ZM206.041 308.24C204.953 308.24 203.993 308.008 203.161 307.544C202.329 307.08 201.673 306.36 201.193 305.384C200.729 304.408 200.497 303.16 200.497 301.64C200.497 300.056 200.745 298.768 201.241 297.776C201.737 296.784 202.409 296.056 203.257 295.592C204.121 295.128 205.097 294.896 206.185 294.896C206.809 294.896 207.409 294.968 207.985 295.112C208.577 295.24 209.057 295.4 209.425 295.592L208.777 297.344C208.409 297.2 207.977 297.064 207.481 296.936C207.001 296.808 206.553 296.744 206.137 296.744C205.353 296.744 204.705 296.928 204.193 297.296C203.681 297.664 203.297 298.208 203.041 298.928C202.785 299.648 202.657 300.544 202.657 301.616C202.657 302.64 202.785 303.512 203.041 304.232C203.297 304.952 203.673 305.496 204.169 305.864C204.681 306.232 205.305 306.416 206.041 306.416C206.697 306.416 207.281 306.344 207.793 306.2C208.305 306.056 208.777 305.88 209.209 305.672V307.544C208.793 307.768 208.337 307.936 207.841 308.048C207.345 308.176 206.745 308.24 206.041 308.24ZM222.652 301.544C222.652 302.616 222.516 303.568 222.244 304.4C221.988 305.216 221.612 305.912 221.116 306.488C220.62 307.064 220.02 307.504 219.316 307.808C218.612 308.096 217.828 308.24 216.964 308.24C216.164 308.24 215.42 308.096 214.732 307.808C214.06 307.504 213.468 307.064 212.956 306.488C212.46 305.912 212.076 305.216 211.804 304.4C211.532 303.568 211.396 302.616 211.396 301.544C211.396 300.12 211.62 298.92 212.068 297.944C212.532 296.952 213.188 296.2 214.036 295.688C214.884 295.16 215.884 294.896 217.036 294.896C218.14 294.896 219.108 295.16 219.94 295.688C220.788 296.2 221.452 296.952 221.932 297.944C222.412 298.92 222.652 300.12 222.652 301.544ZM213.556 301.544C213.556 302.552 213.676 303.432 213.916 304.184C214.156 304.92 214.532 305.488 215.044 305.888C215.556 306.288 216.212 306.488 217.012 306.488C217.812 306.488 218.468 306.288 218.98 305.888C219.492 305.488 219.868 304.92 220.108 304.184C220.364 303.432 220.492 302.552 220.492 301.544C220.492 300.52 220.364 299.648 220.108 298.928C219.868 298.208 219.492 297.656 218.98 297.272C218.468 296.872 217.804 296.672 216.988 296.672C215.788 296.672 214.916 297.104 214.372 297.968C213.828 298.832 213.556 300.024 213.556 301.544ZM229.043 294.896C229.955 294.896 230.747 295.032 231.419 295.304C232.107 295.56 232.643 295.944 233.027 296.456C233.411 296.952 233.603 297.56 233.603 298.28C233.603 299.064 233.395 299.688 232.979 300.152C232.579 300.6 232.027 300.928 231.323 301.136V301.232C231.803 301.376 232.243 301.576 232.643 301.832C233.059 302.088 233.387 302.424 233.627 302.84C233.883 303.256 234.011 303.792 234.011 304.448C234.011 305.152 233.827 305.792 233.459 306.368C233.091 306.944 232.515 307.4 231.731 307.736C230.963 308.072 229.979 308.24 228.779 308.24C228.203 308.24 227.651 308.208 227.123 308.144C226.611 308.08 226.139 307.984 225.707 307.856C225.291 307.728 224.923 307.576 224.603 307.4V305.504C225.115 305.76 225.723 305.992 226.427 306.2C227.131 306.408 227.899 306.512 228.731 306.512C229.339 306.512 229.883 306.44 230.363 306.296C230.843 306.152 231.227 305.928 231.515 305.624C231.803 305.304 231.947 304.872 231.947 304.328C231.947 303.832 231.819 303.432 231.563 303.128C231.307 302.808 230.923 302.568 230.411 302.408C229.915 302.248 229.275 302.168 228.491 302.168H226.907V300.44H228.203C229.243 300.44 230.075 300.296 230.699 300.008C231.323 299.704 231.635 299.192 231.635 298.472C231.635 297.864 231.395 297.408 230.915 297.104C230.451 296.8 229.779 296.648 228.899 296.648C228.243 296.648 227.651 296.72 227.123 296.864C226.611 296.992 226.059 297.192 225.467 297.464L224.723 295.784C225.379 295.48 226.067 295.256 226.787 295.112C227.507 294.968 228.259 294.896 229.043 294.896ZM246.056 295.136V306.224H247.808V312.464H245.816V308H237.416V312.464H235.424V306.224H236.408C237.096 305.2 237.664 304.088 238.112 302.888C238.56 301.672 238.896 300.408 239.12 299.096C239.36 297.768 239.488 296.448 239.504 295.136H246.056ZM241.352 296.792C241.288 297.88 241.128 299.008 240.872 300.176C240.632 301.328 240.312 302.432 239.912 303.488C239.528 304.544 239.08 305.456 238.568 306.224H244.016V296.792H241.352ZM254.762 294.92C256.234 294.92 257.33 295.264 258.05 295.952C258.786 296.64 259.154 297.736 259.154 299.24V308H257.642L257.234 306.176H257.138C256.786 306.64 256.426 307.032 256.058 307.352C255.706 307.656 255.29 307.88 254.81 308.024C254.346 308.168 253.77 308.24 253.082 308.24C252.362 308.24 251.714 308.104 251.138 307.832C250.562 307.56 250.106 307.144 249.77 306.584C249.434 306.008 249.266 305.288 249.266 304.424C249.266 303.144 249.738 302.16 250.682 301.472C251.626 300.768 253.082 300.384 255.05 300.32L257.09 300.248V299.48C257.09 298.408 256.874 297.664 256.442 297.248C256.026 296.832 255.426 296.624 254.642 296.624C254.018 296.624 253.418 296.728 252.842 296.936C252.282 297.128 251.746 297.352 251.234 297.608L250.586 296.024C251.13 295.72 251.762 295.464 252.482 295.256C253.202 295.032 253.962 294.92 254.762 294.92ZM255.338 301.784C253.866 301.848 252.842 302.104 252.266 302.552C251.706 303 251.426 303.632 251.426 304.448C251.426 305.168 251.626 305.696 252.026 306.032C252.426 306.368 252.946 306.536 253.586 306.536C254.578 306.536 255.41 306.24 256.082 305.648C256.754 305.04 257.09 304.112 257.09 302.864V301.712L255.338 301.784ZM278.672 301.544C278.672 302.968 278.456 304.184 278.024 305.192C277.592 306.184 276.968 306.944 276.152 307.472C275.352 307.984 274.4 308.24 273.296 308.24C272.288 308.24 271.392 308.016 270.608 307.568C269.84 307.104 269.224 306.432 268.76 305.552C268.312 304.656 268.048 303.56 267.968 302.264H264.968V308H262.88V295.136H264.968V300.488H267.992C268.104 299.272 268.384 298.256 268.832 297.44C269.296 296.608 269.912 295.976 270.68 295.544C271.448 295.112 272.336 294.896 273.344 294.896C274.4 294.896 275.328 295.16 276.128 295.688C276.928 296.2 277.552 296.952 278 297.944C278.448 298.92 278.672 300.12 278.672 301.544ZM270.104 301.544C270.104 302.616 270.216 303.52 270.44 304.256C270.664 304.992 271.016 305.552 271.496 305.936C271.976 306.304 272.584 306.488 273.32 306.488C274.072 306.488 274.68 306.304 275.144 305.936C275.624 305.552 275.968 304.992 276.176 304.256C276.4 303.52 276.512 302.616 276.512 301.544C276.512 300.472 276.4 299.576 276.176 298.856C275.952 298.136 275.608 297.592 275.144 297.224C274.68 296.856 274.072 296.672 273.32 296.672C272.584 296.672 271.976 296.856 271.496 297.224C271.016 297.592 270.664 298.136 270.44 298.856C270.216 299.576 270.104 300.472 270.104 301.544ZM298.33 295.136V306.248H300.082V312.44H298.018V308H281.794V295.136H283.882V306.224H289.018V295.136H291.106V306.224H296.242V295.136H298.33ZM304.341 302.984C304.341 303.128 304.333 303.336 304.317 303.608C304.317 303.864 304.309 304.144 304.293 304.448C304.277 304.736 304.261 305.016 304.245 305.288C304.229 305.544 304.213 305.752 304.197 305.912L310.629 295.136H313.173V308H311.229V300.416C311.229 300.16 311.229 299.824 311.229 299.408C311.245 298.992 311.261 298.584 311.277 298.184C311.293 297.768 311.309 297.456 311.325 297.248L304.965 308H302.373V295.136H304.341V302.984ZM326.934 289.808C326.87 290.608 326.678 291.28 326.358 291.824C326.054 292.368 325.59 292.776 324.966 293.048C324.358 293.32 323.566 293.456 322.59 293.456C321.582 293.456 320.774 293.32 320.166 293.048C319.574 292.776 319.134 292.376 318.846 291.848C318.574 291.304 318.406 290.624 318.342 289.808H320.286C320.366 290.672 320.582 291.256 320.934 291.56C321.286 291.848 321.846 291.992 322.614 291.992C323.318 291.992 323.87 291.84 324.27 291.536C324.67 291.216 324.902 290.64 324.966 289.808H326.934ZM318.966 302.984C318.966 303.128 318.958 303.336 318.942 303.608C318.942 303.864 318.934 304.144 318.918 304.448C318.902 304.736 318.886 305.016 318.87 305.288C318.854 305.544 318.838 305.752 318.822 305.912L325.254 295.136H327.798V308H325.854V300.416C325.854 300.16 325.854 299.824 325.854 299.408C325.87 298.992 325.886 298.584 325.902 298.184C325.918 297.768 325.934 297.456 325.95 297.248L319.59 308H316.998V295.136H318.966V302.984ZM335.61 295.136H337.866L340.434 302.456C340.594 302.888 340.738 303.304 340.866 303.704C340.994 304.104 341.106 304.496 341.202 304.88C341.298 305.248 341.37 305.608 341.418 305.96H341.49C341.586 305.56 341.722 305.04 341.898 304.4C342.09 303.744 342.29 303.088 342.498 302.432L344.922 295.136H347.202L341.994 309.776C341.706 310.576 341.362 311.272 340.962 311.864C340.578 312.472 340.106 312.936 339.546 313.256C338.986 313.592 338.314 313.76 337.53 313.76C337.178 313.76 336.858 313.736 336.57 313.688C336.298 313.656 336.066 313.616 335.874 313.568V311.888C336.034 311.92 336.234 311.952 336.474 311.984C336.714 312.016 336.962 312.032 337.218 312.032C337.682 312.032 338.082 311.936 338.418 311.744C338.754 311.568 339.042 311.304 339.282 310.952C339.522 310.616 339.722 310.216 339.882 309.752L340.482 308.048L335.61 295.136ZM357.806 295.136V306.224H359.558V312.464H357.566V308H349.166V312.464H347.174V306.224H348.158C348.846 305.2 349.414 304.088 349.862 302.888C350.31 301.672 350.646 300.408 350.87 299.096C351.11 297.768 351.238 296.448 351.254 295.136H357.806ZM353.102 296.792C353.038 297.88 352.878 299.008 352.622 300.176C352.382 301.328 352.062 302.432 351.662 303.488C351.278 304.544 350.83 305.456 350.318 306.224H355.766V296.792H353.102ZM372.464 301.544C372.464 302.616 372.328 303.568 372.056 304.4C371.8 305.216 371.424 305.912 370.928 306.488C370.432 307.064 369.832 307.504 369.128 307.808C368.424 308.096 367.64 308.24 366.776 308.24C365.976 308.24 365.232 308.096 364.544 307.808C363.872 307.504 363.28 307.064 362.768 306.488C362.272 305.912 361.888 305.216 361.616 304.4C361.344 303.568 361.208 302.616 361.208 301.544C361.208 300.12 361.432 298.92 361.88 297.944C362.344 296.952 363 296.2 363.848 295.688C364.696 295.16 365.696 294.896 366.848 294.896C367.952 294.896 368.92 295.16 369.752 295.688C370.6 296.2 371.264 296.952 371.744 297.944C372.224 298.92 372.464 300.12 372.464 301.544ZM363.368 301.544C363.368 302.552 363.488 303.432 363.728 304.184C363.968 304.92 364.344 305.488 364.856 305.888C365.368 306.288 366.024 306.488 366.824 306.488C367.624 306.488 368.28 306.288 368.792 305.888C369.304 305.488 369.68 304.92 369.92 304.184C370.176 303.432 370.304 302.552 370.304 301.544C370.304 300.52 370.176 299.648 369.92 298.928C369.68 298.208 369.304 297.656 368.792 297.272C368.28 296.872 367.616 296.672 366.8 296.672C365.6 296.672 364.728 297.104 364.184 297.968C363.64 298.832 363.368 300.024 363.368 301.544ZM374.944 300.272C374.944 298.4 375.12 296.808 375.472 295.496C375.84 294.168 376.4 293.112 377.152 292.328C377.92 291.528 378.904 290.992 380.104 290.72C381.064 290.496 382.008 290.296 382.936 290.12C383.864 289.944 384.736 289.784 385.552 289.64L385.912 291.488C385.512 291.552 385.072 291.632 384.592 291.728C384.112 291.808 383.624 291.896 383.128 291.992C382.648 292.072 382.176 292.16 381.712 292.256C381.264 292.336 380.864 292.416 380.512 292.496C380.016 292.608 379.568 292.8 379.168 293.072C378.784 293.328 378.448 293.68 378.16 294.128C377.888 294.576 377.664 295.128 377.488 295.784C377.328 296.44 377.232 297.216 377.2 298.112H377.344C377.552 297.808 377.84 297.496 378.208 297.176C378.576 296.856 379.016 296.584 379.528 296.36C380.04 296.136 380.624 296.024 381.28 296.024C382.32 296.024 383.192 296.272 383.896 296.768C384.6 297.248 385.128 297.92 385.48 298.784C385.848 299.648 386.032 300.656 386.032 301.808C386.032 303.232 385.792 304.424 385.312 305.384C384.848 306.344 384.2 307.064 383.368 307.544C382.536 308.008 381.568 308.24 380.464 308.24C379.632 308.24 378.872 308.072 378.184 307.736C377.512 307.384 376.928 306.872 376.432 306.2C375.952 305.528 375.584 304.696 375.328 303.704C375.072 302.712 374.944 301.568 374.944 300.272ZM380.632 306.488C381.272 306.488 381.832 306.344 382.312 306.056C382.792 305.768 383.16 305.296 383.416 304.64C383.688 303.984 383.824 303.112 383.824 302.024C383.824 300.712 383.6 299.68 383.152 298.928C382.704 298.16 381.968 297.776 380.944 297.776C380.288 297.776 379.696 297.936 379.168 298.256C378.64 298.56 378.192 298.912 377.824 299.312C377.472 299.712 377.224 300.048 377.08 300.32C377.08 301.104 377.128 301.864 377.224 302.6C377.336 303.336 377.52 304 377.776 304.592C378.048 305.168 378.408 305.632 378.856 305.984C379.32 306.32 379.912 306.488 380.632 306.488ZM394.01 308.24C392.922 308.24 391.962 308.008 391.13 307.544C390.298 307.08 389.642 306.36 389.162 305.384C388.698 304.408 388.466 303.16 388.466 301.64C388.466 300.056 388.714 298.768 389.21 297.776C389.706 296.784 390.378 296.056 391.226 295.592C392.09 295.128 393.066 294.896 394.154 294.896C394.778 294.896 395.378 294.968 395.954 295.112C396.546 295.24 397.026 295.4 397.394 295.592L396.746 297.344C396.378 297.2 395.946 297.064 395.45 296.936C394.97 296.808 394.522 296.744 394.106 296.744C393.322 296.744 392.674 296.928 392.162 297.296C391.65 297.664 391.266 298.208 391.01 298.928C390.754 299.648 390.626 300.544 390.626 301.616C390.626 302.64 390.754 303.512 391.01 304.232C391.266 304.952 391.642 305.496 392.138 305.864C392.65 306.232 393.274 306.416 394.01 306.416C394.666 306.416 395.25 306.344 395.762 306.2C396.274 306.056 396.746 305.88 397.178 305.672V307.544C396.762 307.768 396.306 307.936 395.81 308.048C395.314 308.176 394.714 308.24 394.01 308.24ZM408.533 296.912H404.573V308H402.509V296.912H398.597V295.136H408.533V296.912ZM420.728 298.376C420.728 299.176 420.504 299.8 420.056 300.248C419.608 300.696 419.024 301 418.304 301.16V301.256C419.056 301.368 419.712 301.656 420.272 302.12C420.832 302.568 421.112 303.272 421.112 304.232C421.112 304.776 421.016 305.28 420.824 305.744C420.648 306.208 420.36 306.608 419.96 306.944C419.56 307.28 419.048 307.544 418.424 307.736C417.8 307.912 417.048 308 416.168 308H410.912V295.136H416.144C417.024 295.136 417.808 295.24 418.496 295.448C419.184 295.64 419.728 295.976 420.128 296.456C420.528 296.92 420.728 297.56 420.728 298.376ZM418.952 304.232C418.952 303.496 418.688 302.968 418.16 302.648C417.648 302.328 416.896 302.168 415.904 302.168H413V306.296H415.952C416.912 306.296 417.648 306.144 418.16 305.84C418.688 305.52 418.952 304.984 418.952 304.232ZM418.616 298.64C418.616 298.032 418.408 297.592 417.992 297.32C417.592 297.032 416.944 296.888 416.048 296.888H413V300.416H415.664C416.64 300.416 417.376 300.272 417.872 299.984C418.368 299.696 418.616 299.248 418.616 298.64ZM434.574 301.544C434.574 302.616 434.438 303.568 434.166 304.4C433.91 305.216 433.534 305.912 433.038 306.488C432.542 307.064 431.942 307.504 431.238 307.808C430.534 308.096 429.75 308.24 428.886 308.24C428.086 308.24 427.342 308.096 426.654 307.808C425.982 307.504 425.39 307.064 424.878 306.488C424.382 305.912 423.998 305.216 423.726 304.4C423.454 303.568 423.318 302.616 423.318 301.544C423.318 300.12 423.542 298.92 423.99 297.944C424.454 296.952 425.11 296.2 425.958 295.688C426.806 295.16 427.806 294.896 428.958 294.896C430.062 294.896 431.03 295.16 431.862 295.688C432.71 296.2 433.374 296.952 433.854 297.944C434.334 298.92 434.574 300.12 434.574 301.544ZM425.478 301.544C425.478 302.552 425.598 303.432 425.838 304.184C426.078 304.92 426.454 305.488 426.966 305.888C427.478 306.288 428.134 306.488 428.934 306.488C429.734 306.488 430.39 306.288 430.902 305.888C431.414 305.488 431.79 304.92 432.03 304.184C432.286 303.432 432.414 302.552 432.414 301.544C432.414 300.52 432.286 299.648 432.03 298.928C431.79 298.208 431.414 297.656 430.902 297.272C430.39 296.872 429.726 296.672 428.91 296.672C427.71 296.672 426.838 297.104 426.294 297.968C425.75 298.832 425.478 300.024 425.478 301.544ZM453.833 295.136V308H451.745V296.936H445.625V308H443.537V295.136H453.833ZM463.478 294.896C464.966 294.896 466.158 295.448 467.054 296.552C467.966 297.656 468.422 299.32 468.422 301.544C468.422 303 468.214 304.232 467.798 305.24C467.382 306.232 466.798 306.984 466.046 307.496C465.31 307.992 464.446 308.24 463.454 308.24C462.83 308.24 462.278 308.152 461.798 307.976C461.334 307.8 460.934 307.576 460.598 307.304C460.262 307.016 459.974 306.704 459.734 306.368H459.59C459.622 306.64 459.654 306.984 459.686 307.4C459.718 307.816 459.734 308.176 459.734 308.48V313.76H457.646V295.136H459.35L459.638 296.888H459.734C459.974 296.52 460.262 296.184 460.598 295.88C460.934 295.576 461.334 295.336 461.798 295.16C462.278 294.984 462.838 294.896 463.478 294.896ZM463.07 296.672C462.27 296.672 461.622 296.84 461.126 297.176C460.646 297.496 460.294 297.984 460.07 298.64C459.846 299.296 459.734 300.128 459.734 301.136V301.544C459.734 302.6 459.83 303.496 460.022 304.232C460.23 304.968 460.582 305.528 461.078 305.912C461.574 306.296 462.254 306.488 463.118 306.488C463.838 306.488 464.43 306.272 464.894 305.84C465.358 305.408 465.702 304.824 465.926 304.088C466.15 303.336 466.262 302.48 466.262 301.52C466.262 300.048 465.998 298.872 465.47 297.992C464.958 297.112 464.158 296.672 463.07 296.672ZM473.512 302.984C473.512 303.128 473.504 303.336 473.488 303.608C473.488 303.864 473.48 304.144 473.464 304.448C473.448 304.736 473.432 305.016 473.416 305.288C473.4 305.544 473.384 305.752 473.368 305.912L479.8 295.136H482.344V308H480.4V300.416C480.4 300.16 480.4 299.824 480.4 299.408C480.416 298.992 480.432 298.584 480.448 298.184C480.464 297.768 480.48 297.456 480.496 297.248L474.136 308H471.544V295.136H473.512V302.984ZM496.901 308.24C495.813 308.24 494.853 308.008 494.021 307.544C493.189 307.08 492.533 306.36 492.053 305.384C491.589 304.408 491.357 303.16 491.357 301.64C491.357 300.056 491.605 298.768 492.101 297.776C492.597 296.784 493.269 296.056 494.117 295.592C494.981 295.128 495.957 294.896 497.045 294.896C497.669 294.896 498.269 294.968 498.845 295.112C499.437 295.24 499.917 295.4 500.285 295.592L499.637 297.344C499.269 297.2 498.837 297.064 498.341 296.936C497.861 296.808 497.413 296.744 496.997 296.744C496.213 296.744 495.565 296.928 495.053 297.296C494.541 297.664 494.157 298.208 493.901 298.928C493.645 299.648 493.517 300.544 493.517 301.616C493.517 302.64 493.645 303.512 493.901 304.232C494.157 304.952 494.533 305.496 495.029 305.864C495.541 306.232 496.165 306.416 496.901 306.416C497.557 306.416 498.141 306.344 498.653 306.2C499.165 306.056 499.637 305.88 500.069 305.672V307.544C499.653 307.768 499.197 307.936 498.701 308.048C498.205 308.176 497.605 308.24 496.901 308.24ZM513.511 301.544C513.511 302.616 513.375 303.568 513.103 304.4C512.847 305.216 512.471 305.912 511.975 306.488C511.479 307.064 510.879 307.504 510.175 307.808C509.471 308.096 508.687 308.24 507.823 308.24C507.023 308.24 506.279 308.096 505.591 307.808C504.919 307.504 504.327 307.064 503.815 306.488C503.319 305.912 502.935 305.216 502.663 304.4C502.391 303.568 502.255 302.616 502.255 301.544C502.255 300.12 502.479 298.92 502.927 297.944C503.391 296.952 504.047 296.2 504.895 295.688C505.743 295.16 506.743 294.896 507.895 294.896C508.999 294.896 509.967 295.16 510.799 295.688C511.647 296.2 512.311 296.952 512.791 297.944C513.271 298.92 513.511 300.12 513.511 301.544ZM504.415 301.544C504.415 302.552 504.535 303.432 504.775 304.184C505.015 304.92 505.391 305.488 505.903 305.888C506.415 306.288 507.071 306.488 507.871 306.488C508.671 306.488 509.327 306.288 509.839 305.888C510.351 305.488 510.727 304.92 510.967 304.184C511.223 303.432 511.351 302.552 511.351 301.544C511.351 300.52 511.223 299.648 510.967 298.928C510.727 298.208 510.351 297.656 509.839 297.272C509.327 296.872 508.663 296.672 507.847 296.672C506.647 296.672 505.775 297.104 505.231 297.968C504.687 298.832 504.415 300.024 504.415 301.544ZM526.431 298.376C526.431 299.176 526.207 299.8 525.759 300.248C525.311 300.696 524.727 301 524.007 301.16V301.256C524.759 301.368 525.415 301.656 525.975 302.12C526.535 302.568 526.815 303.272 526.815 304.232C526.815 304.776 526.719 305.28 526.527 305.744C526.351 306.208 526.063 306.608 525.663 306.944C525.263 307.28 524.751 307.544 524.127 307.736C523.503 307.912 522.751 308 521.871 308H516.615V295.136H521.847C522.727 295.136 523.511 295.24 524.199 295.448C524.887 295.64 525.431 295.976 525.831 296.456C526.231 296.92 526.431 297.56 526.431 298.376ZM524.655 304.232C524.655 303.496 524.391 302.968 523.863 302.648C523.351 302.328 522.599 302.168 521.607 302.168H518.703V306.296H521.655C522.615 306.296 523.351 306.144 523.863 305.84C524.391 305.52 524.655 304.984 524.655 304.232ZM524.319 298.64C524.319 298.032 524.111 297.592 523.695 297.32C523.295 297.032 522.647 296.888 521.751 296.888H518.703V300.416H521.367C522.343 300.416 523.079 300.272 523.575 299.984C524.071 299.696 524.319 299.248 524.319 298.64ZM534.397 294.896C535.437 294.896 536.333 295.136 537.085 295.616C537.837 296.096 538.413 296.776 538.813 297.656C539.229 298.52 539.437 299.536 539.437 300.704V301.976H531.181C531.213 303.432 531.557 304.544 532.213 305.312C532.869 306.064 533.789 306.44 534.973 306.44C535.741 306.44 536.421 306.368 537.013 306.224C537.621 306.064 538.245 305.84 538.885 305.552V307.4C538.261 307.688 537.645 307.896 537.037 308.024C536.445 308.168 535.725 308.24 534.877 308.24C533.725 308.24 532.709 307.992 531.829 307.496C530.949 307 530.261 306.264 529.765 305.288C529.269 304.296 529.021 303.088 529.021 301.664C529.021 300.256 529.245 299.048 529.693 298.04C530.141 297.032 530.765 296.256 531.565 295.712C532.381 295.168 533.325 294.896 534.397 294.896ZM534.397 296.624C533.469 296.624 532.733 296.952 532.189 297.608C531.645 298.248 531.325 299.144 531.229 300.296H537.277C537.277 299.56 537.173 298.92 536.965 298.376C536.757 297.832 536.437 297.408 536.005 297.104C535.589 296.784 535.053 296.624 534.397 296.624ZM548.298 294.896C549.786 294.896 550.978 295.448 551.874 296.552C552.786 297.656 553.242 299.32 553.242 301.544C553.242 303 553.034 304.232 552.618 305.24C552.202 306.232 551.618 306.984 550.866 307.496C550.13 307.992 549.266 308.24 548.274 308.24C547.65 308.24 547.098 308.152 546.618 307.976C546.154 307.8 545.754 307.576 545.418 307.304C545.082 307.016 544.794 306.704 544.554 306.368H544.41C544.442 306.64 544.474 306.984 544.506 307.4C544.538 307.816 544.554 308.176 544.554 308.48V313.76H542.466V295.136H544.17L544.458 296.888H544.554C544.794 296.52 545.082 296.184 545.418 295.88C545.754 295.576 546.154 295.336 546.618 295.16C547.098 294.984 547.658 294.896 548.298 294.896ZM547.89 296.672C547.09 296.672 546.442 296.84 545.946 297.176C545.466 297.496 545.114 297.984 544.89 298.64C544.666 299.296 544.554 300.128 544.554 301.136V301.544C544.554 302.6 544.65 303.496 544.842 304.232C545.05 304.968 545.402 305.528 545.898 305.912C546.394 306.296 547.074 306.488 547.938 306.488C548.658 306.488 549.25 306.272 549.714 305.84C550.178 305.408 550.522 304.824 550.746 304.088C550.97 303.336 551.082 302.48 551.082 301.52C551.082 300.048 550.818 298.872 550.29 297.992C549.778 297.112 548.978 296.672 547.89 296.672ZM572.925 295.136V308H556.365V295.136H558.453V306.224H563.589V295.136H565.677V306.224H570.813V295.136H572.925ZM581.436 294.896C582.476 294.896 583.372 295.136 584.124 295.616C584.876 296.096 585.452 296.776 585.852 297.656C586.268 298.52 586.476 299.536 586.476 300.704V301.976H578.22C578.252 303.432 578.596 304.544 579.252 305.312C579.908 306.064 580.828 306.44 582.012 306.44C582.78 306.44 583.46 306.368 584.052 306.224C584.66 306.064 585.284 305.84 585.924 305.552V307.4C585.3 307.688 584.684 307.896 584.076 308.024C583.484 308.168 582.764 308.24 581.916 308.24C580.764 308.24 579.748 307.992 578.868 307.496C577.988 307 577.3 306.264 576.804 305.288C576.308 304.296 576.06 303.088 576.06 301.664C576.06 300.256 576.284 299.048 576.732 298.04C577.18 297.032 577.804 296.256 578.604 295.712C579.42 295.168 580.364 294.896 581.436 294.896ZM581.436 296.624C580.508 296.624 579.772 296.952 579.228 297.608C578.684 298.248 578.364 299.144 578.268 300.296H584.316C584.316 299.56 584.212 298.92 584.004 298.376C583.796 297.832 583.476 297.408 583.044 297.104C582.628 296.784 582.092 296.624 581.436 296.624ZM591.593 295.136V300.488H598.025V295.136H600.113V308H598.025V302.264H591.593V308H589.505V295.136H591.593ZM605.864 302.984C605.864 303.128 605.856 303.336 605.84 303.608C605.84 303.864 605.832 304.144 605.816 304.448C605.8 304.736 605.784 305.016 605.768 305.288C605.752 305.544 605.736 305.752 605.72 305.912L612.152 295.136H614.696V308H612.752V300.416C612.752 300.16 612.752 299.824 612.752 299.408C612.768 298.992 612.784 298.584 612.8 298.184C612.816 297.768 612.832 297.456 612.848 297.248L606.488 308H603.896V295.136H605.864V302.984ZM620.489 302.984C620.489 303.128 620.481 303.336 620.465 303.608C620.465 303.864 620.457 304.144 620.441 304.448C620.425 304.736 620.409 305.016 620.393 305.288C620.377 305.544 620.361 305.752 620.345 305.912L626.777 295.136H629.321V308H627.377V300.416C627.377 300.16 627.377 299.824 627.377 299.408C627.393 298.992 627.409 298.584 627.425 298.184C627.441 297.768 627.457 297.456 627.473 297.248L621.113 308H618.521V295.136H620.489V302.984ZM57.728 318.896C59.216 318.896 60.408 319.448 61.304 320.552C62.216 321.656 62.672 323.32 62.672 325.544C62.672 327 62.464 328.232 62.048 329.24C61.632 330.232 61.048 330.984 60.296 331.496C59.56 331.992 58.696 332.24 57.704 332.24C57.08 332.24 56.528 332.152 56.048 331.976C55.584 331.8 55.184 331.576 54.848 331.304C54.512 331.016 54.224 330.704 53.984 330.368H53.84C53.872 330.64 53.904 330.984 53.936 331.4C53.968 331.816 53.984 332.176 53.984 332.48V337.76H51.896V319.136H53.6L53.888 320.888H53.984C54.224 320.52 54.512 320.184 54.848 319.88C55.184 319.576 55.584 319.336 56.048 319.16C56.528 318.984 57.088 318.896 57.728 318.896ZM57.32 320.672C56.52 320.672 55.872 320.84 55.376 321.176C54.896 321.496 54.544 321.984 54.32 322.64C54.096 323.296 53.984 324.128 53.984 325.136V325.544C53.984 326.6 54.08 327.496 54.272 328.232C54.48 328.968 54.832 329.528 55.328 329.912C55.824 330.296 56.504 330.488 57.368 330.488C58.088 330.488 58.68 330.272 59.144 329.84C59.608 329.408 59.952 328.824 60.176 328.088C60.4 327.336 60.512 326.48 60.512 325.52C60.512 324.048 60.248 322.872 59.72 321.992C59.208 321.112 58.408 320.672 57.32 320.672ZM70.4264 318.92C71.8984 318.92 72.9944 319.264 73.7144 319.952C74.4504 320.64 74.8184 321.736 74.8184 323.24V332H73.3064L72.8984 330.176H72.8024C72.4504 330.64 72.0904 331.032 71.7224 331.352C71.3704 331.656 70.9544 331.88 70.4744 332.024C70.0104 332.168 69.4344 332.24 68.7464 332.24C68.0264 332.24 67.3784 332.104 66.8024 331.832C66.2264 331.56 65.7704 331.144 65.4344 330.584C65.0984 330.008 64.9304 329.288 64.9304 328.424C64.9304 327.144 65.4024 326.16 66.3464 325.472C67.2904 324.768 68.7464 324.384 70.7144 324.32L72.7544 324.248V323.48C72.7544 322.408 72.5384 321.664 72.1064 321.248C71.6904 320.832 71.0904 320.624 70.3064 320.624C69.6824 320.624 69.0824 320.728 68.5064 320.936C67.9464 321.128 67.4104 321.352 66.8984 321.608L66.2504 320.024C66.7944 319.72 67.4264 319.464 68.1464 319.256C68.8664 319.032 69.6264 318.92 70.4264 318.92ZM71.0024 325.784C69.5304 325.848 68.5064 326.104 67.9304 326.552C67.3704 327 67.0904 327.632 67.0904 328.448C67.0904 329.168 67.2904 329.696 67.6904 330.032C68.0904 330.368 68.6104 330.536 69.2504 330.536C70.2424 330.536 71.0744 330.24 71.7464 329.648C72.4184 329.04 72.7544 328.112 72.7544 326.864V325.712L71.0024 325.784ZM81.8324 318.896C82.7444 318.896 83.5364 319.032 84.2084 319.304C84.8964 319.56 85.4324 319.944 85.8164 320.456C86.2004 320.952 86.3924 321.56 86.3924 322.28C86.3924 323.064 86.1844 323.688 85.7684 324.152C85.3684 324.6 84.8164 324.928 84.1124 325.136V325.232C84.5924 325.376 85.0324 325.576 85.4324 325.832C85.8484 326.088 86.1764 326.424 86.4164 326.84C86.6724 327.256 86.8004 327.792 86.8004 328.448C86.8004 329.152 86.6164 329.792 86.2484 330.368C85.8804 330.944 85.3044 331.4 84.5204 331.736C83.7524 332.072 82.7684 332.24 81.5684 332.24C80.9924 332.24 80.4404 332.208 79.9124 332.144C79.4004 332.08 78.9284 331.984 78.4964 331.856C78.0804 331.728 77.7124 331.576 77.3924 331.4V329.504C77.9044 329.76 78.5124 329.992 79.2164 330.2C79.9204 330.408 80.6884 330.512 81.5204 330.512C82.1284 330.512 82.6724 330.44 83.1524 330.296C83.6324 330.152 84.0164 329.928 84.3044 329.624C84.5924 329.304 84.7364 328.872 84.7364 328.328C84.7364 327.832 84.6084 327.432 84.3524 327.128C84.0964 326.808 83.7124 326.568 83.2004 326.408C82.7044 326.248 82.0644 326.168 81.2804 326.168H79.6964V324.44H80.9924C82.0324 324.44 82.8644 324.296 83.4884 324.008C84.1124 323.704 84.4244 323.192 84.4244 322.472C84.4244 321.864 84.1844 321.408 83.7044 321.104C83.2404 320.8 82.5684 320.648 81.6884 320.648C81.0324 320.648 80.4404 320.72 79.9124 320.864C79.4004 320.992 78.8484 321.192 78.2564 321.464L77.5124 319.784C78.1684 319.48 78.8564 319.256 79.5764 319.112C80.2964 318.968 81.0484 318.896 81.8324 318.896ZM99.0607 332H96.9487V320.888H93.4207C93.2767 322.92 93.0847 324.656 92.8447 326.096C92.6207 327.52 92.3327 328.68 91.9807 329.576C91.6447 330.472 91.2367 331.128 90.7567 331.544C90.2767 331.96 89.7087 332.168 89.0527 332.168C88.8447 332.168 88.6367 332.152 88.4287 332.12C88.2367 332.104 88.0767 332.064 87.9487 332V330.416C88.0447 330.448 88.1487 330.472 88.2607 330.488C88.3727 330.504 88.4847 330.512 88.5967 330.512C88.9167 330.512 89.2047 330.368 89.4607 330.08C89.7327 329.792 89.9727 329.352 90.1807 328.76C90.4047 328.168 90.6047 327.424 90.7807 326.528C90.9567 325.616 91.1087 324.544 91.2367 323.312C91.3807 322.08 91.5087 320.688 91.6207 319.136H99.0607V332ZM104.817 326.984C104.817 327.128 104.809 327.336 104.793 327.608C104.793 327.864 104.785 328.144 104.769 328.448C104.753 328.736 104.737 329.016 104.721 329.288C104.705 329.544 104.689 329.752 104.673 329.912L111.105 319.136H113.649V332H111.705V324.416C111.705 324.16 111.705 323.824 111.705 323.408C111.721 322.992 111.737 322.584 111.753 322.184C111.769 321.768 111.785 321.456 111.801 321.248L105.441 332H102.849V319.136H104.817V326.984ZM119.322 323.816C119.322 324.568 119.514 325.128 119.898 325.496C120.282 325.848 120.842 326.024 121.578 326.024C122.33 326.024 123.01 325.904 123.618 325.664C124.226 325.408 124.85 325.072 125.49 324.656V319.136H127.578V332H125.49V326.264C124.834 326.728 124.17 327.096 123.498 327.368C122.842 327.624 122.066 327.752 121.17 327.752C119.922 327.752 118.954 327.408 118.266 326.72C117.578 326.032 117.234 325.112 117.234 323.96V319.136H119.322V323.816ZM133.461 319.136V324.488H139.893V319.136H141.981V332H139.893V326.264H133.461V332H131.373V319.136H133.461ZM145.763 332V319.136H147.851V324.416H150.875C151.947 324.416 152.827 324.552 153.515 324.824C154.203 325.096 154.715 325.504 155.051 326.048C155.387 326.576 155.555 327.248 155.555 328.064C155.555 328.864 155.387 329.56 155.051 330.152C154.731 330.744 154.219 331.2 153.515 331.52C152.827 331.84 151.923 332 150.803 332H145.763ZM150.611 330.296C151.459 330.296 152.147 330.144 152.675 329.84C153.203 329.52 153.467 328.968 153.467 328.184C153.467 327.4 153.219 326.872 152.723 326.6C152.243 326.312 151.547 326.168 150.635 326.168H147.851V330.296H150.611ZM157.547 332V319.136H159.635V332H157.547ZM166.291 325.424L162.115 319.136H164.491L167.563 323.984L170.587 319.136H172.963L168.787 325.424L173.179 332H170.803L167.563 326.864L164.275 332H161.923L166.291 325.424ZM190.462 319.136V330.224H192.214V336.464H190.222V332H181.822V336.464H179.83V330.224H180.814C181.502 329.2 182.07 328.088 182.518 326.888C182.966 325.672 183.302 324.408 183.526 323.096C183.766 321.768 183.894 320.448 183.91 319.136H190.462ZM185.758 320.792C185.694 321.88 185.534 323.008 185.278 324.176C185.038 325.328 184.718 326.432 184.318 327.488C183.934 328.544 183.486 329.456 182.974 330.224H188.422V320.792H185.758ZM199.241 318.896C200.281 318.896 201.177 319.136 201.929 319.616C202.681 320.096 203.257 320.776 203.657 321.656C204.073 322.52 204.281 323.536 204.281 324.704V325.976H196.025C196.057 327.432 196.401 328.544 197.057 329.312C197.713 330.064 198.633 330.44 199.817 330.44C200.585 330.44 201.265 330.368 201.857 330.224C202.465 330.064 203.089 329.84 203.729 329.552V331.4C203.105 331.688 202.489 331.896 201.881 332.024C201.289 332.168 200.569 332.24 199.721 332.24C198.569 332.24 197.553 331.992 196.673 331.496C195.793 331 195.105 330.264 194.609 329.288C194.113 328.296 193.865 327.088 193.865 325.664C193.865 324.256 194.089 323.048 194.537 322.04C194.985 321.032 195.609 320.256 196.409 319.712C197.225 319.168 198.169 318.896 199.241 318.896ZM199.241 320.624C198.313 320.624 197.577 320.952 197.033 321.608C196.489 322.248 196.169 323.144 196.073 324.296H202.121C202.121 323.56 202.017 322.92 201.809 322.376C201.601 321.832 201.281 321.408 200.849 321.104C200.433 320.784 199.897 320.624 199.241 320.624ZM217.246 313.808C217.182 314.608 216.99 315.28 216.67 315.824C216.366 316.368 215.902 316.776 215.278 317.048C214.67 317.32 213.878 317.456 212.902 317.456C211.894 317.456 211.086 317.32 210.478 317.048C209.886 316.776 209.446 316.376 209.158 315.848C208.886 315.304 208.718 314.624 208.654 313.808H210.598C210.678 314.672 210.894 315.256 211.246 315.56C211.598 315.848 212.158 315.992 212.926 315.992C213.63 315.992 214.182 315.84 214.582 315.536C214.982 315.216 215.214 314.64 215.278 313.808H217.246ZM209.278 326.984C209.278 327.128 209.27 327.336 209.254 327.608C209.254 327.864 209.246 328.144 209.23 328.448C209.214 328.736 209.198 329.016 209.182 329.288C209.166 329.544 209.15 329.752 209.134 329.912L215.566 319.136H218.11V332H216.166V324.416C216.166 324.16 216.166 323.824 216.166 323.408C216.182 322.992 216.198 322.584 216.214 322.184C216.23 321.768 216.246 321.456 216.262 321.248L209.902 332H207.31V319.136H209.278V326.984ZM226.807 332.24C225.719 332.24 224.759 332.008 223.927 331.544C223.095 331.08 222.439 330.36 221.959 329.384C221.495 328.408 221.263 327.16 221.263 325.64C221.263 324.056 221.511 322.768 222.007 321.776C222.503 320.784 223.175 320.056 224.023 319.592C224.887 319.128 225.863 318.896 226.951 318.896C227.575 318.896 228.175 318.968 228.751 319.112C229.343 319.24 229.823 319.4 230.191 319.592L229.543 321.344C229.175 321.2 228.743 321.064 228.247 320.936C227.767 320.808 227.319 320.744 226.903 320.744C226.119 320.744 225.471 320.928 224.959 321.296C224.447 321.664 224.063 322.208 223.807 322.928C223.551 323.648 223.423 324.544 223.423 325.616C223.423 326.64 223.551 327.512 223.807 328.232C224.063 328.952 224.439 329.496 224.935 329.864C225.447 330.232 226.071 330.416 226.807 330.416C227.463 330.416 228.047 330.344 228.559 330.2C229.071 330.056 229.543 329.88 229.975 329.672V331.544C229.559 331.768 229.103 331.936 228.607 332.048C228.111 332.176 227.511 332.24 226.807 332.24ZM241.33 320.912H237.37V332H235.306V320.912H231.394V319.136H241.33V320.912ZM253.525 322.376C253.525 323.176 253.301 323.8 252.853 324.248C252.405 324.696 251.821 325 251.101 325.16V325.256C251.853 325.368 252.509 325.656 253.069 326.12C253.629 326.568 253.909 327.272 253.909 328.232C253.909 328.776 253.813 329.28 253.621 329.744C253.445 330.208 253.157 330.608 252.757 330.944C252.357 331.28 251.845 331.544 251.221 331.736C250.597 331.912 249.845 332 248.965 332H243.709V319.136H248.941C249.821 319.136 250.605 319.24 251.293 319.448C251.981 319.64 252.525 319.976 252.925 320.456C253.325 320.92 253.525 321.56 253.525 322.376ZM251.749 328.232C251.749 327.496 251.485 326.968 250.957 326.648C250.445 326.328 249.693 326.168 248.701 326.168H245.797V330.296H248.749C249.709 330.296 250.445 330.144 250.957 329.84C251.485 329.52 251.749 328.984 251.749 328.232ZM251.413 322.64C251.413 322.032 251.205 321.592 250.789 321.32C250.389 321.032 249.741 320.888 248.845 320.888H245.797V324.416H248.461C249.437 324.416 250.173 324.272 250.669 323.984C251.165 323.696 251.413 323.248 251.413 322.64ZM258.755 326.984C258.755 327.128 258.747 327.336 258.731 327.608C258.731 327.864 258.723 328.144 258.707 328.448C258.691 328.736 258.675 329.016 258.659 329.288C258.643 329.544 258.627 329.752 258.611 329.912L265.043 319.136H267.587V332H265.643V324.416C265.643 324.16 265.643 323.824 265.643 323.408C265.659 322.992 265.675 322.584 265.691 322.184C265.707 321.768 265.723 321.456 265.739 321.248L259.379 332H256.787V319.136H258.755V326.984ZM281.348 313.808C281.284 314.608 281.092 315.28 280.772 315.824C280.468 316.368 280.004 316.776 279.38 317.048C278.772 317.32 277.98 317.456 277.004 317.456C275.996 317.456 275.188 317.32 274.58 317.048C273.988 316.776 273.548 316.376 273.26 315.848C272.988 315.304 272.82 314.624 272.756 313.808H274.7C274.78 314.672 274.996 315.256 275.348 315.56C275.7 315.848 276.26 315.992 277.028 315.992C277.732 315.992 278.284 315.84 278.684 315.536C279.084 315.216 279.316 314.64 279.38 313.808H281.348ZM273.38 326.984C273.38 327.128 273.372 327.336 273.356 327.608C273.356 327.864 273.348 328.144 273.332 328.448C273.316 328.736 273.3 329.016 273.284 329.288C273.268 329.544 273.252 329.752 273.236 329.912L279.668 319.136H282.212V332H280.268V324.416C280.268 324.16 280.268 323.824 280.268 323.408C280.284 322.992 280.3 322.584 280.316 322.184C280.332 321.768 280.348 321.456 280.364 321.248L274.004 332H271.412V319.136H273.38V326.984ZM285.749 330.704C285.749 330.112 285.885 329.696 286.157 329.456C286.429 329.216 286.765 329.096 287.165 329.096C287.565 329.096 287.909 329.216 288.197 329.456C288.485 329.696 288.629 330.112 288.629 330.704C288.629 331.28 288.485 331.696 288.197 331.952C287.909 332.208 287.565 332.336 287.165 332.336C286.765 332.336 286.429 332.208 286.157 331.952C285.885 331.696 285.749 331.28 285.749 330.704Z" fill="white"/>
<path d="M929.302 326.095C928.513 326.884 928.513 328.164 929.302 328.953L942.164 341.815C942.954 342.605 944.233 342.605 945.023 341.815C945.812 341.026 945.812 339.747 945.023 338.957L933.59 327.524L945.023 316.091C945.812 315.302 945.812 314.022 945.023 313.233C944.233 312.444 942.954 312.444 942.164 313.233L929.302 326.095ZM1025.13 329.545C1026.25 329.545 1027.15 328.641 1027.15 327.524C1027.15 326.408 1026.25 325.503 1025.13 325.503V329.545ZM930.731 329.545H1025.13V325.503H930.731V329.545Z" fill="white"/>
<path d="M954.925 191.311C954.136 192.1 954.136 193.38 954.925 194.169L967.787 207.031C968.576 207.82 969.856 207.82 970.645 207.031C971.435 206.242 971.435 204.962 970.645 204.173L959.212 192.74L970.645 181.307C971.435 180.517 971.435 179.238 970.645 178.449C969.856 177.659 968.576 177.659 967.787 178.449L954.925 191.311ZM1025.13 194.761C1026.25 194.761 1027.15 193.856 1027.15 192.74C1027.15 191.623 1026.25 190.719 1025.13 190.719V194.761ZM956.354 194.761H1025.13V190.719H956.354V194.761Z" fill="white"/>
<path d="M1203.14 190.719C1202.03 190.719 1201.12 191.623 1201.12 192.74C1201.12 193.856 1202.03 194.761 1203.14 194.761V190.719ZM1266.61 194.169C1267.4 193.38 1267.4 192.1 1266.61 191.311L1253.74 178.449C1252.95 177.659 1251.68 177.659 1250.89 178.449C1250.1 179.238 1250.1 180.517 1250.89 181.307L1262.32 192.74L1250.89 204.173C1250.1 204.962 1250.1 206.242 1250.89 207.031C1251.68 207.82 1252.95 207.82 1253.74 207.031L1266.61 194.169ZM1203.14 194.761H1265.18V190.719H1203.14V194.761Z" fill="white"/>
<path d="M1203.14 330.895C1202.03 330.895 1201.12 331.8 1201.12 332.916C1201.12 334.032 1202.03 334.937 1203.14 334.937V330.895ZM1278.74 334.345C1279.53 333.556 1279.53 332.276 1278.74 331.487L1265.88 318.625C1265.09 317.835 1263.81 317.835 1263.02 318.625C1262.23 319.414 1262.23 320.694 1263.02 321.483L1274.46 332.916L1263.02 344.349C1262.23 345.138 1262.23 346.418 1263.02 347.207C1263.81 347.996 1265.09 347.996 1265.88 347.207L1278.74 334.345ZM1203.14 334.937H1277.31V330.895H1203.14V334.937Z" fill="white"/>
<rect x="899.794" y="167.211" width="51.0864" height="51.0574" rx="6.65607" stroke="white" stroke-width="2.85645"/>
<rect x="867.428" y="301.996" width="51.0864" height="51.0574" rx="6.65607" stroke="white" stroke-width="2.85645"/>
<rect x="1274.7" y="167.211" width="51.0864" height="51.0574" rx="6.65607" stroke="white" stroke-width="2.85645"/>
<rect x="1285.49" y="307.387" width="51.0864" height="51.0574" rx="6.65607" stroke="white" stroke-width="2.85645"/>
<rect x="1055.47" y="192.066" width="120.024" height="12.1311" rx="6.06554" stroke="white" stroke-width="1.34738"/>
<rect x="1050.08" y="232.501" width="25.624" height="25.6095" rx="7.41061" stroke="white" stroke-width="1.34738"/>
<rect x="1085.14" y="232.501" width="25.624" height="25.6095" rx="7.41061" stroke="white" stroke-width="1.34738"/>
<rect x="1120.2" y="232.501" width="25.624" height="25.6095" rx="7.41061" stroke="white" stroke-width="1.34738"/>
<rect x="1155.27" y="232.501" width="25.624" height="25.6095" rx="7.41061" stroke="white" stroke-width="1.34738"/>
<rect x="1050.08" y="264.849" width="25.624" height="25.6095" rx="7.41061" stroke="white" stroke-width="1.34738"/>
<rect x="1085.14" y="264.849" width="25.624" height="25.6095" rx="7.41061" stroke="white" stroke-width="1.34738"/>
<rect x="1120.2" y="264.849" width="25.624" height="25.6095" rx="7.41061" stroke="white" stroke-width="1.34738"/>
<rect x="1155.27" y="264.849" width="25.624" height="25.6095" rx="7.41061" stroke="white" stroke-width="1.34738"/>
<rect x="1050.08" y="297.198" width="25.624" height="25.6095" rx="7.41061" stroke="white" stroke-width="1.34738"/>
<rect x="1085.14" y="297.198" width="25.624" height="25.6095" rx="7.41061" stroke="white" stroke-width="1.34738"/>
<rect x="1120.2" y="297.198" width="25.624" height="25.6095" rx="7.41061" stroke="white" stroke-width="1.34738"/>
<rect x="1155.27" y="297.198" width="25.624" height="25.6095" rx="7.41061" stroke="white" stroke-width="1.34738"/>
<rect x="1050.08" y="329.546" width="25.624" height="25.6095" rx="7.41061" stroke="white" stroke-width="1.34738"/>
<rect x="1085.14" y="329.546" width="25.624" height="25.6095" rx="7.41061" stroke="white" stroke-width="1.34738"/>
<rect x="1120.2" y="329.546" width="25.624" height="25.6095" rx="7.41061" stroke="white" stroke-width="1.34738"/>
<rect x="1155.27" y="329.546" width="25.624" height="25.6095" rx="7.41061" stroke="white" stroke-width="1.34738"/>
<path d="M936.848 177.769H915.175C913.845 177.769 912.766 178.847 912.766 180.176V206.651C912.766 207.981 913.845 209.058 915.175 209.058H936.848C938.178 209.058 939.256 207.981 939.256 206.651V180.176C939.256 178.847 938.178 177.769 936.848 177.769Z" stroke="white" stroke-width="1.34738" stroke-linecap="round" stroke-linejoin="round"/>
<path d="M912.766 189.803H939.256" stroke="white" stroke-width="1.34738" stroke-linecap="round" stroke-linejoin="round"/>
<path d="M919.388 197.024C919.056 197.024 918.787 196.754 918.787 196.422C918.787 196.09 919.056 195.82 919.388 195.82" stroke="white" stroke-width="1.34738" stroke-linecap="round" stroke-linejoin="round"/>
<path d="M919.389 197.024C919.721 197.024 919.99 196.754 919.99 196.422C919.99 196.09 919.721 195.82 919.389 195.82" stroke="white" stroke-width="1.34738" stroke-linecap="round" stroke-linejoin="round"/>
<path d="M926.011 197.024C925.678 197.024 925.409 196.754 925.409 196.422C925.409 196.09 925.678 195.82 926.011 195.82" stroke="white" stroke-width="1.34738" stroke-linecap="round" stroke-linejoin="round"/>
<path d="M926.011 197.024C926.343 197.024 926.613 196.754 926.613 196.422C926.613 196.09 926.343 195.82 926.011 195.82" stroke="white" stroke-width="1.34738" stroke-linecap="round" stroke-linejoin="round"/>
<path d="M932.633 197.024C932.301 197.024 932.032 196.754 932.032 196.422C932.032 196.09 932.301 195.82 932.633 195.82" stroke="white" stroke-width="1.34738" stroke-linecap="round" stroke-linejoin="round"/>
<path d="M932.634 197.024C932.966 197.024 933.236 196.754 933.236 196.422C933.236 196.09 932.966 195.82 932.634 195.82" stroke="white" stroke-width="1.34738" stroke-linecap="round" stroke-linejoin="round"/>
<path d="M919.388 203.041C919.056 203.041 918.787 202.771 918.787 202.439C918.787 202.107 919.056 201.838 919.388 201.838" stroke="white" stroke-width="1.34738" stroke-linecap="round" stroke-linejoin="round"/>
<path d="M919.389 203.041C919.721 203.041 919.99 202.771 919.99 202.439C919.99 202.107 919.721 201.838 919.389 201.838" stroke="white" stroke-width="1.34738" stroke-linecap="round" stroke-linejoin="round"/>
<path d="M926.011 203.041C925.678 203.041 925.409 202.771 925.409 202.439C925.409 202.107 925.678 201.838 926.011 201.838" stroke="white" stroke-width="1.34738" stroke-linecap="round" stroke-linejoin="round"/>
<path d="M926.011 203.041C926.343 203.041 926.613 202.771 926.613 202.439C926.613 202.107 926.343 201.838 926.011 201.838" stroke="white" stroke-width="1.34738" stroke-linecap="round" stroke-linejoin="round"/>
<path d="M932.633 203.041C932.301 203.041 932.032 202.771 932.032 202.439C932.032 202.107 932.301 201.838 932.633 201.838" stroke="white" stroke-width="1.34738" stroke-linecap="round" stroke-linejoin="round"/>
<path d="M932.634 203.041C932.966 203.041 933.236 202.771 933.236 202.439C933.236 202.107 932.966 201.838 932.634 201.838" stroke="white" stroke-width="1.34738" stroke-linecap="round" stroke-linejoin="round"/>
<path d="M933.236 183.786H930.828" stroke="white" stroke-width="1.34738" stroke-linecap="round" stroke-linejoin="round"/>
<g clip-path="url(#clip0_679_718)">
<path d="M894.056 311.38L905.465 326.862L894.056 342.344L882.647 326.862L894.056 311.38Z" stroke="white" stroke-width="1.34738" stroke-linecap="round" stroke-linejoin="round"/>
<path d="M905.465 326.863L894.056 330.65L882.647 326.863" stroke="white" stroke-width="1.34738" stroke-linecap="round" stroke-linejoin="round"/>
</g>
<g clip-path="url(#clip1_679_718)">
<path d="M1304.17 189.338C1304.04 188.989 1303.85 188.672 1303.61 188.402C1303.1 187.827 1302.35 187.466 1301.52 187.466H1299.34C1297.96 187.466 1296.84 188.588 1296.84 189.972C1296.84 191.15 1297.66 192.169 1298.81 192.421L1302.12 193.145C1303.41 193.427 1304.33 194.569 1304.33 195.889C1304.33 197.44 1303.07 198.698 1301.52 198.698H1299.65C1298.42 198.698 1297.38 197.917 1297 196.826" stroke="white" stroke-width="1.34738" stroke-linecap="round" stroke-linejoin="round"/>
<path d="M1300.58 187.465V184.658" stroke="white" stroke-width="1.34738" stroke-linecap="round" stroke-linejoin="round"/>
<path d="M1300.58 201.505V198.698" stroke="white" stroke-width="1.34738" stroke-linecap="round" stroke-linejoin="round"/>
<path d="M1288.87 209.055V203.037H1294.89" stroke="white" stroke-width="1.34738" stroke-linecap="round" stroke-linejoin="round"/>
<path d="M1316.3 190.535C1317.8 198.497 1312.92 206.39 1304.96 208.521C1298.87 210.153 1292.65 207.958 1288.87 203.412" stroke="white" stroke-width="1.34738" stroke-linecap="round" stroke-linejoin="round"/>
<path d="M1285.53 196.292C1284.03 188.331 1288.91 180.437 1296.87 178.306C1302.96 176.675 1309.17 178.869 1312.96 183.415" stroke="white" stroke-width="1.34738" stroke-linecap="round" stroke-linejoin="round"/>
<path d="M1312.96 177.773V183.79H1306.94" stroke="white" stroke-width="1.34738" stroke-linecap="round" stroke-linejoin="round"/>
</g>
<g clip-path="url(#clip2_679_718)">
<path d="M1320.77 346.219C1327.79 341.176 1329.39 331.4 1324.34 324.384C1319.29 317.369 1309.51 315.77 1302.49 320.814C1295.47 325.858 1293.87 335.634 1298.92 342.649C1303.97 349.665 1313.75 351.263 1320.77 346.219Z" stroke="white" stroke-width="1.34738" stroke-linecap="round" stroke-linejoin="round"/>
<path d="M1302.49 320.814L1311.63 333.517L1327.09 336.043" stroke="white" stroke-width="1.34738" stroke-linecap="round" stroke-linejoin="round"/>
</g>
<rect x="1030.6" y="156.426" width="168.266" height="288.048" rx="15.6858" stroke="white" stroke-width="2.85196"/>
<rect x="1039.16" y="167.834" width="151.154" height="265.232" rx="15.6858" stroke="white" stroke-width="2.85196"/>
<rect x="1106.18" y="160.704" width="14.2598" height="2.85196" rx="1.42598" fill="white"/>
<rect x="1123.29" y="160.704" width="2.85196" height="2.85196" rx="1.42598" fill="white"/>
<defs>
<clipPath id="clip0_679_718">
<rect width="33.7143" height="33.6962" fill="white" transform="translate(876.789 310.002)"/>
</clipPath>
<clipPath id="clip1_679_718">
<rect width="33.7143" height="33.6962" fill="white" transform="translate(1284.06 176.566)"/>
</clipPath>
<clipPath id="clip2_679_718">
<rect width="33.7081" height="33.7023" fill="white" transform="matrix(0.812095 -0.583525 0.583939 0.811797 1288.1 329.672)"/>
</clipPath>
</defs>
</svg>
