<svg width="720" height="600" viewBox="0 0 720 600" fill="none" xmlns="http://www.w3.org/2000/svg">
<rect width="720" height="600" fill="#1C1C1C"/>
<path d="M65.68 110.84C64.88 112.707 64.0667 114.28 63.24 115.56C62.4133 116.84 61.4 117.8 60.2 118.44C59 119.08 57.4667 119.4 55.6 119.4C54.96 119.4 54.28 119.347 53.56 119.24C52.8667 119.133 52.24 118.987 51.68 118.8V114.72C52.24 114.96 52.8267 115.147 53.44 115.28C54.08 115.413 54.72 115.48 55.36 115.48C56.24 115.48 56.9867 115.347 57.6 115.08C58.2133 114.787 58.7467 114.36 59.2 113.8C59.6533 113.213 60.0667 112.453 60.44 111.52L50.4 90.44H55.16L61.64 104.72C61.7467 105.013 61.8667 105.32 62 105.64C62.1333 105.96 62.2533 106.293 62.36 106.64C62.4933 106.96 62.6 107.28 62.68 107.6H62.88C62.96 107.333 63.0533 107.04 63.16 106.72C63.2667 106.373 63.3733 106.04 63.48 105.72C63.6133 105.373 63.7333 105.067 63.84 104.8L69.48 90.44H74.16L65.68 110.84ZM91.2769 97.44V115.64H94.2369V126.56H90.1969V119H76.4369V126.56H72.4369V115.64H74.0769C75.1435 113.987 76.0235 112.173 76.7169 110.2C77.4369 108.227 77.9835 106.16 78.3569 104C78.7569 101.813 78.9835 99.6267 79.0369 97.44H91.2769ZM82.7169 100.72C82.5835 102.453 82.3302 104.227 81.9569 106.04C81.5835 107.853 81.1169 109.587 80.5569 111.24C79.9969 112.893 79.3302 114.36 78.5569 115.64H86.9969V100.72H82.7169ZM116.043 108.2C116.043 109.987 115.816 111.573 115.363 112.96C114.909 114.347 114.256 115.52 113.403 116.48C112.576 117.44 111.563 118.173 110.363 118.68C109.163 119.16 107.816 119.4 106.323 119.4C104.963 119.4 103.696 119.16 102.523 118.68C101.349 118.173 100.336 117.44 99.4828 116.48C98.6295 115.52 97.9628 114.347 97.4828 112.96C97.0295 111.573 96.8028 109.973 96.8028 108.16C96.8028 105.787 97.1895 103.773 97.9628 102.12C98.7361 100.467 99.8428 99.2133 101.283 98.36C102.749 97.48 104.483 97.04 106.483 97.04C108.349 97.04 110.003 97.48 111.443 98.36C112.883 99.2133 114.003 100.467 114.803 102.12C115.629 103.773 116.043 105.8 116.043 108.2ZM101.283 108.2C101.283 109.8 101.456 111.187 101.803 112.36C102.176 113.507 102.736 114.387 103.483 115C104.256 115.613 105.229 115.92 106.403 115.92C107.603 115.92 108.576 115.613 109.323 115C110.096 114.387 110.656 113.507 111.003 112.36C111.376 111.187 111.563 109.8 111.563 108.2C111.563 106.547 111.376 105.16 111.003 104.04C110.629 102.92 110.069 102.067 109.323 101.48C108.576 100.867 107.589 100.56 106.363 100.56C104.576 100.56 103.283 101.227 102.483 102.56C101.683 103.893 101.283 105.773 101.283 108.2ZM119.89 106.08C119.89 102.907 120.21 100.213 120.85 98C121.516 95.7867 122.556 94.0267 123.97 92.72C125.383 91.3867 127.236 90.48 129.53 90C131.023 89.68 132.516 89.3867 134.01 89.12C135.503 88.8533 136.93 88.6133 138.29 88.4L138.89 92.12C138.223 92.2 137.503 92.3067 136.73 92.44C135.956 92.5733 135.17 92.7067 134.37 92.84C133.57 92.9733 132.796 93.1067 132.05 93.24C131.33 93.3733 130.69 93.5067 130.13 93.64C129.196 93.8 128.383 94.08 127.69 94.48C127.023 94.88 126.463 95.4133 126.01 96.08C125.556 96.7467 125.196 97.6 124.93 98.64C124.663 99.6533 124.503 100.893 124.45 102.36H124.69C125.01 101.853 125.463 101.333 126.05 100.8C126.636 100.267 127.343 99.8267 128.17 99.48C129.023 99.1067 129.983 98.92 131.05 98.92C132.73 98.92 134.17 99.32 135.37 100.12C136.57 100.893 137.476 102 138.09 103.44C138.703 104.853 139.01 106.547 139.01 108.52C139.01 110.947 138.596 112.973 137.77 114.6C136.97 116.2 135.85 117.4 134.41 118.2C132.996 119 131.33 119.4 129.41 119.4C127.97 119.4 126.663 119.12 125.49 118.56C124.316 117.973 123.316 117.12 122.49 116C121.663 114.853 121.023 113.453 120.57 111.8C120.116 110.147 119.89 108.24 119.89 106.08ZM129.73 115.92C130.69 115.92 131.516 115.693 132.21 115.24C132.93 114.787 133.49 114.053 133.89 113.04C134.29 112.027 134.49 110.667 134.49 108.96C134.49 106.907 134.156 105.28 133.49 104.08C132.823 102.88 131.716 102.28 130.17 102.28C129.21 102.28 128.33 102.533 127.53 103.04C126.73 103.52 126.05 104.067 125.49 104.68C124.956 105.293 124.57 105.813 124.33 106.24C124.33 107.493 124.41 108.693 124.57 109.84C124.756 110.987 125.05 112.013 125.45 112.92C125.85 113.827 126.383 114.56 127.05 115.12C127.743 115.653 128.636 115.92 129.73 115.92ZM152.338 119.4C150.444 119.4 148.778 119.013 147.338 118.24C145.924 117.467 144.818 116.267 144.018 114.64C143.244 112.987 142.858 110.893 142.858 108.36C142.858 105.693 143.284 103.533 144.138 101.88C144.991 100.227 146.151 99.0133 147.618 98.24C149.084 97.44 150.764 97.04 152.658 97.04C153.778 97.04 154.844 97.1733 155.858 97.44C156.898 97.68 157.751 97.96 158.418 98.28L157.098 101.68C156.431 101.413 155.711 101.173 154.938 100.96C154.164 100.747 153.431 100.64 152.738 100.64C151.511 100.64 150.498 100.933 149.698 101.52C148.924 102.08 148.338 102.933 147.938 104.08C147.538 105.2 147.338 106.613 147.338 108.32C147.338 109.947 147.538 111.32 147.938 112.44C148.338 113.56 148.924 114.413 149.698 115C150.498 115.56 151.458 115.84 152.578 115.84C153.671 115.84 154.644 115.707 155.498 115.44C156.378 115.173 157.191 114.827 157.938 114.4V118.08C157.191 118.533 156.378 118.867 155.498 119.08C154.618 119.293 153.564 119.4 152.338 119.4ZM177.93 100.84H171.25V119H166.97V100.84H160.37V97.44H177.93V100.84ZM198.869 102.92C198.869 104.227 198.509 105.267 197.789 106.04C197.069 106.787 196.082 107.293 194.829 107.56V107.72C196.162 107.907 197.269 108.4 198.149 109.2C199.056 109.973 199.509 111.12 199.509 112.64C199.509 113.573 199.349 114.427 199.029 115.2C198.736 115.973 198.242 116.653 197.549 117.24C196.882 117.8 196.002 118.24 194.909 118.56C193.816 118.853 192.496 119 190.949 119H181.829V97.44H190.949C192.496 97.44 193.869 97.6133 195.069 97.96C196.269 98.3067 197.202 98.88 197.869 99.68C198.536 100.48 198.869 101.56 198.869 102.92ZM195.069 112.56C195.069 111.44 194.682 110.64 193.909 110.16C193.162 109.653 192.042 109.4 190.549 109.4H186.149V115.8H190.589C192.029 115.8 193.136 115.56 193.909 115.08C194.682 114.573 195.069 113.733 195.069 112.56ZM194.509 103.4C194.509 102.467 194.202 101.787 193.589 101.36C193.002 100.933 192.056 100.72 190.749 100.72H186.149V106.16H190.149C191.589 106.16 192.669 105.947 193.389 105.52C194.136 105.067 194.509 104.36 194.509 103.4ZM222.293 108.2C222.293 109.987 222.066 111.573 221.613 112.96C221.159 114.347 220.506 115.52 219.653 116.48C218.826 117.44 217.813 118.173 216.613 118.68C215.413 119.16 214.066 119.4 212.573 119.4C211.213 119.4 209.946 119.16 208.773 118.68C207.599 118.173 206.586 117.44 205.733 116.48C204.879 115.52 204.213 114.347 203.733 112.96C203.279 111.573 203.053 109.973 203.053 108.16C203.053 105.787 203.439 103.773 204.213 102.12C204.986 100.467 206.093 99.2133 207.533 98.36C208.999 97.48 210.733 97.04 212.733 97.04C214.599 97.04 216.253 97.48 217.693 98.36C219.133 99.2133 220.253 100.467 221.053 102.12C221.879 103.773 222.293 105.8 222.293 108.2ZM207.533 108.2C207.533 109.8 207.706 111.187 208.053 112.36C208.426 113.507 208.986 114.387 209.733 115C210.506 115.613 211.479 115.92 212.653 115.92C213.853 115.92 214.826 115.613 215.573 115C216.346 114.387 216.906 113.507 217.253 112.36C217.626 111.187 217.813 109.8 217.813 108.2C217.813 106.547 217.626 105.16 217.253 104.04C216.879 102.92 216.319 102.067 215.573 101.48C214.826 100.867 213.839 100.56 212.613 100.56C210.826 100.56 209.533 101.227 208.733 102.56C207.933 103.893 207.533 105.773 207.533 108.2Z" fill="white"/>
<path d="M58.492 260L53.74 246.228H53.652C53.6813 246.521 53.7033 246.895 53.718 247.35C53.7473 247.805 53.7693 248.303 53.784 248.846C53.7987 249.374 53.806 249.917 53.806 250.474V260H52.002V244.292H54.862L59.328 257.162H59.416L63.97 244.292H66.83V260H64.894V250.342C64.894 249.829 64.9013 249.323 64.916 248.824C64.9307 248.311 64.9527 247.834 64.982 247.394C65.0113 246.939 65.0333 246.558 65.048 246.25H64.96L60.12 260H58.492ZM80.2818 254.082C80.2818 255.065 80.1571 255.937 79.9078 256.7C79.6731 257.448 79.3285 258.086 78.8738 258.614C78.4191 259.142 77.8691 259.545 77.2238 259.824C76.5785 260.088 75.8598 260.22 75.0678 260.22C74.3345 260.22 73.6525 260.088 73.0218 259.824C72.4058 259.545 71.8631 259.142 71.3938 258.614C70.9391 258.086 70.5871 257.448 70.3378 256.7C70.0885 255.937 69.9638 255.065 69.9638 254.082C69.9638 252.777 70.1691 251.677 70.5798 250.782C71.0051 249.873 71.6065 249.183 72.3838 248.714C73.1611 248.23 74.0778 247.988 75.1338 247.988C76.1458 247.988 77.0331 248.23 77.7958 248.714C78.5731 249.183 79.1818 249.873 79.6218 250.782C80.0618 251.677 80.2818 252.777 80.2818 254.082ZM71.9438 254.082C71.9438 255.006 72.0538 255.813 72.2738 256.502C72.4938 257.177 72.8385 257.697 73.3078 258.064C73.7771 258.431 74.3785 258.614 75.1118 258.614C75.8451 258.614 76.4465 258.431 76.9158 258.064C77.3851 257.697 77.7298 257.177 77.9498 256.502C78.1845 255.813 78.3018 255.006 78.3018 254.082C78.3018 253.143 78.1845 252.344 77.9498 251.684C77.7298 251.024 77.3851 250.518 76.9158 250.166C76.4465 249.799 75.8378 249.616 75.0898 249.616C73.9898 249.616 73.1905 250.012 72.6918 250.804C72.1931 251.596 71.9438 252.689 71.9438 254.082ZM82.5547 252.916C82.5547 251.2 82.716 249.741 83.0387 248.538C83.376 247.321 83.8893 246.353 84.5787 245.634C85.2827 244.901 86.1847 244.409 87.2847 244.16C88.1647 243.955 89.03 243.771 89.8807 243.61C90.7313 243.449 91.5307 243.302 92.2787 243.17L92.6087 244.864C92.242 244.923 91.8387 244.996 91.3987 245.084C90.9587 245.157 90.5113 245.238 90.0567 245.326C89.6167 245.399 89.184 245.48 88.7587 245.568C88.348 245.641 87.9813 245.715 87.6587 245.788C87.204 245.891 86.7933 246.067 86.4267 246.316C86.0747 246.551 85.7667 246.873 85.5027 247.284C85.2533 247.695 85.048 248.201 84.8867 248.802C84.74 249.403 84.652 250.115 84.6227 250.936H84.7547C84.9453 250.657 85.2093 250.371 85.5467 250.078C85.884 249.785 86.2873 249.535 86.7567 249.33C87.226 249.125 87.7613 249.022 88.3627 249.022C89.316 249.022 90.1153 249.249 90.7607 249.704C91.406 250.144 91.89 250.76 92.2127 251.552C92.55 252.344 92.7187 253.268 92.7187 254.324C92.7187 255.629 92.4987 256.722 92.0587 257.602C91.6333 258.482 91.0393 259.142 90.2767 259.582C89.514 260.007 88.6267 260.22 87.6147 260.22C86.852 260.22 86.1553 260.066 85.5247 259.758C84.9087 259.435 84.3733 258.966 83.9187 258.35C83.4787 257.734 83.1413 256.971 82.9067 256.062C82.672 255.153 82.5547 254.104 82.5547 252.916ZM87.7687 258.614C88.3553 258.614 88.8687 258.482 89.3087 258.218C89.7487 257.954 90.086 257.521 90.3207 256.92C90.57 256.319 90.6947 255.519 90.6947 254.522C90.6947 253.319 90.4893 252.373 90.0787 251.684C89.668 250.98 88.9933 250.628 88.0547 250.628C87.4533 250.628 86.9107 250.775 86.4267 251.068C85.9427 251.347 85.532 251.669 85.1947 252.036C84.872 252.403 84.6447 252.711 84.5127 252.96C84.5127 253.679 84.5567 254.375 84.6447 255.05C84.7473 255.725 84.916 256.333 85.1507 256.876C85.4 257.404 85.73 257.829 86.1407 258.152C86.566 258.46 87.1087 258.614 87.7687 258.614ZM97.3701 255.402C97.3701 255.534 97.3628 255.725 97.3481 255.974C97.3481 256.209 97.3408 256.465 97.3261 256.744C97.3115 257.008 97.2968 257.265 97.2821 257.514C97.2675 257.749 97.2528 257.939 97.2381 258.086L103.134 248.208H105.466V260H103.684V253.048C103.684 252.813 103.684 252.505 103.684 252.124C103.699 251.743 103.713 251.369 103.728 251.002C103.743 250.621 103.757 250.335 103.772 250.144L97.9421 260H95.5661V248.208H97.3701V255.402ZM117.552 260H115.616V249.814H112.382C112.25 251.677 112.074 253.268 111.854 254.588C111.649 255.893 111.385 256.957 111.062 257.778C110.754 258.599 110.38 259.201 109.94 259.582C109.5 259.963 108.98 260.154 108.378 260.154C108.188 260.154 107.997 260.139 107.806 260.11C107.63 260.095 107.484 260.059 107.366 260V258.548C107.454 258.577 107.55 258.599 107.652 258.614C107.755 258.629 107.858 258.636 107.96 258.636C108.254 258.636 108.518 258.504 108.752 258.24C109.002 257.976 109.222 257.573 109.412 257.03C109.618 256.487 109.801 255.805 109.962 254.984C110.124 254.148 110.263 253.165 110.38 252.036C110.512 250.907 110.63 249.631 110.732 248.208H117.552V260ZM126.151 253.048C127.119 253.048 127.926 253.173 128.571 253.422C129.216 253.671 129.7 254.045 130.023 254.544C130.36 255.028 130.529 255.644 130.529 256.392C130.529 257.125 130.375 257.763 130.067 258.306C129.759 258.849 129.275 259.267 128.615 259.56C127.97 259.853 127.126 260 126.085 260H121.025V248.208H122.939V253.048H126.151ZM128.615 256.502C128.615 255.783 128.38 255.299 127.911 255.05C127.442 254.786 126.789 254.654 125.953 254.654H122.939V258.438H125.997C126.745 258.438 127.368 258.291 127.867 257.998C128.366 257.705 128.615 257.206 128.615 256.502ZM135.25 248.208V253.114H141.146V248.208H143.06V260H141.146V254.742H135.25V260H133.336V248.208H135.25ZM146.527 260V248.208H148.441V253.048H151.213C152.196 253.048 153.002 253.173 153.633 253.422C154.264 253.671 154.733 254.045 155.041 254.544C155.349 255.028 155.503 255.644 155.503 256.392C155.503 257.125 155.349 257.763 155.041 258.306C154.748 258.849 154.278 259.267 153.633 259.56C153.002 259.853 152.174 260 151.147 260H146.527ZM150.971 258.438C151.748 258.438 152.379 258.299 152.863 258.02C153.347 257.727 153.589 257.221 153.589 256.502C153.589 255.783 153.362 255.299 152.907 255.05C152.467 254.786 151.829 254.654 150.993 254.654H148.441V258.438H150.971ZM157.329 260V248.208H159.243V260H157.329ZM167.038 247.988C167.992 247.988 168.813 248.208 169.502 248.648C170.192 249.088 170.72 249.711 171.086 250.518C171.468 251.31 171.658 252.241 171.658 253.312V254.478H164.09C164.12 255.813 164.435 256.832 165.036 257.536C165.638 258.225 166.481 258.57 167.566 258.57C168.27 258.57 168.894 258.504 169.436 258.372C169.994 258.225 170.566 258.02 171.152 257.756V259.45C170.58 259.714 170.016 259.905 169.458 260.022C168.916 260.154 168.256 260.22 167.478 260.22C166.422 260.22 165.491 259.993 164.684 259.538C163.878 259.083 163.247 258.409 162.792 257.514C162.338 256.605 162.11 255.497 162.11 254.192C162.11 252.901 162.316 251.794 162.726 250.87C163.137 249.946 163.709 249.235 164.442 248.736C165.19 248.237 166.056 247.988 167.038 247.988ZM167.038 249.572C166.188 249.572 165.513 249.873 165.014 250.474C164.516 251.061 164.222 251.882 164.134 252.938H169.678C169.678 252.263 169.583 251.677 169.392 251.178C169.202 250.679 168.908 250.291 168.512 250.012C168.131 249.719 167.64 249.572 167.038 249.572ZM189.244 248.208V260H187.33V249.858H181.72V260H179.806V248.208H189.244ZM198.086 247.988C199.45 247.988 200.543 248.494 201.364 249.506C202.2 250.518 202.618 252.043 202.618 254.082C202.618 255.417 202.427 256.546 202.046 257.47C201.665 258.379 201.129 259.069 200.44 259.538C199.765 259.993 198.973 260.22 198.064 260.22C197.492 260.22 196.986 260.139 196.546 259.978C196.121 259.817 195.754 259.611 195.446 259.362C195.138 259.098 194.874 258.812 194.654 258.504H194.522C194.551 258.753 194.581 259.069 194.61 259.45C194.639 259.831 194.654 260.161 194.654 260.44V265.28H192.74V248.208H194.302L194.566 249.814H194.654C194.874 249.477 195.138 249.169 195.446 248.89C195.754 248.611 196.121 248.391 196.546 248.23C196.986 248.069 197.499 247.988 198.086 247.988ZM197.712 249.616C196.979 249.616 196.385 249.77 195.93 250.078C195.49 250.371 195.167 250.819 194.962 251.42C194.757 252.021 194.654 252.784 194.654 253.708V254.082C194.654 255.05 194.742 255.871 194.918 256.546C195.109 257.221 195.431 257.734 195.886 258.086C196.341 258.438 196.964 258.614 197.756 258.614C198.416 258.614 198.959 258.416 199.384 258.02C199.809 257.624 200.125 257.089 200.33 256.414C200.535 255.725 200.638 254.94 200.638 254.06C200.638 252.711 200.396 251.633 199.912 250.826C199.443 250.019 198.709 249.616 197.712 249.616ZM207.284 255.402C207.284 255.534 207.277 255.725 207.262 255.974C207.262 256.209 207.255 256.465 207.24 256.744C207.226 257.008 207.211 257.265 207.196 257.514C207.182 257.749 207.167 257.939 207.152 258.086L213.048 248.208H215.38V260H213.598V253.048C213.598 252.813 213.598 252.505 213.598 252.124C213.613 251.743 213.628 251.369 213.642 251.002C213.657 250.621 213.672 250.335 213.686 250.144L207.856 260H205.48V248.208H207.284V255.402ZM227.466 260H225.53V249.814H222.296C222.164 251.677 221.988 253.268 221.768 254.588C221.563 255.893 221.299 256.957 220.976 257.778C220.668 258.599 220.294 259.201 219.854 259.582C219.414 259.963 218.894 260.154 218.292 260.154C218.102 260.154 217.911 260.139 217.72 260.11C217.544 260.095 217.398 260.059 217.28 260V258.548C217.368 258.577 217.464 258.599 217.566 258.614C217.669 258.629 217.772 258.636 217.874 258.636C218.168 258.636 218.432 258.504 218.666 258.24C218.916 257.976 219.136 257.573 219.326 257.03C219.532 256.487 219.715 255.805 219.876 254.984C220.038 254.148 220.177 253.165 220.294 252.036C220.426 250.907 220.544 249.631 220.646 248.208H227.466V260ZM240.641 254.082C240.641 255.065 240.517 255.937 240.267 256.7C240.033 257.448 239.688 258.086 239.233 258.614C238.779 259.142 238.229 259.545 237.583 259.824C236.938 260.088 236.219 260.22 235.427 260.22C234.694 260.22 234.012 260.088 233.381 259.824C232.765 259.545 232.223 259.142 231.753 258.614C231.299 258.086 230.947 257.448 230.697 256.7C230.448 255.937 230.323 255.065 230.323 254.082C230.323 252.777 230.529 251.677 230.939 250.782C231.365 249.873 231.966 249.183 232.743 248.714C233.521 248.23 234.437 247.988 235.493 247.988C236.505 247.988 237.393 248.23 238.155 248.714C238.933 249.183 239.541 249.873 239.981 250.782C240.421 251.677 240.641 252.777 240.641 254.082ZM232.303 254.082C232.303 255.006 232.413 255.813 232.633 256.502C232.853 257.177 233.198 257.697 233.667 258.064C234.137 258.431 234.738 258.614 235.471 258.614C236.205 258.614 236.806 258.431 237.275 258.064C237.745 257.697 238.089 257.177 238.309 256.502C238.544 255.813 238.661 255.006 238.661 254.082C238.661 253.143 238.544 252.344 238.309 251.684C238.089 251.024 237.745 250.518 237.275 250.166C236.806 249.799 236.197 249.616 235.449 249.616C234.349 249.616 233.55 250.012 233.051 250.804C232.553 251.596 232.303 252.689 232.303 254.082ZM256.608 248.208L252.054 253.928L256.982 260H254.826L250.074 254.016V260H248.292V254.016L243.518 260H241.362L246.29 253.928L241.758 248.208H243.826L248.292 253.928V248.208H250.074V253.928L254.54 248.208H256.608ZM262.687 247.988C263.64 247.988 264.461 248.208 265.151 248.648C265.84 249.088 266.368 249.711 266.735 250.518C267.116 251.31 267.307 252.241 267.307 253.312V254.478H259.739C259.768 255.813 260.083 256.832 260.685 257.536C261.286 258.225 262.129 258.57 263.215 258.57C263.919 258.57 264.542 258.504 265.085 258.372C265.642 258.225 266.214 258.02 266.801 257.756V259.45C266.229 259.714 265.664 259.905 265.107 260.022C264.564 260.154 263.904 260.22 263.127 260.22C262.071 260.22 261.139 259.993 260.333 259.538C259.526 259.083 258.895 258.409 258.441 257.514C257.986 256.605 257.759 255.497 257.759 254.192C257.759 252.901 257.964 251.794 258.375 250.87C258.785 249.946 259.357 249.235 260.091 248.736C260.839 248.237 261.704 247.988 262.687 247.988ZM262.687 249.572C261.836 249.572 261.161 249.873 260.663 250.474C260.164 251.061 259.871 251.882 259.783 252.938H265.327C265.327 252.263 265.231 251.677 265.041 251.178C264.85 250.679 264.557 250.291 264.161 250.012C263.779 249.719 263.288 249.572 262.687 249.572ZM271.998 248.208V253.114H277.894V248.208H279.808V260H277.894V254.742H271.998V260H270.084V248.208H271.998ZM285.079 255.402C285.079 255.534 285.072 255.725 285.057 255.974C285.057 256.209 285.05 256.465 285.035 256.744C285.02 257.008 285.006 257.265 284.991 257.514C284.976 257.749 284.962 257.939 284.947 258.086L290.843 248.208H293.175V260H291.393V253.048C291.393 252.813 291.393 252.505 291.393 252.124C291.408 251.743 291.422 251.369 291.437 251.002C291.452 250.621 291.466 250.335 291.481 250.144L285.651 260H283.275V248.208H285.079V255.402ZM297.451 260H295.251L298.397 255.05C297.972 254.933 297.561 254.749 297.165 254.5C296.784 254.236 296.469 253.877 296.219 253.422C295.97 252.953 295.845 252.373 295.845 251.684C295.845 250.555 296.205 249.697 296.923 249.11C297.657 248.509 298.625 248.208 299.827 248.208H304.821V260H302.907V255.314H300.289L297.451 260ZM297.715 251.706C297.715 252.381 297.943 252.887 298.397 253.224C298.867 253.547 299.519 253.708 300.355 253.708H302.907V249.814H300.003C299.182 249.814 298.595 249.99 298.243 250.342C297.891 250.694 297.715 251.149 297.715 251.706ZM61.176 272.208V284H59.262V273.858H53.652V284H51.738V272.208H61.176ZM74.3736 278.082C74.3736 279.065 74.2489 279.937 73.9996 280.7C73.7649 281.448 73.4203 282.086 72.9656 282.614C72.5109 283.142 71.9609 283.545 71.3156 283.824C70.6703 284.088 69.9516 284.22 69.1596 284.22C68.4263 284.22 67.7443 284.088 67.1136 283.824C66.4976 283.545 65.9549 283.142 65.4856 282.614C65.0309 282.086 64.6789 281.448 64.4296 280.7C64.1803 279.937 64.0556 279.065 64.0556 278.082C64.0556 276.777 64.2609 275.677 64.6716 274.782C65.0969 273.873 65.6983 273.183 66.4756 272.714C67.2529 272.23 68.1696 271.988 69.2256 271.988C70.2376 271.988 71.1249 272.23 71.8876 272.714C72.6649 273.183 73.2736 273.873 73.7136 274.782C74.1536 275.677 74.3736 276.777 74.3736 278.082ZM66.0356 278.082C66.0356 279.006 66.1456 279.813 66.3656 280.502C66.5856 281.177 66.9303 281.697 67.3996 282.064C67.8689 282.431 68.4703 282.614 69.2036 282.614C69.9369 282.614 70.5383 282.431 71.0076 282.064C71.4769 281.697 71.8216 281.177 72.0416 280.502C72.2763 279.813 72.3936 279.006 72.3936 278.082C72.3936 277.143 72.2763 276.344 72.0416 275.684C71.8216 275.024 71.4769 274.518 71.0076 274.166C70.5383 273.799 69.9296 273.616 69.1816 273.616C68.0816 273.616 67.2823 274.012 66.7836 274.804C66.2849 275.596 66.0356 276.689 66.0356 278.082ZM80.2325 271.988C81.0685 271.988 81.7945 272.113 82.4105 272.362C83.0411 272.597 83.5325 272.949 83.8845 273.418C84.2365 273.873 84.4125 274.43 84.4125 275.09C84.4125 275.809 84.2218 276.381 83.8405 276.806C83.4738 277.217 82.9678 277.517 82.3225 277.708V277.796C82.7625 277.928 83.1658 278.111 83.5325 278.346C83.9138 278.581 84.2145 278.889 84.4345 279.27C84.6691 279.651 84.7865 280.143 84.7865 280.744C84.7865 281.389 84.6178 281.976 84.2805 282.504C83.9431 283.032 83.4151 283.45 82.6965 283.758C81.9925 284.066 81.0905 284.22 79.9905 284.22C79.4625 284.22 78.9565 284.191 78.4725 284.132C78.0031 284.073 77.5705 283.985 77.1745 283.868C76.7931 283.751 76.4558 283.611 76.1625 283.45V281.712C76.6318 281.947 77.1891 282.159 77.8345 282.35C78.4798 282.541 79.1838 282.636 79.9465 282.636C80.5038 282.636 81.0025 282.57 81.4425 282.438C81.8825 282.306 82.2345 282.101 82.4985 281.822C82.7625 281.529 82.8945 281.133 82.8945 280.634C82.8945 280.179 82.7771 279.813 82.5425 279.534C82.3078 279.241 81.9558 279.021 81.4865 278.874C81.0318 278.727 80.4451 278.654 79.7265 278.654H78.2745V277.07H79.4625C80.4158 277.07 81.1785 276.938 81.7505 276.674C82.3225 276.395 82.6085 275.926 82.6085 275.266C82.6085 274.709 82.3885 274.291 81.9485 274.012C81.5231 273.733 80.9071 273.594 80.1005 273.594C79.4991 273.594 78.9565 273.66 78.4725 273.792C78.0031 273.909 77.4971 274.093 76.9545 274.342L76.2725 272.802C76.8738 272.523 77.5045 272.318 78.1645 272.186C78.8245 272.054 79.5138 271.988 80.2325 271.988ZM96.443 275.178C96.443 275.911 96.2377 276.483 95.827 276.894C95.4164 277.305 94.881 277.583 94.221 277.73V277.818C94.9104 277.921 95.5117 278.185 96.025 278.61C96.5384 279.021 96.795 279.666 96.795 280.546C96.795 281.045 96.707 281.507 96.531 281.932C96.3697 282.357 96.1057 282.724 95.739 283.032C95.3724 283.34 94.903 283.582 94.331 283.758C93.759 283.919 93.0697 284 92.263 284H87.445V272.208H92.241C93.0477 272.208 93.7664 272.303 94.397 272.494C95.0277 272.67 95.5264 272.978 95.893 273.418C96.2597 273.843 96.443 274.43 96.443 275.178ZM94.815 280.546C94.815 279.871 94.573 279.387 94.089 279.094C93.6197 278.801 92.9304 278.654 92.021 278.654H89.359V282.438H92.065C92.945 282.438 93.6197 282.299 94.089 282.02C94.573 281.727 94.815 281.235 94.815 280.546ZM94.507 275.42C94.507 274.863 94.3164 274.459 93.935 274.21C93.5684 273.946 92.9744 273.814 92.153 273.814H89.359V277.048H91.801C92.6957 277.048 93.3704 276.916 93.825 276.652C94.2797 276.388 94.507 275.977 94.507 275.42ZM109.135 278.082C109.135 279.065 109.011 279.937 108.761 280.7C108.527 281.448 108.182 282.086 107.727 282.614C107.273 283.142 106.723 283.545 106.077 283.824C105.432 284.088 104.713 284.22 103.921 284.22C103.188 284.22 102.506 284.088 101.875 283.824C101.259 283.545 100.717 283.142 100.247 282.614C99.7926 282.086 99.4406 281.448 99.1913 280.7C98.942 279.937 98.8173 279.065 98.8173 278.082C98.8173 276.777 99.0226 275.677 99.4333 274.782C99.8586 273.873 100.46 273.183 101.237 272.714C102.015 272.23 102.931 271.988 103.987 271.988C104.999 271.988 105.887 272.23 106.649 272.714C107.427 273.183 108.035 273.873 108.475 274.782C108.915 275.677 109.135 276.777 109.135 278.082ZM100.797 278.082C100.797 279.006 100.907 279.813 101.127 280.502C101.347 281.177 101.692 281.697 102.161 282.064C102.631 282.431 103.232 282.614 103.965 282.614C104.699 282.614 105.3 282.431 105.769 282.064C106.239 281.697 106.583 281.177 106.803 280.502C107.038 279.813 107.155 279.006 107.155 278.082C107.155 277.143 107.038 276.344 106.803 275.684C106.583 275.024 106.239 274.518 105.769 274.166C105.3 273.799 104.691 273.616 103.943 273.616C102.843 273.616 102.044 274.012 101.545 274.804C101.047 275.596 100.797 276.689 100.797 278.082ZM120.56 284H118.624V273.814H115.39C115.258 275.677 115.082 277.268 114.862 278.588C114.657 279.893 114.393 280.957 114.07 281.778C113.762 282.599 113.388 283.201 112.948 283.582C112.508 283.963 111.988 284.154 111.386 284.154C111.196 284.154 111.005 284.139 110.814 284.11C110.638 284.095 110.492 284.059 110.374 284V282.548C110.462 282.577 110.558 282.599 110.66 282.614C110.763 282.629 110.866 282.636 110.968 282.636C111.262 282.636 111.526 282.504 111.76 282.24C112.01 281.976 112.23 281.573 112.42 281.03C112.626 280.487 112.809 279.805 112.97 278.984C113.132 278.148 113.271 277.165 113.388 276.036C113.52 274.907 113.638 273.631 113.74 272.208H120.56V284ZM124.803 284H122.603L125.749 279.05C125.324 278.933 124.913 278.749 124.517 278.5C124.136 278.236 123.82 277.877 123.571 277.422C123.322 276.953 123.197 276.373 123.197 275.684C123.197 274.555 123.556 273.697 124.275 273.11C125.008 272.509 125.976 272.208 127.179 272.208H132.173V284H130.259V279.314H127.641L124.803 284ZM125.067 275.706C125.067 276.381 125.294 276.887 125.749 277.224C126.218 277.547 126.871 277.708 127.707 277.708H130.259V273.814H127.355C126.534 273.814 125.947 273.99 125.595 274.342C125.243 274.694 125.067 275.149 125.067 275.706ZM150.132 278.082C150.132 279.387 149.934 280.502 149.538 281.426C149.142 282.335 148.57 283.032 147.822 283.516C147.089 283.985 146.216 284.22 145.204 284.22C144.28 284.22 143.459 284.015 142.74 283.604C142.036 283.179 141.471 282.563 141.046 281.756C140.635 280.935 140.393 279.93 140.32 278.742H137.57V284H135.656V272.208H137.57V277.114H140.342C140.445 275.999 140.701 275.068 141.112 274.32C141.537 273.557 142.102 272.978 142.806 272.582C143.51 272.186 144.324 271.988 145.248 271.988C146.216 271.988 147.067 272.23 147.8 272.714C148.533 273.183 149.105 273.873 149.516 274.782C149.927 275.677 150.132 276.777 150.132 278.082ZM142.278 278.082C142.278 279.065 142.381 279.893 142.586 280.568C142.791 281.243 143.114 281.756 143.554 282.108C143.994 282.445 144.551 282.614 145.226 282.614C145.915 282.614 146.473 282.445 146.898 282.108C147.338 281.756 147.653 281.243 147.844 280.568C148.049 279.893 148.152 279.065 148.152 278.082C148.152 277.099 148.049 276.278 147.844 275.618C147.639 274.958 147.323 274.459 146.898 274.122C146.473 273.785 145.915 273.616 145.226 273.616C144.551 273.616 143.994 273.785 143.554 274.122C143.114 274.459 142.791 274.958 142.586 275.618C142.381 276.278 142.278 277.099 142.278 278.082ZM160.589 273.836H156.959V284H155.067V273.836H151.481V272.208H160.589V273.836ZM173.486 271.988C174.85 271.988 175.943 272.494 176.764 273.506C177.6 274.518 178.018 276.043 178.018 278.082C178.018 279.417 177.828 280.546 177.446 281.47C177.065 282.379 176.53 283.069 175.84 283.538C175.166 283.993 174.374 284.22 173.464 284.22C172.892 284.22 172.386 284.139 171.946 283.978C171.521 283.817 171.154 283.611 170.846 283.362C170.538 283.098 170.274 282.812 170.054 282.504H169.922C169.952 282.753 169.981 283.069 170.01 283.45C170.04 283.831 170.054 284.161 170.054 284.44V289.28H168.14V272.208H169.702L169.966 273.814H170.054C170.274 273.477 170.538 273.169 170.846 272.89C171.154 272.611 171.521 272.391 171.946 272.23C172.386 272.069 172.9 271.988 173.486 271.988ZM173.112 273.616C172.379 273.616 171.785 273.77 171.33 274.078C170.89 274.371 170.568 274.819 170.362 275.42C170.157 276.021 170.054 276.784 170.054 277.708V278.082C170.054 279.05 170.142 279.871 170.318 280.546C170.509 281.221 170.832 281.734 171.286 282.086C171.741 282.438 172.364 282.614 173.156 282.614C173.816 282.614 174.359 282.416 174.784 282.02C175.21 281.624 175.525 281.089 175.73 280.414C175.936 279.725 176.038 278.94 176.038 278.06C176.038 276.711 175.796 275.633 175.312 274.826C174.843 274.019 174.11 273.616 173.112 273.616ZM185.193 271.988C186.146 271.988 186.967 272.208 187.657 272.648C188.346 273.088 188.874 273.711 189.241 274.518C189.622 275.31 189.813 276.241 189.813 277.312V278.478H182.245C182.274 279.813 182.589 280.832 183.191 281.536C183.792 282.225 184.635 282.57 185.721 282.57C186.425 282.57 187.048 282.504 187.591 282.372C188.148 282.225 188.72 282.02 189.307 281.756V283.45C188.735 283.714 188.17 283.905 187.613 284.022C187.07 284.154 186.41 284.22 185.633 284.22C184.577 284.22 183.645 283.993 182.839 283.538C182.032 283.083 181.401 282.409 180.947 281.514C180.492 280.605 180.265 279.497 180.265 278.192C180.265 276.901 180.47 275.794 180.881 274.87C181.291 273.946 181.863 273.235 182.597 272.736C183.345 272.237 184.21 271.988 185.193 271.988ZM185.193 273.572C184.342 273.572 183.667 273.873 183.169 274.474C182.67 275.061 182.377 275.882 182.289 276.938H187.833C187.833 276.263 187.737 275.677 187.547 275.178C187.356 274.679 187.063 274.291 186.667 274.012C186.285 273.719 185.794 273.572 185.193 273.572ZM196.836 272.01C198.185 272.01 199.19 272.325 199.85 272.956C200.524 273.587 200.862 274.591 200.862 275.97V284H199.476L199.102 282.328H199.014C198.691 282.753 198.361 283.113 198.024 283.406C197.701 283.685 197.32 283.89 196.88 284.022C196.454 284.154 195.926 284.22 195.296 284.22C194.636 284.22 194.042 284.095 193.514 283.846C192.986 283.597 192.568 283.215 192.26 282.702C191.952 282.174 191.798 281.514 191.798 280.722C191.798 279.549 192.23 278.647 193.096 278.016C193.961 277.371 195.296 277.019 197.1 276.96L198.97 276.894V276.19C198.97 275.207 198.772 274.525 198.376 274.144C197.994 273.763 197.444 273.572 196.726 273.572C196.154 273.572 195.604 273.667 195.076 273.858C194.562 274.034 194.071 274.239 193.602 274.474L193.008 273.022C193.506 272.743 194.086 272.509 194.746 272.318C195.406 272.113 196.102 272.01 196.836 272.01ZM197.364 278.302C196.014 278.361 195.076 278.595 194.548 279.006C194.034 279.417 193.778 279.996 193.778 280.744C193.778 281.404 193.961 281.888 194.328 282.196C194.694 282.504 195.171 282.658 195.758 282.658C196.667 282.658 197.43 282.387 198.046 281.844C198.662 281.287 198.97 280.436 198.97 279.292V278.236L197.364 278.302ZM212.857 284H210.921V273.814H207.687C207.555 275.677 207.379 277.268 207.159 278.588C206.954 279.893 206.69 280.957 206.367 281.778C206.059 282.599 205.685 283.201 205.245 283.582C204.805 283.963 204.284 284.154 203.683 284.154C203.492 284.154 203.302 284.139 203.111 284.11C202.935 284.095 202.788 284.059 202.671 284V282.548C202.759 282.577 202.854 282.599 202.957 282.614C203.06 282.629 203.162 282.636 203.265 282.636C203.558 282.636 203.822 282.504 204.057 282.24C204.306 281.976 204.526 281.573 204.717 281.03C204.922 280.487 205.106 279.805 205.267 278.984C205.428 278.148 205.568 277.165 205.685 276.036C205.817 274.907 205.934 273.631 206.037 272.208H212.857V284ZM218.134 279.402C218.134 279.534 218.126 279.725 218.112 279.974C218.112 280.209 218.104 280.465 218.09 280.744C218.075 281.008 218.06 281.265 218.046 281.514C218.031 281.749 218.016 281.939 218.002 282.086L223.898 272.208H226.23V284H224.448V277.048C224.448 276.813 224.448 276.505 224.448 276.124C224.462 275.743 224.477 275.369 224.492 275.002C224.506 274.621 224.521 274.335 224.536 274.144L218.706 284H216.33V272.208H218.134V279.402ZM232.75 271.988C233.586 271.988 234.312 272.113 234.928 272.362C235.559 272.597 236.05 272.949 236.402 273.418C236.754 273.873 236.93 274.43 236.93 275.09C236.93 275.809 236.739 276.381 236.358 276.806C235.991 277.217 235.485 277.517 234.84 277.708V277.796C235.28 277.928 235.683 278.111 236.05 278.346C236.431 278.581 236.732 278.889 236.952 279.27C237.187 279.651 237.304 280.143 237.304 280.744C237.304 281.389 237.135 281.976 236.798 282.504C236.461 283.032 235.933 283.45 235.214 283.758C234.51 284.066 233.608 284.22 232.508 284.22C231.98 284.22 231.474 284.191 230.99 284.132C230.521 284.073 230.088 283.985 229.692 283.868C229.311 283.751 228.973 283.611 228.68 283.45V281.712C229.149 281.947 229.707 282.159 230.352 282.35C230.997 282.541 231.701 282.636 232.464 282.636C233.021 282.636 233.52 282.57 233.96 282.438C234.4 282.306 234.752 282.101 235.016 281.822C235.28 281.529 235.412 281.133 235.412 280.634C235.412 280.179 235.295 279.813 235.06 279.534C234.825 279.241 234.473 279.021 234.004 278.874C233.549 278.727 232.963 278.654 232.244 278.654H230.792V277.07H231.98C232.933 277.07 233.696 276.938 234.268 276.674C234.84 276.395 235.126 275.926 235.126 275.266C235.126 274.709 234.906 274.291 234.466 274.012C234.041 273.733 233.425 273.594 232.618 273.594C232.017 273.594 231.474 273.66 230.99 273.792C230.521 273.909 230.015 274.093 229.472 274.342L228.79 272.802C229.391 272.523 230.022 272.318 230.682 272.186C231.342 272.054 232.031 271.988 232.75 271.988ZM249.665 278.082C249.665 279.065 249.54 279.937 249.291 280.7C249.056 281.448 248.711 282.086 248.257 282.614C247.802 283.142 247.252 283.545 246.607 283.824C245.961 284.088 245.243 284.22 244.451 284.22C243.717 284.22 243.035 284.088 242.405 283.824C241.789 283.545 241.246 283.142 240.777 282.614C240.322 282.086 239.97 281.448 239.721 280.7C239.471 279.937 239.347 279.065 239.347 278.082C239.347 276.777 239.552 275.677 239.963 274.782C240.388 273.873 240.989 273.183 241.767 272.714C242.544 272.23 243.461 271.988 244.517 271.988C245.529 271.988 246.416 272.23 247.179 272.714C247.956 273.183 248.565 273.873 249.005 274.782C249.445 275.677 249.665 276.777 249.665 278.082ZM241.327 278.082C241.327 279.006 241.437 279.813 241.657 280.502C241.877 281.177 242.221 281.697 242.691 282.064C243.16 282.431 243.761 282.614 244.495 282.614C245.228 282.614 245.829 282.431 246.299 282.064C246.768 281.697 247.113 281.177 247.333 280.502C247.567 279.813 247.685 279.006 247.685 278.082C247.685 277.143 247.567 276.344 247.333 275.684C247.113 275.024 246.768 274.518 246.299 274.166C245.829 273.799 245.221 273.616 244.473 273.616C243.373 273.616 242.573 274.012 242.075 274.804C241.576 275.596 241.327 276.689 241.327 278.082ZM261.507 275.178C261.507 275.911 261.302 276.483 260.891 276.894C260.481 277.305 259.945 277.583 259.285 277.73V277.818C259.975 277.921 260.576 278.185 261.089 278.61C261.603 279.021 261.859 279.666 261.859 280.546C261.859 281.045 261.771 281.507 261.595 281.932C261.434 282.357 261.17 282.724 260.803 283.032C260.437 283.34 259.967 283.582 259.395 283.758C258.823 283.919 258.134 284 257.327 284H252.509V272.208H257.305C258.112 272.208 258.831 272.303 259.461 272.494C260.092 272.67 260.591 272.978 260.957 273.418C261.324 273.843 261.507 274.43 261.507 275.178ZM259.879 280.546C259.879 279.871 259.637 279.387 259.153 279.094C258.684 278.801 257.995 278.654 257.085 278.654H254.423V282.438H257.129C258.009 282.438 258.684 282.299 259.153 282.02C259.637 281.727 259.879 281.235 259.879 280.546ZM259.571 275.42C259.571 274.863 259.381 274.459 258.999 274.21C258.633 273.946 258.039 273.814 257.217 273.814H254.423V277.048H256.865C257.76 277.048 258.435 276.916 258.889 276.652C259.344 276.388 259.571 275.977 259.571 275.42ZM268.744 272.01C270.093 272.01 271.098 272.325 271.758 272.956C272.432 273.587 272.77 274.591 272.77 275.97V284H271.384L271.01 282.328H270.922C270.599 282.753 270.269 283.113 269.932 283.406C269.609 283.685 269.228 283.89 268.788 284.022C268.362 284.154 267.834 284.22 267.204 284.22C266.544 284.22 265.95 284.095 265.422 283.846C264.894 283.597 264.476 283.215 264.168 282.702C263.86 282.174 263.706 281.514 263.706 280.722C263.706 279.549 264.138 278.647 265.004 278.016C265.869 277.371 267.204 277.019 269.008 276.96L270.878 276.894V276.19C270.878 275.207 270.68 274.525 270.284 274.144C269.902 273.763 269.352 273.572 268.634 273.572C268.062 273.572 267.512 273.667 266.984 273.858C266.47 274.034 265.979 274.239 265.51 274.474L264.916 273.022C265.414 272.743 265.994 272.509 266.654 272.318C267.314 272.113 268.01 272.01 268.744 272.01ZM269.272 278.302C267.922 278.361 266.984 278.595 266.456 279.006C265.942 279.417 265.686 279.996 265.686 280.744C265.686 281.404 265.869 281.888 266.236 282.196C266.602 282.504 267.079 282.658 267.666 282.658C268.575 282.658 269.338 282.387 269.954 281.844C270.57 281.287 270.878 280.436 270.878 279.292V278.236L269.272 278.302ZM283.973 273.836H280.343V284H278.451V273.836H274.865V272.208H283.973V273.836ZM291.28 277.048C292.248 277.048 293.055 277.173 293.7 277.422C294.345 277.671 294.829 278.045 295.152 278.544C295.489 279.028 295.658 279.644 295.658 280.392C295.658 281.125 295.504 281.763 295.196 282.306C294.888 282.849 294.404 283.267 293.744 283.56C293.099 283.853 292.255 284 291.214 284H286.154V272.208H288.068V277.048H291.28ZM293.744 280.502C293.744 279.783 293.509 279.299 293.04 279.05C292.571 278.786 291.918 278.654 291.082 278.654H288.068V282.438H291.126C291.874 282.438 292.497 282.291 292.996 281.998C293.495 281.705 293.744 281.206 293.744 280.502ZM58.492 296.032C59.6067 296.135 60.5747 296.443 61.396 296.956C62.2173 297.469 62.8553 298.159 63.31 299.024C63.7793 299.889 64.014 300.916 64.014 302.104C64.014 303.292 63.794 304.326 63.354 305.206C62.914 306.071 62.2833 306.761 61.462 307.274C60.6407 307.773 59.6507 308.073 58.492 308.176V313.28H56.622V308.176C55.522 308.073 54.554 307.773 53.718 307.274C52.8967 306.761 52.2513 306.071 51.782 305.206C51.3273 304.326 51.1 303.292 51.1 302.104C51.1 300.901 51.32 299.867 51.76 299.002C52.2 298.122 52.838 297.433 53.674 296.934C54.51 296.421 55.5147 296.12 56.688 296.032V291.28H58.492V296.032ZM56.688 297.638C55.852 297.726 55.17 297.953 54.642 298.32C54.114 298.687 53.7253 299.185 53.476 299.816C53.2267 300.447 53.102 301.209 53.102 302.104C53.102 302.984 53.2267 303.747 53.476 304.392C53.7253 305.023 54.114 305.529 54.642 305.91C55.17 306.277 55.852 306.504 56.688 306.592V297.638ZM58.492 306.592C59.2987 306.489 59.9587 306.255 60.472 305.888C61 305.521 61.3887 305.023 61.638 304.392C61.902 303.747 62.034 302.984 62.034 302.104C62.034 301.224 61.902 300.469 61.638 299.838C61.3887 299.207 61 298.709 60.472 298.342C59.944 297.975 59.284 297.748 58.492 297.66V306.592ZM64.9536 296.208H67.0216L69.3756 302.918C69.5223 303.314 69.6543 303.695 69.7716 304.062C69.889 304.429 69.9916 304.788 70.0796 305.14C70.1676 305.477 70.2336 305.807 70.2776 306.13H70.3436C70.4316 305.763 70.5563 305.287 70.7176 304.7C70.8936 304.099 71.077 303.497 71.2676 302.896L73.4896 296.208H75.5796L70.8056 309.628C70.5416 310.361 70.2263 310.999 69.8596 311.542C69.5076 312.099 69.075 312.525 68.5616 312.818C68.0483 313.126 67.4323 313.28 66.7136 313.28C66.391 313.28 66.0976 313.258 65.8336 313.214C65.5843 313.185 65.3716 313.148 65.1956 313.104V311.564C65.3423 311.593 65.5256 311.623 65.7456 311.652C65.9656 311.681 66.193 311.696 66.4276 311.696C66.853 311.696 67.2196 311.608 67.5276 311.432C67.8356 311.271 68.0996 311.029 68.3196 310.706C68.5396 310.398 68.723 310.031 68.8696 309.606L69.4196 308.044L64.9536 296.208ZM79.2399 296.208V301.114H85.1359V296.208H87.0499V308H85.1359V302.742H79.2399V308H77.3259V296.208H79.2399ZM97.1393 296.208H99.2293L94.5213 301.884L99.6253 308H97.4033L92.4313 302.016V308H90.5173V296.208H92.4313V301.928L97.1393 296.208ZM112.626 312.092H110.778V308H101.582V296.208H103.496V306.372H109.128V296.208H111.042V306.394H112.626V312.092ZM116.534 303.402C116.534 303.534 116.527 303.725 116.512 303.974C116.512 304.209 116.505 304.465 116.49 304.744C116.476 305.008 116.461 305.265 116.446 305.514C116.432 305.749 116.417 305.939 116.402 306.086L122.298 296.208H124.63V308H122.848V301.048C122.848 300.813 122.848 300.505 122.848 300.124C122.863 299.743 122.878 299.369 122.892 299.002C122.907 298.621 122.922 298.335 122.936 298.144L117.106 308H114.73V296.208H116.534V303.402ZM137.838 302.082C137.838 303.065 137.714 303.937 137.464 304.7C137.23 305.448 136.885 306.086 136.43 306.614C135.976 307.142 135.426 307.545 134.78 307.824C134.135 308.088 133.416 308.22 132.624 308.22C131.891 308.22 131.209 308.088 130.578 307.824C129.962 307.545 129.42 307.142 128.95 306.614C128.496 306.086 128.144 305.448 127.894 304.7C127.645 303.937 127.52 303.065 127.52 302.082C127.52 300.777 127.726 299.677 128.136 298.782C128.562 297.873 129.163 297.183 129.94 296.714C130.718 296.23 131.634 295.988 132.69 295.988C133.702 295.988 134.59 296.23 135.352 296.714C136.13 297.183 136.738 297.873 137.178 298.782C137.618 299.677 137.838 300.777 137.838 302.082ZM129.5 302.082C129.5 303.006 129.61 303.813 129.83 304.502C130.05 305.177 130.395 305.697 130.864 306.064C131.334 306.431 131.935 306.614 132.668 306.614C133.402 306.614 134.003 306.431 134.472 306.064C134.942 305.697 135.286 305.177 135.506 304.502C135.741 303.813 135.858 303.006 135.858 302.082C135.858 301.143 135.741 300.344 135.506 299.684C135.286 299.024 134.942 298.518 134.472 298.166C134.003 297.799 133.394 297.616 132.646 297.616C131.546 297.616 130.747 298.012 130.248 298.804C129.75 299.596 129.5 300.689 129.5 302.082ZM142.597 296.208V301.114H148.493V296.208H150.407V308H148.493V302.742H142.597V308H140.683V296.208H142.597ZM158.121 296.01C159.47 296.01 160.475 296.325 161.135 296.956C161.809 297.587 162.147 298.591 162.147 299.97V308H160.761L160.387 306.328H160.299C159.976 306.753 159.646 307.113 159.309 307.406C158.986 307.685 158.605 307.89 158.165 308.022C157.739 308.154 157.211 308.22 156.581 308.22C155.921 308.22 155.327 308.095 154.799 307.846C154.271 307.597 153.853 307.215 153.545 306.702C153.237 306.174 153.083 305.514 153.083 304.722C153.083 303.549 153.515 302.647 154.381 302.016C155.246 301.371 156.581 301.019 158.385 300.96L160.255 300.894V300.19C160.255 299.207 160.057 298.525 159.661 298.144C159.279 297.763 158.729 297.572 158.011 297.572C157.439 297.572 156.889 297.667 156.361 297.858C155.847 298.034 155.356 298.239 154.887 298.474L154.293 297.022C154.791 296.743 155.371 296.509 156.031 296.318C156.691 296.113 157.387 296.01 158.121 296.01ZM158.649 302.302C157.299 302.361 156.361 302.595 155.833 303.006C155.319 303.417 155.063 303.996 155.063 304.744C155.063 305.404 155.246 305.888 155.613 306.196C155.979 306.504 156.456 306.658 157.043 306.658C157.952 306.658 158.715 306.387 159.331 305.844C159.947 305.287 160.255 304.436 160.255 303.292V302.236L158.649 302.302ZM174.142 308H172.206V297.814H168.972C168.84 299.677 168.664 301.268 168.444 302.588C168.239 303.893 167.975 304.957 167.652 305.778C167.344 306.599 166.97 307.201 166.53 307.582C166.09 307.963 165.57 308.154 164.968 308.154C164.778 308.154 164.587 308.139 164.396 308.11C164.22 308.095 164.074 308.059 163.956 308V306.548C164.044 306.577 164.14 306.599 164.242 306.614C164.345 306.629 164.448 306.636 164.55 306.636C164.844 306.636 165.108 306.504 165.342 306.24C165.592 305.976 165.812 305.573 166.002 305.03C166.208 304.487 166.391 303.805 166.552 302.984C166.714 302.148 166.853 301.165 166.97 300.036C167.102 298.907 167.22 297.631 167.322 296.208H174.142V308ZM179.903 305.69C179.786 306.203 179.624 306.761 179.419 307.362C179.228 307.963 179.016 308.557 178.781 309.144C178.561 309.745 178.341 310.31 178.121 310.838H176.713C176.845 310.281 176.977 309.679 177.109 309.034C177.241 308.403 177.366 307.78 177.483 307.164C177.6 306.533 177.688 305.961 177.747 305.448H179.749L179.903 305.69ZM193.038 308.22C192.041 308.22 191.161 308.007 190.398 307.582C189.635 307.157 189.034 306.497 188.594 305.602C188.169 304.707 187.956 303.563 187.956 302.17C187.956 300.718 188.183 299.537 188.638 298.628C189.093 297.719 189.709 297.051 190.486 296.626C191.278 296.201 192.173 295.988 193.17 295.988C193.742 295.988 194.292 296.054 194.82 296.186C195.363 296.303 195.803 296.45 196.14 296.626L195.546 298.232C195.209 298.1 194.813 297.975 194.358 297.858C193.918 297.741 193.507 297.682 193.126 297.682C192.407 297.682 191.813 297.851 191.344 298.188C190.875 298.525 190.523 299.024 190.288 299.684C190.053 300.344 189.936 301.165 189.936 302.148C189.936 303.087 190.053 303.886 190.288 304.546C190.523 305.206 190.867 305.705 191.322 306.042C191.791 306.379 192.363 306.548 193.038 306.548C193.639 306.548 194.175 306.482 194.644 306.35C195.113 306.218 195.546 306.057 195.942 305.866V307.582C195.561 307.787 195.143 307.941 194.688 308.044C194.233 308.161 193.683 308.22 193.038 308.22ZM208.264 302.082C208.264 303.065 208.14 303.937 207.89 304.7C207.656 305.448 207.311 306.086 206.856 306.614C206.402 307.142 205.852 307.545 205.206 307.824C204.561 308.088 203.842 308.22 203.05 308.22C202.317 308.22 201.635 308.088 201.004 307.824C200.388 307.545 199.846 307.142 199.376 306.614C198.922 306.086 198.57 305.448 198.32 304.7C198.071 303.937 197.946 303.065 197.946 302.082C197.946 300.777 198.152 299.677 198.562 298.782C198.988 297.873 199.589 297.183 200.366 296.714C201.144 296.23 202.06 295.988 203.116 295.988C204.128 295.988 205.016 296.23 205.778 296.714C206.556 297.183 207.164 297.873 207.604 298.782C208.044 299.677 208.264 300.777 208.264 302.082ZM199.926 302.082C199.926 303.006 200.036 303.813 200.256 304.502C200.476 305.177 200.821 305.697 201.29 306.064C201.76 306.431 202.361 306.614 203.094 306.614C203.828 306.614 204.429 306.431 204.898 306.064C205.368 305.697 205.712 305.177 205.932 304.502C206.167 303.813 206.284 303.006 206.284 302.082C206.284 301.143 206.167 300.344 205.932 299.684C205.712 299.024 205.368 298.518 204.898 298.166C204.429 297.799 203.82 297.616 203.072 297.616C201.972 297.616 201.173 298.012 200.674 298.804C200.176 299.596 199.926 300.689 199.926 302.082ZM214.123 295.988C214.959 295.988 215.685 296.113 216.301 296.362C216.932 296.597 217.423 296.949 217.775 297.418C218.127 297.873 218.303 298.43 218.303 299.09C218.303 299.809 218.112 300.381 217.731 300.806C217.364 301.217 216.858 301.517 216.213 301.708V301.796C216.653 301.928 217.056 302.111 217.423 302.346C217.804 302.581 218.105 302.889 218.325 303.27C218.56 303.651 218.677 304.143 218.677 304.744C218.677 305.389 218.508 305.976 218.171 306.504C217.834 307.032 217.306 307.45 216.587 307.758C215.883 308.066 214.981 308.22 213.881 308.22C213.353 308.22 212.847 308.191 212.363 308.132C211.894 308.073 211.461 307.985 211.065 307.868C210.684 307.751 210.346 307.611 210.053 307.45V305.712C210.522 305.947 211.08 306.159 211.725 306.35C212.37 306.541 213.074 306.636 213.837 306.636C214.394 306.636 214.893 306.57 215.333 306.438C215.773 306.306 216.125 306.101 216.389 305.822C216.653 305.529 216.785 305.133 216.785 304.634C216.785 304.179 216.668 303.813 216.433 303.534C216.198 303.241 215.846 303.021 215.377 302.874C214.922 302.727 214.336 302.654 213.617 302.654H212.165V301.07H213.353C214.306 301.07 215.069 300.938 215.641 300.674C216.213 300.395 216.499 299.926 216.499 299.266C216.499 298.709 216.279 298.291 215.839 298.012C215.414 297.733 214.798 297.594 213.991 297.594C213.39 297.594 212.847 297.66 212.363 297.792C211.894 297.909 211.388 298.093 210.845 298.342L210.163 296.802C210.764 296.523 211.395 296.318 212.055 296.186C212.715 296.054 213.404 295.988 214.123 295.988ZM229.718 296.208V306.372H231.324V312.092H229.498V308H221.798V312.092H219.972V306.372H220.874C221.504 305.433 222.025 304.414 222.436 303.314C222.846 302.199 223.154 301.041 223.36 299.838C223.58 298.621 223.697 297.411 223.712 296.208H229.718ZM225.406 297.726C225.347 298.723 225.2 299.757 224.966 300.828C224.746 301.884 224.452 302.896 224.086 303.864C223.734 304.832 223.323 305.668 222.854 306.372H227.848V297.726H225.406ZM237.699 296.01C239.048 296.01 240.053 296.325 240.713 296.956C241.388 297.587 241.725 298.591 241.725 299.97V308H240.339L239.965 306.328H239.877C239.554 306.753 239.224 307.113 238.887 307.406C238.564 307.685 238.183 307.89 237.743 308.022C237.318 308.154 236.79 308.22 236.159 308.22C235.499 308.22 234.905 308.095 234.377 307.846C233.849 307.597 233.431 307.215 233.123 306.702C232.815 306.174 232.661 305.514 232.661 304.722C232.661 303.549 233.094 302.647 233.959 302.016C234.824 301.371 236.159 301.019 237.963 300.96L239.833 300.894V300.19C239.833 299.207 239.635 298.525 239.239 298.144C238.858 297.763 238.308 297.572 237.589 297.572C237.017 297.572 236.467 297.667 235.939 297.858C235.426 298.034 234.934 298.239 234.465 298.474L233.871 297.022C234.37 296.743 234.949 296.509 235.609 296.318C236.269 296.113 236.966 296.01 237.699 296.01ZM238.227 302.302C236.878 302.361 235.939 302.595 235.411 303.006C234.898 303.417 234.641 303.996 234.641 304.744C234.641 305.404 234.824 305.888 235.191 306.196C235.558 306.504 236.034 306.658 236.621 306.658C237.53 306.658 238.293 306.387 238.909 305.844C239.525 305.287 239.833 304.436 239.833 303.292V302.236L238.227 302.302ZM259.616 302.082C259.616 303.387 259.418 304.502 259.022 305.426C258.626 306.335 258.054 307.032 257.306 307.516C256.573 307.985 255.7 308.22 254.688 308.22C253.764 308.22 252.943 308.015 252.224 307.604C251.52 307.179 250.956 306.563 250.53 305.756C250.12 304.935 249.878 303.93 249.804 302.742H247.054V308H245.14V296.208H247.054V301.114H249.826C249.929 299.999 250.186 299.068 250.596 298.32C251.022 297.557 251.586 296.978 252.29 296.582C252.994 296.186 253.808 295.988 254.732 295.988C255.7 295.988 256.551 296.23 257.284 296.714C258.018 297.183 258.59 297.873 259 298.782C259.411 299.677 259.616 300.777 259.616 302.082ZM251.762 302.082C251.762 303.065 251.865 303.893 252.07 304.568C252.276 305.243 252.598 305.756 253.038 306.108C253.478 306.445 254.036 306.614 254.71 306.614C255.4 306.614 255.957 306.445 256.382 306.108C256.822 305.756 257.138 305.243 257.328 304.568C257.534 303.893 257.636 303.065 257.636 302.082C257.636 301.099 257.534 300.278 257.328 299.618C257.123 298.958 256.808 298.459 256.382 298.122C255.957 297.785 255.4 297.616 254.71 297.616C254.036 297.616 253.478 297.785 253.038 298.122C252.598 298.459 252.276 298.958 252.07 299.618C251.865 300.278 251.762 301.099 251.762 302.082ZM277.636 296.208V306.394H279.242V312.07H277.35V308H262.478V296.208H264.392V306.372H269.1V296.208H271.014V306.372H275.722V296.208H277.636ZM283.146 303.402C283.146 303.534 283.138 303.725 283.124 303.974C283.124 304.209 283.116 304.465 283.102 304.744C283.087 305.008 283.072 305.265 283.058 305.514C283.043 305.749 283.028 305.939 283.014 306.086L288.91 296.208H291.242V308H289.46V301.048C289.46 300.813 289.46 300.505 289.46 300.124C289.474 299.743 289.489 299.369 289.504 299.002C289.518 298.621 289.533 298.335 289.548 298.144L283.718 308H281.342V296.208H283.146V303.402ZM303.856 291.324C303.797 292.057 303.621 292.673 303.328 293.172C303.049 293.671 302.624 294.045 302.052 294.294C301.494 294.543 300.768 294.668 299.874 294.668C298.95 294.668 298.209 294.543 297.652 294.294C297.109 294.045 296.706 293.678 296.442 293.194C296.192 292.695 296.038 292.072 295.98 291.324H297.762C297.835 292.116 298.033 292.651 298.356 292.93C298.678 293.194 299.192 293.326 299.896 293.326C300.541 293.326 301.047 293.187 301.414 292.908C301.78 292.615 301.993 292.087 302.052 291.324H303.856ZM296.552 303.402C296.552 303.534 296.544 303.725 296.53 303.974C296.53 304.209 296.522 304.465 296.508 304.744C296.493 305.008 296.478 305.265 296.464 305.514C296.449 305.749 296.434 305.939 296.42 306.086L302.316 296.208H304.648V308H302.866V301.048C302.866 300.813 302.866 300.505 302.866 300.124C302.88 299.743 302.895 299.369 302.91 299.002C302.924 298.621 302.939 298.335 302.954 298.144L297.124 308H294.748V296.208H296.552V303.402ZM50.022 320.208H52.09L54.444 326.918C54.5907 327.314 54.7227 327.695 54.84 328.062C54.9573 328.429 55.06 328.788 55.148 329.14C55.236 329.477 55.302 329.807 55.346 330.13H55.412C55.5 329.763 55.6247 329.287 55.786 328.7C55.962 328.099 56.1453 327.497 56.336 326.896L58.558 320.208H60.648L55.874 333.628C55.61 334.361 55.2947 334.999 54.928 335.542C54.576 336.099 54.1433 336.525 53.63 336.818C53.1167 337.126 52.5007 337.28 51.782 337.28C51.4593 337.28 51.166 337.258 50.902 337.214C50.6527 337.185 50.44 337.148 50.264 337.104V335.564C50.4107 335.593 50.594 335.623 50.814 335.652C51.034 335.681 51.2613 335.696 51.496 335.696C51.9213 335.696 52.288 335.608 52.596 335.432C52.904 335.271 53.168 335.029 53.388 334.706C53.608 334.398 53.7913 334.031 53.938 333.606L54.488 332.044L50.022 320.208ZM70.368 320.208V330.372H71.974V336.092H70.148V332H62.448V336.092H60.622V330.372H61.524C62.1547 329.433 62.6754 328.414 63.086 327.314C63.4967 326.199 63.8047 325.041 64.01 323.838C64.23 322.621 64.3474 321.411 64.362 320.208H70.368ZM66.056 321.726C65.9974 322.723 65.8507 323.757 65.616 324.828C65.396 325.884 65.1027 326.896 64.736 327.864C64.384 328.832 63.9734 329.668 63.504 330.372H68.498V321.726H66.056ZM83.8052 326.082C83.8052 327.065 83.6806 327.937 83.4312 328.7C83.1966 329.448 82.8519 330.086 82.3972 330.614C81.9426 331.142 81.3926 331.545 80.7472 331.824C80.1019 332.088 79.3832 332.22 78.5912 332.22C77.8579 332.22 77.1759 332.088 76.5452 331.824C75.9292 331.545 75.3866 331.142 74.9172 330.614C74.4626 330.086 74.1106 329.448 73.8612 328.7C73.6119 327.937 73.4872 327.065 73.4872 326.082C73.4872 324.777 73.6926 323.677 74.1032 322.782C74.5286 321.873 75.1299 321.183 75.9072 320.714C76.6846 320.23 77.6012 319.988 78.6572 319.988C79.6692 319.988 80.5566 320.23 81.3192 320.714C82.0966 321.183 82.7052 321.873 83.1452 322.782C83.5852 323.677 83.8052 324.777 83.8052 326.082ZM75.4672 326.082C75.4672 327.006 75.5772 327.813 75.7972 328.502C76.0172 329.177 76.3619 329.697 76.8312 330.064C77.3006 330.431 77.9019 330.614 78.6352 330.614C79.3686 330.614 79.9699 330.431 80.4392 330.064C80.9086 329.697 81.2532 329.177 81.4732 328.502C81.7079 327.813 81.8252 327.006 81.8252 326.082C81.8252 325.143 81.7079 324.344 81.4732 323.684C81.2532 323.024 80.9086 322.518 80.4392 322.166C79.9699 321.799 79.3612 321.616 78.6132 321.616C77.5132 321.616 76.7139 322.012 76.2152 322.804C75.7166 323.596 75.4672 324.689 75.4672 326.082ZM86.0781 324.916C86.0781 323.2 86.2394 321.741 86.5621 320.538C86.8994 319.321 87.4128 318.353 88.1021 317.634C88.8061 316.901 89.7081 316.409 90.8081 316.16C91.6881 315.955 92.5534 315.771 93.4041 315.61C94.2548 315.449 95.0541 315.302 95.8021 315.17L96.1321 316.864C95.7654 316.923 95.3621 316.996 94.9221 317.084C94.4821 317.157 94.0348 317.238 93.5801 317.326C93.1401 317.399 92.7074 317.48 92.2821 317.568C91.8714 317.641 91.5048 317.715 91.1821 317.788C90.7274 317.891 90.3168 318.067 89.9501 318.316C89.5981 318.551 89.2901 318.873 89.0261 319.284C88.7768 319.695 88.5714 320.201 88.4101 320.802C88.2634 321.403 88.1754 322.115 88.1461 322.936H88.2781C88.4688 322.657 88.7328 322.371 89.0701 322.078C89.4074 321.785 89.8108 321.535 90.2801 321.33C90.7494 321.125 91.2848 321.022 91.8861 321.022C92.8394 321.022 93.6388 321.249 94.2841 321.704C94.9294 322.144 95.4134 322.76 95.7361 323.552C96.0734 324.344 96.2421 325.268 96.2421 326.324C96.2421 327.629 96.0221 328.722 95.5821 329.602C95.1568 330.482 94.5628 331.142 93.8001 331.582C93.0374 332.007 92.1501 332.22 91.1381 332.22C90.3754 332.22 89.6788 332.066 89.0481 331.758C88.4321 331.435 87.8968 330.966 87.4421 330.35C87.0021 329.734 86.6648 328.971 86.4301 328.062C86.1954 327.153 86.0781 326.104 86.0781 324.916ZM91.2921 330.614C91.8788 330.614 92.3921 330.482 92.8321 330.218C93.2721 329.954 93.6094 329.521 93.8441 328.92C94.0934 328.319 94.2181 327.519 94.2181 326.522C94.2181 325.319 94.0128 324.373 93.6021 323.684C93.1914 322.98 92.5168 322.628 91.5781 322.628C90.9768 322.628 90.4341 322.775 89.9501 323.068C89.4661 323.347 89.0554 323.669 88.7181 324.036C88.3954 324.403 88.1681 324.711 88.0361 324.96C88.0361 325.679 88.0801 326.375 88.1681 327.05C88.2708 327.725 88.4394 328.333 88.6741 328.876C88.9234 329.404 89.2534 329.829 89.6641 330.152C90.0894 330.46 90.6321 330.614 91.2921 330.614ZM103.556 332.22C102.558 332.22 101.678 332.007 100.916 331.582C100.153 331.157 99.5516 330.497 99.1116 329.602C98.6862 328.707 98.4736 327.563 98.4736 326.17C98.4736 324.718 98.7009 323.537 99.1556 322.628C99.6102 321.719 100.226 321.051 101.004 320.626C101.796 320.201 102.69 319.988 103.688 319.988C104.26 319.988 104.81 320.054 105.338 320.186C105.88 320.303 106.32 320.45 106.658 320.626L106.064 322.232C105.726 322.1 105.33 321.975 104.876 321.858C104.436 321.741 104.025 321.682 103.644 321.682C102.925 321.682 102.331 321.851 101.862 322.188C101.392 322.525 101.04 323.024 100.806 323.684C100.571 324.344 100.454 325.165 100.454 326.148C100.454 327.087 100.571 327.886 100.806 328.546C101.04 329.206 101.385 329.705 101.84 330.042C102.309 330.379 102.881 330.548 103.556 330.548C104.157 330.548 104.692 330.482 105.162 330.35C105.631 330.218 106.064 330.057 106.46 329.866V331.582C106.078 331.787 105.66 331.941 105.206 332.044C104.751 332.161 104.201 332.22 103.556 332.22ZM116.868 321.836H113.238V332H111.346V321.836H107.76V320.208H116.868V321.836ZM128.047 323.178C128.047 323.911 127.841 324.483 127.431 324.894C127.02 325.305 126.485 325.583 125.825 325.73V325.818C126.514 325.921 127.115 326.185 127.629 326.61C128.142 327.021 128.399 327.666 128.399 328.546C128.399 329.045 128.311 329.507 128.135 329.932C127.973 330.357 127.709 330.724 127.343 331.032C126.976 331.34 126.507 331.582 125.935 331.758C125.363 331.919 124.673 332 123.867 332H119.049V320.208H123.845C124.651 320.208 125.37 320.303 126.001 320.494C126.631 320.67 127.13 320.978 127.497 321.418C127.863 321.843 128.047 322.43 128.047 323.178ZM126.419 328.546C126.419 327.871 126.177 327.387 125.693 327.094C125.223 326.801 124.534 326.654 123.625 326.654H120.963V330.438H123.669C124.549 330.438 125.223 330.299 125.693 330.02C126.177 329.727 126.419 329.235 126.419 328.546ZM126.111 323.42C126.111 322.863 125.92 322.459 125.539 322.21C125.172 321.946 124.578 321.814 123.757 321.814H120.963V325.048H123.405C124.299 325.048 124.974 324.916 125.429 324.652C125.883 324.388 126.111 323.977 126.111 323.42ZM140.739 326.082C140.739 327.065 140.614 327.937 140.365 328.7C140.13 329.448 139.785 330.086 139.331 330.614C138.876 331.142 138.326 331.545 137.681 331.824C137.035 332.088 136.317 332.22 135.525 332.22C134.791 332.22 134.109 332.088 133.479 331.824C132.863 331.545 132.32 331.142 131.851 330.614C131.396 330.086 131.044 329.448 130.795 328.7C130.545 327.937 130.421 327.065 130.421 326.082C130.421 324.777 130.626 323.677 131.037 322.782C131.462 321.873 132.063 321.183 132.841 320.714C133.618 320.23 134.535 319.988 135.591 319.988C136.603 319.988 137.49 320.23 138.253 320.714C139.03 321.183 139.639 321.873 140.079 322.782C140.519 323.677 140.739 324.777 140.739 326.082ZM132.401 326.082C132.401 327.006 132.511 327.813 132.731 328.502C132.951 329.177 133.295 329.697 133.765 330.064C134.234 330.431 134.835 330.614 135.569 330.614C136.302 330.614 136.903 330.431 137.373 330.064C137.842 329.697 138.187 329.177 138.407 328.502C138.641 327.813 138.759 327.006 138.759 326.082C138.759 325.143 138.641 324.344 138.407 323.684C138.187 323.024 137.842 322.518 137.373 322.166C136.903 321.799 136.295 321.616 135.547 321.616C134.447 321.616 133.647 322.012 133.149 322.804C132.65 323.596 132.401 324.689 132.401 326.082ZM158.393 320.208V332H156.479V321.858H150.869V332H148.955V320.208H158.393ZM167.234 319.988C168.598 319.988 169.691 320.494 170.512 321.506C171.348 322.518 171.766 324.043 171.766 326.082C171.766 327.417 171.576 328.546 171.194 329.47C170.813 330.379 170.278 331.069 169.588 331.538C168.914 331.993 168.122 332.22 167.212 332.22C166.64 332.22 166.134 332.139 165.694 331.978C165.269 331.817 164.902 331.611 164.594 331.362C164.286 331.098 164.022 330.812 163.802 330.504H163.67C163.7 330.753 163.729 331.069 163.758 331.45C163.788 331.831 163.802 332.161 163.802 332.44V337.28H161.888V320.208H163.45L163.714 321.814H163.802C164.022 321.477 164.286 321.169 164.594 320.89C164.902 320.611 165.269 320.391 165.694 320.23C166.134 320.069 166.648 319.988 167.234 319.988ZM166.86 321.616C166.127 321.616 165.533 321.77 165.078 322.078C164.638 322.371 164.316 322.819 164.11 323.42C163.905 324.021 163.802 324.784 163.802 325.708V326.082C163.802 327.05 163.89 327.871 164.066 328.546C164.257 329.221 164.58 329.734 165.034 330.086C165.489 330.438 166.112 330.614 166.904 330.614C167.564 330.614 168.107 330.416 168.532 330.02C168.958 329.624 169.273 329.089 169.478 328.414C169.684 327.725 169.786 326.94 169.786 326.06C169.786 324.711 169.544 323.633 169.06 322.826C168.591 322.019 167.858 321.616 166.86 321.616ZM176.433 327.402C176.433 327.534 176.425 327.725 176.411 327.974C176.411 328.209 176.403 328.465 176.389 328.744C176.374 329.008 176.359 329.265 176.345 329.514C176.33 329.749 176.315 329.939 176.301 330.086L182.197 320.208H184.529V332H182.747V325.048C182.747 324.813 182.747 324.505 182.747 324.124C182.761 323.743 182.776 323.369 182.791 323.002C182.805 322.621 182.82 322.335 182.835 322.144L177.005 332H174.629V320.208H176.433V327.402ZM197.872 332.22C196.875 332.22 195.995 332.007 195.232 331.582C194.469 331.157 193.868 330.497 193.428 329.602C193.003 328.707 192.79 327.563 192.79 326.17C192.79 324.718 193.017 323.537 193.472 322.628C193.927 321.719 194.543 321.051 195.32 320.626C196.112 320.201 197.007 319.988 198.004 319.988C198.576 319.988 199.126 320.054 199.654 320.186C200.197 320.303 200.637 320.45 200.974 320.626L200.38 322.232C200.043 322.1 199.647 321.975 199.192 321.858C198.752 321.741 198.341 321.682 197.96 321.682C197.241 321.682 196.647 321.851 196.178 322.188C195.709 322.525 195.357 323.024 195.122 323.684C194.887 324.344 194.77 325.165 194.77 326.148C194.77 327.087 194.887 327.886 195.122 328.546C195.357 329.206 195.701 329.705 196.156 330.042C196.625 330.379 197.197 330.548 197.872 330.548C198.473 330.548 199.009 330.482 199.478 330.35C199.947 330.218 200.38 330.057 200.776 329.866V331.582C200.395 331.787 199.977 331.941 199.522 332.044C199.067 332.161 198.517 332.22 197.872 332.22ZM213.098 326.082C213.098 327.065 212.974 327.937 212.724 328.7C212.49 329.448 212.145 330.086 211.69 330.614C211.236 331.142 210.686 331.545 210.04 331.824C209.395 332.088 208.676 332.22 207.884 332.22C207.151 332.22 206.469 332.088 205.838 331.824C205.222 331.545 204.68 331.142 204.21 330.614C203.756 330.086 203.404 329.448 203.154 328.7C202.905 327.937 202.78 327.065 202.78 326.082C202.78 324.777 202.986 323.677 203.396 322.782C203.822 321.873 204.423 321.183 205.2 320.714C205.978 320.23 206.894 319.988 207.95 319.988C208.962 319.988 209.85 320.23 210.612 320.714C211.39 321.183 211.998 321.873 212.438 322.782C212.878 323.677 213.098 324.777 213.098 326.082ZM204.76 326.082C204.76 327.006 204.87 327.813 205.09 328.502C205.31 329.177 205.655 329.697 206.124 330.064C206.594 330.431 207.195 330.614 207.928 330.614C208.662 330.614 209.263 330.431 209.732 330.064C210.202 329.697 210.546 329.177 210.766 328.502C211.001 327.813 211.118 327.006 211.118 326.082C211.118 325.143 211.001 324.344 210.766 323.684C210.546 323.024 210.202 322.518 209.732 322.166C209.263 321.799 208.654 321.616 207.906 321.616C206.806 321.616 206.007 322.012 205.508 322.804C205.01 323.596 204.76 324.689 204.76 326.082ZM224.941 323.178C224.941 323.911 224.736 324.483 224.325 324.894C223.914 325.305 223.379 325.583 222.719 325.73V325.818C223.408 325.921 224.01 326.185 224.523 326.61C225.036 327.021 225.293 327.666 225.293 328.546C225.293 329.045 225.205 329.507 225.029 329.932C224.868 330.357 224.604 330.724 224.237 331.032C223.87 331.34 223.401 331.582 222.829 331.758C222.257 331.919 221.568 332 220.761 332H215.943V320.208H220.739C221.546 320.208 222.264 320.303 222.895 320.494C223.526 320.67 224.024 320.978 224.391 321.418C224.758 321.843 224.941 322.43 224.941 323.178ZM223.313 328.546C223.313 327.871 223.071 327.387 222.587 327.094C222.118 326.801 221.428 326.654 220.519 326.654H217.857V330.438H220.563C221.443 330.438 222.118 330.299 222.587 330.02C223.071 329.727 223.313 329.235 223.313 328.546ZM223.005 323.42C223.005 322.863 222.814 322.459 222.433 322.21C222.066 321.946 221.472 321.814 220.651 321.814H217.857V325.048H220.299C221.194 325.048 221.868 324.916 222.323 324.652C222.778 324.388 223.005 323.977 223.005 323.42ZM232.243 319.988C233.197 319.988 234.018 320.208 234.707 320.648C235.397 321.088 235.925 321.711 236.291 322.518C236.673 323.31 236.863 324.241 236.863 325.312V326.478H229.295C229.325 327.813 229.64 328.832 230.241 329.536C230.843 330.225 231.686 330.57 232.771 330.57C233.475 330.57 234.099 330.504 234.641 330.372C235.199 330.225 235.771 330.02 236.357 329.756V331.45C235.785 331.714 235.221 331.905 234.663 332.022C234.121 332.154 233.461 332.22 232.683 332.22C231.627 332.22 230.696 331.993 229.889 331.538C229.083 331.083 228.452 330.409 227.997 329.514C227.543 328.605 227.315 327.497 227.315 326.192C227.315 324.901 227.521 323.794 227.931 322.87C228.342 321.946 228.914 321.235 229.647 320.736C230.395 320.237 231.261 319.988 232.243 319.988ZM232.243 321.572C231.393 321.572 230.718 321.873 230.219 322.474C229.721 323.061 229.427 323.882 229.339 324.938H234.883C234.883 324.263 234.788 323.677 234.597 323.178C234.407 322.679 234.113 322.291 233.717 322.012C233.336 321.719 232.845 321.572 232.243 321.572ZM244.986 319.988C246.35 319.988 247.443 320.494 248.264 321.506C249.1 322.518 249.518 324.043 249.518 326.082C249.518 327.417 249.328 328.546 248.946 329.47C248.565 330.379 248.03 331.069 247.34 331.538C246.666 331.993 245.874 332.22 244.964 332.22C244.392 332.22 243.886 332.139 243.446 331.978C243.021 331.817 242.654 331.611 242.346 331.362C242.038 331.098 241.774 330.812 241.554 330.504H241.422C241.452 330.753 241.481 331.069 241.51 331.45C241.54 331.831 241.554 332.161 241.554 332.44V337.28H239.64V320.208H241.202L241.466 321.814H241.554C241.774 321.477 242.038 321.169 242.346 320.89C242.654 320.611 243.021 320.391 243.446 320.23C243.886 320.069 244.4 319.988 244.986 319.988ZM244.612 321.616C243.879 321.616 243.285 321.77 242.83 322.078C242.39 322.371 242.068 322.819 241.862 323.42C241.657 324.021 241.554 324.784 241.554 325.708V326.082C241.554 327.05 241.642 327.871 241.818 328.546C242.009 329.221 242.332 329.734 242.786 330.086C243.241 330.438 243.864 330.614 244.656 330.614C245.316 330.614 245.859 330.416 246.284 330.02C246.71 329.624 247.025 329.089 247.23 328.414C247.436 327.725 247.538 326.94 247.538 326.06C247.538 324.711 247.296 323.633 246.812 322.826C246.343 322.019 245.61 321.616 244.612 321.616ZM267.561 320.208V332H252.381V320.208H254.295V330.372H259.003V320.208H260.917V330.372H265.625V320.208H267.561ZM275.363 319.988C276.316 319.988 277.137 320.208 277.827 320.648C278.516 321.088 279.044 321.711 279.411 322.518C279.792 323.31 279.983 324.241 279.983 325.312V326.478H272.415C272.444 327.813 272.759 328.832 273.361 329.536C273.962 330.225 274.805 330.57 275.891 330.57C276.595 330.57 277.218 330.504 277.761 330.372C278.318 330.225 278.89 330.02 279.477 329.756V331.45C278.905 331.714 278.34 331.905 277.783 332.022C277.24 332.154 276.58 332.22 275.803 332.22C274.747 332.22 273.815 331.993 273.009 331.538C272.202 331.083 271.571 330.409 271.117 329.514C270.662 328.605 270.435 327.497 270.435 326.192C270.435 324.901 270.64 323.794 271.051 322.87C271.461 321.946 272.033 321.235 272.767 320.736C273.515 320.237 274.38 319.988 275.363 319.988ZM275.363 321.572C274.512 321.572 273.837 321.873 273.339 322.474C272.84 323.061 272.547 323.882 272.459 324.938H278.003C278.003 324.263 277.907 323.677 277.717 323.178C277.526 322.679 277.233 322.291 276.837 322.012C276.455 321.719 275.964 321.572 275.363 321.572ZM284.673 320.208V325.114H290.569V320.208H292.483V332H290.569V326.742H284.673V332H282.759V320.208H284.673ZM297.755 327.402C297.755 327.534 297.748 327.725 297.733 327.974C297.733 328.209 297.726 328.465 297.711 328.744C297.696 329.008 297.682 329.265 297.667 329.514C297.652 329.749 297.638 329.939 297.623 330.086L303.519 320.208H305.851V332H304.069V325.048C304.069 324.813 304.069 324.505 304.069 324.124C304.084 323.743 304.098 323.369 304.113 323.002C304.128 322.621 304.142 322.335 304.157 322.144L298.327 332H295.951V320.208H297.755V327.402ZM311.161 327.402C311.161 327.534 311.154 327.725 311.139 327.974C311.139 328.209 311.132 328.465 311.117 328.744C311.102 329.008 311.088 329.265 311.073 329.514C311.058 329.749 311.044 329.939 311.029 330.086L316.925 320.208H319.257V332H317.475V325.048C317.475 324.813 317.475 324.505 317.475 324.124C317.49 323.743 317.504 323.369 317.519 323.002C317.534 322.621 317.548 322.335 317.563 322.144L311.733 332H309.357V320.208H311.161V327.402ZM57.084 343.988C58.448 343.988 59.5407 344.494 60.362 345.506C61.198 346.518 61.616 348.043 61.616 350.082C61.616 351.417 61.4253 352.546 61.044 353.47C60.6627 354.379 60.1273 355.069 59.438 355.538C58.7633 355.993 57.9713 356.22 57.062 356.22C56.49 356.22 55.984 356.139 55.544 355.978C55.1187 355.817 54.752 355.611 54.444 355.362C54.136 355.098 53.872 354.812 53.652 354.504H53.52C53.5493 354.753 53.5787 355.069 53.608 355.45C53.6373 355.831 53.652 356.161 53.652 356.44V361.28H51.738V344.208H53.3L53.564 345.814H53.652C53.872 345.477 54.136 345.169 54.444 344.89C54.752 344.611 55.1187 344.391 55.544 344.23C55.984 344.069 56.4973 343.988 57.084 343.988ZM56.71 345.616C55.9767 345.616 55.3827 345.77 54.928 346.078C54.488 346.371 54.1653 346.819 53.96 347.42C53.7547 348.021 53.652 348.784 53.652 349.708V350.082C53.652 351.05 53.74 351.871 53.916 352.546C54.1067 353.221 54.4293 353.734 54.884 354.086C55.3387 354.438 55.962 354.614 56.754 354.614C57.414 354.614 57.9567 354.416 58.382 354.02C58.8073 353.624 59.1227 353.089 59.328 352.414C59.5333 351.725 59.636 350.94 59.636 350.06C59.636 348.711 59.394 347.633 58.91 346.826C58.4407 346.019 57.7073 345.616 56.71 345.616ZM68.7242 344.01C70.0736 344.01 71.0782 344.325 71.7382 344.956C72.4129 345.587 72.7502 346.591 72.7502 347.97V356H71.3642L70.9902 354.328H70.9022C70.5796 354.753 70.2496 355.113 69.9122 355.406C69.5896 355.685 69.2082 355.89 68.7682 356.022C68.3429 356.154 67.8149 356.22 67.1842 356.22C66.5242 356.22 65.9302 356.095 65.4022 355.846C64.8742 355.597 64.4562 355.215 64.1482 354.702C63.8402 354.174 63.6862 353.514 63.6862 352.722C63.6862 351.549 64.1189 350.647 64.9842 350.016C65.8496 349.371 67.1842 349.019 68.9882 348.96L70.8582 348.894V348.19C70.8582 347.207 70.6602 346.525 70.2642 346.144C69.8829 345.763 69.3329 345.572 68.6142 345.572C68.0422 345.572 67.4922 345.667 66.9642 345.858C66.4509 346.034 65.9596 346.239 65.4902 346.474L64.8962 345.022C65.3949 344.743 65.9742 344.509 66.6342 344.318C67.2942 344.113 67.9909 344.01 68.7242 344.01ZM69.2522 350.302C67.9029 350.361 66.9642 350.595 66.4362 351.006C65.9229 351.417 65.6662 351.996 65.6662 352.744C65.6662 353.404 65.8496 353.888 66.2162 354.196C66.5829 354.504 67.0596 354.658 67.6462 354.658C68.5556 354.658 69.3182 354.387 69.9342 353.844C70.5502 353.287 70.8582 352.436 70.8582 351.292V350.236L69.2522 350.302ZM79.1797 343.988C80.0157 343.988 80.7417 344.113 81.3577 344.362C81.9884 344.597 82.4797 344.949 82.8317 345.418C83.1837 345.873 83.3597 346.43 83.3597 347.09C83.3597 347.809 83.1691 348.381 82.7877 348.806C82.4211 349.217 81.9151 349.517 81.2697 349.708V349.796C81.7097 349.928 82.1131 350.111 82.4797 350.346C82.8611 350.581 83.1617 350.889 83.3817 351.27C83.6164 351.651 83.7337 352.143 83.7337 352.744C83.7337 353.389 83.5651 353.976 83.2277 354.504C82.8904 355.032 82.3624 355.45 81.6437 355.758C80.9397 356.066 80.0377 356.22 78.9377 356.22C78.4097 356.22 77.9037 356.191 77.4197 356.132C76.9504 356.073 76.5177 355.985 76.1217 355.868C75.7404 355.751 75.4031 355.611 75.1097 355.45V353.712C75.5791 353.947 76.1364 354.159 76.7817 354.35C77.4271 354.541 78.1311 354.636 78.8937 354.636C79.4511 354.636 79.9497 354.57 80.3897 354.438C80.8297 354.306 81.1817 354.101 81.4457 353.822C81.7097 353.529 81.8417 353.133 81.8417 352.634C81.8417 352.179 81.7244 351.813 81.4897 351.534C81.2551 351.241 80.9031 351.021 80.4337 350.874C79.9791 350.727 79.3924 350.654 78.6737 350.654H77.2217V349.07H78.4097C79.3631 349.07 80.1257 348.938 80.6977 348.674C81.2697 348.395 81.5557 347.926 81.5557 347.266C81.5557 346.709 81.3357 346.291 80.8957 346.012C80.4704 345.733 79.8544 345.594 79.0477 345.594C78.4464 345.594 77.9037 345.66 77.4197 345.792C76.9504 345.909 76.4444 346.093 75.9017 346.342L75.2197 344.802C75.8211 344.523 76.4517 344.318 77.1117 344.186C77.7717 344.054 78.4611 343.988 79.1797 343.988ZM94.9723 356H93.0363V345.814H89.8023C89.6703 347.677 89.4943 349.268 89.2743 350.588C89.069 351.893 88.805 352.957 88.4823 353.778C88.1743 354.599 87.8003 355.201 87.3603 355.582C86.9203 355.963 86.3996 356.154 85.7983 356.154C85.6076 356.154 85.417 356.139 85.2263 356.11C85.0503 356.095 84.9036 356.059 84.7863 356V354.548C84.8743 354.577 84.9696 354.599 85.0723 354.614C85.175 354.629 85.2776 354.636 85.3803 354.636C85.6736 354.636 85.9376 354.504 86.1723 354.24C86.4216 353.976 86.6416 353.573 86.8323 353.03C87.0376 352.487 87.221 351.805 87.3823 350.984C87.5436 350.148 87.683 349.165 87.8003 348.036C87.9323 346.907 88.0496 345.631 88.1523 344.208H94.9723V356ZM100.249 351.402C100.249 351.534 100.242 351.725 100.227 351.974C100.227 352.209 100.22 352.465 100.205 352.744C100.19 353.008 100.176 353.265 100.161 353.514C100.146 353.749 100.132 353.939 100.117 354.086L106.013 344.208H108.345V356H106.563V349.048C106.563 348.813 106.563 348.505 106.563 348.124C106.578 347.743 106.592 347.369 106.607 347.002C106.622 346.621 106.636 346.335 106.651 346.144L100.821 356H98.445V344.208H100.249V351.402ZM113.545 348.498C113.545 349.187 113.721 349.701 114.073 350.038C114.425 350.361 114.939 350.522 115.613 350.522C116.303 350.522 116.926 350.412 117.483 350.192C118.041 349.957 118.613 349.649 119.199 349.268V344.208H121.113V356H119.199V350.742C118.598 351.167 117.989 351.505 117.373 351.754C116.772 351.989 116.061 352.106 115.239 352.106C114.095 352.106 113.208 351.791 112.577 351.16C111.947 350.529 111.631 349.686 111.631 348.63V344.208H113.545V348.498ZM126.506 344.208V349.114H132.402V344.208H134.316V356H132.402V350.742H126.506V356H124.592V344.208H126.506ZM137.783 356V344.208H139.697V349.048H142.469C143.452 349.048 144.258 349.173 144.889 349.422C145.52 349.671 145.989 350.045 146.297 350.544C146.605 351.028 146.759 351.644 146.759 352.392C146.759 353.125 146.605 353.763 146.297 354.306C146.004 354.849 145.534 355.267 144.889 355.56C144.258 355.853 143.43 356 142.403 356H137.783ZM142.227 354.438C143.004 354.438 143.635 354.299 144.119 354.02C144.603 353.727 144.845 353.221 144.845 352.502C144.845 351.783 144.618 351.299 144.163 351.05C143.723 350.786 143.085 350.654 142.249 350.654H139.697V354.438H142.227ZM148.585 356V344.208H150.499V356H148.585ZM156.6 349.972L152.772 344.208H154.95L157.766 348.652L160.538 344.208H162.716L158.888 349.972L162.914 356H160.736L157.766 351.292L154.752 356H152.596L156.6 349.972ZM178.757 344.208V354.372H180.363V360.092H178.537V356H170.837V360.092H169.011V354.372H169.913C170.543 353.433 171.064 352.414 171.475 351.314C171.885 350.199 172.193 349.041 172.399 347.838C172.619 346.621 172.736 345.411 172.751 344.208H178.757ZM174.445 345.726C174.386 346.723 174.239 347.757 174.005 348.828C173.785 349.884 173.491 350.896 173.125 351.864C172.773 352.832 172.362 353.668 171.893 354.372H176.887V345.726H174.445ZM186.804 343.988C187.757 343.988 188.579 344.208 189.268 344.648C189.957 345.088 190.485 345.711 190.852 346.518C191.233 347.31 191.424 348.241 191.424 349.312V350.478H183.856C183.885 351.813 184.201 352.832 184.802 353.536C185.403 354.225 186.247 354.57 187.332 354.57C188.036 354.57 188.659 354.504 189.202 354.372C189.759 354.225 190.331 354.02 190.918 353.756V355.45C190.346 355.714 189.781 355.905 189.224 356.022C188.681 356.154 188.021 356.22 187.244 356.22C186.188 356.22 185.257 355.993 184.45 355.538C183.643 355.083 183.013 354.409 182.558 353.514C182.103 352.605 181.876 351.497 181.876 350.192C181.876 348.901 182.081 347.794 182.492 346.87C182.903 345.946 183.475 345.235 184.208 344.736C184.956 344.237 185.821 343.988 186.804 343.988ZM186.804 345.572C185.953 345.572 185.279 345.873 184.78 346.474C184.281 347.061 183.988 347.882 183.9 348.938H189.444C189.444 348.263 189.349 347.677 189.158 347.178C188.967 346.679 188.674 346.291 188.278 346.012C187.897 345.719 187.405 345.572 186.804 345.572ZM203.309 339.324C203.25 340.057 203.074 340.673 202.781 341.172C202.502 341.671 202.077 342.045 201.505 342.294C200.948 342.543 200.222 342.668 199.327 342.668C198.403 342.668 197.662 342.543 197.105 342.294C196.562 342.045 196.159 341.678 195.895 341.194C195.646 340.695 195.492 340.072 195.433 339.324H197.215C197.288 340.116 197.486 340.651 197.809 340.93C198.132 341.194 198.645 341.326 199.349 341.326C199.994 341.326 200.5 341.187 200.867 340.908C201.234 340.615 201.446 340.087 201.505 339.324H203.309ZM196.005 351.402C196.005 351.534 195.998 351.725 195.983 351.974C195.983 352.209 195.976 352.465 195.961 352.744C195.946 353.008 195.932 353.265 195.917 353.514C195.902 353.749 195.888 353.939 195.873 354.086L201.769 344.208H204.101V356H202.319V349.048C202.319 348.813 202.319 348.505 202.319 348.124C202.334 347.743 202.348 347.369 202.363 347.002C202.378 346.621 202.392 346.335 202.407 346.144L196.577 356H194.201V344.208H196.005V351.402ZM212.073 356.22C211.076 356.22 210.196 356.007 209.433 355.582C208.67 355.157 208.069 354.497 207.629 353.602C207.204 352.707 206.991 351.563 206.991 350.17C206.991 348.718 207.218 347.537 207.673 346.628C208.128 345.719 208.744 345.051 209.521 344.626C210.313 344.201 211.208 343.988 212.205 343.988C212.777 343.988 213.327 344.054 213.855 344.186C214.398 344.303 214.838 344.45 215.175 344.626L214.581 346.232C214.244 346.1 213.848 345.975 213.393 345.858C212.953 345.741 212.542 345.682 212.161 345.682C211.442 345.682 210.848 345.851 210.379 346.188C209.91 346.525 209.558 347.024 209.323 347.684C209.088 348.344 208.971 349.165 208.971 350.148C208.971 351.087 209.088 351.886 209.323 352.546C209.558 353.206 209.902 353.705 210.357 354.042C210.826 354.379 211.398 354.548 212.073 354.548C212.674 354.548 213.21 354.482 213.679 354.35C214.148 354.218 214.581 354.057 214.977 353.866V355.582C214.596 355.787 214.178 355.941 213.723 356.044C213.268 356.161 212.718 356.22 212.073 356.22ZM225.385 345.836H221.755V356H219.863V345.836H216.277V344.208H225.385V345.836ZM236.564 347.178C236.564 347.911 236.359 348.483 235.948 348.894C235.537 349.305 235.002 349.583 234.342 349.73V349.818C235.031 349.921 235.633 350.185 236.146 350.61C236.659 351.021 236.916 351.666 236.916 352.546C236.916 353.045 236.828 353.507 236.652 353.932C236.491 354.357 236.227 354.724 235.86 355.032C235.493 355.34 235.024 355.582 234.452 355.758C233.88 355.919 233.191 356 232.384 356H227.566V344.208H232.362C233.169 344.208 233.887 344.303 234.518 344.494C235.149 344.67 235.647 344.978 236.014 345.418C236.381 345.843 236.564 346.43 236.564 347.178ZM234.936 352.546C234.936 351.871 234.694 351.387 234.21 351.094C233.741 350.801 233.051 350.654 232.142 350.654H229.48V354.438H232.186C233.066 354.438 233.741 354.299 234.21 354.02C234.694 353.727 234.936 353.235 234.936 352.546ZM234.628 347.42C234.628 346.863 234.437 346.459 234.056 346.21C233.689 345.946 233.095 345.814 232.274 345.814H229.48V349.048H231.922C232.817 349.048 233.491 348.916 233.946 348.652C234.401 348.388 234.628 347.977 234.628 347.42ZM241.358 351.402C241.358 351.534 241.351 351.725 241.336 351.974C241.336 352.209 241.329 352.465 241.314 352.744C241.3 353.008 241.285 353.265 241.27 353.514C241.256 353.749 241.241 353.939 241.226 354.086L247.122 344.208H249.454V356H247.672V349.048C247.672 348.813 247.672 348.505 247.672 348.124C247.687 347.743 247.702 347.369 247.716 347.002C247.731 346.621 247.746 346.335 247.76 346.144L241.93 356H239.554V344.208H241.358V351.402ZM262.069 339.324C262.01 340.057 261.834 340.673 261.541 341.172C261.262 341.671 260.837 342.045 260.265 342.294C259.707 342.543 258.981 342.668 258.087 342.668C257.163 342.668 256.422 342.543 255.865 342.294C255.322 342.045 254.919 341.678 254.655 341.194C254.405 340.695 254.251 340.072 254.193 339.324H255.975C256.048 340.116 256.246 340.651 256.569 340.93C256.891 341.194 257.405 341.326 258.109 341.326C258.754 341.326 259.26 341.187 259.627 340.908C259.993 340.615 260.206 340.087 260.265 339.324H262.069ZM254.765 351.402C254.765 351.534 254.757 351.725 254.743 351.974C254.743 352.209 254.735 352.465 254.721 352.744C254.706 353.008 254.691 353.265 254.677 353.514C254.662 353.749 254.647 353.939 254.633 354.086L260.529 344.208H262.861V356H261.079V349.048C261.079 348.813 261.079 348.505 261.079 348.124C261.093 347.743 261.108 347.369 261.123 347.002C261.137 346.621 261.152 346.335 261.167 346.144L255.337 356H252.961V344.208H254.765V351.402ZM266.103 354.812C266.103 354.269 266.228 353.888 266.477 353.668C266.726 353.448 267.034 353.338 267.401 353.338C267.768 353.338 268.083 353.448 268.347 353.668C268.611 353.888 268.743 354.269 268.743 354.812C268.743 355.34 268.611 355.721 268.347 355.956C268.083 356.191 267.768 356.308 267.401 356.308C267.034 356.308 266.726 356.191 266.477 355.956C266.228 355.721 266.103 355.34 266.103 354.812Z" fill="white"/>
<path d="M399.316 316.511C398.76 317.067 398.76 317.969 399.316 318.525L408.375 327.584C408.931 328.14 409.832 328.14 410.388 327.584C410.944 327.028 410.944 326.127 410.388 325.571L402.335 317.518L410.388 309.465C410.944 308.909 410.944 308.008 410.388 307.452C409.832 306.896 408.931 306.896 408.375 307.452L399.316 316.511ZM466.813 318.942C467.599 318.942 468.237 318.304 468.237 317.518C468.237 316.732 467.599 316.094 466.813 316.094V318.942ZM400.322 318.942H466.813V316.094H400.322V318.942Z" fill="white"/>
<path d="M417.364 221.575C416.808 222.131 416.808 223.033 417.364 223.589L426.423 232.648C426.979 233.204 427.88 233.204 428.436 232.648C428.992 232.092 428.992 231.191 428.436 230.635L420.383 222.582L428.436 214.529C428.992 213.973 428.992 213.072 428.436 212.516C427.88 211.96 426.979 211.96 426.423 212.516L417.364 221.575ZM466.813 224.006C467.6 224.006 468.237 223.368 468.237 222.582C468.237 221.796 467.6 221.159 466.813 221.159V224.006ZM418.37 224.006H466.813V221.159H418.37V224.006Z" fill="white"/>
<path d="M592.195 221.159C591.409 221.159 590.772 221.796 590.772 222.582C590.772 223.368 591.409 224.006 592.195 224.006V221.159ZM636.896 223.589C637.452 223.033 637.452 222.131 636.896 221.575L627.837 212.516C627.281 211.96 626.379 211.96 625.823 212.516C625.267 213.072 625.267 213.973 625.823 214.529L633.876 222.582L625.823 230.635C625.267 231.191 625.267 232.092 625.823 232.648C626.379 233.204 627.281 233.204 627.837 232.648L636.896 223.589ZM592.195 224.006H635.889V221.159H592.195V224.006Z" fill="white"/>
<path d="M592.195 319.892C591.409 319.892 590.772 320.529 590.772 321.315C590.772 322.102 591.409 322.739 592.195 322.739V319.892ZM645.445 322.322C646.001 321.766 646.001 320.865 645.445 320.309L636.385 311.249C635.829 310.693 634.928 310.693 634.372 311.249C633.816 311.805 633.816 312.707 634.372 313.263L642.425 321.315L634.372 329.368C633.816 329.924 633.816 330.826 634.372 331.381C634.928 331.937 635.829 331.937 636.385 331.381L645.445 322.322ZM592.195 322.739H644.438V319.892H592.195V322.739Z" fill="white"/>
<rect x="378.531" y="204.601" width="35.9829" height="35.9624" rx="4.68822" stroke="white" stroke-width="2.01195"/>
<rect x="355.734" y="299.537" width="35.9829" height="35.9624" rx="4.68822" stroke="white" stroke-width="2.01195"/>
<rect x="642.595" y="204.601" width="35.9829" height="35.9624" rx="4.68822" stroke="white" stroke-width="2.01195"/>
<rect x="650.195" y="303.334" width="35.9829" height="35.9624" rx="4.68822" stroke="white" stroke-width="2.01195"/>
<rect x="488.184" y="222.107" width="84.5393" height="8.54456" rx="4.27228" stroke="white" stroke-width="0.949033"/>
<rect x="484.386" y="250.588" width="18.0484" height="18.0382" rx="5.21968" stroke="white" stroke-width="0.949033"/>
<rect x="509.082" y="250.588" width="18.0484" height="18.0382" rx="5.21968" stroke="white" stroke-width="0.949033"/>
<rect x="533.778" y="250.588" width="18.0484" height="18.0382" rx="5.21968" stroke="white" stroke-width="0.949033"/>
<rect x="558.475" y="250.588" width="18.0484" height="18.0382" rx="5.21968" stroke="white" stroke-width="0.949033"/>
<rect x="484.386" y="273.373" width="18.0484" height="18.0382" rx="5.21968" stroke="white" stroke-width="0.949033"/>
<rect x="509.082" y="273.373" width="18.0484" height="18.0382" rx="5.21968" stroke="white" stroke-width="0.949033"/>
<rect x="533.778" y="273.373" width="18.0484" height="18.0382" rx="5.21968" stroke="white" stroke-width="0.949033"/>
<rect x="558.475" y="273.373" width="18.0484" height="18.0382" rx="5.21968" stroke="white" stroke-width="0.949033"/>
<rect x="484.386" y="296.157" width="18.0484" height="18.0382" rx="5.21968" stroke="white" stroke-width="0.949033"/>
<rect x="509.082" y="296.157" width="18.0484" height="18.0382" rx="5.21968" stroke="white" stroke-width="0.949033"/>
<rect x="533.778" y="296.157" width="18.0484" height="18.0382" rx="5.21968" stroke="white" stroke-width="0.949033"/>
<rect x="558.475" y="296.157" width="18.0484" height="18.0382" rx="5.21968" stroke="white" stroke-width="0.949033"/>
<rect x="484.386" y="318.942" width="18.0484" height="18.0382" rx="5.21968" stroke="white" stroke-width="0.949033"/>
<rect x="509.082" y="318.942" width="18.0484" height="18.0382" rx="5.21968" stroke="white" stroke-width="0.949033"/>
<rect x="533.778" y="318.942" width="18.0484" height="18.0382" rx="5.21968" stroke="white" stroke-width="0.949033"/>
<rect x="558.475" y="318.942" width="18.0484" height="18.0382" rx="5.21968" stroke="white" stroke-width="0.949033"/>
<g clip-path="url(#clip0_683_794)">
<path d="M404.63 212.037H389.364C388.427 212.037 387.668 212.796 387.668 213.733V232.381C387.668 233.317 388.427 234.076 389.364 234.076H404.63C405.567 234.076 406.326 233.317 406.326 232.381V213.733C406.326 212.796 405.567 212.037 404.63 212.037Z" stroke="white" stroke-width="0.949033" stroke-linecap="round" stroke-linejoin="round"/>
<path d="M387.668 220.514H406.326" stroke="white" stroke-width="0.949033" stroke-linecap="round" stroke-linejoin="round"/>
<path d="M392.333 225.599C392.099 225.599 391.909 225.41 391.909 225.176C391.909 224.942 392.099 224.752 392.333 224.752" stroke="white" stroke-width="0.949033" stroke-linecap="round" stroke-linejoin="round"/>
<path d="M392.333 225.599C392.567 225.599 392.757 225.41 392.757 225.176C392.757 224.942 392.567 224.752 392.333 224.752" stroke="white" stroke-width="0.949033" stroke-linecap="round" stroke-linejoin="round"/>
<path d="M396.996 225.599C396.762 225.599 396.572 225.41 396.572 225.176C396.572 224.942 396.762 224.752 396.996 224.752" stroke="white" stroke-width="0.949033" stroke-linecap="round" stroke-linejoin="round"/>
<path d="M396.996 225.599C397.23 225.599 397.42 225.41 397.42 225.176C397.42 224.942 397.23 224.752 396.996 224.752" stroke="white" stroke-width="0.949033" stroke-linecap="round" stroke-linejoin="round"/>
<path d="M401.661 225.599C401.427 225.599 401.237 225.41 401.237 225.176C401.237 224.942 401.427 224.752 401.661 224.752" stroke="white" stroke-width="0.949033" stroke-linecap="round" stroke-linejoin="round"/>
<path d="M401.661 225.599C401.895 225.599 402.085 225.41 402.085 225.176C402.085 224.942 401.895 224.752 401.661 224.752" stroke="white" stroke-width="0.949033" stroke-linecap="round" stroke-linejoin="round"/>
<path d="M392.333 229.838C392.099 229.838 391.909 229.648 391.909 229.414C391.909 229.18 392.099 228.99 392.333 228.99" stroke="white" stroke-width="0.949033" stroke-linecap="round" stroke-linejoin="round"/>
<path d="M392.333 229.838C392.567 229.838 392.757 229.648 392.757 229.414C392.757 229.18 392.567 228.99 392.333 228.99" stroke="white" stroke-width="0.949033" stroke-linecap="round" stroke-linejoin="round"/>
<path d="M396.996 229.838C396.762 229.838 396.572 229.648 396.572 229.414C396.572 229.18 396.762 228.99 396.996 228.99" stroke="white" stroke-width="0.949033" stroke-linecap="round" stroke-linejoin="round"/>
<path d="M396.996 229.838C397.23 229.838 397.42 229.648 397.42 229.414C397.42 229.18 397.23 228.99 396.996 228.99" stroke="white" stroke-width="0.949033" stroke-linecap="round" stroke-linejoin="round"/>
<path d="M401.661 229.838C401.427 229.838 401.237 229.648 401.237 229.414C401.237 229.18 401.427 228.99 401.661 228.99" stroke="white" stroke-width="0.949033" stroke-linecap="round" stroke-linejoin="round"/>
<path d="M401.661 229.838C401.895 229.838 402.085 229.648 402.085 229.414C402.085 229.18 401.895 228.99 401.661 228.99" stroke="white" stroke-width="0.949033" stroke-linecap="round" stroke-linejoin="round"/>
<path d="M402.086 216.276H400.39" stroke="white" stroke-width="0.949033" stroke-linecap="round" stroke-linejoin="round"/>
</g>
<g clip-path="url(#clip1_683_794)">
<path d="M374.49 306.147L382.526 317.052L374.49 327.957L366.454 317.052L374.49 306.147Z" stroke="white" stroke-width="0.949033" stroke-linecap="round" stroke-linejoin="round"/>
<path d="M382.526 317.052L374.49 319.719L366.454 317.052" stroke="white" stroke-width="0.949033" stroke-linecap="round" stroke-linejoin="round"/>
</g>
<g clip-path="url(#clip2_683_794)">
<path d="M663.354 220.186C663.267 219.94 663.133 219.717 662.963 219.527C662.6 219.122 662.074 218.867 661.488 218.867H659.956C658.98 218.867 658.189 219.658 658.189 220.633C658.189 221.463 658.767 222.18 659.578 222.358L661.911 222.867C662.819 223.066 663.467 223.871 663.467 224.8C663.467 225.892 662.581 226.779 661.488 226.779H660.168C659.307 226.779 658.574 226.228 658.302 225.46" stroke="white" stroke-width="0.949033" stroke-linecap="round" stroke-linejoin="round"/>
<path d="M660.827 218.867V216.89" stroke="white" stroke-width="0.949033" stroke-linecap="round" stroke-linejoin="round"/>
<path d="M660.827 228.756V226.779" stroke="white" stroke-width="0.949033" stroke-linecap="round" stroke-linejoin="round"/>
<path d="M652.578 234.074V229.835H656.819" stroke="white" stroke-width="0.949033" stroke-linecap="round" stroke-linejoin="round"/>
<path d="M671.897 221.029C672.953 226.637 669.519 232.197 663.913 233.698C659.622 234.847 655.244 233.301 652.578 230.099" stroke="white" stroke-width="0.949033" stroke-linecap="round" stroke-linejoin="round"/>
<path d="M650.226 225.084C649.171 219.477 652.605 213.917 658.211 212.416C662.501 211.267 666.879 212.812 669.545 216.014" stroke="white" stroke-width="0.949033" stroke-linecap="round" stroke-linejoin="round"/>
<path d="M669.545 212.04V216.278H665.305" stroke="white" stroke-width="0.949033" stroke-linecap="round" stroke-linejoin="round"/>
</g>
<g clip-path="url(#clip3_683_794)">
<path d="M675.045 330.686C679.989 327.133 681.116 320.248 677.561 315.306C674.007 310.365 667.118 309.239 662.174 312.792C657.23 316.344 656.103 323.23 659.657 328.171C663.212 333.113 670.101 334.238 675.045 330.686Z" stroke="white" stroke-width="0.949033" stroke-linecap="round" stroke-linejoin="round"/>
<path d="M662.174 312.792L668.61 321.739L679.499 323.518" stroke="white" stroke-width="0.949033" stroke-linecap="round" stroke-linejoin="round"/>
</g>
<rect x="470.667" y="197.004" width="118.518" height="202.887" rx="11.0483" stroke="white" stroke-width="2.00879"/>
<rect x="476.694" y="205.04" width="106.466" height="186.817" rx="11.0483" stroke="white" stroke-width="2.00879"/>
<rect x="523.9" y="200.018" width="10.0439" height="2.00879" rx="1.00439" fill="white"/>
<rect x="535.953" y="200.018" width="2.00879" height="2.00879" rx="1.00439" fill="white"/>
<defs>
<clipPath id="clip0_683_794">
<rect width="23.7468" height="23.734" fill="white" transform="translate(385.124 211.19)"/>
</clipPath>
<clipPath id="clip1_683_794">
<rect width="23.7468" height="23.734" fill="white" transform="translate(362.327 305.176)"/>
</clipPath>
<clipPath id="clip2_683_794">
<rect width="23.7468" height="23.734" fill="white" transform="translate(649.189 211.19)"/>
</clipPath>
<clipPath id="clip3_683_794">
<rect width="23.7424" height="23.7383" fill="white" transform="matrix(0.812095 -0.583525 0.583939 0.811797 652.038 319.031)"/>
</clipPath>
</defs>
</svg>
