<svg width="540" height="600" viewBox="0 0 540 600" fill="none" xmlns="http://www.w3.org/2000/svg">
<rect width="540" height="600" fill="#1C1C1C"/>
<path d="M46.8913 475L42.5713 462.48H42.4913C42.5179 462.747 42.5379 463.087 42.5513 463.5C42.5779 463.913 42.5979 464.367 42.6113 464.86C42.6246 465.34 42.6313 465.833 42.6313 466.34V475H40.9913V460.72H43.5913L47.6513 472.42H47.7313L51.8713 460.72H54.4713V475H52.7113V466.22C52.7113 465.753 52.7179 465.293 52.7313 464.84C52.7446 464.373 52.7646 463.94 52.7913 463.54C52.8179 463.127 52.8379 462.78 52.8513 462.5H52.7713L48.3713 475H46.8913ZM66.7002 469.62C66.7002 470.513 66.5869 471.307 66.3602 472C66.1469 472.68 65.8335 473.26 65.4202 473.74C65.0069 474.22 64.5069 474.587 63.9202 474.84C63.3335 475.08 62.6802 475.2 61.9602 475.2C61.2935 475.2 60.6735 475.08 60.1002 474.84C59.5402 474.587 59.0469 474.22 58.6202 473.74C58.2069 473.26 57.8869 472.68 57.6602 472C57.4335 471.307 57.3202 470.513 57.3202 469.62C57.3202 468.433 57.5069 467.433 57.8802 466.62C58.2669 465.793 58.8135 465.167 59.5202 464.74C60.2269 464.3 61.0602 464.08 62.0202 464.08C62.9402 464.08 63.7469 464.3 64.4402 464.74C65.1469 465.167 65.7002 465.793 66.1002 466.62C66.5002 467.433 66.7002 468.433 66.7002 469.62ZM59.1202 469.62C59.1202 470.46 59.2202 471.193 59.4202 471.82C59.6202 472.433 59.9335 472.907 60.3602 473.24C60.7869 473.573 61.3335 473.74 62.0002 473.74C62.6669 473.74 63.2135 473.573 63.6402 473.24C64.0669 472.907 64.3802 472.433 64.5802 471.82C64.7935 471.193 64.9002 470.46 64.9002 469.62C64.9002 468.767 64.7935 468.04 64.5802 467.44C64.3802 466.84 64.0669 466.38 63.6402 466.06C63.2135 465.727 62.6602 465.56 61.9802 465.56C60.9802 465.56 60.2535 465.92 59.8002 466.64C59.3469 467.36 59.1202 468.353 59.1202 469.62ZM68.7664 468.56C68.7664 467 68.9131 465.673 69.2064 464.58C69.5131 463.473 69.9798 462.593 70.6064 461.94C71.2464 461.273 72.0664 460.827 73.0664 460.6C73.8664 460.413 74.6531 460.247 75.4264 460.1C76.1998 459.953 76.9264 459.82 77.6064 459.7L77.9064 461.24C77.5731 461.293 77.2064 461.36 76.8064 461.44C76.4064 461.507 75.9998 461.58 75.5864 461.66C75.1864 461.727 74.7931 461.8 74.4064 461.88C74.0331 461.947 73.6998 462.013 73.4064 462.08C72.9931 462.173 72.6198 462.333 72.2864 462.56C71.9664 462.773 71.6864 463.067 71.4464 463.44C71.2198 463.813 71.0331 464.273 70.8864 464.82C70.7531 465.367 70.6731 466.013 70.6464 466.76H70.7664C70.9398 466.507 71.1798 466.247 71.4864 465.98C71.7931 465.713 72.1598 465.487 72.5864 465.3C73.0131 465.113 73.4998 465.02 74.0464 465.02C74.9131 465.02 75.6398 465.227 76.2264 465.64C76.8131 466.04 77.2531 466.6 77.5464 467.32C77.8531 468.04 78.0064 468.88 78.0064 469.84C78.0064 471.027 77.8064 472.02 77.4064 472.82C77.0198 473.62 76.4798 474.22 75.7864 474.62C75.0931 475.007 74.2864 475.2 73.3664 475.2C72.6731 475.2 72.0398 475.06 71.4664 474.78C70.9064 474.487 70.4198 474.06 70.0064 473.5C69.6064 472.94 69.2998 472.247 69.0864 471.42C68.8731 470.593 68.7664 469.64 68.7664 468.56ZM73.5064 473.74C74.0398 473.74 74.5064 473.62 74.9064 473.38C75.3064 473.14 75.6131 472.747 75.8264 472.2C76.0531 471.653 76.1664 470.927 76.1664 470.02C76.1664 468.927 75.9798 468.067 75.6064 467.44C75.2331 466.8 74.6198 466.48 73.7664 466.48C73.2198 466.48 72.7264 466.613 72.2864 466.88C71.8464 467.133 71.4731 467.427 71.1664 467.76C70.8731 468.093 70.6664 468.373 70.5464 468.6C70.5464 469.253 70.5864 469.887 70.6664 470.5C70.7598 471.113 70.9131 471.667 71.1264 472.16C71.3531 472.64 71.6531 473.027 72.0264 473.32C72.4131 473.6 72.9064 473.74 73.5064 473.74ZM82.235 470.82C82.235 470.94 82.2284 471.113 82.215 471.34C82.215 471.553 82.2084 471.787 82.195 472.04C82.1817 472.28 82.1684 472.513 82.155 472.74C82.1417 472.953 82.1284 473.127 82.115 473.26L87.475 464.28H89.595V475H87.975V468.68C87.975 468.467 87.975 468.187 87.975 467.84C87.9884 467.493 88.0017 467.153 88.015 466.82C88.0284 466.473 88.0417 466.213 88.055 466.04L82.755 475H80.595V464.28H82.235V470.82ZM100.583 475H98.8225V465.74H95.8825C95.7625 467.433 95.6025 468.88 95.4025 470.08C95.2159 471.267 94.9759 472.233 94.6825 472.98C94.4025 473.727 94.0625 474.273 93.6625 474.62C93.2625 474.967 92.7892 475.14 92.2425 475.14C92.0692 475.14 91.8959 475.127 91.7225 475.1C91.5625 475.087 91.4292 475.053 91.3225 475V473.68C91.4025 473.707 91.4892 473.727 91.5825 473.74C91.6759 473.753 91.7692 473.76 91.8625 473.76C92.1292 473.76 92.3692 473.64 92.5825 473.4C92.8092 473.16 93.0092 472.793 93.1825 472.3C93.3692 471.807 93.5359 471.187 93.6825 470.44C93.8292 469.68 93.9559 468.787 94.0625 467.76C94.1825 466.733 94.2892 465.573 94.3825 464.28H100.583V475ZM108.4 468.68C109.28 468.68 110.013 468.793 110.6 469.02C111.186 469.247 111.626 469.587 111.92 470.04C112.226 470.48 112.38 471.04 112.38 471.72C112.38 472.387 112.24 472.967 111.96 473.46C111.68 473.953 111.24 474.333 110.64 474.6C110.053 474.867 109.286 475 108.34 475H103.74V464.28H105.48V468.68H108.4ZM110.64 471.82C110.64 471.167 110.426 470.727 110 470.5C109.573 470.26 108.98 470.14 108.22 470.14H105.48V473.58H108.26C108.94 473.58 109.506 473.447 109.96 473.18C110.413 472.913 110.64 472.46 110.64 471.82ZM116.671 464.28V468.74H122.031V464.28H123.771V475H122.031V470.22H116.671V475H114.931V464.28H116.671ZM126.923 475V464.28H128.663V468.68H131.183C132.076 468.68 132.81 468.793 133.383 469.02C133.956 469.247 134.383 469.587 134.663 470.04C134.943 470.48 135.083 471.04 135.083 471.72C135.083 472.387 134.943 472.967 134.663 473.46C134.396 473.953 133.97 474.333 133.383 474.6C132.81 474.867 132.056 475 131.123 475H126.923ZM130.963 473.58C131.67 473.58 132.243 473.453 132.683 473.2C133.123 472.933 133.343 472.473 133.343 471.82C133.343 471.167 133.136 470.727 132.723 470.5C132.323 470.26 131.743 470.14 130.983 470.14H128.663V473.58H130.963ZM136.743 475V464.28H138.483V475H136.743ZM145.57 464.08C146.436 464.08 147.183 464.28 147.81 464.68C148.436 465.08 148.916 465.647 149.25 466.38C149.596 467.1 149.77 467.947 149.77 468.92V469.98H142.89C142.916 471.193 143.203 472.12 143.75 472.76C144.296 473.387 145.063 473.7 146.05 473.7C146.69 473.7 147.256 473.64 147.75 473.52C148.256 473.387 148.776 473.2 149.31 472.96V474.5C148.79 474.74 148.276 474.913 147.77 475.02C147.276 475.14 146.676 475.2 145.97 475.2C145.01 475.2 144.163 474.993 143.43 474.58C142.696 474.167 142.123 473.553 141.71 472.74C141.296 471.913 141.09 470.907 141.09 469.72C141.09 468.547 141.276 467.54 141.65 466.7C142.023 465.86 142.543 465.213 143.21 464.76C143.89 464.307 144.676 464.08 145.57 464.08ZM145.57 465.52C144.796 465.52 144.183 465.793 143.73 466.34C143.276 466.873 143.01 467.62 142.93 468.58H147.97C147.97 467.967 147.883 467.433 147.71 466.98C147.536 466.527 147.27 466.173 146.91 465.92C146.563 465.653 146.116 465.52 145.57 465.52ZM165.757 464.28V475H164.017V465.78H158.917V475H157.177V464.28H165.757ZM173.795 464.08C175.035 464.08 176.028 464.54 176.775 465.46C177.535 466.38 177.915 467.767 177.915 469.62C177.915 470.833 177.742 471.86 177.395 472.7C177.048 473.527 176.562 474.153 175.935 474.58C175.322 474.993 174.602 475.2 173.775 475.2C173.255 475.2 172.795 475.127 172.395 474.98C172.008 474.833 171.675 474.647 171.395 474.42C171.115 474.18 170.875 473.92 170.675 473.64H170.555C170.582 473.867 170.608 474.153 170.635 474.5C170.662 474.847 170.675 475.147 170.675 475.4V479.8H168.935V464.28H170.355L170.595 465.74H170.675C170.875 465.433 171.115 465.153 171.395 464.9C171.675 464.647 172.008 464.447 172.395 464.3C172.795 464.153 173.262 464.08 173.795 464.08ZM173.455 465.56C172.788 465.56 172.248 465.7 171.835 465.98C171.435 466.247 171.142 466.653 170.955 467.2C170.768 467.747 170.675 468.44 170.675 469.28V469.62C170.675 470.5 170.755 471.247 170.915 471.86C171.088 472.473 171.382 472.94 171.795 473.26C172.208 473.58 172.775 473.74 173.495 473.74C174.095 473.74 174.588 473.56 174.975 473.2C175.362 472.84 175.648 472.353 175.835 471.74C176.022 471.113 176.115 470.4 176.115 469.6C176.115 468.373 175.895 467.393 175.455 466.66C175.028 465.927 174.362 465.56 173.455 465.56ZM182.157 470.82C182.157 470.94 182.15 471.113 182.137 471.34C182.137 471.553 182.13 471.787 182.117 472.04C182.104 472.28 182.09 472.513 182.077 472.74C182.064 472.953 182.05 473.127 182.037 473.26L187.397 464.28H189.517V475H187.897V468.68C187.897 468.467 187.897 468.187 187.897 467.84C187.91 467.493 187.924 467.153 187.937 466.82C187.95 466.473 187.964 466.213 187.977 466.04L182.677 475H180.517V464.28H182.157V470.82ZM200.504 475H198.744V465.74H195.804C195.684 467.433 195.524 468.88 195.324 470.08C195.138 471.267 194.898 472.233 194.604 472.98C194.324 473.727 193.984 474.273 193.584 474.62C193.184 474.967 192.711 475.14 192.164 475.14C191.991 475.14 191.818 475.127 191.644 475.1C191.484 475.087 191.351 475.053 191.244 475V473.68C191.324 473.707 191.411 473.727 191.504 473.74C191.598 473.753 191.691 473.76 191.784 473.76C192.051 473.76 192.291 473.64 192.504 473.4C192.731 473.16 192.931 472.793 193.104 472.3C193.291 471.807 193.458 471.187 193.604 470.44C193.751 469.68 193.878 468.787 193.984 467.76C194.104 466.733 194.211 465.573 194.304 464.28H200.504V475ZM212.481 469.62C212.481 470.513 212.368 471.307 212.141 472C211.928 472.68 211.615 473.26 211.201 473.74C210.788 474.22 210.288 474.587 209.701 474.84C209.115 475.08 208.461 475.2 207.741 475.2C207.075 475.2 206.455 475.08 205.881 474.84C205.321 474.587 204.828 474.22 204.401 473.74C203.988 473.26 203.668 472.68 203.441 472C203.215 471.307 203.101 470.513 203.101 469.62C203.101 468.433 203.288 467.433 203.661 466.62C204.048 465.793 204.595 465.167 205.301 464.74C206.008 464.3 206.841 464.08 207.801 464.08C208.721 464.08 209.528 464.3 210.221 464.74C210.928 465.167 211.481 465.793 211.881 466.62C212.281 467.433 212.481 468.433 212.481 469.62ZM204.901 469.62C204.901 470.46 205.001 471.193 205.201 471.82C205.401 472.433 205.715 472.907 206.141 473.24C206.568 473.573 207.115 473.74 207.781 473.74C208.448 473.74 208.995 473.573 209.421 473.24C209.848 472.907 210.161 472.433 210.361 471.82C210.575 471.193 210.681 470.46 210.681 469.62C210.681 468.767 210.575 468.04 210.361 467.44C210.161 466.84 209.848 466.38 209.421 466.06C208.995 465.727 208.441 465.56 207.761 465.56C206.761 465.56 206.035 465.92 205.581 466.64C205.128 467.36 204.901 468.353 204.901 469.62ZM226.997 464.28L222.857 469.48L227.337 475H225.377L221.057 469.56V475H219.437V469.56L215.097 475H213.137L217.617 469.48L213.497 464.28H215.377L219.437 469.48V464.28H221.057V469.48L225.117 464.28H226.997ZM232.523 464.08C233.39 464.08 234.136 464.28 234.763 464.68C235.39 465.08 235.87 465.647 236.203 466.38C236.55 467.1 236.723 467.947 236.723 468.92V469.98H229.843C229.87 471.193 230.156 472.12 230.703 472.76C231.25 473.387 232.016 473.7 233.003 473.7C233.643 473.7 234.21 473.64 234.703 473.52C235.21 473.387 235.73 473.2 236.263 472.96V474.5C235.743 474.74 235.23 474.913 234.723 475.02C234.23 475.14 233.63 475.2 232.923 475.2C231.963 475.2 231.116 474.993 230.383 474.58C229.65 474.167 229.076 473.553 228.663 472.74C228.25 471.913 228.043 470.907 228.043 469.72C228.043 468.547 228.23 467.54 228.603 466.7C228.976 465.86 229.496 465.213 230.163 464.76C230.843 464.307 231.63 464.08 232.523 464.08ZM232.523 465.52C231.75 465.52 231.136 465.793 230.683 466.34C230.23 466.873 229.963 467.62 229.883 468.58H234.923C234.923 467.967 234.836 467.433 234.663 466.98C234.49 466.527 234.223 466.173 233.863 465.92C233.516 465.653 233.07 465.52 232.523 465.52ZM240.987 464.28V468.74H246.347V464.28H248.087V475H246.347V470.22H240.987V475H239.247V464.28H240.987ZM252.88 470.82C252.88 470.94 252.873 471.113 252.86 471.34C252.86 471.553 252.853 471.787 252.84 472.04C252.826 472.28 252.813 472.513 252.8 472.74C252.786 472.953 252.773 473.127 252.76 473.26L258.12 464.28H260.24V475H258.62V468.68C258.62 468.467 258.62 468.187 258.62 467.84C258.633 467.493 258.646 467.153 258.66 466.82C258.673 466.473 258.686 466.213 258.7 466.04L253.4 475H251.24V464.28H252.88V470.82ZM264.127 475H262.127L264.987 470.5C264.6 470.393 264.227 470.227 263.867 470C263.52 469.76 263.234 469.433 263.007 469.02C262.78 468.593 262.667 468.067 262.667 467.44C262.667 466.413 262.994 465.633 263.647 465.1C264.314 464.553 265.194 464.28 266.287 464.28H270.827V475H269.087V470.74H266.707L264.127 475ZM264.367 467.46C264.367 468.073 264.574 468.533 264.987 468.84C265.414 469.133 266.007 469.28 266.767 469.28H269.087V465.74H266.447C265.7 465.74 265.167 465.9 264.847 466.22C264.527 466.54 264.367 466.953 264.367 467.46ZM287.456 464.28V475H285.716V465.78H280.616V475H278.876V464.28H287.456ZM299.454 469.62C299.454 470.513 299.341 471.307 299.114 472C298.901 472.68 298.587 473.26 298.174 473.74C297.761 474.22 297.261 474.587 296.674 474.84C296.087 475.08 295.434 475.2 294.714 475.2C294.047 475.2 293.427 475.08 292.854 474.84C292.294 474.587 291.801 474.22 291.374 473.74C290.961 473.26 290.641 472.68 290.414 472C290.187 471.307 290.074 470.513 290.074 469.62C290.074 468.433 290.261 467.433 290.634 466.62C291.021 465.793 291.567 465.167 292.274 464.74C292.981 464.3 293.814 464.08 294.774 464.08C295.694 464.08 296.501 464.3 297.194 464.74C297.901 465.167 298.454 465.793 298.854 466.62C299.254 467.433 299.454 468.433 299.454 469.62ZM291.874 469.62C291.874 470.46 291.974 471.193 292.174 471.82C292.374 472.433 292.687 472.907 293.114 473.24C293.541 473.573 294.087 473.74 294.754 473.74C295.421 473.74 295.967 473.573 296.394 473.24C296.821 472.907 297.134 472.433 297.334 471.82C297.547 471.193 297.654 470.46 297.654 469.62C297.654 468.767 297.547 468.04 297.334 467.44C297.134 466.84 296.821 466.38 296.394 466.06C295.967 465.727 295.414 465.56 294.734 465.56C293.734 465.56 293.007 465.92 292.554 466.64C292.101 467.36 291.874 468.353 291.874 469.62ZM304.78 464.08C305.54 464.08 306.2 464.193 306.76 464.42C307.334 464.633 307.78 464.953 308.1 465.38C308.42 465.793 308.58 466.3 308.58 466.9C308.58 467.553 308.407 468.073 308.06 468.46C307.727 468.833 307.267 469.107 306.68 469.28V469.36C307.08 469.48 307.447 469.647 307.78 469.86C308.127 470.073 308.4 470.353 308.6 470.7C308.814 471.047 308.92 471.493 308.92 472.04C308.92 472.627 308.767 473.16 308.46 473.64C308.154 474.12 307.674 474.5 307.02 474.78C306.38 475.06 305.56 475.2 304.56 475.2C304.08 475.2 303.62 475.173 303.18 475.12C302.754 475.067 302.36 474.987 302 474.88C301.654 474.773 301.347 474.647 301.08 474.5V472.92C301.507 473.133 302.014 473.327 302.6 473.5C303.187 473.673 303.827 473.76 304.52 473.76C305.027 473.76 305.48 473.7 305.88 473.58C306.28 473.46 306.6 473.273 306.84 473.02C307.08 472.753 307.2 472.393 307.2 471.94C307.2 471.527 307.094 471.193 306.88 470.94C306.667 470.673 306.347 470.473 305.92 470.34C305.507 470.207 304.974 470.14 304.32 470.14H303V468.7H304.08C304.947 468.7 305.64 468.58 306.16 468.34C306.68 468.087 306.94 467.66 306.94 467.06C306.94 466.553 306.74 466.173 306.34 465.92C305.954 465.667 305.394 465.54 304.66 465.54C304.114 465.54 303.62 465.6 303.18 465.72C302.754 465.827 302.294 465.993 301.8 466.22L301.18 464.82C301.727 464.567 302.3 464.38 302.9 464.26C303.5 464.14 304.127 464.08 304.78 464.08ZM319.517 466.98C319.517 467.647 319.331 468.167 318.957 468.54C318.584 468.913 318.097 469.167 317.497 469.3V469.38C318.124 469.473 318.671 469.713 319.137 470.1C319.604 470.473 319.837 471.06 319.837 471.86C319.837 472.313 319.757 472.733 319.597 473.12C319.451 473.507 319.211 473.84 318.877 474.12C318.544 474.4 318.117 474.62 317.597 474.78C317.077 474.927 316.451 475 315.717 475H311.337V464.28H315.697C316.431 464.28 317.084 464.367 317.657 464.54C318.231 464.7 318.684 464.98 319.017 465.38C319.351 465.767 319.517 466.3 319.517 466.98ZM318.037 471.86C318.037 471.247 317.817 470.807 317.377 470.54C316.951 470.273 316.324 470.14 315.497 470.14H313.077V473.58H315.537C316.337 473.58 316.951 473.453 317.377 473.2C317.817 472.933 318.037 472.487 318.037 471.86ZM317.757 467.2C317.757 466.693 317.584 466.327 317.237 466.1C316.904 465.86 316.364 465.74 315.617 465.74H313.077V468.68H315.297C316.111 468.68 316.724 468.56 317.137 468.32C317.551 468.08 317.757 467.707 317.757 467.2ZM331.056 469.62C331.056 470.513 330.942 471.307 330.716 472C330.502 472.68 330.189 473.26 329.776 473.74C329.362 474.22 328.862 474.587 328.276 474.84C327.689 475.08 327.036 475.2 326.316 475.2C325.649 475.2 325.029 475.08 324.456 474.84C323.896 474.587 323.402 474.22 322.976 473.74C322.562 473.26 322.242 472.68 322.016 472C321.789 471.307 321.676 470.513 321.676 469.62C321.676 468.433 321.862 467.433 322.236 466.62C322.622 465.793 323.169 465.167 323.876 464.74C324.582 464.3 325.416 464.08 326.376 464.08C327.296 464.08 328.102 464.3 328.796 464.74C329.502 465.167 330.056 465.793 330.456 466.62C330.856 467.433 331.056 468.433 331.056 469.62ZM323.476 469.62C323.476 470.46 323.576 471.193 323.776 471.82C323.976 472.433 324.289 472.907 324.716 473.24C325.142 473.573 325.689 473.74 326.356 473.74C327.022 473.74 327.569 473.573 327.996 473.24C328.422 472.907 328.736 472.433 328.936 471.82C329.149 471.193 329.256 470.46 329.256 469.62C329.256 468.767 329.149 468.04 328.936 467.44C328.736 466.84 328.422 466.38 327.996 466.06C327.569 465.727 327.016 465.56 326.336 465.56C325.336 465.56 324.609 465.92 324.156 466.64C323.702 467.36 323.476 468.353 323.476 469.62ZM341.442 475H339.682V465.74H336.742C336.622 467.433 336.462 468.88 336.262 470.08C336.075 471.267 335.835 472.233 335.542 472.98C335.262 473.727 334.922 474.273 334.522 474.62C334.122 474.967 333.649 475.14 333.102 475.14C332.929 475.14 332.755 475.127 332.582 475.1C332.422 475.087 332.289 475.053 332.182 475V473.68C332.262 473.707 332.349 473.727 332.442 473.74C332.535 473.753 332.629 473.76 332.722 473.76C332.989 473.76 333.229 473.64 333.442 473.4C333.669 473.16 333.869 472.793 334.042 472.3C334.229 471.807 334.395 471.187 334.542 470.44C334.689 469.68 334.815 468.787 334.922 467.76C335.042 466.733 335.149 465.573 335.242 464.28H341.442V475ZM345.299 475H343.299L346.159 470.5C345.772 470.393 345.399 470.227 345.039 470C344.692 469.76 344.406 469.433 344.179 469.02C343.952 468.593 343.839 468.067 343.839 467.44C343.839 466.413 344.166 465.633 344.819 465.1C345.486 464.553 346.366 464.28 347.459 464.28H351.999V475H350.259V470.74H347.879L345.299 475ZM345.539 467.46C345.539 468.073 345.746 468.533 346.159 468.84C346.586 469.133 347.179 469.28 347.939 469.28H350.259V465.74H347.619C346.872 465.74 346.339 465.9 346.019 466.22C345.699 466.54 345.539 466.953 345.539 467.46ZM368.325 469.62C368.325 470.807 368.145 471.82 367.785 472.66C367.425 473.487 366.905 474.12 366.225 474.56C365.559 474.987 364.765 475.2 363.845 475.2C363.005 475.2 362.259 475.013 361.605 474.64C360.965 474.253 360.452 473.693 360.065 472.96C359.692 472.213 359.472 471.3 359.405 470.22H356.905V475H355.165V464.28H356.905V468.74H359.425C359.519 467.727 359.752 466.88 360.125 466.2C360.512 465.507 361.025 464.98 361.665 464.62C362.305 464.26 363.045 464.08 363.885 464.08C364.765 464.08 365.539 464.3 366.205 464.74C366.872 465.167 367.392 465.793 367.765 466.62C368.139 467.433 368.325 468.433 368.325 469.62ZM361.185 469.62C361.185 470.513 361.279 471.267 361.465 471.88C361.652 472.493 361.945 472.96 362.345 473.28C362.745 473.587 363.252 473.74 363.865 473.74C364.492 473.74 364.999 473.587 365.385 473.28C365.785 472.96 366.072 472.493 366.245 471.88C366.432 471.267 366.525 470.513 366.525 469.62C366.525 468.727 366.432 467.98 366.245 467.38C366.059 466.78 365.772 466.327 365.385 466.02C364.999 465.713 364.492 465.56 363.865 465.56C363.252 465.56 362.745 465.713 362.345 466.02C361.945 466.327 361.652 466.78 361.465 467.38C361.279 467.98 361.185 468.727 361.185 469.62ZM377.831 465.76H374.531V475H372.811V465.76H369.551V464.28H377.831V465.76ZM389.557 464.08C390.797 464.08 391.79 464.54 392.537 465.46C393.297 466.38 393.677 467.767 393.677 469.62C393.677 470.833 393.503 471.86 393.157 472.7C392.81 473.527 392.323 474.153 391.697 474.58C391.083 474.993 390.363 475.2 389.537 475.2C389.017 475.2 388.557 475.127 388.157 474.98C387.77 474.833 387.437 474.647 387.157 474.42C386.877 474.18 386.637 473.92 386.437 473.64H386.317C386.343 473.867 386.37 474.153 386.397 474.5C386.423 474.847 386.437 475.147 386.437 475.4V479.8H384.697V464.28H386.117L386.357 465.74H386.437C386.637 465.433 386.877 465.153 387.157 464.9C387.437 464.647 387.77 464.447 388.157 464.3C388.557 464.153 389.023 464.08 389.557 464.08ZM389.217 465.56C388.55 465.56 388.01 465.7 387.597 465.98C387.197 466.247 386.903 466.653 386.717 467.2C386.53 467.747 386.437 468.44 386.437 469.28V469.62C386.437 470.5 386.517 471.247 386.677 471.86C386.85 472.473 387.143 472.94 387.557 473.26C387.97 473.58 388.537 473.74 389.257 473.74C389.857 473.74 390.35 473.56 390.737 473.2C391.123 472.84 391.41 472.353 391.597 471.74C391.783 471.113 391.877 470.4 391.877 469.6C391.877 468.373 391.657 467.393 391.217 466.66C390.79 465.927 390.123 465.56 389.217 465.56ZM400.199 464.08C401.065 464.08 401.812 464.28 402.439 464.68C403.065 465.08 403.545 465.647 403.879 466.38C404.225 467.1 404.399 467.947 404.399 468.92V469.98H397.519C397.545 471.193 397.832 472.12 398.379 472.76C398.925 473.387 399.692 473.7 400.679 473.7C401.319 473.7 401.885 473.64 402.379 473.52C402.885 473.387 403.405 473.2 403.939 472.96V474.5C403.419 474.74 402.905 474.913 402.399 475.02C401.905 475.14 401.305 475.2 400.599 475.2C399.639 475.2 398.792 474.993 398.059 474.58C397.325 474.167 396.752 473.553 396.339 472.74C395.925 471.913 395.719 470.907 395.719 469.72C395.719 468.547 395.905 467.54 396.279 466.7C396.652 465.86 397.172 465.213 397.839 464.76C398.519 464.307 399.305 464.08 400.199 464.08ZM400.199 465.52C399.425 465.52 398.812 465.793 398.359 466.34C397.905 466.873 397.639 467.62 397.559 468.58H402.599C402.599 467.967 402.512 467.433 402.339 466.98C402.165 466.527 401.899 466.173 401.539 465.92C401.192 465.653 400.745 465.52 400.199 465.52ZM410.783 464.1C412.01 464.1 412.923 464.387 413.523 464.96C414.136 465.533 414.443 466.447 414.443 467.7V475H413.183L412.843 473.48H412.763C412.47 473.867 412.17 474.193 411.863 474.46C411.57 474.713 411.223 474.9 410.823 475.02C410.436 475.14 409.956 475.2 409.383 475.2C408.783 475.2 408.243 475.087 407.763 474.86C407.283 474.633 406.903 474.287 406.623 473.82C406.343 473.34 406.203 472.74 406.203 472.02C406.203 470.953 406.596 470.133 407.383 469.56C408.17 468.973 409.383 468.653 411.023 468.6L412.723 468.54V467.9C412.723 467.007 412.543 466.387 412.183 466.04C411.836 465.693 411.336 465.52 410.683 465.52C410.163 465.52 409.663 465.607 409.183 465.78C408.716 465.94 408.27 466.127 407.843 466.34L407.303 465.02C407.756 464.767 408.283 464.553 408.883 464.38C409.483 464.193 410.116 464.1 410.783 464.1ZM411.263 469.82C410.036 469.873 409.183 470.087 408.703 470.46C408.236 470.833 408.003 471.36 408.003 472.04C408.003 472.64 408.17 473.08 408.503 473.36C408.836 473.64 409.27 473.78 409.803 473.78C410.63 473.78 411.323 473.533 411.883 473.04C412.443 472.533 412.723 471.76 412.723 470.72V469.76L411.263 469.82ZM425.348 475H423.588V465.74H420.648C420.528 467.433 420.368 468.88 420.168 470.08C419.981 471.267 419.741 472.233 419.448 472.98C419.168 473.727 418.828 474.273 418.428 474.62C418.028 474.967 417.555 475.14 417.008 475.14C416.835 475.14 416.661 475.127 416.488 475.1C416.328 475.087 416.195 475.053 416.088 475V473.68C416.168 473.707 416.255 473.727 416.348 473.74C416.441 473.753 416.535 473.76 416.628 473.76C416.895 473.76 417.135 473.64 417.348 473.4C417.575 473.16 417.775 472.793 417.948 472.3C418.135 471.807 418.301 471.187 418.448 470.44C418.595 469.68 418.721 468.787 418.828 467.76C418.948 466.733 419.055 465.573 419.148 464.28H425.348V475ZM430.145 470.82C430.145 470.94 430.139 471.113 430.125 471.34C430.125 471.553 430.119 471.787 430.105 472.04C430.092 472.28 430.079 472.513 430.065 472.74C430.052 472.953 430.039 473.127 430.025 473.26L435.385 464.28H437.505V475H435.885V468.68C435.885 468.467 435.885 468.187 435.885 467.84C435.899 467.493 435.912 467.153 435.925 466.82C435.939 466.473 435.952 466.213 435.965 466.04L430.665 475H428.505V464.28H430.145V470.82ZM443.433 464.08C444.193 464.08 444.853 464.193 445.413 464.42C445.986 464.633 446.433 464.953 446.753 465.38C447.073 465.793 447.233 466.3 447.233 466.9C447.233 467.553 447.059 468.073 446.713 468.46C446.379 468.833 445.919 469.107 445.333 469.28V469.36C445.733 469.48 446.099 469.647 446.433 469.86C446.779 470.073 447.053 470.353 447.253 470.7C447.466 471.047 447.573 471.493 447.573 472.04C447.573 472.627 447.419 473.16 447.113 473.64C446.806 474.12 446.326 474.5 445.673 474.78C445.033 475.06 444.213 475.2 443.213 475.2C442.733 475.2 442.273 475.173 441.833 475.12C441.406 475.067 441.013 474.987 440.653 474.88C440.306 474.773 439.999 474.647 439.733 474.5V472.92C440.159 473.133 440.666 473.327 441.253 473.5C441.839 473.673 442.479 473.76 443.173 473.76C443.679 473.76 444.133 473.7 444.533 473.58C444.933 473.46 445.253 473.273 445.493 473.02C445.733 472.753 445.853 472.393 445.853 471.94C445.853 471.527 445.746 471.193 445.533 470.94C445.319 470.673 444.999 470.473 444.573 470.34C444.159 470.207 443.626 470.14 442.973 470.14H441.653V468.7H442.733C443.599 468.7 444.293 468.58 444.813 468.34C445.333 468.087 445.593 467.66 445.593 467.06C445.593 466.553 445.393 466.173 444.993 465.92C444.606 465.667 444.046 465.54 443.313 465.54C442.766 465.54 442.273 465.6 441.833 465.72C441.406 465.827 440.946 465.993 440.453 466.22L439.833 464.82C440.379 464.567 440.953 464.38 441.553 464.26C442.153 464.14 442.779 464.08 443.433 464.08ZM458.81 469.62C458.81 470.513 458.696 471.307 458.47 472C458.256 472.68 457.943 473.26 457.53 473.74C457.116 474.22 456.616 474.587 456.03 474.84C455.443 475.08 454.79 475.2 454.07 475.2C453.403 475.2 452.783 475.08 452.21 474.84C451.65 474.587 451.156 474.22 450.73 473.74C450.316 473.26 449.996 472.68 449.77 472C449.543 471.307 449.43 470.513 449.43 469.62C449.43 468.433 449.616 467.433 449.99 466.62C450.376 465.793 450.923 465.167 451.63 464.74C452.336 464.3 453.17 464.08 454.13 464.08C455.05 464.08 455.856 464.3 456.55 464.74C457.256 465.167 457.81 465.793 458.21 466.62C458.61 467.433 458.81 468.433 458.81 469.62ZM451.23 469.62C451.23 470.46 451.33 471.193 451.53 471.82C451.73 472.433 452.043 472.907 452.47 473.24C452.896 473.573 453.443 473.74 454.11 473.74C454.776 473.74 455.323 473.573 455.75 473.24C456.176 472.907 456.49 472.433 456.69 471.82C456.903 471.193 457.01 470.46 457.01 469.62C457.01 468.767 456.903 468.04 456.69 467.44C456.49 466.84 456.176 466.38 455.75 466.06C455.323 465.727 454.77 465.56 454.09 465.56C453.09 465.56 452.363 465.92 451.91 466.64C451.456 467.36 451.23 468.353 451.23 469.62ZM469.576 466.98C469.576 467.647 469.389 468.167 469.016 468.54C468.642 468.913 468.156 469.167 467.556 469.3V469.38C468.182 469.473 468.729 469.713 469.196 470.1C469.662 470.473 469.896 471.06 469.896 471.86C469.896 472.313 469.816 472.733 469.656 473.12C469.509 473.507 469.269 473.84 468.936 474.12C468.602 474.4 468.176 474.62 467.656 474.78C467.136 474.927 466.509 475 465.776 475H461.396V464.28H465.756C466.489 464.28 467.142 464.367 467.716 464.54C468.289 464.7 468.742 464.98 469.076 465.38C469.409 465.767 469.576 466.3 469.576 466.98ZM468.096 471.86C468.096 471.247 467.876 470.807 467.436 470.54C467.009 470.273 466.382 470.14 465.556 470.14H463.136V473.58H465.596C466.396 473.58 467.009 473.453 467.436 473.2C467.876 472.933 468.096 472.487 468.096 471.86ZM467.816 467.2C467.816 466.693 467.642 466.327 467.296 466.1C466.962 465.86 466.422 465.74 465.676 465.74H463.136V468.68H465.356C466.169 468.68 466.782 468.56 467.196 468.32C467.609 468.08 467.816 467.707 467.816 467.2ZM476.154 464.1C477.381 464.1 478.294 464.387 478.894 464.96C479.508 465.533 479.814 466.447 479.814 467.7V475H478.554L478.214 473.48H478.134C477.841 473.867 477.541 474.193 477.234 474.46C476.941 474.713 476.594 474.9 476.194 475.02C475.808 475.14 475.328 475.2 474.754 475.2C474.154 475.2 473.614 475.087 473.134 474.86C472.654 474.633 472.274 474.287 471.994 473.82C471.714 473.34 471.574 472.74 471.574 472.02C471.574 470.953 471.968 470.133 472.754 469.56C473.541 468.973 474.754 468.653 476.394 468.6L478.094 468.54V467.9C478.094 467.007 477.914 466.387 477.554 466.04C477.208 465.693 476.708 465.52 476.054 465.52C475.534 465.52 475.034 465.607 474.554 465.78C474.088 465.94 473.641 466.127 473.214 466.34L472.674 465.02C473.128 464.767 473.654 464.553 474.254 464.38C474.854 464.193 475.488 464.1 476.154 464.1ZM476.634 469.82C475.408 469.873 474.554 470.087 474.074 470.46C473.608 470.833 473.374 471.36 473.374 472.04C473.374 472.64 473.541 473.08 473.874 473.36C474.208 473.64 474.641 473.78 475.174 473.78C476.001 473.78 476.694 473.533 477.254 473.04C477.814 472.533 478.094 471.76 478.094 470.72V469.76L476.634 469.82ZM489.999 465.76H486.699V475H484.979V465.76H481.719V464.28H489.999V465.76ZM496.642 468.68C497.522 468.68 498.255 468.793 498.842 469.02C499.428 469.247 499.868 469.587 500.162 470.04C500.468 470.48 500.622 471.04 500.622 471.72C500.622 472.387 500.482 472.967 500.202 473.46C499.922 473.953 499.482 474.333 498.882 474.6C498.295 474.867 497.528 475 496.582 475H491.982V464.28H493.722V468.68H496.642ZM498.882 471.82C498.882 471.167 498.668 470.727 498.242 470.5C497.815 470.26 497.222 470.14 496.462 470.14H493.722V473.58H496.502C497.182 473.58 497.748 473.447 498.202 473.18C498.655 472.913 498.882 472.46 498.882 471.82ZM35.9147 488.12C36.9281 488.213 37.8081 488.493 38.5547 488.96C39.3014 489.427 39.8814 490.053 40.2947 490.84C40.7214 491.627 40.9347 492.56 40.9347 493.64C40.9347 494.72 40.7347 495.66 40.3347 496.46C39.9347 497.247 39.3614 497.873 38.6147 498.34C37.8681 498.793 36.9681 499.067 35.9147 499.16V503.8H34.2147V499.16C33.2147 499.067 32.3347 498.793 31.5747 498.34C30.8281 497.873 30.2414 497.247 29.8147 496.46C29.4014 495.66 29.1947 494.72 29.1947 493.64C29.1947 492.547 29.3947 491.607 29.7947 490.82C30.1947 490.02 30.7747 489.393 31.5347 488.94C32.2947 488.473 33.2081 488.2 34.2747 488.12V483.8H35.9147V488.12ZM34.2747 489.58C33.5147 489.66 32.8947 489.867 32.4147 490.2C31.9347 490.533 31.5814 490.987 31.3547 491.56C31.1281 492.133 31.0147 492.827 31.0147 493.64C31.0147 494.44 31.1281 495.133 31.3547 495.72C31.5814 496.293 31.9347 496.753 32.4147 497.1C32.8947 497.433 33.5147 497.64 34.2747 497.72V489.58ZM35.9147 497.72C36.6481 497.627 37.2481 497.413 37.7147 497.08C38.1947 496.747 38.5481 496.293 38.7747 495.72C39.0147 495.133 39.1347 494.44 39.1347 493.64C39.1347 492.84 39.0147 492.153 38.7747 491.58C38.5481 491.007 38.1947 490.553 37.7147 490.22C37.2347 489.887 36.6347 489.68 35.9147 489.6V497.72ZM41.7889 488.28H43.6689L45.8089 494.38C45.9423 494.74 46.0623 495.087 46.1689 495.42C46.2756 495.753 46.3689 496.08 46.4489 496.4C46.5289 496.707 46.5889 497.007 46.6289 497.3H46.6889C46.7689 496.967 46.8823 496.533 47.0289 496C47.1889 495.453 47.3556 494.907 47.5289 494.36L49.5489 488.28H51.4489L47.1089 500.48C46.8689 501.147 46.5823 501.727 46.2489 502.22C45.9289 502.727 45.5356 503.113 45.0689 503.38C44.6023 503.66 44.0423 503.8 43.3889 503.8C43.0956 503.8 42.8289 503.78 42.5889 503.74C42.3623 503.713 42.1689 503.68 42.0089 503.64V502.24C42.1423 502.267 42.3089 502.293 42.5089 502.32C42.7089 502.347 42.9156 502.36 43.1289 502.36C43.5156 502.36 43.8489 502.28 44.1289 502.12C44.4089 501.973 44.6489 501.753 44.8489 501.46C45.0489 501.18 45.2156 500.847 45.3489 500.46L45.8489 499.04L41.7889 488.28ZM54.7764 488.28V492.74H60.1364V488.28H61.8764V499H60.1364V494.22H54.7764V499H53.0364V488.28H54.7764ZM71.0486 488.28H72.9486L68.6686 493.44L73.3086 499H71.2886L66.7686 493.56V499H65.0286V488.28H66.7686V493.48L71.0486 488.28ZM85.1272 502.72H83.4472V499H75.0872V488.28H76.8272V497.52H81.9472V488.28H83.6872V497.54H85.1272V502.72ZM88.6803 494.82C88.6803 494.94 88.6737 495.113 88.6603 495.34C88.6603 495.553 88.6537 495.787 88.6403 496.04C88.627 496.28 88.6137 496.513 88.6003 496.74C88.587 496.953 88.5737 497.127 88.5603 497.26L93.9203 488.28H96.0403V499H94.4203V492.68C94.4203 492.467 94.4203 492.187 94.4203 491.84C94.4337 491.493 94.447 491.153 94.4603 490.82C94.4737 490.473 94.487 490.213 94.5003 490.04L89.2003 499H87.0403V488.28H88.6803V494.82ZM108.048 493.62C108.048 494.513 107.935 495.307 107.708 496C107.495 496.68 107.181 497.26 106.768 497.74C106.355 498.22 105.855 498.587 105.268 498.84C104.681 499.08 104.028 499.2 103.308 499.2C102.641 499.2 102.021 499.08 101.448 498.84C100.888 498.587 100.395 498.22 99.9678 497.74C99.5545 497.26 99.2345 496.68 99.0078 496C98.7812 495.307 98.6678 494.513 98.6678 493.62C98.6678 492.433 98.8545 491.433 99.2278 490.62C99.6145 489.793 100.161 489.167 100.868 488.74C101.575 488.3 102.408 488.08 103.368 488.08C104.288 488.08 105.095 488.3 105.788 488.74C106.495 489.167 107.048 489.793 107.448 490.62C107.848 491.433 108.048 492.433 108.048 493.62ZM100.468 493.62C100.468 494.46 100.568 495.193 100.768 495.82C100.968 496.433 101.281 496.907 101.708 497.24C102.135 497.573 102.681 497.74 103.348 497.74C104.015 497.74 104.561 497.573 104.988 497.24C105.415 496.907 105.728 496.433 105.928 495.82C106.141 495.193 106.248 494.46 106.248 493.62C106.248 492.767 106.141 492.04 105.928 491.44C105.728 490.84 105.415 490.38 104.988 490.06C104.561 489.727 104.008 489.56 103.328 489.56C102.328 489.56 101.601 489.92 101.148 490.64C100.695 491.36 100.468 492.353 100.468 493.62ZM112.374 488.28V492.74H117.734V488.28H119.474V499H117.734V494.22H112.374V499H110.634V488.28H112.374ZM126.486 488.1C127.713 488.1 128.626 488.387 129.226 488.96C129.84 489.533 130.146 490.447 130.146 491.7V499H128.886L128.546 497.48H128.466C128.173 497.867 127.873 498.193 127.566 498.46C127.273 498.713 126.926 498.9 126.526 499.02C126.14 499.14 125.66 499.2 125.086 499.2C124.486 499.2 123.946 499.087 123.466 498.86C122.986 498.633 122.606 498.287 122.326 497.82C122.046 497.34 121.906 496.74 121.906 496.02C121.906 494.953 122.3 494.133 123.086 493.56C123.873 492.973 125.086 492.653 126.726 492.6L128.426 492.54V491.9C128.426 491.007 128.246 490.387 127.886 490.04C127.54 489.693 127.04 489.52 126.386 489.52C125.866 489.52 125.366 489.607 124.886 489.78C124.42 489.94 123.973 490.127 123.546 490.34L123.006 489.02C123.46 488.767 123.986 488.553 124.586 488.38C125.186 488.193 125.82 488.1 126.486 488.1ZM126.966 493.82C125.74 493.873 124.886 494.087 124.406 494.46C123.94 494.833 123.706 495.36 123.706 496.04C123.706 496.64 123.873 497.08 124.206 497.36C124.54 497.64 124.973 497.78 125.506 497.78C126.333 497.78 127.026 497.533 127.586 497.04C128.146 496.533 128.426 495.76 128.426 494.72V493.76L126.966 493.82ZM141.051 499H139.291V489.74H136.351C136.231 491.433 136.071 492.88 135.871 494.08C135.685 495.267 135.445 496.233 135.151 496.98C134.871 497.727 134.531 498.273 134.131 498.62C133.731 498.967 133.258 499.14 132.711 499.14C132.538 499.14 132.365 499.127 132.191 499.1C132.031 499.087 131.898 499.053 131.791 499V497.68C131.871 497.707 131.958 497.727 132.051 497.74C132.145 497.753 132.238 497.76 132.331 497.76C132.598 497.76 132.838 497.64 133.051 497.4C133.278 497.16 133.478 496.793 133.651 496.3C133.838 495.807 134.005 495.187 134.151 494.44C134.298 493.68 134.425 492.787 134.531 491.76C134.651 490.733 134.758 489.573 134.851 488.28H141.051V499ZM146.288 496.9C146.182 497.367 146.035 497.873 145.848 498.42C145.675 498.967 145.482 499.507 145.268 500.04C145.068 500.587 144.868 501.1 144.668 501.58H143.388C143.508 501.073 143.628 500.527 143.748 499.94C143.868 499.367 143.982 498.8 144.088 498.24C144.195 497.667 144.275 497.147 144.328 496.68H146.148L146.288 496.9ZM158.229 499.2C157.323 499.2 156.523 499.007 155.829 498.62C155.136 498.233 154.589 497.633 154.189 496.82C153.803 496.007 153.609 494.967 153.609 493.7C153.609 492.38 153.816 491.307 154.229 490.48C154.643 489.653 155.203 489.047 155.909 488.66C156.629 488.273 157.443 488.08 158.349 488.08C158.869 488.08 159.369 488.14 159.849 488.26C160.343 488.367 160.743 488.5 161.049 488.66L160.509 490.12C160.203 490 159.843 489.887 159.429 489.78C159.029 489.673 158.656 489.62 158.309 489.62C157.656 489.62 157.116 489.773 156.689 490.08C156.263 490.387 155.943 490.84 155.729 491.44C155.516 492.04 155.409 492.787 155.409 493.68C155.409 494.533 155.516 495.26 155.729 495.86C155.943 496.46 156.256 496.913 156.669 497.22C157.096 497.527 157.616 497.68 158.229 497.68C158.776 497.68 159.263 497.62 159.689 497.5C160.116 497.38 160.509 497.233 160.869 497.06V498.62C160.523 498.807 160.143 498.947 159.729 499.04C159.316 499.147 158.816 499.2 158.229 499.2ZM172.071 493.62C172.071 494.513 171.958 495.307 171.731 496C171.518 496.68 171.205 497.26 170.791 497.74C170.378 498.22 169.878 498.587 169.291 498.84C168.705 499.08 168.051 499.2 167.331 499.2C166.665 499.2 166.045 499.08 165.471 498.84C164.911 498.587 164.418 498.22 163.991 497.74C163.578 497.26 163.258 496.68 163.031 496C162.805 495.307 162.691 494.513 162.691 493.62C162.691 492.433 162.878 491.433 163.251 490.62C163.638 489.793 164.185 489.167 164.891 488.74C165.598 488.3 166.431 488.08 167.391 488.08C168.311 488.08 169.118 488.3 169.811 488.74C170.518 489.167 171.071 489.793 171.471 490.62C171.871 491.433 172.071 492.433 172.071 493.62ZM164.491 493.62C164.491 494.46 164.591 495.193 164.791 495.82C164.991 496.433 165.305 496.907 165.731 497.24C166.158 497.573 166.705 497.74 167.371 497.74C168.038 497.74 168.585 497.573 169.011 497.24C169.438 496.907 169.751 496.433 169.951 495.82C170.165 495.193 170.271 494.46 170.271 493.62C170.271 492.767 170.165 492.04 169.951 491.44C169.751 490.84 169.438 490.38 169.011 490.06C168.585 489.727 168.031 489.56 167.351 489.56C166.351 489.56 165.625 489.92 165.171 490.64C164.718 491.36 164.491 492.353 164.491 493.62ZM177.398 488.08C178.158 488.08 178.818 488.193 179.378 488.42C179.951 488.633 180.398 488.953 180.718 489.38C181.038 489.793 181.198 490.3 181.198 490.9C181.198 491.553 181.024 492.073 180.678 492.46C180.344 492.833 179.884 493.107 179.298 493.28V493.36C179.698 493.48 180.064 493.647 180.398 493.86C180.744 494.073 181.018 494.353 181.218 494.7C181.431 495.047 181.538 495.493 181.538 496.04C181.538 496.627 181.384 497.16 181.078 497.64C180.771 498.12 180.291 498.5 179.638 498.78C178.998 499.06 178.178 499.2 177.178 499.2C176.698 499.2 176.238 499.173 175.798 499.12C175.371 499.067 174.978 498.987 174.618 498.88C174.271 498.773 173.964 498.647 173.698 498.5V496.92C174.124 497.133 174.631 497.327 175.218 497.5C175.804 497.673 176.444 497.76 177.138 497.76C177.644 497.76 178.098 497.7 178.498 497.58C178.898 497.46 179.218 497.273 179.458 497.02C179.698 496.753 179.818 496.393 179.818 495.94C179.818 495.527 179.711 495.193 179.498 494.94C179.284 494.673 178.964 494.473 178.538 494.34C178.124 494.207 177.591 494.14 176.938 494.14H175.618V492.7H176.698C177.564 492.7 178.258 492.58 178.778 492.34C179.298 492.087 179.558 491.66 179.558 491.06C179.558 490.553 179.358 490.173 178.958 489.92C178.571 489.667 178.011 489.54 177.278 489.54C176.731 489.54 176.238 489.6 175.798 489.72C175.371 489.827 174.911 489.993 174.418 490.22L173.798 488.82C174.344 488.567 174.918 488.38 175.518 488.26C176.118 488.14 176.744 488.08 177.398 488.08ZM191.574 488.28V497.52H193.034V502.72H191.374V499H184.374V502.72H182.714V497.52H183.534C184.108 496.667 184.581 495.74 184.954 494.74C185.328 493.727 185.608 492.673 185.794 491.58C185.994 490.473 186.101 489.373 186.114 488.28H191.574ZM187.654 489.66C187.601 490.567 187.468 491.507 187.254 492.48C187.054 493.44 186.788 494.36 186.454 495.24C186.134 496.12 185.761 496.88 185.334 497.52H189.874V489.66H187.654ZM198.83 488.1C200.057 488.1 200.97 488.387 201.57 488.96C202.183 489.533 202.49 490.447 202.49 491.7V499H201.23L200.89 497.48H200.81C200.517 497.867 200.217 498.193 199.91 498.46C199.617 498.713 199.27 498.9 198.87 499.02C198.483 499.14 198.003 499.2 197.43 499.2C196.83 499.2 196.29 499.087 195.81 498.86C195.33 498.633 194.95 498.287 194.67 497.82C194.39 497.34 194.25 496.74 194.25 496.02C194.25 494.953 194.643 494.133 195.43 493.56C196.217 492.973 197.43 492.653 199.07 492.6L200.77 492.54V491.9C200.77 491.007 200.59 490.387 200.23 490.04C199.883 489.693 199.383 489.52 198.73 489.52C198.21 489.52 197.71 489.607 197.23 489.78C196.763 489.94 196.317 490.127 195.89 490.34L195.35 489.02C195.803 488.767 196.33 488.553 196.93 488.38C197.53 488.193 198.163 488.1 198.83 488.1ZM199.31 493.82C198.083 493.873 197.23 494.087 196.75 494.46C196.283 494.833 196.05 495.36 196.05 496.04C196.05 496.64 196.217 497.08 196.55 497.36C196.883 497.64 197.317 497.78 197.85 497.78C198.677 497.78 199.37 497.533 199.93 497.04C200.49 496.533 200.77 495.76 200.77 494.72V493.76L199.31 493.82ZM218.755 493.62C218.755 494.807 218.575 495.82 218.215 496.66C217.855 497.487 217.335 498.12 216.655 498.56C215.988 498.987 215.195 499.2 214.275 499.2C213.435 499.2 212.688 499.013 212.035 498.64C211.395 498.253 210.882 497.693 210.495 496.96C210.122 496.213 209.902 495.3 209.835 494.22H207.335V499H205.595V488.28H207.335V492.74H209.855C209.948 491.727 210.182 490.88 210.555 490.2C210.942 489.507 211.455 488.98 212.095 488.62C212.735 488.26 213.475 488.08 214.315 488.08C215.195 488.08 215.968 488.3 216.635 488.74C217.302 489.167 217.822 489.793 218.195 490.62C218.568 491.433 218.755 492.433 218.755 493.62ZM211.615 493.62C211.615 494.513 211.708 495.267 211.895 495.88C212.082 496.493 212.375 496.96 212.775 497.28C213.175 497.587 213.682 497.74 214.295 497.74C214.922 497.74 215.428 497.587 215.815 497.28C216.215 496.96 216.502 496.493 216.675 495.88C216.862 495.267 216.955 494.513 216.955 493.62C216.955 492.727 216.862 491.98 216.675 491.38C216.488 490.78 216.202 490.327 215.815 490.02C215.428 489.713 214.922 489.56 214.295 489.56C213.682 489.56 213.175 489.713 212.775 490.02C212.375 490.327 212.082 490.78 211.895 491.38C211.708 491.98 211.615 492.727 211.615 493.62ZM235.137 488.28V497.54H236.597V502.7H234.877V499H221.357V488.28H223.097V497.52H227.377V488.28H229.117V497.52H233.397V488.28H235.137ZM240.145 494.82C240.145 494.94 240.139 495.113 240.125 495.34C240.125 495.553 240.119 495.787 240.105 496.04C240.092 496.28 240.079 496.513 240.065 496.74C240.052 496.953 240.039 497.127 240.025 497.26L245.385 488.28H247.505V499H245.885V492.68C245.885 492.467 245.885 492.187 245.885 491.84C245.899 491.493 245.912 491.153 245.925 490.82C245.939 490.473 245.952 490.213 245.965 490.04L240.665 499H238.505V488.28H240.145V494.82ZM258.973 483.84C258.919 484.507 258.759 485.067 258.493 485.52C258.239 485.973 257.853 486.313 257.333 486.54C256.826 486.767 256.166 486.88 255.353 486.88C254.513 486.88 253.839 486.767 253.333 486.54C252.839 486.313 252.473 485.98 252.233 485.54C252.006 485.087 251.866 484.52 251.813 483.84H253.433C253.499 484.56 253.679 485.047 253.973 485.3C254.266 485.54 254.733 485.66 255.373 485.66C255.959 485.66 256.419 485.533 256.753 485.28C257.086 485.013 257.279 484.533 257.333 483.84H258.973ZM252.333 494.82C252.333 494.94 252.326 495.113 252.313 495.34C252.313 495.553 252.306 495.787 252.293 496.04C252.279 496.28 252.266 496.513 252.253 496.74C252.239 496.953 252.226 497.127 252.213 497.26L257.573 488.28H259.693V499H258.073V492.68C258.073 492.467 258.073 492.187 258.073 491.84C258.086 491.493 258.099 491.153 258.113 490.82C258.126 490.473 258.139 490.213 258.153 490.04L252.853 499H250.693V488.28H252.333V494.82ZM266.203 488.28H268.083L270.223 494.38C270.356 494.74 270.476 495.087 270.583 495.42C270.69 495.753 270.783 496.08 270.863 496.4C270.943 496.707 271.003 497.007 271.043 497.3H271.103C271.183 496.967 271.296 496.533 271.443 496C271.603 495.453 271.77 494.907 271.943 494.36L273.963 488.28H275.863L271.523 500.48C271.283 501.147 270.996 501.727 270.663 502.22C270.343 502.727 269.95 503.113 269.483 503.38C269.016 503.66 268.456 503.8 267.803 503.8C267.51 503.8 267.243 503.78 267.003 503.74C266.776 503.713 266.583 503.68 266.423 503.64V502.24C266.556 502.267 266.723 502.293 266.923 502.32C267.123 502.347 267.33 502.36 267.543 502.36C267.93 502.36 268.263 502.28 268.543 502.12C268.823 501.973 269.063 501.753 269.263 501.46C269.463 501.18 269.63 500.847 269.763 500.46L270.263 499.04L266.203 488.28ZM284.699 488.28V497.52H286.159V502.72H284.499V499H277.499V502.72H275.839V497.52H276.659C277.233 496.667 277.706 495.74 278.079 494.74C278.453 493.727 278.733 492.673 278.919 491.58C279.119 490.473 279.226 489.373 279.239 488.28H284.699ZM280.779 489.66C280.726 490.567 280.593 491.507 280.379 492.48C280.179 493.44 279.913 494.36 279.579 495.24C279.259 496.12 278.886 496.88 278.459 497.52H282.999V489.66H280.779ZM296.915 493.62C296.915 494.513 296.802 495.307 296.575 496C296.362 496.68 296.048 497.26 295.635 497.74C295.222 498.22 294.722 498.587 294.135 498.84C293.548 499.08 292.895 499.2 292.175 499.2C291.508 499.2 290.888 499.08 290.315 498.84C289.755 498.587 289.262 498.22 288.835 497.74C288.422 497.26 288.102 496.68 287.875 496C287.648 495.307 287.535 494.513 287.535 493.62C287.535 492.433 287.722 491.433 288.095 490.62C288.482 489.793 289.028 489.167 289.735 488.74C290.442 488.3 291.275 488.08 292.235 488.08C293.155 488.08 293.962 488.3 294.655 488.74C295.362 489.167 295.915 489.793 296.315 490.62C296.715 491.433 296.915 492.433 296.915 493.62ZM289.335 493.62C289.335 494.46 289.435 495.193 289.635 495.82C289.835 496.433 290.148 496.907 290.575 497.24C291.002 497.573 291.548 497.74 292.215 497.74C292.882 497.74 293.428 497.573 293.855 497.24C294.282 496.907 294.595 496.433 294.795 495.82C295.008 495.193 295.115 494.46 295.115 493.62C295.115 492.767 295.008 492.04 294.795 491.44C294.595 490.84 294.282 490.38 293.855 490.06C293.428 489.727 292.875 489.56 292.195 489.56C291.195 489.56 290.468 489.92 290.015 490.64C289.562 491.36 289.335 492.353 289.335 493.62ZM298.981 492.56C298.981 491 299.128 489.673 299.421 488.58C299.728 487.473 300.195 486.593 300.821 485.94C301.461 485.273 302.281 484.827 303.281 484.6C304.081 484.413 304.868 484.247 305.641 484.1C306.415 483.953 307.141 483.82 307.821 483.7L308.121 485.24C307.788 485.293 307.421 485.36 307.021 485.44C306.621 485.507 306.215 485.58 305.801 485.66C305.401 485.727 305.008 485.8 304.621 485.88C304.248 485.947 303.915 486.013 303.621 486.08C303.208 486.173 302.835 486.333 302.501 486.56C302.181 486.773 301.901 487.067 301.661 487.44C301.435 487.813 301.248 488.273 301.101 488.82C300.968 489.367 300.888 490.013 300.861 490.76H300.981C301.155 490.507 301.395 490.247 301.701 489.98C302.008 489.713 302.375 489.487 302.801 489.3C303.228 489.113 303.715 489.02 304.261 489.02C305.128 489.02 305.855 489.227 306.441 489.64C307.028 490.04 307.468 490.6 307.761 491.32C308.068 492.04 308.221 492.88 308.221 493.84C308.221 495.027 308.021 496.02 307.621 496.82C307.235 497.62 306.695 498.22 306.001 498.62C305.308 499.007 304.501 499.2 303.581 499.2C302.888 499.2 302.255 499.06 301.681 498.78C301.121 498.487 300.635 498.06 300.221 497.5C299.821 496.94 299.515 496.247 299.301 495.42C299.088 494.593 298.981 493.64 298.981 492.56ZM303.721 497.74C304.255 497.74 304.721 497.62 305.121 497.38C305.521 497.14 305.828 496.747 306.041 496.2C306.268 495.653 306.381 494.927 306.381 494.02C306.381 492.927 306.195 492.067 305.821 491.44C305.448 490.8 304.835 490.48 303.981 490.48C303.435 490.48 302.941 490.613 302.501 490.88C302.061 491.133 301.688 491.427 301.381 491.76C301.088 492.093 300.881 492.373 300.761 492.6C300.761 493.253 300.801 493.887 300.881 494.5C300.975 495.113 301.128 495.667 301.341 496.16C301.568 496.64 301.868 497.027 302.241 497.32C302.628 497.6 303.121 497.74 303.721 497.74ZM314.87 499.2C313.963 499.2 313.163 499.007 312.47 498.62C311.777 498.233 311.23 497.633 310.83 496.82C310.443 496.007 310.25 494.967 310.25 493.7C310.25 492.38 310.457 491.307 310.87 490.48C311.283 489.653 311.843 489.047 312.55 488.66C313.27 488.273 314.083 488.08 314.99 488.08C315.51 488.08 316.01 488.14 316.49 488.26C316.983 488.367 317.383 488.5 317.69 488.66L317.15 490.12C316.843 490 316.483 489.887 316.07 489.78C315.67 489.673 315.297 489.62 314.95 489.62C314.297 489.62 313.757 489.773 313.33 490.08C312.903 490.387 312.583 490.84 312.37 491.44C312.157 492.04 312.05 492.787 312.05 493.68C312.05 494.533 312.157 495.26 312.37 495.86C312.583 496.46 312.897 496.913 313.31 497.22C313.737 497.527 314.257 497.68 314.87 497.68C315.417 497.68 315.903 497.62 316.33 497.5C316.757 497.38 317.15 497.233 317.51 497.06V498.62C317.163 498.807 316.783 498.947 316.37 499.04C315.957 499.147 315.457 499.2 314.87 499.2ZM326.972 489.76H323.672V499H321.952V489.76H318.692V488.28H326.972V489.76ZM337.134 490.98C337.134 491.647 336.948 492.167 336.574 492.54C336.201 492.913 335.714 493.167 335.114 493.3V493.38C335.741 493.473 336.288 493.713 336.754 494.1C337.221 494.473 337.454 495.06 337.454 495.86C337.454 496.313 337.374 496.733 337.214 497.12C337.068 497.507 336.828 497.84 336.494 498.12C336.161 498.4 335.734 498.62 335.214 498.78C334.694 498.927 334.068 499 333.334 499H328.954V488.28H333.314C334.048 488.28 334.701 488.367 335.274 488.54C335.848 488.7 336.301 488.98 336.634 489.38C336.968 489.767 337.134 490.3 337.134 490.98ZM335.654 495.86C335.654 495.247 335.434 494.807 334.994 494.54C334.568 494.273 333.941 494.14 333.114 494.14H330.694V497.58H333.154C333.954 497.58 334.568 497.453 334.994 497.2C335.434 496.933 335.654 496.487 335.654 495.86ZM335.374 491.2C335.374 490.693 335.201 490.327 334.854 490.1C334.521 489.86 333.981 489.74 333.234 489.74H330.694V492.68H332.914C333.728 492.68 334.341 492.56 334.754 492.32C335.168 492.08 335.374 491.707 335.374 491.2ZM348.673 493.62C348.673 494.513 348.559 495.307 348.333 496C348.119 496.68 347.806 497.26 347.393 497.74C346.979 498.22 346.479 498.587 345.893 498.84C345.306 499.08 344.653 499.2 343.933 499.2C343.266 499.2 342.646 499.08 342.073 498.84C341.513 498.587 341.019 498.22 340.593 497.74C340.179 497.26 339.859 496.68 339.633 496C339.406 495.307 339.293 494.513 339.293 493.62C339.293 492.433 339.479 491.433 339.853 490.62C340.239 489.793 340.786 489.167 341.493 488.74C342.199 488.3 343.033 488.08 343.993 488.08C344.913 488.08 345.719 488.3 346.413 488.74C347.119 489.167 347.673 489.793 348.073 490.62C348.473 491.433 348.673 492.433 348.673 493.62ZM341.093 493.62C341.093 494.46 341.193 495.193 341.393 495.82C341.593 496.433 341.906 496.907 342.333 497.24C342.759 497.573 343.306 497.74 343.973 497.74C344.639 497.74 345.186 497.573 345.613 497.24C346.039 496.907 346.353 496.433 346.553 495.82C346.766 495.193 346.873 494.46 346.873 493.62C346.873 492.767 346.766 492.04 346.553 491.44C346.353 490.84 346.039 490.38 345.613 490.06C345.186 489.727 344.633 489.56 343.953 489.56C342.953 489.56 342.226 489.92 341.773 490.64C341.319 491.36 341.093 492.353 341.093 493.62ZM364.722 488.28V499H362.982V489.78H357.882V499H356.142V488.28H364.722ZM372.76 488.08C374 488.08 374.993 488.54 375.74 489.46C376.5 490.38 376.88 491.767 376.88 493.62C376.88 494.833 376.706 495.86 376.36 496.7C376.013 497.527 375.526 498.153 374.9 498.58C374.286 498.993 373.566 499.2 372.74 499.2C372.22 499.2 371.76 499.127 371.36 498.98C370.973 498.833 370.64 498.647 370.36 498.42C370.08 498.18 369.84 497.92 369.64 497.64H369.52C369.546 497.867 369.573 498.153 369.6 498.5C369.626 498.847 369.64 499.147 369.64 499.4V503.8H367.9V488.28H369.32L369.56 489.74H369.64C369.84 489.433 370.08 489.153 370.36 488.9C370.64 488.647 370.973 488.447 371.36 488.3C371.76 488.153 372.226 488.08 372.76 488.08ZM372.42 489.56C371.753 489.56 371.213 489.7 370.8 489.98C370.4 490.247 370.106 490.653 369.92 491.2C369.733 491.747 369.64 492.44 369.64 493.28V493.62C369.64 494.5 369.72 495.247 369.88 495.86C370.053 496.473 370.346 496.94 370.76 497.26C371.173 497.58 371.74 497.74 372.46 497.74C373.06 497.74 373.553 497.56 373.94 497.2C374.326 496.84 374.613 496.353 374.8 495.74C374.986 495.113 375.08 494.4 375.08 493.6C375.08 492.373 374.86 491.393 374.42 490.66C373.993 489.927 373.326 489.56 372.42 489.56ZM381.122 494.82C381.122 494.94 381.115 495.113 381.102 495.34C381.102 495.553 381.095 495.787 381.082 496.04C381.068 496.28 381.055 496.513 381.042 496.74C381.028 496.953 381.015 497.127 381.002 497.26L386.362 488.28H388.482V499H386.862V492.68C386.862 492.467 386.862 492.187 386.862 491.84C386.875 491.493 386.888 491.153 386.902 490.82C386.915 490.473 386.928 490.213 386.942 490.04L381.642 499H379.482V488.28H381.122V494.82ZM400.612 499.2C399.705 499.2 398.905 499.007 398.212 498.62C397.519 498.233 396.972 497.633 396.572 496.82C396.185 496.007 395.992 494.967 395.992 493.7C395.992 492.38 396.199 491.307 396.612 490.48C397.025 489.653 397.585 489.047 398.292 488.66C399.012 488.273 399.825 488.08 400.732 488.08C401.252 488.08 401.752 488.14 402.232 488.26C402.725 488.367 403.125 488.5 403.432 488.66L402.892 490.12C402.585 490 402.225 489.887 401.812 489.78C401.412 489.673 401.039 489.62 400.692 489.62C400.039 489.62 399.499 489.773 399.072 490.08C398.645 490.387 398.325 490.84 398.112 491.44C397.899 492.04 397.792 492.787 397.792 493.68C397.792 494.533 397.899 495.26 398.112 495.86C398.325 496.46 398.639 496.913 399.052 497.22C399.479 497.527 399.999 497.68 400.612 497.68C401.159 497.68 401.645 497.62 402.072 497.5C402.499 497.38 402.892 497.233 403.252 497.06V498.62C402.905 498.807 402.525 498.947 402.112 499.04C401.699 499.147 401.199 499.2 400.612 499.2ZM414.454 493.62C414.454 494.513 414.341 495.307 414.114 496C413.901 496.68 413.587 497.26 413.174 497.74C412.761 498.22 412.261 498.587 411.674 498.84C411.087 499.08 410.434 499.2 409.714 499.2C409.047 499.2 408.427 499.08 407.854 498.84C407.294 498.587 406.801 498.22 406.374 497.74C405.961 497.26 405.641 496.68 405.414 496C405.187 495.307 405.074 494.513 405.074 493.62C405.074 492.433 405.261 491.433 405.634 490.62C406.021 489.793 406.567 489.167 407.274 488.74C407.981 488.3 408.814 488.08 409.774 488.08C410.694 488.08 411.501 488.3 412.194 488.74C412.901 489.167 413.454 489.793 413.854 490.62C414.254 491.433 414.454 492.433 414.454 493.62ZM406.874 493.62C406.874 494.46 406.974 495.193 407.174 495.82C407.374 496.433 407.687 496.907 408.114 497.24C408.541 497.573 409.087 497.74 409.754 497.74C410.421 497.74 410.967 497.573 411.394 497.24C411.821 496.907 412.134 496.433 412.334 495.82C412.547 495.193 412.654 494.46 412.654 493.62C412.654 492.767 412.547 492.04 412.334 491.44C412.134 490.84 411.821 490.38 411.394 490.06C410.967 489.727 410.414 489.56 409.734 489.56C408.734 489.56 408.007 489.92 407.554 490.64C407.101 491.36 406.874 492.353 406.874 493.62ZM425.22 490.98C425.22 491.647 425.034 492.167 424.66 492.54C424.287 492.913 423.8 493.167 423.2 493.3V493.38C423.827 493.473 424.374 493.713 424.84 494.1C425.307 494.473 425.54 495.06 425.54 495.86C425.54 496.313 425.46 496.733 425.3 497.12C425.154 497.507 424.914 497.84 424.58 498.12C424.247 498.4 423.82 498.62 423.3 498.78C422.78 498.927 422.154 499 421.42 499H417.04V488.28H421.4C422.134 488.28 422.787 488.367 423.36 488.54C423.934 488.7 424.387 488.98 424.72 489.38C425.054 489.767 425.22 490.3 425.22 490.98ZM423.74 495.86C423.74 495.247 423.52 494.807 423.08 494.54C422.654 494.273 422.027 494.14 421.2 494.14H418.78V497.58H421.24C422.04 497.58 422.654 497.453 423.08 497.2C423.52 496.933 423.74 496.487 423.74 495.86ZM423.46 491.2C423.46 490.693 423.287 490.327 422.94 490.1C422.607 489.86 422.067 489.74 421.32 489.74H418.78V492.68H421C421.814 492.68 422.427 492.56 422.84 492.32C423.254 492.08 423.46 491.707 423.46 491.2ZM431.859 488.08C432.725 488.08 433.472 488.28 434.099 488.68C434.725 489.08 435.205 489.647 435.539 490.38C435.885 491.1 436.059 491.947 436.059 492.92V493.98H429.179C429.205 495.193 429.492 496.12 430.039 496.76C430.585 497.387 431.352 497.7 432.339 497.7C432.979 497.7 433.545 497.64 434.039 497.52C434.545 497.387 435.065 497.2 435.599 496.96V498.5C435.079 498.74 434.565 498.913 434.059 499.02C433.565 499.14 432.965 499.2 432.259 499.2C431.299 499.2 430.452 498.993 429.719 498.58C428.985 498.167 428.412 497.553 427.999 496.74C427.585 495.913 427.379 494.907 427.379 493.72C427.379 492.547 427.565 491.54 427.939 490.7C428.312 489.86 428.832 489.213 429.499 488.76C430.179 488.307 430.965 488.08 431.859 488.08ZM431.859 489.52C431.085 489.52 430.472 489.793 430.019 490.34C429.565 490.873 429.299 491.62 429.219 492.58H434.259C434.259 491.967 434.172 491.433 433.999 490.98C433.825 490.527 433.559 490.173 433.199 489.92C432.852 489.653 432.405 489.52 431.859 489.52ZM443.443 488.08C444.683 488.08 445.677 488.54 446.423 489.46C447.183 490.38 447.563 491.767 447.563 493.62C447.563 494.833 447.39 495.86 447.043 496.7C446.697 497.527 446.21 498.153 445.583 498.58C444.97 498.993 444.25 499.2 443.423 499.2C442.903 499.2 442.443 499.127 442.043 498.98C441.657 498.833 441.323 498.647 441.043 498.42C440.763 498.18 440.523 497.92 440.323 497.64H440.203C440.23 497.867 440.257 498.153 440.283 498.5C440.31 498.847 440.323 499.147 440.323 499.4V503.8H438.583V488.28H440.003L440.243 489.74H440.323C440.523 489.433 440.763 489.153 441.043 488.9C441.323 488.647 441.657 488.447 442.043 488.3C442.443 488.153 442.91 488.08 443.443 488.08ZM443.103 489.56C442.437 489.56 441.897 489.7 441.483 489.98C441.083 490.247 440.79 490.653 440.603 491.2C440.417 491.747 440.323 492.44 440.323 493.28V493.62C440.323 494.5 440.403 495.247 440.563 495.86C440.737 496.473 441.03 496.94 441.443 497.26C441.857 497.58 442.423 497.74 443.143 497.74C443.743 497.74 444.237 497.56 444.623 497.2C445.01 496.84 445.297 496.353 445.483 495.74C445.67 495.113 445.763 494.4 445.763 493.6C445.763 492.373 445.543 491.393 445.103 490.66C444.677 489.927 444.01 489.56 443.103 489.56ZM463.965 488.28V499H450.165V488.28H451.905V497.52H456.185V488.28H457.925V497.52H462.205V488.28H463.965ZM471.058 488.08C471.925 488.08 472.671 488.28 473.298 488.68C473.925 489.08 474.405 489.647 474.738 490.38C475.085 491.1 475.258 491.947 475.258 492.92V493.98H468.378C468.405 495.193 468.691 496.12 469.238 496.76C469.785 497.387 470.551 497.7 471.538 497.7C472.178 497.7 472.745 497.64 473.238 497.52C473.745 497.387 474.265 497.2 474.798 496.96V498.5C474.278 498.74 473.765 498.913 473.258 499.02C472.765 499.14 472.165 499.2 471.458 499.2C470.498 499.2 469.651 498.993 468.918 498.58C468.185 498.167 467.611 497.553 467.198 496.74C466.785 495.913 466.578 494.907 466.578 493.72C466.578 492.547 466.765 491.54 467.138 490.7C467.511 489.86 468.031 489.213 468.698 488.76C469.378 488.307 470.165 488.08 471.058 488.08ZM471.058 489.52C470.285 489.52 469.671 489.793 469.218 490.34C468.765 490.873 468.498 491.62 468.418 492.58H473.458C473.458 491.967 473.371 491.433 473.198 490.98C473.025 490.527 472.758 490.173 472.398 489.92C472.051 489.653 471.605 489.52 471.058 489.52ZM479.523 488.28V492.74H484.883V488.28H486.623V499H484.883V494.22H479.523V499H477.783V488.28H479.523ZM491.415 494.82C491.415 494.94 491.408 495.113 491.395 495.34C491.395 495.553 491.388 495.787 491.375 496.04C491.361 496.28 491.348 496.513 491.335 496.74C491.321 496.953 491.308 497.127 491.295 497.26L496.655 488.28H498.775V499H497.155V492.68C497.155 492.467 497.155 492.187 497.155 491.84C497.168 491.493 497.181 491.153 497.195 490.82C497.208 490.473 497.221 490.213 497.235 490.04L491.935 499H489.775V488.28H491.415V494.82ZM503.602 494.82C503.602 494.94 503.596 495.113 503.582 495.34C503.582 495.553 503.576 495.787 503.562 496.04C503.549 496.28 503.536 496.513 503.522 496.74C503.509 496.953 503.496 497.127 503.482 497.26L508.842 488.28H510.962V499H509.342V492.68C509.342 492.467 509.342 492.187 509.342 491.84C509.356 491.493 509.369 491.153 509.382 490.82C509.396 490.473 509.409 490.213 509.422 490.04L504.122 499H501.962V488.28H503.602V494.82ZM176.725 512.08C177.965 512.08 178.958 512.54 179.705 513.46C180.465 514.38 180.845 515.767 180.845 517.62C180.845 518.833 180.671 519.86 180.325 520.7C179.978 521.527 179.491 522.153 178.865 522.58C178.251 522.993 177.531 523.2 176.705 523.2C176.185 523.2 175.725 523.127 175.325 522.98C174.938 522.833 174.605 522.647 174.325 522.42C174.045 522.18 173.805 521.92 173.605 521.64H173.485C173.511 521.867 173.538 522.153 173.565 522.5C173.591 522.847 173.605 523.147 173.605 523.4V527.8H171.865V512.28H173.285L173.525 513.74H173.605C173.805 513.433 174.045 513.153 174.325 512.9C174.605 512.647 174.938 512.447 175.325 512.3C175.725 512.153 176.191 512.08 176.725 512.08ZM176.385 513.56C175.718 513.56 175.178 513.7 174.765 513.98C174.365 514.247 174.071 514.653 173.885 515.2C173.698 515.747 173.605 516.44 173.605 517.28V517.62C173.605 518.5 173.685 519.247 173.845 519.86C174.018 520.473 174.311 520.94 174.725 521.26C175.138 521.58 175.705 521.74 176.425 521.74C177.025 521.74 177.518 521.56 177.905 521.2C178.291 520.84 178.578 520.353 178.765 519.74C178.951 519.113 179.045 518.4 179.045 517.6C179.045 516.373 178.825 515.393 178.385 514.66C177.958 513.927 177.291 513.56 176.385 513.56ZM187.307 512.1C188.533 512.1 189.447 512.387 190.047 512.96C190.66 513.533 190.967 514.447 190.967 515.7V523H189.707L189.367 521.48H189.287C188.993 521.867 188.693 522.193 188.387 522.46C188.093 522.713 187.747 522.9 187.347 523.02C186.96 523.14 186.48 523.2 185.907 523.2C185.307 523.2 184.767 523.087 184.287 522.86C183.807 522.633 183.427 522.287 183.147 521.82C182.867 521.34 182.727 520.74 182.727 520.02C182.727 518.953 183.12 518.133 183.907 517.56C184.693 516.973 185.907 516.653 187.547 516.6L189.247 516.54V515.9C189.247 515.007 189.067 514.387 188.707 514.04C188.36 513.693 187.86 513.52 187.207 513.52C186.687 513.52 186.187 513.607 185.707 513.78C185.24 513.94 184.793 514.127 184.367 514.34L183.827 513.02C184.28 512.767 184.807 512.553 185.407 512.38C186.007 512.193 186.64 512.1 187.307 512.1ZM187.787 517.82C186.56 517.873 185.707 518.087 185.227 518.46C184.76 518.833 184.527 519.36 184.527 520.04C184.527 520.64 184.693 521.08 185.027 521.36C185.36 521.64 185.793 521.78 186.327 521.78C187.153 521.78 187.847 521.533 188.407 521.04C188.967 520.533 189.247 519.76 189.247 518.72V517.76L187.787 517.82ZM196.812 512.08C197.572 512.08 198.232 512.193 198.792 512.42C199.365 512.633 199.812 512.953 200.132 513.38C200.452 513.793 200.612 514.3 200.612 514.9C200.612 515.553 200.438 516.073 200.092 516.46C199.758 516.833 199.298 517.107 198.712 517.28V517.36C199.112 517.48 199.478 517.647 199.812 517.86C200.158 518.073 200.432 518.353 200.632 518.7C200.845 519.047 200.952 519.493 200.952 520.04C200.952 520.627 200.798 521.16 200.492 521.64C200.185 522.12 199.705 522.5 199.052 522.78C198.412 523.06 197.592 523.2 196.592 523.2C196.112 523.2 195.652 523.173 195.212 523.12C194.785 523.067 194.392 522.987 194.032 522.88C193.685 522.773 193.378 522.647 193.112 522.5V520.92C193.538 521.133 194.045 521.327 194.632 521.5C195.218 521.673 195.858 521.76 196.552 521.76C197.058 521.76 197.512 521.7 197.912 521.58C198.312 521.46 198.632 521.273 198.872 521.02C199.112 520.753 199.232 520.393 199.232 519.94C199.232 519.527 199.125 519.193 198.912 518.94C198.698 518.673 198.378 518.473 197.952 518.34C197.538 518.207 197.005 518.14 196.352 518.14H195.032V516.7H196.112C196.978 516.7 197.672 516.58 198.192 516.34C198.712 516.087 198.972 515.66 198.972 515.06C198.972 514.553 198.772 514.173 198.372 513.92C197.985 513.667 197.425 513.54 196.692 513.54C196.145 513.54 195.652 513.6 195.212 513.72C194.785 513.827 194.325 513.993 193.832 514.22L193.212 512.82C193.758 512.567 194.332 512.38 194.932 512.26C195.532 512.14 196.158 512.08 196.812 512.08ZM211.168 523H209.408V513.74H206.468C206.348 515.433 206.188 516.88 205.988 518.08C205.802 519.267 205.562 520.233 205.268 520.98C204.988 521.727 204.648 522.273 204.248 522.62C203.848 522.967 203.375 523.14 202.828 523.14C202.655 523.14 202.482 523.127 202.308 523.1C202.148 523.087 202.015 523.053 201.908 523V521.68C201.988 521.707 202.075 521.727 202.168 521.74C202.262 521.753 202.355 521.76 202.448 521.76C202.715 521.76 202.955 521.64 203.168 521.4C203.395 521.16 203.595 520.793 203.768 520.3C203.955 519.807 204.122 519.187 204.268 518.44C204.415 517.68 204.542 516.787 204.648 515.76C204.768 514.733 204.875 513.573 204.968 512.28H211.168V523ZM215.965 518.82C215.965 518.94 215.959 519.113 215.945 519.34C215.945 519.553 215.939 519.787 215.925 520.04C215.912 520.28 215.899 520.513 215.885 520.74C215.872 520.953 215.859 521.127 215.845 521.26L221.205 512.28H223.325V523H221.705V516.68C221.705 516.467 221.705 516.187 221.705 515.84C221.719 515.493 221.732 515.153 221.745 514.82C221.759 514.473 221.772 514.213 221.785 514.04L216.485 523H214.325V512.28H215.965V518.82ZM228.053 516.18C228.053 516.807 228.213 517.273 228.533 517.58C228.853 517.873 229.32 518.02 229.933 518.02C230.56 518.02 231.126 517.92 231.633 517.72C232.14 517.507 232.66 517.227 233.193 516.88V512.28H234.933V523H233.193V518.22C232.646 518.607 232.093 518.913 231.533 519.14C230.986 519.353 230.34 519.46 229.593 519.46C228.553 519.46 227.746 519.173 227.173 518.6C226.6 518.027 226.313 517.26 226.313 516.3V512.28H228.053V516.18ZM239.835 512.28V516.74H245.195V512.28H246.935V523H245.195V518.22H239.835V523H238.095V512.28H239.835ZM250.087 523V512.28H251.827V516.68H254.347C255.241 516.68 255.974 516.793 256.547 517.02C257.121 517.247 257.547 517.587 257.827 518.04C258.107 518.48 258.247 519.04 258.247 519.72C258.247 520.387 258.107 520.967 257.827 521.46C257.561 521.953 257.134 522.333 256.547 522.6C255.974 522.867 255.221 523 254.287 523H250.087ZM254.127 521.58C254.834 521.58 255.407 521.453 255.847 521.2C256.287 520.933 256.507 520.473 256.507 519.82C256.507 519.167 256.301 518.727 255.887 518.5C255.487 518.26 254.907 518.14 254.147 518.14H251.827V521.58H254.127ZM259.907 523V512.28H261.647V523H259.907ZM267.194 517.52L263.714 512.28H265.694L268.254 516.32L270.774 512.28H272.754L269.274 517.52L272.934 523H270.954L268.254 518.72L265.514 523H263.554L267.194 517.52ZM287.336 512.28V521.52H288.796V526.72H287.136V523H280.136V526.72H278.476V521.52H279.296C279.869 520.667 280.343 519.74 280.716 518.74C281.089 517.727 281.369 516.673 281.556 515.58C281.756 514.473 281.863 513.373 281.876 512.28H287.336ZM283.416 513.66C283.363 514.567 283.229 515.507 283.016 516.48C282.816 517.44 282.549 518.36 282.216 519.24C281.896 520.12 281.523 520.88 281.096 521.52H285.636V513.66H283.416ZM294.652 512.08C295.518 512.08 296.265 512.28 296.892 512.68C297.518 513.08 297.998 513.647 298.332 514.38C298.678 515.1 298.852 515.947 298.852 516.92V517.98H291.972C291.998 519.193 292.285 520.12 292.832 520.76C293.378 521.387 294.145 521.7 295.132 521.7C295.772 521.7 296.338 521.64 296.832 521.52C297.338 521.387 297.858 521.2 298.392 520.96V522.5C297.872 522.74 297.358 522.913 296.852 523.02C296.358 523.14 295.758 523.2 295.052 523.2C294.092 523.2 293.245 522.993 292.512 522.58C291.778 522.167 291.205 521.553 290.792 520.74C290.378 519.913 290.172 518.907 290.172 517.72C290.172 516.547 290.358 515.54 290.732 514.7C291.105 513.86 291.625 513.213 292.292 512.76C292.972 512.307 293.758 512.08 294.652 512.08ZM294.652 513.52C293.878 513.52 293.265 513.793 292.812 514.34C292.358 514.873 292.092 515.62 292.012 516.58H297.052C297.052 515.967 296.965 515.433 296.792 514.98C296.618 514.527 296.352 514.173 295.992 513.92C295.645 513.653 295.198 513.52 294.652 513.52ZM309.656 507.84C309.603 508.507 309.443 509.067 309.176 509.52C308.923 509.973 308.536 510.313 308.016 510.54C307.51 510.767 306.85 510.88 306.036 510.88C305.196 510.88 304.523 510.767 304.016 510.54C303.523 510.313 303.156 509.98 302.916 509.54C302.69 509.087 302.55 508.52 302.496 507.84H304.116C304.183 508.56 304.363 509.047 304.656 509.3C304.95 509.54 305.416 509.66 306.056 509.66C306.643 509.66 307.103 509.533 307.436 509.28C307.77 509.013 307.963 508.533 308.016 507.84H309.656ZM303.016 518.82C303.016 518.94 303.01 519.113 302.996 519.34C302.996 519.553 302.99 519.787 302.976 520.04C302.963 520.28 302.95 520.513 302.936 520.74C302.923 520.953 302.91 521.127 302.896 521.26L308.256 512.28H310.376V523H308.756V516.68C308.756 516.467 308.756 516.187 308.756 515.84C308.77 515.493 308.783 515.153 308.796 514.82C308.81 514.473 308.823 514.213 308.836 514.04L303.536 523H301.376V512.28H303.016V518.82ZM317.624 523.2C316.717 523.2 315.917 523.007 315.224 522.62C314.53 522.233 313.984 521.633 313.584 520.82C313.197 520.007 313.004 518.967 313.004 517.7C313.004 516.38 313.21 515.307 313.624 514.48C314.037 513.653 314.597 513.047 315.304 512.66C316.024 512.273 316.837 512.08 317.744 512.08C318.264 512.08 318.764 512.14 319.244 512.26C319.737 512.367 320.137 512.5 320.444 512.66L319.904 514.12C319.597 514 319.237 513.887 318.824 513.78C318.424 513.673 318.05 513.62 317.704 513.62C317.05 513.62 316.51 513.773 316.084 514.08C315.657 514.387 315.337 514.84 315.124 515.44C314.91 516.04 314.804 516.787 314.804 517.68C314.804 518.533 314.91 519.26 315.124 519.86C315.337 520.46 315.65 520.913 316.064 521.22C316.49 521.527 317.01 521.68 317.624 521.68C318.17 521.68 318.657 521.62 319.084 521.5C319.51 521.38 319.904 521.233 320.264 521.06V522.62C319.917 522.807 319.537 522.947 319.124 523.04C318.71 523.147 318.21 523.2 317.624 523.2ZM329.726 513.76H326.426V523H324.706V513.76H321.446V512.28H329.726V513.76ZM339.888 514.98C339.888 515.647 339.702 516.167 339.328 516.54C338.955 516.913 338.468 517.167 337.868 517.3V517.38C338.495 517.473 339.042 517.713 339.508 518.1C339.975 518.473 340.208 519.06 340.208 519.86C340.208 520.313 340.128 520.733 339.968 521.12C339.822 521.507 339.582 521.84 339.248 522.12C338.915 522.4 338.488 522.62 337.968 522.78C337.448 522.927 336.822 523 336.088 523H331.708V512.28H336.068C336.802 512.28 337.455 512.367 338.028 512.54C338.602 512.7 339.055 512.98 339.388 513.38C339.722 513.767 339.888 514.3 339.888 514.98ZM338.408 519.86C338.408 519.247 338.188 518.807 337.748 518.54C337.322 518.273 336.695 518.14 335.868 518.14H333.448V521.58H335.908C336.708 521.58 337.322 521.453 337.748 521.2C338.188 520.933 338.408 520.487 338.408 519.86ZM338.128 515.2C338.128 514.693 337.955 514.327 337.608 514.1C337.275 513.86 336.735 513.74 335.988 513.74H333.448V516.68H335.668C336.482 516.68 337.095 516.56 337.508 516.32C337.922 516.08 338.128 515.707 338.128 515.2ZM344.247 518.82C344.247 518.94 344.24 519.113 344.227 519.34C344.227 519.553 344.22 519.787 344.207 520.04C344.193 520.28 344.18 520.513 344.167 520.74C344.153 520.953 344.14 521.127 344.127 521.26L349.487 512.28H351.607V523H349.987V516.68C349.987 516.467 349.987 516.187 349.987 515.84C350 515.493 350.013 515.153 350.027 514.82C350.04 514.473 350.053 514.213 350.067 514.04L344.767 523H342.607V512.28H344.247V518.82ZM363.074 507.84C363.021 508.507 362.861 509.067 362.594 509.52C362.341 509.973 361.954 510.313 361.434 510.54C360.928 510.767 360.268 510.88 359.454 510.88C358.614 510.88 357.941 510.767 357.434 510.54C356.941 510.313 356.574 509.98 356.334 509.54C356.108 509.087 355.968 508.52 355.914 507.84H357.534C357.601 508.56 357.781 509.047 358.074 509.3C358.368 509.54 358.834 509.66 359.474 509.66C360.061 509.66 360.521 509.533 360.854 509.28C361.188 509.013 361.381 508.533 361.434 507.84H363.074ZM356.434 518.82C356.434 518.94 356.428 519.113 356.414 519.34C356.414 519.553 356.408 519.787 356.394 520.04C356.381 520.28 356.368 520.513 356.354 520.74C356.341 520.953 356.328 521.127 356.314 521.26L361.674 512.28H363.794V523H362.174V516.68C362.174 516.467 362.174 516.187 362.174 515.84C362.188 515.493 362.201 515.153 362.214 514.82C362.228 514.473 362.241 514.213 362.254 514.04L356.954 523H354.794V512.28H356.434V518.82ZM366.742 521.92C366.742 521.427 366.855 521.08 367.082 520.88C367.308 520.68 367.588 520.58 367.922 520.58C368.255 520.58 368.542 520.68 368.782 520.88C369.022 521.08 369.142 521.427 369.142 521.92C369.142 522.4 369.022 522.747 368.782 522.96C368.542 523.173 368.255 523.28 367.922 523.28C367.588 523.28 367.308 523.173 367.082 522.96C366.855 522.747 366.742 522.4 366.742 521.92Z" fill="white"/>
<path d="M198.59 383.84C197.79 385.707 196.977 387.28 196.15 388.56C195.323 389.84 194.31 390.8 193.11 391.44C191.91 392.08 190.377 392.4 188.51 392.4C187.87 392.4 187.19 392.347 186.47 392.24C185.777 392.133 185.15 391.987 184.59 391.8V387.72C185.15 387.96 185.737 388.147 186.35 388.28C186.99 388.413 187.63 388.48 188.27 388.48C189.15 388.48 189.897 388.347 190.51 388.08C191.123 387.787 191.657 387.36 192.11 386.8C192.563 386.213 192.977 385.453 193.35 384.52L183.31 363.44H188.07L194.55 377.72C194.657 378.013 194.777 378.32 194.91 378.64C195.043 378.96 195.163 379.293 195.27 379.64C195.403 379.96 195.51 380.28 195.59 380.6H195.79C195.87 380.333 195.963 380.04 196.07 379.72C196.177 379.373 196.283 379.04 196.39 378.72C196.523 378.373 196.643 378.067 196.75 377.8L202.39 363.44H207.07L198.59 383.84ZM224.187 370.44V388.64H227.147V399.56H223.107V392H209.347V399.56H205.347V388.64H206.987C208.054 386.987 208.934 385.173 209.627 383.2C210.347 381.227 210.894 379.16 211.267 377C211.667 374.813 211.894 372.627 211.947 370.44H224.187ZM215.627 373.72C215.494 375.453 215.24 377.227 214.867 379.04C214.494 380.853 214.027 382.587 213.467 384.24C212.907 385.893 212.24 387.36 211.467 388.64H219.907V373.72H215.627ZM248.953 381.2C248.953 382.987 248.726 384.573 248.273 385.96C247.82 387.347 247.166 388.52 246.313 389.48C245.486 390.44 244.473 391.173 243.273 391.68C242.073 392.16 240.726 392.4 239.233 392.4C237.873 392.4 236.606 392.16 235.433 391.68C234.26 391.173 233.246 390.44 232.393 389.48C231.54 388.52 230.873 387.347 230.393 385.96C229.94 384.573 229.713 382.973 229.713 381.16C229.713 378.787 230.1 376.773 230.873 375.12C231.646 373.467 232.753 372.213 234.193 371.36C235.66 370.48 237.393 370.04 239.393 370.04C241.26 370.04 242.913 370.48 244.353 371.36C245.793 372.213 246.913 373.467 247.713 375.12C248.54 376.773 248.953 378.8 248.953 381.2ZM234.193 381.2C234.193 382.8 234.366 384.187 234.713 385.36C235.086 386.507 235.646 387.387 236.393 388C237.166 388.613 238.14 388.92 239.313 388.92C240.513 388.92 241.486 388.613 242.233 388C243.006 387.387 243.566 386.507 243.913 385.36C244.286 384.187 244.473 382.8 244.473 381.2C244.473 379.547 244.286 378.16 243.913 377.04C243.54 375.92 242.98 375.067 242.233 374.48C241.486 373.867 240.5 373.56 239.273 373.56C237.486 373.56 236.193 374.227 235.393 375.56C234.593 376.893 234.193 378.773 234.193 381.2ZM252.8 379.08C252.8 375.907 253.12 373.213 253.76 371C254.427 368.787 255.467 367.027 256.88 365.72C258.293 364.387 260.147 363.48 262.44 363C263.933 362.68 265.427 362.387 266.92 362.12C268.413 361.853 269.84 361.613 271.2 361.4L271.8 365.12C271.133 365.2 270.413 365.307 269.64 365.44C268.867 365.573 268.08 365.707 267.28 365.84C266.48 365.973 265.707 366.107 264.96 366.24C264.24 366.373 263.6 366.507 263.04 366.64C262.107 366.8 261.293 367.08 260.6 367.48C259.933 367.88 259.373 368.413 258.92 369.08C258.467 369.747 258.107 370.6 257.84 371.64C257.573 372.653 257.413 373.893 257.36 375.36H257.6C257.92 374.853 258.373 374.333 258.96 373.8C259.547 373.267 260.253 372.827 261.08 372.48C261.933 372.107 262.893 371.92 263.96 371.92C265.64 371.92 267.08 372.32 268.28 373.12C269.48 373.893 270.387 375 271 376.44C271.613 377.853 271.92 379.547 271.92 381.52C271.92 383.947 271.507 385.973 270.68 387.6C269.88 389.2 268.76 390.4 267.32 391.2C265.907 392 264.24 392.4 262.32 392.4C260.88 392.4 259.573 392.12 258.4 391.56C257.227 390.973 256.227 390.12 255.4 389C254.573 387.853 253.933 386.453 253.48 384.8C253.027 383.147 252.8 381.24 252.8 379.08ZM262.64 388.92C263.6 388.92 264.427 388.693 265.12 388.24C265.84 387.787 266.4 387.053 266.8 386.04C267.2 385.027 267.4 383.667 267.4 381.96C267.4 379.907 267.067 378.28 266.4 377.08C265.733 375.88 264.627 375.28 263.08 375.28C262.12 375.28 261.24 375.533 260.44 376.04C259.64 376.52 258.96 377.067 258.4 377.68C257.867 378.293 257.48 378.813 257.24 379.24C257.24 380.493 257.32 381.693 257.48 382.84C257.667 383.987 257.96 385.013 258.36 385.92C258.76 386.827 259.293 387.56 259.96 388.12C260.653 388.653 261.547 388.92 262.64 388.92ZM285.248 392.4C283.354 392.4 281.688 392.013 280.248 391.24C278.834 390.467 277.728 389.267 276.928 387.64C276.154 385.987 275.768 383.893 275.768 381.36C275.768 378.693 276.194 376.533 277.048 374.88C277.901 373.227 279.061 372.013 280.528 371.24C281.994 370.44 283.674 370.04 285.568 370.04C286.688 370.04 287.754 370.173 288.768 370.44C289.808 370.68 290.661 370.96 291.328 371.28L290.008 374.68C289.341 374.413 288.621 374.173 287.848 373.96C287.074 373.747 286.341 373.64 285.648 373.64C284.421 373.64 283.408 373.933 282.608 374.52C281.834 375.08 281.248 375.933 280.848 377.08C280.448 378.2 280.248 379.613 280.248 381.32C280.248 382.947 280.448 384.32 280.848 385.44C281.248 386.56 281.834 387.413 282.608 388C283.408 388.56 284.368 388.84 285.488 388.84C286.581 388.84 287.554 388.707 288.408 388.44C289.288 388.173 290.101 387.827 290.848 387.4V391.08C290.101 391.533 289.288 391.867 288.408 392.08C287.528 392.293 286.474 392.4 285.248 392.4ZM310.84 373.84H304.16V392H299.88V373.84H293.28V370.44H310.84V373.84ZM331.779 375.92C331.779 377.227 331.419 378.267 330.699 379.04C329.979 379.787 328.993 380.293 327.739 380.56V380.72C329.073 380.907 330.179 381.4 331.059 382.2C331.966 382.973 332.419 384.12 332.419 385.64C332.419 386.573 332.259 387.427 331.939 388.2C331.646 388.973 331.153 389.653 330.459 390.24C329.793 390.8 328.913 391.24 327.819 391.56C326.726 391.853 325.406 392 323.859 392H314.739V370.44H323.859C325.406 370.44 326.779 370.613 327.979 370.96C329.179 371.307 330.113 371.88 330.779 372.68C331.446 373.48 331.779 374.56 331.779 375.92ZM327.979 385.56C327.979 384.44 327.593 383.64 326.819 383.16C326.073 382.653 324.953 382.4 323.459 382.4H319.059V388.8H323.499C324.939 388.8 326.046 388.56 326.819 388.08C327.593 387.573 327.979 386.733 327.979 385.56ZM327.419 376.4C327.419 375.467 327.113 374.787 326.499 374.36C325.913 373.933 324.966 373.72 323.659 373.72H319.059V379.16H323.059C324.499 379.16 325.579 378.947 326.299 378.52C327.046 378.067 327.419 377.36 327.419 376.4ZM355.203 381.2C355.203 382.987 354.976 384.573 354.523 385.96C354.07 387.347 353.416 388.52 352.563 389.48C351.736 390.44 350.723 391.173 349.523 391.68C348.323 392.16 346.976 392.4 345.483 392.4C344.123 392.4 342.856 392.16 341.683 391.68C340.51 391.173 339.496 390.44 338.643 389.48C337.79 388.52 337.123 387.347 336.643 385.96C336.19 384.573 335.963 382.973 335.963 381.16C335.963 378.787 336.35 376.773 337.123 375.12C337.896 373.467 339.003 372.213 340.443 371.36C341.91 370.48 343.643 370.04 345.643 370.04C347.51 370.04 349.163 370.48 350.603 371.36C352.043 372.213 353.163 373.467 353.963 375.12C354.79 376.773 355.203 378.8 355.203 381.2ZM340.443 381.2C340.443 382.8 340.616 384.187 340.963 385.36C341.336 386.507 341.896 387.387 342.643 388C343.416 388.613 344.39 388.92 345.563 388.92C346.763 388.92 347.736 388.613 348.483 388C349.256 387.387 349.816 386.507 350.163 385.36C350.536 384.187 350.723 382.8 350.723 381.2C350.723 379.547 350.536 378.16 350.163 377.04C349.79 375.92 349.23 375.067 348.483 374.48C347.736 373.867 346.75 373.56 345.523 373.56C343.736 373.56 342.443 374.227 341.643 375.56C340.843 376.893 340.443 378.773 340.443 381.2Z" fill="white"/>
<path d="M148.587 195.541C148.031 196.097 148.031 196.999 148.587 197.555L157.647 206.614C158.202 207.17 159.104 207.17 159.66 206.614C160.216 206.058 160.216 205.157 159.66 204.601L151.607 196.548L159.66 188.495C160.216 187.939 160.216 187.038 159.66 186.482C159.104 185.926 158.202 185.926 157.647 186.482L148.587 195.541ZM216.085 197.972C216.871 197.972 217.508 197.334 217.508 196.548C217.508 195.762 216.871 195.124 216.085 195.124V197.972ZM149.594 197.972L216.085 197.972V195.124L149.594 195.124V197.972Z" fill="white"/>
<path d="M166.635 100.606C166.079 101.161 166.079 102.063 166.635 102.619L175.694 111.678C176.25 112.234 177.152 112.234 177.708 111.678C178.264 111.122 178.264 110.221 177.708 109.665L169.655 101.612L177.708 93.5593C178.264 93.0034 178.264 92.102 177.708 91.5461C177.152 90.9902 176.25 90.9902 175.694 91.5461L166.635 100.606ZM216.085 103.036C216.871 103.036 217.509 102.398 217.509 101.612C217.509 100.826 216.871 100.189 216.085 100.189V103.036ZM167.642 103.036H216.085V100.189H167.642V103.036Z" fill="white"/>
<path d="M341.467 100.189C340.681 100.189 340.043 100.826 340.043 101.612C340.043 102.398 340.681 103.036 341.467 103.036V100.189ZM386.167 102.619C386.723 102.063 386.723 101.161 386.167 100.606L377.108 91.5461C376.552 90.9902 375.651 90.9902 375.095 91.5461C374.539 92.102 374.539 93.0034 375.095 93.5593L383.148 101.612L375.095 109.665C374.539 110.221 374.539 111.122 375.095 111.678C375.651 112.234 376.552 112.234 377.108 111.678L386.167 102.619ZM341.467 103.036H385.161V100.189H341.467V103.036Z" fill="white"/>
<path d="M341.467 198.922C340.681 198.922 340.043 199.559 340.043 200.345C340.043 201.132 340.681 201.769 341.467 201.769V198.922ZM394.716 201.352C395.272 200.796 395.272 199.895 394.716 199.339L385.657 190.279C385.101 189.724 384.2 189.724 383.644 190.279C383.088 190.835 383.088 191.737 383.644 192.293L391.696 200.345L383.644 208.398C383.088 208.954 383.088 209.856 383.644 210.411C384.2 210.967 385.101 210.967 385.657 210.411L394.716 201.352ZM341.467 201.769H393.71V198.922H341.467V201.769Z" fill="white"/>
<rect x="127.803" y="83.6309" width="35.9829" height="35.9624" rx="4.68822" stroke="white" stroke-width="2.01195"/>
<rect x="105.006" y="178.567" width="35.9829" height="35.9624" rx="4.68822" stroke="white" stroke-width="2.01195"/>
<rect x="391.866" y="83.6309" width="35.9829" height="35.9624" rx="4.68822" stroke="white" stroke-width="2.01195"/>
<rect x="399.467" y="182.364" width="35.9829" height="35.9624" rx="4.68822" stroke="white" stroke-width="2.01195"/>
<rect x="237.456" y="101.137" width="84.5393" height="8.54456" rx="4.27228" stroke="white" stroke-width="0.949033"/>
<rect x="233.657" y="129.618" width="18.0484" height="18.0382" rx="5.21968" stroke="white" stroke-width="0.949033"/>
<rect x="258.353" y="129.618" width="18.0484" height="18.0382" rx="5.21968" stroke="white" stroke-width="0.949033"/>
<rect x="283.05" y="129.618" width="18.0484" height="18.0382" rx="5.21968" stroke="white" stroke-width="0.949033"/>
<rect x="307.747" y="129.618" width="18.0484" height="18.0382" rx="5.21968" stroke="white" stroke-width="0.949033"/>
<rect x="233.657" y="152.403" width="18.0484" height="18.0382" rx="5.21968" stroke="white" stroke-width="0.949033"/>
<rect x="258.353" y="152.403" width="18.0484" height="18.0382" rx="5.21968" stroke="white" stroke-width="0.949033"/>
<rect x="283.05" y="152.403" width="18.0484" height="18.0382" rx="5.21968" stroke="white" stroke-width="0.949033"/>
<rect x="307.747" y="152.403" width="18.0484" height="18.0382" rx="5.21968" stroke="white" stroke-width="0.949033"/>
<rect x="233.657" y="175.187" width="18.0484" height="18.0382" rx="5.21968" stroke="white" stroke-width="0.949033"/>
<rect x="258.353" y="175.187" width="18.0484" height="18.0382" rx="5.21968" stroke="white" stroke-width="0.949033"/>
<rect x="283.05" y="175.187" width="18.0484" height="18.0382" rx="5.21968" stroke="white" stroke-width="0.949033"/>
<rect x="307.747" y="175.187" width="18.0484" height="18.0382" rx="5.21968" stroke="white" stroke-width="0.949033"/>
<rect x="233.657" y="197.972" width="18.0484" height="18.0382" rx="5.21968" stroke="white" stroke-width="0.949033"/>
<rect x="258.353" y="197.972" width="18.0484" height="18.0382" rx="5.21968" stroke="white" stroke-width="0.949033"/>
<rect x="283.05" y="197.972" width="18.0484" height="18.0382" rx="5.21968" stroke="white" stroke-width="0.949033"/>
<rect x="307.747" y="197.972" width="18.0484" height="18.0382" rx="5.21968" stroke="white" stroke-width="0.949033"/>
<g clip-path="url(#clip0_691_945)">
<path d="M153.901 91.0674H138.636C137.699 91.0674 136.939 91.8264 136.939 92.7627V111.411C136.939 112.347 137.699 113.106 138.636 113.106H153.901C154.838 113.106 155.598 112.347 155.598 111.411V92.7627C155.598 91.8264 154.838 91.0674 153.901 91.0674Z" stroke="white" stroke-width="0.949033" stroke-linecap="round" stroke-linejoin="round"/>
<path d="M136.939 99.5439H155.598" stroke="white" stroke-width="0.949033" stroke-linecap="round" stroke-linejoin="round"/>
<path d="M141.604 104.629C141.37 104.629 141.181 104.44 141.181 104.206C141.181 103.972 141.37 103.782 141.604 103.782" stroke="white" stroke-width="0.949033" stroke-linecap="round" stroke-linejoin="round"/>
<path d="M141.604 104.629C141.838 104.629 142.028 104.44 142.028 104.206C142.028 103.972 141.838 103.782 141.604 103.782" stroke="white" stroke-width="0.949033" stroke-linecap="round" stroke-linejoin="round"/>
<path d="M146.267 104.629C146.033 104.629 145.844 104.44 145.844 104.206C145.844 103.972 146.033 103.782 146.267 103.782" stroke="white" stroke-width="0.949033" stroke-linecap="round" stroke-linejoin="round"/>
<path d="M146.268 104.629C146.502 104.629 146.691 104.44 146.691 104.206C146.691 103.972 146.502 103.782 146.268 103.782" stroke="white" stroke-width="0.949033" stroke-linecap="round" stroke-linejoin="round"/>
<path d="M150.932 104.629C150.698 104.629 150.509 104.44 150.509 104.206C150.509 103.972 150.698 103.782 150.932 103.782" stroke="white" stroke-width="0.949033" stroke-linecap="round" stroke-linejoin="round"/>
<path d="M150.933 104.629C151.167 104.629 151.356 104.44 151.356 104.206C151.356 103.972 151.167 103.782 150.933 103.782" stroke="white" stroke-width="0.949033" stroke-linecap="round" stroke-linejoin="round"/>
<path d="M141.604 108.868C141.37 108.868 141.181 108.678 141.181 108.444C141.181 108.21 141.37 108.02 141.604 108.02" stroke="white" stroke-width="0.949033" stroke-linecap="round" stroke-linejoin="round"/>
<path d="M141.604 108.868C141.838 108.868 142.028 108.678 142.028 108.444C142.028 108.21 141.838 108.02 141.604 108.02" stroke="white" stroke-width="0.949033" stroke-linecap="round" stroke-linejoin="round"/>
<path d="M146.267 108.868C146.033 108.868 145.844 108.678 145.844 108.444C145.844 108.21 146.033 108.02 146.267 108.02" stroke="white" stroke-width="0.949033" stroke-linecap="round" stroke-linejoin="round"/>
<path d="M146.268 108.868C146.502 108.868 146.691 108.678 146.691 108.444C146.691 108.21 146.502 108.02 146.268 108.02" stroke="white" stroke-width="0.949033" stroke-linecap="round" stroke-linejoin="round"/>
<path d="M150.932 108.868C150.698 108.868 150.509 108.678 150.509 108.444C150.509 108.21 150.698 108.02 150.932 108.02" stroke="white" stroke-width="0.949033" stroke-linecap="round" stroke-linejoin="round"/>
<path d="M150.933 108.868C151.167 108.868 151.356 108.678 151.356 108.444C151.356 108.21 151.167 108.02 150.933 108.02" stroke="white" stroke-width="0.949033" stroke-linecap="round" stroke-linejoin="round"/>
<path d="M151.357 95.3057H149.661" stroke="white" stroke-width="0.949033" stroke-linecap="round" stroke-linejoin="round"/>
</g>
<g clip-path="url(#clip1_691_945)">
<path d="M123.762 185.177L131.798 196.082L123.762 206.987L115.726 196.082L123.762 185.177Z" stroke="white" stroke-width="0.949033" stroke-linecap="round" stroke-linejoin="round"/>
<path d="M131.798 196.082L123.762 198.749L115.726 196.082" stroke="white" stroke-width="0.949033" stroke-linecap="round" stroke-linejoin="round"/>
</g>
<g clip-path="url(#clip2_691_945)">
<path d="M412.625 99.216C412.539 98.9703 412.404 98.7469 412.234 98.5567C411.872 98.152 411.345 97.8974 410.759 97.8974H409.227C408.252 97.8974 407.461 98.6878 407.461 99.6629C407.461 100.493 408.039 101.21 408.85 101.388L411.182 101.897C412.09 102.096 412.738 102.901 412.738 103.83C412.738 104.923 411.852 105.809 410.759 105.809H409.44C408.578 105.809 407.845 105.258 407.574 104.49" stroke="white" stroke-width="0.949033" stroke-linecap="round" stroke-linejoin="round"/>
<path d="M410.099 97.897V95.9199" stroke="white" stroke-width="0.949033" stroke-linecap="round" stroke-linejoin="round"/>
<path d="M410.099 107.786V105.809" stroke="white" stroke-width="0.949033" stroke-linecap="round" stroke-linejoin="round"/>
<path d="M401.85 113.104V108.865H406.09" stroke="white" stroke-width="0.949033" stroke-linecap="round" stroke-linejoin="round"/>
<path d="M421.169 100.059C422.224 105.667 418.79 111.227 413.184 112.728C408.894 113.877 404.516 112.331 401.85 109.129" stroke="white" stroke-width="0.949033" stroke-linecap="round" stroke-linejoin="round"/>
<path d="M399.498 104.114C398.442 98.5066 401.876 92.947 407.482 91.4457C411.772 90.2967 416.15 91.8421 418.816 95.044" stroke="white" stroke-width="0.949033" stroke-linecap="round" stroke-linejoin="round"/>
<path d="M418.817 91.0703V95.3085H414.576" stroke="white" stroke-width="0.949033" stroke-linecap="round" stroke-linejoin="round"/>
</g>
<g clip-path="url(#clip3_691_945)">
<path d="M424.317 209.716C429.261 206.163 430.387 199.278 426.833 194.337C423.278 189.395 416.389 188.269 411.445 191.822C406.501 195.374 405.375 202.26 408.929 207.201C412.483 212.143 419.373 213.268 424.317 209.716Z" stroke="white" stroke-width="0.949033" stroke-linecap="round" stroke-linejoin="round"/>
<path d="M411.445 191.822L417.881 200.769L428.771 202.549" stroke="white" stroke-width="0.949033" stroke-linecap="round" stroke-linejoin="round"/>
</g>
<rect x="219.939" y="76.0344" width="118.518" height="202.887" rx="11.0483" stroke="white" stroke-width="2.00879"/>
<rect x="225.965" y="84.0696" width="106.466" height="186.817" rx="11.0483" stroke="white" stroke-width="2.00879"/>
<rect x="273.172" y="79.0476" width="10.0439" height="2.00879" rx="1.00439" fill="white"/>
<rect x="285.225" y="79.0476" width="2.00879" height="2.00879" rx="1.00439" fill="white"/>
<defs>
<clipPath id="clip0_691_945">
<rect width="23.7468" height="23.734" fill="white" transform="translate(134.396 90.2198)"/>
</clipPath>
<clipPath id="clip1_691_945">
<rect width="23.7468" height="23.734" fill="white" transform="translate(111.599 184.206)"/>
</clipPath>
<clipPath id="clip2_691_945">
<rect width="23.7468" height="23.734" fill="white" transform="translate(398.461 90.2198)"/>
</clipPath>
<clipPath id="clip3_691_945">
<rect width="23.7424" height="23.7383" fill="white" transform="matrix(0.812095 -0.583525 0.583939 0.811797 401.31 198.061)"/>
</clipPath>
</defs>
</svg>
