<svg width="148" height="66" viewBox="0 0 148 66" fill="none" xmlns="http://www.w3.org/2000/svg">
<rect x="0.323529" y="0.323529" width="38.1765" height="65.3529" rx="3.55882" stroke="white" stroke-width="0.647059"/>
<rect x="2.26469" y="2.91179" width="34.2941" height="60.1765" rx="3.55882" stroke="white" stroke-width="0.647059"/>
<rect x="17.4707" y="1.29419" width="3.23529" height="0.647059" rx="0.323529" fill="white"/>
<rect x="21.353" y="1.29419" width="0.647059" height="0.647059" rx="0.323529" fill="white"/>
<path d="M22.4082 26.1567C22.3067 25.8697 22.1502 25.6087 21.9512 25.3864C21.5281 24.9136 20.9132 24.6161 20.2287 24.6161H18.44C17.3007 24.6161 16.3772 25.5396 16.3772 26.6789C16.3772 27.6483 17.0522 28.4869 17.9992 28.6941L20.7226 29.2898C21.7835 29.5219 22.5397 30.4621 22.5397 31.5481C22.5397 32.8244 21.505 33.8598 20.2287 33.8598H18.6881C17.6819 33.8598 16.8259 33.2168 16.5087 32.3192" stroke="white" stroke-width="2.26471" stroke-linecap="round" stroke-linejoin="round"/>
<path d="M19.4578 24.6159V22.3049" stroke="white" stroke-width="2.26471" stroke-linecap="round" stroke-linejoin="round"/>
<path d="M19.4578 36.1706V33.8596" stroke="white" stroke-width="2.26471" stroke-linecap="round" stroke-linejoin="round"/>
<path d="M29.8569 28.5887C29.8696 26.7324 29.3855 24.9066 28.4544 23.3007C27.5233 21.6949 26.1793 20.3675 24.562 19.4564C22.9447 18.5453 21.1131 18.0838 19.2571 18.1196C17.4012 18.1555 15.5887 18.6874 14.0078 19.6603C12.4269 20.6332 11.1352 22.0115 10.2669 23.6521C9.39851 25.2927 8.98511 27.1359 9.06962 28.9902C9.15411 30.8446 9.73341 32.6425 10.7474 34.1973C11.7614 35.7522 13.1731 37.0073 14.8359 37.8324V41.2988C14.8359 41.6052 14.9576 41.8992 15.1743 42.1157C15.391 42.3325 15.6849 42.4543 15.9913 42.4543H22.9241C23.2306 42.4543 23.5245 42.3325 23.7412 42.1157C23.9579 41.8992 24.0796 41.6052 24.0796 41.2988V37.8324C25.807 36.9813 27.2627 35.6654 28.2834 34.0324C29.3039 32.3995 29.8488 30.5143 29.8569 28.5887Z" stroke="white" stroke-width="2.26471" stroke-linecap="round" stroke-linejoin="round"/>
<path d="M14.8354 48.1598H24.0791" stroke="white" stroke-width="2.26471" stroke-linecap="round" stroke-linejoin="round"/>
<path d="M53.5389 46.3554C51.3355 46.3554 48.6109 46.1422 45.365 45.7157V41.4866C49.3927 42.1026 52.141 42.4106 53.6099 42.4106C56.6899 42.4106 58.2299 41.6169 58.2299 40.0296V38.5369C58.2299 37.7788 58.0048 37.1983 57.5547 36.7956C57.1282 36.3928 56.3464 36.1914 55.2092 36.1914H52.5082C47.4381 36.1914 44.903 34.1776 44.903 30.1499V28.4441C44.903 26.4302 45.7441 24.9495 47.4263 24.0018C49.1084 23.0541 51.7738 22.5802 55.4224 22.5802C57.3178 22.5802 59.7225 22.7342 62.6367 23.0422V27.1647C59.0591 26.7382 56.5951 26.525 55.2447 26.525C53.373 26.525 52.1173 26.679 51.4776 26.987C50.7906 27.3187 50.447 27.8399 50.447 28.5507V30.1854C50.447 31.3937 51.4658 31.9979 53.5033 31.9979H56.2753C58.9051 31.9979 60.8124 32.4836 61.997 33.455C63.1816 34.4263 63.7739 35.9071 63.7739 37.8973V39.4254C63.7739 42.1737 62.7907 44.0335 60.8242 45.0049C59.8765 45.5025 58.8222 45.846 57.6613 46.0355C56.5241 46.2488 55.1499 46.3554 53.5389 46.3554ZM76.0149 46.3554C75.1383 46.3554 74.4038 46.3198 73.8115 46.2488C73.2192 46.1777 72.6269 46.0355 72.0346 45.8223C71.3712 45.6091 70.8263 45.3129 70.3998 44.9338C69.9971 44.5548 69.6654 44.0335 69.4048 43.3702C69.1205 42.6831 68.9783 41.8894 68.9783 40.9891V31.9979H65.4956V28.7994H68.9783V23.8241H74.1669V28.7994H78.8935V31.9979H74.1669V40.1006C74.1669 40.9299 74.238 41.5577 74.3801 41.9842C74.5223 42.3869 74.7948 42.6831 75.1975 42.8726C75.6003 43.0385 76.2163 43.1214 77.0455 43.1214C77.3772 43.1214 77.9932 43.0622 78.8935 42.9437V46.1777C77.78 46.2962 76.8204 46.3554 76.0149 46.3554ZM81.3892 41.0957H86.9332V46H81.3892V41.0957ZM91.1928 22.9356H100.433C102.684 22.9356 104.46 23.0896 105.764 23.3976C107.09 23.7056 108.05 24.2505 108.642 25.0324C109.258 25.7905 109.566 26.8567 109.566 28.2308V32.602C109.566 34.1183 109.234 35.303 108.571 36.1559C107.931 37.0088 106.901 37.613 105.479 37.9683C104.081 38.3237 102.186 38.5014 99.7931 38.5014H96.7368V46H91.1928V22.9356ZM100.255 34.6988C101.7 34.6988 102.719 34.533 103.311 34.2013C103.904 33.8459 104.2 33.2536 104.2 32.4244V28.7284C104.2 27.9702 103.916 27.4727 103.347 27.2358C102.802 26.9988 101.748 26.8804 100.184 26.8804H96.7368V34.6988H100.255ZM113.26 28.7994H118.2V31.8202C118.2 31.2753 118.425 30.7422 118.876 30.221C119.326 29.6997 119.894 29.2733 120.581 28.9416C121.292 28.6099 121.991 28.4441 122.678 28.4441H124.526V32.7442H122.749C121.28 32.7442 120.19 32.9693 119.48 33.4194C118.793 33.8696 118.449 34.6159 118.449 35.6583V46H113.26V28.7994ZM127.528 22.5802H132.716V26.7738H127.528V22.5802ZM127.528 28.7994H132.716V46H127.528V28.7994ZM137.558 21.1232H142.746V46H137.558V21.1232Z" fill="white"/>
</svg>
