<svg width="634" height="600" viewBox="0 0 634 600" fill="none" xmlns="http://www.w3.org/2000/svg">
<rect width="634" height="600" fill="#1C1C1C"/>
<path d="M240.614 85V57.868H260.222V85H256.08V61.402H244.832V85H240.614ZM276.386 64.138C278.691 64.138 280.541 65.0247 281.934 66.798C283.327 68.5713 284.024 71.2187 284.024 74.74C284.024 77.0453 283.695 78.996 283.036 80.592C282.403 82.188 281.503 83.3913 280.338 84.202C279.173 84.9873 277.817 85.38 276.272 85.38C275.335 85.38 274.499 85.2533 273.764 85C273.029 84.7213 272.409 84.3667 271.902 83.936C271.421 83.48 270.99 82.9987 270.61 82.492H270.382C270.433 82.948 270.483 83.4927 270.534 84.126C270.585 84.734 270.61 85.2787 270.61 85.76V94.12H266.506V64.518H269.85L270.42 67.254H270.61C270.99 66.6967 271.433 66.1773 271.94 65.696C272.472 65.2147 273.093 64.8347 273.802 64.556C274.537 64.2773 275.398 64.138 276.386 64.138ZM275.284 67.444C274.169 67.444 273.27 67.6973 272.586 68.204C271.902 68.6853 271.395 69.42 271.066 70.408C270.762 71.3707 270.61 72.5993 270.61 74.094V74.702C270.61 76.2727 270.749 77.6153 271.028 78.73C271.332 79.8193 271.826 80.6553 272.51 81.238C273.219 81.7953 274.169 82.074 275.36 82.074C276.373 82.074 277.209 81.77 277.868 81.162C278.527 80.5287 279.008 79.6547 279.312 78.54C279.641 77.4253 279.806 76.1333 279.806 74.664C279.806 72.4347 279.426 70.674 278.666 69.382C277.931 68.09 276.804 67.444 275.284 67.444ZM305.949 74.74C305.949 76.4373 305.733 77.9447 305.303 79.262C304.872 80.5793 304.251 81.694 303.441 82.606C302.655 83.518 301.693 84.2147 300.553 84.696C299.413 85.152 298.133 85.38 296.715 85.38C295.423 85.38 294.219 85.152 293.105 84.696C291.99 84.2147 291.027 83.518 290.217 82.606C289.406 81.694 288.773 80.5793 288.317 79.262C287.886 77.9447 287.671 76.4247 287.671 74.702C287.671 72.4473 288.038 70.5347 288.773 68.964C289.507 67.3933 290.559 66.2027 291.927 65.392C293.32 64.556 294.967 64.138 296.867 64.138C298.64 64.138 300.211 64.556 301.579 65.392C302.947 66.2027 304.011 67.3933 304.771 68.964C305.556 70.5347 305.949 72.46 305.949 74.74ZM291.927 74.74C291.927 76.26 292.091 77.5773 292.421 78.692C292.775 79.7813 293.307 80.6173 294.017 81.2C294.751 81.7827 295.676 82.074 296.791 82.074C297.931 82.074 298.855 81.7827 299.565 81.2C300.299 80.6173 300.831 79.7813 301.161 78.692C301.515 77.5773 301.693 76.26 301.693 74.74C301.693 73.1693 301.515 71.852 301.161 70.788C300.806 69.724 300.274 68.9133 299.565 68.356C298.855 67.7733 297.918 67.482 296.753 67.482C295.055 67.482 293.827 68.1153 293.067 69.382C292.307 70.6487 291.927 72.4347 291.927 74.74ZM318.381 64.138C320.079 64.138 321.548 64.518 322.789 65.278C324.031 66.0127 324.981 67.0767 325.639 68.47C326.323 69.8633 326.665 71.51 326.665 73.41V75.614H313.783C313.834 77.7167 314.341 79.3253 315.303 80.44C316.266 81.5547 317.621 82.112 319.369 82.112C320.611 82.112 321.713 81.998 322.675 81.77C323.663 81.5167 324.664 81.1493 325.677 80.668V84.012C324.715 84.468 323.727 84.81 322.713 85.038C321.725 85.266 320.522 85.38 319.103 85.38C317.254 85.38 315.607 84.9873 314.163 84.202C312.719 83.4167 311.592 82.2513 310.781 80.706C309.971 79.1353 309.565 77.21 309.565 74.93C309.565 72.6247 309.933 70.674 310.667 69.078C311.402 67.482 312.428 66.266 313.745 65.43C315.088 64.5687 316.633 64.138 318.381 64.138ZM318.381 67.254C317.089 67.254 316.051 67.7227 315.265 68.66C314.48 69.5973 314.024 70.9273 313.897 72.65H322.599C322.599 71.586 322.447 70.6487 322.143 69.838C321.839 69.0273 321.371 68.394 320.737 67.938C320.129 67.482 319.344 67.254 318.381 67.254ZM343.232 64.518H347.754L339.812 74.36L348.438 85H343.688L335.366 74.626V85H331.262V64.518H335.366V74.474L343.232 64.518ZM366.115 67.748H359.769V85H355.703V67.748H349.433V64.518H366.115V67.748ZM395.094 85H377.766V81.884L384.34 74.778C385.607 73.3847 386.658 72.1813 387.494 71.168C388.33 70.1293 388.951 69.1413 389.356 68.204C389.787 67.2413 390.002 66.2027 390.002 65.088C390.002 63.6947 389.635 62.656 388.9 61.972C388.191 61.2627 387.253 60.908 386.088 60.908C384.948 60.908 383.922 61.1487 383.01 61.63C382.098 62.086 381.148 62.732 380.16 63.568L377.918 60.87C378.627 60.2367 379.375 59.6667 380.16 59.16C380.971 58.6533 381.87 58.248 382.858 57.944C383.871 57.64 385.011 57.488 386.278 57.488C387.899 57.488 389.293 57.792 390.458 58.4C391.649 58.9827 392.561 59.8187 393.194 60.908C393.853 61.9973 394.182 63.2767 394.182 64.746C394.182 65.8353 394.017 66.8487 393.688 67.786C393.384 68.7233 392.928 69.648 392.32 70.56C391.737 71.472 391.028 72.4093 390.192 73.372C389.381 74.3093 388.482 75.3227 387.494 76.412L383.01 81.238V81.428H395.094V85Z" fill="white"/>
<path d="M107.866 193.06C107.866 194.033 107.573 194.807 106.986 195.38C106.413 195.94 105.639 196.3 104.666 196.46V196.54C105.813 196.7 106.679 197.073 107.266 197.66C107.853 198.247 108.146 199.013 108.146 199.96C108.146 200.8 107.946 201.54 107.546 202.18C107.146 202.807 106.546 203.3 105.746 203.66C104.946 204.02 103.939 204.2 102.726 204.2C101.979 204.2 101.266 204.14 100.586 204.02C99.9192 203.913 99.3059 203.713 98.7459 203.42V201.78C99.1325 201.98 99.5459 202.153 99.9859 202.3C100.439 202.433 100.893 202.54 101.346 202.62C101.813 202.687 102.253 202.72 102.666 202.72C103.866 202.72 104.773 202.48 105.386 202C105.999 201.52 106.306 200.84 106.306 199.96C106.306 199.053 105.939 198.393 105.206 197.98C104.473 197.567 103.459 197.36 102.166 197.36H100.286V195.86H102.066C102.959 195.86 103.699 195.753 104.286 195.54C104.873 195.327 105.306 195.027 105.586 194.64C105.879 194.24 106.026 193.773 106.026 193.24C106.026 192.52 105.779 191.967 105.286 191.58C104.793 191.193 104.146 191 103.346 191C102.519 191 101.826 191.113 101.266 191.34C100.706 191.567 100.159 191.86 99.6259 192.22L98.7859 191C99.1459 190.72 99.5592 190.473 100.026 190.26C100.493 190.033 101.006 189.853 101.566 189.72C102.126 189.587 102.733 189.52 103.386 189.52C104.359 189.52 105.179 189.673 105.846 189.98C106.513 190.287 107.013 190.707 107.346 191.24C107.693 191.76 107.866 192.367 107.866 193.06ZM118.339 193.28V202.52H119.799V207.72H118.139V204H111.139V207.72H109.479V202.52H110.299C110.872 201.667 111.345 200.74 111.719 199.74C112.092 198.727 112.372 197.673 112.559 196.58C112.759 195.473 112.865 194.373 112.879 193.28H118.339ZM114.419 194.66C114.365 195.567 114.232 196.507 114.019 197.48C113.819 198.44 113.552 199.36 113.219 200.24C112.899 201.12 112.525 201.88 112.099 202.52H116.639V194.66H114.419ZM125.654 193.08C126.521 193.08 127.268 193.28 127.894 193.68C128.521 194.08 129.001 194.647 129.334 195.38C129.681 196.1 129.854 196.947 129.854 197.92V198.98H122.974C123.001 200.193 123.288 201.12 123.834 201.76C124.381 202.387 125.148 202.7 126.134 202.7C126.774 202.7 127.341 202.64 127.834 202.52C128.341 202.387 128.861 202.2 129.394 201.96V203.5C128.874 203.74 128.361 203.913 127.854 204.02C127.361 204.14 126.761 204.2 126.054 204.2C125.094 204.2 124.248 203.993 123.514 203.58C122.781 203.167 122.208 202.553 121.794 201.74C121.381 200.913 121.174 199.907 121.174 198.72C121.174 197.547 121.361 196.54 121.734 195.7C122.108 194.86 122.628 194.213 123.294 193.76C123.974 193.307 124.761 193.08 125.654 193.08ZM125.654 194.52C124.881 194.52 124.268 194.793 123.814 195.34C123.361 195.873 123.094 196.62 123.014 197.58H128.054C128.054 196.967 127.968 196.433 127.794 195.98C127.621 195.527 127.354 195.173 126.994 194.92C126.648 194.653 126.201 194.52 125.654 194.52ZM136.439 204.2C135.532 204.2 134.732 204.007 134.039 203.62C133.345 203.233 132.799 202.633 132.399 201.82C132.012 201.007 131.819 199.967 131.819 198.7C131.819 197.38 132.025 196.307 132.439 195.48C132.852 194.653 133.412 194.047 134.119 193.66C134.839 193.273 135.652 193.08 136.559 193.08C137.079 193.08 137.579 193.14 138.059 193.26C138.552 193.367 138.952 193.5 139.259 193.66L138.719 195.12C138.412 195 138.052 194.887 137.639 194.78C137.239 194.673 136.865 194.62 136.519 194.62C135.865 194.62 135.325 194.773 134.899 195.08C134.472 195.387 134.152 195.84 133.939 196.44C133.725 197.04 133.619 197.787 133.619 198.68C133.619 199.533 133.725 200.26 133.939 200.86C134.152 201.46 134.465 201.913 134.879 202.22C135.305 202.527 135.825 202.68 136.439 202.68C136.985 202.68 137.472 202.62 137.899 202.5C138.325 202.38 138.719 202.233 139.079 202.06V203.62C138.732 203.807 138.352 203.947 137.939 204.04C137.525 204.147 137.025 204.2 136.439 204.2ZM146.121 197.68C147.001 197.68 147.734 197.793 148.321 198.02C148.908 198.247 149.348 198.587 149.641 199.04C149.948 199.48 150.101 200.04 150.101 200.72C150.101 201.387 149.961 201.967 149.681 202.46C149.401 202.953 148.961 203.333 148.361 203.6C147.774 203.867 147.008 204 146.061 204H141.461V193.28H143.201V197.68H146.121ZM148.361 200.82C148.361 200.167 148.148 199.727 147.721 199.5C147.294 199.26 146.701 199.14 145.941 199.14H143.201V202.58H145.981C146.661 202.58 147.228 202.447 147.681 202.18C148.134 201.913 148.361 201.46 148.361 200.82ZM165.155 193.28V202.52H166.615V207.72H164.955V204H157.955V207.72H156.295V202.52H157.115C157.688 201.667 158.162 200.74 158.535 199.74C158.908 198.727 159.188 197.673 159.375 196.58C159.575 195.473 159.682 194.373 159.695 193.28H165.155ZM161.235 194.66C161.182 195.567 161.048 196.507 160.835 197.48C160.635 198.44 160.368 199.36 160.035 200.24C159.715 201.12 159.342 201.88 158.915 202.52H163.455V194.66H161.235ZM177.371 198.62C177.371 199.513 177.257 200.307 177.031 201C176.817 201.68 176.504 202.26 176.091 202.74C175.677 203.22 175.177 203.587 174.591 203.84C174.004 204.08 173.351 204.2 172.631 204.2C171.964 204.2 171.344 204.08 170.771 203.84C170.211 203.587 169.717 203.22 169.291 202.74C168.877 202.26 168.557 201.68 168.331 201C168.104 200.307 167.991 199.513 167.991 198.62C167.991 197.433 168.177 196.433 168.551 195.62C168.937 194.793 169.484 194.167 170.191 193.74C170.897 193.3 171.731 193.08 172.691 193.08C173.611 193.08 174.417 193.3 175.111 193.74C175.817 194.167 176.371 194.793 176.771 195.62C177.171 196.433 177.371 197.433 177.371 198.62ZM169.791 198.62C169.791 199.46 169.891 200.193 170.091 200.82C170.291 201.433 170.604 201.907 171.031 202.24C171.457 202.573 172.004 202.74 172.671 202.74C173.337 202.74 173.884 202.573 174.311 202.24C174.737 201.907 175.051 201.433 175.251 200.82C175.464 200.193 175.571 199.46 175.571 198.62C175.571 197.767 175.464 197.04 175.251 196.44C175.051 195.84 174.737 195.38 174.311 195.06C173.884 194.727 173.331 194.56 172.651 194.56C171.651 194.56 170.924 194.92 170.471 195.64C170.017 196.36 169.791 197.353 169.791 198.62ZM187.757 204H185.997V194.74H183.057C182.937 196.433 182.777 197.88 182.577 199.08C182.39 200.267 182.15 201.233 181.857 201.98C181.577 202.727 181.237 203.273 180.837 203.62C180.437 203.967 179.964 204.14 179.417 204.14C179.244 204.14 179.07 204.127 178.897 204.1C178.737 204.087 178.604 204.053 178.497 204V202.68C178.577 202.707 178.664 202.727 178.757 202.74C178.85 202.753 178.944 202.76 179.037 202.76C179.304 202.76 179.544 202.64 179.757 202.4C179.984 202.16 180.184 201.793 180.357 201.3C180.544 200.807 180.71 200.187 180.857 199.44C181.004 198.68 181.13 197.787 181.237 196.76C181.357 195.733 181.464 194.573 181.557 193.28H187.757V204ZM203.214 193.28L199.074 198.48L203.554 204H201.594L197.274 198.56V204H195.654V198.56L191.314 204H189.354L193.834 198.48L189.714 193.28H191.594L195.654 198.48V193.28H197.274V198.48L201.334 193.28H203.214ZM206.931 193.28V197.74H212.291V193.28H214.031V204H212.291V199.22H206.931V204H205.191V193.28H206.931ZM226.004 198.62C226.004 199.513 225.89 200.307 225.664 201C225.45 201.68 225.137 202.26 224.724 202.74C224.31 203.22 223.81 203.587 223.224 203.84C222.637 204.08 221.984 204.2 221.264 204.2C220.597 204.2 219.977 204.08 219.404 203.84C218.844 203.587 218.35 203.22 217.924 202.74C217.51 202.26 217.19 201.68 216.964 201C216.737 200.307 216.624 199.513 216.624 198.62C216.624 197.433 216.81 196.433 217.184 195.62C217.57 194.793 218.117 194.167 218.824 193.74C219.53 193.3 220.364 193.08 221.324 193.08C222.244 193.08 223.05 193.3 223.744 193.74C224.45 194.167 225.004 194.793 225.404 195.62C225.804 196.433 226.004 197.433 226.004 198.62ZM218.424 198.62C218.424 199.46 218.524 200.193 218.724 200.82C218.924 201.433 219.237 201.907 219.664 202.24C220.09 202.573 220.637 202.74 221.304 202.74C221.97 202.74 222.517 202.573 222.944 202.24C223.37 201.907 223.684 201.433 223.884 200.82C224.097 200.193 224.204 199.46 224.204 198.62C224.204 197.767 224.097 197.04 223.884 196.44C223.684 195.84 223.37 195.38 222.944 195.06C222.517 194.727 221.964 194.56 221.284 194.56C220.284 194.56 219.557 194.92 219.104 195.64C218.65 196.36 218.424 197.353 218.424 198.62ZM232.953 197.56C232.953 196 233.099 194.673 233.393 193.58C233.699 192.473 234.166 191.593 234.793 190.94C235.433 190.273 236.253 189.827 237.253 189.6C238.053 189.413 238.839 189.247 239.613 189.1C240.386 188.953 241.113 188.82 241.793 188.7L242.093 190.24C241.759 190.293 241.393 190.36 240.993 190.44C240.593 190.507 240.186 190.58 239.773 190.66C239.373 190.727 238.979 190.8 238.593 190.88C238.219 190.947 237.886 191.013 237.593 191.08C237.179 191.173 236.806 191.333 236.473 191.56C236.153 191.773 235.873 192.067 235.633 192.44C235.406 192.813 235.219 193.273 235.073 193.82C234.939 194.367 234.859 195.013 234.833 195.76H234.953C235.126 195.507 235.366 195.247 235.673 194.98C235.979 194.713 236.346 194.487 236.773 194.3C237.199 194.113 237.686 194.02 238.233 194.02C239.099 194.02 239.826 194.227 240.413 194.64C240.999 195.04 241.439 195.6 241.733 196.32C242.039 197.04 242.193 197.88 242.193 198.84C242.193 200.027 241.993 201.02 241.593 201.82C241.206 202.62 240.666 203.22 239.973 203.62C239.279 204.007 238.473 204.2 237.553 204.2C236.859 204.2 236.226 204.06 235.653 203.78C235.093 203.487 234.606 203.06 234.193 202.5C233.793 201.94 233.486 201.247 233.273 200.42C233.059 199.593 232.953 198.64 232.953 197.56ZM237.693 202.74C238.226 202.74 238.693 202.62 239.093 202.38C239.493 202.14 239.799 201.747 240.013 201.2C240.239 200.653 240.353 199.927 240.353 199.02C240.353 197.927 240.166 197.067 239.793 196.44C239.419 195.8 238.806 195.48 237.953 195.48C237.406 195.48 236.913 195.613 236.473 195.88C236.033 196.133 235.659 196.427 235.353 196.76C235.059 197.093 234.853 197.373 234.733 197.6C234.733 198.253 234.773 198.887 234.853 199.5C234.946 200.113 235.099 200.667 235.313 201.16C235.539 201.64 235.839 202.027 236.213 202.32C236.599 202.6 237.093 202.74 237.693 202.74ZM244.781 204V193.28H246.521V197.68H249.041C249.935 197.68 250.668 197.793 251.241 198.02C251.815 198.247 252.241 198.587 252.521 199.04C252.801 199.48 252.941 200.04 252.941 200.72C252.941 201.387 252.801 201.967 252.521 202.46C252.255 202.953 251.828 203.333 251.241 203.6C250.668 203.867 249.915 204 248.981 204H244.781ZM248.821 202.58C249.528 202.58 250.101 202.453 250.541 202.2C250.981 201.933 251.201 201.473 251.201 200.82C251.201 200.167 250.995 199.727 250.581 199.5C250.181 199.26 249.601 199.14 248.841 199.14H246.521V202.58H248.821ZM254.601 204V193.28H256.341V204H254.601ZM266.588 194.76H263.288V204H261.568V194.76H258.308V193.28H266.588V194.76ZM273.23 197.68C274.11 197.68 274.844 197.793 275.43 198.02C276.017 198.247 276.457 198.587 276.75 199.04C277.057 199.48 277.21 200.04 277.21 200.72C277.21 201.387 277.07 201.967 276.79 202.46C276.51 202.953 276.07 203.333 275.47 203.6C274.884 203.867 274.117 204 273.17 204H268.57V193.28H270.31V197.68H273.23ZM275.47 200.82C275.47 200.167 275.257 199.727 274.83 199.5C274.404 199.26 273.81 199.14 273.05 199.14H270.31V202.58H273.09C273.77 202.58 274.337 202.447 274.79 202.18C275.244 201.913 275.47 201.46 275.47 200.82ZM290.664 193.28H292.564L288.284 198.44L292.924 204H290.904L286.384 198.56V204H284.644V193.28H286.384V198.48L290.664 193.28ZM299.563 193.08C300.803 193.08 301.796 193.54 302.543 194.46C303.303 195.38 303.683 196.767 303.683 198.62C303.683 199.833 303.51 200.86 303.163 201.7C302.816 202.527 302.33 203.153 301.703 203.58C301.09 203.993 300.37 204.2 299.543 204.2C299.023 204.2 298.563 204.127 298.163 203.98C297.776 203.833 297.443 203.647 297.163 203.42C296.883 203.18 296.643 202.92 296.443 202.64H296.323C296.35 202.867 296.376 203.153 296.403 203.5C296.43 203.847 296.443 204.147 296.443 204.4V208.8H294.703V193.28H296.123L296.363 194.74H296.443C296.643 194.433 296.883 194.153 297.163 193.9C297.443 193.647 297.776 193.447 298.163 193.3C298.563 193.153 299.03 193.08 299.563 193.08ZM299.223 194.56C298.556 194.56 298.016 194.7 297.603 194.98C297.203 195.247 296.91 195.653 296.723 196.2C296.536 196.747 296.443 197.44 296.443 198.28V198.62C296.443 199.5 296.523 200.247 296.683 200.86C296.856 201.473 297.15 201.94 297.563 202.26C297.976 202.58 298.543 202.74 299.263 202.74C299.863 202.74 300.356 202.56 300.743 202.2C301.13 201.84 301.416 201.353 301.603 200.74C301.79 200.113 301.883 199.4 301.883 198.6C301.883 197.373 301.663 196.393 301.223 195.66C300.796 194.927 300.13 194.56 299.223 194.56ZM310.145 193.1C311.372 193.1 312.285 193.387 312.885 193.96C313.498 194.533 313.805 195.447 313.805 196.7V204H312.545L312.205 202.48H312.125C311.832 202.867 311.532 203.193 311.225 203.46C310.932 203.713 310.585 203.9 310.185 204.02C309.798 204.14 309.318 204.2 308.745 204.2C308.145 204.2 307.605 204.087 307.125 203.86C306.645 203.633 306.265 203.287 305.985 202.82C305.705 202.34 305.565 201.74 305.565 201.02C305.565 199.953 305.958 199.133 306.745 198.56C307.532 197.973 308.745 197.653 310.385 197.6L312.085 197.54V196.9C312.085 196.007 311.905 195.387 311.545 195.04C311.198 194.693 310.698 194.52 310.045 194.52C309.525 194.52 309.025 194.607 308.545 194.78C308.078 194.94 307.632 195.127 307.205 195.34L306.665 194.02C307.118 193.767 307.645 193.553 308.245 193.38C308.845 193.193 309.478 193.1 310.145 193.1ZM310.625 198.82C309.398 198.873 308.545 199.087 308.065 199.46C307.598 199.833 307.365 200.36 307.365 201.04C307.365 201.64 307.532 202.08 307.865 202.36C308.198 202.64 308.632 202.78 309.165 202.78C309.992 202.78 310.685 202.533 311.245 202.04C311.805 201.533 312.085 200.76 312.085 199.72V198.76L310.625 198.82ZM323.99 194.76H320.69V204H318.97V194.76H315.71V193.28H323.99V194.76ZM331.993 193.28H333.893L329.613 198.44L334.253 204H332.233L327.713 198.56V204H325.973V193.28H327.713V198.48L331.993 193.28ZM344.48 198.62C344.48 199.513 344.367 200.307 344.14 201C343.927 201.68 343.613 202.26 343.2 202.74C342.787 203.22 342.287 203.587 341.7 203.84C341.113 204.08 340.46 204.2 339.74 204.2C339.073 204.2 338.453 204.08 337.88 203.84C337.32 203.587 336.827 203.22 336.4 202.74C335.987 202.26 335.667 201.68 335.44 201C335.213 200.307 335.1 199.513 335.1 198.62C335.1 197.433 335.287 196.433 335.66 195.62C336.047 194.793 336.593 194.167 337.3 193.74C338.007 193.3 338.84 193.08 339.8 193.08C340.72 193.08 341.527 193.3 342.22 193.74C342.927 194.167 343.48 194.793 343.88 195.62C344.28 196.433 344.48 197.433 344.48 198.62ZM336.9 198.62C336.9 199.46 337 200.193 337.2 200.82C337.4 201.433 337.713 201.907 338.14 202.24C338.567 202.573 339.113 202.74 339.78 202.74C340.447 202.74 340.993 202.573 341.42 202.24C341.847 201.907 342.16 201.433 342.36 200.82C342.573 200.193 342.68 199.46 342.68 198.62C342.68 197.767 342.573 197.04 342.36 196.44C342.16 195.84 341.847 195.38 341.42 195.06C340.993 194.727 340.44 194.56 339.76 194.56C338.76 194.56 338.033 194.92 337.58 195.64C337.127 196.36 336.9 197.353 336.9 198.62ZM350.986 193.08C351.853 193.08 352.6 193.28 353.226 193.68C353.853 194.08 354.333 194.647 354.666 195.38C355.013 196.1 355.186 196.947 355.186 197.92V198.98H348.306C348.333 200.193 348.62 201.12 349.166 201.76C349.713 202.387 350.48 202.7 351.466 202.7C352.106 202.7 352.673 202.64 353.166 202.52C353.673 202.387 354.193 202.2 354.726 201.96V203.5C354.206 203.74 353.693 203.913 353.186 204.02C352.693 204.14 352.093 204.2 351.386 204.2C350.426 204.2 349.58 203.993 348.846 203.58C348.113 203.167 347.54 202.553 347.126 201.74C346.713 200.913 346.506 199.907 346.506 198.72C346.506 197.547 346.693 196.54 347.066 195.7C347.44 194.86 347.96 194.213 348.626 193.76C349.306 193.307 350.093 193.08 350.986 193.08ZM350.986 194.52C350.213 194.52 349.6 194.793 349.146 195.34C348.693 195.873 348.426 196.62 348.346 197.58H353.386C353.386 196.967 353.3 196.433 353.126 195.98C352.953 195.527 352.686 195.173 352.326 194.92C351.98 194.653 351.533 194.52 350.986 194.52ZM371.414 198.62C371.414 199.513 371.3 200.307 371.074 201C370.86 201.68 370.547 202.26 370.134 202.74C369.72 203.22 369.22 203.587 368.634 203.84C368.047 204.08 367.394 204.2 366.674 204.2C366.007 204.2 365.387 204.08 364.814 203.84C364.254 203.587 363.76 203.22 363.334 202.74C362.92 202.26 362.6 201.68 362.374 201C362.147 200.307 362.034 199.513 362.034 198.62C362.034 197.433 362.22 196.433 362.594 195.62C362.98 194.793 363.527 194.167 364.234 193.74C364.94 193.3 365.774 193.08 366.734 193.08C367.654 193.08 368.46 193.3 369.154 193.74C369.86 194.167 370.414 194.793 370.814 195.62C371.214 196.433 371.414 197.433 371.414 198.62ZM363.834 198.62C363.834 199.46 363.934 200.193 364.134 200.82C364.334 201.433 364.647 201.907 365.074 202.24C365.5 202.573 366.047 202.74 366.714 202.74C367.38 202.74 367.927 202.573 368.354 202.24C368.78 201.907 369.094 201.433 369.294 200.82C369.507 200.193 369.614 199.46 369.614 198.62C369.614 197.767 369.507 197.04 369.294 196.44C369.094 195.84 368.78 195.38 368.354 195.06C367.927 194.727 367.374 194.56 366.694 194.56C365.694 194.56 364.967 194.92 364.514 195.64C364.06 196.36 363.834 197.353 363.834 198.62ZM382.58 193.28V204H380.84V194.78H375.74V204H374V193.28H382.58ZM387.398 199.82C387.398 199.94 387.391 200.113 387.378 200.34C387.378 200.553 387.371 200.787 387.358 201.04C387.344 201.28 387.331 201.513 387.318 201.74C387.304 201.953 387.291 202.127 387.278 202.26L392.638 193.28H394.758V204H393.138V197.68C393.138 197.467 393.138 197.187 393.138 196.84C393.151 196.493 393.164 196.153 393.178 195.82C393.191 195.473 393.204 195.213 393.218 195.04L387.918 204H385.758V193.28H387.398V199.82ZM402.005 204.2C401.099 204.2 400.299 204.007 399.605 203.62C398.912 203.233 398.365 202.633 397.965 201.82C397.579 201.007 397.385 199.967 397.385 198.7C397.385 197.38 397.592 196.307 398.005 195.48C398.419 194.653 398.979 194.047 399.685 193.66C400.405 193.273 401.219 193.08 402.125 193.08C402.645 193.08 403.145 193.14 403.625 193.26C404.119 193.367 404.519 193.5 404.825 193.66L404.285 195.12C403.979 195 403.619 194.887 403.205 194.78C402.805 194.673 402.432 194.62 402.085 194.62C401.432 194.62 400.892 194.773 400.465 195.08C400.039 195.387 399.719 195.84 399.505 196.44C399.292 197.04 399.185 197.787 399.185 198.68C399.185 199.533 399.292 200.26 399.505 200.86C399.719 201.46 400.032 201.913 400.445 202.22C400.872 202.527 401.392 202.68 402.005 202.68C402.552 202.68 403.039 202.62 403.465 202.5C403.892 202.38 404.285 202.233 404.645 202.06V203.62C404.299 203.807 403.919 203.947 403.505 204.04C403.092 204.147 402.592 204.2 402.005 204.2ZM410.887 193.1C412.114 193.1 413.027 193.387 413.627 193.96C414.241 194.533 414.547 195.447 414.547 196.7V204H413.287L412.947 202.48H412.867C412.574 202.867 412.274 203.193 411.967 203.46C411.674 203.713 411.327 203.9 410.927 204.02C410.541 204.14 410.061 204.2 409.487 204.2C408.887 204.2 408.347 204.087 407.867 203.86C407.387 203.633 407.007 203.287 406.727 202.82C406.447 202.34 406.307 201.74 406.307 201.02C406.307 199.953 406.701 199.133 407.487 198.56C408.274 197.973 409.487 197.653 411.127 197.6L412.827 197.54V196.9C412.827 196.007 412.647 195.387 412.287 195.04C411.941 194.693 411.441 194.52 410.787 194.52C410.267 194.52 409.767 194.607 409.287 194.78C408.821 194.94 408.374 195.127 407.947 195.34L407.407 194.02C407.861 193.767 408.387 193.553 408.987 193.38C409.587 193.193 410.221 193.1 410.887 193.1ZM411.367 198.82C410.141 198.873 409.287 199.087 408.807 199.46C408.341 199.833 408.107 200.36 408.107 201.04C408.107 201.64 408.274 202.08 408.607 202.36C408.941 202.64 409.374 202.78 409.907 202.78C410.734 202.78 411.427 202.533 411.987 202.04C412.547 201.533 412.827 200.76 412.827 199.72V198.76L411.367 198.82ZM419.392 193.28V197.74H424.752V193.28H426.492V204H424.752V199.22H419.392V204H417.652V193.28H419.392ZM431.284 199.82C431.284 199.94 431.278 200.113 431.264 200.34C431.264 200.553 431.258 200.787 431.244 201.04C431.231 201.28 431.218 201.513 431.204 201.74C431.191 201.953 431.178 202.127 431.164 202.26L436.524 193.28H438.644V204H437.024V197.68C437.024 197.467 437.024 197.187 437.024 196.84C437.038 196.493 437.051 196.153 437.064 195.82C437.078 195.473 437.091 195.213 437.104 195.04L431.804 204H429.644V193.28H431.284V199.82ZM445.752 193.08C446.619 193.08 447.365 193.28 447.992 193.68C448.619 194.08 449.099 194.647 449.432 195.38C449.779 196.1 449.952 196.947 449.952 197.92V198.98H443.072C443.099 200.193 443.385 201.12 443.932 201.76C444.479 202.387 445.245 202.7 446.232 202.7C446.872 202.7 447.439 202.64 447.932 202.52C448.439 202.387 448.959 202.2 449.492 201.96V203.5C448.972 203.74 448.459 203.913 447.952 204.02C447.459 204.14 446.859 204.2 446.152 204.2C445.192 204.2 444.345 203.993 443.612 203.58C442.879 203.167 442.305 202.553 441.892 201.74C441.479 200.913 441.272 199.907 441.272 198.72C441.272 197.547 441.459 196.54 441.832 195.7C442.205 194.86 442.725 194.213 443.392 193.76C444.072 193.307 444.859 193.08 445.752 193.08ZM445.752 194.52C444.979 194.52 444.365 194.793 443.912 195.34C443.459 195.873 443.192 196.62 443.112 197.58H448.152C448.152 196.967 448.065 196.433 447.892 195.98C447.719 195.527 447.452 195.173 447.092 194.92C446.745 194.653 446.299 194.52 445.752 194.52ZM465.939 193.28V204H464.199V194.78H459.099V204H457.359V193.28H465.939ZM473.977 193.08C475.217 193.08 476.21 193.54 476.957 194.46C477.717 195.38 478.097 196.767 478.097 198.62C478.097 199.833 477.924 200.86 477.577 201.7C477.23 202.527 476.744 203.153 476.117 203.58C475.504 203.993 474.784 204.2 473.957 204.2C473.437 204.2 472.977 204.127 472.577 203.98C472.19 203.833 471.857 203.647 471.577 203.42C471.297 203.18 471.057 202.92 470.857 202.64H470.737C470.764 202.867 470.79 203.153 470.817 203.5C470.844 203.847 470.857 204.147 470.857 204.4V208.8H469.117V193.28H470.537L470.777 194.74H470.857C471.057 194.433 471.297 194.153 471.577 193.9C471.857 193.647 472.19 193.447 472.577 193.3C472.977 193.153 473.444 193.08 473.977 193.08ZM473.637 194.56C472.97 194.56 472.43 194.7 472.017 194.98C471.617 195.247 471.324 195.653 471.137 196.2C470.95 196.747 470.857 197.44 470.857 198.28V198.62C470.857 199.5 470.937 200.247 471.097 200.86C471.27 201.473 471.564 201.94 471.977 202.26C472.39 202.58 472.957 202.74 473.677 202.74C474.277 202.74 474.77 202.56 475.157 202.2C475.544 201.84 475.83 201.353 476.017 200.74C476.204 200.113 476.297 199.4 476.297 198.6C476.297 197.373 476.077 196.393 475.637 195.66C475.21 194.927 474.544 194.56 473.637 194.56ZM489.519 198.62C489.519 199.513 489.406 200.307 489.179 201C488.966 201.68 488.652 202.26 488.239 202.74C487.826 203.22 487.326 203.587 486.739 203.84C486.152 204.08 485.499 204.2 484.779 204.2C484.112 204.2 483.492 204.08 482.919 203.84C482.359 203.587 481.866 203.22 481.439 202.74C481.026 202.26 480.706 201.68 480.479 201C480.252 200.307 480.139 199.513 480.139 198.62C480.139 197.433 480.326 196.433 480.699 195.62C481.086 194.793 481.632 194.167 482.339 193.74C483.046 193.3 483.879 193.08 484.839 193.08C485.759 193.08 486.566 193.3 487.259 193.74C487.966 194.167 488.519 194.793 488.919 195.62C489.319 196.433 489.519 197.433 489.519 198.62ZM481.939 198.62C481.939 199.46 482.039 200.193 482.239 200.82C482.439 201.433 482.752 201.907 483.179 202.24C483.606 202.573 484.152 202.74 484.819 202.74C485.486 202.74 486.032 202.573 486.459 202.24C486.886 201.907 487.199 201.433 487.399 200.82C487.612 200.193 487.719 199.46 487.719 198.62C487.719 197.767 487.612 197.04 487.399 196.44C487.199 195.84 486.886 195.38 486.459 195.06C486.032 194.727 485.479 194.56 484.799 194.56C483.799 194.56 483.072 194.92 482.619 195.64C482.166 196.36 481.939 197.353 481.939 198.62ZM496.025 193.08C496.892 193.08 497.639 193.28 498.265 193.68C498.892 194.08 499.372 194.647 499.705 195.38C500.052 196.1 500.225 196.947 500.225 197.92V198.98H493.345C493.372 200.193 493.659 201.12 494.205 201.76C494.752 202.387 495.519 202.7 496.505 202.7C497.145 202.7 497.712 202.64 498.205 202.52C498.712 202.387 499.232 202.2 499.765 201.96V203.5C499.245 203.74 498.732 203.913 498.225 204.02C497.732 204.14 497.132 204.2 496.425 204.2C495.465 204.2 494.619 203.993 493.885 203.58C493.152 203.167 492.579 202.553 492.165 201.74C491.752 200.913 491.545 199.907 491.545 198.72C491.545 197.547 491.732 196.54 492.105 195.7C492.479 194.86 492.999 194.213 493.665 193.76C494.345 193.307 495.132 193.08 496.025 193.08ZM496.025 194.52C495.252 194.52 494.639 194.793 494.185 195.34C493.732 195.873 493.465 196.62 493.385 197.58H498.425C498.425 196.967 498.339 196.433 498.165 195.98C497.992 195.527 497.725 195.173 497.365 194.92C497.019 194.653 496.572 194.52 496.025 194.52ZM508.77 193.28H510.67L506.39 198.44L511.03 204H509.01L504.49 198.56V204H502.75V193.28H504.49V198.48L508.77 193.28ZM519.889 194.76H516.589V204H514.869V194.76H511.609V193.28H519.889V194.76ZM525.731 193.1C526.958 193.1 527.871 193.387 528.471 193.96C529.084 194.533 529.391 195.447 529.391 196.7V204H528.131L527.791 202.48H527.711C527.418 202.867 527.118 203.193 526.811 203.46C526.518 203.713 526.171 203.9 525.771 204.02C525.384 204.14 524.904 204.2 524.331 204.2C523.731 204.2 523.191 204.087 522.711 203.86C522.231 203.633 521.851 203.287 521.571 202.82C521.291 202.34 521.151 201.74 521.151 201.02C521.151 199.953 521.544 199.133 522.331 198.56C523.118 197.973 524.331 197.653 525.971 197.6L527.671 197.54V196.9C527.671 196.007 527.491 195.387 527.131 195.04C526.784 194.693 526.284 194.52 525.631 194.52C525.111 194.52 524.611 194.607 524.131 194.78C523.664 194.94 523.218 195.127 522.791 195.34L522.251 194.02C522.704 193.767 523.231 193.553 523.831 193.38C524.431 193.193 525.064 193.1 525.731 193.1ZM526.211 198.82C524.984 198.873 524.131 199.087 523.651 199.46C523.184 199.833 522.951 200.36 522.951 201.04C522.951 201.64 523.118 202.08 523.451 202.36C523.784 202.64 524.218 202.78 524.751 202.78C525.578 202.78 526.271 202.533 526.831 202.04C527.391 201.533 527.671 200.76 527.671 199.72V198.76L526.211 198.82ZM532.256 202.92C532.256 202.427 532.369 202.08 532.596 201.88C532.823 201.68 533.103 201.58 533.436 201.58C533.769 201.58 534.056 201.68 534.296 201.88C534.536 202.08 534.656 202.427 534.656 202.92C534.656 203.4 534.536 203.747 534.296 203.96C534.056 204.173 533.769 204.28 533.436 204.28C533.103 204.28 532.823 204.173 532.596 203.96C532.369 203.747 532.256 203.4 532.256 202.92Z" fill="white"/>
<path d="M255.012 434V406.868H259.23V430.466H270.022V434H255.012ZM296.327 420.396C296.327 422.499 296.074 424.411 295.567 426.134C295.086 427.831 294.338 429.301 293.325 430.542C292.337 431.783 291.096 432.733 289.601 433.392C288.106 434.051 286.371 434.38 284.395 434.38C282.368 434.38 280.595 434.051 279.075 433.392C277.58 432.708 276.339 431.758 275.351 430.542C274.363 429.301 273.628 427.819 273.147 426.096C272.666 424.373 272.425 422.461 272.425 420.358C272.425 417.571 272.856 415.139 273.717 413.062C274.604 410.985 275.934 409.363 277.707 408.198C279.48 407.033 281.722 406.45 284.433 406.45C287.068 406.45 289.259 407.033 291.007 408.198C292.78 409.338 294.11 410.959 294.997 413.062C295.884 415.139 296.327 417.584 296.327 420.396ZM276.871 420.396C276.871 422.575 277.124 424.449 277.631 426.02C278.163 427.565 278.986 428.769 280.101 429.63C281.241 430.466 282.672 430.884 284.395 430.884C286.143 430.884 287.562 430.466 288.651 429.63C289.766 428.769 290.576 427.565 291.083 426.02C291.615 424.449 291.881 422.575 291.881 420.396C291.881 417.128 291.286 414.582 290.095 412.758C288.904 410.909 287.017 409.984 284.433 409.984C282.685 409.984 281.241 410.402 280.101 411.238C278.986 412.074 278.163 413.265 277.631 414.81C277.124 416.355 276.871 418.217 276.871 420.396ZM312.411 419.408H321.797V432.936C320.429 433.417 319.023 433.772 317.579 434C316.135 434.253 314.513 434.38 312.715 434.38C310.105 434.38 307.889 433.823 306.065 432.708C304.266 431.593 302.885 429.997 301.923 427.92C300.985 425.843 300.517 423.347 300.517 420.434C300.517 417.597 301.036 415.139 302.075 413.062C303.113 410.985 304.621 409.376 306.597 408.236C308.573 407.071 310.967 406.488 313.779 406.488C315.223 406.488 316.591 406.64 317.883 406.944C319.2 407.223 320.403 407.615 321.493 408.122L320.011 411.542C319.124 411.111 318.136 410.757 317.047 410.478C315.983 410.174 314.868 410.022 313.703 410.022C311.828 410.022 310.232 410.453 308.915 411.314C307.597 412.15 306.597 413.353 305.913 414.924C305.229 416.469 304.887 418.319 304.887 420.472C304.887 422.499 305.178 424.297 305.761 425.868C306.343 427.439 307.255 428.667 308.497 429.554C309.738 430.441 311.347 430.884 313.323 430.884C313.981 430.884 314.564 430.859 315.071 430.808C315.577 430.732 316.046 430.656 316.477 430.58C316.933 430.479 317.338 430.39 317.693 430.314V422.942H312.411V419.408ZM350.432 420.396C350.432 422.499 350.179 424.411 349.672 426.134C349.191 427.831 348.444 429.301 347.43 430.542C346.442 431.783 345.201 432.733 343.706 433.392C342.212 434.051 340.476 434.38 338.5 434.38C336.474 434.38 334.7 434.051 333.18 433.392C331.686 432.708 330.444 431.758 329.456 430.542C328.468 429.301 327.734 427.819 327.252 426.096C326.771 424.373 326.53 422.461 326.53 420.358C326.53 417.571 326.961 415.139 327.822 413.062C328.709 410.985 330.039 409.363 331.812 408.198C333.586 407.033 335.828 406.45 338.538 406.45C341.173 406.45 343.364 407.033 345.112 408.198C346.886 409.338 348.216 410.959 349.102 413.062C349.989 415.139 350.432 417.584 350.432 420.396ZM330.976 420.396C330.976 422.575 331.23 424.449 331.736 426.02C332.268 427.565 333.092 428.769 334.206 429.63C335.346 430.466 336.778 430.884 338.5 430.884C340.248 430.884 341.667 430.466 342.756 429.63C343.871 428.769 344.682 427.565 345.188 426.02C345.72 424.449 345.986 422.575 345.986 420.396C345.986 417.128 345.391 414.582 344.2 412.758C343.01 410.909 341.122 409.984 338.538 409.984C336.79 409.984 335.346 410.402 334.206 411.238C333.092 412.074 332.268 413.265 331.736 414.81C331.23 416.355 330.976 418.217 330.976 420.396ZM380.696 434H363.368V430.884L369.942 423.778C371.208 422.385 372.26 421.181 373.096 420.168C373.932 419.129 374.552 418.141 374.958 417.204C375.388 416.241 375.604 415.203 375.604 414.088C375.604 412.695 375.236 411.656 374.502 410.972C373.792 410.263 372.855 409.908 371.69 409.908C370.55 409.908 369.524 410.149 368.612 410.63C367.7 411.086 366.75 411.732 365.762 412.568L363.52 409.87C364.229 409.237 364.976 408.667 365.762 408.16C366.572 407.653 367.472 407.248 368.46 406.944C369.473 406.64 370.613 406.488 371.88 406.488C373.501 406.488 374.894 406.792 376.06 407.4C377.25 407.983 378.162 408.819 378.796 409.908C379.454 410.997 379.784 412.277 379.784 413.746C379.784 414.835 379.619 415.849 379.29 416.786C378.986 417.723 378.53 418.648 377.922 419.56C377.339 420.472 376.63 421.409 375.794 422.372C374.983 423.309 374.084 424.323 373.096 425.412L368.612 430.238V430.428H380.696V434Z" fill="white"/>
</svg>
