<svg width="634" height="600" viewBox="0 0 634 600" fill="none" xmlns="http://www.w3.org/2000/svg">
<rect width="634" height="600" fill="#1C1C1C"/>
<path d="M236.593 86V57.44H257.233V86H252.873V61.16H241.033V86H236.593ZM274.249 64.04C276.675 64.04 278.622 64.9733 280.089 66.84C281.555 68.7067 282.289 71.4933 282.289 75.2C282.289 77.6267 281.942 79.68 281.249 81.36C280.582 83.04 279.635 84.3067 278.409 85.16C277.182 85.9867 275.755 86.4 274.129 86.4C273.142 86.4 272.262 86.2667 271.489 86C270.715 85.7067 270.062 85.3333 269.529 84.88C269.022 84.4 268.569 83.8933 268.169 83.36H267.929C267.982 83.84 268.035 84.4133 268.089 85.08C268.142 85.72 268.169 86.2933 268.169 86.8V95.6H263.849V64.44H267.369L267.969 67.32H268.169C268.569 66.7333 269.035 66.1867 269.569 65.68C270.129 65.1733 270.782 64.7733 271.529 64.48C272.302 64.1867 273.209 64.04 274.249 64.04ZM273.089 67.52C271.915 67.52 270.969 67.7867 270.249 68.32C269.529 68.8267 268.995 69.6 268.649 70.64C268.329 71.6533 268.169 72.9467 268.169 74.52V75.16C268.169 76.8133 268.315 78.2267 268.609 79.4C268.929 80.5467 269.449 81.4267 270.169 82.04C270.915 82.6267 271.915 82.92 273.169 82.92C274.235 82.92 275.115 82.6 275.809 81.96C276.502 81.2933 277.009 80.3733 277.329 79.2C277.675 78.0267 277.849 76.6667 277.849 75.12C277.849 72.7733 277.449 70.92 276.649 69.56C275.875 68.2 274.689 67.52 273.089 67.52ZM305.367 75.2C305.367 76.9867 305.14 78.5733 304.687 79.96C304.234 81.3467 303.58 82.52 302.727 83.48C301.9 84.44 300.887 85.1733 299.687 85.68C298.487 86.16 297.14 86.4 295.647 86.4C294.287 86.4 293.02 86.16 291.847 85.68C290.674 85.1733 289.66 84.44 288.807 83.48C287.954 82.52 287.287 81.3467 286.807 79.96C286.354 78.5733 286.127 76.9733 286.127 75.16C286.127 72.7867 286.514 70.7733 287.287 69.12C288.06 67.4667 289.167 66.2133 290.607 65.36C292.074 64.48 293.807 64.04 295.807 64.04C297.674 64.04 299.327 64.48 300.767 65.36C302.207 66.2133 303.327 67.4667 304.127 69.12C304.954 70.7733 305.367 72.8 305.367 75.2ZM290.607 75.2C290.607 76.8 290.78 78.1867 291.127 79.36C291.5 80.5067 292.06 81.3867 292.807 82C293.58 82.6133 294.554 82.92 295.727 82.92C296.927 82.92 297.9 82.6133 298.647 82C299.42 81.3867 299.98 80.5067 300.327 79.36C300.7 78.1867 300.887 76.8 300.887 75.2C300.887 73.5467 300.7 72.16 300.327 71.04C299.954 69.92 299.394 69.0667 298.647 68.48C297.9 67.8667 296.914 67.56 295.687 67.56C293.9 67.56 292.607 68.2267 291.807 69.56C291.007 70.8933 290.607 72.7733 290.607 75.2ZM318.454 64.04C320.241 64.04 321.787 64.44 323.094 65.24C324.401 66.0133 325.401 67.1333 326.094 68.6C326.814 70.0667 327.174 71.8 327.174 73.8V76.12H313.614C313.667 78.3333 314.201 80.0267 315.214 81.2C316.227 82.3733 317.654 82.96 319.494 82.96C320.801 82.96 321.961 82.84 322.974 82.6C324.014 82.3333 325.067 81.9467 326.134 81.44V84.96C325.121 85.44 324.081 85.8 323.014 86.04C321.974 86.28 320.707 86.4 319.214 86.4C317.267 86.4 315.534 85.9867 314.014 85.16C312.494 84.3333 311.307 83.1067 310.454 81.48C309.601 79.8267 309.174 77.8 309.174 75.4C309.174 72.9733 309.561 70.92 310.334 69.24C311.107 67.56 312.187 66.28 313.574 65.4C314.987 64.4933 316.614 64.04 318.454 64.04ZM318.454 67.32C317.094 67.32 316.001 67.8133 315.174 68.8C314.347 69.7867 313.867 71.1867 313.734 73H322.894C322.894 71.88 322.734 70.8933 322.414 70.04C322.094 69.1867 321.601 68.52 320.934 68.04C320.294 67.56 319.467 67.32 318.454 67.32ZM344.613 64.44H349.373L341.013 74.8L350.093 86H345.093L336.333 75.08V86H332.013V64.44H336.333V74.92L344.613 64.44ZM368.7 67.84H362.02V86H357.74V67.84H351.14V64.44H368.7V67.84ZM399.204 86H380.964V82.72L387.884 75.24C389.218 73.7733 390.324 72.5067 391.204 71.44C392.084 70.3467 392.738 69.3067 393.164 68.32C393.618 67.3067 393.844 66.2133 393.844 65.04C393.844 63.5733 393.458 62.48 392.684 61.76C391.938 61.0133 390.951 60.64 389.724 60.64C388.524 60.64 387.444 60.8933 386.484 61.4C385.524 61.88 384.524 62.56 383.484 63.44L381.124 60.6C381.871 59.9333 382.658 59.3333 383.484 58.8C384.338 58.2667 385.284 57.84 386.324 57.52C387.391 57.2 388.591 57.04 389.924 57.04C391.631 57.04 393.098 57.36 394.324 58C395.578 58.6133 396.538 59.4933 397.204 60.64C397.898 61.7867 398.244 63.1333 398.244 64.68C398.244 65.8267 398.071 66.8933 397.724 67.88C397.404 68.8667 396.924 69.84 396.284 70.8C395.671 71.76 394.924 72.7467 394.044 73.76C393.191 74.7467 392.244 75.8133 391.204 76.96L386.484 82.04V82.24H399.204V86Z" fill="white"/>
<path d="M86.9524 192.966C86.9524 194.037 86.6298 194.887 85.9844 195.518C85.3538 196.134 84.5031 196.53 83.4324 196.706V196.794C84.6938 196.97 85.6471 197.381 86.2924 198.026C86.9378 198.671 87.2604 199.515 87.2604 200.556C87.2604 201.48 87.0404 202.294 86.6004 202.998C86.1604 203.687 85.5004 204.23 84.6204 204.626C83.7404 205.022 82.6331 205.22 81.2984 205.22C80.4771 205.22 79.6924 205.154 78.9444 205.022C78.2111 204.905 77.5364 204.685 76.9204 204.362V202.558C77.3458 202.778 77.8004 202.969 78.2844 203.13C78.7831 203.277 79.2818 203.394 79.7804 203.482C80.2938 203.555 80.7778 203.592 81.2324 203.592C82.5524 203.592 83.5498 203.328 84.2244 202.8C84.8991 202.272 85.2364 201.524 85.2364 200.556C85.2364 199.559 84.8331 198.833 84.0264 198.378C83.2198 197.923 82.1051 197.696 80.6824 197.696H78.6144V196.046H80.5724C81.5551 196.046 82.3691 195.929 83.0144 195.694C83.6598 195.459 84.1364 195.129 84.4444 194.704C84.7671 194.264 84.9284 193.751 84.9284 193.164C84.9284 192.372 84.6571 191.763 84.1144 191.338C83.5718 190.913 82.8604 190.7 81.9804 190.7C81.0711 190.7 80.3084 190.825 79.6924 191.074C79.0764 191.323 78.4751 191.646 77.8884 192.042L76.9644 190.7C77.3604 190.392 77.8151 190.121 78.3284 189.886C78.8418 189.637 79.4064 189.439 80.0224 189.292C80.6384 189.145 81.3058 189.072 82.0244 189.072C83.0951 189.072 83.9971 189.241 84.7304 189.578C85.4638 189.915 86.0138 190.377 86.3804 190.964C86.7618 191.536 86.9524 192.203 86.9524 192.966ZM98.4725 193.208V203.372H100.079V209.092H98.2525V205H90.5525V209.092H88.7265V203.372H89.6285C90.2592 202.433 90.7799 201.414 91.1905 200.314C91.6012 199.199 91.9092 198.041 92.1145 196.838C92.3345 195.621 92.4519 194.411 92.4665 193.208H98.4725ZM94.1605 194.726C94.1019 195.723 93.9552 196.757 93.7205 197.828C93.5005 198.884 93.2072 199.896 92.8405 200.864C92.4885 201.832 92.0779 202.668 91.6085 203.372H96.6025V194.726H94.1605ZM106.52 192.988C107.473 192.988 108.294 193.208 108.984 193.648C109.673 194.088 110.201 194.711 110.568 195.518C110.949 196.31 111.14 197.241 111.14 198.312V199.478H103.572C103.601 200.813 103.916 201.832 104.518 202.536C105.119 203.225 105.962 203.57 107.048 203.57C107.752 203.57 108.375 203.504 108.918 203.372C109.475 203.225 110.047 203.02 110.634 202.756V204.45C110.062 204.714 109.497 204.905 108.94 205.022C108.397 205.154 107.737 205.22 106.96 205.22C105.904 205.22 104.972 204.993 104.166 204.538C103.359 204.083 102.728 203.409 102.274 202.514C101.819 201.605 101.592 200.497 101.592 199.192C101.592 197.901 101.797 196.794 102.208 195.87C102.618 194.946 103.19 194.235 103.924 193.736C104.672 193.237 105.537 192.988 106.52 192.988ZM106.52 194.572C105.669 194.572 104.994 194.873 104.496 195.474C103.997 196.061 103.704 196.882 103.616 197.938H109.16C109.16 197.263 109.064 196.677 108.874 196.178C108.683 195.679 108.39 195.291 107.994 195.012C107.612 194.719 107.121 194.572 106.52 194.572ZM118.383 205.22C117.385 205.22 116.505 205.007 115.743 204.582C114.98 204.157 114.379 203.497 113.939 202.602C113.513 201.707 113.301 200.563 113.301 199.17C113.301 197.718 113.528 196.537 113.983 195.628C114.437 194.719 115.053 194.051 115.831 193.626C116.623 193.201 117.517 192.988 118.515 192.988C119.087 192.988 119.637 193.054 120.165 193.186C120.707 193.303 121.147 193.45 121.485 193.626L120.891 195.232C120.553 195.1 120.157 194.975 119.703 194.858C119.263 194.741 118.852 194.682 118.471 194.682C117.752 194.682 117.158 194.851 116.689 195.188C116.219 195.525 115.867 196.024 115.633 196.684C115.398 197.344 115.281 198.165 115.281 199.148C115.281 200.087 115.398 200.886 115.633 201.546C115.867 202.206 116.212 202.705 116.667 203.042C117.136 203.379 117.708 203.548 118.383 203.548C118.984 203.548 119.519 203.482 119.989 203.35C120.458 203.218 120.891 203.057 121.287 202.866V204.582C120.905 204.787 120.487 204.941 120.033 205.044C119.578 205.161 119.028 205.22 118.383 205.22ZM129.033 198.048C130.001 198.048 130.808 198.173 131.453 198.422C132.098 198.671 132.582 199.045 132.905 199.544C133.242 200.028 133.411 200.644 133.411 201.392C133.411 202.125 133.257 202.763 132.949 203.306C132.641 203.849 132.157 204.267 131.497 204.56C130.852 204.853 130.008 205 128.967 205H123.907V193.208H125.821V198.048H129.033ZM131.497 201.502C131.497 200.783 131.262 200.299 130.793 200.05C130.324 199.786 129.671 199.654 128.835 199.654H125.821V203.438H128.879C129.627 203.438 130.25 203.291 130.749 202.998C131.248 202.705 131.497 202.206 131.497 201.502ZM149.971 193.208V203.372H151.577V209.092H149.751V205H142.051V209.092H140.225V203.372H141.127C141.757 202.433 142.278 201.414 142.689 200.314C143.099 199.199 143.407 198.041 143.613 196.838C143.833 195.621 143.95 194.411 143.965 193.208H149.971ZM145.659 194.726C145.6 195.723 145.453 196.757 145.219 197.828C144.999 198.884 144.705 199.896 144.339 200.864C143.987 201.832 143.576 202.668 143.107 203.372H148.101V194.726H145.659ZM163.408 199.082C163.408 200.065 163.283 200.937 163.034 201.7C162.799 202.448 162.454 203.086 162 203.614C161.545 204.142 160.995 204.545 160.35 204.824C159.704 205.088 158.986 205.22 158.194 205.22C157.46 205.22 156.778 205.088 156.148 204.824C155.532 204.545 154.989 204.142 154.52 203.614C154.065 203.086 153.713 202.448 153.464 201.7C153.214 200.937 153.09 200.065 153.09 199.082C153.09 197.777 153.295 196.677 153.706 195.782C154.131 194.873 154.732 194.183 155.51 193.714C156.287 193.23 157.204 192.988 158.26 192.988C159.272 192.988 160.159 193.23 160.922 193.714C161.699 194.183 162.308 194.873 162.748 195.782C163.188 196.677 163.408 197.777 163.408 199.082ZM155.07 199.082C155.07 200.006 155.18 200.813 155.4 201.502C155.62 202.177 155.964 202.697 156.434 203.064C156.903 203.431 157.504 203.614 158.238 203.614C158.971 203.614 159.572 203.431 160.042 203.064C160.511 202.697 160.856 202.177 161.076 201.502C161.31 200.813 161.428 200.006 161.428 199.082C161.428 198.143 161.31 197.344 161.076 196.684C160.856 196.024 160.511 195.518 160.042 195.166C159.572 194.799 158.964 194.616 158.216 194.616C157.116 194.616 156.316 195.012 155.818 195.804C155.319 196.596 155.07 197.689 155.07 199.082ZM174.833 205H172.897V194.814H169.663C169.531 196.677 169.355 198.268 169.135 199.588C168.929 200.893 168.665 201.957 168.343 202.778C168.035 203.599 167.661 204.201 167.221 204.582C166.781 204.963 166.26 205.154 165.659 205.154C165.468 205.154 165.277 205.139 165.087 205.11C164.911 205.095 164.764 205.059 164.647 205V203.548C164.735 203.577 164.83 203.599 164.933 203.614C165.035 203.629 165.138 203.636 165.241 203.636C165.534 203.636 165.798 203.504 166.033 203.24C166.282 202.976 166.502 202.573 166.693 202.03C166.898 201.487 167.081 200.805 167.243 199.984C167.404 199.148 167.543 198.165 167.661 197.036C167.793 195.907 167.91 194.631 168.013 193.208H174.833V205ZM191.835 193.208L187.281 198.928L192.209 205H190.053L185.301 199.016V205H183.519V199.016L178.745 205H176.589L181.517 198.928L176.985 193.208H179.053L183.519 198.928V193.208H185.301V198.928L189.767 193.208H191.835ZM195.924 193.208V198.114H201.82V193.208H203.734V205H201.82V199.742H195.924V205H194.01V193.208H195.924ZM216.904 199.082C216.904 200.065 216.779 200.937 216.53 201.7C216.295 202.448 215.951 203.086 215.496 203.614C215.041 204.142 214.491 204.545 213.846 204.824C213.201 205.088 212.482 205.22 211.69 205.22C210.957 205.22 210.275 205.088 209.644 204.824C209.028 204.545 208.485 204.142 208.016 203.614C207.561 203.086 207.209 202.448 206.96 201.7C206.711 200.937 206.586 200.065 206.586 199.082C206.586 197.777 206.791 196.677 207.202 195.782C207.627 194.873 208.229 194.183 209.006 193.714C209.783 193.23 210.7 192.988 211.756 192.988C212.768 192.988 213.655 193.23 214.418 193.714C215.195 194.183 215.804 194.873 216.244 195.782C216.684 196.677 216.904 197.777 216.904 199.082ZM208.566 199.082C208.566 200.006 208.676 200.813 208.896 201.502C209.116 202.177 209.461 202.697 209.93 203.064C210.399 203.431 211.001 203.614 211.734 203.614C212.467 203.614 213.069 203.431 213.538 203.064C214.007 202.697 214.352 202.177 214.572 201.502C214.807 200.813 214.924 200.006 214.924 199.082C214.924 198.143 214.807 197.344 214.572 196.684C214.352 196.024 214.007 195.518 213.538 195.166C213.069 194.799 212.46 194.616 211.712 194.616C210.612 194.616 209.813 195.012 209.314 195.804C208.815 196.596 208.566 197.689 208.566 199.082ZM224.548 197.916C224.548 196.2 224.709 194.741 225.032 193.538C225.369 192.321 225.883 191.353 226.572 190.634C227.276 189.901 228.178 189.409 229.278 189.16C230.158 188.955 231.023 188.771 231.874 188.61C232.725 188.449 233.524 188.302 234.272 188.17L234.602 189.864C234.235 189.923 233.832 189.996 233.392 190.084C232.952 190.157 232.505 190.238 232.05 190.326C231.61 190.399 231.177 190.48 230.752 190.568C230.341 190.641 229.975 190.715 229.652 190.788C229.197 190.891 228.787 191.067 228.42 191.316C228.068 191.551 227.76 191.873 227.496 192.284C227.247 192.695 227.041 193.201 226.88 193.802C226.733 194.403 226.645 195.115 226.616 195.936H226.748C226.939 195.657 227.203 195.371 227.54 195.078C227.877 194.785 228.281 194.535 228.75 194.33C229.219 194.125 229.755 194.022 230.356 194.022C231.309 194.022 232.109 194.249 232.754 194.704C233.399 195.144 233.883 195.76 234.206 196.552C234.543 197.344 234.712 198.268 234.712 199.324C234.712 200.629 234.492 201.722 234.052 202.602C233.627 203.482 233.033 204.142 232.27 204.582C231.507 205.007 230.62 205.22 229.608 205.22C228.845 205.22 228.149 205.066 227.518 204.758C226.902 204.435 226.367 203.966 225.912 203.35C225.472 202.734 225.135 201.971 224.9 201.062C224.665 200.153 224.548 199.104 224.548 197.916ZM229.762 203.614C230.349 203.614 230.862 203.482 231.302 203.218C231.742 202.954 232.079 202.521 232.314 201.92C232.563 201.319 232.688 200.519 232.688 199.522C232.688 198.319 232.483 197.373 232.072 196.684C231.661 195.98 230.987 195.628 230.048 195.628C229.447 195.628 228.904 195.775 228.42 196.068C227.936 196.347 227.525 196.669 227.188 197.036C226.865 197.403 226.638 197.711 226.506 197.96C226.506 198.679 226.55 199.375 226.638 200.05C226.741 200.725 226.909 201.333 227.144 201.876C227.393 202.404 227.723 202.829 228.134 203.152C228.559 203.46 229.102 203.614 229.762 203.614ZM237.559 205V193.208H239.473V198.048H242.245C243.228 198.048 244.035 198.173 244.665 198.422C245.296 198.671 245.765 199.045 246.073 199.544C246.381 200.028 246.535 200.644 246.535 201.392C246.535 202.125 246.381 202.763 246.073 203.306C245.78 203.849 245.311 204.267 244.665 204.56C244.035 204.853 243.206 205 242.179 205H237.559ZM242.003 203.438C242.781 203.438 243.411 203.299 243.895 203.02C244.379 202.727 244.621 202.221 244.621 201.502C244.621 200.783 244.394 200.299 243.939 200.05C243.499 199.786 242.861 199.654 242.025 199.654H239.473V203.438H242.003ZM248.361 205V193.208H250.275V205H248.361ZM261.547 194.836H257.917V205H256.025V194.836H252.439V193.208H261.547V194.836ZM268.853 198.048C269.821 198.048 270.628 198.173 271.273 198.422C271.919 198.671 272.403 199.045 272.725 199.544C273.063 200.028 273.231 200.644 273.231 201.392C273.231 202.125 273.077 202.763 272.769 203.306C272.461 203.849 271.977 204.267 271.317 204.56C270.672 204.853 269.829 205 268.787 205H263.727V193.208H265.641V198.048H268.853ZM271.317 201.502C271.317 200.783 271.083 200.299 270.613 200.05C270.144 199.786 269.491 199.654 268.655 199.654H265.641V203.438H268.699C269.447 203.438 270.071 203.291 270.569 202.998C271.068 202.705 271.317 202.206 271.317 201.502ZM288.031 193.208H290.121L285.413 198.884L290.517 205H288.295L283.323 199.016V205H281.409V193.208H283.323V198.928L288.031 193.208ZM297.819 192.988C299.183 192.988 300.276 193.494 301.097 194.506C301.933 195.518 302.351 197.043 302.351 199.082C302.351 200.417 302.161 201.546 301.779 202.47C301.398 203.379 300.863 204.069 300.173 204.538C299.499 204.993 298.707 205.22 297.797 205.22C297.225 205.22 296.719 205.139 296.279 204.978C295.854 204.817 295.487 204.611 295.179 204.362C294.871 204.098 294.607 203.812 294.387 203.504H294.255C294.285 203.753 294.314 204.069 294.343 204.45C294.373 204.831 294.387 205.161 294.387 205.44V210.28H292.473V193.208H294.035L294.299 194.814H294.387C294.607 194.477 294.871 194.169 295.179 193.89C295.487 193.611 295.854 193.391 296.279 193.23C296.719 193.069 297.233 192.988 297.819 192.988ZM297.445 194.616C296.712 194.616 296.118 194.77 295.663 195.078C295.223 195.371 294.901 195.819 294.695 196.42C294.49 197.021 294.387 197.784 294.387 198.708V199.082C294.387 200.05 294.475 200.871 294.651 201.546C294.842 202.221 295.165 202.734 295.619 203.086C296.074 203.438 296.697 203.614 297.489 203.614C298.149 203.614 298.692 203.416 299.117 203.02C299.543 202.624 299.858 202.089 300.063 201.414C300.269 200.725 300.371 199.94 300.371 199.06C300.371 197.711 300.129 196.633 299.645 195.826C299.176 195.019 298.443 194.616 297.445 194.616ZM309.46 193.01C310.809 193.01 311.814 193.325 312.474 193.956C313.148 194.587 313.486 195.591 313.486 196.97V205H312.1L311.726 203.328H311.638C311.315 203.753 310.985 204.113 310.648 204.406C310.325 204.685 309.944 204.89 309.504 205.022C309.078 205.154 308.55 205.22 307.92 205.22C307.26 205.22 306.666 205.095 306.138 204.846C305.61 204.597 305.192 204.215 304.884 203.702C304.576 203.174 304.422 202.514 304.422 201.722C304.422 200.549 304.854 199.647 305.72 199.016C306.585 198.371 307.92 198.019 309.724 197.96L311.594 197.894V197.19C311.594 196.207 311.396 195.525 311 195.144C310.618 194.763 310.068 194.572 309.35 194.572C308.778 194.572 308.228 194.667 307.7 194.858C307.186 195.034 306.695 195.239 306.226 195.474L305.632 194.022C306.13 193.743 306.71 193.509 307.37 193.318C308.03 193.113 308.726 193.01 309.46 193.01ZM309.988 199.302C308.638 199.361 307.7 199.595 307.172 200.006C306.658 200.417 306.402 200.996 306.402 201.744C306.402 202.404 306.585 202.888 306.952 203.196C307.318 203.504 307.795 203.658 308.382 203.658C309.291 203.658 310.054 203.387 310.67 202.844C311.286 202.287 311.594 201.436 311.594 200.292V199.236L309.988 199.302ZM324.689 194.836H321.059V205H319.167V194.836H315.581V193.208H324.689V194.836ZM333.492 193.208H335.582L330.874 198.884L335.978 205H333.756L328.784 199.016V205H326.87V193.208H328.784V198.928L333.492 193.208ZM347.228 199.082C347.228 200.065 347.103 200.937 346.854 201.7C346.619 202.448 346.275 203.086 345.82 203.614C345.365 204.142 344.815 204.545 344.17 204.824C343.525 205.088 342.806 205.22 342.014 205.22C341.281 205.22 340.599 205.088 339.968 204.824C339.352 204.545 338.809 204.142 338.34 203.614C337.885 203.086 337.533 202.448 337.284 201.7C337.035 200.937 336.91 200.065 336.91 199.082C336.91 197.777 337.115 196.677 337.526 195.782C337.951 194.873 338.553 194.183 339.33 193.714C340.107 193.23 341.024 192.988 342.08 192.988C343.092 192.988 343.979 193.23 344.742 193.714C345.519 194.183 346.128 194.873 346.568 195.782C347.008 196.677 347.228 197.777 347.228 199.082ZM338.89 199.082C338.89 200.006 339 200.813 339.22 201.502C339.44 202.177 339.785 202.697 340.254 203.064C340.723 203.431 341.325 203.614 342.058 203.614C342.791 203.614 343.393 203.431 343.862 203.064C344.331 202.697 344.676 202.177 344.896 201.502C345.131 200.813 345.248 200.006 345.248 199.082C345.248 198.143 345.131 197.344 344.896 196.684C344.676 196.024 344.331 195.518 343.862 195.166C343.393 194.799 342.784 194.616 342.036 194.616C340.936 194.616 340.137 195.012 339.638 195.804C339.139 196.596 338.89 197.689 338.89 199.082ZM354.385 192.988C355.338 192.988 356.16 193.208 356.849 193.648C357.538 194.088 358.066 194.711 358.433 195.518C358.814 196.31 359.005 197.241 359.005 198.312V199.478H351.437C351.466 200.813 351.782 201.832 352.383 202.536C352.984 203.225 353.828 203.57 354.913 203.57C355.617 203.57 356.24 203.504 356.783 203.372C357.34 203.225 357.912 203.02 358.499 202.756V204.45C357.927 204.714 357.362 204.905 356.805 205.022C356.262 205.154 355.602 205.22 354.825 205.22C353.769 205.22 352.838 204.993 352.031 204.538C351.224 204.083 350.594 203.409 350.139 202.514C349.684 201.605 349.457 200.497 349.457 199.192C349.457 197.901 349.662 196.794 350.073 195.87C350.484 194.946 351.056 194.235 351.789 193.736C352.537 193.237 353.402 192.988 354.385 192.988ZM354.385 194.572C353.534 194.572 352.86 194.873 352.361 195.474C351.862 196.061 351.569 196.882 351.481 197.938H357.025C357.025 197.263 356.93 196.677 356.739 196.178C356.548 195.679 356.255 195.291 355.859 195.012C355.478 194.719 354.986 194.572 354.385 194.572ZM376.855 199.082C376.855 200.065 376.73 200.937 376.481 201.7C376.246 202.448 375.902 203.086 375.447 203.614C374.992 204.142 374.442 204.545 373.797 204.824C373.152 205.088 372.433 205.22 371.641 205.22C370.908 205.22 370.226 205.088 369.595 204.824C368.979 204.545 368.436 204.142 367.967 203.614C367.512 203.086 367.16 202.448 366.911 201.7C366.662 200.937 366.537 200.065 366.537 199.082C366.537 197.777 366.742 196.677 367.153 195.782C367.578 194.873 368.18 194.183 368.957 193.714C369.734 193.23 370.651 192.988 371.707 192.988C372.719 192.988 373.606 193.23 374.369 193.714C375.146 194.183 375.755 194.873 376.195 195.782C376.635 196.677 376.855 197.777 376.855 199.082ZM368.517 199.082C368.517 200.006 368.627 200.813 368.847 201.502C369.067 202.177 369.412 202.697 369.881 203.064C370.35 203.431 370.952 203.614 371.685 203.614C372.418 203.614 373.02 203.431 373.489 203.064C373.958 202.697 374.303 202.177 374.523 201.502C374.758 200.813 374.875 200.006 374.875 199.082C374.875 198.143 374.758 197.344 374.523 196.684C374.303 196.024 373.958 195.518 373.489 195.166C373.02 194.799 372.411 194.616 371.663 194.616C370.563 194.616 369.764 195.012 369.265 195.804C368.766 196.596 368.517 197.689 368.517 199.082ZM389.138 193.208V205H387.224V194.858H381.614V205H379.7V193.208H389.138ZM394.438 200.402C394.438 200.534 394.43 200.725 394.416 200.974C394.416 201.209 394.408 201.465 394.394 201.744C394.379 202.008 394.364 202.265 394.35 202.514C394.335 202.749 394.32 202.939 394.306 203.086L400.202 193.208H402.534V205H400.752V198.048C400.752 197.813 400.752 197.505 400.752 197.124C400.766 196.743 400.781 196.369 400.796 196.002C400.81 195.621 400.825 195.335 400.84 195.144L395.01 205H392.634V193.208H394.438V200.402ZM410.506 205.22C409.508 205.22 408.628 205.007 407.866 204.582C407.103 204.157 406.502 203.497 406.062 202.602C405.636 201.707 405.424 200.563 405.424 199.17C405.424 197.718 405.651 196.537 406.106 195.628C406.56 194.719 407.176 194.051 407.954 193.626C408.746 193.201 409.64 192.988 410.638 192.988C411.21 192.988 411.76 193.054 412.288 193.186C412.83 193.303 413.27 193.45 413.608 193.626L413.014 195.232C412.676 195.1 412.28 194.975 411.826 194.858C411.386 194.741 410.975 194.682 410.594 194.682C409.875 194.682 409.281 194.851 408.812 195.188C408.342 195.525 407.99 196.024 407.756 196.684C407.521 197.344 407.404 198.165 407.404 199.148C407.404 200.087 407.521 200.886 407.756 201.546C407.99 202.206 408.335 202.705 408.79 203.042C409.259 203.379 409.831 203.548 410.506 203.548C411.107 203.548 411.642 203.482 412.112 203.35C412.581 203.218 413.014 203.057 413.41 202.866V204.582C413.028 204.787 412.61 204.941 412.156 205.044C411.701 205.161 411.151 205.22 410.506 205.22ZM420.276 193.01C421.625 193.01 422.63 193.325 423.29 193.956C423.965 194.587 424.302 195.591 424.302 196.97V205H422.916L422.542 203.328H422.454C422.131 203.753 421.801 204.113 421.464 204.406C421.141 204.685 420.76 204.89 420.32 205.022C419.895 205.154 419.367 205.22 418.736 205.22C418.076 205.22 417.482 205.095 416.954 204.846C416.426 204.597 416.008 204.215 415.7 203.702C415.392 203.174 415.238 202.514 415.238 201.722C415.238 200.549 415.671 199.647 416.536 199.016C417.401 198.371 418.736 198.019 420.54 197.96L422.41 197.894V197.19C422.41 196.207 422.212 195.525 421.816 195.144C421.435 194.763 420.885 194.572 420.166 194.572C419.594 194.572 419.044 194.667 418.516 194.858C418.003 195.034 417.511 195.239 417.042 195.474L416.448 194.022C416.947 193.743 417.526 193.509 418.186 193.318C418.846 193.113 419.543 193.01 420.276 193.01ZM420.804 199.302C419.455 199.361 418.516 199.595 417.988 200.006C417.475 200.417 417.218 200.996 417.218 201.744C417.218 202.404 417.401 202.888 417.768 203.196C418.135 203.504 418.611 203.658 419.198 203.658C420.107 203.658 420.87 203.387 421.486 202.844C422.102 202.287 422.41 201.436 422.41 200.292V199.236L420.804 199.302ZM429.631 193.208V198.114H435.527V193.208H437.441V205H435.527V199.742H429.631V205H427.717V193.208H429.631ZM442.713 200.402C442.713 200.534 442.706 200.725 442.691 200.974C442.691 201.209 442.684 201.465 442.669 201.744C442.654 202.008 442.64 202.265 442.625 202.514C442.61 202.749 442.596 202.939 442.581 203.086L448.477 193.208H450.809V205H449.027V198.048C449.027 197.813 449.027 197.505 449.027 197.124C449.042 196.743 449.056 196.369 449.071 196.002C449.086 195.621 449.1 195.335 449.115 195.144L443.285 205H440.909V193.208H442.713V200.402ZM458.627 192.988C459.58 192.988 460.402 193.208 461.091 193.648C461.78 194.088 462.308 194.711 462.675 195.518C463.056 196.31 463.247 197.241 463.247 198.312V199.478H455.679C455.708 200.813 456.024 201.832 456.625 202.536C457.226 203.225 458.07 203.57 459.155 203.57C459.859 203.57 460.482 203.504 461.025 203.372C461.582 203.225 462.154 203.02 462.741 202.756V204.45C462.169 204.714 461.604 204.905 461.047 205.022C460.504 205.154 459.844 205.22 459.067 205.22C458.011 205.22 457.08 204.993 456.273 204.538C455.466 204.083 454.836 203.409 454.381 202.514C453.926 201.605 453.699 200.497 453.699 199.192C453.699 197.901 453.904 196.794 454.315 195.87C454.726 194.946 455.298 194.235 456.031 193.736C456.779 193.237 457.644 192.988 458.627 192.988ZM458.627 194.572C457.776 194.572 457.102 194.873 456.603 195.474C456.104 196.061 455.811 196.882 455.723 197.938H461.267C461.267 197.263 461.172 196.677 460.981 196.178C460.79 195.679 460.497 195.291 460.101 195.012C459.72 194.719 459.228 194.572 458.627 194.572ZM480.833 193.208V205H478.919V194.858H473.309V205H471.395V193.208H480.833ZM489.675 192.988C491.039 192.988 492.131 193.494 492.953 194.506C493.789 195.518 494.207 197.043 494.207 199.082C494.207 200.417 494.016 201.546 493.635 202.47C493.253 203.379 492.718 204.069 492.029 204.538C491.354 204.993 490.562 205.22 489.653 205.22C489.081 205.22 488.575 205.139 488.135 204.978C487.709 204.817 487.343 204.611 487.035 204.362C486.727 204.098 486.463 203.812 486.243 203.504H486.111C486.14 203.753 486.169 204.069 486.199 204.45C486.228 204.831 486.243 205.161 486.243 205.44V210.28H484.329V193.208H485.891L486.155 194.814H486.243C486.463 194.477 486.727 194.169 487.035 193.89C487.343 193.611 487.709 193.391 488.135 193.23C488.575 193.069 489.088 192.988 489.675 192.988ZM489.301 194.616C488.567 194.616 487.973 194.77 487.519 195.078C487.079 195.371 486.756 195.819 486.551 196.42C486.345 197.021 486.243 197.784 486.243 198.708V199.082C486.243 200.05 486.331 200.871 486.507 201.546C486.697 202.221 487.02 202.734 487.475 203.086C487.929 203.438 488.553 203.614 489.345 203.614C490.005 203.614 490.547 203.416 490.973 203.02C491.398 202.624 491.713 202.089 491.919 201.414C492.124 200.725 492.227 199.94 492.227 199.06C492.227 197.711 491.985 196.633 491.501 195.826C491.031 195.019 490.298 194.616 489.301 194.616ZM506.771 199.082C506.771 200.065 506.646 200.937 506.397 201.7C506.162 202.448 505.818 203.086 505.363 203.614C504.908 204.142 504.358 204.545 503.713 204.824C503.068 205.088 502.349 205.22 501.557 205.22C500.824 205.22 500.142 205.088 499.511 204.824C498.895 204.545 498.352 204.142 497.883 203.614C497.428 203.086 497.076 202.448 496.827 201.7C496.578 200.937 496.453 200.065 496.453 199.082C496.453 197.777 496.658 196.677 497.069 195.782C497.494 194.873 498.096 194.183 498.873 193.714C499.65 193.23 500.567 192.988 501.623 192.988C502.635 192.988 503.522 193.23 504.285 193.714C505.062 194.183 505.671 194.873 506.111 195.782C506.551 196.677 506.771 197.777 506.771 199.082ZM498.433 199.082C498.433 200.006 498.543 200.813 498.763 201.502C498.983 202.177 499.328 202.697 499.797 203.064C500.266 203.431 500.868 203.614 501.601 203.614C502.334 203.614 502.936 203.431 503.405 203.064C503.874 202.697 504.219 202.177 504.439 201.502C504.674 200.813 504.791 200.006 504.791 199.082C504.791 198.143 504.674 197.344 504.439 196.684C504.219 196.024 503.874 195.518 503.405 195.166C502.936 194.799 502.327 194.616 501.579 194.616C500.479 194.616 499.68 195.012 499.181 195.804C498.682 196.596 498.433 197.689 498.433 199.082ZM513.928 192.988C514.881 192.988 515.703 193.208 516.392 193.648C517.081 194.088 517.609 194.711 517.976 195.518C518.357 196.31 518.548 197.241 518.548 198.312V199.478H510.98C511.009 200.813 511.325 201.832 511.926 202.536C512.527 203.225 513.371 203.57 514.456 203.57C515.16 203.57 515.783 203.504 516.326 203.372C516.883 203.225 517.455 203.02 518.042 202.756V204.45C517.47 204.714 516.905 204.905 516.348 205.022C515.805 205.154 515.145 205.22 514.368 205.22C513.312 205.22 512.381 204.993 511.574 204.538C510.767 204.083 510.137 203.409 509.682 202.514C509.227 201.605 509 200.497 509 199.192C509 197.901 509.205 196.794 509.616 195.87C510.027 194.946 510.599 194.235 511.332 193.736C512.08 193.237 512.945 192.988 513.928 192.988ZM513.928 194.572C513.077 194.572 512.403 194.873 511.904 195.474C511.405 196.061 511.112 196.882 511.024 197.938H516.568C516.568 197.263 516.473 196.677 516.282 196.178C516.091 195.679 515.798 195.291 515.402 195.012C515.021 194.719 514.529 194.572 513.928 194.572ZM527.947 193.208H530.037L525.329 198.884L530.433 205H528.211L523.239 199.016V205H521.325V193.208H523.239V198.928L527.947 193.208ZM540.177 194.836H536.547V205H534.655V194.836H531.069V193.208H540.177V194.836ZM546.604 193.01C547.953 193.01 548.958 193.325 549.618 193.956C550.293 194.587 550.63 195.591 550.63 196.97V205H549.244L548.87 203.328H548.782C548.459 203.753 548.129 204.113 547.792 204.406C547.469 204.685 547.088 204.89 546.648 205.022C546.223 205.154 545.695 205.22 545.064 205.22C544.404 205.22 543.81 205.095 543.282 204.846C542.754 204.597 542.336 204.215 542.028 203.702C541.72 203.174 541.566 202.514 541.566 201.722C541.566 200.549 541.999 199.647 542.864 199.016C543.729 198.371 545.064 198.019 546.868 197.96L548.738 197.894V197.19C548.738 196.207 548.54 195.525 548.144 195.144C547.763 194.763 547.213 194.572 546.494 194.572C545.922 194.572 545.372 194.667 544.844 194.858C544.331 195.034 543.839 195.239 543.37 195.474L542.776 194.022C543.275 193.743 543.854 193.509 544.514 193.318C545.174 193.113 545.871 193.01 546.604 193.01ZM547.132 199.302C545.783 199.361 544.844 199.595 544.316 200.006C543.803 200.417 543.546 200.996 543.546 201.744C543.546 202.404 543.729 202.888 544.096 203.196C544.463 203.504 544.939 203.658 545.526 203.658C546.435 203.658 547.198 203.387 547.814 202.844C548.43 202.287 548.738 201.436 548.738 200.292V199.236L547.132 199.302ZM553.782 203.812C553.782 203.269 553.906 202.888 554.156 202.668C554.405 202.448 554.713 202.338 555.08 202.338C555.446 202.338 555.762 202.448 556.026 202.668C556.29 202.888 556.422 203.269 556.422 203.812C556.422 204.34 556.29 204.721 556.026 204.956C555.762 205.191 555.446 205.308 555.08 205.308C554.713 205.308 554.405 205.191 554.156 204.956C553.906 204.721 553.782 204.34 553.782 203.812Z" fill="white"/>
<path d="M251.75 435V406.44H256.19V431.28H267.55V435H251.75ZM295.239 420.68C295.239 422.893 294.972 424.907 294.439 426.72C293.932 428.507 293.146 430.053 292.079 431.36C291.039 432.667 289.732 433.667 288.159 434.36C286.586 435.053 284.759 435.4 282.679 435.4C280.546 435.4 278.679 435.053 277.079 434.36C275.506 433.64 274.199 432.64 273.159 431.36C272.119 430.053 271.346 428.493 270.839 426.68C270.332 424.867 270.079 422.853 270.079 420.64C270.079 417.707 270.532 415.147 271.439 412.96C272.372 410.773 273.772 409.067 275.639 407.84C277.506 406.613 279.866 406 282.719 406C285.492 406 287.799 406.613 289.639 407.84C291.506 409.04 292.906 410.747 293.839 412.96C294.772 415.147 295.239 417.72 295.239 420.68ZM274.759 420.68C274.759 422.973 275.026 424.947 275.559 426.6C276.119 428.227 276.986 429.493 278.159 430.4C279.359 431.28 280.866 431.72 282.679 431.72C284.519 431.72 286.012 431.28 287.159 430.4C288.332 429.493 289.186 428.227 289.719 426.6C290.279 424.947 290.559 422.973 290.559 420.68C290.559 417.24 289.932 414.56 288.679 412.64C287.426 410.693 285.439 409.72 282.719 409.72C280.879 409.72 279.359 410.16 278.159 411.04C276.986 411.92 276.119 413.173 275.559 414.8C275.026 416.427 274.759 418.387 274.759 420.68ZM312.169 419.64H322.049V433.88C320.609 434.387 319.129 434.76 317.609 435C316.089 435.267 314.383 435.4 312.489 435.4C309.743 435.4 307.409 434.813 305.489 433.64C303.596 432.467 302.143 430.787 301.129 428.6C300.143 426.413 299.649 423.787 299.649 420.72C299.649 417.733 300.196 415.147 301.289 412.96C302.383 410.773 303.969 409.08 306.049 407.88C308.129 406.653 310.649 406.04 313.609 406.04C315.129 406.04 316.569 406.2 317.929 406.52C319.316 406.813 320.583 407.227 321.729 407.76L320.169 411.36C319.236 410.907 318.196 410.533 317.049 410.24C315.929 409.92 314.756 409.76 313.529 409.76C311.556 409.76 309.876 410.213 308.489 411.12C307.103 412 306.049 413.267 305.329 414.92C304.609 416.547 304.249 418.493 304.249 420.76C304.249 422.893 304.556 424.787 305.169 426.44C305.783 428.093 306.743 429.387 308.049 430.32C309.356 431.253 311.049 431.72 313.129 431.72C313.823 431.72 314.436 431.693 314.969 431.64C315.503 431.56 315.996 431.48 316.449 431.4C316.929 431.293 317.356 431.2 317.729 431.12V423.36H312.169V419.64ZM352.192 420.68C352.192 422.893 351.925 424.907 351.392 426.72C350.885 428.507 350.099 430.053 349.032 431.36C347.992 432.667 346.685 433.667 345.112 434.36C343.539 435.053 341.712 435.4 339.632 435.4C337.499 435.4 335.632 435.053 334.032 434.36C332.459 433.64 331.152 432.64 330.112 431.36C329.072 430.053 328.299 428.493 327.792 426.68C327.285 424.867 327.032 422.853 327.032 420.64C327.032 417.707 327.485 415.147 328.392 412.96C329.325 410.773 330.725 409.067 332.592 407.84C334.459 406.613 336.819 406 339.672 406C342.445 406 344.752 406.613 346.592 407.84C348.459 409.04 349.859 410.747 350.792 412.96C351.725 415.147 352.192 417.72 352.192 420.68ZM331.712 420.68C331.712 422.973 331.979 424.947 332.512 426.6C333.072 428.227 333.939 429.493 335.112 430.4C336.312 431.28 337.819 431.72 339.632 431.72C341.472 431.72 342.965 431.28 344.112 430.4C345.285 429.493 346.139 428.227 346.672 426.6C347.232 424.947 347.512 422.973 347.512 420.68C347.512 417.24 346.885 414.56 345.632 412.64C344.379 410.693 342.392 409.72 339.672 409.72C337.832 409.72 336.312 410.16 335.112 411.04C333.939 411.92 333.072 413.173 332.512 414.8C331.979 416.427 331.712 418.387 331.712 420.68ZM384.048 435H365.808V431.72L372.728 424.24C374.061 422.773 375.168 421.507 376.048 420.44C376.928 419.347 377.581 418.307 378.008 417.32C378.461 416.307 378.688 415.213 378.688 414.04C378.688 412.573 378.301 411.48 377.528 410.76C376.781 410.013 375.795 409.64 374.568 409.64C373.368 409.64 372.288 409.893 371.328 410.4C370.368 410.88 369.368 411.56 368.328 412.44L365.968 409.6C366.715 408.933 367.501 408.333 368.328 407.8C369.181 407.267 370.128 406.84 371.168 406.52C372.235 406.2 373.435 406.04 374.768 406.04C376.475 406.04 377.941 406.36 379.168 407C380.421 407.613 381.381 408.493 382.048 409.64C382.741 410.787 383.088 412.133 383.088 413.68C383.088 414.827 382.915 415.893 382.568 416.88C382.248 417.867 381.768 418.84 381.128 419.8C380.515 420.76 379.768 421.747 378.888 422.76C378.035 423.747 377.088 424.813 376.048 425.96L371.328 431.04V431.24H384.048V435Z" fill="white"/>
</svg>
