<svg width="637" height="600" viewBox="0 0 637 600" fill="none" xmlns="http://www.w3.org/2000/svg">
<rect width="637" height="600" rx="3" fill="#1C1C1C"/>
<path d="M232.614 85V57.868H252.222V85H248.08V61.402H236.832V85H232.614ZM268.386 64.138C270.691 64.138 272.541 65.0247 273.934 66.798C275.327 68.5713 276.024 71.2187 276.024 74.74C276.024 77.0453 275.695 78.996 275.036 80.592C274.403 82.188 273.503 83.3913 272.338 84.202C271.173 84.9873 269.817 85.38 268.272 85.38C267.335 85.38 266.499 85.2533 265.764 85C265.029 84.7213 264.409 84.3667 263.902 83.936C263.421 83.48 262.99 82.9987 262.61 82.492H262.382C262.433 82.948 262.483 83.4927 262.534 84.126C262.585 84.734 262.61 85.2787 262.61 85.76V94.12H258.506V64.518H261.85L262.42 67.254H262.61C262.99 66.6967 263.433 66.1773 263.94 65.696C264.472 65.2147 265.093 64.8347 265.802 64.556C266.537 64.2773 267.398 64.138 268.386 64.138ZM267.284 67.444C266.169 67.444 265.27 67.6973 264.586 68.204C263.902 68.6853 263.395 69.42 263.066 70.408C262.762 71.3707 262.61 72.5993 262.61 74.094V74.702C262.61 76.2727 262.749 77.6153 263.028 78.73C263.332 79.8193 263.826 80.6553 264.51 81.238C265.219 81.7953 266.169 82.074 267.36 82.074C268.373 82.074 269.209 81.77 269.868 81.162C270.527 80.5287 271.008 79.6547 271.312 78.54C271.641 77.4253 271.806 76.1333 271.806 74.664C271.806 72.4347 271.426 70.674 270.666 69.382C269.931 68.09 268.804 67.444 267.284 67.444ZM297.949 74.74C297.949 76.4373 297.733 77.9447 297.303 79.262C296.872 80.5793 296.251 81.694 295.441 82.606C294.655 83.518 293.693 84.2147 292.553 84.696C291.413 85.152 290.133 85.38 288.715 85.38C287.423 85.38 286.219 85.152 285.105 84.696C283.99 84.2147 283.027 83.518 282.217 82.606C281.406 81.694 280.773 80.5793 280.317 79.262C279.886 77.9447 279.671 76.4247 279.671 74.702C279.671 72.4473 280.038 70.5347 280.773 68.964C281.507 67.3933 282.559 66.2027 283.927 65.392C285.32 64.556 286.967 64.138 288.867 64.138C290.64 64.138 292.211 64.556 293.579 65.392C294.947 66.2027 296.011 67.3933 296.771 68.964C297.556 70.5347 297.949 72.46 297.949 74.74ZM283.927 74.74C283.927 76.26 284.091 77.5773 284.421 78.692C284.775 79.7813 285.307 80.6173 286.017 81.2C286.751 81.7827 287.676 82.074 288.791 82.074C289.931 82.074 290.855 81.7827 291.565 81.2C292.299 80.6173 292.831 79.7813 293.161 78.692C293.515 77.5773 293.693 76.26 293.693 74.74C293.693 73.1693 293.515 71.852 293.161 70.788C292.806 69.724 292.274 68.9133 291.565 68.356C290.855 67.7733 289.918 67.482 288.753 67.482C287.055 67.482 285.827 68.1153 285.067 69.382C284.307 70.6487 283.927 72.4347 283.927 74.74ZM310.381 64.138C312.079 64.138 313.548 64.518 314.789 65.278C316.031 66.0127 316.981 67.0767 317.639 68.47C318.323 69.8633 318.665 71.51 318.665 73.41V75.614H305.783C305.834 77.7167 306.341 79.3253 307.303 80.44C308.266 81.5547 309.621 82.112 311.369 82.112C312.611 82.112 313.713 81.998 314.675 81.77C315.663 81.5167 316.664 81.1493 317.677 80.668V84.012C316.715 84.468 315.727 84.81 314.713 85.038C313.725 85.266 312.522 85.38 311.103 85.38C309.254 85.38 307.607 84.9873 306.163 84.202C304.719 83.4167 303.592 82.2513 302.781 80.706C301.971 79.1353 301.565 77.21 301.565 74.93C301.565 72.6247 301.933 70.674 302.667 69.078C303.402 67.482 304.428 66.266 305.745 65.43C307.088 64.5687 308.633 64.138 310.381 64.138ZM310.381 67.254C309.089 67.254 308.051 67.7227 307.265 68.66C306.48 69.5973 306.024 70.9273 305.897 72.65H314.599C314.599 71.586 314.447 70.6487 314.143 69.838C313.839 69.0273 313.371 68.394 312.737 67.938C312.129 67.482 311.344 67.254 310.381 67.254ZM335.232 64.518H339.754L331.812 74.36L340.438 85H335.688L327.366 74.626V85H323.262V64.518H327.366V74.474L335.232 64.518ZM358.115 67.748H351.769V85H347.703V67.748H341.433V64.518H358.115V67.748ZM381.85 85H377.746V66.988C377.746 66.3547 377.746 65.772 377.746 65.24C377.771 64.6827 377.784 64.1507 377.784 63.644C377.809 63.112 377.835 62.6053 377.86 62.124C377.556 62.4533 377.239 62.7827 376.91 63.112C376.581 63.416 376.213 63.758 375.808 64.138L373.072 66.532L370.906 63.948L378.316 57.868H381.85V85Z" fill="white"/>
<path d="M109.366 193.06C109.366 194.033 109.073 194.807 108.486 195.38C107.913 195.94 107.139 196.3 106.166 196.46V196.54C107.313 196.7 108.179 197.073 108.766 197.66C109.353 198.247 109.646 199.013 109.646 199.96C109.646 200.8 109.446 201.54 109.046 202.18C108.646 202.807 108.046 203.3 107.246 203.66C106.446 204.02 105.439 204.2 104.226 204.2C103.479 204.2 102.766 204.14 102.086 204.02C101.419 203.913 100.806 203.713 100.246 203.42V201.78C100.633 201.98 101.046 202.153 101.486 202.3C101.939 202.433 102.393 202.54 102.846 202.62C103.313 202.687 103.753 202.72 104.166 202.72C105.366 202.72 106.273 202.48 106.886 202C107.499 201.52 107.806 200.84 107.806 199.96C107.806 199.053 107.439 198.393 106.706 197.98C105.973 197.567 104.959 197.36 103.666 197.36H101.786V195.86H103.566C104.459 195.86 105.199 195.753 105.786 195.54C106.373 195.327 106.806 195.027 107.086 194.64C107.379 194.24 107.526 193.773 107.526 193.24C107.526 192.52 107.279 191.967 106.786 191.58C106.293 191.193 105.646 191 104.846 191C104.019 191 103.326 191.113 102.766 191.34C102.206 191.567 101.659 191.86 101.126 192.22L100.286 191C100.646 190.72 101.059 190.473 101.526 190.26C101.993 190.033 102.506 189.853 103.066 189.72C103.626 189.587 104.233 189.52 104.886 189.52C105.859 189.52 106.679 189.673 107.346 189.98C108.013 190.287 108.513 190.707 108.846 191.24C109.193 191.76 109.366 192.367 109.366 193.06ZM119.839 193.28V202.52H121.299V207.72H119.639V204H112.639V207.72H110.979V202.52H111.799C112.372 201.667 112.845 200.74 113.219 199.74C113.592 198.727 113.872 197.673 114.059 196.58C114.259 195.473 114.365 194.373 114.379 193.28H119.839ZM115.919 194.66C115.865 195.567 115.732 196.507 115.519 197.48C115.319 198.44 115.052 199.36 114.719 200.24C114.399 201.12 114.025 201.88 113.599 202.52H118.139V194.66H115.919ZM127.154 193.08C128.021 193.08 128.768 193.28 129.394 193.68C130.021 194.08 130.501 194.647 130.834 195.38C131.181 196.1 131.354 196.947 131.354 197.92V198.98H124.474C124.501 200.193 124.788 201.12 125.334 201.76C125.881 202.387 126.648 202.7 127.634 202.7C128.274 202.7 128.841 202.64 129.334 202.52C129.841 202.387 130.361 202.2 130.894 201.96V203.5C130.374 203.74 129.861 203.913 129.354 204.02C128.861 204.14 128.261 204.2 127.554 204.2C126.594 204.2 125.748 203.993 125.014 203.58C124.281 203.167 123.708 202.553 123.294 201.74C122.881 200.913 122.674 199.907 122.674 198.72C122.674 197.547 122.861 196.54 123.234 195.7C123.608 194.86 124.128 194.213 124.794 193.76C125.474 193.307 126.261 193.08 127.154 193.08ZM127.154 194.52C126.381 194.52 125.768 194.793 125.314 195.34C124.861 195.873 124.594 196.62 124.514 197.58H129.554C129.554 196.967 129.468 196.433 129.294 195.98C129.121 195.527 128.854 195.173 128.494 194.92C128.148 194.653 127.701 194.52 127.154 194.52ZM137.939 204.2C137.032 204.2 136.232 204.007 135.539 203.62C134.845 203.233 134.299 202.633 133.899 201.82C133.512 201.007 133.319 199.967 133.319 198.7C133.319 197.38 133.525 196.307 133.939 195.48C134.352 194.653 134.912 194.047 135.619 193.66C136.339 193.273 137.152 193.08 138.059 193.08C138.579 193.08 139.079 193.14 139.559 193.26C140.052 193.367 140.452 193.5 140.759 193.66L140.219 195.12C139.912 195 139.552 194.887 139.139 194.78C138.739 194.673 138.365 194.62 138.019 194.62C137.365 194.62 136.825 194.773 136.399 195.08C135.972 195.387 135.652 195.84 135.439 196.44C135.225 197.04 135.119 197.787 135.119 198.68C135.119 199.533 135.225 200.26 135.439 200.86C135.652 201.46 135.965 201.913 136.379 202.22C136.805 202.527 137.325 202.68 137.939 202.68C138.485 202.68 138.972 202.62 139.399 202.5C139.825 202.38 140.219 202.233 140.579 202.06V203.62C140.232 203.807 139.852 203.947 139.439 204.04C139.025 204.147 138.525 204.2 137.939 204.2ZM147.621 197.68C148.501 197.68 149.234 197.793 149.821 198.02C150.408 198.247 150.848 198.587 151.141 199.04C151.448 199.48 151.601 200.04 151.601 200.72C151.601 201.387 151.461 201.967 151.181 202.46C150.901 202.953 150.461 203.333 149.861 203.6C149.274 203.867 148.508 204 147.561 204H142.961V193.28H144.701V197.68H147.621ZM149.861 200.82C149.861 200.167 149.648 199.727 149.221 199.5C148.794 199.26 148.201 199.14 147.441 199.14H144.701V202.58H147.481C148.161 202.58 148.728 202.447 149.181 202.18C149.634 201.913 149.861 201.46 149.861 200.82ZM166.655 193.28V202.52H168.115V207.72H166.455V204H159.455V207.72H157.795V202.52H158.615C159.188 201.667 159.662 200.74 160.035 199.74C160.408 198.727 160.688 197.673 160.875 196.58C161.075 195.473 161.182 194.373 161.195 193.28H166.655ZM162.735 194.66C162.682 195.567 162.548 196.507 162.335 197.48C162.135 198.44 161.868 199.36 161.535 200.24C161.215 201.12 160.842 201.88 160.415 202.52H164.955V194.66H162.735ZM178.871 198.62C178.871 199.513 178.757 200.307 178.531 201C178.317 201.68 178.004 202.26 177.591 202.74C177.177 203.22 176.677 203.587 176.091 203.84C175.504 204.08 174.851 204.2 174.131 204.2C173.464 204.2 172.844 204.08 172.271 203.84C171.711 203.587 171.217 203.22 170.791 202.74C170.377 202.26 170.057 201.68 169.831 201C169.604 200.307 169.491 199.513 169.491 198.62C169.491 197.433 169.677 196.433 170.051 195.62C170.437 194.793 170.984 194.167 171.691 193.74C172.397 193.3 173.231 193.08 174.191 193.08C175.111 193.08 175.917 193.3 176.611 193.74C177.317 194.167 177.871 194.793 178.271 195.62C178.671 196.433 178.871 197.433 178.871 198.62ZM171.291 198.62C171.291 199.46 171.391 200.193 171.591 200.82C171.791 201.433 172.104 201.907 172.531 202.24C172.957 202.573 173.504 202.74 174.171 202.74C174.837 202.74 175.384 202.573 175.811 202.24C176.237 201.907 176.551 201.433 176.751 200.82C176.964 200.193 177.071 199.46 177.071 198.62C177.071 197.767 176.964 197.04 176.751 196.44C176.551 195.84 176.237 195.38 175.811 195.06C175.384 194.727 174.831 194.56 174.151 194.56C173.151 194.56 172.424 194.92 171.971 195.64C171.517 196.36 171.291 197.353 171.291 198.62ZM189.257 204H187.497V194.74H184.557C184.437 196.433 184.277 197.88 184.077 199.08C183.89 200.267 183.65 201.233 183.357 201.98C183.077 202.727 182.737 203.273 182.337 203.62C181.937 203.967 181.464 204.14 180.917 204.14C180.744 204.14 180.57 204.127 180.397 204.1C180.237 204.087 180.104 204.053 179.997 204V202.68C180.077 202.707 180.164 202.727 180.257 202.74C180.35 202.753 180.444 202.76 180.537 202.76C180.804 202.76 181.044 202.64 181.257 202.4C181.484 202.16 181.684 201.793 181.857 201.3C182.044 200.807 182.21 200.187 182.357 199.44C182.504 198.68 182.63 197.787 182.737 196.76C182.857 195.733 182.964 194.573 183.057 193.28H189.257V204ZM204.714 193.28L200.574 198.48L205.054 204H203.094L198.774 198.56V204H197.154V198.56L192.814 204H190.854L195.334 198.48L191.214 193.28H193.094L197.154 198.48V193.28H198.774V198.48L202.834 193.28H204.714ZM208.431 193.28V197.74H213.791V193.28H215.531V204H213.791V199.22H208.431V204H206.691V193.28H208.431ZM227.504 198.62C227.504 199.513 227.39 200.307 227.164 201C226.95 201.68 226.637 202.26 226.224 202.74C225.81 203.22 225.31 203.587 224.724 203.84C224.137 204.08 223.484 204.2 222.764 204.2C222.097 204.2 221.477 204.08 220.904 203.84C220.344 203.587 219.85 203.22 219.424 202.74C219.01 202.26 218.69 201.68 218.464 201C218.237 200.307 218.124 199.513 218.124 198.62C218.124 197.433 218.31 196.433 218.684 195.62C219.07 194.793 219.617 194.167 220.324 193.74C221.03 193.3 221.864 193.08 222.824 193.08C223.744 193.08 224.55 193.3 225.244 193.74C225.95 194.167 226.504 194.793 226.904 195.62C227.304 196.433 227.504 197.433 227.504 198.62ZM219.924 198.62C219.924 199.46 220.024 200.193 220.224 200.82C220.424 201.433 220.737 201.907 221.164 202.24C221.59 202.573 222.137 202.74 222.804 202.74C223.47 202.74 224.017 202.573 224.444 202.24C224.87 201.907 225.184 201.433 225.384 200.82C225.597 200.193 225.704 199.46 225.704 198.62C225.704 197.767 225.597 197.04 225.384 196.44C225.184 195.84 224.87 195.38 224.444 195.06C224.017 194.727 223.464 194.56 222.784 194.56C221.784 194.56 221.057 194.92 220.604 195.64C220.15 196.36 219.924 197.353 219.924 198.62ZM234.453 197.56C234.453 196 234.599 194.673 234.893 193.58C235.199 192.473 235.666 191.593 236.293 190.94C236.933 190.273 237.753 189.827 238.753 189.6C239.553 189.413 240.339 189.247 241.113 189.1C241.886 188.953 242.613 188.82 243.293 188.7L243.593 190.24C243.259 190.293 242.893 190.36 242.493 190.44C242.093 190.507 241.686 190.58 241.273 190.66C240.873 190.727 240.479 190.8 240.093 190.88C239.719 190.947 239.386 191.013 239.093 191.08C238.679 191.173 238.306 191.333 237.973 191.56C237.653 191.773 237.373 192.067 237.133 192.44C236.906 192.813 236.719 193.273 236.573 193.82C236.439 194.367 236.359 195.013 236.333 195.76H236.453C236.626 195.507 236.866 195.247 237.173 194.98C237.479 194.713 237.846 194.487 238.273 194.3C238.699 194.113 239.186 194.02 239.733 194.02C240.599 194.02 241.326 194.227 241.913 194.64C242.499 195.04 242.939 195.6 243.233 196.32C243.539 197.04 243.693 197.88 243.693 198.84C243.693 200.027 243.493 201.02 243.093 201.82C242.706 202.62 242.166 203.22 241.473 203.62C240.779 204.007 239.973 204.2 239.053 204.2C238.359 204.2 237.726 204.06 237.153 203.78C236.593 203.487 236.106 203.06 235.693 202.5C235.293 201.94 234.986 201.247 234.773 200.42C234.559 199.593 234.453 198.64 234.453 197.56ZM239.193 202.74C239.726 202.74 240.193 202.62 240.593 202.38C240.993 202.14 241.299 201.747 241.513 201.2C241.739 200.653 241.853 199.927 241.853 199.02C241.853 197.927 241.666 197.067 241.293 196.44C240.919 195.8 240.306 195.48 239.453 195.48C238.906 195.48 238.413 195.613 237.973 195.88C237.533 196.133 237.159 196.427 236.853 196.76C236.559 197.093 236.353 197.373 236.233 197.6C236.233 198.253 236.273 198.887 236.353 199.5C236.446 200.113 236.599 200.667 236.813 201.16C237.039 201.64 237.339 202.027 237.713 202.32C238.099 202.6 238.593 202.74 239.193 202.74ZM246.281 204V193.28H248.021V197.68H250.541C251.435 197.68 252.168 197.793 252.741 198.02C253.315 198.247 253.741 198.587 254.021 199.04C254.301 199.48 254.441 200.04 254.441 200.72C254.441 201.387 254.301 201.967 254.021 202.46C253.755 202.953 253.328 203.333 252.741 203.6C252.168 203.867 251.415 204 250.481 204H246.281ZM250.321 202.58C251.028 202.58 251.601 202.453 252.041 202.2C252.481 201.933 252.701 201.473 252.701 200.82C252.701 200.167 252.495 199.727 252.081 199.5C251.681 199.26 251.101 199.14 250.341 199.14H248.021V202.58H250.321ZM256.101 204V193.28H257.841V204H256.101ZM268.088 194.76H264.788V204H263.068V194.76H259.808V193.28H268.088V194.76ZM274.73 197.68C275.61 197.68 276.344 197.793 276.93 198.02C277.517 198.247 277.957 198.587 278.25 199.04C278.557 199.48 278.71 200.04 278.71 200.72C278.71 201.387 278.57 201.967 278.29 202.46C278.01 202.953 277.57 203.333 276.97 203.6C276.384 203.867 275.617 204 274.67 204H270.07V193.28H271.81V197.68H274.73ZM276.97 200.82C276.97 200.167 276.757 199.727 276.33 199.5C275.904 199.26 275.31 199.14 274.55 199.14H271.81V202.58H274.59C275.27 202.58 275.837 202.447 276.29 202.18C276.744 201.913 276.97 201.46 276.97 200.82ZM292.164 193.28H294.064L289.784 198.44L294.424 204H292.404L287.884 198.56V204H286.144V193.28H287.884V198.48L292.164 193.28ZM301.063 193.08C302.303 193.08 303.296 193.54 304.043 194.46C304.803 195.38 305.183 196.767 305.183 198.62C305.183 199.833 305.01 200.86 304.663 201.7C304.316 202.527 303.83 203.153 303.203 203.58C302.59 203.993 301.87 204.2 301.043 204.2C300.523 204.2 300.063 204.127 299.663 203.98C299.276 203.833 298.943 203.647 298.663 203.42C298.383 203.18 298.143 202.92 297.943 202.64H297.823C297.85 202.867 297.876 203.153 297.903 203.5C297.93 203.847 297.943 204.147 297.943 204.4V208.8H296.203V193.28H297.623L297.863 194.74H297.943C298.143 194.433 298.383 194.153 298.663 193.9C298.943 193.647 299.276 193.447 299.663 193.3C300.063 193.153 300.53 193.08 301.063 193.08ZM300.723 194.56C300.056 194.56 299.516 194.7 299.103 194.98C298.703 195.247 298.41 195.653 298.223 196.2C298.036 196.747 297.943 197.44 297.943 198.28V198.62C297.943 199.5 298.023 200.247 298.183 200.86C298.356 201.473 298.65 201.94 299.063 202.26C299.476 202.58 300.043 202.74 300.763 202.74C301.363 202.74 301.856 202.56 302.243 202.2C302.63 201.84 302.916 201.353 303.103 200.74C303.29 200.113 303.383 199.4 303.383 198.6C303.383 197.373 303.163 196.393 302.723 195.66C302.296 194.927 301.63 194.56 300.723 194.56ZM311.645 193.1C312.872 193.1 313.785 193.387 314.385 193.96C314.998 194.533 315.305 195.447 315.305 196.7V204H314.045L313.705 202.48H313.625C313.332 202.867 313.032 203.193 312.725 203.46C312.432 203.713 312.085 203.9 311.685 204.02C311.298 204.14 310.818 204.2 310.245 204.2C309.645 204.2 309.105 204.087 308.625 203.86C308.145 203.633 307.765 203.287 307.485 202.82C307.205 202.34 307.065 201.74 307.065 201.02C307.065 199.953 307.458 199.133 308.245 198.56C309.032 197.973 310.245 197.653 311.885 197.6L313.585 197.54V196.9C313.585 196.007 313.405 195.387 313.045 195.04C312.698 194.693 312.198 194.52 311.545 194.52C311.025 194.52 310.525 194.607 310.045 194.78C309.578 194.94 309.132 195.127 308.705 195.34L308.165 194.02C308.618 193.767 309.145 193.553 309.745 193.38C310.345 193.193 310.978 193.1 311.645 193.1ZM312.125 198.82C310.898 198.873 310.045 199.087 309.565 199.46C309.098 199.833 308.865 200.36 308.865 201.04C308.865 201.64 309.032 202.08 309.365 202.36C309.698 202.64 310.132 202.78 310.665 202.78C311.492 202.78 312.185 202.533 312.745 202.04C313.305 201.533 313.585 200.76 313.585 199.72V198.76L312.125 198.82ZM325.49 194.76H322.19V204H320.47V194.76H317.21V193.28H325.49V194.76ZM333.493 193.28H335.393L331.113 198.44L335.753 204H333.733L329.213 198.56V204H327.473V193.28H329.213V198.48L333.493 193.28ZM345.98 198.62C345.98 199.513 345.867 200.307 345.64 201C345.427 201.68 345.113 202.26 344.7 202.74C344.287 203.22 343.787 203.587 343.2 203.84C342.613 204.08 341.96 204.2 341.24 204.2C340.573 204.2 339.953 204.08 339.38 203.84C338.82 203.587 338.327 203.22 337.9 202.74C337.487 202.26 337.167 201.68 336.94 201C336.713 200.307 336.6 199.513 336.6 198.62C336.6 197.433 336.787 196.433 337.16 195.62C337.547 194.793 338.093 194.167 338.8 193.74C339.507 193.3 340.34 193.08 341.3 193.08C342.22 193.08 343.027 193.3 343.72 193.74C344.427 194.167 344.98 194.793 345.38 195.62C345.78 196.433 345.98 197.433 345.98 198.62ZM338.4 198.62C338.4 199.46 338.5 200.193 338.7 200.82C338.9 201.433 339.213 201.907 339.64 202.24C340.067 202.573 340.613 202.74 341.28 202.74C341.947 202.74 342.493 202.573 342.92 202.24C343.347 201.907 343.66 201.433 343.86 200.82C344.073 200.193 344.18 199.46 344.18 198.62C344.18 197.767 344.073 197.04 343.86 196.44C343.66 195.84 343.347 195.38 342.92 195.06C342.493 194.727 341.94 194.56 341.26 194.56C340.26 194.56 339.533 194.92 339.08 195.64C338.627 196.36 338.4 197.353 338.4 198.62ZM352.486 193.08C353.353 193.08 354.1 193.28 354.726 193.68C355.353 194.08 355.833 194.647 356.166 195.38C356.513 196.1 356.686 196.947 356.686 197.92V198.98H349.806C349.833 200.193 350.12 201.12 350.666 201.76C351.213 202.387 351.98 202.7 352.966 202.7C353.606 202.7 354.173 202.64 354.666 202.52C355.173 202.387 355.693 202.2 356.226 201.96V203.5C355.706 203.74 355.193 203.913 354.686 204.02C354.193 204.14 353.593 204.2 352.886 204.2C351.926 204.2 351.08 203.993 350.346 203.58C349.613 203.167 349.04 202.553 348.626 201.74C348.213 200.913 348.006 199.907 348.006 198.72C348.006 197.547 348.193 196.54 348.566 195.7C348.94 194.86 349.46 194.213 350.126 193.76C350.806 193.307 351.593 193.08 352.486 193.08ZM352.486 194.52C351.713 194.52 351.1 194.793 350.646 195.34C350.193 195.873 349.926 196.62 349.846 197.58H354.886C354.886 196.967 354.8 196.433 354.626 195.98C354.453 195.527 354.186 195.173 353.826 194.92C353.48 194.653 353.033 194.52 352.486 194.52ZM372.914 198.62C372.914 199.513 372.8 200.307 372.574 201C372.36 201.68 372.047 202.26 371.634 202.74C371.22 203.22 370.72 203.587 370.134 203.84C369.547 204.08 368.894 204.2 368.174 204.2C367.507 204.2 366.887 204.08 366.314 203.84C365.754 203.587 365.26 203.22 364.834 202.74C364.42 202.26 364.1 201.68 363.874 201C363.647 200.307 363.534 199.513 363.534 198.62C363.534 197.433 363.72 196.433 364.094 195.62C364.48 194.793 365.027 194.167 365.734 193.74C366.44 193.3 367.274 193.08 368.234 193.08C369.154 193.08 369.96 193.3 370.654 193.74C371.36 194.167 371.914 194.793 372.314 195.62C372.714 196.433 372.914 197.433 372.914 198.62ZM365.334 198.62C365.334 199.46 365.434 200.193 365.634 200.82C365.834 201.433 366.147 201.907 366.574 202.24C367 202.573 367.547 202.74 368.214 202.74C368.88 202.74 369.427 202.573 369.854 202.24C370.28 201.907 370.594 201.433 370.794 200.82C371.007 200.193 371.114 199.46 371.114 198.62C371.114 197.767 371.007 197.04 370.794 196.44C370.594 195.84 370.28 195.38 369.854 195.06C369.427 194.727 368.874 194.56 368.194 194.56C367.194 194.56 366.467 194.92 366.014 195.64C365.56 196.36 365.334 197.353 365.334 198.62ZM384.08 193.28V204H382.34V194.78H377.24V204H375.5V193.28H384.08ZM388.898 199.82C388.898 199.94 388.891 200.113 388.878 200.34C388.878 200.553 388.871 200.787 388.858 201.04C388.844 201.28 388.831 201.513 388.818 201.74C388.804 201.953 388.791 202.127 388.778 202.26L394.138 193.28H396.258V204H394.638V197.68C394.638 197.467 394.638 197.187 394.638 196.84C394.651 196.493 394.664 196.153 394.678 195.82C394.691 195.473 394.704 195.213 394.718 195.04L389.418 204H387.258V193.28H388.898V199.82ZM403.505 204.2C402.599 204.2 401.799 204.007 401.105 203.62C400.412 203.233 399.865 202.633 399.465 201.82C399.079 201.007 398.885 199.967 398.885 198.7C398.885 197.38 399.092 196.307 399.505 195.48C399.919 194.653 400.479 194.047 401.185 193.66C401.905 193.273 402.719 193.08 403.625 193.08C404.145 193.08 404.645 193.14 405.125 193.26C405.619 193.367 406.019 193.5 406.325 193.66L405.785 195.12C405.479 195 405.119 194.887 404.705 194.78C404.305 194.673 403.932 194.62 403.585 194.62C402.932 194.62 402.392 194.773 401.965 195.08C401.539 195.387 401.219 195.84 401.005 196.44C400.792 197.04 400.685 197.787 400.685 198.68C400.685 199.533 400.792 200.26 401.005 200.86C401.219 201.46 401.532 201.913 401.945 202.22C402.372 202.527 402.892 202.68 403.505 202.68C404.052 202.68 404.539 202.62 404.965 202.5C405.392 202.38 405.785 202.233 406.145 202.06V203.62C405.799 203.807 405.419 203.947 405.005 204.04C404.592 204.147 404.092 204.2 403.505 204.2ZM412.387 193.1C413.614 193.1 414.527 193.387 415.127 193.96C415.741 194.533 416.047 195.447 416.047 196.7V204H414.787L414.447 202.48H414.367C414.074 202.867 413.774 203.193 413.467 203.46C413.174 203.713 412.827 203.9 412.427 204.02C412.041 204.14 411.561 204.2 410.987 204.2C410.387 204.2 409.847 204.087 409.367 203.86C408.887 203.633 408.507 203.287 408.227 202.82C407.947 202.34 407.807 201.74 407.807 201.02C407.807 199.953 408.201 199.133 408.987 198.56C409.774 197.973 410.987 197.653 412.627 197.6L414.327 197.54V196.9C414.327 196.007 414.147 195.387 413.787 195.04C413.441 194.693 412.941 194.52 412.287 194.52C411.767 194.52 411.267 194.607 410.787 194.78C410.321 194.94 409.874 195.127 409.447 195.34L408.907 194.02C409.361 193.767 409.887 193.553 410.487 193.38C411.087 193.193 411.721 193.1 412.387 193.1ZM412.867 198.82C411.641 198.873 410.787 199.087 410.307 199.46C409.841 199.833 409.607 200.36 409.607 201.04C409.607 201.64 409.774 202.08 410.107 202.36C410.441 202.64 410.874 202.78 411.407 202.78C412.234 202.78 412.927 202.533 413.487 202.04C414.047 201.533 414.327 200.76 414.327 199.72V198.76L412.867 198.82ZM420.892 193.28V197.74H426.252V193.28H427.992V204H426.252V199.22H420.892V204H419.152V193.28H420.892ZM432.784 199.82C432.784 199.94 432.778 200.113 432.764 200.34C432.764 200.553 432.758 200.787 432.744 201.04C432.731 201.28 432.718 201.513 432.704 201.74C432.691 201.953 432.678 202.127 432.664 202.26L438.024 193.28H440.144V204H438.524V197.68C438.524 197.467 438.524 197.187 438.524 196.84C438.538 196.493 438.551 196.153 438.564 195.82C438.578 195.473 438.591 195.213 438.604 195.04L433.304 204H431.144V193.28H432.784V199.82ZM447.252 193.08C448.119 193.08 448.865 193.28 449.492 193.68C450.119 194.08 450.599 194.647 450.932 195.38C451.279 196.1 451.452 196.947 451.452 197.92V198.98H444.572C444.599 200.193 444.885 201.12 445.432 201.76C445.979 202.387 446.745 202.7 447.732 202.7C448.372 202.7 448.939 202.64 449.432 202.52C449.939 202.387 450.459 202.2 450.992 201.96V203.5C450.472 203.74 449.959 203.913 449.452 204.02C448.959 204.14 448.359 204.2 447.652 204.2C446.692 204.2 445.845 203.993 445.112 203.58C444.379 203.167 443.805 202.553 443.392 201.74C442.979 200.913 442.772 199.907 442.772 198.72C442.772 197.547 442.959 196.54 443.332 195.7C443.705 194.86 444.225 194.213 444.892 193.76C445.572 193.307 446.359 193.08 447.252 193.08ZM447.252 194.52C446.479 194.52 445.865 194.793 445.412 195.34C444.959 195.873 444.692 196.62 444.612 197.58H449.652C449.652 196.967 449.565 196.433 449.392 195.98C449.219 195.527 448.952 195.173 448.592 194.92C448.245 194.653 447.799 194.52 447.252 194.52ZM467.439 193.28V204H465.699V194.78H460.599V204H458.859V193.28H467.439ZM475.477 193.08C476.717 193.08 477.71 193.54 478.457 194.46C479.217 195.38 479.597 196.767 479.597 198.62C479.597 199.833 479.424 200.86 479.077 201.7C478.73 202.527 478.244 203.153 477.617 203.58C477.004 203.993 476.284 204.2 475.457 204.2C474.937 204.2 474.477 204.127 474.077 203.98C473.69 203.833 473.357 203.647 473.077 203.42C472.797 203.18 472.557 202.92 472.357 202.64H472.237C472.264 202.867 472.29 203.153 472.317 203.5C472.344 203.847 472.357 204.147 472.357 204.4V208.8H470.617V193.28H472.037L472.277 194.74H472.357C472.557 194.433 472.797 194.153 473.077 193.9C473.357 193.647 473.69 193.447 474.077 193.3C474.477 193.153 474.944 193.08 475.477 193.08ZM475.137 194.56C474.47 194.56 473.93 194.7 473.517 194.98C473.117 195.247 472.824 195.653 472.637 196.2C472.45 196.747 472.357 197.44 472.357 198.28V198.62C472.357 199.5 472.437 200.247 472.597 200.86C472.77 201.473 473.064 201.94 473.477 202.26C473.89 202.58 474.457 202.74 475.177 202.74C475.777 202.74 476.27 202.56 476.657 202.2C477.044 201.84 477.33 201.353 477.517 200.74C477.704 200.113 477.797 199.4 477.797 198.6C477.797 197.373 477.577 196.393 477.137 195.66C476.71 194.927 476.044 194.56 475.137 194.56ZM491.019 198.62C491.019 199.513 490.906 200.307 490.679 201C490.466 201.68 490.152 202.26 489.739 202.74C489.326 203.22 488.826 203.587 488.239 203.84C487.652 204.08 486.999 204.2 486.279 204.2C485.612 204.2 484.992 204.08 484.419 203.84C483.859 203.587 483.366 203.22 482.939 202.74C482.526 202.26 482.206 201.68 481.979 201C481.752 200.307 481.639 199.513 481.639 198.62C481.639 197.433 481.826 196.433 482.199 195.62C482.586 194.793 483.132 194.167 483.839 193.74C484.546 193.3 485.379 193.08 486.339 193.08C487.259 193.08 488.066 193.3 488.759 193.74C489.466 194.167 490.019 194.793 490.419 195.62C490.819 196.433 491.019 197.433 491.019 198.62ZM483.439 198.62C483.439 199.46 483.539 200.193 483.739 200.82C483.939 201.433 484.252 201.907 484.679 202.24C485.106 202.573 485.652 202.74 486.319 202.74C486.986 202.74 487.532 202.573 487.959 202.24C488.386 201.907 488.699 201.433 488.899 200.82C489.112 200.193 489.219 199.46 489.219 198.62C489.219 197.767 489.112 197.04 488.899 196.44C488.699 195.84 488.386 195.38 487.959 195.06C487.532 194.727 486.979 194.56 486.299 194.56C485.299 194.56 484.572 194.92 484.119 195.64C483.666 196.36 483.439 197.353 483.439 198.62ZM497.525 193.08C498.392 193.08 499.139 193.28 499.765 193.68C500.392 194.08 500.872 194.647 501.205 195.38C501.552 196.1 501.725 196.947 501.725 197.92V198.98H494.845C494.872 200.193 495.159 201.12 495.705 201.76C496.252 202.387 497.019 202.7 498.005 202.7C498.645 202.7 499.212 202.64 499.705 202.52C500.212 202.387 500.732 202.2 501.265 201.96V203.5C500.745 203.74 500.232 203.913 499.725 204.02C499.232 204.14 498.632 204.2 497.925 204.2C496.965 204.2 496.119 203.993 495.385 203.58C494.652 203.167 494.079 202.553 493.665 201.74C493.252 200.913 493.045 199.907 493.045 198.72C493.045 197.547 493.232 196.54 493.605 195.7C493.979 194.86 494.499 194.213 495.165 193.76C495.845 193.307 496.632 193.08 497.525 193.08ZM497.525 194.52C496.752 194.52 496.139 194.793 495.685 195.34C495.232 195.873 494.965 196.62 494.885 197.58H499.925C499.925 196.967 499.839 196.433 499.665 195.98C499.492 195.527 499.225 195.173 498.865 194.92C498.519 194.653 498.072 194.52 497.525 194.52ZM510.27 193.28H512.17L507.89 198.44L512.53 204H510.51L505.99 198.56V204H504.25V193.28H505.99V198.48L510.27 193.28ZM521.389 194.76H518.089V204H516.369V194.76H513.109V193.28H521.389V194.76ZM527.231 193.1C528.458 193.1 529.371 193.387 529.971 193.96C530.584 194.533 530.891 195.447 530.891 196.7V204H529.631L529.291 202.48H529.211C528.918 202.867 528.618 203.193 528.311 203.46C528.018 203.713 527.671 203.9 527.271 204.02C526.884 204.14 526.404 204.2 525.831 204.2C525.231 204.2 524.691 204.087 524.211 203.86C523.731 203.633 523.351 203.287 523.071 202.82C522.791 202.34 522.651 201.74 522.651 201.02C522.651 199.953 523.044 199.133 523.831 198.56C524.618 197.973 525.831 197.653 527.471 197.6L529.171 197.54V196.9C529.171 196.007 528.991 195.387 528.631 195.04C528.284 194.693 527.784 194.52 527.131 194.52C526.611 194.52 526.111 194.607 525.631 194.78C525.164 194.94 524.718 195.127 524.291 195.34L523.751 194.02C524.204 193.767 524.731 193.553 525.331 193.38C525.931 193.193 526.564 193.1 527.231 193.1ZM527.711 198.82C526.484 198.873 525.631 199.087 525.151 199.46C524.684 199.833 524.451 200.36 524.451 201.04C524.451 201.64 524.618 202.08 524.951 202.36C525.284 202.64 525.718 202.78 526.251 202.78C527.078 202.78 527.771 202.533 528.331 202.04C528.891 201.533 529.171 200.76 529.171 199.72V198.76L527.711 198.82ZM533.756 202.92C533.756 202.427 533.869 202.08 534.096 201.88C534.323 201.68 534.603 201.58 534.936 201.58C535.269 201.58 535.556 201.68 535.796 201.88C536.036 202.08 536.156 202.427 536.156 202.92C536.156 203.4 536.036 203.747 535.796 203.96C535.556 204.173 535.269 204.28 534.936 204.28C534.603 204.28 534.323 204.173 534.096 203.96C533.869 203.747 533.756 203.4 533.756 202.92Z" fill="white"/>
<path d="M259.012 434V406.868H263.23V430.466H274.022V434H259.012ZM300.327 420.396C300.327 422.499 300.074 424.411 299.567 426.134C299.086 427.831 298.338 429.301 297.325 430.542C296.337 431.783 295.096 432.733 293.601 433.392C292.106 434.051 290.371 434.38 288.395 434.38C286.368 434.38 284.595 434.051 283.075 433.392C281.58 432.708 280.339 431.758 279.351 430.542C278.363 429.301 277.628 427.819 277.147 426.096C276.666 424.373 276.425 422.461 276.425 420.358C276.425 417.571 276.856 415.139 277.717 413.062C278.604 410.985 279.934 409.363 281.707 408.198C283.48 407.033 285.722 406.45 288.433 406.45C291.068 406.45 293.259 407.033 295.007 408.198C296.78 409.338 298.11 410.959 298.997 413.062C299.884 415.139 300.327 417.584 300.327 420.396ZM280.871 420.396C280.871 422.575 281.124 424.449 281.631 426.02C282.163 427.565 282.986 428.769 284.101 429.63C285.241 430.466 286.672 430.884 288.395 430.884C290.143 430.884 291.562 430.466 292.651 429.63C293.766 428.769 294.576 427.565 295.083 426.02C295.615 424.449 295.881 422.575 295.881 420.396C295.881 417.128 295.286 414.582 294.095 412.758C292.904 410.909 291.017 409.984 288.433 409.984C286.685 409.984 285.241 410.402 284.101 411.238C282.986 412.074 282.163 413.265 281.631 414.81C281.124 416.355 280.871 418.217 280.871 420.396ZM316.411 419.408H325.797V432.936C324.429 433.417 323.023 433.772 321.579 434C320.135 434.253 318.513 434.38 316.715 434.38C314.105 434.38 311.889 433.823 310.065 432.708C308.266 431.593 306.885 429.997 305.923 427.92C304.985 425.843 304.517 423.347 304.517 420.434C304.517 417.597 305.036 415.139 306.075 413.062C307.113 410.985 308.621 409.376 310.597 408.236C312.573 407.071 314.967 406.488 317.779 406.488C319.223 406.488 320.591 406.64 321.883 406.944C323.2 407.223 324.403 407.615 325.493 408.122L324.011 411.542C323.124 411.111 322.136 410.757 321.047 410.478C319.983 410.174 318.868 410.022 317.703 410.022C315.828 410.022 314.232 410.453 312.915 411.314C311.597 412.15 310.597 413.353 309.913 414.924C309.229 416.469 308.887 418.319 308.887 420.472C308.887 422.499 309.178 424.297 309.761 425.868C310.343 427.439 311.255 428.667 312.497 429.554C313.738 430.441 315.347 430.884 317.323 430.884C317.981 430.884 318.564 430.859 319.071 430.808C319.577 430.732 320.046 430.656 320.477 430.58C320.933 430.479 321.338 430.39 321.693 430.314V422.942H316.411V419.408ZM354.432 420.396C354.432 422.499 354.179 424.411 353.672 426.134C353.191 427.831 352.444 429.301 351.43 430.542C350.442 431.783 349.201 432.733 347.706 433.392C346.212 434.051 344.476 434.38 342.5 434.38C340.474 434.38 338.7 434.051 337.18 433.392C335.686 432.708 334.444 431.758 333.456 430.542C332.468 429.301 331.734 427.819 331.252 426.096C330.771 424.373 330.53 422.461 330.53 420.358C330.53 417.571 330.961 415.139 331.822 413.062C332.709 410.985 334.039 409.363 335.812 408.198C337.586 407.033 339.828 406.45 342.538 406.45C345.173 406.45 347.364 407.033 349.112 408.198C350.886 409.338 352.216 410.959 353.102 413.062C353.989 415.139 354.432 417.584 354.432 420.396ZM334.976 420.396C334.976 422.575 335.23 424.449 335.736 426.02C336.268 427.565 337.092 428.769 338.206 429.63C339.346 430.466 340.778 430.884 342.5 430.884C344.248 430.884 345.667 430.466 346.756 429.63C347.871 428.769 348.682 427.565 349.188 426.02C349.72 424.449 349.986 422.575 349.986 420.396C349.986 417.128 349.391 414.582 348.2 412.758C347.01 410.909 345.122 409.984 342.538 409.984C340.79 409.984 339.346 410.402 338.206 411.238C337.092 412.074 336.268 413.265 335.736 414.81C335.23 416.355 334.976 418.217 334.976 420.396ZM379.452 434H375.348V415.988C375.348 415.355 375.348 414.772 375.348 414.24C375.373 413.683 375.386 413.151 375.386 412.644C375.411 412.112 375.436 411.605 375.462 411.124C375.158 411.453 374.841 411.783 374.512 412.112C374.182 412.416 373.815 412.758 373.41 413.138L370.674 415.532L368.508 412.948L375.918 406.868H379.452V434Z" fill="white"/>
</svg>
