<svg width="637" height="600" viewBox="0 0 637 600" fill="none" xmlns="http://www.w3.org/2000/svg">
<rect width="637" height="600" rx="3" fill="#1C1C1C"/>
<path d="M228.593 86V57.44H249.233V86H244.873V61.16H233.033V86H228.593ZM266.249 64.04C268.675 64.04 270.622 64.9733 272.089 66.84C273.555 68.7067 274.289 71.4933 274.289 75.2C274.289 77.6267 273.942 79.68 273.249 81.36C272.582 83.04 271.635 84.3067 270.409 85.16C269.182 85.9867 267.755 86.4 266.129 86.4C265.142 86.4 264.262 86.2667 263.489 86C262.715 85.7067 262.062 85.3333 261.529 84.88C261.022 84.4 260.569 83.8933 260.169 83.36H259.929C259.982 83.84 260.035 84.4133 260.089 85.08C260.142 85.72 260.169 86.2933 260.169 86.8V95.6H255.849V64.44H259.369L259.969 67.32H260.169C260.569 66.7333 261.035 66.1867 261.569 65.68C262.129 65.1733 262.782 64.7733 263.529 64.48C264.302 64.1867 265.209 64.04 266.249 64.04ZM265.089 67.52C263.915 67.52 262.969 67.7867 262.249 68.32C261.529 68.8267 260.995 69.6 260.649 70.64C260.329 71.6533 260.169 72.9467 260.169 74.52V75.16C260.169 76.8133 260.315 78.2267 260.609 79.4C260.929 80.5467 261.449 81.4267 262.169 82.04C262.915 82.6267 263.915 82.92 265.169 82.92C266.235 82.92 267.115 82.6 267.809 81.96C268.502 81.2933 269.009 80.3733 269.329 79.2C269.675 78.0267 269.849 76.6667 269.849 75.12C269.849 72.7733 269.449 70.92 268.649 69.56C267.875 68.2 266.689 67.52 265.089 67.52ZM297.367 75.2C297.367 76.9867 297.14 78.5733 296.687 79.96C296.234 81.3467 295.58 82.52 294.727 83.48C293.9 84.44 292.887 85.1733 291.687 85.68C290.487 86.16 289.14 86.4 287.647 86.4C286.287 86.4 285.02 86.16 283.847 85.68C282.674 85.1733 281.66 84.44 280.807 83.48C279.954 82.52 279.287 81.3467 278.807 79.96C278.354 78.5733 278.127 76.9733 278.127 75.16C278.127 72.7867 278.514 70.7733 279.287 69.12C280.06 67.4667 281.167 66.2133 282.607 65.36C284.074 64.48 285.807 64.04 287.807 64.04C289.674 64.04 291.327 64.48 292.767 65.36C294.207 66.2133 295.327 67.4667 296.127 69.12C296.954 70.7733 297.367 72.8 297.367 75.2ZM282.607 75.2C282.607 76.8 282.78 78.1867 283.127 79.36C283.5 80.5067 284.06 81.3867 284.807 82C285.58 82.6133 286.554 82.92 287.727 82.92C288.927 82.92 289.9 82.6133 290.647 82C291.42 81.3867 291.98 80.5067 292.327 79.36C292.7 78.1867 292.887 76.8 292.887 75.2C292.887 73.5467 292.7 72.16 292.327 71.04C291.954 69.92 291.394 69.0667 290.647 68.48C289.9 67.8667 288.914 67.56 287.687 67.56C285.9 67.56 284.607 68.2267 283.807 69.56C283.007 70.8933 282.607 72.7733 282.607 75.2ZM310.454 64.04C312.241 64.04 313.787 64.44 315.094 65.24C316.401 66.0133 317.401 67.1333 318.094 68.6C318.814 70.0667 319.174 71.8 319.174 73.8V76.12H305.614C305.667 78.3333 306.201 80.0267 307.214 81.2C308.227 82.3733 309.654 82.96 311.494 82.96C312.801 82.96 313.961 82.84 314.974 82.6C316.014 82.3333 317.067 81.9467 318.134 81.44V84.96C317.121 85.44 316.081 85.8 315.014 86.04C313.974 86.28 312.707 86.4 311.214 86.4C309.267 86.4 307.534 85.9867 306.014 85.16C304.494 84.3333 303.307 83.1067 302.454 81.48C301.601 79.8267 301.174 77.8 301.174 75.4C301.174 72.9733 301.561 70.92 302.334 69.24C303.107 67.56 304.187 66.28 305.574 65.4C306.987 64.4933 308.614 64.04 310.454 64.04ZM310.454 67.32C309.094 67.32 308.001 67.8133 307.174 68.8C306.347 69.7867 305.867 71.1867 305.734 73H314.894C314.894 71.88 314.734 70.8933 314.414 70.04C314.094 69.1867 313.601 68.52 312.934 68.04C312.294 67.56 311.467 67.32 310.454 67.32ZM336.613 64.44H341.373L333.013 74.8L342.093 86H337.093L328.333 75.08V86H324.013V64.44H328.333V74.92L336.613 64.44ZM360.7 67.84H354.02V86H349.74V67.84H343.14V64.44H360.7V67.84ZM385.684 86H381.364V67.04C381.364 66.3733 381.364 65.76 381.364 65.2C381.391 64.6133 381.404 64.0533 381.404 63.52C381.431 62.96 381.458 62.4267 381.484 61.92C381.164 62.2667 380.831 62.6133 380.484 62.96C380.138 63.28 379.751 63.64 379.324 64.04L376.444 66.56L374.164 63.84L381.964 57.44H385.684V86Z" fill="white"/>
<path d="M88.4524 192.966C88.4524 194.037 88.1298 194.887 87.4844 195.518C86.8538 196.134 86.0031 196.53 84.9324 196.706V196.794C86.1938 196.97 87.1471 197.381 87.7924 198.026C88.4378 198.671 88.7604 199.515 88.7604 200.556C88.7604 201.48 88.5404 202.294 88.1004 202.998C87.6604 203.687 87.0004 204.23 86.1204 204.626C85.2404 205.022 84.1331 205.22 82.7984 205.22C81.9771 205.22 81.1924 205.154 80.4444 205.022C79.7111 204.905 79.0364 204.685 78.4204 204.362V202.558C78.8458 202.778 79.3004 202.969 79.7844 203.13C80.2831 203.277 80.7818 203.394 81.2804 203.482C81.7938 203.555 82.2778 203.592 82.7324 203.592C84.0524 203.592 85.0498 203.328 85.7244 202.8C86.3991 202.272 86.7364 201.524 86.7364 200.556C86.7364 199.559 86.3331 198.833 85.5264 198.378C84.7198 197.923 83.6051 197.696 82.1824 197.696H80.1144V196.046H82.0724C83.0551 196.046 83.8691 195.929 84.5144 195.694C85.1598 195.459 85.6364 195.129 85.9444 194.704C86.2671 194.264 86.4284 193.751 86.4284 193.164C86.4284 192.372 86.1571 191.763 85.6144 191.338C85.0718 190.913 84.3604 190.7 83.4804 190.7C82.5711 190.7 81.8084 190.825 81.1924 191.074C80.5764 191.323 79.9751 191.646 79.3884 192.042L78.4644 190.7C78.8604 190.392 79.3151 190.121 79.8284 189.886C80.3418 189.637 80.9064 189.439 81.5224 189.292C82.1384 189.145 82.8058 189.072 83.5244 189.072C84.5951 189.072 85.4971 189.241 86.2304 189.578C86.9638 189.915 87.5138 190.377 87.8804 190.964C88.2618 191.536 88.4524 192.203 88.4524 192.966ZM99.9725 193.208V203.372H101.579V209.092H99.7525V205H92.0525V209.092H90.2265V203.372H91.1285C91.7592 202.433 92.2799 201.414 92.6905 200.314C93.1012 199.199 93.4092 198.041 93.6145 196.838C93.8345 195.621 93.9519 194.411 93.9665 193.208H99.9725ZM95.6605 194.726C95.6019 195.723 95.4552 196.757 95.2205 197.828C95.0005 198.884 94.7072 199.896 94.3405 200.864C93.9885 201.832 93.5779 202.668 93.1085 203.372H98.1025V194.726H95.6605ZM108.02 192.988C108.973 192.988 109.794 193.208 110.484 193.648C111.173 194.088 111.701 194.711 112.068 195.518C112.449 196.31 112.64 197.241 112.64 198.312V199.478H105.072C105.101 200.813 105.416 201.832 106.018 202.536C106.619 203.225 107.462 203.57 108.548 203.57C109.252 203.57 109.875 203.504 110.418 203.372C110.975 203.225 111.547 203.02 112.134 202.756V204.45C111.562 204.714 110.997 204.905 110.44 205.022C109.897 205.154 109.237 205.22 108.46 205.22C107.404 205.22 106.472 204.993 105.666 204.538C104.859 204.083 104.228 203.409 103.774 202.514C103.319 201.605 103.092 200.497 103.092 199.192C103.092 197.901 103.297 196.794 103.708 195.87C104.118 194.946 104.69 194.235 105.424 193.736C106.172 193.237 107.037 192.988 108.02 192.988ZM108.02 194.572C107.169 194.572 106.494 194.873 105.996 195.474C105.497 196.061 105.204 196.882 105.116 197.938H110.66C110.66 197.263 110.564 196.677 110.374 196.178C110.183 195.679 109.89 195.291 109.494 195.012C109.112 194.719 108.621 194.572 108.02 194.572ZM119.883 205.22C118.885 205.22 118.005 205.007 117.243 204.582C116.48 204.157 115.879 203.497 115.439 202.602C115.013 201.707 114.801 200.563 114.801 199.17C114.801 197.718 115.028 196.537 115.483 195.628C115.937 194.719 116.553 194.051 117.331 193.626C118.123 193.201 119.017 192.988 120.015 192.988C120.587 192.988 121.137 193.054 121.665 193.186C122.207 193.303 122.647 193.45 122.985 193.626L122.391 195.232C122.053 195.1 121.657 194.975 121.203 194.858C120.763 194.741 120.352 194.682 119.971 194.682C119.252 194.682 118.658 194.851 118.189 195.188C117.719 195.525 117.367 196.024 117.133 196.684C116.898 197.344 116.781 198.165 116.781 199.148C116.781 200.087 116.898 200.886 117.133 201.546C117.367 202.206 117.712 202.705 118.167 203.042C118.636 203.379 119.208 203.548 119.883 203.548C120.484 203.548 121.019 203.482 121.489 203.35C121.958 203.218 122.391 203.057 122.787 202.866V204.582C122.405 204.787 121.987 204.941 121.533 205.044C121.078 205.161 120.528 205.22 119.883 205.22ZM130.533 198.048C131.501 198.048 132.308 198.173 132.953 198.422C133.598 198.671 134.082 199.045 134.405 199.544C134.742 200.028 134.911 200.644 134.911 201.392C134.911 202.125 134.757 202.763 134.449 203.306C134.141 203.849 133.657 204.267 132.997 204.56C132.352 204.853 131.508 205 130.467 205H125.407V193.208H127.321V198.048H130.533ZM132.997 201.502C132.997 200.783 132.762 200.299 132.293 200.05C131.824 199.786 131.171 199.654 130.335 199.654H127.321V203.438H130.379C131.127 203.438 131.75 203.291 132.249 202.998C132.748 202.705 132.997 202.206 132.997 201.502ZM151.471 193.208V203.372H153.077V209.092H151.251V205H143.551V209.092H141.725V203.372H142.627C143.257 202.433 143.778 201.414 144.189 200.314C144.599 199.199 144.907 198.041 145.113 196.838C145.333 195.621 145.45 194.411 145.465 193.208H151.471ZM147.159 194.726C147.1 195.723 146.953 196.757 146.719 197.828C146.499 198.884 146.205 199.896 145.839 200.864C145.487 201.832 145.076 202.668 144.607 203.372H149.601V194.726H147.159ZM164.908 199.082C164.908 200.065 164.783 200.937 164.534 201.7C164.299 202.448 163.954 203.086 163.5 203.614C163.045 204.142 162.495 204.545 161.85 204.824C161.204 205.088 160.486 205.22 159.694 205.22C158.96 205.22 158.278 205.088 157.648 204.824C157.032 204.545 156.489 204.142 156.02 203.614C155.565 203.086 155.213 202.448 154.964 201.7C154.714 200.937 154.59 200.065 154.59 199.082C154.59 197.777 154.795 196.677 155.206 195.782C155.631 194.873 156.232 194.183 157.01 193.714C157.787 193.23 158.704 192.988 159.76 192.988C160.772 192.988 161.659 193.23 162.422 193.714C163.199 194.183 163.808 194.873 164.248 195.782C164.688 196.677 164.908 197.777 164.908 199.082ZM156.57 199.082C156.57 200.006 156.68 200.813 156.9 201.502C157.12 202.177 157.464 202.697 157.934 203.064C158.403 203.431 159.004 203.614 159.738 203.614C160.471 203.614 161.072 203.431 161.542 203.064C162.011 202.697 162.356 202.177 162.576 201.502C162.81 200.813 162.928 200.006 162.928 199.082C162.928 198.143 162.81 197.344 162.576 196.684C162.356 196.024 162.011 195.518 161.542 195.166C161.072 194.799 160.464 194.616 159.716 194.616C158.616 194.616 157.816 195.012 157.318 195.804C156.819 196.596 156.57 197.689 156.57 199.082ZM176.333 205H174.397V194.814H171.163C171.031 196.677 170.855 198.268 170.635 199.588C170.429 200.893 170.165 201.957 169.843 202.778C169.535 203.599 169.161 204.201 168.721 204.582C168.281 204.963 167.76 205.154 167.159 205.154C166.968 205.154 166.777 205.139 166.587 205.11C166.411 205.095 166.264 205.059 166.147 205V203.548C166.235 203.577 166.33 203.599 166.433 203.614C166.535 203.629 166.638 203.636 166.741 203.636C167.034 203.636 167.298 203.504 167.533 203.24C167.782 202.976 168.002 202.573 168.193 202.03C168.398 201.487 168.581 200.805 168.743 199.984C168.904 199.148 169.043 198.165 169.161 197.036C169.293 195.907 169.41 194.631 169.513 193.208H176.333V205ZM193.335 193.208L188.781 198.928L193.709 205H191.553L186.801 199.016V205H185.019V199.016L180.245 205H178.089L183.017 198.928L178.485 193.208H180.553L185.019 198.928V193.208H186.801V198.928L191.267 193.208H193.335ZM197.424 193.208V198.114H203.32V193.208H205.234V205H203.32V199.742H197.424V205H195.51V193.208H197.424ZM218.404 199.082C218.404 200.065 218.279 200.937 218.03 201.7C217.795 202.448 217.451 203.086 216.996 203.614C216.541 204.142 215.991 204.545 215.346 204.824C214.701 205.088 213.982 205.22 213.19 205.22C212.457 205.22 211.775 205.088 211.144 204.824C210.528 204.545 209.985 204.142 209.516 203.614C209.061 203.086 208.709 202.448 208.46 201.7C208.211 200.937 208.086 200.065 208.086 199.082C208.086 197.777 208.291 196.677 208.702 195.782C209.127 194.873 209.729 194.183 210.506 193.714C211.283 193.23 212.2 192.988 213.256 192.988C214.268 192.988 215.155 193.23 215.918 193.714C216.695 194.183 217.304 194.873 217.744 195.782C218.184 196.677 218.404 197.777 218.404 199.082ZM210.066 199.082C210.066 200.006 210.176 200.813 210.396 201.502C210.616 202.177 210.961 202.697 211.43 203.064C211.899 203.431 212.501 203.614 213.234 203.614C213.967 203.614 214.569 203.431 215.038 203.064C215.507 202.697 215.852 202.177 216.072 201.502C216.307 200.813 216.424 200.006 216.424 199.082C216.424 198.143 216.307 197.344 216.072 196.684C215.852 196.024 215.507 195.518 215.038 195.166C214.569 194.799 213.96 194.616 213.212 194.616C212.112 194.616 211.313 195.012 210.814 195.804C210.315 196.596 210.066 197.689 210.066 199.082ZM226.048 197.916C226.048 196.2 226.209 194.741 226.532 193.538C226.869 192.321 227.383 191.353 228.072 190.634C228.776 189.901 229.678 189.409 230.778 189.16C231.658 188.955 232.523 188.771 233.374 188.61C234.225 188.449 235.024 188.302 235.772 188.17L236.102 189.864C235.735 189.923 235.332 189.996 234.892 190.084C234.452 190.157 234.005 190.238 233.55 190.326C233.11 190.399 232.677 190.48 232.252 190.568C231.841 190.641 231.475 190.715 231.152 190.788C230.697 190.891 230.287 191.067 229.92 191.316C229.568 191.551 229.26 191.873 228.996 192.284C228.747 192.695 228.541 193.201 228.38 193.802C228.233 194.403 228.145 195.115 228.116 195.936H228.248C228.439 195.657 228.703 195.371 229.04 195.078C229.377 194.785 229.781 194.535 230.25 194.33C230.719 194.125 231.255 194.022 231.856 194.022C232.809 194.022 233.609 194.249 234.254 194.704C234.899 195.144 235.383 195.76 235.706 196.552C236.043 197.344 236.212 198.268 236.212 199.324C236.212 200.629 235.992 201.722 235.552 202.602C235.127 203.482 234.533 204.142 233.77 204.582C233.007 205.007 232.12 205.22 231.108 205.22C230.345 205.22 229.649 205.066 229.018 204.758C228.402 204.435 227.867 203.966 227.412 203.35C226.972 202.734 226.635 201.971 226.4 201.062C226.165 200.153 226.048 199.104 226.048 197.916ZM231.262 203.614C231.849 203.614 232.362 203.482 232.802 203.218C233.242 202.954 233.579 202.521 233.814 201.92C234.063 201.319 234.188 200.519 234.188 199.522C234.188 198.319 233.983 197.373 233.572 196.684C233.161 195.98 232.487 195.628 231.548 195.628C230.947 195.628 230.404 195.775 229.92 196.068C229.436 196.347 229.025 196.669 228.688 197.036C228.365 197.403 228.138 197.711 228.006 197.96C228.006 198.679 228.05 199.375 228.138 200.05C228.241 200.725 228.409 201.333 228.644 201.876C228.893 202.404 229.223 202.829 229.634 203.152C230.059 203.46 230.602 203.614 231.262 203.614ZM239.059 205V193.208H240.973V198.048H243.745C244.728 198.048 245.535 198.173 246.165 198.422C246.796 198.671 247.265 199.045 247.573 199.544C247.881 200.028 248.035 200.644 248.035 201.392C248.035 202.125 247.881 202.763 247.573 203.306C247.28 203.849 246.811 204.267 246.165 204.56C245.535 204.853 244.706 205 243.679 205H239.059ZM243.503 203.438C244.281 203.438 244.911 203.299 245.395 203.02C245.879 202.727 246.121 202.221 246.121 201.502C246.121 200.783 245.894 200.299 245.439 200.05C244.999 199.786 244.361 199.654 243.525 199.654H240.973V203.438H243.503ZM249.861 205V193.208H251.775V205H249.861ZM263.047 194.836H259.417V205H257.525V194.836H253.939V193.208H263.047V194.836ZM270.353 198.048C271.321 198.048 272.128 198.173 272.773 198.422C273.419 198.671 273.903 199.045 274.225 199.544C274.563 200.028 274.731 200.644 274.731 201.392C274.731 202.125 274.577 202.763 274.269 203.306C273.961 203.849 273.477 204.267 272.817 204.56C272.172 204.853 271.329 205 270.287 205H265.227V193.208H267.141V198.048H270.353ZM272.817 201.502C272.817 200.783 272.583 200.299 272.113 200.05C271.644 199.786 270.991 199.654 270.155 199.654H267.141V203.438H270.199C270.947 203.438 271.571 203.291 272.069 202.998C272.568 202.705 272.817 202.206 272.817 201.502ZM289.531 193.208H291.621L286.913 198.884L292.017 205H289.795L284.823 199.016V205H282.909V193.208H284.823V198.928L289.531 193.208ZM299.319 192.988C300.683 192.988 301.776 193.494 302.597 194.506C303.433 195.518 303.851 197.043 303.851 199.082C303.851 200.417 303.661 201.546 303.279 202.47C302.898 203.379 302.363 204.069 301.673 204.538C300.999 204.993 300.207 205.22 299.297 205.22C298.725 205.22 298.219 205.139 297.779 204.978C297.354 204.817 296.987 204.611 296.679 204.362C296.371 204.098 296.107 203.812 295.887 203.504H295.755C295.785 203.753 295.814 204.069 295.843 204.45C295.873 204.831 295.887 205.161 295.887 205.44V210.28H293.973V193.208H295.535L295.799 194.814H295.887C296.107 194.477 296.371 194.169 296.679 193.89C296.987 193.611 297.354 193.391 297.779 193.23C298.219 193.069 298.733 192.988 299.319 192.988ZM298.945 194.616C298.212 194.616 297.618 194.77 297.163 195.078C296.723 195.371 296.401 195.819 296.195 196.42C295.99 197.021 295.887 197.784 295.887 198.708V199.082C295.887 200.05 295.975 200.871 296.151 201.546C296.342 202.221 296.665 202.734 297.119 203.086C297.574 203.438 298.197 203.614 298.989 203.614C299.649 203.614 300.192 203.416 300.617 203.02C301.043 202.624 301.358 202.089 301.563 201.414C301.769 200.725 301.871 199.94 301.871 199.06C301.871 197.711 301.629 196.633 301.145 195.826C300.676 195.019 299.943 194.616 298.945 194.616ZM310.96 193.01C312.309 193.01 313.314 193.325 313.974 193.956C314.648 194.587 314.986 195.591 314.986 196.97V205H313.6L313.226 203.328H313.138C312.815 203.753 312.485 204.113 312.148 204.406C311.825 204.685 311.444 204.89 311.004 205.022C310.578 205.154 310.05 205.22 309.42 205.22C308.76 205.22 308.166 205.095 307.638 204.846C307.11 204.597 306.692 204.215 306.384 203.702C306.076 203.174 305.922 202.514 305.922 201.722C305.922 200.549 306.354 199.647 307.22 199.016C308.085 198.371 309.42 198.019 311.224 197.96L313.094 197.894V197.19C313.094 196.207 312.896 195.525 312.5 195.144C312.118 194.763 311.568 194.572 310.85 194.572C310.278 194.572 309.728 194.667 309.2 194.858C308.686 195.034 308.195 195.239 307.726 195.474L307.132 194.022C307.63 193.743 308.21 193.509 308.87 193.318C309.53 193.113 310.226 193.01 310.96 193.01ZM311.488 199.302C310.138 199.361 309.2 199.595 308.672 200.006C308.158 200.417 307.902 200.996 307.902 201.744C307.902 202.404 308.085 202.888 308.452 203.196C308.818 203.504 309.295 203.658 309.882 203.658C310.791 203.658 311.554 203.387 312.17 202.844C312.786 202.287 313.094 201.436 313.094 200.292V199.236L311.488 199.302ZM326.189 194.836H322.559V205H320.667V194.836H317.081V193.208H326.189V194.836ZM334.992 193.208H337.082L332.374 198.884L337.478 205H335.256L330.284 199.016V205H328.37V193.208H330.284V198.928L334.992 193.208ZM348.728 199.082C348.728 200.065 348.603 200.937 348.354 201.7C348.119 202.448 347.775 203.086 347.32 203.614C346.865 204.142 346.315 204.545 345.67 204.824C345.025 205.088 344.306 205.22 343.514 205.22C342.781 205.22 342.099 205.088 341.468 204.824C340.852 204.545 340.309 204.142 339.84 203.614C339.385 203.086 339.033 202.448 338.784 201.7C338.535 200.937 338.41 200.065 338.41 199.082C338.41 197.777 338.615 196.677 339.026 195.782C339.451 194.873 340.053 194.183 340.83 193.714C341.607 193.23 342.524 192.988 343.58 192.988C344.592 192.988 345.479 193.23 346.242 193.714C347.019 194.183 347.628 194.873 348.068 195.782C348.508 196.677 348.728 197.777 348.728 199.082ZM340.39 199.082C340.39 200.006 340.5 200.813 340.72 201.502C340.94 202.177 341.285 202.697 341.754 203.064C342.223 203.431 342.825 203.614 343.558 203.614C344.291 203.614 344.893 203.431 345.362 203.064C345.831 202.697 346.176 202.177 346.396 201.502C346.631 200.813 346.748 200.006 346.748 199.082C346.748 198.143 346.631 197.344 346.396 196.684C346.176 196.024 345.831 195.518 345.362 195.166C344.893 194.799 344.284 194.616 343.536 194.616C342.436 194.616 341.637 195.012 341.138 195.804C340.639 196.596 340.39 197.689 340.39 199.082ZM355.885 192.988C356.838 192.988 357.66 193.208 358.349 193.648C359.038 194.088 359.566 194.711 359.933 195.518C360.314 196.31 360.505 197.241 360.505 198.312V199.478H352.937C352.966 200.813 353.282 201.832 353.883 202.536C354.484 203.225 355.328 203.57 356.413 203.57C357.117 203.57 357.74 203.504 358.283 203.372C358.84 203.225 359.412 203.02 359.999 202.756V204.45C359.427 204.714 358.862 204.905 358.305 205.022C357.762 205.154 357.102 205.22 356.325 205.22C355.269 205.22 354.338 204.993 353.531 204.538C352.724 204.083 352.094 203.409 351.639 202.514C351.184 201.605 350.957 200.497 350.957 199.192C350.957 197.901 351.162 196.794 351.573 195.87C351.984 194.946 352.556 194.235 353.289 193.736C354.037 193.237 354.902 192.988 355.885 192.988ZM355.885 194.572C355.034 194.572 354.36 194.873 353.861 195.474C353.362 196.061 353.069 196.882 352.981 197.938H358.525C358.525 197.263 358.43 196.677 358.239 196.178C358.048 195.679 357.755 195.291 357.359 195.012C356.978 194.719 356.486 194.572 355.885 194.572ZM378.355 199.082C378.355 200.065 378.23 200.937 377.981 201.7C377.746 202.448 377.402 203.086 376.947 203.614C376.492 204.142 375.942 204.545 375.297 204.824C374.652 205.088 373.933 205.22 373.141 205.22C372.408 205.22 371.726 205.088 371.095 204.824C370.479 204.545 369.936 204.142 369.467 203.614C369.012 203.086 368.66 202.448 368.411 201.7C368.162 200.937 368.037 200.065 368.037 199.082C368.037 197.777 368.242 196.677 368.653 195.782C369.078 194.873 369.68 194.183 370.457 193.714C371.234 193.23 372.151 192.988 373.207 192.988C374.219 192.988 375.106 193.23 375.869 193.714C376.646 194.183 377.255 194.873 377.695 195.782C378.135 196.677 378.355 197.777 378.355 199.082ZM370.017 199.082C370.017 200.006 370.127 200.813 370.347 201.502C370.567 202.177 370.912 202.697 371.381 203.064C371.85 203.431 372.452 203.614 373.185 203.614C373.918 203.614 374.52 203.431 374.989 203.064C375.458 202.697 375.803 202.177 376.023 201.502C376.258 200.813 376.375 200.006 376.375 199.082C376.375 198.143 376.258 197.344 376.023 196.684C375.803 196.024 375.458 195.518 374.989 195.166C374.52 194.799 373.911 194.616 373.163 194.616C372.063 194.616 371.264 195.012 370.765 195.804C370.266 196.596 370.017 197.689 370.017 199.082ZM390.638 193.208V205H388.724V194.858H383.114V205H381.2V193.208H390.638ZM395.938 200.402C395.938 200.534 395.93 200.725 395.916 200.974C395.916 201.209 395.908 201.465 395.894 201.744C395.879 202.008 395.864 202.265 395.85 202.514C395.835 202.749 395.82 202.939 395.806 203.086L401.702 193.208H404.034V205H402.252V198.048C402.252 197.813 402.252 197.505 402.252 197.124C402.266 196.743 402.281 196.369 402.296 196.002C402.31 195.621 402.325 195.335 402.34 195.144L396.51 205H394.134V193.208H395.938V200.402ZM412.006 205.22C411.008 205.22 410.128 205.007 409.366 204.582C408.603 204.157 408.002 203.497 407.562 202.602C407.136 201.707 406.924 200.563 406.924 199.17C406.924 197.718 407.151 196.537 407.606 195.628C408.06 194.719 408.676 194.051 409.454 193.626C410.246 193.201 411.14 192.988 412.138 192.988C412.71 192.988 413.26 193.054 413.788 193.186C414.33 193.303 414.77 193.45 415.108 193.626L414.514 195.232C414.176 195.1 413.78 194.975 413.326 194.858C412.886 194.741 412.475 194.682 412.094 194.682C411.375 194.682 410.781 194.851 410.312 195.188C409.842 195.525 409.49 196.024 409.256 196.684C409.021 197.344 408.904 198.165 408.904 199.148C408.904 200.087 409.021 200.886 409.256 201.546C409.49 202.206 409.835 202.705 410.29 203.042C410.759 203.379 411.331 203.548 412.006 203.548C412.607 203.548 413.142 203.482 413.612 203.35C414.081 203.218 414.514 203.057 414.91 202.866V204.582C414.528 204.787 414.11 204.941 413.656 205.044C413.201 205.161 412.651 205.22 412.006 205.22ZM421.776 193.01C423.125 193.01 424.13 193.325 424.79 193.956C425.465 194.587 425.802 195.591 425.802 196.97V205H424.416L424.042 203.328H423.954C423.631 203.753 423.301 204.113 422.964 204.406C422.641 204.685 422.26 204.89 421.82 205.022C421.395 205.154 420.867 205.22 420.236 205.22C419.576 205.22 418.982 205.095 418.454 204.846C417.926 204.597 417.508 204.215 417.2 203.702C416.892 203.174 416.738 202.514 416.738 201.722C416.738 200.549 417.171 199.647 418.036 199.016C418.901 198.371 420.236 198.019 422.04 197.96L423.91 197.894V197.19C423.91 196.207 423.712 195.525 423.316 195.144C422.935 194.763 422.385 194.572 421.666 194.572C421.094 194.572 420.544 194.667 420.016 194.858C419.503 195.034 419.011 195.239 418.542 195.474L417.948 194.022C418.447 193.743 419.026 193.509 419.686 193.318C420.346 193.113 421.043 193.01 421.776 193.01ZM422.304 199.302C420.955 199.361 420.016 199.595 419.488 200.006C418.975 200.417 418.718 200.996 418.718 201.744C418.718 202.404 418.901 202.888 419.268 203.196C419.635 203.504 420.111 203.658 420.698 203.658C421.607 203.658 422.37 203.387 422.986 202.844C423.602 202.287 423.91 201.436 423.91 200.292V199.236L422.304 199.302ZM431.131 193.208V198.114H437.027V193.208H438.941V205H437.027V199.742H431.131V205H429.217V193.208H431.131ZM444.213 200.402C444.213 200.534 444.206 200.725 444.191 200.974C444.191 201.209 444.184 201.465 444.169 201.744C444.154 202.008 444.14 202.265 444.125 202.514C444.11 202.749 444.096 202.939 444.081 203.086L449.977 193.208H452.309V205H450.527V198.048C450.527 197.813 450.527 197.505 450.527 197.124C450.542 196.743 450.556 196.369 450.571 196.002C450.586 195.621 450.6 195.335 450.615 195.144L444.785 205H442.409V193.208H444.213V200.402ZM460.127 192.988C461.08 192.988 461.902 193.208 462.591 193.648C463.28 194.088 463.808 194.711 464.175 195.518C464.556 196.31 464.747 197.241 464.747 198.312V199.478H457.179C457.208 200.813 457.524 201.832 458.125 202.536C458.726 203.225 459.57 203.57 460.655 203.57C461.359 203.57 461.982 203.504 462.525 203.372C463.082 203.225 463.654 203.02 464.241 202.756V204.45C463.669 204.714 463.104 204.905 462.547 205.022C462.004 205.154 461.344 205.22 460.567 205.22C459.511 205.22 458.58 204.993 457.773 204.538C456.966 204.083 456.336 203.409 455.881 202.514C455.426 201.605 455.199 200.497 455.199 199.192C455.199 197.901 455.404 196.794 455.815 195.87C456.226 194.946 456.798 194.235 457.531 193.736C458.279 193.237 459.144 192.988 460.127 192.988ZM460.127 194.572C459.276 194.572 458.602 194.873 458.103 195.474C457.604 196.061 457.311 196.882 457.223 197.938H462.767C462.767 197.263 462.672 196.677 462.481 196.178C462.29 195.679 461.997 195.291 461.601 195.012C461.22 194.719 460.728 194.572 460.127 194.572ZM482.333 193.208V205H480.419V194.858H474.809V205H472.895V193.208H482.333ZM491.175 192.988C492.539 192.988 493.631 193.494 494.453 194.506C495.289 195.518 495.707 197.043 495.707 199.082C495.707 200.417 495.516 201.546 495.135 202.47C494.753 203.379 494.218 204.069 493.529 204.538C492.854 204.993 492.062 205.22 491.153 205.22C490.581 205.22 490.075 205.139 489.635 204.978C489.209 204.817 488.843 204.611 488.535 204.362C488.227 204.098 487.963 203.812 487.743 203.504H487.611C487.64 203.753 487.669 204.069 487.699 204.45C487.728 204.831 487.743 205.161 487.743 205.44V210.28H485.829V193.208H487.391L487.655 194.814H487.743C487.963 194.477 488.227 194.169 488.535 193.89C488.843 193.611 489.209 193.391 489.635 193.23C490.075 193.069 490.588 192.988 491.175 192.988ZM490.801 194.616C490.067 194.616 489.473 194.77 489.019 195.078C488.579 195.371 488.256 195.819 488.051 196.42C487.845 197.021 487.743 197.784 487.743 198.708V199.082C487.743 200.05 487.831 200.871 488.007 201.546C488.197 202.221 488.52 202.734 488.975 203.086C489.429 203.438 490.053 203.614 490.845 203.614C491.505 203.614 492.047 203.416 492.473 203.02C492.898 202.624 493.213 202.089 493.419 201.414C493.624 200.725 493.727 199.94 493.727 199.06C493.727 197.711 493.485 196.633 493.001 195.826C492.531 195.019 491.798 194.616 490.801 194.616ZM508.271 199.082C508.271 200.065 508.146 200.937 507.897 201.7C507.662 202.448 507.318 203.086 506.863 203.614C506.408 204.142 505.858 204.545 505.213 204.824C504.568 205.088 503.849 205.22 503.057 205.22C502.324 205.22 501.642 205.088 501.011 204.824C500.395 204.545 499.852 204.142 499.383 203.614C498.928 203.086 498.576 202.448 498.327 201.7C498.078 200.937 497.953 200.065 497.953 199.082C497.953 197.777 498.158 196.677 498.569 195.782C498.994 194.873 499.596 194.183 500.373 193.714C501.15 193.23 502.067 192.988 503.123 192.988C504.135 192.988 505.022 193.23 505.785 193.714C506.562 194.183 507.171 194.873 507.611 195.782C508.051 196.677 508.271 197.777 508.271 199.082ZM499.933 199.082C499.933 200.006 500.043 200.813 500.263 201.502C500.483 202.177 500.828 202.697 501.297 203.064C501.766 203.431 502.368 203.614 503.101 203.614C503.834 203.614 504.436 203.431 504.905 203.064C505.374 202.697 505.719 202.177 505.939 201.502C506.174 200.813 506.291 200.006 506.291 199.082C506.291 198.143 506.174 197.344 505.939 196.684C505.719 196.024 505.374 195.518 504.905 195.166C504.436 194.799 503.827 194.616 503.079 194.616C501.979 194.616 501.18 195.012 500.681 195.804C500.182 196.596 499.933 197.689 499.933 199.082ZM515.428 192.988C516.381 192.988 517.203 193.208 517.892 193.648C518.581 194.088 519.109 194.711 519.476 195.518C519.857 196.31 520.048 197.241 520.048 198.312V199.478H512.48C512.509 200.813 512.825 201.832 513.426 202.536C514.027 203.225 514.871 203.57 515.956 203.57C516.66 203.57 517.283 203.504 517.826 203.372C518.383 203.225 518.955 203.02 519.542 202.756V204.45C518.97 204.714 518.405 204.905 517.848 205.022C517.305 205.154 516.645 205.22 515.868 205.22C514.812 205.22 513.881 204.993 513.074 204.538C512.267 204.083 511.637 203.409 511.182 202.514C510.727 201.605 510.5 200.497 510.5 199.192C510.5 197.901 510.705 196.794 511.116 195.87C511.527 194.946 512.099 194.235 512.832 193.736C513.58 193.237 514.445 192.988 515.428 192.988ZM515.428 194.572C514.577 194.572 513.903 194.873 513.404 195.474C512.905 196.061 512.612 196.882 512.524 197.938H518.068C518.068 197.263 517.973 196.677 517.782 196.178C517.591 195.679 517.298 195.291 516.902 195.012C516.521 194.719 516.029 194.572 515.428 194.572ZM529.447 193.208H531.537L526.829 198.884L531.933 205H529.711L524.739 199.016V205H522.825V193.208H524.739V198.928L529.447 193.208ZM541.677 194.836H538.047V205H536.155V194.836H532.569V193.208H541.677V194.836ZM548.104 193.01C549.453 193.01 550.458 193.325 551.118 193.956C551.793 194.587 552.13 195.591 552.13 196.97V205H550.744L550.37 203.328H550.282C549.959 203.753 549.629 204.113 549.292 204.406C548.969 204.685 548.588 204.89 548.148 205.022C547.723 205.154 547.195 205.22 546.564 205.22C545.904 205.22 545.31 205.095 544.782 204.846C544.254 204.597 543.836 204.215 543.528 203.702C543.22 203.174 543.066 202.514 543.066 201.722C543.066 200.549 543.499 199.647 544.364 199.016C545.229 198.371 546.564 198.019 548.368 197.96L550.238 197.894V197.19C550.238 196.207 550.04 195.525 549.644 195.144C549.263 194.763 548.713 194.572 547.994 194.572C547.422 194.572 546.872 194.667 546.344 194.858C545.831 195.034 545.339 195.239 544.87 195.474L544.276 194.022C544.775 193.743 545.354 193.509 546.014 193.318C546.674 193.113 547.371 193.01 548.104 193.01ZM548.632 199.302C547.283 199.361 546.344 199.595 545.816 200.006C545.303 200.417 545.046 200.996 545.046 201.744C545.046 202.404 545.229 202.888 545.596 203.196C545.963 203.504 546.439 203.658 547.026 203.658C547.935 203.658 548.698 203.387 549.314 202.844C549.93 202.287 550.238 201.436 550.238 200.292V199.236L548.632 199.302ZM555.282 203.812C555.282 203.269 555.406 202.888 555.656 202.668C555.905 202.448 556.213 202.338 556.58 202.338C556.946 202.338 557.262 202.448 557.526 202.668C557.79 202.888 557.922 203.269 557.922 203.812C557.922 204.34 557.79 204.721 557.526 204.956C557.262 205.191 556.946 205.308 556.58 205.308C556.213 205.308 555.905 205.191 555.656 204.956C555.406 204.721 555.282 204.34 555.282 203.812Z" fill="white"/>
<path d="M255.75 435V406.44H260.19V431.28H271.55V435H255.75ZM299.239 420.68C299.239 422.893 298.972 424.907 298.439 426.72C297.932 428.507 297.146 430.053 296.079 431.36C295.039 432.667 293.732 433.667 292.159 434.36C290.586 435.053 288.759 435.4 286.679 435.4C284.546 435.4 282.679 435.053 281.079 434.36C279.506 433.64 278.199 432.64 277.159 431.36C276.119 430.053 275.346 428.493 274.839 426.68C274.332 424.867 274.079 422.853 274.079 420.64C274.079 417.707 274.532 415.147 275.439 412.96C276.372 410.773 277.772 409.067 279.639 407.84C281.506 406.613 283.866 406 286.719 406C289.492 406 291.799 406.613 293.639 407.84C295.506 409.04 296.906 410.747 297.839 412.96C298.772 415.147 299.239 417.72 299.239 420.68ZM278.759 420.68C278.759 422.973 279.026 424.947 279.559 426.6C280.119 428.227 280.986 429.493 282.159 430.4C283.359 431.28 284.866 431.72 286.679 431.72C288.519 431.72 290.012 431.28 291.159 430.4C292.332 429.493 293.186 428.227 293.719 426.6C294.279 424.947 294.559 422.973 294.559 420.68C294.559 417.24 293.932 414.56 292.679 412.64C291.426 410.693 289.439 409.72 286.719 409.72C284.879 409.72 283.359 410.16 282.159 411.04C280.986 411.92 280.119 413.173 279.559 414.8C279.026 416.427 278.759 418.387 278.759 420.68ZM316.169 419.64H326.049V433.88C324.609 434.387 323.129 434.76 321.609 435C320.089 435.267 318.383 435.4 316.489 435.4C313.743 435.4 311.409 434.813 309.489 433.64C307.596 432.467 306.143 430.787 305.129 428.6C304.143 426.413 303.649 423.787 303.649 420.72C303.649 417.733 304.196 415.147 305.289 412.96C306.383 410.773 307.969 409.08 310.049 407.88C312.129 406.653 314.649 406.04 317.609 406.04C319.129 406.04 320.569 406.2 321.929 406.52C323.316 406.813 324.583 407.227 325.729 407.76L324.169 411.36C323.236 410.907 322.196 410.533 321.049 410.24C319.929 409.92 318.756 409.76 317.529 409.76C315.556 409.76 313.876 410.213 312.489 411.12C311.103 412 310.049 413.267 309.329 414.92C308.609 416.547 308.249 418.493 308.249 420.76C308.249 422.893 308.556 424.787 309.169 426.44C309.783 428.093 310.743 429.387 312.049 430.32C313.356 431.253 315.049 431.72 317.129 431.72C317.823 431.72 318.436 431.693 318.969 431.64C319.503 431.56 319.996 431.48 320.449 431.4C320.929 431.293 321.356 431.2 321.729 431.12V423.36H316.169V419.64ZM356.192 420.68C356.192 422.893 355.925 424.907 355.392 426.72C354.885 428.507 354.099 430.053 353.032 431.36C351.992 432.667 350.685 433.667 349.112 434.36C347.539 435.053 345.712 435.4 343.632 435.4C341.499 435.4 339.632 435.053 338.032 434.36C336.459 433.64 335.152 432.64 334.112 431.36C333.072 430.053 332.299 428.493 331.792 426.68C331.285 424.867 331.032 422.853 331.032 420.64C331.032 417.707 331.485 415.147 332.392 412.96C333.325 410.773 334.725 409.067 336.592 407.84C338.459 406.613 340.819 406 343.672 406C346.445 406 348.752 406.613 350.592 407.84C352.459 409.04 353.859 410.747 354.792 412.96C355.725 415.147 356.192 417.72 356.192 420.68ZM335.712 420.68C335.712 422.973 335.979 424.947 336.512 426.6C337.072 428.227 337.939 429.493 339.112 430.4C340.312 431.28 341.819 431.72 343.632 431.72C345.472 431.72 346.965 431.28 348.112 430.4C349.285 429.493 350.139 428.227 350.672 426.6C351.232 424.947 351.512 422.973 351.512 420.68C351.512 417.24 350.885 414.56 349.632 412.64C348.379 410.693 346.392 409.72 343.672 409.72C341.832 409.72 340.312 410.16 339.112 411.04C337.939 411.92 337.072 413.173 336.512 414.8C335.979 416.427 335.712 418.387 335.712 420.68ZM382.528 435H378.208V416.04C378.208 415.373 378.208 414.76 378.208 414.2C378.235 413.613 378.248 413.053 378.248 412.52C378.275 411.96 378.301 411.427 378.328 410.92C378.008 411.267 377.675 411.613 377.328 411.96C376.981 412.28 376.595 412.64 376.168 413.04L373.288 415.56L371.008 412.84L378.808 406.44H382.528V435Z" fill="white"/>
</svg>
