<svg width="1296" height="600" viewBox="0 0 1296 600" fill="none" xmlns="http://www.w3.org/2000/svg">
<rect width="1296" height="600" fill="#1C1C1C"/>
<path d="M46.2764 89V54.728H72.1964V89H64.4204V60.776H54.0524V89H46.2764ZM93.76 62.312C96.512 62.312 98.704 63.464 100.336 65.768C102 68.04 102.832 71.4 102.832 75.848C102.832 78.824 102.432 81.336 101.632 83.384C100.832 85.4 99.728 86.92 98.32 87.944C96.912 88.968 95.296 89.48 93.472 89.48C92.32 89.48 91.328 89.32 90.496 89C89.664 88.68 88.96 88.264 88.384 87.752C87.84 87.24 87.36 86.696 86.944 86.12H86.608C86.704 86.728 86.784 87.368 86.848 88.04C86.912 88.68 86.944 89.32 86.944 89.96V100.52H79.264V62.792H85.504L86.608 66.2H86.944C87.36 65.496 87.872 64.856 88.48 64.28C89.088 63.672 89.824 63.192 90.688 62.84C91.552 62.488 92.576 62.312 93.76 62.312ZM91.024 68.024C90.032 68.024 89.232 68.28 88.624 68.792C88.016 69.304 87.584 70.088 87.328 71.144C87.072 72.168 86.944 73.464 86.944 75.032V75.8C86.944 77.496 87.072 78.936 87.328 80.12C87.584 81.272 88.016 82.152 88.624 82.76C89.232 83.368 90.064 83.672 91.12 83.672C91.984 83.672 92.704 83.368 93.28 82.76C93.856 82.152 94.288 81.256 94.576 80.072C94.864 78.888 95.008 77.448 95.008 75.752C95.008 73.192 94.672 71.272 94 69.992C93.36 68.68 92.368 68.024 91.024 68.024ZM131.133 75.848C131.133 78.024 130.845 79.96 130.269 81.656C129.725 83.352 128.925 84.792 127.869 85.976C126.813 87.128 125.517 88.008 123.981 88.616C122.477 89.192 120.781 89.48 118.893 89.48C117.133 89.48 115.501 89.192 113.997 88.616C112.493 88.008 111.197 87.128 110.109 85.976C109.053 84.792 108.221 83.352 107.613 81.656C107.037 79.96 106.749 78.024 106.749 75.848C106.749 72.936 107.245 70.488 108.237 68.504C109.229 66.488 110.637 64.952 112.461 63.896C114.285 62.84 116.477 62.312 119.037 62.312C121.405 62.312 123.485 62.84 125.277 63.896C127.101 64.952 128.525 66.488 129.549 68.504C130.605 70.488 131.133 72.936 131.133 75.848ZM114.573 75.848C114.573 77.576 114.717 79.032 115.005 80.216C115.325 81.368 115.805 82.248 116.445 82.856C117.117 83.432 117.965 83.72 118.989 83.72C120.045 83.72 120.877 83.432 121.485 82.856C122.125 82.248 122.589 81.368 122.877 80.216C123.165 79.032 123.309 77.576 123.309 75.848C123.309 74.12 123.165 72.68 122.877 71.528C122.589 70.376 122.109 69.512 121.437 68.936C120.797 68.36 119.965 68.072 118.941 68.072C117.373 68.072 116.253 68.728 115.581 70.04C114.909 71.32 114.573 73.256 114.573 75.848ZM147.062 62.312C149.398 62.312 151.414 62.776 153.11 63.704C154.806 64.632 156.118 65.976 157.046 67.736C157.974 69.496 158.438 71.656 158.438 74.216V77.672H142.838C142.902 79.688 143.414 81.272 144.374 82.424C145.366 83.576 146.774 84.152 148.598 84.152C150.198 84.152 151.638 83.992 152.918 83.672C154.23 83.32 155.574 82.792 156.95 82.088V87.608C155.766 88.248 154.47 88.712 153.062 89C151.686 89.32 149.974 89.48 147.926 89.48C145.43 89.48 143.206 89 141.254 88.04C139.334 87.048 137.814 85.56 136.694 83.576C135.606 81.592 135.062 79.096 135.062 76.088C135.062 73.016 135.558 70.472 136.55 68.456C137.574 66.408 138.982 64.872 140.774 63.848C142.598 62.824 144.694 62.312 147.062 62.312ZM147.206 67.4C146.054 67.4 145.094 67.848 144.326 68.744C143.558 69.64 143.11 71.032 142.982 72.92H151.382C151.382 71.864 151.222 70.92 150.902 70.088C150.582 69.256 150.118 68.6 149.51 68.12C148.902 67.64 148.134 67.4 147.206 67.4ZM180.439 62.792H188.887L179.335 75.368L189.703 89H180.967L171.319 75.704V89H163.639V62.792H171.319V75.512L180.439 62.792ZM214.633 68.168H206.473V89H198.841V68.168H190.681V62.792H214.633V68.168ZM251.934 89H228.99V83.96L236.958 75.272C238.59 73.48 239.87 71.992 240.798 70.808C241.758 69.592 242.43 68.504 242.814 67.544C243.23 66.552 243.438 65.496 243.438 64.376C243.438 63 243.102 61.976 242.43 61.304C241.79 60.632 240.958 60.296 239.934 60.296C238.814 60.296 237.694 60.6 236.574 61.208C235.486 61.816 234.286 62.68 232.974 63.8L228.75 59.144C229.71 58.28 230.718 57.48 231.774 56.744C232.83 56.008 234.078 55.416 235.518 54.968C236.958 54.488 238.686 54.248 240.702 54.248C242.846 54.248 244.702 54.664 246.27 55.496C247.838 56.296 249.038 57.4 249.87 58.808C250.734 60.184 251.166 61.752 251.166 63.512C251.166 64.952 250.958 66.264 250.542 67.448C250.126 68.632 249.518 69.8 248.718 70.952C247.95 72.104 247.022 73.304 245.934 74.552C244.846 75.768 243.63 77.144 242.286 78.68L238.83 82.568L238.782 82.904H251.934V89Z" fill="white"/>
<path d="M58.832 296.872C58.832 298.04 58.48 298.968 57.776 299.656C57.088 300.328 56.16 300.76 54.992 300.952V301.048C56.368 301.24 57.408 301.688 58.112 302.392C58.816 303.096 59.168 304.016 59.168 305.152C59.168 306.16 58.928 307.048 58.448 307.816C57.968 308.568 57.248 309.16 56.288 309.592C55.328 310.024 54.12 310.24 52.664 310.24C51.768 310.24 50.912 310.168 50.096 310.024C49.296 309.896 48.56 309.656 47.888 309.304V307.336C48.352 307.576 48.848 307.784 49.376 307.96C49.92 308.12 50.464 308.248 51.008 308.344C51.568 308.424 52.096 308.464 52.592 308.464C54.032 308.464 55.12 308.176 55.856 307.6C56.592 307.024 56.96 306.208 56.96 305.152C56.96 304.064 56.52 303.272 55.64 302.776C54.76 302.28 53.544 302.032 51.992 302.032H49.736V300.232H51.872C52.944 300.232 53.832 300.104 54.536 299.848C55.24 299.592 55.76 299.232 56.096 298.768C56.448 298.288 56.624 297.728 56.624 297.088C56.624 296.224 56.328 295.56 55.736 295.096C55.144 294.632 54.368 294.4 53.408 294.4C52.416 294.4 51.584 294.536 50.912 294.808C50.24 295.08 49.584 295.432 48.944 295.864L47.936 294.4C48.368 294.064 48.864 293.768 49.424 293.512C49.984 293.24 50.6 293.024 51.272 292.864C51.944 292.704 52.672 292.624 53.456 292.624C54.624 292.624 55.608 292.808 56.408 293.176C57.208 293.544 57.808 294.048 58.208 294.688C58.624 295.312 58.832 296.04 58.832 296.872ZM71.3994 297.136V308.224H73.1514V314.464H71.1594V310H62.7594V314.464H60.7674V308.224H61.7514C62.4394 307.2 63.0074 306.088 63.4554 304.888C63.9034 303.672 64.2394 302.408 64.4634 301.096C64.7034 299.768 64.8314 298.448 64.8474 297.136H71.3994ZM66.6954 298.792C66.6314 299.88 66.4714 301.008 66.2154 302.176C65.9754 303.328 65.6554 304.432 65.2554 305.488C64.8714 306.544 64.4234 307.456 63.9114 308.224H69.3594V298.792H66.6954ZM80.1781 296.896C81.2181 296.896 82.1141 297.136 82.8661 297.616C83.6181 298.096 84.1941 298.776 84.5941 299.656C85.0101 300.52 85.2181 301.536 85.2181 302.704V303.976H76.9621C76.9941 305.432 77.3381 306.544 77.9941 307.312C78.6501 308.064 79.5701 308.44 80.7541 308.44C81.5221 308.44 82.2021 308.368 82.7941 308.224C83.4021 308.064 84.0261 307.84 84.6661 307.552V309.4C84.0421 309.688 83.4261 309.896 82.8181 310.024C82.2261 310.168 81.5061 310.24 80.6581 310.24C79.5061 310.24 78.4901 309.992 77.6101 309.496C76.7301 309 76.0421 308.264 75.5461 307.288C75.0501 306.296 74.8021 305.088 74.8021 303.664C74.8021 302.256 75.0261 301.048 75.4741 300.04C75.9221 299.032 76.5461 298.256 77.3461 297.712C78.1621 297.168 79.1061 296.896 80.1781 296.896ZM80.1781 298.624C79.2501 298.624 78.5141 298.952 77.9701 299.608C77.4261 300.248 77.1061 301.144 77.0101 302.296H83.0581C83.0581 301.56 82.9541 300.92 82.7461 300.376C82.5381 299.832 82.2181 299.408 81.7861 299.104C81.3701 298.784 80.8341 298.624 80.1781 298.624ZM93.1196 310.24C92.0316 310.24 91.0716 310.008 90.2396 309.544C89.4076 309.08 88.7516 308.36 88.2716 307.384C87.8076 306.408 87.5756 305.16 87.5756 303.64C87.5756 302.056 87.8236 300.768 88.3196 299.776C88.8156 298.784 89.4876 298.056 90.3356 297.592C91.1996 297.128 92.1756 296.896 93.2636 296.896C93.8876 296.896 94.4876 296.968 95.0636 297.112C95.6556 297.24 96.1356 297.4 96.5036 297.592L95.8556 299.344C95.4876 299.2 95.0556 299.064 94.5596 298.936C94.0796 298.808 93.6316 298.744 93.2156 298.744C92.4316 298.744 91.7836 298.928 91.2716 299.296C90.7596 299.664 90.3756 300.208 90.1196 300.928C89.8636 301.648 89.7356 302.544 89.7356 303.616C89.7356 304.64 89.8636 305.512 90.1196 306.232C90.3756 306.952 90.7516 307.496 91.2476 307.864C91.7596 308.232 92.3836 308.416 93.1196 308.416C93.7756 308.416 94.3596 308.344 94.8716 308.2C95.3836 308.056 95.8556 307.88 96.2876 307.672V309.544C95.8716 309.768 95.4156 309.936 94.9196 310.048C94.4236 310.176 93.8236 310.24 93.1196 310.24ZM104.738 302.416C105.794 302.416 106.674 302.552 107.378 302.824C108.082 303.096 108.61 303.504 108.962 304.048C109.33 304.576 109.514 305.248 109.514 306.064C109.514 306.864 109.346 307.56 109.01 308.152C108.674 308.744 108.146 309.2 107.426 309.52C106.722 309.84 105.802 310 104.666 310H99.146V297.136H101.234V302.416H104.738ZM107.426 306.184C107.426 305.4 107.17 304.872 106.658 304.6C106.146 304.312 105.434 304.168 104.522 304.168H101.234V308.296H104.57C105.386 308.296 106.066 308.136 106.61 307.816C107.154 307.496 107.426 306.952 107.426 306.184ZM127.579 297.136V308.224H129.331V314.464H127.339V310H118.939V314.464H116.947V308.224H117.931C118.619 307.2 119.187 306.088 119.635 304.888C120.083 303.672 120.419 302.408 120.643 301.096C120.883 299.768 121.011 298.448 121.027 297.136H127.579ZM122.875 298.792C122.811 299.88 122.651 301.008 122.395 302.176C122.155 303.328 121.835 304.432 121.435 305.488C121.051 306.544 120.603 307.456 120.091 308.224H125.539V298.792H122.875ZM142.238 303.544C142.238 304.616 142.102 305.568 141.83 306.4C141.574 307.216 141.198 307.912 140.702 308.488C140.206 309.064 139.606 309.504 138.902 309.808C138.198 310.096 137.414 310.24 136.55 310.24C135.75 310.24 135.006 310.096 134.318 309.808C133.646 309.504 133.054 309.064 132.542 308.488C132.046 307.912 131.662 307.216 131.39 306.4C131.118 305.568 130.982 304.616 130.982 303.544C130.982 302.12 131.206 300.92 131.654 299.944C132.118 298.952 132.774 298.2 133.622 297.688C134.47 297.16 135.47 296.896 136.622 296.896C137.726 296.896 138.694 297.16 139.526 297.688C140.374 298.2 141.038 298.952 141.518 299.944C141.998 300.92 142.238 302.12 142.238 303.544ZM133.142 303.544C133.142 304.552 133.262 305.432 133.502 306.184C133.742 306.92 134.118 307.488 134.63 307.888C135.142 308.288 135.798 308.488 136.598 308.488C137.398 308.488 138.054 308.288 138.566 307.888C139.078 307.488 139.454 306.92 139.694 306.184C139.95 305.432 140.078 304.552 140.078 303.544C140.078 302.52 139.95 301.648 139.694 300.928C139.454 300.208 139.078 299.656 138.566 299.272C138.054 298.872 137.39 298.672 136.574 298.672C135.374 298.672 134.502 299.104 133.958 299.968C133.414 300.832 133.142 302.024 133.142 303.544ZM154.701 310H152.589V298.888H149.061C148.917 300.92 148.725 302.656 148.485 304.096C148.261 305.52 147.973 306.68 147.621 307.576C147.285 308.472 146.877 309.128 146.397 309.544C145.917 309.96 145.349 310.168 144.693 310.168C144.485 310.168 144.277 310.152 144.069 310.12C143.877 310.104 143.717 310.064 143.589 310V308.416C143.685 308.448 143.789 308.472 143.901 308.488C144.013 308.504 144.125 308.512 144.237 308.512C144.557 308.512 144.845 308.368 145.101 308.08C145.373 307.792 145.613 307.352 145.821 306.76C146.045 306.168 146.245 305.424 146.421 304.528C146.597 303.616 146.749 302.544 146.877 301.312C147.021 300.08 147.149 298.688 147.261 297.136H154.701V310ZM173.25 297.136L168.282 303.376L173.658 310H171.306L166.122 303.472V310H164.178V303.472L158.97 310H156.618L161.994 303.376L157.05 297.136H159.306L164.178 303.376V297.136H166.122V303.376L170.994 297.136H173.25ZM177.711 297.136V302.488H184.143V297.136H186.231V310H184.143V304.264H177.711V310H175.623V297.136H177.711ZM200.597 303.544C200.597 304.616 200.461 305.568 200.189 306.4C199.933 307.216 199.557 307.912 199.061 308.488C198.565 309.064 197.965 309.504 197.261 309.808C196.557 310.096 195.773 310.24 194.909 310.24C194.109 310.24 193.365 310.096 192.677 309.808C192.005 309.504 191.413 309.064 190.901 308.488C190.405 307.912 190.021 307.216 189.749 306.4C189.477 305.568 189.341 304.616 189.341 303.544C189.341 302.12 189.565 300.92 190.013 299.944C190.477 298.952 191.133 298.2 191.981 297.688C192.829 297.16 193.829 296.896 194.981 296.896C196.085 296.896 197.053 297.16 197.885 297.688C198.733 298.2 199.397 298.952 199.877 299.944C200.357 300.92 200.597 302.12 200.597 303.544ZM191.501 303.544C191.501 304.552 191.621 305.432 191.861 306.184C192.101 306.92 192.477 307.488 192.989 307.888C193.501 308.288 194.157 308.488 194.957 308.488C195.757 308.488 196.413 308.288 196.925 307.888C197.437 307.488 197.813 306.92 198.053 306.184C198.309 305.432 198.437 304.552 198.437 303.544C198.437 302.52 198.309 301.648 198.053 300.928C197.813 300.208 197.437 299.656 196.925 299.272C196.413 298.872 195.749 298.672 194.933 298.672C193.733 298.672 192.861 299.104 192.317 299.968C191.773 300.832 191.501 302.024 191.501 303.544ZM208.936 302.272C208.936 300.4 209.112 298.808 209.464 297.496C209.832 296.168 210.392 295.112 211.144 294.328C211.912 293.528 212.896 292.992 214.096 292.72C215.056 292.496 216 292.296 216.928 292.12C217.856 291.944 218.728 291.784 219.544 291.64L219.904 293.488C219.504 293.552 219.064 293.632 218.584 293.728C218.104 293.808 217.616 293.896 217.12 293.992C216.64 294.072 216.168 294.16 215.704 294.256C215.256 294.336 214.856 294.416 214.504 294.496C214.008 294.608 213.56 294.8 213.16 295.072C212.776 295.328 212.44 295.68 212.152 296.128C211.88 296.576 211.656 297.128 211.48 297.784C211.32 298.44 211.224 299.216 211.192 300.112H211.336C211.544 299.808 211.832 299.496 212.2 299.176C212.568 298.856 213.008 298.584 213.52 298.36C214.032 298.136 214.616 298.024 215.272 298.024C216.312 298.024 217.184 298.272 217.888 298.768C218.592 299.248 219.12 299.92 219.472 300.784C219.84 301.648 220.024 302.656 220.024 303.808C220.024 305.232 219.784 306.424 219.304 307.384C218.84 308.344 218.192 309.064 217.36 309.544C216.528 310.008 215.56 310.24 214.456 310.24C213.624 310.24 212.864 310.072 212.176 309.736C211.504 309.384 210.92 308.872 210.424 308.2C209.944 307.528 209.576 306.696 209.32 305.704C209.064 304.712 208.936 303.568 208.936 302.272ZM214.624 308.488C215.264 308.488 215.824 308.344 216.304 308.056C216.784 307.768 217.152 307.296 217.408 306.64C217.68 305.984 217.816 305.112 217.816 304.024C217.816 302.712 217.592 301.68 217.144 300.928C216.696 300.16 215.96 299.776 214.936 299.776C214.28 299.776 213.688 299.936 213.16 300.256C212.632 300.56 212.184 300.912 211.816 301.312C211.464 301.712 211.216 302.048 211.072 302.32C211.072 303.104 211.12 303.864 211.216 304.6C211.328 305.336 211.512 306 211.768 306.592C212.04 307.168 212.4 307.632 212.848 307.984C213.312 308.32 213.904 308.488 214.624 308.488ZM223.13 310V297.136H225.218V302.416H228.242C229.314 302.416 230.194 302.552 230.882 302.824C231.57 303.096 232.082 303.504 232.418 304.048C232.754 304.576 232.922 305.248 232.922 306.064C232.922 306.864 232.754 307.56 232.418 308.152C232.098 308.744 231.586 309.2 230.882 309.52C230.194 309.84 229.29 310 228.17 310H223.13ZM227.978 308.296C228.826 308.296 229.514 308.144 230.042 307.84C230.57 307.52 230.834 306.968 230.834 306.184C230.834 305.4 230.586 304.872 230.09 304.6C229.61 304.312 228.914 304.168 228.002 304.168H225.218V308.296H227.978ZM234.914 310V297.136H237.002V310H234.914ZM249.298 298.912H245.338V310H243.274V298.912H239.362V297.136H249.298V298.912ZM257.269 302.416C258.325 302.416 259.205 302.552 259.909 302.824C260.613 303.096 261.141 303.504 261.493 304.048C261.861 304.576 262.045 305.248 262.045 306.064C262.045 306.864 261.877 307.56 261.541 308.152C261.205 308.744 260.677 309.2 259.957 309.52C259.253 309.84 258.333 310 257.197 310H251.677V297.136H253.765V302.416H257.269ZM259.957 306.184C259.957 305.4 259.701 304.872 259.189 304.6C258.677 304.312 257.965 304.168 257.053 304.168H253.765V308.296H257.101C257.917 308.296 258.597 308.136 259.141 307.816C259.685 307.496 259.957 306.952 259.957 306.184ZM278.19 297.136H280.47L275.334 303.328L280.902 310H278.478L273.054 303.472V310H270.966V297.136H273.054V303.376L278.19 297.136ZM288.869 296.896C290.357 296.896 291.549 297.448 292.445 298.552C293.357 299.656 293.813 301.32 293.813 303.544C293.813 305 293.605 306.232 293.189 307.24C292.773 308.232 292.189 308.984 291.437 309.496C290.701 309.992 289.837 310.24 288.845 310.24C288.221 310.24 287.669 310.152 287.189 309.976C286.725 309.8 286.325 309.576 285.989 309.304C285.653 309.016 285.365 308.704 285.125 308.368H284.981C285.013 308.64 285.045 308.984 285.077 309.4C285.109 309.816 285.125 310.176 285.125 310.48V315.76H283.037V297.136H284.741L285.029 298.888H285.125C285.365 298.52 285.653 298.184 285.989 297.88C286.325 297.576 286.725 297.336 287.189 297.16C287.669 296.984 288.229 296.896 288.869 296.896ZM288.461 298.672C287.661 298.672 287.013 298.84 286.517 299.176C286.037 299.496 285.685 299.984 285.461 300.64C285.237 301.296 285.125 302.128 285.125 303.136V303.544C285.125 304.6 285.221 305.496 285.413 306.232C285.621 306.968 285.973 307.528 286.469 307.912C286.965 308.296 287.645 308.488 288.509 308.488C289.229 308.488 289.821 308.272 290.285 307.84C290.749 307.408 291.093 306.824 291.317 306.088C291.541 305.336 291.653 304.48 291.653 303.52C291.653 302.048 291.389 300.872 290.861 299.992C290.349 299.112 289.549 298.672 288.461 298.672ZM301.567 296.92C303.039 296.92 304.135 297.264 304.855 297.952C305.591 298.64 305.959 299.736 305.959 301.24V310H304.447L304.039 308.176H303.943C303.591 308.64 303.231 309.032 302.863 309.352C302.511 309.656 302.095 309.88 301.615 310.024C301.151 310.168 300.575 310.24 299.887 310.24C299.167 310.24 298.519 310.104 297.943 309.832C297.367 309.56 296.911 309.144 296.575 308.584C296.239 308.008 296.071 307.288 296.071 306.424C296.071 305.144 296.543 304.16 297.487 303.472C298.431 302.768 299.887 302.384 301.855 302.32L303.895 302.248V301.48C303.895 300.408 303.679 299.664 303.247 299.248C302.831 298.832 302.231 298.624 301.447 298.624C300.823 298.624 300.223 298.728 299.647 298.936C299.087 299.128 298.551 299.352 298.039 299.608L297.391 298.024C297.935 297.72 298.567 297.464 299.287 297.256C300.007 297.032 300.767 296.92 301.567 296.92ZM302.143 303.784C300.671 303.848 299.647 304.104 299.071 304.552C298.511 305 298.231 305.632 298.231 306.448C298.231 307.168 298.431 307.696 298.831 308.032C299.231 308.368 299.751 308.536 300.391 308.536C301.383 308.536 302.215 308.24 302.887 307.648C303.559 307.04 303.895 306.112 303.895 304.864V303.712L302.143 303.784ZM318.181 298.912H314.221V310H312.157V298.912H308.245V297.136H318.181V298.912ZM327.784 297.136H330.064L324.928 303.328L330.496 310H328.072L322.648 303.472V310H320.56V297.136H322.648V303.376L327.784 297.136ZM342.769 303.544C342.769 304.616 342.633 305.568 342.361 306.4C342.105 307.216 341.729 307.912 341.233 308.488C340.737 309.064 340.137 309.504 339.433 309.808C338.729 310.096 337.945 310.24 337.081 310.24C336.281 310.24 335.537 310.096 334.849 309.808C334.177 309.504 333.585 309.064 333.073 308.488C332.577 307.912 332.193 307.216 331.921 306.4C331.649 305.568 331.513 304.616 331.513 303.544C331.513 302.12 331.737 300.92 332.185 299.944C332.649 298.952 333.305 298.2 334.153 297.688C335.001 297.16 336.001 296.896 337.153 296.896C338.257 296.896 339.225 297.16 340.057 297.688C340.905 298.2 341.569 298.952 342.049 299.944C342.529 300.92 342.769 302.12 342.769 303.544ZM333.673 303.544C333.673 304.552 333.793 305.432 334.033 306.184C334.273 306.92 334.649 307.488 335.161 307.888C335.673 308.288 336.329 308.488 337.129 308.488C337.929 308.488 338.585 308.288 339.097 307.888C339.609 307.488 339.985 306.92 340.225 306.184C340.481 305.432 340.609 304.552 340.609 303.544C340.609 302.52 340.481 301.648 340.225 300.928C339.985 300.208 339.609 299.656 339.097 299.272C338.585 298.872 337.921 298.672 337.105 298.672C335.905 298.672 335.033 299.104 334.489 299.968C333.945 300.832 333.673 302.024 333.673 303.544ZM350.577 296.896C351.617 296.896 352.513 297.136 353.265 297.616C354.017 298.096 354.593 298.776 354.993 299.656C355.409 300.52 355.617 301.536 355.617 302.704V303.976H347.361C347.393 305.432 347.737 306.544 348.393 307.312C349.049 308.064 349.969 308.44 351.153 308.44C351.921 308.44 352.601 308.368 353.193 308.224C353.801 308.064 354.425 307.84 355.065 307.552V309.4C354.441 309.688 353.825 309.896 353.217 310.024C352.625 310.168 351.905 310.24 351.057 310.24C349.905 310.24 348.889 309.992 348.009 309.496C347.129 309 346.441 308.264 345.945 307.288C345.449 306.296 345.201 305.088 345.201 303.664C345.201 302.256 345.425 301.048 345.873 300.04C346.321 299.032 346.945 298.256 347.745 297.712C348.561 297.168 349.505 296.896 350.577 296.896ZM350.577 298.624C349.649 298.624 348.913 298.952 348.369 299.608C347.825 300.248 347.505 301.144 347.409 302.296H353.457C353.457 301.56 353.353 300.92 353.145 300.376C352.937 299.832 352.617 299.408 352.185 299.104C351.769 298.784 351.233 298.624 350.577 298.624ZM375.089 303.544C375.089 304.616 374.953 305.568 374.681 306.4C374.425 307.216 374.049 307.912 373.553 308.488C373.057 309.064 372.457 309.504 371.753 309.808C371.049 310.096 370.265 310.24 369.401 310.24C368.601 310.24 367.857 310.096 367.169 309.808C366.497 309.504 365.905 309.064 365.393 308.488C364.897 307.912 364.513 307.216 364.241 306.4C363.969 305.568 363.833 304.616 363.833 303.544C363.833 302.12 364.057 300.92 364.505 299.944C364.969 298.952 365.625 298.2 366.473 297.688C367.321 297.16 368.321 296.896 369.473 296.896C370.577 296.896 371.545 297.16 372.377 297.688C373.225 298.2 373.889 298.952 374.369 299.944C374.849 300.92 375.089 302.12 375.089 303.544ZM365.993 303.544C365.993 304.552 366.113 305.432 366.353 306.184C366.593 306.92 366.969 307.488 367.481 307.888C367.993 308.288 368.649 308.488 369.449 308.488C370.249 308.488 370.905 308.288 371.417 307.888C371.929 307.488 372.305 306.92 372.545 306.184C372.801 305.432 372.929 304.552 372.929 303.544C372.929 302.52 372.801 301.648 372.545 300.928C372.305 300.208 371.929 299.656 371.417 299.272C370.905 298.872 370.241 298.672 369.425 298.672C368.225 298.672 367.353 299.104 366.809 299.968C366.265 300.832 365.993 302.024 365.993 303.544ZM388.489 297.136V310H386.401V298.936H380.281V310H378.193V297.136H388.489ZM394.27 304.984C394.27 305.128 394.262 305.336 394.246 305.608C394.246 305.864 394.238 306.144 394.222 306.448C394.206 306.736 394.19 307.016 394.174 307.288C394.158 307.544 394.142 307.752 394.126 307.912L400.558 297.136H403.102V310H401.158V302.416C401.158 302.16 401.158 301.824 401.158 301.408C401.174 300.992 401.19 300.584 401.206 300.184C401.222 299.768 401.238 299.456 401.254 299.248L394.894 310H392.302V297.136H394.27V304.984ZM411.799 310.24C410.711 310.24 409.751 310.008 408.919 309.544C408.087 309.08 407.431 308.36 406.951 307.384C406.487 306.408 406.255 305.16 406.255 303.64C406.255 302.056 406.503 300.768 406.999 299.776C407.495 298.784 408.167 298.056 409.015 297.592C409.879 297.128 410.855 296.896 411.943 296.896C412.567 296.896 413.167 296.968 413.743 297.112C414.335 297.24 414.815 297.4 415.183 297.592L414.535 299.344C414.167 299.2 413.735 299.064 413.239 298.936C412.759 298.808 412.311 298.744 411.895 298.744C411.111 298.744 410.463 298.928 409.951 299.296C409.439 299.664 409.055 300.208 408.799 300.928C408.543 301.648 408.415 302.544 408.415 303.616C408.415 304.64 408.543 305.512 408.799 306.232C409.055 306.952 409.431 307.496 409.927 307.864C410.439 308.232 411.063 308.416 411.799 308.416C412.455 308.416 413.039 308.344 413.551 308.2C414.063 308.056 414.535 307.88 414.967 307.672V309.544C414.551 309.768 414.095 309.936 413.599 310.048C413.103 310.176 412.503 310.24 411.799 310.24ZM422.458 296.92C423.93 296.92 425.026 297.264 425.746 297.952C426.482 298.64 426.85 299.736 426.85 301.24V310H425.338L424.93 308.176H424.834C424.482 308.64 424.122 309.032 423.754 309.352C423.402 309.656 422.986 309.88 422.506 310.024C422.042 310.168 421.466 310.24 420.778 310.24C420.058 310.24 419.41 310.104 418.834 309.832C418.258 309.56 417.802 309.144 417.466 308.584C417.13 308.008 416.962 307.288 416.962 306.424C416.962 305.144 417.434 304.16 418.378 303.472C419.322 302.768 420.778 302.384 422.746 302.32L424.786 302.248V301.48C424.786 300.408 424.57 299.664 424.138 299.248C423.722 298.832 423.122 298.624 422.338 298.624C421.714 298.624 421.114 298.728 420.538 298.936C419.978 299.128 419.442 299.352 418.93 299.608L418.282 298.024C418.826 297.72 419.458 297.464 420.178 297.256C420.898 297.032 421.658 296.92 422.458 296.92ZM423.034 303.784C421.562 303.848 420.538 304.104 419.962 304.552C419.402 305 419.122 305.632 419.122 306.448C419.122 307.168 419.322 307.696 419.722 308.032C420.122 308.368 420.642 308.536 421.282 308.536C422.274 308.536 423.106 308.24 423.778 307.648C424.45 307.04 424.786 306.112 424.786 304.864V303.712L423.034 303.784ZM432.664 297.136V302.488H439.096V297.136H441.184V310H439.096V304.264H432.664V310H430.576V297.136H432.664ZM446.934 304.984C446.934 305.128 446.926 305.336 446.91 305.608C446.91 305.864 446.902 306.144 446.886 306.448C446.87 306.736 446.854 307.016 446.838 307.288C446.822 307.544 446.806 307.752 446.79 307.912L453.222 297.136H455.766V310H453.822V302.416C453.822 302.16 453.822 301.824 453.822 301.408C453.838 300.992 453.854 300.584 453.87 300.184C453.886 299.768 453.902 299.456 453.918 299.248L447.558 310H444.966V297.136H446.934V304.984ZM464.295 296.896C465.335 296.896 466.231 297.136 466.983 297.616C467.735 298.096 468.311 298.776 468.711 299.656C469.127 300.52 469.335 301.536 469.335 302.704V303.976H461.079C461.111 305.432 461.455 306.544 462.111 307.312C462.767 308.064 463.687 308.44 464.871 308.44C465.639 308.44 466.319 308.368 466.911 308.224C467.519 308.064 468.143 307.84 468.783 307.552V309.4C468.159 309.688 467.543 309.896 466.935 310.024C466.343 310.168 465.623 310.24 464.775 310.24C463.623 310.24 462.607 309.992 461.727 309.496C460.847 309 460.159 308.264 459.663 307.288C459.167 306.296 458.919 305.088 458.919 303.664C458.919 302.256 459.143 301.048 459.591 300.04C460.039 299.032 460.663 298.256 461.463 297.712C462.279 297.168 463.223 296.896 464.295 296.896ZM464.295 298.624C463.367 298.624 462.631 298.952 462.087 299.608C461.543 300.248 461.223 301.144 461.127 302.296H467.175C467.175 301.56 467.071 300.92 466.863 300.376C466.655 299.832 466.335 299.408 465.903 299.104C465.487 298.784 464.951 298.624 464.295 298.624ZM488.52 297.136V310H486.432V298.936H480.312V310H478.224V297.136H488.52ZM498.166 296.896C499.654 296.896 500.846 297.448 501.742 298.552C502.654 299.656 503.109 301.32 503.109 303.544C503.109 305 502.902 306.232 502.486 307.24C502.07 308.232 501.486 308.984 500.734 309.496C499.998 309.992 499.134 310.24 498.142 310.24C497.518 310.24 496.966 310.152 496.486 309.976C496.022 309.8 495.622 309.576 495.286 309.304C494.95 309.016 494.662 308.704 494.422 308.368H494.278C494.31 308.64 494.342 308.984 494.374 309.4C494.406 309.816 494.422 310.176 494.422 310.48V315.76H492.334V297.136H494.038L494.326 298.888H494.422C494.662 298.52 494.95 298.184 495.286 297.88C495.622 297.576 496.022 297.336 496.486 297.16C496.966 296.984 497.526 296.896 498.166 296.896ZM497.758 298.672C496.958 298.672 496.31 298.84 495.814 299.176C495.334 299.496 494.982 299.984 494.758 300.64C494.534 301.296 494.422 302.128 494.422 303.136V303.544C494.422 304.6 494.518 305.496 494.71 306.232C494.918 306.968 495.27 307.528 495.766 307.912C496.262 308.296 496.942 308.488 497.806 308.488C498.526 308.488 499.118 308.272 499.582 307.84C500.046 307.408 500.39 306.824 500.614 306.088C500.838 305.336 500.95 304.48 500.95 303.52C500.95 302.048 500.686 300.872 500.158 299.992C499.646 299.112 498.846 298.672 497.758 298.672ZM516.816 303.544C516.816 304.616 516.68 305.568 516.408 306.4C516.152 307.216 515.776 307.912 515.28 308.488C514.784 309.064 514.184 309.504 513.48 309.808C512.776 310.096 511.992 310.24 511.128 310.24C510.328 310.24 509.584 310.096 508.896 309.808C508.224 309.504 507.632 309.064 507.12 308.488C506.624 307.912 506.24 307.216 505.968 306.4C505.696 305.568 505.56 304.616 505.56 303.544C505.56 302.12 505.784 300.92 506.232 299.944C506.696 298.952 507.352 298.2 508.2 297.688C509.048 297.16 510.048 296.896 511.2 296.896C512.304 296.896 513.272 297.16 514.104 297.688C514.952 298.2 515.616 298.952 516.096 299.944C516.576 300.92 516.816 302.12 516.816 303.544ZM507.72 303.544C507.72 304.552 507.84 305.432 508.08 306.184C508.32 306.92 508.696 307.488 509.208 307.888C509.72 308.288 510.376 308.488 511.176 308.488C511.976 308.488 512.632 308.288 513.144 307.888C513.656 307.488 514.032 306.92 514.272 306.184C514.528 305.432 514.656 304.552 514.656 303.544C514.656 302.52 514.528 301.648 514.272 300.928C514.032 300.208 513.656 299.656 513.144 299.272C512.632 298.872 511.968 298.672 511.152 298.672C509.952 298.672 509.08 299.104 508.536 299.968C507.992 300.832 507.72 302.024 507.72 303.544ZM524.623 296.896C525.663 296.896 526.559 297.136 527.311 297.616C528.063 298.096 528.639 298.776 529.039 299.656C529.455 300.52 529.663 301.536 529.663 302.704V303.976H521.407C521.439 305.432 521.783 306.544 522.439 307.312C523.095 308.064 524.015 308.44 525.199 308.44C525.967 308.44 526.647 308.368 527.239 308.224C527.847 308.064 528.471 307.84 529.111 307.552V309.4C528.487 309.688 527.871 309.896 527.263 310.024C526.671 310.168 525.951 310.24 525.103 310.24C523.951 310.24 522.935 309.992 522.055 309.496C521.175 309 520.487 308.264 519.991 307.288C519.495 306.296 519.247 305.088 519.247 303.664C519.247 302.256 519.471 301.048 519.919 300.04C520.367 299.032 520.991 298.256 521.791 297.712C522.607 297.168 523.551 296.896 524.623 296.896ZM524.623 298.624C523.695 298.624 522.959 298.952 522.415 299.608C521.871 300.248 521.551 301.144 521.455 302.296H527.503C527.503 301.56 527.399 300.92 527.191 300.376C526.983 299.832 526.663 299.408 526.231 299.104C525.815 298.784 525.279 298.624 524.623 298.624ZM539.917 297.136H542.197L537.061 303.328L542.629 310H540.205L534.781 303.472V310H532.693V297.136H534.781V303.376L539.917 297.136ZM553.259 298.912H549.299V310H547.235V298.912H543.323V297.136H553.259V298.912ZM560.27 296.92C561.742 296.92 562.838 297.264 563.558 297.952C564.294 298.64 564.662 299.736 564.662 301.24V310H563.15L562.742 308.176H562.646C562.294 308.64 561.934 309.032 561.566 309.352C561.214 309.656 560.798 309.88 560.318 310.024C559.854 310.168 559.278 310.24 558.59 310.24C557.87 310.24 557.222 310.104 556.646 309.832C556.07 309.56 555.614 309.144 555.278 308.584C554.942 308.008 554.774 307.288 554.774 306.424C554.774 305.144 555.246 304.16 556.19 303.472C557.134 302.768 558.59 302.384 560.558 302.32L562.598 302.248V301.48C562.598 300.408 562.382 299.664 561.95 299.248C561.534 298.832 560.934 298.624 560.15 298.624C559.526 298.624 558.926 298.728 558.35 298.936C557.79 299.128 557.254 299.352 556.742 299.608L556.094 298.024C556.638 297.72 557.27 297.464 557.99 297.256C558.71 297.032 559.47 296.92 560.27 296.92ZM560.846 303.784C559.374 303.848 558.35 304.104 557.774 304.552C557.214 305 556.934 305.632 556.934 306.448C556.934 307.168 557.134 307.696 557.534 308.032C557.934 308.368 558.454 308.536 559.094 308.536C560.086 308.536 560.918 308.24 561.59 307.648C562.262 307.04 562.598 306.112 562.598 304.864V303.712L560.846 303.784ZM568.1 308.704C568.1 308.112 568.236 307.696 568.508 307.456C568.78 307.216 569.116 307.096 569.516 307.096C569.916 307.096 570.26 307.216 570.548 307.456C570.836 307.696 570.98 308.112 570.98 308.704C570.98 309.28 570.836 309.696 570.548 309.952C570.26 310.208 569.916 310.336 569.516 310.336C569.116 310.336 568.78 310.208 568.508 309.952C568.236 309.696 568.1 309.28 568.1 308.704Z" fill="white"/>
<path d="M887.199 319V284.728H892.527V314.536H906.159V319H887.199ZM939.387 301.816C939.387 304.472 939.067 306.888 938.427 309.064C937.819 311.208 936.875 313.064 935.595 314.632C934.347 316.2 932.779 317.4 930.891 318.232C929.003 319.064 926.811 319.48 924.315 319.48C921.755 319.48 919.515 319.064 917.595 318.232C915.707 317.368 914.139 316.168 912.891 314.632C911.643 313.064 910.715 311.192 910.107 309.016C909.499 306.84 909.195 304.424 909.195 301.768C909.195 298.248 909.739 295.176 910.827 292.552C911.947 289.928 913.627 287.88 915.867 286.408C918.107 284.936 920.939 284.2 924.363 284.2C927.691 284.2 930.459 284.936 932.667 286.408C934.907 287.848 936.587 289.896 937.707 292.552C938.827 295.176 939.387 298.264 939.387 301.816ZM914.811 301.816C914.811 304.568 915.131 306.936 915.771 308.92C916.443 310.872 917.483 312.392 918.891 313.48C920.331 314.536 922.139 315.064 924.315 315.064C926.523 315.064 928.315 314.536 929.691 313.48C931.099 312.392 932.123 310.872 932.763 308.92C933.435 306.936 933.771 304.568 933.771 301.816C933.771 297.688 933.019 294.472 931.515 292.168C930.011 289.832 927.627 288.664 924.363 288.664C922.155 288.664 920.331 289.192 918.891 290.248C917.483 291.304 916.443 292.808 915.771 294.76C915.131 296.712 914.811 299.064 914.811 301.816ZM959.703 300.568H971.559V317.656C969.831 318.264 968.055 318.712 966.231 319C964.407 319.32 962.359 319.48 960.087 319.48C956.791 319.48 953.991 318.776 951.687 317.368C949.415 315.96 947.671 313.944 946.455 311.32C945.271 308.696 944.679 305.544 944.679 301.864C944.679 298.28 945.335 295.176 946.647 292.552C947.959 289.928 949.863 287.896 952.359 286.456C954.855 284.984 957.879 284.248 961.431 284.248C963.255 284.248 964.983 284.44 966.615 284.824C968.279 285.176 969.799 285.672 971.175 286.312L969.303 290.632C968.183 290.088 966.935 289.64 965.559 289.288C964.215 288.904 962.807 288.712 961.335 288.712C958.967 288.712 956.951 289.256 955.287 290.344C953.623 291.4 952.359 292.92 951.495 294.904C950.631 296.856 950.199 299.192 950.199 301.912C950.199 304.472 950.567 306.744 951.303 308.728C952.039 310.712 953.191 312.264 954.759 313.384C956.327 314.504 958.359 315.064 960.855 315.064C961.687 315.064 962.423 315.032 963.063 314.968C963.703 314.872 964.295 314.776 964.839 314.68C965.415 314.552 965.927 314.44 966.375 314.344V305.032H959.703V300.568ZM1007.73 301.816C1007.73 304.472 1007.41 306.888 1006.77 309.064C1006.16 311.208 1005.22 313.064 1003.94 314.632C1002.69 316.2 1001.12 317.4 999.234 318.232C997.346 319.064 995.154 319.48 992.658 319.48C990.098 319.48 987.858 319.064 985.938 318.232C984.05 317.368 982.482 316.168 981.234 314.632C979.986 313.064 979.058 311.192 978.45 309.016C977.842 306.84 977.538 304.424 977.538 301.768C977.538 298.248 978.082 295.176 979.17 292.552C980.29 289.928 981.97 287.88 984.21 286.408C986.45 284.936 989.282 284.2 992.706 284.2C996.034 284.2 998.802 284.936 1001.01 286.408C1003.25 287.848 1004.93 289.896 1006.05 292.552C1007.17 295.176 1007.73 298.264 1007.73 301.816ZM983.154 301.816C983.154 304.568 983.474 306.936 984.114 308.92C984.786 310.872 985.826 312.392 987.234 313.48C988.674 314.536 990.482 315.064 992.658 315.064C994.866 315.064 996.658 314.536 998.034 313.48C999.442 312.392 1000.47 310.872 1001.11 308.92C1001.78 306.936 1002.11 304.568 1002.11 301.816C1002.11 297.688 1001.36 294.472 999.858 292.168C998.354 289.832 995.97 288.664 992.706 288.664C990.498 288.664 988.674 289.192 987.234 290.248C985.826 291.304 984.786 292.808 984.114 294.76C983.474 296.712 983.154 299.064 983.154 301.816ZM1045.96 319H1024.07V315.064L1032.37 306.088C1033.97 304.328 1035.3 302.808 1036.36 301.528C1037.41 300.216 1038.2 298.968 1038.71 297.784C1039.25 296.568 1039.53 295.256 1039.53 293.848C1039.53 292.088 1039.06 290.776 1038.13 289.912C1037.24 289.016 1036.05 288.568 1034.58 288.568C1033.14 288.568 1031.85 288.872 1030.69 289.48C1029.54 290.056 1028.34 290.872 1027.09 291.928L1024.26 288.52C1025.16 287.72 1026.1 287 1027.09 286.36C1028.12 285.72 1029.25 285.208 1030.5 284.824C1031.78 284.44 1033.22 284.248 1034.82 284.248C1036.87 284.248 1038.63 284.632 1040.1 285.4C1041.61 286.136 1042.76 287.192 1043.56 288.568C1044.39 289.944 1044.81 291.56 1044.81 293.416C1044.81 294.792 1044.6 296.072 1044.18 297.256C1043.8 298.44 1043.22 299.608 1042.45 300.76C1041.72 301.912 1040.82 303.096 1039.77 304.312C1038.74 305.496 1037.61 306.776 1036.36 308.152L1030.69 314.248V314.488H1045.96V319Z" fill="white"/>
</svg>
