<svg width="1392" height="600" viewBox="0 0 1392 600" fill="none" xmlns="http://www.w3.org/2000/svg">
<rect width="1392" height="600" fill="#1C1C1C"/>
<path d="M43.76 84.296C42.608 84.296 41.568 84.568 40.64 85.112C39.744 85.656 38.976 86.44 38.336 87.464C37.696 88.456 37.216 89.672 36.896 91.112C36.576 92.552 36.416 94.168 36.416 95.96C36.416 98.392 36.688 100.472 37.232 102.2C37.776 103.896 38.608 105.192 39.728 106.088C40.848 106.984 42.272 107.432 44 107.432C45.376 107.432 46.72 107.272 48.032 106.952C49.376 106.632 50.768 106.184 52.208 105.608V111.704C50.8 112.312 49.376 112.76 47.936 113.048C46.496 113.336 44.928 113.48 43.232 113.48C39.808 113.48 37.008 112.76 34.832 111.32C32.656 109.848 31.04 107.8 29.984 105.176C28.96 102.52 28.448 99.432 28.448 95.912C28.448 93.32 28.784 90.952 29.456 88.808C30.128 86.632 31.12 84.76 32.432 83.192C33.744 81.624 35.344 80.408 37.232 79.544C39.152 78.68 41.344 78.248 43.808 78.248C45.408 78.248 47.088 78.472 48.848 78.92C50.64 79.336 52.192 79.912 53.504 80.648L51.056 86.552C49.872 85.944 48.672 85.416 47.456 84.968C46.272 84.52 45.04 84.296 43.76 84.296ZM75.0328 86.792H83.4808L73.9288 99.368L84.2968 113H75.5608L65.9128 99.704V113H58.2328V86.792H65.9128V99.512L75.0328 86.792ZM109.68 99.848C109.68 102.024 109.392 103.96 108.816 105.656C108.272 107.352 107.472 108.792 106.416 109.976C105.36 111.128 104.064 112.008 102.528 112.616C101.024 113.192 99.3281 113.48 97.4401 113.48C95.6801 113.48 94.0481 113.192 92.5441 112.616C91.0401 112.008 89.7441 111.128 88.6561 109.976C87.6001 108.792 86.7681 107.352 86.1601 105.656C85.5841 103.96 85.2961 102.024 85.2961 99.848C85.2961 96.936 85.7921 94.488 86.7841 92.504C87.7761 90.488 89.1841 88.952 91.0081 87.896C92.8321 86.84 95.0241 86.312 97.5841 86.312C99.9521 86.312 102.032 86.84 103.824 87.896C105.648 88.952 107.072 90.488 108.096 92.504C109.152 94.488 109.68 96.936 109.68 99.848ZM93.1201 99.848C93.1201 101.576 93.2641 103.032 93.5521 104.216C93.8721 105.368 94.3521 106.248 94.9921 106.856C95.6641 107.432 96.5121 107.72 97.5361 107.72C98.5921 107.72 99.4241 107.432 100.032 106.856C100.672 106.248 101.136 105.368 101.424 104.216C101.712 103.032 101.856 101.576 101.856 99.848C101.856 98.12 101.712 96.68 101.424 95.528C101.136 94.376 100.656 93.512 99.9841 92.936C99.3441 92.36 98.5121 92.072 97.4881 92.072C95.9201 92.072 94.8001 92.728 94.1281 94.04C93.4561 95.32 93.1201 97.256 93.1201 99.848ZM129.401 86.312C132.153 86.312 134.345 87.464 135.977 89.768C137.641 92.04 138.473 95.4 138.473 99.848C138.473 102.824 138.073 105.336 137.273 107.384C136.473 109.4 135.369 110.92 133.961 111.944C132.553 112.968 130.937 113.48 129.113 113.48C127.961 113.48 126.969 113.32 126.137 113C125.305 112.68 124.601 112.264 124.025 111.752C123.481 111.24 123.001 110.696 122.585 110.12H122.249C122.345 110.728 122.425 111.368 122.489 112.04C122.553 112.68 122.585 113.32 122.585 113.96V124.52H114.905V86.792H121.145L122.249 90.2H122.585C123.001 89.496 123.513 88.856 124.121 88.28C124.729 87.672 125.465 87.192 126.329 86.84C127.193 86.488 128.217 86.312 129.401 86.312ZM126.665 92.024C125.673 92.024 124.873 92.28 124.265 92.792C123.657 93.304 123.225 94.088 122.969 95.144C122.713 96.168 122.585 97.464 122.585 99.032V99.8C122.585 101.496 122.713 102.936 122.969 104.12C123.225 105.272 123.657 106.152 124.265 106.76C124.873 107.368 125.705 107.672 126.761 107.672C127.625 107.672 128.345 107.368 128.921 106.76C129.497 106.152 129.929 105.256 130.217 104.072C130.505 102.888 130.649 101.448 130.649 99.752C130.649 97.192 130.313 95.272 129.641 93.992C129.001 92.68 128.009 92.024 126.665 92.024ZM166.774 99.848C166.774 102.024 166.486 103.96 165.91 105.656C165.366 107.352 164.566 108.792 163.51 109.976C162.454 111.128 161.158 112.008 159.622 112.616C158.118 113.192 156.422 113.48 154.534 113.48C152.774 113.48 151.142 113.192 149.638 112.616C148.134 112.008 146.838 111.128 145.75 109.976C144.694 108.792 143.862 107.352 143.254 105.656C142.678 103.96 142.39 102.024 142.39 99.848C142.39 96.936 142.886 94.488 143.878 92.504C144.87 90.488 146.278 88.952 148.102 87.896C149.926 86.84 152.118 86.312 154.678 86.312C157.046 86.312 159.126 86.84 160.918 87.896C162.742 88.952 164.166 90.488 165.19 92.504C166.246 94.488 166.774 96.936 166.774 99.848ZM150.214 99.848C150.214 101.576 150.358 103.032 150.646 104.216C150.966 105.368 151.446 106.248 152.086 106.856C152.758 107.432 153.606 107.72 154.63 107.72C155.686 107.72 156.518 107.432 157.126 106.856C157.766 106.248 158.23 105.368 158.518 104.216C158.806 103.032 158.95 101.576 158.95 99.848C158.95 98.12 158.806 96.68 158.518 95.528C158.23 94.376 157.75 93.512 157.078 92.936C156.438 92.36 155.606 92.072 154.582 92.072C153.014 92.072 151.894 92.728 151.222 94.04C150.55 95.32 150.214 97.256 150.214 99.848ZM182.702 113.48C180.206 113.48 178.062 113.016 176.27 112.088C174.478 111.128 173.102 109.656 172.142 107.672C171.182 105.688 170.702 103.144 170.702 100.04C170.702 96.84 171.23 94.232 172.286 92.216C173.374 90.2 174.862 88.712 176.75 87.752C178.67 86.792 180.862 86.312 183.326 86.312C184.926 86.312 186.414 86.488 187.79 86.84C189.166 87.192 190.318 87.608 191.246 88.088L188.99 93.464C188.03 93.048 187.15 92.712 186.35 92.456C185.582 92.2 184.734 92.072 183.806 92.072C182.686 92.072 181.726 92.376 180.926 92.984C180.158 93.56 179.566 94.44 179.15 95.624C178.734 96.776 178.526 98.232 178.526 99.992C178.526 101.72 178.734 103.16 179.15 104.312C179.598 105.432 180.206 106.28 180.974 106.856C181.774 107.4 182.718 107.672 183.806 107.672C185.022 107.672 186.174 107.48 187.262 107.096C188.382 106.68 189.438 106.12 190.43 105.416V111.512C189.374 112.216 188.238 112.712 187.022 113C185.838 113.32 184.398 113.48 182.702 113.48ZM217.508 92.168H209.348V113H201.716V92.168H193.556V86.792H217.508V92.168ZM233.299 96.92C235.859 96.92 237.923 97.208 239.491 97.784C241.059 98.328 242.195 99.176 242.899 100.328C243.635 101.48 244.003 102.92 244.003 104.648C244.003 106.344 243.635 107.816 242.899 109.064C242.195 110.312 241.027 111.288 239.395 111.992C237.795 112.664 235.635 113 232.915 113H221.827V86.792H229.507V96.92H233.299ZM236.323 104.744C236.323 103.72 236.035 102.984 235.459 102.536C234.883 102.088 233.891 101.864 232.483 101.864H229.507V108.056H232.579C233.763 108.056 234.675 107.8 235.315 107.288C235.987 106.776 236.323 105.928 236.323 104.744Z" fill="white"/>
<path d="M35.072 282.52C34.224 282.52 33.464 282.68 32.792 283C32.12 283.304 31.544 283.76 31.064 284.368C30.6 284.96 30.24 285.688 29.984 286.552C29.744 287.4 29.624 288.36 29.624 289.432C29.624 290.84 29.824 292.064 30.224 293.104C30.624 294.144 31.224 294.944 32.024 295.504C32.84 296.064 33.848 296.344 35.048 296.344C35.752 296.344 36.416 296.28 37.04 296.152C37.68 296.024 38.312 295.864 38.936 295.672V297.544C38.328 297.784 37.704 297.96 37.064 298.072C36.424 298.184 35.656 298.24 34.76 298.24C33.112 298.24 31.736 297.88 30.632 297.16C29.544 296.44 28.728 295.416 28.184 294.088C27.64 292.76 27.368 291.2 27.368 289.408C27.368 288.112 27.536 286.928 27.872 285.856C28.208 284.784 28.704 283.856 29.36 283.072C30.016 282.288 30.824 281.688 31.784 281.272C32.744 280.84 33.848 280.624 35.096 280.624C35.912 280.624 36.704 280.712 37.472 280.888C38.24 281.064 38.936 281.312 39.56 281.632L38.72 283.456C38.224 283.216 37.664 283 37.04 282.808C36.432 282.616 35.776 282.52 35.072 282.52ZM45.1334 285.136H47.3894L49.9574 292.456C50.1174 292.888 50.2614 293.304 50.3894 293.704C50.5174 294.104 50.6294 294.496 50.7254 294.88C50.8214 295.248 50.8934 295.608 50.9414 295.96H51.0134C51.1094 295.56 51.2454 295.04 51.4214 294.4C51.6134 293.744 51.8134 293.088 52.0214 292.432L54.4454 285.136H56.7254L51.5174 299.776C51.2294 300.576 50.8854 301.272 50.4854 301.864C50.1014 302.472 49.6294 302.936 49.0694 303.256C48.5094 303.592 47.8374 303.76 47.0534 303.76C46.7014 303.76 46.3814 303.736 46.0934 303.688C45.8214 303.656 45.5894 303.616 45.3974 303.568V301.888C45.5574 301.92 45.7574 301.952 45.9974 301.984C46.2374 302.016 46.4854 302.032 46.7414 302.032C47.2054 302.032 47.6054 301.936 47.9414 301.744C48.2774 301.568 48.5654 301.304 48.8054 300.952C49.0454 300.616 49.2454 300.216 49.4054 299.752L50.0054 298.048L45.1334 285.136ZM66.8291 285.136V296.224H68.5811V302.464H66.5891V298H58.1891V302.464H56.1971V296.224H57.1811C57.8691 295.2 58.4371 294.088 58.8851 292.888C59.3331 291.672 59.6691 290.408 59.8931 289.096C60.1331 287.768 60.2611 286.448 60.2771 285.136H66.8291ZM62.1251 286.792C62.0611 287.88 61.9011 289.008 61.6451 290.176C61.4051 291.328 61.0851 292.432 60.6851 293.488C60.3011 294.544 59.8531 295.456 59.3411 296.224H64.7891V286.792H62.1251ZM80.9878 291.544C80.9878 292.616 80.8518 293.568 80.5798 294.4C80.3238 295.216 79.9478 295.912 79.4518 296.488C78.9558 297.064 78.3558 297.504 77.6518 297.808C76.9478 298.096 76.1638 298.24 75.2998 298.24C74.4998 298.24 73.7558 298.096 73.0678 297.808C72.3958 297.504 71.8038 297.064 71.2918 296.488C70.7958 295.912 70.4118 295.216 70.1398 294.4C69.8678 293.568 69.7318 292.616 69.7318 291.544C69.7318 290.12 69.9558 288.92 70.4038 287.944C70.8678 286.952 71.5238 286.2 72.3718 285.688C73.2198 285.16 74.2198 284.896 75.3718 284.896C76.4758 284.896 77.4438 285.16 78.2758 285.688C79.1238 286.2 79.7878 286.952 80.2678 287.944C80.7478 288.92 80.9878 290.12 80.9878 291.544ZM71.8918 291.544C71.8918 292.552 72.0118 293.432 72.2518 294.184C72.4918 294.92 72.8678 295.488 73.3798 295.888C73.8918 296.288 74.5478 296.488 75.3478 296.488C76.1478 296.488 76.8038 296.288 77.3158 295.888C77.8278 295.488 78.2038 294.92 78.4438 294.184C78.6998 293.432 78.8278 292.552 78.8278 291.544C78.8278 290.52 78.6998 289.648 78.4438 288.928C78.2038 288.208 77.8278 287.656 77.3158 287.272C76.8038 286.872 76.1398 286.672 75.3238 286.672C74.1238 286.672 73.2518 287.104 72.7078 287.968C72.1638 288.832 71.8918 290.024 71.8918 291.544ZM82.9673 290.272C82.9673 288.4 83.1433 286.808 83.4953 285.496C83.8633 284.168 84.4233 283.112 85.1753 282.328C85.9433 281.528 86.9273 280.992 88.1273 280.72C89.0873 280.496 90.0313 280.296 90.9593 280.12C91.8873 279.944 92.7593 279.784 93.5753 279.64L93.9353 281.488C93.5353 281.552 93.0953 281.632 92.6153 281.728C92.1353 281.808 91.6473 281.896 91.1513 281.992C90.6713 282.072 90.1993 282.16 89.7353 282.256C89.2873 282.336 88.8873 282.416 88.5353 282.496C88.0393 282.608 87.5913 282.8 87.1913 283.072C86.8073 283.328 86.4713 283.68 86.1833 284.128C85.9113 284.576 85.6873 285.128 85.5113 285.784C85.3513 286.44 85.2553 287.216 85.2233 288.112H85.3673C85.5753 287.808 85.8633 287.496 86.2313 287.176C86.5993 286.856 87.0393 286.584 87.5513 286.36C88.0633 286.136 88.6473 286.024 89.3033 286.024C90.3433 286.024 91.2153 286.272 91.9193 286.768C92.6233 287.248 93.1513 287.92 93.5033 288.784C93.8713 289.648 94.0553 290.656 94.0553 291.808C94.0553 293.232 93.8153 294.424 93.3353 295.384C92.8713 296.344 92.2233 297.064 91.3913 297.544C90.5593 298.008 89.5913 298.24 88.4873 298.24C87.6553 298.24 86.8953 298.072 86.2073 297.736C85.5353 297.384 84.9513 296.872 84.4553 296.2C83.9753 295.528 83.6073 294.696 83.3513 293.704C83.0953 292.712 82.9673 291.568 82.9673 290.272ZM88.6553 296.488C89.2953 296.488 89.8553 296.344 90.3353 296.056C90.8153 295.768 91.1833 295.296 91.4393 294.64C91.7113 293.984 91.8473 293.112 91.8473 292.024C91.8473 290.712 91.6233 289.68 91.1753 288.928C90.7273 288.16 89.9913 287.776 88.9673 287.776C88.3113 287.776 87.7193 287.936 87.1913 288.256C86.6633 288.56 86.2153 288.912 85.8473 289.312C85.4953 289.712 85.2473 290.048 85.1033 290.32C85.1033 291.104 85.1513 291.864 85.2473 292.6C85.3593 293.336 85.5433 294 85.7993 294.592C86.0713 295.168 86.4313 295.632 86.8793 295.984C87.3433 296.32 87.9353 296.488 88.6553 296.488ZM101.534 298.24C100.446 298.24 99.4856 298.008 98.6536 297.544C97.8216 297.08 97.1656 296.36 96.6856 295.384C96.2216 294.408 95.9896 293.16 95.9896 291.64C95.9896 290.056 96.2376 288.768 96.7336 287.776C97.2296 286.784 97.9016 286.056 98.7496 285.592C99.6136 285.128 100.59 284.896 101.678 284.896C102.302 284.896 102.902 284.968 103.478 285.112C104.07 285.24 104.55 285.4 104.918 285.592L104.27 287.344C103.902 287.2 103.47 287.064 102.974 286.936C102.494 286.808 102.046 286.744 101.63 286.744C100.846 286.744 100.198 286.928 99.6856 287.296C99.1736 287.664 98.7896 288.208 98.5336 288.928C98.2776 289.648 98.1496 290.544 98.1496 291.616C98.1496 292.64 98.2776 293.512 98.5336 294.232C98.7896 294.952 99.1656 295.496 99.6616 295.864C100.174 296.232 100.798 296.416 101.534 296.416C102.19 296.416 102.774 296.344 103.286 296.2C103.798 296.056 104.27 295.88 104.702 295.672V297.544C104.286 297.768 103.83 297.936 103.334 298.048C102.838 298.176 102.238 298.24 101.534 298.24ZM115.556 286.912H111.596V298H109.532V286.912H105.62V285.136H115.556V286.912ZM127.251 288.376C127.251 289.176 127.027 289.8 126.579 290.248C126.131 290.696 125.547 291 124.827 291.16V291.256C125.579 291.368 126.235 291.656 126.795 292.12C127.355 292.568 127.635 293.272 127.635 294.232C127.635 294.776 127.539 295.28 127.347 295.744C127.171 296.208 126.883 296.608 126.483 296.944C126.083 297.28 125.571 297.544 124.947 297.736C124.323 297.912 123.571 298 122.691 298H117.435V285.136H122.667C123.547 285.136 124.331 285.24 125.019 285.448C125.707 285.64 126.251 285.976 126.651 286.456C127.051 286.92 127.251 287.56 127.251 288.376ZM125.475 294.232C125.475 293.496 125.211 292.968 124.683 292.648C124.171 292.328 123.419 292.168 122.427 292.168H119.523V296.296H122.475C123.435 296.296 124.171 296.144 124.683 295.84C125.211 295.52 125.475 294.984 125.475 294.232ZM125.139 288.64C125.139 288.032 124.931 287.592 124.515 287.32C124.115 287.032 123.467 286.888 122.571 286.888H119.523V290.416H122.187C123.163 290.416 123.899 290.272 124.395 289.984C124.891 289.696 125.139 289.248 125.139 288.64ZM140.597 291.544C140.597 292.616 140.461 293.568 140.189 294.4C139.933 295.216 139.557 295.912 139.061 296.488C138.565 297.064 137.965 297.504 137.261 297.808C136.557 298.096 135.773 298.24 134.909 298.24C134.109 298.24 133.365 298.096 132.677 297.808C132.005 297.504 131.413 297.064 130.901 296.488C130.405 295.912 130.021 295.216 129.749 294.4C129.477 293.568 129.341 292.616 129.341 291.544C129.341 290.12 129.565 288.92 130.013 287.944C130.477 286.952 131.133 286.2 131.981 285.688C132.829 285.16 133.829 284.896 134.981 284.896C136.085 284.896 137.053 285.16 137.885 285.688C138.733 286.2 139.397 286.952 139.877 287.944C140.357 288.92 140.597 290.12 140.597 291.544ZM131.501 291.544C131.501 292.552 131.621 293.432 131.861 294.184C132.101 294.92 132.477 295.488 132.989 295.888C133.501 296.288 134.157 296.488 134.957 296.488C135.757 296.488 136.413 296.288 136.925 295.888C137.437 295.488 137.813 294.92 138.053 294.184C138.309 293.432 138.437 292.552 138.437 291.544C138.437 290.52 138.309 289.648 138.053 288.928C137.813 288.208 137.437 287.656 136.925 287.272C136.413 286.872 135.749 286.672 134.933 286.672C133.733 286.672 132.861 287.104 132.317 287.968C131.773 288.832 131.501 290.024 131.501 291.544ZM156.377 285.136V298H154.481V289.792C154.481 289.456 154.489 289.104 154.505 288.736C154.537 288.368 154.569 288.008 154.601 287.656H154.529L150.617 298H148.889L145.073 287.656H145.001C145.033 288.008 145.057 288.368 145.073 288.736C145.089 289.104 145.097 289.48 145.097 289.864V298H143.201V285.136H146.009L149.753 295.48L153.569 285.136H156.377ZM175.348 285.136V298H173.26V286.936H167.14V298H165.052V285.136H175.348ZM189.246 291.544C189.246 292.616 189.11 293.568 188.838 294.4C188.582 295.216 188.206 295.912 187.71 296.488C187.214 297.064 186.614 297.504 185.91 297.808C185.206 298.096 184.422 298.24 183.558 298.24C182.758 298.24 182.014 298.096 181.326 297.808C180.654 297.504 180.062 297.064 179.55 296.488C179.054 295.912 178.67 295.216 178.398 294.4C178.126 293.568 177.99 292.616 177.99 291.544C177.99 290.12 178.214 288.92 178.662 287.944C179.126 286.952 179.782 286.2 180.63 285.688C181.478 285.16 182.478 284.896 183.63 284.896C184.734 284.896 185.702 285.16 186.534 285.688C187.382 286.2 188.046 286.952 188.526 287.944C189.006 288.92 189.246 290.12 189.246 291.544ZM180.15 291.544C180.15 292.552 180.27 293.432 180.51 294.184C180.75 294.92 181.126 295.488 181.638 295.888C182.15 296.288 182.806 296.488 183.606 296.488C184.406 296.488 185.062 296.288 185.574 295.888C186.086 295.488 186.462 294.92 186.702 294.184C186.958 293.432 187.086 292.552 187.086 291.544C187.086 290.52 186.958 289.648 186.702 288.928C186.462 288.208 186.086 287.656 185.574 287.272C185.062 286.872 184.398 286.672 183.582 286.672C182.382 286.672 181.51 287.104 180.966 287.968C180.422 288.832 180.15 290.024 180.15 291.544ZM201.665 288.376C201.665 289.176 201.441 289.8 200.993 290.248C200.545 290.696 199.961 291 199.241 291.16V291.256C199.993 291.368 200.649 291.656 201.209 292.12C201.769 292.568 202.049 293.272 202.049 294.232C202.049 294.776 201.953 295.28 201.761 295.744C201.585 296.208 201.297 296.608 200.897 296.944C200.497 297.28 199.985 297.544 199.361 297.736C198.737 297.912 197.985 298 197.105 298H191.849V285.136H197.081C197.961 285.136 198.745 285.24 199.433 285.448C200.121 285.64 200.665 285.976 201.065 286.456C201.465 286.92 201.665 287.56 201.665 288.376ZM199.889 294.232C199.889 293.496 199.625 292.968 199.097 292.648C198.585 292.328 197.833 292.168 196.841 292.168H193.937V296.296H196.889C197.849 296.296 198.585 296.144 199.097 295.84C199.625 295.52 199.889 294.984 199.889 294.232ZM199.553 288.64C199.553 288.032 199.345 287.592 198.929 287.32C198.529 287.032 197.881 286.888 196.985 286.888H193.937V290.416H196.601C197.577 290.416 198.313 290.272 198.809 289.984C199.305 289.696 199.553 289.248 199.553 288.64ZM204.427 298V285.136H206.515V290.416H209.539C210.611 290.416 211.491 290.552 212.179 290.824C212.867 291.096 213.379 291.504 213.715 292.048C214.051 292.576 214.219 293.248 214.219 294.064C214.219 294.864 214.051 295.56 213.715 296.152C213.395 296.744 212.883 297.2 212.179 297.52C211.491 297.84 210.587 298 209.467 298H204.427ZM209.275 296.296C210.123 296.296 210.811 296.144 211.339 295.84C211.867 295.52 212.131 294.968 212.131 294.184C212.131 293.4 211.883 292.872 211.387 292.6C210.907 292.312 210.211 292.168 209.299 292.168H206.515V296.296H209.275ZM216.211 298V285.136H218.299V298H216.211ZM238.159 285.136V298H221.599V285.136H223.687V296.224H228.823V285.136H230.911V296.224H236.047V285.136H238.159ZM246.098 284.92C247.57 284.92 248.666 285.264 249.386 285.952C250.122 286.64 250.49 287.736 250.49 289.24V298H248.978L248.57 296.176H248.474C248.122 296.64 247.762 297.032 247.394 297.352C247.042 297.656 246.626 297.88 246.146 298.024C245.682 298.168 245.106 298.24 244.418 298.24C243.698 298.24 243.05 298.104 242.474 297.832C241.898 297.56 241.442 297.144 241.106 296.584C240.77 296.008 240.602 295.288 240.602 294.424C240.602 293.144 241.074 292.16 242.018 291.472C242.962 290.768 244.418 290.384 246.386 290.32L248.426 290.248V289.48C248.426 288.408 248.21 287.664 247.778 287.248C247.362 286.832 246.762 286.624 245.978 286.624C245.354 286.624 244.754 286.728 244.178 286.936C243.618 287.128 243.082 287.352 242.57 287.608L241.922 286.024C242.466 285.72 243.098 285.464 243.818 285.256C244.538 285.032 245.298 284.92 246.098 284.92ZM246.674 291.784C245.202 291.848 244.178 292.104 243.602 292.552C243.042 293 242.762 293.632 242.762 294.448C242.762 295.168 242.962 295.696 243.362 296.032C243.762 296.368 244.282 296.536 244.922 296.536C245.914 296.536 246.746 296.24 247.418 295.648C248.09 295.04 248.426 294.112 248.426 292.864V291.712L246.674 291.784ZM258.42 284.896C259.46 284.896 260.356 285.136 261.108 285.616C261.86 286.096 262.436 286.776 262.836 287.656C263.252 288.52 263.46 289.536 263.46 290.704V291.976H255.204C255.236 293.432 255.58 294.544 256.236 295.312C256.892 296.064 257.812 296.44 258.996 296.44C259.764 296.44 260.444 296.368 261.036 296.224C261.644 296.064 262.268 295.84 262.908 295.552V297.4C262.284 297.688 261.668 297.896 261.06 298.024C260.468 298.168 259.748 298.24 258.9 298.24C257.748 298.24 256.732 297.992 255.852 297.496C254.972 297 254.284 296.264 253.788 295.288C253.292 294.296 253.044 293.088 253.044 291.664C253.044 290.256 253.268 289.048 253.716 288.04C254.164 287.032 254.788 286.256 255.588 285.712C256.404 285.168 257.348 284.896 258.42 284.896ZM258.42 286.624C257.492 286.624 256.756 286.952 256.212 287.608C255.668 288.248 255.348 289.144 255.252 290.296H261.3C261.3 289.56 261.196 288.92 260.988 288.376C260.78 287.832 260.46 287.408 260.028 287.104C259.612 286.784 259.076 286.624 258.42 286.624ZM274.486 286.912H270.526V298H268.462V286.912H264.55V285.136H274.486V286.912ZM281.026 298.24C279.938 298.24 278.978 298.008 278.146 297.544C277.314 297.08 276.658 296.36 276.178 295.384C275.714 294.408 275.482 293.16 275.482 291.64C275.482 290.056 275.73 288.768 276.226 287.776C276.722 286.784 277.394 286.056 278.242 285.592C279.106 285.128 280.082 284.896 281.17 284.896C281.794 284.896 282.394 284.968 282.97 285.112C283.562 285.24 284.042 285.4 284.41 285.592L283.762 287.344C283.394 287.2 282.962 287.064 282.466 286.936C281.986 286.808 281.538 286.744 281.122 286.744C280.338 286.744 279.69 286.928 279.178 287.296C278.666 287.664 278.282 288.208 278.026 288.928C277.77 289.648 277.642 290.544 277.642 291.616C277.642 292.64 277.77 293.512 278.026 294.232C278.282 294.952 278.658 295.496 279.154 295.864C279.666 296.232 280.29 296.416 281.026 296.416C281.682 296.416 282.266 296.344 282.778 296.2C283.29 296.056 283.762 295.88 284.194 295.672V297.544C283.778 297.768 283.322 297.936 282.826 298.048C282.33 298.176 281.73 298.24 281.026 298.24ZM287.392 298H284.992L288.424 292.6C287.96 292.472 287.512 292.272 287.08 292C286.664 291.712 286.32 291.32 286.048 290.824C285.776 290.312 285.64 289.68 285.64 288.928C285.64 287.696 286.032 286.76 286.816 286.12C287.616 285.464 288.672 285.136 289.984 285.136H295.432V298H293.344V292.888H290.488L287.392 298ZM287.68 288.952C287.68 289.688 287.928 290.24 288.424 290.608C288.936 290.96 289.648 291.136 290.56 291.136H293.344V286.888H290.176C289.28 286.888 288.64 287.08 288.256 287.464C287.872 287.848 287.68 288.344 287.68 288.952ZM308.963 298.24C307.875 298.24 306.915 298.008 306.083 297.544C305.251 297.08 304.595 296.36 304.115 295.384C303.651 294.408 303.419 293.16 303.419 291.64C303.419 290.056 303.667 288.768 304.163 287.776C304.659 286.784 305.331 286.056 306.179 285.592C307.043 285.128 308.019 284.896 309.107 284.896C309.731 284.896 310.331 284.968 310.907 285.112C311.499 285.24 311.979 285.4 312.347 285.592L311.699 287.344C311.331 287.2 310.899 287.064 310.403 286.936C309.923 286.808 309.475 286.744 309.059 286.744C308.275 286.744 307.627 286.928 307.115 287.296C306.603 287.664 306.219 288.208 305.963 288.928C305.707 289.648 305.579 290.544 305.579 291.616C305.579 292.64 305.707 293.512 305.963 294.232C306.219 294.952 306.595 295.496 307.091 295.864C307.603 296.232 308.227 296.416 308.963 296.416C309.619 296.416 310.203 296.344 310.715 296.2C311.227 296.056 311.699 295.88 312.131 295.672V297.544C311.715 297.768 311.259 297.936 310.763 298.048C310.267 298.176 309.667 298.24 308.963 298.24ZM321.714 285.136H323.994L318.858 291.328L324.426 298H322.002L316.578 291.472V298H314.49V285.136H316.578V291.376L321.714 285.136ZM336.199 291.544C336.199 292.616 336.063 293.568 335.791 294.4C335.535 295.216 335.159 295.912 334.663 296.488C334.167 297.064 333.567 297.504 332.863 297.808C332.159 298.096 331.375 298.24 330.511 298.24C329.711 298.24 328.967 298.096 328.279 297.808C327.607 297.504 327.015 297.064 326.503 296.488C326.007 295.912 325.623 295.216 325.351 294.4C325.079 293.568 324.943 292.616 324.943 291.544C324.943 290.12 325.167 288.92 325.615 287.944C326.079 286.952 326.735 286.2 327.583 285.688C328.431 285.16 329.431 284.896 330.583 284.896C331.687 284.896 332.655 285.16 333.487 285.688C334.335 286.2 334.999 286.952 335.479 287.944C335.959 288.92 336.199 290.12 336.199 291.544ZM327.103 291.544C327.103 292.552 327.223 293.432 327.463 294.184C327.703 294.92 328.079 295.488 328.591 295.888C329.103 296.288 329.759 296.488 330.559 296.488C331.359 296.488 332.015 296.288 332.527 295.888C333.039 295.488 333.415 294.92 333.655 294.184C333.911 293.432 334.039 292.552 334.039 291.544C334.039 290.52 333.911 289.648 333.655 288.928C333.415 288.208 333.039 287.656 332.527 287.272C332.015 286.872 331.351 286.672 330.535 286.672C329.335 286.672 328.463 287.104 327.919 287.968C327.375 288.832 327.103 290.024 327.103 291.544ZM344.634 284.896C346.122 284.896 347.314 285.448 348.21 286.552C349.122 287.656 349.578 289.32 349.578 291.544C349.578 293 349.37 294.232 348.954 295.24C348.538 296.232 347.954 296.984 347.202 297.496C346.466 297.992 345.602 298.24 344.61 298.24C343.986 298.24 343.434 298.152 342.954 297.976C342.49 297.8 342.09 297.576 341.754 297.304C341.418 297.016 341.13 296.704 340.89 296.368H340.746C340.778 296.64 340.81 296.984 340.842 297.4C340.874 297.816 340.89 298.176 340.89 298.48V303.76H338.802V285.136H340.506L340.794 286.888H340.89C341.13 286.52 341.418 286.184 341.754 285.88C342.09 285.576 342.49 285.336 342.954 285.16C343.434 284.984 343.994 284.896 344.634 284.896ZM344.226 286.672C343.426 286.672 342.778 286.84 342.282 287.176C341.802 287.496 341.45 287.984 341.226 288.64C341.002 289.296 340.89 290.128 340.89 291.136V291.544C340.89 292.6 340.986 293.496 341.178 294.232C341.386 294.968 341.738 295.528 342.234 295.912C342.73 296.296 343.41 296.488 344.274 296.488C344.994 296.488 345.586 296.272 346.05 295.84C346.514 295.408 346.858 294.824 347.082 294.088C347.306 293.336 347.418 292.48 347.418 291.52C347.418 290.048 347.154 288.872 346.626 287.992C346.114 287.112 345.314 286.672 344.226 286.672ZM362.785 291.544C362.785 292.616 362.649 293.568 362.377 294.4C362.121 295.216 361.745 295.912 361.249 296.488C360.753 297.064 360.153 297.504 359.449 297.808C358.745 298.096 357.961 298.24 357.097 298.24C356.297 298.24 355.553 298.096 354.865 297.808C354.193 297.504 353.601 297.064 353.089 296.488C352.593 295.912 352.209 295.216 351.937 294.4C351.665 293.568 351.529 292.616 351.529 291.544C351.529 290.12 351.753 288.92 352.201 287.944C352.665 286.952 353.321 286.2 354.169 285.688C355.017 285.16 356.017 284.896 357.169 284.896C358.273 284.896 359.241 285.16 360.073 285.688C360.921 286.2 361.585 286.952 362.065 287.944C362.545 288.92 362.785 290.12 362.785 291.544ZM353.689 291.544C353.689 292.552 353.809 293.432 354.049 294.184C354.289 294.92 354.665 295.488 355.177 295.888C355.689 296.288 356.345 296.488 357.145 296.488C357.945 296.488 358.601 296.288 359.113 295.888C359.625 295.488 360.001 294.92 360.241 294.184C360.497 293.432 360.625 292.552 360.625 291.544C360.625 290.52 360.497 289.648 360.241 288.928C360.001 288.208 359.625 287.656 359.113 287.272C358.601 286.872 357.937 286.672 357.121 286.672C355.921 286.672 355.049 287.104 354.505 287.968C353.961 288.832 353.689 290.024 353.689 291.544ZM370.26 298.24C369.172 298.24 368.212 298.008 367.38 297.544C366.548 297.08 365.892 296.36 365.412 295.384C364.948 294.408 364.716 293.16 364.716 291.64C364.716 290.056 364.964 288.768 365.46 287.776C365.956 286.784 366.628 286.056 367.476 285.592C368.34 285.128 369.316 284.896 370.404 284.896C371.028 284.896 371.628 284.968 372.204 285.112C372.796 285.24 373.276 285.4 373.644 285.592L372.996 287.344C372.628 287.2 372.196 287.064 371.7 286.936C371.22 286.808 370.772 286.744 370.356 286.744C369.572 286.744 368.924 286.928 368.412 287.296C367.9 287.664 367.516 288.208 367.26 288.928C367.004 289.648 366.876 290.544 366.876 291.616C366.876 292.64 367.004 293.512 367.26 294.232C367.516 294.952 367.892 295.496 368.388 295.864C368.9 296.232 369.524 296.416 370.26 296.416C370.916 296.416 371.5 296.344 372.012 296.2C372.524 296.056 372.996 295.88 373.428 295.672V297.544C373.012 297.768 372.556 297.936 372.06 298.048C371.564 298.176 370.964 298.24 370.26 298.24ZM384.283 286.912H380.323V298H378.259V286.912H374.347V285.136H384.283V286.912ZM391.754 290.416C392.81 290.416 393.69 290.552 394.394 290.824C395.098 291.096 395.626 291.504 395.978 292.048C396.346 292.576 396.53 293.248 396.53 294.064C396.53 294.864 396.362 295.56 396.026 296.152C395.69 296.744 395.162 297.2 394.442 297.52C393.738 297.84 392.818 298 391.682 298H386.162V285.136H388.25V290.416H391.754ZM394.442 294.184C394.442 293.4 394.186 292.872 393.674 292.6C393.162 292.312 392.45 292.168 391.538 292.168H388.25V296.296H391.586C392.402 296.296 393.082 296.136 393.626 295.816C394.17 295.496 394.442 294.952 394.442 294.184ZM414.267 288.376C414.267 289.176 414.043 289.8 413.595 290.248C413.147 290.696 412.563 291 411.843 291.16V291.256C412.595 291.368 413.251 291.656 413.811 292.12C414.371 292.568 414.651 293.272 414.651 294.232C414.651 294.776 414.555 295.28 414.363 295.744C414.187 296.208 413.899 296.608 413.499 296.944C413.099 297.28 412.587 297.544 411.963 297.736C411.339 297.912 410.587 298 409.707 298H404.451V285.136H409.683C410.563 285.136 411.347 285.24 412.035 285.448C412.723 285.64 413.267 285.976 413.667 286.456C414.067 286.92 414.267 287.56 414.267 288.376ZM412.491 294.232C412.491 293.496 412.227 292.968 411.699 292.648C411.187 292.328 410.435 292.168 409.443 292.168H406.539V296.296H409.491C410.451 296.296 411.187 296.144 411.699 295.84C412.227 295.52 412.491 294.984 412.491 294.232ZM412.155 288.64C412.155 288.032 411.947 287.592 411.531 287.32C411.131 287.032 410.483 286.888 409.587 286.888H406.539V290.416H409.203C410.179 290.416 410.915 290.272 411.411 289.984C411.907 289.696 412.155 289.248 412.155 288.64ZM420.317 284.896C421.229 284.896 422.021 285.032 422.693 285.304C423.381 285.56 423.917 285.944 424.301 286.456C424.685 286.952 424.877 287.56 424.877 288.28C424.877 289.064 424.669 289.688 424.253 290.152C423.853 290.6 423.301 290.928 422.597 291.136V291.232C423.077 291.376 423.517 291.576 423.917 291.832C424.333 292.088 424.661 292.424 424.901 292.84C425.157 293.256 425.285 293.792 425.285 294.448C425.285 295.152 425.101 295.792 424.733 296.368C424.365 296.944 423.789 297.4 423.005 297.736C422.237 298.072 421.253 298.24 420.053 298.24C419.477 298.24 418.925 298.208 418.397 298.144C417.885 298.08 417.413 297.984 416.981 297.856C416.565 297.728 416.197 297.576 415.877 297.4V295.504C416.389 295.76 416.997 295.992 417.701 296.2C418.405 296.408 419.173 296.512 420.005 296.512C420.613 296.512 421.157 296.44 421.637 296.296C422.117 296.152 422.501 295.928 422.789 295.624C423.077 295.304 423.221 294.872 423.221 294.328C423.221 293.832 423.093 293.432 422.837 293.128C422.581 292.808 422.197 292.568 421.685 292.408C421.189 292.248 420.549 292.168 419.765 292.168H418.181V290.44H419.477C420.517 290.44 421.349 290.296 421.973 290.008C422.597 289.704 422.909 289.192 422.909 288.472C422.909 287.864 422.669 287.408 422.189 287.104C421.725 286.8 421.053 286.648 420.173 286.648C419.517 286.648 418.925 286.72 418.397 286.864C417.885 286.992 417.333 287.192 416.741 287.464L415.997 285.784C416.653 285.48 417.341 285.256 418.061 285.112C418.781 284.968 419.533 284.896 420.317 284.896ZM432.317 284.92C433.789 284.92 434.885 285.264 435.605 285.952C436.341 286.64 436.709 287.736 436.709 289.24V298H435.197L434.789 296.176H434.693C434.341 296.64 433.981 297.032 433.613 297.352C433.261 297.656 432.845 297.88 432.365 298.024C431.901 298.168 431.325 298.24 430.637 298.24C429.917 298.24 429.269 298.104 428.693 297.832C428.117 297.56 427.661 297.144 427.325 296.584C426.989 296.008 426.821 295.288 426.821 294.424C426.821 293.144 427.293 292.16 428.237 291.472C429.181 290.768 430.637 290.384 432.605 290.32L434.645 290.248V289.48C434.645 288.408 434.429 287.664 433.997 287.248C433.581 286.832 432.981 286.624 432.197 286.624C431.573 286.624 430.973 286.728 430.397 286.936C429.837 287.128 429.301 287.352 428.789 287.608L428.141 286.024C428.685 285.72 429.317 285.464 430.037 285.256C430.757 285.032 431.517 284.92 432.317 284.92ZM432.893 291.784C431.421 291.848 430.397 292.104 429.821 292.552C429.261 293 428.981 293.632 428.981 294.448C428.981 295.168 429.181 295.696 429.581 296.032C429.981 296.368 430.501 296.536 431.141 296.536C432.133 296.536 432.965 296.24 433.637 295.648C434.309 295.04 434.645 294.112 434.645 292.864V291.712L432.893 291.784ZM441.903 292.984C441.903 293.128 441.895 293.336 441.879 293.608C441.879 293.864 441.871 294.144 441.855 294.448C441.839 294.736 441.823 295.016 441.807 295.288C441.791 295.544 441.775 295.752 441.759 295.912L448.191 285.136H450.735V298H448.791V290.416C448.791 290.16 448.791 289.824 448.791 289.408C448.807 288.992 448.823 288.584 448.839 288.184C448.855 287.768 448.871 287.456 448.887 287.248L442.527 298H439.935V285.136H441.903V292.984ZM467.236 285.136V298H465.34V289.792C465.34 289.456 465.348 289.104 465.364 288.736C465.396 288.368 465.428 288.008 465.46 287.656H465.388L461.476 298H459.748L455.932 287.656H455.86C455.892 288.008 455.916 288.368 455.932 288.736C455.948 289.104 455.956 289.48 455.956 289.864V298H454.06V285.136H456.868L460.612 295.48L464.428 285.136H467.236ZM481.136 291.544C481.136 292.616 481 293.568 480.728 294.4C480.472 295.216 480.096 295.912 479.6 296.488C479.104 297.064 478.504 297.504 477.8 297.808C477.096 298.096 476.312 298.24 475.448 298.24C474.648 298.24 473.904 298.096 473.216 297.808C472.544 297.504 471.952 297.064 471.44 296.488C470.944 295.912 470.56 295.216 470.288 294.4C470.016 293.568 469.88 292.616 469.88 291.544C469.88 290.12 470.104 288.92 470.552 287.944C471.016 286.952 471.672 286.2 472.52 285.688C473.368 285.16 474.368 284.896 475.52 284.896C476.624 284.896 477.592 285.16 478.424 285.688C479.272 286.2 479.936 286.952 480.416 287.944C480.896 288.92 481.136 290.12 481.136 291.544ZM472.04 291.544C472.04 292.552 472.16 293.432 472.4 294.184C472.64 294.92 473.016 295.488 473.528 295.888C474.04 296.288 474.696 296.488 475.496 296.488C476.296 296.488 476.952 296.288 477.464 295.888C477.976 295.488 478.352 294.92 478.592 294.184C478.848 293.432 478.976 292.552 478.976 291.544C478.976 290.52 478.848 289.648 478.592 288.928C478.352 288.208 477.976 287.656 477.464 287.272C476.952 286.872 476.288 286.672 475.472 286.672C474.272 286.672 473.4 287.104 472.856 287.968C472.312 288.832 472.04 290.024 472.04 291.544ZM492.884 285.136V296.224H494.636V302.464H492.644V298H484.244V302.464H482.252V296.224H483.236C483.924 295.2 484.492 294.088 484.94 292.888C485.388 291.672 485.724 290.408 485.948 289.096C486.188 287.768 486.316 286.448 486.332 285.136H492.884ZM488.18 286.792C488.116 287.88 487.956 289.008 487.7 290.176C487.46 291.328 487.14 292.432 486.74 293.488C486.356 294.544 485.908 295.456 485.396 296.224H490.844V286.792H488.18ZM501.163 284.896C502.203 284.896 503.099 285.136 503.851 285.616C504.603 286.096 505.179 286.776 505.579 287.656C505.995 288.52 506.203 289.536 506.203 290.704V291.976H497.947C497.979 293.432 498.323 294.544 498.979 295.312C499.635 296.064 500.555 296.44 501.739 296.44C502.507 296.44 503.187 296.368 503.779 296.224C504.387 296.064 505.011 295.84 505.651 295.552V297.4C505.027 297.688 504.411 297.896 503.803 298.024C503.211 298.168 502.491 298.24 501.643 298.24C500.491 298.24 499.475 297.992 498.595 297.496C497.715 297 497.027 296.264 496.531 295.288C496.035 294.296 495.787 293.088 495.787 291.664C495.787 290.256 496.011 289.048 496.459 288.04C496.907 287.032 497.531 286.256 498.331 285.712C499.147 285.168 500.091 284.896 501.163 284.896ZM501.163 286.624C500.235 286.624 499.499 286.952 498.955 287.608C498.411 288.248 498.091 289.144 497.995 290.296H504.043C504.043 289.56 503.939 288.92 503.731 288.376C503.523 287.832 503.203 287.408 502.771 287.104C502.355 286.784 501.819 286.624 501.163 286.624ZM518.668 279.808C518.604 280.608 518.412 281.28 518.092 281.824C517.788 282.368 517.324 282.776 516.7 283.048C516.092 283.32 515.3 283.456 514.324 283.456C513.316 283.456 512.508 283.32 511.9 283.048C511.308 282.776 510.868 282.376 510.58 281.848C510.308 281.304 510.14 280.624 510.076 279.808H512.02C512.1 280.672 512.316 281.256 512.668 281.56C513.02 281.848 513.58 281.992 514.348 281.992C515.052 281.992 515.604 281.84 516.004 281.536C516.404 281.216 516.636 280.64 516.7 279.808H518.668ZM510.7 292.984C510.7 293.128 510.692 293.336 510.676 293.608C510.676 293.864 510.668 294.144 510.652 294.448C510.636 294.736 510.62 295.016 510.604 295.288C510.588 295.544 510.572 295.752 510.556 295.912L516.988 285.136H519.532V298H517.588V290.416C517.588 290.16 517.588 289.824 517.588 289.408C517.604 288.992 517.62 288.584 517.636 288.184C517.652 287.768 517.668 287.456 517.684 287.248L511.324 298H508.732V285.136H510.7V292.984ZM527.729 298.24C526.641 298.24 525.681 298.008 524.849 297.544C524.017 297.08 523.361 296.36 522.881 295.384C522.417 294.408 522.185 293.16 522.185 291.64C522.185 290.056 522.433 288.768 522.929 287.776C523.425 286.784 524.097 286.056 524.945 285.592C525.809 285.128 526.785 284.896 527.873 284.896C528.497 284.896 529.097 284.968 529.673 285.112C530.265 285.24 530.745 285.4 531.113 285.592L530.465 287.344C530.097 287.2 529.665 287.064 529.169 286.936C528.689 286.808 528.241 286.744 527.825 286.744C527.041 286.744 526.393 286.928 525.881 287.296C525.369 287.664 524.985 288.208 524.729 288.928C524.473 289.648 524.345 290.544 524.345 291.616C524.345 292.64 524.473 293.512 524.729 294.232C524.985 294.952 525.361 295.496 525.857 295.864C526.369 296.232 526.993 296.416 527.729 296.416C528.385 296.416 528.969 296.344 529.481 296.2C529.993 296.056 530.465 295.88 530.897 295.672V297.544C530.481 297.768 530.025 297.936 529.529 298.048C529.033 298.176 528.433 298.24 527.729 298.24ZM541.751 286.912H537.791V298H535.727V286.912H531.815V285.136H541.751V286.912ZM553.446 288.376C553.446 289.176 553.222 289.8 552.774 290.248C552.326 290.696 551.742 291 551.022 291.16V291.256C551.774 291.368 552.43 291.656 552.99 292.12C553.55 292.568 553.83 293.272 553.83 294.232C553.83 294.776 553.734 295.28 553.542 295.744C553.366 296.208 553.078 296.608 552.678 296.944C552.278 297.28 551.766 297.544 551.142 297.736C550.518 297.912 549.766 298 548.886 298H543.63V285.136H548.862C549.742 285.136 550.526 285.24 551.214 285.448C551.902 285.64 552.446 285.976 552.846 286.456C553.246 286.92 553.446 287.56 553.446 288.376ZM551.67 294.232C551.67 293.496 551.406 292.968 550.878 292.648C550.366 292.328 549.614 292.168 548.622 292.168H545.718V296.296H548.67C549.63 296.296 550.366 296.144 550.878 295.84C551.406 295.52 551.67 294.984 551.67 294.232ZM551.334 288.64C551.334 288.032 551.126 287.592 550.71 287.32C550.31 287.032 549.662 286.888 548.766 286.888H545.718V290.416H548.382C549.358 290.416 550.094 290.272 550.59 289.984C551.086 289.696 551.334 289.248 551.334 288.64ZM558.177 292.984C558.177 293.128 558.169 293.336 558.153 293.608C558.153 293.864 558.145 294.144 558.129 294.448C558.113 294.736 558.097 295.016 558.081 295.288C558.065 295.544 558.049 295.752 558.033 295.912L564.465 285.136H567.009V298H565.065V290.416C565.065 290.16 565.065 289.824 565.065 289.408C565.081 288.992 565.097 288.584 565.113 288.184C565.129 287.768 565.145 287.456 565.161 287.248L558.801 298H556.209V285.136H558.177V292.984ZM571.174 298H568.774L572.206 292.6C571.742 292.472 571.294 292.272 570.862 292C570.446 291.712 570.102 291.32 569.83 290.824C569.558 290.312 569.422 289.68 569.422 288.928C569.422 287.696 569.814 286.76 570.598 286.12C571.398 285.464 572.454 285.136 573.766 285.136H579.214V298H577.126V292.888H574.27L571.174 298ZM571.462 288.952C571.462 289.688 571.71 290.24 572.206 290.608C572.718 290.96 573.43 291.136 574.342 291.136H577.126V286.888H573.958C573.062 286.888 572.422 287.08 572.038 287.464C571.654 287.848 571.462 288.344 571.462 288.952ZM585.009 295.48C584.881 296.04 584.705 296.648 584.481 297.304C584.273 297.96 584.041 298.608 583.785 299.248C583.545 299.904 583.305 300.52 583.065 301.096H581.529C581.673 300.488 581.817 299.832 581.961 299.128C582.105 298.44 582.241 297.76 582.369 297.088C582.497 296.4 582.593 295.776 582.657 295.216H584.841L585.009 295.48ZM29.912 322.24C29.224 322.24 28.624 322.176 28.112 322.048C27.6 321.936 27.12 321.768 26.672 321.544V319.72C27.136 319.912 27.632 320.08 28.16 320.224C28.688 320.368 29.288 320.44 29.96 320.44C30.728 320.44 31.384 320.296 31.928 320.008C32.488 319.704 32.928 319.24 33.248 318.616C33.568 317.992 33.752 317.2 33.8 316.24H27.944V314.512H33.776C33.68 313.2 33.336 312.24 32.744 311.632C32.168 311.024 31.328 310.72 30.224 310.72C29.776 310.72 29.296 310.784 28.784 310.912C28.272 311.04 27.808 311.184 27.392 311.344L26.792 309.64C27.224 309.432 27.744 309.256 28.352 309.112C28.96 308.968 29.576 308.896 30.2 308.896C31.336 308.896 32.336 309.12 33.2 309.568C34.064 310.016 34.736 310.728 35.216 311.704C35.712 312.68 35.96 313.968 35.96 315.568C35.96 317.088 35.704 318.344 35.192 319.336C34.68 320.328 33.968 321.064 33.056 321.544C32.144 322.008 31.096 322.24 29.912 322.24ZM45.7997 309.136H48.0797L42.9437 315.328L48.5117 322H46.0877L40.6637 315.472V322H38.5757V309.136H40.6637V315.376L45.7997 309.136ZM60.2847 315.544C60.2847 316.616 60.1487 317.568 59.8767 318.4C59.6207 319.216 59.2447 319.912 58.7487 320.488C58.2527 321.064 57.6527 321.504 56.9487 321.808C56.2447 322.096 55.4607 322.24 54.5967 322.24C53.7967 322.24 53.0527 322.096 52.3647 321.808C51.6927 321.504 51.1007 321.064 50.5887 320.488C50.0927 319.912 49.7087 319.216 49.4367 318.4C49.1647 317.568 49.0287 316.616 49.0287 315.544C49.0287 314.12 49.2527 312.92 49.7007 311.944C50.1647 310.952 50.8207 310.2 51.6687 309.688C52.5167 309.16 53.5167 308.896 54.6687 308.896C55.7727 308.896 56.7407 309.16 57.5727 309.688C58.4207 310.2 59.0847 310.952 59.5647 311.944C60.0447 312.92 60.2847 314.12 60.2847 315.544ZM51.1887 315.544C51.1887 316.552 51.3087 317.432 51.5487 318.184C51.7887 318.92 52.1647 319.488 52.6767 319.888C53.1887 320.288 53.8447 320.488 54.6447 320.488C55.4447 320.488 56.1007 320.288 56.6127 319.888C57.1247 319.488 57.5007 318.92 57.7407 318.184C57.9967 317.432 58.1247 316.552 58.1247 315.544C58.1247 314.52 57.9967 313.648 57.7407 312.928C57.5007 312.208 57.1247 311.656 56.6127 311.272C56.1007 310.872 55.4367 310.672 54.6207 310.672C53.4207 310.672 52.5487 311.104 52.0047 311.968C51.4607 312.832 51.1887 314.024 51.1887 315.544ZM64.9762 309.136V314.488H71.4082V309.136H73.4962V322H71.4082V316.264H64.9762V322H62.8882V309.136H64.9762ZM87.3628 315.544C87.3628 316.616 87.2268 317.568 86.9548 318.4C86.6988 319.216 86.3228 319.912 85.8268 320.488C85.3308 321.064 84.7308 321.504 84.0268 321.808C83.3228 322.096 82.5388 322.24 81.6748 322.24C80.8748 322.24 80.1308 322.096 79.4428 321.808C78.7708 321.504 78.1788 321.064 77.6668 320.488C77.1708 319.912 76.7868 319.216 76.5148 318.4C76.2428 317.568 76.1068 316.616 76.1068 315.544C76.1068 314.12 76.3308 312.92 76.7788 311.944C77.2428 310.952 77.8988 310.2 78.7468 309.688C79.5948 309.16 80.5948 308.896 81.7468 308.896C82.8508 308.896 83.8188 309.16 84.6508 309.688C85.4988 310.2 86.1628 310.952 86.6428 311.944C87.1228 312.92 87.3628 314.12 87.3628 315.544ZM78.2668 315.544C78.2668 316.552 78.3868 317.432 78.6268 318.184C78.8668 318.92 79.2428 319.488 79.7548 319.888C80.2668 320.288 80.9228 320.488 81.7228 320.488C82.5228 320.488 83.1788 320.288 83.6908 319.888C84.2028 319.488 84.5788 318.92 84.8188 318.184C85.0748 317.432 85.2028 316.552 85.2028 315.544C85.2028 314.52 85.0748 313.648 84.8188 312.928C84.5788 312.208 84.2028 311.656 83.6908 311.272C83.1788 310.872 82.5148 310.672 81.6988 310.672C80.4988 310.672 79.6268 311.104 79.0828 311.968C78.5388 312.832 78.2668 314.024 78.2668 315.544ZM103.142 309.136V322H101.246V313.792C101.246 313.456 101.254 313.104 101.27 312.736C101.302 312.368 101.334 312.008 101.366 311.656H101.294L97.3823 322H95.6543L91.8383 311.656H91.7663C91.7983 312.008 91.8223 312.368 91.8383 312.736C91.8543 313.104 91.8623 313.48 91.8623 313.864V322H89.9663V309.136H92.7743L96.5183 319.48L100.334 309.136H103.142ZM107.299 322H104.899L108.331 316.6C107.867 316.472 107.419 316.272 106.987 316C106.571 315.712 106.227 315.32 105.955 314.824C105.683 314.312 105.547 313.68 105.547 312.928C105.547 311.696 105.939 310.76 106.723 310.12C107.523 309.464 108.579 309.136 109.891 309.136H115.339V322H113.251V316.888H110.395L107.299 322ZM107.587 312.952C107.587 313.688 107.835 314.24 108.331 314.608C108.843 314.96 109.555 315.136 110.467 315.136H113.251V310.888H110.083C109.187 310.888 108.547 311.08 108.163 311.464C107.779 311.848 107.587 312.344 107.587 312.952ZM135.174 309.136V320.248H136.926V326.44H134.862V322H118.638V309.136H120.726V320.224H125.862V309.136H127.95V320.224H133.086V309.136H135.174ZM143.348 308.92C144.82 308.92 145.916 309.264 146.636 309.952C147.372 310.64 147.74 311.736 147.74 313.24V322H146.228L145.82 320.176H145.724C145.372 320.64 145.012 321.032 144.644 321.352C144.292 321.656 143.876 321.88 143.396 322.024C142.932 322.168 142.356 322.24 141.668 322.24C140.948 322.24 140.3 322.104 139.724 321.832C139.148 321.56 138.692 321.144 138.356 320.584C138.02 320.008 137.852 319.288 137.852 318.424C137.852 317.144 138.324 316.16 139.268 315.472C140.212 314.768 141.668 314.384 143.636 314.32L145.676 314.248V313.48C145.676 312.408 145.46 311.664 145.028 311.248C144.612 310.832 144.012 310.624 143.228 310.624C142.604 310.624 142.004 310.728 141.428 310.936C140.868 311.128 140.332 311.352 139.82 311.608L139.172 310.024C139.716 309.72 140.348 309.464 141.068 309.256C141.788 309.032 142.548 308.92 143.348 308.92ZM143.924 315.784C142.452 315.848 141.428 316.104 140.852 316.552C140.292 317 140.012 317.632 140.012 318.448C140.012 319.168 140.212 319.696 140.612 320.032C141.012 320.368 141.532 320.536 142.172 320.536C143.164 320.536 143.996 320.24 144.668 319.648C145.34 319.04 145.676 318.112 145.676 316.864V315.712L143.924 315.784ZM151.806 322H149.406L152.838 316.6C152.374 316.472 151.926 316.272 151.494 316C151.078 315.712 150.734 315.32 150.462 314.824C150.19 314.312 150.054 313.68 150.054 312.928C150.054 311.696 150.446 310.76 151.23 310.12C152.03 309.464 153.086 309.136 154.398 309.136H159.846V322H157.758V316.888H154.902L151.806 322ZM152.094 312.952C152.094 313.688 152.342 314.24 152.838 314.608C153.35 314.96 154.062 315.136 154.974 315.136H157.758V310.888H154.59C153.694 310.888 153.054 311.08 152.67 311.464C152.286 311.848 152.094 312.344 152.094 312.952ZM178.321 312.376C178.321 313.176 178.097 313.8 177.649 314.248C177.201 314.696 176.617 315 175.897 315.16V315.256C176.649 315.368 177.305 315.656 177.865 316.12C178.425 316.568 178.705 317.272 178.705 318.232C178.705 318.776 178.609 319.28 178.417 319.744C178.241 320.208 177.953 320.608 177.553 320.944C177.153 321.28 176.641 321.544 176.017 321.736C175.393 321.912 174.641 322 173.761 322H168.505V309.136H173.737C174.617 309.136 175.401 309.24 176.089 309.448C176.777 309.64 177.321 309.976 177.721 310.456C178.121 310.92 178.321 311.56 178.321 312.376ZM176.545 318.232C176.545 317.496 176.281 316.968 175.753 316.648C175.241 316.328 174.489 316.168 173.497 316.168H170.593V320.296H173.545C174.505 320.296 175.241 320.144 175.753 319.84C176.281 319.52 176.545 318.984 176.545 318.232ZM176.209 312.64C176.209 312.032 176.001 311.592 175.585 311.32C175.185 311.032 174.537 310.888 173.641 310.888H170.593V314.416H173.257C174.233 314.416 174.969 314.272 175.465 313.984C175.961 313.696 176.209 313.248 176.209 312.64ZM186.916 308.896C188.404 308.896 189.596 309.448 190.492 310.552C191.404 311.656 191.859 313.32 191.859 315.544C191.859 317 191.652 318.232 191.236 319.24C190.82 320.232 190.236 320.984 189.484 321.496C188.748 321.992 187.884 322.24 186.892 322.24C186.268 322.24 185.716 322.152 185.236 321.976C184.772 321.8 184.372 321.576 184.036 321.304C183.7 321.016 183.412 320.704 183.172 320.368H183.028C183.06 320.64 183.092 320.984 183.124 321.4C183.156 321.816 183.172 322.176 183.172 322.48V327.76H181.084V309.136H182.788L183.076 310.888H183.172C183.412 310.52 183.7 310.184 184.036 309.88C184.372 309.576 184.772 309.336 185.236 309.16C185.716 308.984 186.276 308.896 186.916 308.896ZM186.508 310.672C185.708 310.672 185.06 310.84 184.564 311.176C184.084 311.496 183.732 311.984 183.508 312.64C183.284 313.296 183.172 314.128 183.172 315.136V315.544C183.172 316.6 183.268 317.496 183.46 318.232C183.668 318.968 184.02 319.528 184.516 319.912C185.012 320.296 185.692 320.488 186.556 320.488C187.276 320.488 187.868 320.272 188.332 319.84C188.796 319.408 189.14 318.824 189.364 318.088C189.588 317.336 189.7 316.48 189.7 315.52C189.7 314.048 189.436 312.872 188.908 311.992C188.396 311.112 187.596 310.672 186.508 310.672ZM199.186 308.896C200.226 308.896 201.122 309.136 201.874 309.616C202.626 310.096 203.202 310.776 203.602 311.656C204.018 312.52 204.226 313.536 204.226 314.704V315.976H195.97C196.002 317.432 196.346 318.544 197.002 319.312C197.658 320.064 198.578 320.44 199.762 320.44C200.53 320.44 201.21 320.368 201.802 320.224C202.41 320.064 203.034 319.84 203.674 319.552V321.4C203.05 321.688 202.434 321.896 201.826 322.024C201.234 322.168 200.514 322.24 199.666 322.24C198.514 322.24 197.498 321.992 196.618 321.496C195.738 321 195.05 320.264 194.554 319.288C194.058 318.296 193.81 317.088 193.81 315.664C193.81 314.256 194.034 313.048 194.482 312.04C194.93 311.032 195.554 310.256 196.354 309.712C197.17 309.168 198.114 308.896 199.186 308.896ZM199.186 310.624C198.258 310.624 197.522 310.952 196.978 311.608C196.434 312.248 196.114 313.144 196.018 314.296H202.066C202.066 313.56 201.962 312.92 201.754 312.376C201.546 311.832 201.226 311.408 200.794 311.104C200.378 310.784 199.842 310.624 199.186 310.624ZM219.931 309.136V322H218.035V313.792C218.035 313.456 218.043 313.104 218.059 312.736C218.091 312.368 218.123 312.008 218.155 311.656H218.083L214.171 322H212.443L208.627 311.656H208.555C208.587 312.008 208.611 312.368 208.627 312.736C208.643 313.104 208.651 313.48 208.651 313.864V322H206.755V309.136H209.563L213.307 319.48L217.123 309.136H219.931ZM224.088 322H221.688L225.12 316.6C224.656 316.472 224.208 316.272 223.776 316C223.36 315.712 223.016 315.32 222.744 314.824C222.472 314.312 222.336 313.68 222.336 312.928C222.336 311.696 222.728 310.76 223.512 310.12C224.312 309.464 225.368 309.136 226.68 309.136H232.128V322H230.04V316.888H227.184L224.088 322ZM224.376 312.952C224.376 313.688 224.624 314.24 225.12 314.608C225.632 314.96 226.344 315.136 227.256 315.136H230.04V310.888H226.872C225.976 310.888 225.336 311.08 224.952 311.464C224.568 311.848 224.376 312.344 224.376 312.952ZM251.083 309.136V322H248.995V310.936H242.875V322H240.787V309.136H251.083ZM264.98 315.544C264.98 316.616 264.844 317.568 264.572 318.4C264.316 319.216 263.94 319.912 263.444 320.488C262.948 321.064 262.348 321.504 261.644 321.808C260.94 322.096 260.156 322.24 259.292 322.24C258.492 322.24 257.748 322.096 257.06 321.808C256.388 321.504 255.796 321.064 255.284 320.488C254.788 319.912 254.404 319.216 254.132 318.4C253.86 317.568 253.724 316.616 253.724 315.544C253.724 314.12 253.948 312.92 254.396 311.944C254.86 310.952 255.516 310.2 256.364 309.688C257.212 309.16 258.212 308.896 259.364 308.896C260.468 308.896 261.436 309.16 262.268 309.688C263.116 310.2 263.78 310.952 264.26 311.944C264.74 312.92 264.98 314.12 264.98 315.544ZM255.884 315.544C255.884 316.552 256.004 317.432 256.244 318.184C256.484 318.92 256.86 319.488 257.372 319.888C257.884 320.288 258.54 320.488 259.34 320.488C260.14 320.488 260.796 320.288 261.308 319.888C261.82 319.488 262.196 318.92 262.436 318.184C262.692 317.432 262.82 316.552 262.82 315.544C262.82 314.52 262.692 313.648 262.436 312.928C262.196 312.208 261.82 311.656 261.308 311.272C260.796 310.872 260.132 310.672 259.316 310.672C258.116 310.672 257.244 311.104 256.7 311.968C256.156 312.832 255.884 314.024 255.884 315.544ZM276.944 322H274.832V310.888H271.304C271.16 312.92 270.968 314.656 270.728 316.096C270.504 317.52 270.216 318.68 269.864 319.576C269.528 320.472 269.12 321.128 268.64 321.544C268.16 321.96 267.592 322.168 266.936 322.168C266.728 322.168 266.52 322.152 266.312 322.12C266.12 322.104 265.96 322.064 265.832 322V320.416C265.928 320.448 266.032 320.472 266.144 320.488C266.256 320.504 266.368 320.512 266.479 320.512C266.8 320.512 267.088 320.368 267.344 320.08C267.616 319.792 267.856 319.352 268.064 318.76C268.288 318.168 268.488 317.424 268.664 316.528C268.84 315.616 268.992 314.544 269.12 313.312C269.264 312.08 269.392 310.688 269.504 309.136H276.944V322ZM285.824 314.416C286.88 314.416 287.76 314.552 288.464 314.824C289.168 315.096 289.696 315.504 290.048 316.048C290.416 316.576 290.6 317.248 290.6 318.064C290.6 318.864 290.432 319.56 290.096 320.152C289.76 320.744 289.232 321.2 288.512 321.52C287.808 321.84 286.888 322 285.752 322H280.232V309.136H282.32V314.416H285.824ZM288.512 318.184C288.512 317.4 288.256 316.872 287.744 316.6C287.232 316.312 286.52 316.168 285.608 316.168H282.32V320.296H285.656C286.472 320.296 287.152 320.136 287.696 319.816C288.24 319.496 288.512 318.952 288.512 318.184ZM296.45 308.896C297.362 308.896 298.154 309.032 298.826 309.304C299.514 309.56 300.05 309.944 300.434 310.456C300.818 310.952 301.01 311.56 301.01 312.28C301.01 313.064 300.802 313.688 300.386 314.152C299.986 314.6 299.434 314.928 298.73 315.136V315.232C299.21 315.376 299.65 315.576 300.05 315.832C300.466 316.088 300.794 316.424 301.034 316.84C301.29 317.256 301.418 317.792 301.418 318.448C301.418 319.152 301.234 319.792 300.866 320.368C300.498 320.944 299.922 321.4 299.138 321.736C298.37 322.072 297.386 322.24 296.186 322.24C295.61 322.24 295.058 322.208 294.53 322.144C294.018 322.08 293.546 321.984 293.114 321.856C292.698 321.728 292.33 321.576 292.01 321.4V319.504C292.522 319.76 293.13 319.992 293.834 320.2C294.538 320.408 295.306 320.512 296.138 320.512C296.746 320.512 297.29 320.44 297.77 320.296C298.25 320.152 298.634 319.928 298.922 319.624C299.21 319.304 299.354 318.872 299.354 318.328C299.354 317.832 299.226 317.432 298.97 317.128C298.714 316.808 298.33 316.568 297.818 316.408C297.322 316.248 296.682 316.168 295.898 316.168H294.314V314.44H295.61C296.65 314.44 297.482 314.296 298.106 314.008C298.73 313.704 299.042 313.192 299.042 312.472C299.042 311.864 298.802 311.408 298.322 311.104C297.858 310.8 297.186 310.648 296.306 310.648C295.65 310.648 295.058 310.72 294.53 310.864C294.018 310.992 293.466 311.192 292.874 311.464L292.13 309.784C292.786 309.48 293.474 309.256 294.194 309.112C294.914 308.968 295.666 308.896 296.45 308.896ZM314.402 315.544C314.402 316.616 314.266 317.568 313.994 318.4C313.738 319.216 313.362 319.912 312.866 320.488C312.37 321.064 311.77 321.504 311.066 321.808C310.362 322.096 309.578 322.24 308.714 322.24C307.914 322.24 307.17 322.096 306.482 321.808C305.81 321.504 305.218 321.064 304.706 320.488C304.21 319.912 303.826 319.216 303.554 318.4C303.282 317.568 303.146 316.616 303.146 315.544C303.146 314.12 303.37 312.92 303.818 311.944C304.282 310.952 304.938 310.2 305.786 309.688C306.634 309.16 307.634 308.896 308.786 308.896C309.89 308.896 310.858 309.16 311.69 309.688C312.538 310.2 313.202 310.952 313.682 311.944C314.162 312.92 314.402 314.12 314.402 315.544ZM305.306 315.544C305.306 316.552 305.426 317.432 305.666 318.184C305.906 318.92 306.282 319.488 306.794 319.888C307.306 320.288 307.962 320.488 308.762 320.488C309.562 320.488 310.218 320.288 310.73 319.888C311.242 319.488 311.618 318.92 311.858 318.184C312.114 317.432 312.242 316.552 312.242 315.544C312.242 314.52 312.114 313.648 311.858 312.928C311.618 312.208 311.242 311.656 310.73 311.272C310.218 310.872 309.554 310.672 308.738 310.672C307.538 310.672 306.666 311.104 306.122 311.968C305.578 312.832 305.306 314.024 305.306 315.544ZM326.821 312.376C326.821 313.176 326.597 313.8 326.149 314.248C325.701 314.696 325.117 315 324.397 315.16V315.256C325.149 315.368 325.805 315.656 326.365 316.12C326.925 316.568 327.205 317.272 327.205 318.232C327.205 318.776 327.109 319.28 326.917 319.744C326.741 320.208 326.453 320.608 326.053 320.944C325.653 321.28 325.141 321.544 324.517 321.736C323.893 321.912 323.141 322 322.261 322H317.005V309.136H322.237C323.117 309.136 323.901 309.24 324.589 309.448C325.277 309.64 325.821 309.976 326.221 310.456C326.621 310.92 326.821 311.56 326.821 312.376ZM325.045 318.232C325.045 317.496 324.781 316.968 324.253 316.648C323.741 316.328 322.989 316.168 321.997 316.168H319.093V320.296H322.045C323.005 320.296 323.741 320.144 324.253 319.84C324.781 319.52 325.045 318.984 325.045 318.232ZM324.709 312.64C324.709 312.032 324.501 311.592 324.085 311.32C323.685 311.032 323.037 310.888 322.141 310.888H319.093V314.416H321.757C322.733 314.416 323.469 314.272 323.965 313.984C324.461 313.696 324.709 313.248 324.709 312.64ZM334.216 308.92C335.688 308.92 336.784 309.264 337.504 309.952C338.24 310.64 338.608 311.736 338.608 313.24V322H337.096L336.688 320.176H336.592C336.24 320.64 335.88 321.032 335.512 321.352C335.16 321.656 334.744 321.88 334.264 322.024C333.8 322.168 333.224 322.24 332.536 322.24C331.816 322.24 331.168 322.104 330.592 321.832C330.016 321.56 329.56 321.144 329.224 320.584C328.888 320.008 328.72 319.288 328.72 318.424C328.72 317.144 329.192 316.16 330.136 315.472C331.08 314.768 332.536 314.384 334.504 314.32L336.544 314.248V313.48C336.544 312.408 336.328 311.664 335.896 311.248C335.48 310.832 334.88 310.624 334.096 310.624C333.472 310.624 332.872 310.728 332.296 310.936C331.736 311.128 331.2 311.352 330.688 311.608L330.04 310.024C330.584 309.72 331.215 309.464 331.936 309.256C332.656 309.032 333.416 308.92 334.216 308.92ZM334.792 315.784C333.32 315.848 332.296 316.104 331.72 316.552C331.16 317 330.88 317.632 330.88 318.448C330.88 319.168 331.08 319.696 331.48 320.032C331.88 320.368 332.4 320.536 333.04 320.536C334.032 320.536 334.864 320.24 335.536 319.648C336.208 319.04 336.544 318.112 336.544 316.864V315.712L334.792 315.784ZM350.33 310.912H346.37V322H344.306V310.912H340.394V309.136H350.33V310.912ZM356.702 308.896C357.742 308.896 358.638 309.136 359.39 309.616C360.142 310.096 360.718 310.776 361.118 311.656C361.534 312.52 361.742 313.536 361.742 314.704V315.976H353.486C353.518 317.432 353.862 318.544 354.518 319.312C355.174 320.064 356.094 320.44 357.278 320.44C358.046 320.44 358.726 320.368 359.318 320.224C359.926 320.064 360.55 319.84 361.19 319.552V321.4C360.566 321.688 359.95 321.896 359.342 322.024C358.75 322.168 358.03 322.24 357.182 322.24C356.03 322.24 355.014 321.992 354.134 321.496C353.254 321 352.566 320.264 352.07 319.288C351.574 318.296 351.326 317.088 351.326 315.664C351.326 314.256 351.55 313.048 351.998 312.04C352.446 311.032 353.07 310.256 353.87 309.712C354.686 309.168 355.63 308.896 356.702 308.896ZM356.702 310.624C355.774 310.624 355.038 310.952 354.494 311.608C353.95 312.248 353.63 313.144 353.534 314.296H359.582C359.582 313.56 359.478 312.92 359.27 312.376C359.062 311.832 358.742 311.408 358.31 311.104C357.894 310.784 357.358 310.624 356.702 310.624ZM373.631 322H371.519V310.888H367.991C367.847 312.92 367.655 314.656 367.415 316.096C367.191 317.52 366.903 318.68 366.551 319.576C366.215 320.472 365.807 321.128 365.327 321.544C364.847 321.96 364.279 322.168 363.623 322.168C363.415 322.168 363.207 322.152 362.999 322.12C362.807 322.104 362.647 322.064 362.519 322V320.416C362.615 320.448 362.719 320.472 362.831 320.488C362.943 320.504 363.055 320.512 363.167 320.512C363.487 320.512 363.775 320.368 364.031 320.08C364.303 319.792 364.543 319.352 364.751 318.76C364.975 318.168 365.175 317.424 365.351 316.528C365.527 315.616 365.679 314.544 365.807 313.312C365.951 312.08 366.079 310.688 366.191 309.136H373.631V322ZM381.623 308.896C382.663 308.896 383.559 309.136 384.311 309.616C385.063 310.096 385.639 310.776 386.039 311.656C386.455 312.52 386.663 313.536 386.663 314.704V315.976H378.407C378.439 317.432 378.783 318.544 379.439 319.312C380.095 320.064 381.015 320.44 382.199 320.44C382.967 320.44 383.647 320.368 384.239 320.224C384.847 320.064 385.471 319.84 386.111 319.552V321.4C385.487 321.688 384.871 321.896 384.263 322.024C383.671 322.168 382.951 322.24 382.103 322.24C380.951 322.24 379.935 321.992 379.055 321.496C378.175 321 377.487 320.264 376.991 319.288C376.495 318.296 376.247 317.088 376.247 315.664C376.247 314.256 376.471 313.048 376.919 312.04C377.367 311.032 377.991 310.256 378.791 309.712C379.607 309.168 380.551 308.896 381.623 308.896ZM381.623 310.624C380.695 310.624 379.959 310.952 379.415 311.608C378.871 312.248 378.551 313.144 378.455 314.296H384.503C384.503 313.56 384.399 312.92 384.191 312.376C383.983 311.832 383.663 311.408 383.231 311.104C382.815 310.784 382.279 310.624 381.623 310.624ZM399.129 303.808C399.065 304.608 398.873 305.28 398.553 305.824C398.249 306.368 397.785 306.776 397.161 307.048C396.553 307.32 395.761 307.456 394.785 307.456C393.777 307.456 392.969 307.32 392.361 307.048C391.769 306.776 391.329 306.376 391.041 305.848C390.769 305.304 390.601 304.624 390.537 303.808H392.481C392.561 304.672 392.777 305.256 393.129 305.56C393.481 305.848 394.041 305.992 394.809 305.992C395.513 305.992 396.065 305.84 396.465 305.536C396.865 305.216 397.097 304.64 397.161 303.808H399.129ZM391.161 316.984C391.161 317.128 391.153 317.336 391.137 317.608C391.137 317.864 391.129 318.144 391.113 318.448C391.097 318.736 391.081 319.016 391.065 319.288C391.049 319.544 391.033 319.752 391.017 319.912L397.449 309.136H399.993V322H398.049V314.416C398.049 314.16 398.049 313.824 398.049 313.408C398.065 312.992 398.081 312.584 398.097 312.184C398.113 311.768 398.129 311.456 398.145 311.248L391.785 322H389.193V309.136H391.161V316.984ZM403.03 320.704C403.03 320.112 403.166 319.696 403.438 319.456C403.71 319.216 404.046 319.096 404.446 319.096C404.846 319.096 405.19 319.216 405.478 319.456C405.766 319.696 405.91 320.112 405.91 320.704C405.91 321.28 405.766 321.696 405.478 321.952C405.19 322.208 404.846 322.336 404.446 322.336C404.046 322.336 403.71 322.208 403.438 321.952C403.166 321.696 403.03 321.28 403.03 320.704Z" fill="white"/>
<path d="M1208.37 448.214C1259.98 448.214 1301.81 406.38 1301.81 354.774C1301.81 303.169 1259.98 261.334 1208.37 261.334C1156.77 261.334 1114.93 303.169 1114.93 354.774C1114.93 406.38 1156.77 448.214 1208.37 448.214Z" stroke="white" stroke-width="5.43933" stroke-linecap="round" stroke-linejoin="round"/>
<path d="M1208.37 318.836V354.774L1244.89 397.325" stroke="white" stroke-width="5.43933" stroke-linecap="round" stroke-linejoin="round"/>
<rect x="985.439" y="145.439" width="169.82" height="290.71" rx="15.8307" fill="#1C1C1C" stroke="white" stroke-width="2.87831"/>
<rect x="994.074" y="156.952" width="152.551" height="267.683" rx="15.8307" fill="#1C1C1C" stroke="white" stroke-width="2.87831"/>
<rect x="1061.71" y="149.757" width="14.3916" height="2.87831" rx="1.43916" fill="white"/>
<rect x="1078.98" y="149.757" width="2.87831" height="2.87831" rx="1.43916" fill="white"/>
<path d="M1011.8 243.738V253.628H1010.6V244.8H1005.62V253.628H1004.42V243.738H1011.8ZM1016.39 253.782C1015.72 253.782 1015.13 253.623 1014.63 253.304C1014.13 252.985 1013.73 252.539 1013.45 251.966C1013.17 251.393 1013.03 250.724 1013.03 249.958C1013.03 249.185 1013.17 248.511 1013.45 247.934C1013.73 247.358 1014.13 246.911 1014.63 246.592C1015.13 246.273 1015.72 246.114 1016.39 246.114C1017.06 246.114 1017.65 246.273 1018.15 246.592C1018.65 246.911 1019.05 247.358 1019.33 247.934C1019.61 248.511 1019.75 249.185 1019.75 249.958C1019.75 250.724 1019.61 251.393 1019.33 251.966C1019.05 252.539 1018.65 252.985 1018.15 253.304C1017.65 253.623 1017.06 253.782 1016.39 253.782ZM1016.39 252.758C1016.9 252.758 1017.32 252.628 1017.65 252.367C1017.97 252.106 1018.22 251.764 1018.38 251.339C1018.53 250.914 1018.61 250.453 1018.61 249.958C1018.61 249.462 1018.53 249 1018.38 248.572C1018.22 248.144 1017.97 247.797 1017.65 247.533C1017.32 247.269 1016.9 247.138 1016.39 247.138C1015.88 247.138 1015.46 247.269 1015.14 247.533C1014.81 247.797 1014.56 248.144 1014.41 248.572C1014.25 249 1014.17 249.462 1014.17 249.958C1014.17 250.453 1014.25 250.914 1014.41 251.339C1014.56 251.764 1014.81 252.106 1015.14 252.367C1015.46 252.628 1015.88 252.758 1016.39 252.758ZM1020.02 255.752V252.565H1020.64C1020.79 252.408 1020.92 252.237 1021.03 252.053C1021.14 251.87 1021.23 251.653 1021.31 251.401C1021.4 251.147 1021.47 250.838 1021.53 250.474C1021.58 250.107 1021.64 249.665 1021.68 249.146L1021.93 246.21H1026.65V252.565H1027.78V255.752H1026.65V253.628H1021.16V255.752H1020.02ZM1021.93 252.565H1025.51V247.273H1022.99L1022.8 249.146C1022.72 249.922 1022.62 250.6 1022.5 251.179C1022.38 251.759 1022.19 252.221 1021.93 252.565ZM1028.19 247.273V246.21H1034.22V247.273H1031.79V253.628H1030.65V247.273H1028.19ZM1035.2 253.628V246.21H1038.23C1039.03 246.21 1039.67 246.391 1040.14 246.751C1040.61 247.112 1040.84 247.588 1040.84 248.181C1040.84 248.631 1040.71 248.981 1040.44 249.228C1040.17 249.473 1039.83 249.639 1039.41 249.726C1039.69 249.764 1039.95 249.861 1040.21 250.016C1040.47 250.17 1040.69 250.383 1040.86 250.653C1041.03 250.92 1041.11 251.249 1041.11 251.638C1041.11 252.018 1041.02 252.358 1040.82 252.657C1040.63 252.956 1040.35 253.193 1039.99 253.367C1039.63 253.541 1039.2 253.628 1038.7 253.628H1035.2ZM1036.28 252.585H1038.7C1039.09 252.585 1039.4 252.491 1039.62 252.304C1039.84 252.118 1039.95 251.863 1039.95 251.542C1039.95 251.158 1039.84 250.857 1039.62 250.638C1039.4 250.416 1039.09 250.305 1038.7 250.305H1036.28V252.585ZM1036.28 249.32H1038.23C1038.54 249.32 1038.8 249.278 1039.02 249.195C1039.24 249.108 1039.41 248.985 1039.52 248.828C1039.64 248.667 1039.7 248.477 1039.7 248.258C1039.7 247.946 1039.57 247.701 1039.31 247.524C1039.05 247.344 1038.69 247.253 1038.23 247.253H1036.28V249.32ZM1045.27 253.782C1044.55 253.782 1043.94 253.624 1043.42 253.309C1042.9 252.99 1042.51 252.546 1042.22 251.976C1041.95 251.403 1041.81 250.737 1041.81 249.977C1041.81 249.217 1041.95 248.548 1042.22 247.968C1042.51 247.385 1042.89 246.931 1043.39 246.606C1043.9 246.278 1044.48 246.114 1045.15 246.114C1045.54 246.114 1045.92 246.178 1046.3 246.307C1046.67 246.436 1047.02 246.645 1047.32 246.935C1047.63 247.221 1047.88 247.601 1048.06 248.074C1048.25 248.548 1048.34 249.13 1048.34 249.822V250.305H1042.62V249.32H1047.18C1047.18 248.902 1047.1 248.528 1046.93 248.2C1046.76 247.872 1046.53 247.612 1046.22 247.422C1045.92 247.232 1045.56 247.138 1045.15 247.138C1044.7 247.138 1044.3 247.25 1043.97 247.476C1043.64 247.698 1043.39 247.987 1043.21 248.345C1043.04 248.702 1042.95 249.085 1042.95 249.494V250.151C1042.95 250.711 1043.05 251.186 1043.24 251.575C1043.44 251.962 1043.71 252.256 1044.06 252.459C1044.4 252.659 1044.81 252.758 1045.27 252.758C1045.57 252.758 1045.84 252.717 1046.08 252.633C1046.32 252.546 1046.53 252.417 1046.71 252.247C1046.89 252.073 1047.02 251.857 1047.12 251.599L1048.22 251.909C1048.11 252.282 1047.91 252.61 1047.64 252.894C1047.36 253.174 1047.03 253.393 1046.62 253.55C1046.22 253.705 1045.77 253.782 1045.27 253.782ZM1049.39 256.409V246.21H1050.49V247.389H1050.63C1050.71 247.26 1050.83 247.096 1050.98 246.896C1051.13 246.693 1051.34 246.513 1051.62 246.355C1051.91 246.194 1052.29 246.114 1052.77 246.114C1053.4 246.114 1053.95 246.27 1054.42 246.582C1054.9 246.894 1055.27 247.337 1055.54 247.91C1055.81 248.483 1055.94 249.159 1055.94 249.938C1055.94 250.724 1055.81 251.405 1055.54 251.981C1055.27 252.554 1054.9 252.998 1054.43 253.314C1053.96 253.626 1053.41 253.782 1052.79 253.782C1052.32 253.782 1051.93 253.703 1051.65 253.546C1051.36 253.385 1051.14 253.203 1050.99 253C1050.83 252.794 1050.71 252.623 1050.63 252.488H1050.53V256.409H1049.39ZM1050.51 249.919C1050.51 250.479 1050.59 250.973 1050.76 251.401C1050.92 251.826 1051.16 252.16 1051.48 252.401C1051.79 252.639 1052.18 252.758 1052.64 252.758C1053.11 252.758 1053.51 252.633 1053.83 252.382C1054.15 252.127 1054.39 251.786 1054.55 251.358C1054.72 250.927 1054.8 250.447 1054.8 249.919C1054.8 249.397 1054.72 248.927 1054.56 248.509C1054.4 248.087 1054.16 247.754 1053.84 247.509C1053.52 247.261 1053.12 247.138 1052.64 247.138C1052.17 247.138 1051.78 247.255 1051.47 247.49C1051.15 247.722 1050.91 248.047 1050.75 248.465C1050.59 248.881 1050.51 249.365 1050.51 249.919ZM1056.21 255.752V252.565H1056.82C1056.98 252.408 1057.11 252.237 1057.22 252.053C1057.33 251.87 1057.42 251.653 1057.5 251.401C1057.58 251.147 1057.66 250.838 1057.71 250.474C1057.77 250.107 1057.82 249.665 1057.87 249.146L1058.12 246.21H1062.83V252.565H1063.97V255.752H1062.83V253.628H1057.35V255.752H1056.21ZM1058.12 252.565H1061.69V247.273H1059.18L1058.99 249.146C1058.91 249.922 1058.81 250.6 1058.69 251.179C1058.57 251.759 1058.38 252.221 1058.12 252.565ZM1065.94 251.947L1069.52 246.21H1070.83V253.628H1069.69V247.891L1066.14 253.628H1064.8V246.21H1065.94V251.947ZM1071.23 247.273V246.21H1077.26V247.273H1074.82V253.628H1073.68V247.273H1071.23ZM1079.22 248.895H1081.35C1082.22 248.895 1082.88 249.116 1083.34 249.557C1083.8 249.998 1084.03 250.556 1084.03 251.232C1084.03 251.677 1083.93 252.081 1083.72 252.445C1083.52 252.805 1083.22 253.093 1082.82 253.309C1082.42 253.521 1081.93 253.628 1081.35 253.628H1078.24V246.21H1079.38V252.565H1081.35C1081.8 252.565 1082.17 252.446 1082.46 252.208C1082.75 251.97 1082.89 251.664 1082.89 251.29C1082.89 250.898 1082.75 250.577 1082.46 250.329C1082.17 250.082 1081.8 249.958 1081.35 249.958H1079.22V248.895ZM1088.23 253.628V246.21H1094.07V253.628H1092.93V247.273H1089.37V253.628H1088.23ZM1094.81 253.628V252.565H1095.08C1095.3 252.565 1095.49 252.522 1095.64 252.435C1095.78 252.345 1095.9 252.189 1095.99 251.966C1096.09 251.741 1096.16 251.429 1096.21 251.03C1096.26 250.627 1096.29 250.115 1096.32 249.494L1096.45 246.21H1101.4V253.628H1100.26V247.273H1097.53L1097.42 249.919C1097.39 250.527 1097.34 251.063 1097.25 251.527C1097.17 251.987 1097.05 252.374 1096.88 252.686C1096.72 252.998 1096.5 253.233 1096.23 253.391C1095.95 253.549 1095.61 253.628 1095.2 253.628H1094.81ZM1104.99 253.801C1104.52 253.801 1104.09 253.713 1103.71 253.536C1103.33 253.356 1103.02 253.096 1102.8 252.758C1102.57 252.417 1102.46 252.005 1102.46 251.522C1102.46 251.097 1102.54 250.753 1102.71 250.489C1102.88 250.222 1103.1 250.012 1103.38 249.861C1103.66 249.71 1103.97 249.597 1104.31 249.523C1104.65 249.446 1104.99 249.385 1105.34 249.34C1105.79 249.282 1106.15 249.238 1106.43 249.209C1106.72 249.177 1106.92 249.124 1107.05 249.05C1107.18 248.976 1107.25 248.847 1107.25 248.663V248.625C1107.25 248.148 1107.12 247.778 1106.86 247.514C1106.6 247.25 1106.21 247.118 1105.69 247.118C1105.14 247.118 1104.72 247.237 1104.41 247.476C1104.1 247.714 1103.88 247.968 1103.75 248.239L1102.67 247.852C1102.87 247.401 1103.12 247.051 1103.45 246.799C1103.77 246.545 1104.12 246.368 1104.51 246.268C1104.89 246.165 1105.27 246.114 1105.65 246.114C1105.89 246.114 1106.16 246.143 1106.47 246.201C1106.78 246.255 1107.08 246.37 1107.37 246.544C1107.66 246.717 1107.91 246.98 1108.1 247.331C1108.29 247.682 1108.39 248.152 1108.39 248.741V253.628H1107.25V252.623H1107.19C1107.12 252.784 1106.99 252.956 1106.81 253.14C1106.63 253.323 1106.39 253.48 1106.09 253.608C1105.79 253.737 1105.42 253.801 1104.99 253.801ZM1105.16 252.778C1105.62 252.778 1106 252.689 1106.3 252.512C1106.62 252.335 1106.85 252.106 1107.01 251.826C1107.17 251.546 1107.25 251.252 1107.25 250.943V249.9C1107.2 249.958 1107.1 250.011 1106.93 250.059C1106.77 250.104 1106.58 250.144 1106.37 250.18C1106.16 250.212 1105.96 250.241 1105.76 250.267C1105.56 250.289 1105.4 250.309 1105.28 250.325C1104.98 250.363 1104.71 250.426 1104.45 250.513C1104.2 250.597 1103.99 250.724 1103.83 250.894C1103.68 251.062 1103.6 251.29 1103.6 251.58C1103.6 251.976 1103.75 252.276 1104.04 252.478C1104.34 252.678 1104.71 252.778 1105.16 252.778ZM1108.78 247.273V246.21H1114.81V247.273H1112.37V253.628H1111.23V247.273H1108.78ZM1118.51 253.782C1117.8 253.782 1117.18 253.624 1116.67 253.309C1116.15 252.99 1115.75 252.546 1115.47 251.976C1115.2 251.403 1115.06 250.737 1115.06 249.977C1115.06 249.217 1115.2 248.548 1115.47 247.968C1115.75 247.385 1116.14 246.931 1116.64 246.606C1117.14 246.278 1117.73 246.114 1118.4 246.114C1118.79 246.114 1119.17 246.178 1119.54 246.307C1119.92 246.436 1120.26 246.645 1120.57 246.935C1120.88 247.221 1121.13 247.601 1121.31 248.074C1121.49 248.548 1121.59 249.13 1121.59 249.822V250.305H1115.87V249.32H1120.43C1120.43 248.902 1120.34 248.528 1120.18 248.2C1120.01 247.872 1119.78 247.612 1119.47 247.422C1119.17 247.232 1118.81 247.138 1118.4 247.138C1117.95 247.138 1117.55 247.25 1117.22 247.476C1116.89 247.698 1116.64 247.987 1116.46 248.345C1116.29 248.702 1116.2 249.085 1116.2 249.494V250.151C1116.2 250.711 1116.29 251.186 1116.49 251.575C1116.68 251.962 1116.96 252.256 1117.3 252.459C1117.65 252.659 1118.05 252.758 1118.51 252.758C1118.81 252.758 1119.08 252.717 1119.33 252.633C1119.57 252.546 1119.78 252.417 1119.96 252.247C1120.14 252.073 1120.27 251.857 1120.37 251.599L1121.47 251.909C1121.35 252.282 1121.16 252.61 1120.89 252.894C1120.61 253.174 1120.27 253.393 1119.87 253.55C1119.47 253.705 1119.02 253.782 1118.51 253.782ZM1121.98 253.628L1124.99 249.861L1122.02 246.21H1123.37L1125.84 249.378H1126.46V246.21H1127.6V249.378H1128.2L1130.67 246.21H1132.02L1129.07 249.861L1132.06 253.628H1130.69L1128.18 250.441H1127.6V253.628H1126.46V250.441H1125.88L1123.35 253.628H1121.98ZM1134.5 250.846V250.788C1134.5 250.173 1134.57 249.684 1134.69 249.32C1134.81 248.956 1134.99 248.662 1135.21 248.436C1135.44 248.211 1135.71 248.003 1136.02 247.814C1136.21 247.698 1136.38 247.561 1136.53 247.403C1136.68 247.242 1136.8 247.057 1136.89 246.848C1136.98 246.639 1137.03 246.407 1137.03 246.152C1137.03 245.837 1136.95 245.563 1136.8 245.331C1136.66 245.1 1136.46 244.921 1136.21 244.795C1135.96 244.67 1135.69 244.607 1135.38 244.607C1135.12 244.607 1134.87 244.662 1134.62 244.771C1134.38 244.881 1134.17 245.053 1134.01 245.288C1133.84 245.523 1133.75 245.83 1133.72 246.21H1132.51C1132.53 245.663 1132.67 245.195 1132.93 244.805C1133.19 244.416 1133.53 244.118 1133.96 243.912C1134.39 243.706 1134.86 243.603 1135.38 243.603C1135.95 243.603 1136.44 243.715 1136.86 243.941C1137.28 244.166 1137.61 244.475 1137.84 244.868C1138.07 245.261 1138.19 245.708 1138.19 246.21C1138.19 246.564 1138.13 246.885 1138.02 247.171C1137.91 247.458 1137.76 247.714 1137.56 247.939C1137.36 248.164 1137.12 248.364 1136.83 248.538C1136.55 248.715 1136.32 248.902 1136.15 249.098C1135.98 249.291 1135.86 249.521 1135.78 249.789C1135.7 250.056 1135.66 250.389 1135.65 250.788V250.846H1134.5ZM1135.11 253.705C1134.88 253.705 1134.67 253.62 1134.5 253.449C1134.33 253.278 1134.24 253.074 1134.24 252.836C1134.24 252.597 1134.33 252.393 1134.5 252.222C1134.67 252.052 1134.88 251.966 1135.11 251.966C1135.35 251.966 1135.56 252.052 1135.73 252.222C1135.9 252.393 1135.98 252.597 1135.98 252.836C1135.98 252.993 1135.94 253.138 1135.86 253.27C1135.79 253.402 1135.68 253.509 1135.55 253.589C1135.42 253.666 1135.27 253.705 1135.11 253.705Z" fill="white"/>
<rect x="1017.32" y="287.462" width="107.427" height="13.5983" stroke="white" stroke-width="1.35983"/>
<path d="M1053.09 291.928V297.862H1052.37V292.566H1049.38V297.862H1048.66V291.928H1053.09ZM1055.57 297.955C1055.17 297.955 1054.82 297.859 1054.52 297.668C1054.22 297.477 1053.98 297.209 1053.81 296.865C1053.64 296.521 1053.56 296.12 1053.56 295.66C1053.56 295.196 1053.64 294.792 1053.81 294.446C1053.98 294.1 1054.22 293.832 1054.52 293.64C1054.82 293.449 1055.17 293.354 1055.57 293.354C1055.98 293.354 1056.33 293.449 1056.63 293.64C1056.93 293.832 1057.17 294.1 1057.34 294.446C1057.51 294.792 1057.59 295.196 1057.59 295.66C1057.59 296.12 1057.51 296.521 1057.34 296.865C1057.17 297.209 1056.93 297.477 1056.63 297.668C1056.33 297.859 1055.98 297.955 1055.57 297.955ZM1055.57 297.34C1055.88 297.34 1056.13 297.262 1056.33 297.106C1056.52 296.949 1056.67 296.744 1056.76 296.489C1056.86 296.234 1056.91 295.957 1056.91 295.66C1056.91 295.362 1056.86 295.085 1056.76 294.828C1056.67 294.571 1056.52 294.364 1056.33 294.205C1056.13 294.047 1055.88 293.968 1055.57 293.968C1055.27 293.968 1055.02 294.047 1054.82 294.205C1054.62 294.364 1054.48 294.571 1054.38 294.828C1054.29 295.085 1054.24 295.362 1054.24 295.66C1054.24 295.957 1054.29 296.234 1054.38 296.489C1054.48 296.744 1054.62 296.949 1054.82 297.106C1055.02 297.262 1055.27 297.34 1055.57 297.34ZM1057.48 299.137V297.225H1057.85C1057.94 297.13 1058.02 297.027 1058.08 296.917C1058.15 296.807 1058.21 296.677 1058.26 296.526C1058.31 296.374 1058.35 296.188 1058.38 295.97C1058.42 295.75 1058.45 295.484 1058.48 295.173L1058.63 293.412H1061.45V297.225H1062.14V299.137H1061.45V297.862H1058.16V299.137H1057.48ZM1058.63 297.225H1060.77V294.049H1059.26L1059.15 295.173C1059.1 295.639 1059.04 296.045 1058.97 296.393C1058.9 296.741 1058.78 297.018 1058.63 297.225ZM1062.11 294.049V293.412H1065.73V294.049H1064.27V297.862H1063.58V294.049H1062.11ZM1066.04 297.862V293.412H1067.86C1068.34 293.412 1068.72 293.52 1069.01 293.736C1069.29 293.952 1069.43 294.238 1069.43 294.594C1069.43 294.864 1069.35 295.074 1069.19 295.222C1069.03 295.369 1068.82 295.469 1068.57 295.521C1068.74 295.544 1068.89 295.602 1069.05 295.695C1069.21 295.787 1069.33 295.915 1069.44 296.077C1069.54 296.237 1069.59 296.434 1069.59 296.668C1069.59 296.896 1069.53 297.1 1069.42 297.28C1069.3 297.459 1069.14 297.601 1068.92 297.705C1068.7 297.81 1068.44 297.862 1068.14 297.862H1066.04ZM1066.69 297.236H1068.14C1068.38 297.236 1068.56 297.18 1068.7 297.068C1068.83 296.956 1068.9 296.803 1068.9 296.61C1068.9 296.38 1068.83 296.2 1068.7 296.068C1068.56 295.935 1068.38 295.869 1068.14 295.869H1066.69V297.236ZM1066.69 295.277H1067.86C1068.05 295.277 1068.2 295.252 1068.34 295.202C1068.47 295.15 1068.57 295.077 1068.64 294.982C1068.71 294.885 1068.74 294.771 1068.74 294.64C1068.74 294.453 1068.67 294.306 1068.51 294.2C1068.35 294.091 1068.14 294.037 1067.86 294.037H1066.69V295.277ZM1071.81 297.955C1071.38 297.955 1071.01 297.86 1070.7 297.671C1070.39 297.479 1070.15 297.213 1069.99 296.871C1069.82 296.527 1069.74 296.127 1069.74 295.672C1069.74 295.216 1069.82 294.814 1069.99 294.466C1070.15 294.117 1070.39 293.844 1070.69 293.649C1070.99 293.452 1071.34 293.354 1071.74 293.354C1071.97 293.354 1072.2 293.392 1072.43 293.47C1072.66 293.547 1072.86 293.672 1073.05 293.846C1073.23 294.018 1073.38 294.246 1073.49 294.53C1073.6 294.814 1073.65 295.164 1073.65 295.579V295.869H1070.22V295.277H1072.96C1072.96 295.026 1072.91 294.802 1072.81 294.605C1072.71 294.408 1072.57 294.253 1072.39 294.139C1072.2 294.025 1071.99 293.968 1071.74 293.968C1071.47 293.968 1071.23 294.035 1071.04 294.171C1070.84 294.304 1070.69 294.478 1070.58 294.692C1070.47 294.907 1070.42 295.136 1070.42 295.382V295.776C1070.42 296.112 1070.48 296.397 1070.6 296.631C1070.71 296.862 1070.88 297.039 1071.08 297.161C1071.29 297.281 1071.54 297.34 1071.81 297.34C1071.99 297.34 1072.15 297.315 1072.3 297.265C1072.45 297.213 1072.57 297.136 1072.68 297.033C1072.78 296.929 1072.87 296.8 1072.92 296.645L1073.59 296.83C1073.52 297.055 1073.4 297.252 1073.23 297.422C1073.07 297.59 1072.87 297.721 1072.63 297.816C1072.38 297.908 1072.11 297.955 1071.81 297.955ZM1074.01 299.531V293.412H1074.68V294.119H1074.76C1074.81 294.041 1074.88 293.943 1074.97 293.823C1075.06 293.701 1075.19 293.593 1075.35 293.498C1075.52 293.402 1075.75 293.354 1076.04 293.354C1076.42 293.354 1076.75 293.447 1077.03 293.635C1077.32 293.822 1077.54 294.088 1077.7 294.431C1077.86 294.775 1077.94 295.181 1077.94 295.648C1077.94 296.12 1077.86 296.528 1077.7 296.874C1077.54 297.218 1077.32 297.484 1077.04 297.674C1076.75 297.861 1076.43 297.955 1076.05 297.955C1075.77 297.955 1075.54 297.907 1075.37 297.813C1075.2 297.716 1075.06 297.607 1074.97 297.485C1074.88 297.362 1074.81 297.259 1074.76 297.178H1074.7V299.531H1074.01ZM1074.69 295.637C1074.69 295.973 1074.74 296.269 1074.83 296.526C1074.93 296.781 1075.08 296.981 1075.27 297.126C1075.46 297.269 1075.69 297.34 1075.96 297.34C1076.25 297.34 1076.49 297.265 1076.68 297.114C1076.87 296.962 1077.02 296.757 1077.11 296.5C1077.21 296.241 1077.26 295.954 1077.26 295.637C1077.26 295.324 1077.21 295.042 1077.12 294.791C1077.02 294.538 1076.88 294.338 1076.68 294.191C1076.49 294.042 1076.25 293.968 1075.96 293.968C1075.68 293.968 1075.45 294.038 1075.26 294.179C1075.07 294.318 1074.93 294.514 1074.83 294.765C1074.74 295.014 1074.69 295.305 1074.69 295.637ZM1077.83 299.137V297.225H1078.2C1078.29 297.13 1078.37 297.027 1078.44 296.917C1078.5 296.807 1078.56 296.677 1078.61 296.526C1078.66 296.374 1078.7 296.188 1078.74 295.97C1078.77 295.75 1078.8 295.484 1078.83 295.173L1078.98 293.412H1081.81V297.225H1082.49V299.137H1081.81V297.862H1078.52V299.137H1077.83ZM1078.98 297.225H1081.12V294.049H1079.62L1079.5 295.173C1079.45 295.639 1079.39 296.045 1079.32 296.393C1079.25 296.741 1079.14 297.018 1078.98 297.225ZM1083.4 296.854L1085.55 293.412H1086.33V297.862H1085.65V294.42L1083.52 297.862H1082.72V293.412H1083.4V296.854ZM1086.3 294.049V293.412H1089.92V294.049H1088.46V297.862H1087.77V294.049H1086.3ZM1090.83 295.023H1092.1C1092.62 295.023 1093.02 295.155 1093.3 295.419C1093.57 295.684 1093.71 296.019 1093.71 296.425C1093.71 296.691 1093.65 296.934 1093.53 297.152C1093.4 297.368 1093.22 297.541 1092.98 297.671C1092.74 297.798 1092.45 297.862 1092.1 297.862H1090.23V293.412H1090.92V297.225H1092.1C1092.37 297.225 1092.59 297.153 1092.77 297.01C1092.94 296.867 1093.03 296.684 1093.03 296.46C1093.03 296.224 1092.94 296.032 1092.77 295.883C1092.59 295.734 1092.37 295.66 1092.1 295.66H1090.83V295.023Z" fill="white"/>
<rect x="1017.32" y="307.86" width="107.427" height="13.5983" stroke="white" stroke-width="1.35983"/>
<path d="M1058.08 315.293C1058.08 315.918 1057.97 316.459 1057.75 316.915C1057.52 317.371 1057.21 317.722 1056.82 317.97C1056.42 318.217 1055.97 318.341 1055.47 318.341C1054.96 318.341 1054.51 318.217 1054.12 317.97C1053.72 317.722 1053.41 317.371 1053.19 316.915C1052.96 316.459 1052.85 315.918 1052.85 315.293C1052.85 314.667 1052.96 314.126 1053.19 313.67C1053.41 313.214 1053.72 312.863 1054.12 312.615C1054.51 312.368 1054.96 312.244 1055.47 312.244C1055.97 312.244 1056.42 312.368 1056.82 312.615C1057.21 312.863 1057.52 313.214 1057.75 313.67C1057.97 314.126 1058.08 314.667 1058.08 315.293ZM1057.39 315.293C1057.39 314.779 1057.3 314.345 1057.13 313.992C1056.96 313.638 1056.73 313.371 1056.44 313.189C1056.15 313.007 1055.82 312.917 1055.47 312.917C1055.11 312.917 1054.78 313.007 1054.49 313.189C1054.2 313.371 1053.97 313.638 1053.8 313.992C1053.63 314.345 1053.54 314.779 1053.54 315.293C1053.54 315.806 1053.63 316.24 1053.8 316.593C1053.97 316.947 1054.2 317.214 1054.49 317.396C1054.78 317.578 1055.11 317.668 1055.47 317.668C1055.82 317.668 1056.15 317.578 1056.44 317.396C1056.73 317.214 1056.96 316.947 1057.13 316.593C1057.3 316.24 1057.39 315.806 1057.39 315.293ZM1058.27 314.446V313.809H1061.88V314.446H1060.42V318.259H1059.74V314.446H1058.27ZM1062.2 318.259V313.809H1062.88V315.744H1063.33L1064.93 313.809H1065.81L1064.02 315.953L1065.84 318.259H1064.96L1063.5 316.382H1062.88V318.259H1062.2ZM1065.51 318.259V317.622H1065.67C1065.8 317.622 1065.91 317.596 1066 317.544C1066.09 317.49 1066.16 317.396 1066.22 317.263C1066.27 317.128 1066.32 316.94 1066.34 316.701C1066.38 316.459 1066.4 316.152 1066.41 315.779L1066.49 313.809H1069.46V318.259H1068.78V314.446H1067.14L1067.07 316.034C1067.06 316.399 1067.02 316.721 1066.97 316.999C1066.92 317.275 1066.85 317.507 1066.75 317.694C1066.65 317.882 1066.52 318.023 1066.36 318.117C1066.19 318.212 1065.99 318.259 1065.74 318.259H1065.51ZM1071.84 318.352C1071.44 318.352 1071.09 318.257 1070.78 318.065C1070.48 317.874 1070.25 317.607 1070.08 317.263C1069.91 316.919 1069.83 316.517 1069.83 316.057C1069.83 315.594 1069.91 315.189 1070.08 314.843C1070.25 314.498 1070.48 314.229 1070.78 314.038C1071.09 313.847 1071.44 313.751 1071.84 313.751C1072.24 313.751 1072.59 313.847 1072.9 314.038C1073.2 314.229 1073.44 314.498 1073.6 314.843C1073.77 315.189 1073.86 315.594 1073.86 316.057C1073.86 316.517 1073.77 316.919 1073.6 317.263C1073.44 317.607 1073.2 317.874 1072.9 318.065C1072.59 318.257 1072.24 318.352 1071.84 318.352ZM1071.84 317.738C1072.15 317.738 1072.4 317.66 1072.59 317.503C1072.79 317.347 1072.94 317.141 1073.03 316.886C1073.13 316.631 1073.17 316.355 1073.17 316.057C1073.17 315.76 1073.13 315.483 1073.03 315.226C1072.94 314.969 1072.79 314.761 1072.59 314.603C1072.4 314.445 1072.15 314.365 1071.84 314.365C1071.54 314.365 1071.29 314.445 1071.09 314.603C1070.89 314.761 1070.75 314.969 1070.65 315.226C1070.56 315.483 1070.51 315.76 1070.51 316.057C1070.51 316.355 1070.56 316.631 1070.65 316.886C1070.75 317.141 1070.89 317.347 1071.09 317.503C1071.29 317.66 1071.54 317.738 1071.84 317.738ZM1077.2 315.721V316.359H1074.74V315.721H1077.2ZM1074.91 313.809V318.259H1074.22V313.809H1074.91ZM1077.72 313.809V318.259H1077.04V313.809H1077.72ZM1078.97 317.251L1081.12 313.809H1081.91V318.259H1081.22V314.817L1079.09 318.259H1078.29V313.809H1078.97V317.251ZM1081.87 314.446V313.809H1085.49V314.446H1084.03V318.259H1083.35V314.446H1081.87ZM1086.4 315.42H1087.67C1088.19 315.42 1088.59 315.552 1088.87 315.817C1089.15 316.082 1089.28 316.417 1089.28 316.822C1089.28 317.089 1089.22 317.331 1089.1 317.55C1088.98 317.766 1088.79 317.939 1088.55 318.068C1088.31 318.196 1088.02 318.259 1087.67 318.259H1085.81V313.809H1086.49V317.622H1087.67C1087.94 317.622 1088.17 317.551 1088.34 317.408C1088.51 317.265 1088.6 317.081 1088.6 316.857C1088.6 316.621 1088.51 316.429 1088.34 316.281C1088.17 316.132 1087.94 316.057 1087.67 316.057H1086.4V315.42Z" fill="white"/>
</svg>
