<svg width="540" height="600" viewBox="0 0 540 600" fill="none" xmlns="http://www.w3.org/2000/svg">
<rect width="540" height="600" fill="#1C1C1C"/>
<path d="M46.4793 474.1C45.7727 474.1 45.1393 474.233 44.5793 474.5C44.0193 474.753 43.5393 475.133 43.1393 475.64C42.7527 476.133 42.4527 476.74 42.2393 477.46C42.0393 478.167 41.9393 478.967 41.9393 479.86C41.9393 481.033 42.106 482.053 42.4393 482.92C42.7727 483.787 43.2727 484.453 43.9393 484.92C44.6193 485.387 45.4593 485.62 46.4593 485.62C47.046 485.62 47.5993 485.567 48.1193 485.46C48.6527 485.353 49.1793 485.22 49.6993 485.06V486.62C49.1927 486.82 48.6727 486.967 48.1393 487.06C47.606 487.153 46.966 487.2 46.2193 487.2C44.846 487.2 43.6993 486.9 42.7793 486.3C41.8727 485.7 41.1927 484.847 40.7393 483.74C40.286 482.633 40.0593 481.333 40.0593 479.84C40.0593 478.76 40.1993 477.773 40.4793 476.88C40.7593 475.987 41.1727 475.213 41.7193 474.56C42.266 473.907 42.9393 473.407 43.7393 473.06C44.5393 472.7 45.4593 472.52 46.4993 472.52C47.1793 472.52 47.8393 472.593 48.4793 472.74C49.1193 472.887 49.6993 473.093 50.2193 473.36L49.5193 474.88C49.106 474.68 48.6393 474.5 48.1193 474.34C47.6127 474.18 47.066 474.1 46.4793 474.1ZM54.6971 476.28H56.5771L58.7171 482.38C58.8505 482.74 58.9705 483.087 59.0771 483.42C59.1838 483.753 59.2771 484.08 59.3571 484.4C59.4371 484.707 59.4971 485.007 59.5371 485.3H59.5971C59.6771 484.967 59.7905 484.533 59.9371 484C60.0971 483.453 60.2638 482.907 60.4371 482.36L62.4571 476.28H64.3571L60.0171 488.48C59.7771 489.147 59.4905 489.727 59.1571 490.22C58.8371 490.727 58.4438 491.113 57.9771 491.38C57.5105 491.66 56.9505 491.8 56.2971 491.8C56.0038 491.8 55.7371 491.78 55.4971 491.74C55.2705 491.713 55.0771 491.68 54.9171 491.64V490.24C55.0505 490.267 55.2171 490.293 55.4171 490.32C55.6171 490.347 55.8238 490.36 56.0371 490.36C56.4238 490.36 56.7571 490.28 57.0371 490.12C57.3171 489.973 57.5571 489.753 57.7571 489.46C57.9571 489.18 58.1238 488.847 58.2571 488.46L58.7571 487.04L54.6971 476.28ZM72.6935 476.28V485.52H74.1535V490.72H72.4935V487H65.4935V490.72H63.8335V485.52H64.6535C65.2269 484.667 65.7002 483.74 66.0735 482.74C66.4469 481.727 66.7269 480.673 66.9135 479.58C67.1135 478.473 67.2202 477.373 67.2335 476.28H72.6935ZM68.7735 477.66C68.7202 478.567 68.5869 479.507 68.3735 480.48C68.1735 481.44 67.9069 482.36 67.5735 483.24C67.2535 484.12 66.8802 484.88 66.4535 485.52H70.9935V477.66H68.7735ZM84.4092 481.62C84.4092 482.513 84.2958 483.307 84.0692 484C83.8558 484.68 83.5425 485.26 83.1292 485.74C82.7158 486.22 82.2158 486.587 81.6292 486.84C81.0425 487.08 80.3892 487.2 79.6692 487.2C79.0025 487.2 78.3825 487.08 77.8092 486.84C77.2492 486.587 76.7558 486.22 76.3292 485.74C75.9158 485.26 75.5958 484.68 75.3692 484C75.1425 483.307 75.0292 482.513 75.0292 481.62C75.0292 480.433 75.2158 479.433 75.5892 478.62C75.9758 477.793 76.5225 477.167 77.2292 476.74C77.9358 476.3 78.7692 476.08 79.7292 476.08C80.6492 476.08 81.4558 476.3 82.1492 476.74C82.8558 477.167 83.4092 477.793 83.8092 478.62C84.2092 479.433 84.4092 480.433 84.4092 481.62ZM76.8292 481.62C76.8292 482.46 76.9292 483.193 77.1292 483.82C77.3292 484.433 77.6425 484.907 78.0692 485.24C78.4958 485.573 79.0425 485.74 79.7092 485.74C80.3758 485.74 80.9225 485.573 81.3492 485.24C81.7758 484.907 82.0892 484.433 82.2892 483.82C82.5025 483.193 82.6092 482.46 82.6092 481.62C82.6092 480.767 82.5025 480.04 82.2892 479.44C82.0892 478.84 81.7758 478.38 81.3492 478.06C80.9225 477.727 80.3692 477.56 79.6892 477.56C78.6892 477.56 77.9625 477.92 77.5092 478.64C77.0558 479.36 76.8292 480.353 76.8292 481.62ZM85.9754 480.56C85.9754 479 86.1221 477.673 86.4154 476.58C86.7221 475.473 87.1888 474.593 87.8154 473.94C88.4554 473.273 89.2754 472.827 90.2754 472.6C91.0754 472.413 91.8621 472.247 92.6354 472.1C93.4088 471.953 94.1354 471.82 94.8154 471.7L95.1154 473.24C94.7821 473.293 94.4154 473.36 94.0154 473.44C93.6154 473.507 93.2088 473.58 92.7954 473.66C92.3954 473.727 92.0021 473.8 91.6154 473.88C91.2421 473.947 90.9088 474.013 90.6154 474.08C90.2021 474.173 89.8288 474.333 89.4954 474.56C89.1754 474.773 88.8954 475.067 88.6554 475.44C88.4288 475.813 88.2421 476.273 88.0954 476.82C87.9621 477.367 87.8821 478.013 87.8554 478.76H87.9754C88.1488 478.507 88.3888 478.247 88.6954 477.98C89.0021 477.713 89.3688 477.487 89.7954 477.3C90.2221 477.113 90.7088 477.02 91.2554 477.02C92.1221 477.02 92.8488 477.227 93.4354 477.64C94.0221 478.04 94.4621 478.6 94.7554 479.32C95.0621 480.04 95.2154 480.88 95.2154 481.84C95.2154 483.027 95.0154 484.02 94.6154 484.82C94.2288 485.62 93.6888 486.22 92.9954 486.62C92.3021 487.007 91.4954 487.2 90.5754 487.2C89.8821 487.2 89.2488 487.06 88.6754 486.78C88.1154 486.487 87.6288 486.06 87.2154 485.5C86.8154 484.94 86.5088 484.247 86.2954 483.42C86.0821 482.593 85.9754 481.64 85.9754 480.56ZM90.7154 485.74C91.2488 485.74 91.7154 485.62 92.1154 485.38C92.5154 485.14 92.8221 484.747 93.0354 484.2C93.2621 483.653 93.3754 482.927 93.3754 482.02C93.3754 480.927 93.1888 480.067 92.8154 479.44C92.4421 478.8 91.8288 478.48 90.9754 478.48C90.4288 478.48 89.9354 478.613 89.4954 478.88C89.0554 479.133 88.6821 479.427 88.3754 479.76C88.0821 480.093 87.8754 480.373 87.7554 480.6C87.7554 481.253 87.7954 481.887 87.8754 482.5C87.9688 483.113 88.1221 483.667 88.3354 484.16C88.5621 484.64 88.8621 485.027 89.2354 485.32C89.6221 485.6 90.1154 485.74 90.7154 485.74ZM101.364 487.2C100.457 487.2 99.6573 487.007 98.964 486.62C98.2707 486.233 97.724 485.633 97.324 484.82C96.9373 484.007 96.744 482.967 96.744 481.7C96.744 480.38 96.9507 479.307 97.364 478.48C97.7773 477.653 98.3373 477.047 99.044 476.66C99.764 476.273 100.577 476.08 101.484 476.08C102.004 476.08 102.504 476.14 102.984 476.26C103.477 476.367 103.877 476.5 104.184 476.66L103.644 478.12C103.337 478 102.977 477.887 102.564 477.78C102.164 477.673 101.791 477.62 101.444 477.62C100.791 477.62 100.251 477.773 99.824 478.08C99.3973 478.387 99.0773 478.84 98.864 479.44C98.6507 480.04 98.544 480.787 98.544 481.68C98.544 482.533 98.6507 483.26 98.864 483.86C99.0773 484.46 99.3907 484.913 99.804 485.22C100.231 485.527 100.751 485.68 101.364 485.68C101.911 485.68 102.397 485.62 102.824 485.5C103.251 485.38 103.644 485.233 104.004 485.06V486.62C103.657 486.807 103.277 486.947 102.864 487.04C102.451 487.147 101.951 487.2 101.364 487.2ZM112.966 477.76H109.666V487H107.946V477.76H104.686V476.28H112.966V477.76ZM122.629 478.98C122.629 479.647 122.442 480.167 122.069 480.54C121.695 480.913 121.209 481.167 120.609 481.3V481.38C121.235 481.473 121.782 481.713 122.249 482.1C122.715 482.473 122.949 483.06 122.949 483.86C122.949 484.313 122.869 484.733 122.709 485.12C122.562 485.507 122.322 485.84 121.989 486.12C121.655 486.4 121.229 486.62 120.709 486.78C120.189 486.927 119.562 487 118.829 487H114.449V476.28H118.809C119.542 476.28 120.195 476.367 120.769 476.54C121.342 476.7 121.795 476.98 122.129 477.38C122.462 477.767 122.629 478.3 122.629 478.98ZM121.149 483.86C121.149 483.247 120.929 482.807 120.489 482.54C120.062 482.273 119.435 482.14 118.609 482.14H116.189V485.58H118.649C119.449 485.58 120.062 485.453 120.489 485.2C120.929 484.933 121.149 484.487 121.149 483.86ZM120.869 479.2C120.869 478.693 120.695 478.327 120.349 478.1C120.015 477.86 119.475 477.74 118.729 477.74H116.189V480.68H118.409C119.222 480.68 119.835 480.56 120.249 480.32C120.662 480.08 120.869 479.707 120.869 479.2ZM133.667 481.62C133.667 482.513 133.554 483.307 133.327 484C133.114 484.68 132.8 485.26 132.387 485.74C131.974 486.22 131.474 486.587 130.887 486.84C130.3 487.08 129.647 487.2 128.927 487.2C128.26 487.2 127.64 487.08 127.067 486.84C126.507 486.587 126.014 486.22 125.587 485.74C125.174 485.26 124.854 484.68 124.627 484C124.4 483.307 124.287 482.513 124.287 481.62C124.287 480.433 124.474 479.433 124.847 478.62C125.234 477.793 125.78 477.167 126.487 476.74C127.194 476.3 128.027 476.08 128.987 476.08C129.907 476.08 130.714 476.3 131.407 476.74C132.114 477.167 132.667 477.793 133.067 478.62C133.467 479.433 133.667 480.433 133.667 481.62ZM126.087 481.62C126.087 482.46 126.187 483.193 126.387 483.82C126.587 484.433 126.9 484.907 127.327 485.24C127.754 485.573 128.3 485.74 128.967 485.74C129.634 485.74 130.18 485.573 130.607 485.24C131.034 484.907 131.347 484.433 131.547 483.82C131.76 483.193 131.867 482.46 131.867 481.62C131.867 480.767 131.76 480.04 131.547 479.44C131.347 478.84 131.034 478.38 130.607 478.06C130.18 477.727 129.627 477.56 128.947 477.56C127.947 477.56 127.22 477.92 126.767 478.64C126.314 479.36 126.087 480.353 126.087 481.62ZM146.733 476.28V487H145.153V480.16C145.153 479.88 145.16 479.587 145.173 479.28C145.2 478.973 145.227 478.673 145.253 478.38H145.193L141.933 487H140.493L137.313 478.38H137.253C137.28 478.673 137.3 478.973 137.313 479.28C137.327 479.587 137.333 479.9 137.333 480.22V487H135.753V476.28H138.093L141.213 484.9L144.393 476.28H146.733ZM162.376 476.28V487H160.636V477.78H155.536V487H153.796V476.28H162.376ZM173.874 481.62C173.874 482.513 173.761 483.307 173.534 484C173.321 484.68 173.007 485.26 172.594 485.74C172.181 486.22 171.681 486.587 171.094 486.84C170.507 487.08 169.854 487.2 169.134 487.2C168.467 487.2 167.847 487.08 167.274 486.84C166.714 486.587 166.221 486.22 165.794 485.74C165.381 485.26 165.061 484.68 164.834 484C164.607 483.307 164.494 482.513 164.494 481.62C164.494 480.433 164.681 479.433 165.054 478.62C165.441 477.793 165.987 477.167 166.694 476.74C167.401 476.3 168.234 476.08 169.194 476.08C170.114 476.08 170.921 476.3 171.614 476.74C172.321 477.167 172.874 477.793 173.274 478.62C173.674 479.433 173.874 480.433 173.874 481.62ZM166.294 481.62C166.294 482.46 166.394 483.193 166.594 483.82C166.794 484.433 167.107 484.907 167.534 485.24C167.961 485.573 168.507 485.74 169.174 485.74C169.841 485.74 170.387 485.573 170.814 485.24C171.241 484.907 171.554 484.433 171.754 483.82C171.967 483.193 172.074 482.46 172.074 481.62C172.074 480.767 171.967 480.04 171.754 479.44C171.554 478.84 171.241 478.38 170.814 478.06C170.387 477.727 169.834 477.56 169.154 477.56C168.154 477.56 167.427 477.92 166.974 478.64C166.521 479.36 166.294 480.353 166.294 481.62ZM184.14 478.98C184.14 479.647 183.954 480.167 183.58 480.54C183.207 480.913 182.72 481.167 182.12 481.3V481.38C182.747 481.473 183.294 481.713 183.76 482.1C184.227 482.473 184.46 483.06 184.46 483.86C184.46 484.313 184.38 484.733 184.22 485.12C184.074 485.507 183.834 485.84 183.5 486.12C183.167 486.4 182.74 486.62 182.22 486.78C181.7 486.927 181.074 487 180.34 487H175.96V476.28H180.32C181.054 476.28 181.707 476.367 182.28 476.54C182.854 476.7 183.307 476.98 183.64 477.38C183.974 477.767 184.14 478.3 184.14 478.98ZM182.66 483.86C182.66 483.247 182.44 482.807 182 482.54C181.574 482.273 180.947 482.14 180.12 482.14H177.7V485.58H180.16C180.96 485.58 181.574 485.453 182 485.2C182.44 484.933 182.66 484.487 182.66 483.86ZM182.38 479.2C182.38 478.693 182.207 478.327 181.86 478.1C181.527 477.86 180.987 477.74 180.24 477.74H177.7V480.68H179.92C180.734 480.68 181.347 480.56 181.76 480.32C182.174 480.08 182.38 479.707 182.38 479.2ZM186.359 487V476.28H188.099V480.68H190.619C191.512 480.68 192.245 480.793 192.819 481.02C193.392 481.247 193.819 481.587 194.099 482.04C194.379 482.48 194.519 483.04 194.519 483.72C194.519 484.387 194.379 484.967 194.099 485.46C193.832 485.953 193.405 486.333 192.819 486.6C192.245 486.867 191.492 487 190.559 487H186.359ZM190.399 485.58C191.105 485.58 191.679 485.453 192.119 485.2C192.559 484.933 192.779 484.473 192.779 483.82C192.779 483.167 192.572 482.727 192.159 482.5C191.759 482.26 191.179 482.14 190.419 482.14H188.099V485.58H190.399ZM196.179 487V476.28H197.919V487H196.179ZM214.385 476.28V487H200.585V476.28H202.325V485.52H206.605V476.28H208.345V485.52H212.625V476.28H214.385ZM220.918 476.1C222.145 476.1 223.058 476.387 223.658 476.96C224.271 477.533 224.578 478.447 224.578 479.7V487H223.318L222.978 485.48H222.898C222.605 485.867 222.305 486.193 221.998 486.46C221.705 486.713 221.358 486.9 220.958 487.02C220.571 487.14 220.091 487.2 219.518 487.2C218.918 487.2 218.378 487.087 217.898 486.86C217.418 486.633 217.038 486.287 216.758 485.82C216.478 485.34 216.338 484.74 216.338 484.02C216.338 482.953 216.731 482.133 217.518 481.56C218.305 480.973 219.518 480.653 221.158 480.6L222.858 480.54V479.9C222.858 479.007 222.678 478.387 222.318 478.04C221.971 477.693 221.471 477.52 220.818 477.52C220.298 477.52 219.798 477.607 219.318 477.78C218.851 477.94 218.405 478.127 217.978 478.34L217.438 477.02C217.891 476.767 218.418 476.553 219.018 476.38C219.618 476.193 220.251 476.1 220.918 476.1ZM221.398 481.82C220.171 481.873 219.318 482.087 218.838 482.46C218.371 482.833 218.138 483.36 218.138 484.04C218.138 484.64 218.305 485.08 218.638 485.36C218.971 485.64 219.405 485.78 219.938 485.78C220.765 485.78 221.458 485.533 222.018 485.04C222.578 484.533 222.858 483.76 222.858 482.72V481.76L221.398 481.82ZM231.103 476.08C231.97 476.08 232.716 476.28 233.343 476.68C233.97 477.08 234.45 477.647 234.783 478.38C235.13 479.1 235.303 479.947 235.303 480.92V481.98H228.423C228.45 483.193 228.736 484.12 229.283 484.76C229.83 485.387 230.596 485.7 231.583 485.7C232.223 485.7 232.79 485.64 233.283 485.52C233.79 485.387 234.31 485.2 234.843 484.96V486.5C234.323 486.74 233.81 486.913 233.303 487.02C232.81 487.14 232.21 487.2 231.503 487.2C230.543 487.2 229.696 486.993 228.963 486.58C228.23 486.167 227.656 485.553 227.243 484.74C226.83 483.913 226.623 482.907 226.623 481.72C226.623 480.547 226.81 479.54 227.183 478.7C227.556 477.86 228.076 477.213 228.743 476.76C229.423 476.307 230.21 476.08 231.103 476.08ZM231.103 477.52C230.33 477.52 229.716 477.793 229.263 478.34C228.81 478.873 228.543 479.62 228.463 480.58H233.503C233.503 479.967 233.416 479.433 233.243 478.98C233.07 478.527 232.803 478.173 232.443 477.92C232.096 477.653 231.65 477.52 231.103 477.52ZM244.407 477.76H241.107V487H239.387V477.76H236.127V476.28H244.407V477.76ZM249.774 487.2C248.868 487.2 248.068 487.007 247.374 486.62C246.681 486.233 246.134 485.633 245.734 484.82C245.348 484.007 245.154 482.967 245.154 481.7C245.154 480.38 245.361 479.307 245.774 478.48C246.188 477.653 246.748 477.047 247.454 476.66C248.174 476.273 248.988 476.08 249.894 476.08C250.414 476.08 250.914 476.14 251.394 476.26C251.888 476.367 252.288 476.5 252.594 476.66L252.054 478.12C251.748 478 251.388 477.887 250.974 477.78C250.574 477.673 250.201 477.62 249.854 477.62C249.201 477.62 248.661 477.773 248.234 478.08C247.808 478.387 247.488 478.84 247.274 479.44C247.061 480.04 246.954 480.787 246.954 481.68C246.954 482.533 247.061 483.26 247.274 483.86C247.488 484.46 247.801 484.913 248.214 485.22C248.641 485.527 249.161 485.68 249.774 485.68C250.321 485.68 250.808 485.62 251.234 485.5C251.661 485.38 252.054 485.233 252.414 485.06V486.62C252.068 486.807 251.688 486.947 251.274 487.04C250.861 487.147 250.361 487.2 249.774 487.2ZM254.996 487H252.996L255.856 482.5C255.47 482.393 255.096 482.227 254.736 482C254.39 481.76 254.103 481.433 253.876 481.02C253.65 480.593 253.536 480.067 253.536 479.44C253.536 478.413 253.863 477.633 254.516 477.1C255.183 476.553 256.063 476.28 257.156 476.28H261.696V487H259.956V482.74H257.576L254.996 487ZM255.236 479.46C255.236 480.073 255.443 480.533 255.856 480.84C256.283 481.133 256.876 481.28 257.636 481.28H259.956V477.74H257.316C256.57 477.74 256.036 477.9 255.716 478.22C255.396 478.54 255.236 478.953 255.236 479.46ZM272.805 487.2C271.899 487.2 271.099 487.007 270.405 486.62C269.712 486.233 269.165 485.633 268.765 484.82C268.379 484.007 268.185 482.967 268.185 481.7C268.185 480.38 268.392 479.307 268.805 478.48C269.219 477.653 269.779 477.047 270.485 476.66C271.205 476.273 272.019 476.08 272.925 476.08C273.445 476.08 273.945 476.14 274.425 476.26C274.919 476.367 275.319 476.5 275.625 476.66L275.085 478.12C274.779 478 274.419 477.887 274.005 477.78C273.605 477.673 273.232 477.62 272.885 477.62C272.232 477.62 271.692 477.773 271.265 478.08C270.839 478.387 270.519 478.84 270.305 479.44C270.092 480.04 269.985 480.787 269.985 481.68C269.985 482.533 270.092 483.26 270.305 483.86C270.519 484.46 270.832 484.913 271.245 485.22C271.672 485.527 272.192 485.68 272.805 485.68C273.352 485.68 273.839 485.62 274.265 485.5C274.692 485.38 275.085 485.233 275.445 485.06V486.62C275.099 486.807 274.719 486.947 274.305 487.04C273.892 487.147 273.392 487.2 272.805 487.2ZM283.347 476.28H285.247L280.967 481.44L285.607 487H283.587L279.067 481.56V487H277.327V476.28H279.067V481.48L283.347 476.28ZM295.335 481.62C295.335 482.513 295.222 483.307 294.995 484C294.782 484.68 294.468 485.26 294.055 485.74C293.642 486.22 293.142 486.587 292.555 486.84C291.968 487.08 291.315 487.2 290.595 487.2C289.928 487.2 289.308 487.08 288.735 486.84C288.175 486.587 287.682 486.22 287.255 485.74C286.842 485.26 286.522 484.68 286.295 484C286.068 483.307 285.955 482.513 285.955 481.62C285.955 480.433 286.142 479.433 286.515 478.62C286.902 477.793 287.448 477.167 288.155 476.74C288.862 476.3 289.695 476.08 290.655 476.08C291.575 476.08 292.382 476.3 293.075 476.74C293.782 477.167 294.335 477.793 294.735 478.62C295.135 479.433 295.335 480.433 295.335 481.62ZM287.755 481.62C287.755 482.46 287.855 483.193 288.055 483.82C288.255 484.433 288.568 484.907 288.995 485.24C289.422 485.573 289.968 485.74 290.635 485.74C291.302 485.74 291.848 485.573 292.275 485.24C292.702 484.907 293.015 484.433 293.215 483.82C293.428 483.193 293.535 482.46 293.535 481.62C293.535 480.767 293.428 480.04 293.215 479.44C293.015 478.84 292.702 478.38 292.275 478.06C291.848 477.727 291.295 477.56 290.615 477.56C289.615 477.56 288.888 477.92 288.435 478.64C287.982 479.36 287.755 480.353 287.755 481.62ZM302.281 476.08C303.521 476.08 304.515 476.54 305.261 477.46C306.021 478.38 306.401 479.767 306.401 481.62C306.401 482.833 306.228 483.86 305.881 484.7C305.535 485.527 305.048 486.153 304.421 486.58C303.808 486.993 303.088 487.2 302.261 487.2C301.741 487.2 301.281 487.127 300.881 486.98C300.495 486.833 300.161 486.647 299.881 486.42C299.601 486.18 299.361 485.92 299.161 485.64H299.041C299.068 485.867 299.095 486.153 299.121 486.5C299.148 486.847 299.161 487.147 299.161 487.4V491.8H297.421V476.28H298.841L299.081 477.74H299.161C299.361 477.433 299.601 477.153 299.881 476.9C300.161 476.647 300.495 476.447 300.881 476.3C301.281 476.153 301.748 476.08 302.281 476.08ZM301.941 477.56C301.275 477.56 300.735 477.7 300.321 477.98C299.921 478.247 299.628 478.653 299.441 479.2C299.255 479.747 299.161 480.44 299.161 481.28V481.62C299.161 482.5 299.241 483.247 299.401 483.86C299.575 484.473 299.868 484.94 300.281 485.26C300.695 485.58 301.261 485.74 301.981 485.74C302.581 485.74 303.075 485.56 303.461 485.2C303.848 484.84 304.135 484.353 304.321 483.74C304.508 483.113 304.601 482.4 304.601 481.6C304.601 480.373 304.381 479.393 303.941 478.66C303.515 477.927 302.848 477.56 301.941 477.56ZM317.323 481.62C317.323 482.513 317.21 483.307 316.983 484C316.77 484.68 316.457 485.26 316.043 485.74C315.63 486.22 315.13 486.587 314.543 486.84C313.957 487.08 313.303 487.2 312.583 487.2C311.917 487.2 311.297 487.08 310.723 486.84C310.163 486.587 309.67 486.22 309.243 485.74C308.83 485.26 308.51 484.68 308.283 484C308.057 483.307 307.943 482.513 307.943 481.62C307.943 480.433 308.13 479.433 308.503 478.62C308.89 477.793 309.437 477.167 310.143 476.74C310.85 476.3 311.683 476.08 312.643 476.08C313.563 476.08 314.37 476.3 315.063 476.74C315.77 477.167 316.323 477.793 316.723 478.62C317.123 479.433 317.323 480.433 317.323 481.62ZM309.743 481.62C309.743 482.46 309.843 483.193 310.043 483.82C310.243 484.433 310.557 484.907 310.983 485.24C311.41 485.573 311.957 485.74 312.623 485.74C313.29 485.74 313.837 485.573 314.263 485.24C314.69 484.907 315.003 484.433 315.203 483.82C315.417 483.193 315.523 482.46 315.523 481.62C315.523 480.767 315.417 480.04 315.203 479.44C315.003 478.84 314.69 478.38 314.263 478.06C313.837 477.727 313.283 477.56 312.603 477.56C311.603 477.56 310.877 477.92 310.423 478.64C309.97 479.36 309.743 480.353 309.743 481.62ZM323.469 487.2C322.563 487.2 321.763 487.007 321.069 486.62C320.376 486.233 319.829 485.633 319.429 484.82C319.043 484.007 318.849 482.967 318.849 481.7C318.849 480.38 319.056 479.307 319.469 478.48C319.883 477.653 320.443 477.047 321.149 476.66C321.869 476.273 322.683 476.08 323.589 476.08C324.109 476.08 324.609 476.14 325.089 476.26C325.583 476.367 325.983 476.5 326.289 476.66L325.749 478.12C325.443 478 325.083 477.887 324.669 477.78C324.269 477.673 323.896 477.62 323.549 477.62C322.896 477.62 322.356 477.773 321.929 478.08C321.503 478.387 321.183 478.84 320.969 479.44C320.756 480.04 320.649 480.787 320.649 481.68C320.649 482.533 320.756 483.26 320.969 483.86C321.183 484.46 321.496 484.913 321.909 485.22C322.336 485.527 322.856 485.68 323.469 485.68C324.016 485.68 324.503 485.62 324.929 485.5C325.356 485.38 325.749 485.233 326.109 485.06V486.62C325.763 486.807 325.383 486.947 324.969 487.04C324.556 487.147 324.056 487.2 323.469 487.2ZM335.071 477.76H331.771V487H330.051V477.76H326.791V476.28H335.071V477.76ZM341.214 480.68C342.094 480.68 342.827 480.793 343.414 481.02C344.001 481.247 344.441 481.587 344.734 482.04C345.041 482.48 345.194 483.04 345.194 483.72C345.194 484.387 345.054 484.967 344.774 485.46C344.494 485.953 344.054 486.333 343.454 486.6C342.867 486.867 342.101 487 341.154 487H336.554V476.28H338.294V480.68H341.214ZM343.454 483.82C343.454 483.167 343.241 482.727 342.814 482.5C342.387 482.26 341.794 482.14 341.034 482.14H338.294V485.58H341.074C341.754 485.58 342.321 485.447 342.774 485.18C343.227 484.913 343.454 484.46 343.454 483.82ZM359.808 478.98C359.808 479.647 359.622 480.167 359.248 480.54C358.875 480.913 358.388 481.167 357.788 481.3V481.38C358.415 481.473 358.962 481.713 359.428 482.1C359.895 482.473 360.128 483.06 360.128 483.86C360.128 484.313 360.048 484.733 359.888 485.12C359.742 485.507 359.502 485.84 359.168 486.12C358.835 486.4 358.408 486.62 357.888 486.78C357.368 486.927 356.742 487 356.008 487H351.628V476.28H355.988C356.722 476.28 357.375 476.367 357.948 476.54C358.522 476.7 358.975 476.98 359.308 477.38C359.642 477.767 359.808 478.3 359.808 478.98ZM358.328 483.86C358.328 483.247 358.108 482.807 357.668 482.54C357.242 482.273 356.615 482.14 355.788 482.14H353.368V485.58H355.828C356.628 485.58 357.242 485.453 357.668 485.2C358.108 484.933 358.328 484.487 358.328 483.86ZM358.048 479.2C358.048 478.693 357.875 478.327 357.528 478.1C357.195 477.86 356.655 477.74 355.908 477.74H353.368V480.68H355.588C356.402 480.68 357.015 480.56 357.428 480.32C357.842 480.08 358.048 479.707 358.048 479.2ZM364.767 476.08C365.527 476.08 366.187 476.193 366.747 476.42C367.32 476.633 367.767 476.953 368.087 477.38C368.407 477.793 368.567 478.3 368.567 478.9C368.567 479.553 368.393 480.073 368.047 480.46C367.713 480.833 367.253 481.107 366.667 481.28V481.36C367.067 481.48 367.433 481.647 367.767 481.86C368.113 482.073 368.387 482.353 368.587 482.7C368.8 483.047 368.907 483.493 368.907 484.04C368.907 484.627 368.753 485.16 368.447 485.64C368.14 486.12 367.66 486.5 367.007 486.78C366.367 487.06 365.547 487.2 364.547 487.2C364.067 487.2 363.607 487.173 363.167 487.12C362.74 487.067 362.347 486.987 361.987 486.88C361.64 486.773 361.333 486.647 361.067 486.5V484.92C361.493 485.133 362 485.327 362.587 485.5C363.173 485.673 363.813 485.76 364.507 485.76C365.013 485.76 365.467 485.7 365.867 485.58C366.267 485.46 366.587 485.273 366.827 485.02C367.067 484.753 367.187 484.393 367.187 483.94C367.187 483.527 367.08 483.193 366.867 482.94C366.653 482.673 366.333 482.473 365.907 482.34C365.493 482.207 364.96 482.14 364.307 482.14H362.987V480.7H364.067C364.933 480.7 365.627 480.58 366.147 480.34C366.667 480.087 366.927 479.66 366.927 479.06C366.927 478.553 366.727 478.173 366.327 477.92C365.94 477.667 365.38 477.54 364.647 477.54C364.1 477.54 363.607 477.6 363.167 477.72C362.74 477.827 362.28 477.993 361.787 478.22L361.167 476.82C361.713 476.567 362.287 476.38 362.887 476.26C363.487 476.14 364.113 476.08 364.767 476.08ZM374.684 476.1C375.91 476.1 376.824 476.387 377.424 476.96C378.037 477.533 378.344 478.447 378.344 479.7V487H377.084L376.744 485.48H376.664C376.37 485.867 376.07 486.193 375.764 486.46C375.47 486.713 375.124 486.9 374.724 487.02C374.337 487.14 373.857 487.2 373.284 487.2C372.684 487.2 372.144 487.087 371.664 486.86C371.184 486.633 370.804 486.287 370.524 485.82C370.244 485.34 370.104 484.74 370.104 484.02C370.104 482.953 370.497 482.133 371.284 481.56C372.07 480.973 373.284 480.653 374.924 480.6L376.624 480.54V479.9C376.624 479.007 376.444 478.387 376.084 478.04C375.737 477.693 375.237 477.52 374.584 477.52C374.064 477.52 373.564 477.607 373.084 477.78C372.617 477.94 372.17 478.127 371.744 478.34L371.204 477.02C371.657 476.767 372.184 476.553 372.784 476.38C373.384 476.193 374.017 476.1 374.684 476.1ZM375.164 481.82C373.937 481.873 373.084 482.087 372.604 482.46C372.137 482.833 371.904 483.36 371.904 484.04C371.904 484.64 372.07 485.08 372.404 485.36C372.737 485.64 373.17 485.78 373.704 485.78C374.53 485.78 375.224 485.533 375.784 485.04C376.344 484.533 376.624 483.76 376.624 482.72V481.76L375.164 481.82ZM382.589 482.82C382.589 482.94 382.582 483.113 382.569 483.34C382.569 483.553 382.562 483.787 382.549 484.04C382.535 484.28 382.522 484.513 382.509 484.74C382.495 484.953 382.482 485.127 382.469 485.26L387.829 476.28H389.949V487H388.329V480.68C388.329 480.467 388.329 480.187 388.329 479.84C388.342 479.493 388.355 479.153 388.369 478.82C388.382 478.473 388.395 478.213 388.409 478.04L383.109 487H380.949V476.28H382.589V482.82ZM403.616 476.28V487H402.036V480.16C402.036 479.88 402.043 479.587 402.056 479.28C402.083 478.973 402.109 478.673 402.136 478.38H402.076L398.816 487H397.376L394.196 478.38H394.136C394.163 478.673 394.183 478.973 394.196 479.28C394.209 479.587 394.216 479.9 394.216 480.22V487H392.636V476.28H394.976L398.096 484.9L401.276 476.28H403.616ZM415.116 481.62C415.116 482.513 415.003 483.307 414.776 484C414.563 484.68 414.25 485.26 413.836 485.74C413.423 486.22 412.923 486.587 412.336 486.84C411.75 487.08 411.096 487.2 410.376 487.2C409.71 487.2 409.09 487.08 408.516 486.84C407.956 486.587 407.463 486.22 407.036 485.74C406.623 485.26 406.303 484.68 406.076 484C405.85 483.307 405.736 482.513 405.736 481.62C405.736 480.433 405.923 479.433 406.296 478.62C406.683 477.793 407.23 477.167 407.936 476.74C408.643 476.3 409.476 476.08 410.436 476.08C411.356 476.08 412.163 476.3 412.856 476.74C413.563 477.167 414.116 477.793 414.516 478.62C414.916 479.433 415.116 480.433 415.116 481.62ZM407.536 481.62C407.536 482.46 407.636 483.193 407.836 483.82C408.036 484.433 408.35 484.907 408.776 485.24C409.203 485.573 409.75 485.74 410.416 485.74C411.083 485.74 411.63 485.573 412.056 485.24C412.483 484.907 412.796 484.433 412.996 483.82C413.21 483.193 413.316 482.46 413.316 481.62C413.316 480.767 413.21 480.04 412.996 479.44C412.796 478.84 412.483 478.38 412.056 478.06C411.63 477.727 411.076 477.56 410.396 477.56C409.396 477.56 408.67 477.92 408.216 478.64C407.763 479.36 407.536 480.353 407.536 481.62ZM424.822 476.28V485.52H426.282V490.72H424.622V487H417.622V490.72H415.962V485.52H416.782C417.356 484.667 417.829 483.74 418.202 482.74C418.576 481.727 418.856 480.673 419.042 479.58C419.242 478.473 419.349 477.373 419.362 476.28H424.822ZM420.902 477.66C420.849 478.567 420.716 479.507 420.502 480.48C420.302 481.44 420.036 482.36 419.702 483.24C419.382 484.12 419.009 484.88 418.582 485.52H423.122V477.66H420.902ZM431.638 476.08C432.505 476.08 433.251 476.28 433.878 476.68C434.505 477.08 434.985 477.647 435.318 478.38C435.665 479.1 435.838 479.947 435.838 480.92V481.98H428.958C428.985 483.193 429.271 484.12 429.818 484.76C430.365 485.387 431.131 485.7 432.118 485.7C432.758 485.7 433.325 485.64 433.818 485.52C434.325 485.387 434.845 485.2 435.378 484.96V486.5C434.858 486.74 434.345 486.913 433.838 487.02C433.345 487.14 432.745 487.2 432.038 487.2C431.078 487.2 430.231 486.993 429.498 486.58C428.765 486.167 428.191 485.553 427.778 484.74C427.365 483.913 427.158 482.907 427.158 481.72C427.158 480.547 427.345 479.54 427.718 478.7C428.091 477.86 428.611 477.213 429.278 476.76C429.958 476.307 430.745 476.08 431.638 476.08ZM431.638 477.52C430.865 477.52 430.251 477.793 429.798 478.34C429.345 478.873 429.078 479.62 428.998 480.58H434.038C434.038 479.967 433.951 479.433 433.778 478.98C433.605 478.527 433.338 478.173 432.978 477.92C432.631 477.653 432.185 477.52 431.638 477.52ZM446.143 471.84C446.089 472.507 445.929 473.067 445.663 473.52C445.409 473.973 445.023 474.313 444.503 474.54C443.996 474.767 443.336 474.88 442.523 474.88C441.683 474.88 441.009 474.767 440.503 474.54C440.009 474.313 439.643 473.98 439.403 473.54C439.176 473.087 439.036 472.52 438.983 471.84H440.603C440.669 472.56 440.849 473.047 441.143 473.3C441.436 473.54 441.903 473.66 442.543 473.66C443.129 473.66 443.589 473.533 443.923 473.28C444.256 473.013 444.449 472.533 444.503 471.84H446.143ZM439.503 482.82C439.503 482.94 439.496 483.113 439.483 483.34C439.483 483.553 439.476 483.787 439.463 484.04C439.449 484.28 439.436 484.513 439.423 484.74C439.409 484.953 439.396 485.127 439.383 485.26L444.743 476.28H446.863V487H445.243V480.68C445.243 480.467 445.243 480.187 445.243 479.84C445.256 479.493 445.269 479.153 445.283 478.82C445.296 478.473 445.309 478.213 445.323 478.04L440.023 487H437.863V476.28H439.503V482.82ZM453.61 487.2C452.703 487.2 451.903 487.007 451.21 486.62C450.517 486.233 449.97 485.633 449.57 484.82C449.183 484.007 448.99 482.967 448.99 481.7C448.99 480.38 449.197 479.307 449.61 478.48C450.023 477.653 450.583 477.047 451.29 476.66C452.01 476.273 452.823 476.08 453.73 476.08C454.25 476.08 454.75 476.14 455.23 476.26C455.723 476.367 456.123 476.5 456.43 476.66L455.89 478.12C455.583 478 455.223 477.887 454.81 477.78C454.41 477.673 454.037 477.62 453.69 477.62C453.037 477.62 452.497 477.773 452.07 478.08C451.643 478.387 451.323 478.84 451.11 479.44C450.897 480.04 450.79 480.787 450.79 481.68C450.79 482.533 450.897 483.26 451.11 483.86C451.323 484.46 451.637 484.913 452.05 485.22C452.477 485.527 452.997 485.68 453.61 485.68C454.157 485.68 454.643 485.62 455.07 485.5C455.497 485.38 455.89 485.233 456.25 485.06V486.62C455.903 486.807 455.523 486.947 455.11 487.04C454.697 487.147 454.197 487.2 453.61 487.2ZM465.212 477.76H461.912V487H460.192V477.76H456.932V476.28H465.212V477.76ZM474.875 478.98C474.875 479.647 474.688 480.167 474.315 480.54C473.941 480.913 473.455 481.167 472.855 481.3V481.38C473.481 481.473 474.028 481.713 474.495 482.1C474.961 482.473 475.195 483.06 475.195 483.86C475.195 484.313 475.115 484.733 474.955 485.12C474.808 485.507 474.568 485.84 474.235 486.12C473.901 486.4 473.475 486.62 472.955 486.78C472.435 486.927 471.808 487 471.075 487H466.695V476.28H471.055C471.788 476.28 472.441 476.367 473.015 476.54C473.588 476.7 474.041 476.98 474.375 477.38C474.708 477.767 474.875 478.3 474.875 478.98ZM473.395 483.86C473.395 483.247 473.175 482.807 472.735 482.54C472.308 482.273 471.681 482.14 470.855 482.14H468.435V485.58H470.895C471.695 485.58 472.308 485.453 472.735 485.2C473.175 484.933 473.395 484.487 473.395 483.86ZM473.115 479.2C473.115 478.693 472.941 478.327 472.595 478.1C472.261 477.86 471.721 477.74 470.975 477.74H468.435V480.68H470.655C471.468 480.68 472.081 480.56 472.495 480.32C472.908 480.08 473.115 479.707 473.115 479.2ZM478.733 482.82C478.733 482.94 478.726 483.113 478.713 483.34C478.713 483.553 478.706 483.787 478.693 484.04C478.68 484.28 478.666 484.513 478.653 484.74C478.64 484.953 478.626 485.127 478.613 485.26L483.973 476.28H486.093V487H484.473V480.68C484.473 480.467 484.473 480.187 484.473 479.84C484.486 479.493 484.5 479.153 484.513 478.82C484.526 478.473 484.54 478.213 484.553 478.04L479.253 487H477.093V476.28H478.733V482.82ZM489.481 487H487.481L490.341 482.5C489.954 482.393 489.581 482.227 489.221 482C488.874 481.76 488.587 481.433 488.361 481.02C488.134 480.593 488.021 480.067 488.021 479.44C488.021 478.413 488.347 477.633 489.001 477.1C489.667 476.553 490.547 476.28 491.641 476.28H496.181V487H494.441V482.74H492.061L489.481 487ZM489.721 479.46C489.721 480.073 489.927 480.533 490.341 480.84C490.767 481.133 491.361 481.28 492.121 481.28H494.441V477.74H491.801C491.054 477.74 490.521 477.9 490.201 478.22C489.881 478.54 489.721 478.953 489.721 479.46ZM500.927 484.9C500.82 485.367 500.674 485.873 500.487 486.42C500.314 486.967 500.12 487.507 499.907 488.04C499.707 488.587 499.507 489.1 499.307 489.58H498.027C498.147 489.073 498.267 488.527 498.387 487.94C498.507 487.367 498.62 486.8 498.727 486.24C498.834 485.667 498.914 485.147 498.967 484.68H500.787L500.927 484.9ZM115.927 511.2C115.354 511.2 114.854 511.147 114.427 511.04C114.001 510.947 113.601 510.807 113.227 510.62V509.1C113.614 509.26 114.027 509.4 114.467 509.52C114.907 509.64 115.407 509.7 115.967 509.7C116.607 509.7 117.154 509.58 117.607 509.34C118.074 509.087 118.441 508.7 118.707 508.18C118.974 507.66 119.127 507 119.167 506.2H114.287V504.76H119.147C119.067 503.667 118.781 502.867 118.287 502.36C117.807 501.853 117.107 501.6 116.187 501.6C115.814 501.6 115.414 501.653 114.987 501.76C114.561 501.867 114.174 501.987 113.827 502.12L113.327 500.7C113.687 500.527 114.121 500.38 114.627 500.26C115.134 500.14 115.647 500.08 116.167 500.08C117.114 500.08 117.947 500.267 118.667 500.64C119.387 501.013 119.947 501.607 120.347 502.42C120.761 503.233 120.967 504.307 120.967 505.64C120.967 506.907 120.754 507.953 120.327 508.78C119.901 509.607 119.307 510.22 118.547 510.62C117.787 511.007 116.914 511.2 115.927 511.2ZM129.084 500.28H130.984L126.704 505.44L131.344 511H129.324L124.804 505.56V511H123.064V500.28H124.804V505.48L129.084 500.28ZM141.071 505.62C141.071 506.513 140.958 507.307 140.731 508C140.518 508.68 140.205 509.26 139.791 509.74C139.378 510.22 138.878 510.587 138.291 510.84C137.705 511.08 137.051 511.2 136.331 511.2C135.665 511.2 135.045 511.08 134.471 510.84C133.911 510.587 133.418 510.22 132.991 509.74C132.578 509.26 132.258 508.68 132.031 508C131.805 507.307 131.691 506.513 131.691 505.62C131.691 504.433 131.878 503.433 132.251 502.62C132.638 501.793 133.185 501.167 133.891 500.74C134.598 500.3 135.431 500.08 136.391 500.08C137.311 500.08 138.118 500.3 138.811 500.74C139.518 501.167 140.071 501.793 140.471 502.62C140.871 503.433 141.071 504.433 141.071 505.62ZM133.491 505.62C133.491 506.46 133.591 507.193 133.791 507.82C133.991 508.433 134.305 508.907 134.731 509.24C135.158 509.573 135.705 509.74 136.371 509.74C137.038 509.74 137.585 509.573 138.011 509.24C138.438 508.907 138.751 508.433 138.951 507.82C139.165 507.193 139.271 506.46 139.271 505.62C139.271 504.767 139.165 504.04 138.951 503.44C138.751 502.84 138.438 502.38 138.011 502.06C137.585 501.727 137.031 501.56 136.351 501.56C135.351 501.56 134.625 501.92 134.171 502.64C133.718 503.36 133.491 504.353 133.491 505.62ZM144.898 500.28V504.74H150.258V500.28H151.998V511H150.258V506.22H144.898V511H143.158V500.28H144.898ZM163.47 505.62C163.47 506.513 163.356 507.307 163.13 508C162.916 508.68 162.603 509.26 162.19 509.74C161.776 510.22 161.276 510.587 160.69 510.84C160.103 511.08 159.45 511.2 158.73 511.2C158.063 511.2 157.443 511.08 156.87 510.84C156.31 510.587 155.816 510.22 155.39 509.74C154.976 509.26 154.656 508.68 154.43 508C154.203 507.307 154.09 506.513 154.09 505.62C154.09 504.433 154.276 503.433 154.65 502.62C155.036 501.793 155.583 501.167 156.29 500.74C156.996 500.3 157.83 500.08 158.79 500.08C159.71 500.08 160.516 500.3 161.21 500.74C161.916 501.167 162.47 501.793 162.87 502.62C163.27 503.433 163.47 504.433 163.47 505.62ZM155.89 505.62C155.89 506.46 155.99 507.193 156.19 507.82C156.39 508.433 156.703 508.907 157.13 509.24C157.556 509.573 158.103 509.74 158.77 509.74C159.436 509.74 159.983 509.573 160.41 509.24C160.836 508.907 161.15 508.433 161.35 507.82C161.563 507.193 161.67 506.46 161.67 505.62C161.67 504.767 161.563 504.04 161.35 503.44C161.15 502.84 160.836 502.38 160.41 502.06C159.983 501.727 159.43 501.56 158.75 501.56C157.75 501.56 157.023 501.92 156.57 502.64C156.116 503.36 155.89 504.353 155.89 505.62ZM176.536 500.28V511H174.956V504.16C174.956 503.88 174.963 503.587 174.976 503.28C175.003 502.973 175.029 502.673 175.056 502.38H174.996L171.736 511H170.296L167.116 502.38H167.056C167.083 502.673 167.103 502.973 167.116 503.28C167.129 503.587 167.136 503.9 167.136 504.22V511H165.556V500.28H167.896L171.016 508.9L174.196 500.28H176.536ZM179.916 511H177.916L180.776 506.5C180.389 506.393 180.016 506.227 179.656 506C179.309 505.76 179.023 505.433 178.796 505.02C178.569 504.593 178.456 504.067 178.456 503.44C178.456 502.413 178.783 501.633 179.436 501.1C180.103 500.553 180.983 500.28 182.076 500.28H186.616V511H184.876V506.74H182.496L179.916 511ZM180.156 503.46C180.156 504.073 180.363 504.533 180.776 504.84C181.203 505.133 181.796 505.28 182.556 505.28H184.876V501.74H182.236C181.489 501.74 180.956 501.9 180.636 502.22C180.316 502.54 180.156 502.953 180.156 503.46ZM203.063 500.28V509.54H204.523V514.7H202.803V511H189.283V500.28H191.023V509.52H195.303V500.28H197.043V509.52H201.323V500.28H203.063ZM209.791 500.1C211.018 500.1 211.931 500.387 212.531 500.96C213.144 501.533 213.451 502.447 213.451 503.7V511H212.191L211.851 509.48H211.771C211.478 509.867 211.178 510.193 210.871 510.46C210.578 510.713 210.231 510.9 209.831 511.02C209.444 511.14 208.964 511.2 208.391 511.2C207.791 511.2 207.251 511.087 206.771 510.86C206.291 510.633 205.911 510.287 205.631 509.82C205.351 509.34 205.211 508.74 205.211 508.02C205.211 506.953 205.604 506.133 206.391 505.56C207.178 504.973 208.391 504.653 210.031 504.6L211.731 504.54V503.9C211.731 503.007 211.551 502.387 211.191 502.04C210.844 501.693 210.344 501.52 209.691 501.52C209.171 501.52 208.671 501.607 208.191 501.78C207.724 501.94 207.278 502.127 206.851 502.34L206.311 501.02C206.764 500.767 207.291 500.553 207.891 500.38C208.491 500.193 209.124 500.1 209.791 500.1ZM210.271 505.82C209.044 505.873 208.191 506.087 207.711 506.46C207.244 506.833 207.011 507.36 207.011 508.04C207.011 508.64 207.178 509.08 207.511 509.36C207.844 509.64 208.278 509.78 208.811 509.78C209.638 509.78 210.331 509.533 210.891 509.04C211.451 508.533 211.731 507.76 211.731 506.72V505.76L210.271 505.82ZM216.756 511H214.756L217.616 506.5C217.229 506.393 216.856 506.227 216.496 506C216.149 505.76 215.863 505.433 215.636 505.02C215.409 504.593 215.296 504.067 215.296 503.44C215.296 502.413 215.623 501.633 216.276 501.1C216.943 500.553 217.823 500.28 218.916 500.28H223.456V511H221.716V506.74H219.336L216.756 511ZM216.996 503.46C216.996 504.073 217.203 504.533 217.616 504.84C218.043 505.133 218.636 505.28 219.396 505.28H221.716V501.74H219.076C218.329 501.74 217.796 501.9 217.476 502.22C217.156 502.54 216.996 502.953 216.996 503.46ZM238.685 502.98C238.685 503.647 238.499 504.167 238.125 504.54C237.752 504.913 237.265 505.167 236.665 505.3V505.38C237.292 505.473 237.839 505.713 238.305 506.1C238.772 506.473 239.005 507.06 239.005 507.86C239.005 508.313 238.925 508.733 238.765 509.12C238.619 509.507 238.379 509.84 238.045 510.12C237.712 510.4 237.285 510.62 236.765 510.78C236.245 510.927 235.619 511 234.885 511H230.505V500.28H234.865C235.599 500.28 236.252 500.367 236.825 500.54C237.399 500.7 237.852 500.98 238.185 501.38C238.519 501.767 238.685 502.3 238.685 502.98ZM237.205 507.86C237.205 507.247 236.985 506.807 236.545 506.54C236.119 506.273 235.492 506.14 234.665 506.14H232.245V509.58H234.705C235.505 509.58 236.119 509.453 236.545 509.2C236.985 508.933 237.205 508.487 237.205 507.86ZM236.925 503.2C236.925 502.693 236.752 502.327 236.405 502.1C236.072 501.86 235.532 501.74 234.785 501.74H232.245V504.68H234.465C235.279 504.68 235.892 504.56 236.305 504.32C236.719 504.08 236.925 503.707 236.925 503.2ZM245.764 500.08C247.004 500.08 247.997 500.54 248.744 501.46C249.504 502.38 249.884 503.767 249.884 505.62C249.884 506.833 249.71 507.86 249.364 508.7C249.017 509.527 248.53 510.153 247.904 510.58C247.29 510.993 246.57 511.2 245.744 511.2C245.224 511.2 244.764 511.127 244.364 510.98C243.977 510.833 243.644 510.647 243.364 510.42C243.084 510.18 242.844 509.92 242.644 509.64H242.524C242.55 509.867 242.577 510.153 242.604 510.5C242.63 510.847 242.644 511.147 242.644 511.4V515.8H240.904V500.28H242.324L242.564 501.74H242.644C242.844 501.433 243.084 501.153 243.364 500.9C243.644 500.647 243.977 500.447 244.364 500.3C244.764 500.153 245.23 500.08 245.764 500.08ZM245.424 501.56C244.757 501.56 244.217 501.7 243.804 501.98C243.404 502.247 243.11 502.653 242.924 503.2C242.737 503.747 242.644 504.44 242.644 505.28V505.62C242.644 506.5 242.724 507.247 242.884 507.86C243.057 508.473 243.35 508.94 243.764 509.26C244.177 509.58 244.744 509.74 245.464 509.74C246.064 509.74 246.557 509.56 246.944 509.2C247.33 508.84 247.617 508.353 247.804 507.74C247.99 507.113 248.084 506.4 248.084 505.6C248.084 504.373 247.864 503.393 247.424 502.66C246.997 501.927 246.33 501.56 245.424 501.56ZM255.906 500.08C256.772 500.08 257.519 500.28 258.146 500.68C258.772 501.08 259.252 501.647 259.586 502.38C259.932 503.1 260.106 503.947 260.106 504.92V505.98H253.226C253.252 507.193 253.539 508.12 254.086 508.76C254.632 509.387 255.399 509.7 256.386 509.7C257.026 509.7 257.592 509.64 258.086 509.52C258.592 509.387 259.112 509.2 259.646 508.96V510.5C259.126 510.74 258.612 510.913 258.106 511.02C257.612 511.14 257.012 511.2 256.306 511.2C255.346 511.2 254.499 510.993 253.766 510.58C253.032 510.167 252.459 509.553 252.046 508.74C251.632 507.913 251.426 506.907 251.426 505.72C251.426 504.547 251.612 503.54 251.986 502.7C252.359 501.86 252.879 501.213 253.546 500.76C254.226 500.307 255.012 500.08 255.906 500.08ZM255.906 501.52C255.132 501.52 254.519 501.793 254.066 502.34C253.612 502.873 253.346 503.62 253.266 504.58H258.306C258.306 503.967 258.219 503.433 258.046 502.98C257.872 502.527 257.606 502.173 257.246 501.92C256.899 501.653 256.452 501.52 255.906 501.52ZM273.11 500.28V511H271.53V504.16C271.53 503.88 271.537 503.587 271.55 503.28C271.577 502.973 271.604 502.673 271.63 502.38H271.57L268.31 511H266.87L263.69 502.38H263.63C263.657 502.673 263.677 502.973 263.69 503.28C263.704 503.587 263.71 503.9 263.71 504.22V511H262.13V500.28H264.47L267.59 508.9L270.77 500.28H273.11ZM276.49 511H274.49L277.35 506.5C276.964 506.393 276.59 506.227 276.23 506C275.884 505.76 275.597 505.433 275.37 505.02C275.144 504.593 275.03 504.067 275.03 503.44C275.03 502.413 275.357 501.633 276.01 501.1C276.677 500.553 277.557 500.28 278.65 500.28H283.19V511H281.45V506.74H279.07L276.49 511ZM276.73 503.46C276.73 504.073 276.937 504.533 277.35 504.84C277.777 505.133 278.37 505.28 279.13 505.28H281.45V501.74H278.81C278.064 501.74 277.53 501.9 277.21 502.22C276.89 502.54 276.73 502.953 276.73 503.46ZM298.82 500.28V511H297.08V501.78H291.98V511H290.24V500.28H298.82ZM310.317 505.62C310.317 506.513 310.204 507.307 309.977 508C309.764 508.68 309.451 509.26 309.037 509.74C308.624 510.22 308.124 510.587 307.537 510.84C306.951 511.08 306.297 511.2 305.577 511.2C304.911 511.2 304.291 511.08 303.717 510.84C303.157 510.587 302.664 510.22 302.237 509.74C301.824 509.26 301.504 508.68 301.277 508C301.051 507.307 300.937 506.513 300.937 505.62C300.937 504.433 301.124 503.433 301.497 502.62C301.884 501.793 302.431 501.167 303.137 500.74C303.844 500.3 304.677 500.08 305.637 500.08C306.557 500.08 307.364 500.3 308.057 500.74C308.764 501.167 309.317 501.793 309.717 502.62C310.117 503.433 310.317 504.433 310.317 505.62ZM302.737 505.62C302.737 506.46 302.837 507.193 303.037 507.82C303.237 508.433 303.551 508.907 303.977 509.24C304.404 509.573 304.951 509.74 305.617 509.74C306.284 509.74 306.831 509.573 307.257 509.24C307.684 508.907 307.997 508.433 308.197 507.82C308.411 507.193 308.517 506.46 308.517 505.62C308.517 504.767 308.411 504.04 308.197 503.44C307.997 502.84 307.684 502.38 307.257 502.06C306.831 501.727 306.277 501.56 305.597 501.56C304.597 501.56 303.871 501.92 303.417 502.64C302.964 503.36 302.737 504.353 302.737 505.62ZM320.204 511H318.444V501.74H315.504C315.384 503.433 315.224 504.88 315.024 506.08C314.837 507.267 314.597 508.233 314.304 508.98C314.024 509.727 313.684 510.273 313.284 510.62C312.884 510.967 312.41 511.14 311.864 511.14C311.69 511.14 311.517 511.127 311.344 511.1C311.184 511.087 311.05 511.053 310.944 511V509.68C311.024 509.707 311.11 509.727 311.204 509.74C311.297 509.753 311.39 509.76 311.484 509.76C311.75 509.76 311.99 509.64 312.204 509.4C312.43 509.16 312.63 508.793 312.804 508.3C312.99 507.807 313.157 507.187 313.304 506.44C313.45 505.68 313.577 504.787 313.684 503.76C313.804 502.733 313.91 501.573 314.004 500.28H320.204V511ZM327.521 504.68C328.401 504.68 329.134 504.793 329.721 505.02C330.307 505.247 330.747 505.587 331.041 506.04C331.347 506.48 331.501 507.04 331.501 507.72C331.501 508.387 331.361 508.967 331.081 509.46C330.801 509.953 330.361 510.333 329.761 510.6C329.174 510.867 328.407 511 327.461 511H322.861V500.28H324.601V504.68H327.521ZM329.761 507.82C329.761 507.167 329.547 506.727 329.121 506.5C328.694 506.26 328.101 506.14 327.341 506.14H324.601V509.58H327.381C328.061 509.58 328.627 509.447 329.081 509.18C329.534 508.913 329.761 508.46 329.761 507.82ZM336.292 500.08C337.052 500.08 337.712 500.193 338.272 500.42C338.845 500.633 339.292 500.953 339.612 501.38C339.932 501.793 340.092 502.3 340.092 502.9C340.092 503.553 339.919 504.073 339.572 504.46C339.239 504.833 338.779 505.107 338.192 505.28V505.36C338.592 505.48 338.959 505.647 339.292 505.86C339.639 506.073 339.912 506.353 340.112 506.7C340.325 507.047 340.432 507.493 340.432 508.04C340.432 508.627 340.279 509.16 339.972 509.64C339.665 510.12 339.185 510.5 338.532 510.78C337.892 511.06 337.072 511.2 336.072 511.2C335.592 511.2 335.132 511.173 334.692 511.12C334.265 511.067 333.872 510.987 333.512 510.88C333.165 510.773 332.859 510.647 332.592 510.5V508.92C333.019 509.133 333.525 509.327 334.112 509.5C334.699 509.673 335.339 509.76 336.032 509.76C336.539 509.76 336.992 509.7 337.392 509.58C337.792 509.46 338.112 509.273 338.352 509.02C338.592 508.753 338.712 508.393 338.712 507.94C338.712 507.527 338.605 507.193 338.392 506.94C338.179 506.673 337.859 506.473 337.432 506.34C337.019 506.207 336.485 506.14 335.832 506.14H334.512V504.7H335.592C336.459 504.7 337.152 504.58 337.672 504.34C338.192 504.087 338.452 503.66 338.452 503.06C338.452 502.553 338.252 502.173 337.852 501.92C337.465 501.667 336.905 501.54 336.172 501.54C335.625 501.54 335.132 501.6 334.692 501.72C334.265 501.827 333.805 501.993 333.312 502.22L332.692 500.82C333.239 500.567 333.812 500.38 334.412 500.26C335.012 500.14 335.639 500.08 336.292 500.08ZM351.169 505.62C351.169 506.513 351.056 507.307 350.829 508C350.616 508.68 350.302 509.26 349.889 509.74C349.476 510.22 348.976 510.587 348.389 510.84C347.802 511.08 347.149 511.2 346.429 511.2C345.762 511.2 345.142 511.08 344.569 510.84C344.009 510.587 343.516 510.22 343.089 509.74C342.676 509.26 342.356 508.68 342.129 508C341.902 507.307 341.789 506.513 341.789 505.62C341.789 504.433 341.976 503.433 342.349 502.62C342.736 501.793 343.282 501.167 343.989 500.74C344.696 500.3 345.529 500.08 346.489 500.08C347.409 500.08 348.216 500.3 348.909 500.74C349.616 501.167 350.169 501.793 350.569 502.62C350.969 503.433 351.169 504.433 351.169 505.62ZM343.589 505.62C343.589 506.46 343.689 507.193 343.889 507.82C344.089 508.433 344.402 508.907 344.829 509.24C345.256 509.573 345.802 509.74 346.469 509.74C347.136 509.74 347.682 509.573 348.109 509.24C348.536 508.907 348.849 508.433 349.049 507.82C349.262 507.193 349.369 506.46 349.369 505.62C349.369 504.767 349.262 504.04 349.049 503.44C348.849 502.84 348.536 502.38 348.109 502.06C347.682 501.727 347.129 501.56 346.449 501.56C345.449 501.56 344.722 501.92 344.269 502.64C343.816 503.36 343.589 504.353 343.589 505.62ZM361.435 502.98C361.435 503.647 361.249 504.167 360.875 504.54C360.502 504.913 360.015 505.167 359.415 505.3V505.38C360.042 505.473 360.589 505.713 361.055 506.1C361.522 506.473 361.755 507.06 361.755 507.86C361.755 508.313 361.675 508.733 361.515 509.12C361.369 509.507 361.129 509.84 360.795 510.12C360.462 510.4 360.035 510.62 359.515 510.78C358.995 510.927 358.369 511 357.635 511H353.255V500.28H357.615C358.349 500.28 359.002 500.367 359.575 500.54C360.149 500.7 360.602 500.98 360.935 501.38C361.269 501.767 361.435 502.3 361.435 502.98ZM359.955 507.86C359.955 507.247 359.735 506.807 359.295 506.54C358.869 506.273 358.242 506.14 357.415 506.14H354.995V509.58H357.455C358.255 509.58 358.869 509.453 359.295 509.2C359.735 508.933 359.955 508.487 359.955 507.86ZM359.675 503.2C359.675 502.693 359.502 502.327 359.155 502.1C358.822 501.86 358.282 501.74 357.535 501.74H354.995V504.68H357.215C358.029 504.68 358.642 504.56 359.055 504.32C359.469 504.08 359.675 503.707 359.675 503.2ZM367.514 500.1C368.74 500.1 369.654 500.387 370.254 500.96C370.867 501.533 371.174 502.447 371.174 503.7V511H369.914L369.574 509.48H369.494C369.2 509.867 368.9 510.193 368.594 510.46C368.3 510.713 367.954 510.9 367.554 511.02C367.167 511.14 366.687 511.2 366.114 511.2C365.514 511.2 364.974 511.087 364.494 510.86C364.014 510.633 363.634 510.287 363.354 509.82C363.074 509.34 362.934 508.74 362.934 508.02C362.934 506.953 363.327 506.133 364.114 505.56C364.9 504.973 366.114 504.653 367.754 504.6L369.454 504.54V503.9C369.454 503.007 369.274 502.387 368.914 502.04C368.567 501.693 368.067 501.52 367.414 501.52C366.894 501.52 366.394 501.607 365.914 501.78C365.447 501.94 365 502.127 364.574 502.34L364.034 501.02C364.487 500.767 365.014 500.553 365.614 500.38C366.214 500.193 366.847 500.1 367.514 500.1ZM367.994 505.82C366.767 505.873 365.914 506.087 365.434 506.46C364.967 506.833 364.734 507.36 364.734 508.04C364.734 508.64 364.9 509.08 365.234 509.36C365.567 509.64 366 509.78 366.534 509.78C367.36 509.78 368.054 509.533 368.614 509.04C369.174 508.533 369.454 507.76 369.454 506.72V505.76L367.994 505.82ZM380.859 501.76H377.559V511H375.839V501.76H372.579V500.28H380.859V501.76ZM386.085 500.08C386.952 500.08 387.699 500.28 388.325 500.68C388.952 501.08 389.432 501.647 389.765 502.38C390.112 503.1 390.285 503.947 390.285 504.92V505.98H383.405C383.432 507.193 383.719 508.12 384.265 508.76C384.812 509.387 385.579 509.7 386.565 509.7C387.205 509.7 387.772 509.64 388.265 509.52C388.772 509.387 389.292 509.2 389.825 508.96V510.5C389.305 510.74 388.792 510.913 388.285 511.02C387.792 511.14 387.192 511.2 386.485 511.2C385.525 511.2 384.679 510.993 383.945 510.58C383.212 510.167 382.639 509.553 382.225 508.74C381.812 507.913 381.605 506.907 381.605 505.72C381.605 504.547 381.792 503.54 382.165 502.7C382.539 501.86 383.059 501.213 383.725 500.76C384.405 500.307 385.192 500.08 386.085 500.08ZM386.085 501.52C385.312 501.52 384.699 501.793 384.245 502.34C383.792 502.873 383.525 503.62 383.445 504.58H388.485C388.485 503.967 388.399 503.433 388.225 502.98C388.052 502.527 387.785 502.173 387.425 501.92C387.079 501.653 386.632 501.52 386.085 501.52ZM400.11 511H398.35V501.74H395.41C395.29 503.433 395.13 504.88 394.93 506.08C394.743 507.267 394.503 508.233 394.21 508.98C393.93 509.727 393.59 510.273 393.19 510.62C392.79 510.967 392.317 511.14 391.77 511.14C391.597 511.14 391.423 511.127 391.25 511.1C391.09 511.087 390.957 511.053 390.85 511V509.68C390.93 509.707 391.017 509.727 391.11 509.74C391.203 509.753 391.297 509.76 391.39 509.76C391.657 509.76 391.897 509.64 392.11 509.4C392.337 509.16 392.537 508.793 392.71 508.3C392.897 507.807 393.063 507.187 393.21 506.44C393.357 505.68 393.483 504.787 393.59 503.76C393.71 502.733 393.817 501.573 393.91 500.28H400.11V511ZM406.687 500.08C407.554 500.08 408.3 500.28 408.927 500.68C409.554 501.08 410.034 501.647 410.367 502.38C410.714 503.1 410.887 503.947 410.887 504.92V505.98H404.007C404.034 507.193 404.32 508.12 404.867 508.76C405.414 509.387 406.18 509.7 407.167 509.7C407.807 509.7 408.374 509.64 408.867 509.52C409.374 509.387 409.894 509.2 410.427 508.96V510.5C409.907 510.74 409.394 510.913 408.887 511.02C408.394 511.14 407.794 511.2 407.087 511.2C406.127 511.2 405.28 510.993 404.547 510.58C403.814 510.167 403.24 509.553 402.827 508.74C402.414 507.913 402.207 506.907 402.207 505.72C402.207 504.547 402.394 503.54 402.767 502.7C403.14 501.86 403.66 501.213 404.327 500.76C405.007 500.307 405.794 500.08 406.687 500.08ZM406.687 501.52C405.914 501.52 405.3 501.793 404.847 502.34C404.394 502.873 404.127 503.62 404.047 504.58H409.087C409.087 503.967 409 503.433 408.827 502.98C408.654 502.527 408.387 502.173 408.027 501.92C407.68 501.653 407.234 501.52 406.687 501.52ZM421.191 495.84C421.138 496.507 420.978 497.067 420.711 497.52C420.458 497.973 420.071 498.313 419.551 498.54C419.045 498.767 418.385 498.88 417.571 498.88C416.731 498.88 416.058 498.767 415.551 498.54C415.058 498.313 414.691 497.98 414.451 497.54C414.225 497.087 414.085 496.52 414.031 495.84H415.651C415.718 496.56 415.898 497.047 416.191 497.3C416.485 497.54 416.951 497.66 417.591 497.66C418.178 497.66 418.638 497.533 418.971 497.28C419.305 497.013 419.498 496.533 419.551 495.84H421.191ZM414.551 506.82C414.551 506.94 414.545 507.113 414.531 507.34C414.531 507.553 414.525 507.787 414.511 508.04C414.498 508.28 414.485 508.513 414.471 508.74C414.458 508.953 414.445 509.127 414.431 509.26L419.791 500.28H421.911V511H420.291V504.68C420.291 504.467 420.291 504.187 420.291 503.84C420.305 503.493 420.318 503.153 420.331 502.82C420.345 502.473 420.358 502.213 420.371 502.04L415.071 511H412.911V500.28H414.551V506.82ZM424.359 509.92C424.359 509.427 424.472 509.08 424.699 508.88C424.926 508.68 425.206 508.58 425.539 508.58C425.872 508.58 426.159 508.68 426.399 508.88C426.639 509.08 426.759 509.427 426.759 509.92C426.759 510.4 426.639 510.747 426.399 510.96C426.159 511.173 425.872 511.28 425.539 511.28C425.206 511.28 424.926 511.173 424.699 510.96C424.472 510.747 424.359 510.4 424.359 509.92Z" fill="white"/>
<path d="M197.931 366.76C196.651 366.76 195.491 367.013 194.451 367.52C193.437 368 192.571 368.72 191.851 369.68C191.157 370.64 190.624 371.8 190.251 373.16C189.877 374.52 189.691 376.053 189.691 377.76C189.691 380 189.997 381.947 190.611 383.6C191.224 385.227 192.144 386.48 193.371 387.36C194.597 388.24 196.117 388.68 197.931 388.68C199.104 388.68 200.224 388.573 201.291 388.36C202.357 388.12 203.437 387.813 204.531 387.44V391.16C203.464 391.587 202.371 391.893 201.251 392.08C200.157 392.293 198.877 392.4 197.411 392.4C194.637 392.4 192.344 391.8 190.531 390.6C188.717 389.4 187.357 387.693 186.451 385.48C185.544 383.267 185.091 380.68 185.091 377.72C185.091 375.56 185.371 373.587 185.931 371.8C186.491 369.987 187.317 368.427 188.411 367.12C189.504 365.813 190.851 364.813 192.451 364.12C194.051 363.4 195.877 363.04 197.931 363.04C199.317 363.04 200.677 363.2 202.011 363.52C203.344 363.813 204.531 364.24 205.571 364.8L204.011 368.4C203.131 367.973 202.171 367.6 201.131 367.28C200.117 366.933 199.051 366.76 197.931 366.76ZM222.398 370.44H227.158L218.798 380.8L227.878 392H222.878L214.118 381.08V392H209.798V370.44H214.118V380.92L222.398 370.44ZM248.543 381.2C248.543 382.987 248.316 384.573 247.863 385.96C247.409 387.347 246.756 388.52 245.903 389.48C245.076 390.44 244.063 391.173 242.863 391.68C241.663 392.16 240.316 392.4 238.823 392.4C237.463 392.4 236.196 392.16 235.023 391.68C233.849 391.173 232.836 390.44 231.983 389.48C231.129 388.52 230.463 387.347 229.983 385.96C229.529 384.573 229.303 382.973 229.303 381.16C229.303 378.787 229.689 376.773 230.463 375.12C231.236 373.467 232.343 372.213 233.783 371.36C235.249 370.48 236.983 370.04 238.983 370.04C240.849 370.04 242.503 370.48 243.943 371.36C245.383 372.213 246.503 373.467 247.303 375.12C248.129 376.773 248.543 378.8 248.543 381.2ZM233.783 381.2C233.783 382.8 233.956 384.187 234.303 385.36C234.676 386.507 235.236 387.387 235.983 388C236.756 388.613 237.729 388.92 238.903 388.92C240.103 388.92 241.076 388.613 241.823 388C242.596 387.387 243.156 386.507 243.503 385.36C243.876 384.187 244.063 382.8 244.063 381.2C244.063 379.547 243.876 378.16 243.503 377.04C243.129 375.92 242.569 375.067 241.823 374.48C241.076 373.867 240.089 373.56 238.863 373.56C237.076 373.56 235.783 374.227 234.983 375.56C234.183 376.893 233.783 378.773 233.783 381.2ZM263.87 370.04C266.296 370.04 268.243 370.973 269.71 372.84C271.176 374.707 271.91 377.493 271.91 381.2C271.91 383.627 271.563 385.68 270.87 387.36C270.203 389.04 269.256 390.307 268.03 391.16C266.803 391.987 265.376 392.4 263.75 392.4C262.763 392.4 261.883 392.267 261.11 392C260.336 391.707 259.683 391.333 259.15 390.88C258.643 390.4 258.19 389.893 257.79 389.36H257.55C257.603 389.84 257.656 390.413 257.71 391.08C257.763 391.72 257.79 392.293 257.79 392.8V401.6H253.47V370.44H256.99L257.59 373.32H257.79C258.19 372.733 258.656 372.187 259.19 371.68C259.75 371.173 260.403 370.773 261.15 370.48C261.923 370.187 262.83 370.04 263.87 370.04ZM262.71 373.52C261.536 373.52 260.59 373.787 259.87 374.32C259.15 374.827 258.616 375.6 258.27 376.64C257.95 377.653 257.79 378.947 257.79 380.52V381.16C257.79 382.813 257.936 384.227 258.23 385.4C258.55 386.547 259.07 387.427 259.79 388.04C260.536 388.627 261.536 388.92 262.79 388.92C263.856 388.92 264.736 388.6 265.43 387.96C266.123 387.293 266.63 386.373 266.95 385.2C267.296 384.027 267.47 382.667 267.47 381.12C267.47 378.773 267.07 376.92 266.27 375.56C265.496 374.2 264.31 373.52 262.71 373.52ZM294.988 381.2C294.988 382.987 294.761 384.573 294.308 385.96C293.855 387.347 293.201 388.52 292.348 389.48C291.521 390.44 290.508 391.173 289.308 391.68C288.108 392.16 286.761 392.4 285.268 392.4C283.908 392.4 282.641 392.16 281.468 391.68C280.295 391.173 279.281 390.44 278.428 389.48C277.575 388.52 276.908 387.347 276.428 385.96C275.975 384.573 275.748 382.973 275.748 381.16C275.748 378.787 276.135 376.773 276.908 375.12C277.681 373.467 278.788 372.213 280.228 371.36C281.695 370.48 283.428 370.04 285.428 370.04C287.295 370.04 288.948 370.48 290.388 371.36C291.828 372.213 292.948 373.467 293.748 375.12C294.575 376.773 294.988 378.8 294.988 381.2ZM280.228 381.2C280.228 382.8 280.401 384.187 280.748 385.36C281.121 386.507 281.681 387.387 282.428 388C283.201 388.613 284.175 388.92 285.348 388.92C286.548 388.92 287.521 388.613 288.268 388C289.041 387.387 289.601 386.507 289.948 385.36C290.321 384.187 290.508 382.8 290.508 381.2C290.508 379.547 290.321 378.16 289.948 377.04C289.575 375.92 289.015 375.067 288.268 374.48C287.521 373.867 286.535 373.56 285.308 373.56C283.521 373.56 282.228 374.227 281.428 375.56C280.628 376.893 280.228 378.773 280.228 381.2ZM308.275 392.4C306.382 392.4 304.715 392.013 303.275 391.24C301.862 390.467 300.755 389.267 299.955 387.64C299.182 385.987 298.795 383.893 298.795 381.36C298.795 378.693 299.222 376.533 300.075 374.88C300.928 373.227 302.088 372.013 303.555 371.24C305.022 370.44 306.702 370.04 308.595 370.04C309.715 370.04 310.782 370.173 311.795 370.44C312.835 370.68 313.688 370.96 314.355 371.28L313.035 374.68C312.368 374.413 311.648 374.173 310.875 373.96C310.102 373.747 309.368 373.64 308.675 373.64C307.448 373.64 306.435 373.933 305.635 374.52C304.862 375.08 304.275 375.933 303.875 377.08C303.475 378.2 303.275 379.613 303.275 381.32C303.275 382.947 303.475 384.32 303.875 385.44C304.275 386.56 304.862 387.413 305.635 388C306.435 388.56 307.395 388.84 308.515 388.84C309.608 388.84 310.582 388.707 311.435 388.44C312.315 388.173 313.128 387.827 313.875 387.4V391.08C313.128 391.533 312.315 391.867 311.435 392.08C310.555 392.293 309.502 392.4 308.275 392.4ZM333.868 373.84H327.188V392H322.908V373.84H316.308V370.44H333.868V373.84ZM347.167 379.12C349.033 379.12 350.567 379.36 351.767 379.84C352.993 380.293 353.9 380.973 354.487 381.88C355.1 382.787 355.407 383.933 355.407 385.32C355.407 386.68 355.113 387.867 354.527 388.88C353.94 389.867 353.033 390.64 351.807 391.2C350.58 391.733 348.967 392 346.967 392H337.767V370.44H342.087V379.12H347.167ZM351.047 385.48C351.047 384.307 350.673 383.507 349.927 383.08C349.207 382.627 348.127 382.4 346.687 382.4H342.087V388.8H346.767C348.02 388.8 349.047 388.547 349.847 388.04C350.647 387.533 351.047 386.68 351.047 385.48Z" fill="white"/>
<path d="M315.69 274.691C353.799 274.691 384.692 243.798 384.692 205.689C384.692 167.58 353.799 136.687 315.69 136.687C277.581 136.687 246.688 167.58 246.688 205.689C246.688 243.798 277.581 274.691 315.69 274.691Z" stroke="white" stroke-width="4.01675" stroke-linecap="round" stroke-linejoin="round"/>
<path d="M315.688 179.15V205.689L342.652 237.111" stroke="white" stroke-width="4.01675" stroke-linecap="round" stroke-linejoin="round"/>
<rect x="151.063" y="51.1027" width="125.406" height="214.678" rx="11.6904" fill="#1C1C1C" stroke="white" stroke-width="2.12553"/>
<rect x="157.44" y="59.6049" width="112.653" height="197.674" rx="11.6904" fill="#1C1C1C" stroke="white" stroke-width="2.12553"/>
<rect x="207.39" y="54.291" width="10.6276" height="2.12553" rx="1.06276" fill="white"/>
<rect x="220.143" y="54.291" width="2.12553" height="2.12553" rx="1.06276" fill="white"/>
<path d="M170.527 124.047V131.35H169.642V124.831H165.962V131.35H165.078V124.047H170.527ZM173.92 131.464C173.425 131.464 172.991 131.346 172.618 131.111C172.247 130.876 171.957 130.546 171.748 130.123C171.541 129.7 171.438 129.205 171.438 128.64C171.438 128.069 171.541 127.571 171.748 127.146C171.957 126.72 172.247 126.39 172.618 126.154C172.991 125.919 173.425 125.801 173.92 125.801C174.414 125.801 174.847 125.919 175.218 126.154C175.591 126.39 175.881 126.72 176.088 127.146C176.297 127.571 176.402 128.069 176.402 128.64C176.402 129.205 176.297 129.7 176.088 130.123C175.881 130.546 175.591 130.876 175.218 131.111C174.847 131.346 174.414 131.464 173.92 131.464ZM173.92 130.708C174.295 130.708 174.604 130.612 174.847 130.419C175.089 130.227 175.269 129.973 175.385 129.66C175.502 129.346 175.56 129.006 175.56 128.64C175.56 128.274 175.502 127.932 175.385 127.616C175.269 127.3 175.089 127.044 174.847 126.85C174.604 126.655 174.295 126.557 173.92 126.557C173.544 126.557 173.235 126.655 172.992 126.85C172.75 127.044 172.57 127.3 172.454 127.616C172.337 127.932 172.279 128.274 172.279 128.64C172.279 129.006 172.337 129.346 172.454 129.66C172.57 129.973 172.75 130.227 172.992 130.419C173.235 130.612 173.544 130.708 173.92 130.708ZM176.599 132.919V130.565H177.056C177.167 130.449 177.264 130.323 177.345 130.187C177.425 130.052 177.496 129.891 177.555 129.706C177.617 129.518 177.669 129.29 177.712 129.021C177.755 128.75 177.793 128.423 177.826 128.041L178.011 125.872H181.492V130.565H182.333V132.919H181.492V131.35H177.441V132.919H176.599ZM178.011 130.565H180.65V126.657H178.796L178.653 128.041C178.594 128.614 178.52 129.114 178.432 129.542C178.344 129.97 178.204 130.311 178.011 130.565ZM182.635 126.657V125.872H187.085V126.657H185.288V131.35H184.446V126.657H182.635ZM187.81 131.35V125.872H190.05C190.639 125.872 191.108 126.006 191.455 126.272C191.802 126.538 191.976 126.89 191.976 127.327C191.976 127.66 191.877 127.918 191.68 128.101C191.482 128.282 191.229 128.404 190.92 128.469C191.122 128.497 191.318 128.568 191.508 128.682C191.701 128.797 191.86 128.953 191.986 129.153C192.112 129.351 192.175 129.593 192.175 129.881C192.175 130.161 192.104 130.412 191.961 130.633C191.819 130.854 191.614 131.029 191.348 131.157C191.082 131.286 190.763 131.35 190.392 131.35H187.81ZM188.609 130.58H190.392C190.682 130.58 190.909 130.511 191.073 130.373C191.237 130.235 191.319 130.047 191.319 129.809C191.319 129.526 191.237 129.304 191.073 129.142C190.909 128.978 190.682 128.896 190.392 128.896H188.609V130.58ZM188.609 128.169H190.05C190.276 128.169 190.469 128.138 190.631 128.076C190.793 128.012 190.916 127.922 191.002 127.805C191.09 127.686 191.134 127.546 191.134 127.384C191.134 127.154 191.038 126.973 190.845 126.842C190.653 126.709 190.387 126.643 190.05 126.643H188.609V128.169ZM195.244 131.464C194.716 131.464 194.261 131.347 193.878 131.114C193.497 130.879 193.204 130.551 192.997 130.13C192.793 129.707 192.69 129.215 192.69 128.654C192.69 128.093 192.793 127.598 192.997 127.17C193.204 126.74 193.491 126.405 193.86 126.165C194.231 125.922 194.664 125.801 195.158 125.801C195.443 125.801 195.725 125.849 196.003 125.944C196.281 126.039 196.534 126.193 196.763 126.407C196.991 126.619 197.173 126.899 197.308 127.249C197.444 127.598 197.512 128.029 197.512 128.54V128.896H193.289V128.169H196.656C196.656 127.86 196.594 127.584 196.47 127.342C196.349 127.099 196.176 126.908 195.95 126.768C195.726 126.627 195.462 126.557 195.158 126.557C194.823 126.557 194.533 126.64 194.288 126.807C194.045 126.971 193.859 127.185 193.728 127.449C193.597 127.713 193.532 127.995 193.532 128.297V128.782C193.532 129.196 193.603 129.547 193.746 129.834C193.891 130.12 194.092 130.337 194.349 130.487C194.605 130.634 194.904 130.708 195.244 130.708C195.465 130.708 195.664 130.677 195.843 130.615C196.023 130.551 196.179 130.456 196.31 130.33C196.441 130.202 196.542 130.042 196.613 129.852L197.426 130.08C197.34 130.356 197.197 130.599 196.995 130.808C196.792 131.015 196.543 131.176 196.246 131.293C195.948 131.407 195.614 131.464 195.244 131.464ZM198.29 133.404V125.872H199.103V126.743H199.203C199.264 126.647 199.35 126.526 199.459 126.379C199.571 126.229 199.73 126.096 199.937 125.979C200.146 125.861 200.429 125.801 200.786 125.801C201.247 125.801 201.654 125.916 202.005 126.147C202.357 126.378 202.632 126.705 202.829 127.128C203.027 127.551 203.125 128.05 203.125 128.625C203.125 129.205 203.027 129.708 202.829 130.134C202.632 130.557 202.358 130.885 202.009 131.118C201.66 131.349 201.257 131.464 200.8 131.464C200.448 131.464 200.167 131.406 199.955 131.289C199.743 131.17 199.581 131.036 199.466 130.886C199.352 130.734 199.264 130.608 199.203 130.508H199.131V133.404H198.29ZM199.117 128.611C199.117 129.025 199.178 129.39 199.299 129.706C199.42 130.02 199.597 130.266 199.83 130.444C200.063 130.62 200.348 130.708 200.686 130.708C201.038 130.708 201.331 130.615 201.567 130.43C201.805 130.242 201.983 129.99 202.102 129.674C202.223 129.355 202.284 129.001 202.284 128.611C202.284 128.226 202.224 127.879 202.105 127.57C201.989 127.258 201.812 127.012 201.574 126.832C201.339 126.649 201.043 126.557 200.686 126.557C200.344 126.557 200.056 126.644 199.823 126.817C199.59 126.989 199.414 127.229 199.295 127.538C199.176 127.844 199.117 128.202 199.117 128.611ZM203.322 132.919V130.565H203.778C203.89 130.449 203.986 130.323 204.067 130.187C204.148 130.052 204.218 129.891 204.278 129.706C204.34 129.518 204.392 129.29 204.435 129.021C204.477 128.75 204.515 128.423 204.549 128.041L204.734 125.872H208.215V130.565H209.056V132.919H208.215V131.35H204.164V132.919H203.322ZM204.734 130.565H207.373V126.657H205.519L205.376 128.041C205.317 128.614 205.243 129.114 205.155 129.542C205.067 129.97 204.927 130.311 204.734 130.565ZM210.513 130.109L213.152 125.872H214.121V131.35H213.28V127.113L210.655 131.35H209.671V125.872H210.513V130.109ZM214.416 126.657V125.872H218.866V126.657H217.069V131.35H216.227V126.657H214.416ZM220.319 127.855H221.888C222.53 127.855 223.021 128.018 223.361 128.344C223.701 128.669 223.871 129.082 223.871 129.581C223.871 129.909 223.795 130.208 223.642 130.476C223.49 130.742 223.267 130.955 222.972 131.114C222.677 131.271 222.316 131.35 221.888 131.35H219.591V125.872H220.433V130.565H221.888C222.221 130.565 222.494 130.477 222.708 130.301C222.922 130.126 223.029 129.9 223.029 129.624C223.029 129.334 222.922 129.097 222.708 128.914C222.494 128.731 222.221 128.64 221.888 128.64H220.319V127.855ZM226.972 131.35V125.872H231.28V131.35H230.438V126.657H227.813V131.35H226.972ZM231.829 131.35V130.565H232.029C232.193 130.565 232.33 130.533 232.439 130.469C232.549 130.402 232.636 130.287 232.703 130.123C232.772 129.957 232.824 129.726 232.86 129.431C232.898 129.134 232.925 128.756 232.942 128.297L233.042 125.872H236.693V131.35H235.852V126.657H233.841L233.755 128.611C233.736 129.06 233.696 129.456 233.634 129.799C233.574 130.139 233.483 130.424 233.359 130.654C233.238 130.885 233.076 131.059 232.874 131.175C232.672 131.292 232.419 131.35 232.115 131.35H231.829ZM239.347 131.478C239 131.478 238.685 131.413 238.402 131.282C238.119 131.149 237.895 130.958 237.728 130.708C237.562 130.456 237.479 130.152 237.479 129.795C237.479 129.481 237.54 129.227 237.664 129.032C237.788 128.835 237.953 128.68 238.16 128.568C238.367 128.457 238.595 128.373 238.844 128.319C239.096 128.262 239.35 128.217 239.604 128.183C239.937 128.14 240.207 128.108 240.413 128.087C240.623 128.063 240.775 128.024 240.87 127.969C240.967 127.915 241.016 127.82 241.016 127.684V127.655C241.016 127.304 240.92 127.03 240.727 126.835C240.537 126.64 240.248 126.543 239.861 126.543C239.459 126.543 239.144 126.631 238.916 126.807C238.688 126.983 238.527 127.17 238.434 127.37L237.636 127.085C237.778 126.752 237.968 126.493 238.206 126.308C238.446 126.12 238.708 125.989 238.991 125.915C239.276 125.839 239.556 125.801 239.832 125.801C240.008 125.801 240.21 125.823 240.438 125.865C240.669 125.906 240.891 125.99 241.105 126.119C241.322 126.247 241.501 126.441 241.644 126.7C241.786 126.959 241.858 127.306 241.858 127.741V131.35H241.016V130.608H240.973C240.916 130.727 240.821 130.854 240.688 130.99C240.555 131.125 240.378 131.24 240.157 131.336C239.936 131.431 239.666 131.478 239.347 131.478ZM239.476 130.722C239.808 130.722 240.089 130.657 240.317 130.526C240.548 130.395 240.721 130.227 240.838 130.02C240.957 129.813 241.016 129.595 241.016 129.367V128.597C240.98 128.64 240.902 128.679 240.781 128.715C240.662 128.748 240.524 128.778 240.367 128.804C240.213 128.827 240.062 128.849 239.914 128.868C239.769 128.885 239.652 128.899 239.561 128.911C239.342 128.939 239.138 128.986 238.948 129.05C238.76 129.112 238.608 129.205 238.491 129.331C238.377 129.455 238.32 129.624 238.32 129.838C238.32 130.13 238.428 130.351 238.645 130.501C238.863 130.649 239.14 130.722 239.476 130.722ZM242.146 126.657V125.872H246.597V126.657H244.799V131.35H243.958V126.657H242.146ZM249.334 131.464C248.807 131.464 248.351 131.347 247.969 131.114C247.588 130.879 247.295 130.551 247.088 130.13C246.883 129.707 246.781 129.215 246.781 128.654C246.781 128.093 246.883 127.598 247.088 127.17C247.295 126.74 247.582 126.405 247.951 126.165C248.322 125.922 248.754 125.801 249.249 125.801C249.534 125.801 249.816 125.849 250.094 125.944C250.372 126.039 250.625 126.193 250.854 126.407C251.082 126.619 251.264 126.899 251.399 127.249C251.535 127.598 251.602 128.029 251.602 128.54V128.896H247.38V128.169H250.747C250.747 127.86 250.685 127.584 250.561 127.342C250.44 127.099 250.266 126.908 250.04 126.768C249.817 126.627 249.553 126.557 249.249 126.557C248.914 126.557 248.624 126.64 248.379 126.807C248.136 126.971 247.95 127.185 247.819 127.449C247.688 127.713 247.623 127.995 247.623 128.297V128.782C247.623 129.196 247.694 129.547 247.837 129.834C247.982 130.12 248.183 130.337 248.439 130.487C248.696 130.634 248.994 130.708 249.334 130.708C249.555 130.708 249.755 130.677 249.933 130.615C250.114 130.551 250.27 130.456 250.401 130.33C250.531 130.202 250.632 130.042 250.704 129.852L251.517 130.08C251.431 130.356 251.287 130.599 251.085 130.808C250.883 131.015 250.634 131.176 250.336 131.293C250.039 131.407 249.705 131.464 249.334 131.464ZM251.891 131.35L254.116 128.568L251.92 125.872H252.918L254.744 128.212H255.2V125.872H256.042V128.212H256.484L258.31 125.872H259.308L257.126 128.568L259.337 131.35H258.324L256.47 128.996H256.042V131.35H255.2V128.996H254.772L252.904 131.35H251.891ZM261.136 129.296V129.253C261.14 128.799 261.188 128.438 261.278 128.169C261.369 127.9 261.497 127.683 261.663 127.516C261.83 127.35 262.03 127.197 262.263 127.056C262.403 126.971 262.529 126.87 262.641 126.753C262.752 126.634 262.84 126.498 262.904 126.343C262.971 126.189 263.004 126.017 263.004 125.83C263.004 125.597 262.95 125.395 262.84 125.223C262.731 125.052 262.585 124.92 262.402 124.828C262.219 124.735 262.015 124.689 261.792 124.689C261.597 124.689 261.409 124.729 261.228 124.81C261.048 124.891 260.897 125.018 260.776 125.191C260.654 125.365 260.584 125.592 260.565 125.872H259.667C259.686 125.468 259.79 125.122 259.98 124.835C260.173 124.547 260.426 124.327 260.74 124.175C261.056 124.023 261.407 123.947 261.792 123.947C262.21 123.947 262.574 124.03 262.883 124.196C263.194 124.363 263.435 124.591 263.603 124.881C263.775 125.171 263.86 125.502 263.86 125.872C263.86 126.134 263.82 126.371 263.739 126.582C263.66 126.794 263.546 126.983 263.397 127.149C263.249 127.316 263.071 127.463 262.862 127.591C262.652 127.722 262.485 127.86 262.359 128.005C262.233 128.148 262.141 128.318 262.084 128.515C262.027 128.712 261.996 128.958 261.992 129.253V129.296H261.136ZM261.592 131.407C261.416 131.407 261.265 131.344 261.139 131.218C261.013 131.092 260.95 130.941 260.95 130.765C260.95 130.589 261.013 130.438 261.139 130.312C261.265 130.186 261.416 130.123 261.592 130.123C261.768 130.123 261.919 130.186 262.045 130.312C262.171 130.438 262.234 130.589 262.234 130.765C262.234 130.882 262.204 130.988 262.145 131.086C262.088 131.183 262.011 131.262 261.913 131.321C261.818 131.378 261.711 131.407 261.592 131.407Z" fill="white"/>
<rect x="174.602" y="155.982" width="79.3308" height="10.0419" rx="5.02094" stroke="white" stroke-width="1.00419"/>
<path d="M201.02 159.11V163.492H200.49V159.581H198.282V163.492H197.751V159.11H201.02ZM202.855 163.561C202.559 163.561 202.298 163.49 202.074 163.349C201.852 163.208 201.678 163.01 201.552 162.756C201.428 162.502 201.366 162.206 201.366 161.866C201.366 161.524 201.428 161.225 201.552 160.97C201.678 160.714 201.852 160.516 202.074 160.375C202.298 160.234 202.559 160.163 202.855 160.163C203.152 160.163 203.412 160.234 203.634 160.375C203.858 160.516 204.032 160.714 204.156 160.97C204.282 161.225 204.345 161.524 204.345 161.866C204.345 162.206 204.282 162.502 204.156 162.756C204.032 163.01 203.858 163.208 203.634 163.349C203.412 163.49 203.152 163.561 202.855 163.561ZM202.855 163.107C203.081 163.107 203.266 163.049 203.412 162.934C203.557 162.818 203.665 162.666 203.735 162.478C203.805 162.29 203.84 162.086 203.84 161.866C203.84 161.646 203.805 161.442 203.735 161.252C203.665 161.062 203.557 160.909 203.412 160.792C203.266 160.675 203.081 160.617 202.855 160.617C202.63 160.617 202.445 160.675 202.299 160.792C202.154 160.909 202.046 161.062 201.976 161.252C201.906 161.442 201.871 161.646 201.871 161.866C201.871 162.086 201.906 162.29 201.976 162.478C202.046 162.666 202.154 162.818 202.299 162.934C202.445 163.049 202.63 163.107 202.855 163.107ZM204.262 164.434V163.022H204.536C204.603 162.952 204.661 162.876 204.71 162.795C204.758 162.713 204.8 162.617 204.836 162.506C204.873 162.393 204.904 162.256 204.93 162.095C204.956 161.932 204.978 161.736 204.998 161.507L205.11 160.206H207.198V163.022H207.703V164.434H207.198V163.492H204.767V164.434H204.262ZM205.11 163.022H206.693V160.677H205.58L205.495 161.507C205.459 161.85 205.415 162.151 205.362 162.407C205.309 162.664 205.225 162.869 205.11 163.022ZM207.683 160.677V160.206H210.353V160.677H209.275V163.492H208.77V160.677H207.683ZM210.587 163.492V160.206H211.931C212.285 160.206 212.566 160.286 212.774 160.445C212.982 160.605 213.086 160.816 213.086 161.079C213.086 161.278 213.027 161.433 212.909 161.543C212.79 161.651 212.639 161.725 212.453 161.763C212.574 161.781 212.692 161.823 212.806 161.892C212.922 161.96 213.017 162.054 213.093 162.174C213.168 162.293 213.206 162.438 213.206 162.611C213.206 162.779 213.163 162.93 213.078 163.062C212.992 163.195 212.87 163.3 212.71 163.377C212.55 163.454 212.359 163.492 212.136 163.492H210.587ZM211.067 163.03H212.136C212.31 163.03 212.447 162.989 212.545 162.906C212.644 162.823 212.693 162.711 212.693 162.568C212.693 162.398 212.644 162.265 212.545 162.168C212.447 162.069 212.31 162.02 212.136 162.02H211.067V163.03ZM211.067 161.584H211.931C212.067 161.584 212.183 161.565 212.28 161.528C212.377 161.49 212.451 161.435 212.502 161.365C212.555 161.294 212.581 161.21 212.581 161.113C212.581 160.975 212.524 160.866 212.408 160.788C212.293 160.708 212.134 160.668 211.931 160.668H211.067V161.584ZM214.846 163.561C214.53 163.561 214.257 163.491 214.027 163.351C213.799 163.21 213.623 163.013 213.498 162.761C213.376 162.507 213.314 162.211 213.314 161.875C213.314 161.538 213.376 161.241 213.498 160.985C213.623 160.726 213.795 160.525 214.016 160.381C214.239 160.236 214.498 160.163 214.795 160.163C214.966 160.163 215.135 160.192 215.302 160.249C215.469 160.306 215.621 160.398 215.758 160.527C215.895 160.654 216.004 160.822 216.085 161.032C216.167 161.241 216.207 161.5 216.207 161.806V162.02H213.674V161.584H215.694C215.694 161.398 215.657 161.233 215.582 161.087C215.51 160.942 215.406 160.827 215.27 160.743C215.136 160.659 214.978 160.617 214.795 160.617C214.594 160.617 214.42 160.667 214.273 160.766C214.128 160.865 214.016 160.993 213.937 161.152C213.859 161.31 213.819 161.48 213.819 161.661V161.952C213.819 162.2 213.862 162.41 213.948 162.583C214.035 162.754 214.155 162.885 214.309 162.974C214.463 163.063 214.642 163.107 214.846 163.107C214.979 163.107 215.099 163.089 215.206 163.051C215.314 163.013 215.408 162.956 215.486 162.88C215.565 162.803 215.625 162.708 215.668 162.594L216.156 162.731C216.104 162.896 216.018 163.042 215.897 163.167C215.776 163.291 215.626 163.388 215.448 163.458C215.269 163.526 215.069 163.561 214.846 163.561ZM216.473 164.725V160.206H216.961V160.728H217.021C217.058 160.671 217.109 160.598 217.175 160.51C217.242 160.42 217.338 160.34 217.462 160.27C217.587 160.199 217.757 160.163 217.971 160.163C218.248 160.163 218.492 160.232 218.703 160.371C218.914 160.509 219.079 160.705 219.197 160.959C219.315 161.213 219.375 161.512 219.375 161.858C219.375 162.206 219.315 162.507 219.197 162.763C219.079 163.017 218.915 163.213 218.705 163.353C218.495 163.492 218.253 163.561 217.98 163.561C217.768 163.561 217.599 163.526 217.472 163.456C217.345 163.385 217.248 163.304 217.179 163.214C217.111 163.123 217.058 163.047 217.021 162.987H216.978V164.725H216.473ZM216.97 161.849C216.97 162.097 217.006 162.316 217.079 162.506C217.151 162.694 217.258 162.842 217.398 162.949C217.537 163.054 217.708 163.107 217.911 163.107C218.122 163.107 218.298 163.051 218.44 162.94C218.582 162.828 218.689 162.676 218.76 162.487C218.833 162.295 218.87 162.083 218.87 161.849C218.87 161.618 218.834 161.41 218.763 161.224C218.693 161.037 218.586 160.89 218.444 160.781C218.303 160.672 218.125 160.617 217.911 160.617C217.706 160.617 217.533 160.669 217.393 160.773C217.253 160.876 217.148 161.02 217.077 161.205C217.005 161.389 216.97 161.604 216.97 161.849ZM219.292 164.434V163.022H219.566C219.633 162.952 219.69 162.876 219.739 162.795C219.787 162.713 219.83 162.617 219.865 162.506C219.902 162.393 219.934 162.256 219.959 162.095C219.985 161.932 220.008 161.736 220.028 161.507L220.139 160.206H222.227V163.022H222.732V164.434H222.227V163.492H219.797V164.434H219.292ZM220.139 163.022H221.722V160.677H220.61L220.524 161.507C220.489 161.85 220.444 162.151 220.392 162.407C220.339 162.664 220.255 162.869 220.139 163.022ZM223.405 162.748L224.989 160.206H225.571V163.492H225.066V160.95L223.491 163.492H222.9V160.206H223.405V162.748ZM225.546 160.677V160.206H228.216V160.677H227.138V163.492H226.633V160.677H225.546ZM228.887 161.395H229.829C230.214 161.395 230.508 161.493 230.712 161.689C230.916 161.884 231.018 162.131 231.018 162.431C231.018 162.628 230.973 162.807 230.881 162.968C230.79 163.128 230.656 163.255 230.479 163.351C230.302 163.445 230.086 163.492 229.829 163.492H228.451V160.206H228.956V163.022H229.829C230.029 163.022 230.193 162.969 230.321 162.863C230.449 162.758 230.513 162.622 230.513 162.457C230.513 162.283 230.449 162.141 230.321 162.031C230.193 161.921 230.029 161.866 229.829 161.866H228.887V161.395Z" fill="white"/>
<rect x="174.602" y="171.045" width="79.3308" height="10.0419" rx="5.02094" stroke="white" stroke-width="1.00419"/>
<path d="M204.709 176.364C204.709 176.826 204.626 177.226 204.459 177.562C204.292 177.899 204.063 178.159 203.772 178.341C203.481 178.524 203.149 178.615 202.775 178.615C202.401 178.615 202.069 178.524 201.778 178.341C201.487 178.159 201.258 177.899 201.091 177.562C200.924 177.226 200.841 176.826 200.841 176.364C200.841 175.902 200.924 175.503 201.091 175.166C201.258 174.829 201.487 174.57 201.778 174.387C202.069 174.205 202.401 174.113 202.775 174.113C203.149 174.113 203.481 174.205 203.772 174.387C204.063 174.57 204.292 174.829 204.459 175.166C204.626 175.503 204.709 175.902 204.709 176.364ZM204.196 176.364C204.196 175.985 204.132 175.665 204.005 175.403C203.88 175.142 203.709 174.945 203.494 174.811C203.28 174.677 203.04 174.61 202.775 174.61C202.51 174.61 202.269 174.677 202.054 174.811C201.84 174.945 201.67 175.142 201.543 175.403C201.417 175.665 201.354 175.985 201.354 176.364C201.354 176.744 201.417 177.064 201.543 177.325C201.67 177.586 201.84 177.783 202.054 177.918C202.269 178.052 202.51 178.119 202.775 178.119C203.04 178.119 203.28 178.052 203.494 177.918C203.709 177.783 203.88 177.586 204.005 177.325C204.132 177.064 204.196 176.744 204.196 176.364ZM204.843 175.739V175.269H207.513V175.739H206.435V178.555H205.93V175.739H204.843ZM207.747 178.555V175.269H208.252V176.698H208.586L209.767 175.269H210.418L209.091 176.852L210.435 178.555H209.784L208.706 177.169H208.252V178.555H207.747ZM210.19 178.555V178.084H210.31C210.409 178.084 210.491 178.065 210.556 178.027C210.622 177.987 210.675 177.918 210.715 177.819C210.756 177.719 210.787 177.581 210.809 177.404C210.832 177.226 210.848 176.999 210.858 176.724L210.918 175.269H213.109V178.555H212.604V175.739H211.397L211.346 176.912C211.334 177.181 211.31 177.419 211.273 177.624C211.237 177.828 211.183 178 211.108 178.138C211.036 178.276 210.939 178.38 210.817 178.45C210.696 178.52 210.544 178.555 210.362 178.555H210.19ZM214.868 178.624C214.572 178.624 214.311 178.553 214.087 178.412C213.865 178.271 213.691 178.073 213.565 177.819C213.441 177.565 213.379 177.268 213.379 176.929C213.379 176.587 213.441 176.288 213.565 176.033C213.691 175.777 213.865 175.579 214.087 175.438C214.311 175.296 214.572 175.226 214.868 175.226C215.165 175.226 215.425 175.296 215.647 175.438C215.871 175.579 216.045 175.777 216.169 176.033C216.295 176.288 216.358 176.587 216.358 176.929C216.358 177.268 216.295 177.565 216.169 177.819C216.045 178.073 215.871 178.271 215.647 178.412C215.425 178.553 215.165 178.624 214.868 178.624ZM214.868 178.17C215.094 178.17 215.279 178.112 215.425 177.997C215.57 177.881 215.678 177.729 215.748 177.541C215.818 177.353 215.853 177.149 215.853 176.929C215.853 176.709 215.818 176.505 215.748 176.315C215.678 176.125 215.57 175.972 215.425 175.855C215.279 175.738 215.094 175.679 214.868 175.679C214.643 175.679 214.458 175.738 214.312 175.855C214.167 175.972 214.059 176.125 213.989 176.315C213.919 176.505 213.884 176.709 213.884 176.929C213.884 177.149 213.919 177.353 213.989 177.541C214.059 177.729 214.167 177.881 214.312 177.997C214.458 178.112 214.643 178.17 214.868 178.17ZM218.826 176.681V177.152H217.011V176.681H218.826ZM217.131 175.269V178.555H216.626V175.269H217.131ZM219.211 175.269V178.555H218.706V175.269H219.211ZM220.136 177.811L221.719 175.269H222.301V178.555H221.796V176.013L220.221 178.555H219.631V175.269H220.136V177.811ZM222.277 175.739V175.269H224.947V175.739H223.869V178.555H223.364V175.739H222.277ZM225.618 176.458H226.559C226.944 176.458 227.239 176.556 227.443 176.751C227.647 176.947 227.749 177.194 227.749 177.494C227.749 177.691 227.703 177.87 227.612 178.031C227.521 178.191 227.387 178.318 227.21 178.414C227.033 178.508 226.816 178.555 226.559 178.555H225.181V175.269H225.686V178.084H226.559C226.759 178.084 226.923 178.032 227.051 177.926C227.18 177.821 227.244 177.685 227.244 177.52C227.244 177.346 227.18 177.204 227.051 177.094C226.923 176.984 226.759 176.929 226.559 176.929H225.618V176.458Z" fill="white"/>
</svg>
