<svg width="720" height="600" viewBox="0 0 720 600" fill="none" xmlns="http://www.w3.org/2000/svg">
<rect width="720" height="600" fill="#1C1C1C"/>
<path d="M41.04 84.76C39.76 84.76 38.6 85.0133 37.56 85.52C36.5467 86 35.68 86.72 34.96 87.68C34.2667 88.64 33.7333 89.8 33.36 91.16C32.9867 92.52 32.8 94.0533 32.8 95.76C32.8 98 33.1067 99.9467 33.72 101.6C34.3333 103.227 35.2533 104.48 36.48 105.36C37.7067 106.24 39.2267 106.68 41.04 106.68C42.2133 106.68 43.3333 106.573 44.4 106.36C45.4667 106.12 46.5467 105.813 47.64 105.44V109.16C46.5733 109.587 45.48 109.893 44.36 110.08C43.2667 110.293 41.9867 110.4 40.52 110.4C37.7467 110.4 35.4533 109.8 33.64 108.6C31.8267 107.4 30.4667 105.693 29.56 103.48C28.6533 101.267 28.2 98.68 28.2 95.72C28.2 93.56 28.48 91.5867 29.04 89.8C29.6 87.9867 30.4267 86.4267 31.52 85.12C32.6133 83.8133 33.96 82.8133 35.56 82.12C37.16 81.4 38.9867 81.04 41.04 81.04C42.4267 81.04 43.7867 81.2 45.12 81.52C46.4533 81.8133 47.64 82.24 48.68 82.8L47.12 86.4C46.24 85.9733 45.28 85.6 44.24 85.28C43.2267 84.9333 42.16 84.76 41.04 84.76ZM65.5072 88.44H70.2672L61.9072 98.8L70.9872 110H65.9872L57.2272 99.08V110H52.9072V88.44H57.2272V98.92L65.5072 88.44ZM91.6522 99.2C91.6522 100.987 91.4255 102.573 90.9722 103.96C90.5189 105.347 89.8655 106.52 89.0122 107.48C88.1855 108.44 87.1722 109.173 85.9722 109.68C84.7722 110.16 83.4255 110.4 81.9322 110.4C80.5722 110.4 79.3055 110.16 78.1322 109.68C76.9589 109.173 75.9455 108.44 75.0922 107.48C74.2389 106.52 73.5722 105.347 73.0922 103.96C72.6389 102.573 72.4122 100.973 72.4122 99.16C72.4122 96.7867 72.7989 94.7733 73.5722 93.12C74.3455 91.4667 75.4522 90.2133 76.8922 89.36C78.3589 88.48 80.0922 88.04 82.0922 88.04C83.9589 88.04 85.6122 88.48 87.0522 89.36C88.4922 90.2133 89.6122 91.4667 90.4122 93.12C91.2389 94.7733 91.6522 96.8 91.6522 99.2ZM76.8922 99.2C76.8922 100.8 77.0655 102.187 77.4122 103.36C77.7855 104.507 78.3455 105.387 79.0922 106C79.8655 106.613 80.8389 106.92 82.0122 106.92C83.2122 106.92 84.1855 106.613 84.9322 106C85.7055 105.387 86.2655 104.507 86.6122 103.36C86.9855 102.187 87.1722 100.8 87.1722 99.2C87.1722 97.5467 86.9855 96.16 86.6122 95.04C86.2389 93.92 85.6789 93.0667 84.9322 92.48C84.1855 91.8667 83.1989 91.56 81.9722 91.56C80.1855 91.56 78.8922 92.2267 78.0922 93.56C77.2922 94.8933 76.8922 96.7733 76.8922 99.2ZM106.979 88.04C109.406 88.04 111.352 88.9733 112.819 90.84C114.286 92.7067 115.019 95.4933 115.019 99.2C115.019 101.627 114.672 103.68 113.979 105.36C113.312 107.04 112.366 108.307 111.139 109.16C109.912 109.987 108.486 110.4 106.859 110.4C105.872 110.4 104.992 110.267 104.219 110C103.446 109.707 102.792 109.333 102.259 108.88C101.752 108.4 101.299 107.893 100.899 107.36H100.659C100.712 107.84 100.766 108.413 100.819 109.08C100.872 109.72 100.899 110.293 100.899 110.8V119.6H96.5791V88.44H100.099L100.699 91.32H100.899C101.299 90.7333 101.766 90.1867 102.299 89.68C102.859 89.1733 103.512 88.7733 104.259 88.48C105.032 88.1867 105.939 88.04 106.979 88.04ZM105.819 91.52C104.646 91.52 103.699 91.7867 102.979 92.32C102.259 92.8267 101.726 93.6 101.379 94.64C101.059 95.6533 100.899 96.9467 100.899 98.52V99.16C100.899 100.813 101.046 102.227 101.339 103.4C101.659 104.547 102.179 105.427 102.899 106.04C103.646 106.627 104.646 106.92 105.899 106.92C106.966 106.92 107.846 106.6 108.539 105.96C109.232 105.293 109.739 104.373 110.059 103.2C110.406 102.027 110.579 100.667 110.579 99.12C110.579 96.7733 110.179 94.92 109.379 93.56C108.606 92.2 107.419 91.52 105.819 91.52ZM138.098 99.2C138.098 100.987 137.871 102.573 137.418 103.96C136.964 105.347 136.311 106.52 135.458 107.48C134.631 108.44 133.618 109.173 132.418 109.68C131.218 110.16 129.871 110.4 128.378 110.4C127.018 110.4 125.751 110.16 124.578 109.68C123.404 109.173 122.391 108.44 121.538 107.48C120.684 106.52 120.018 105.347 119.538 103.96C119.084 102.573 118.858 100.973 118.858 99.16C118.858 96.7867 119.244 94.7733 120.018 93.12C120.791 91.4667 121.898 90.2133 123.338 89.36C124.804 88.48 126.538 88.04 128.538 88.04C130.404 88.04 132.058 88.48 133.498 89.36C134.938 90.2133 136.058 91.4667 136.858 93.12C137.684 94.7733 138.098 96.8 138.098 99.2ZM123.338 99.2C123.338 100.8 123.511 102.187 123.858 103.36C124.231 104.507 124.791 105.387 125.538 106C126.311 106.613 127.284 106.92 128.458 106.92C129.658 106.92 130.631 106.613 131.378 106C132.151 105.387 132.711 104.507 133.058 103.36C133.431 102.187 133.618 100.8 133.618 99.2C133.618 97.5467 133.431 96.16 133.058 95.04C132.684 93.92 132.124 93.0667 131.378 92.48C130.631 91.8667 129.644 91.56 128.418 91.56C126.631 91.56 125.338 92.2267 124.538 93.56C123.738 94.8933 123.338 96.7733 123.338 99.2ZM151.384 110.4C149.491 110.4 147.824 110.013 146.384 109.24C144.971 108.467 143.864 107.267 143.064 105.64C142.291 103.987 141.904 101.893 141.904 99.36C141.904 96.6933 142.331 94.5333 143.184 92.88C144.038 91.2267 145.198 90.0133 146.664 89.24C148.131 88.44 149.811 88.04 151.704 88.04C152.824 88.04 153.891 88.1733 154.904 88.44C155.944 88.68 156.798 88.96 157.464 89.28L156.144 92.68C155.478 92.4133 154.758 92.1733 153.984 91.96C153.211 91.7467 152.478 91.64 151.784 91.64C150.558 91.64 149.544 91.9333 148.744 92.52C147.971 93.08 147.384 93.9333 146.984 95.08C146.584 96.2 146.384 97.6133 146.384 99.32C146.384 100.947 146.584 102.32 146.984 103.44C147.384 104.56 147.971 105.413 148.744 106C149.544 106.56 150.504 106.84 151.624 106.84C152.718 106.84 153.691 106.707 154.544 106.44C155.424 106.173 156.238 105.827 156.984 105.4V109.08C156.238 109.533 155.424 109.867 154.544 110.08C153.664 110.293 152.611 110.4 151.384 110.4ZM176.977 91.84H170.297V110H166.017V91.84H159.417V88.44H176.977V91.84ZM190.276 97.12C192.143 97.12 193.676 97.36 194.876 97.84C196.103 98.2933 197.009 98.9733 197.596 99.88C198.209 100.787 198.516 101.933 198.516 103.32C198.516 104.68 198.223 105.867 197.636 106.88C197.049 107.867 196.143 108.64 194.916 109.2C193.689 109.733 192.076 110 190.076 110H180.876V88.44H185.196V97.12H190.276ZM194.156 103.48C194.156 102.307 193.783 101.507 193.036 101.08C192.316 100.627 191.236 100.4 189.796 100.4H185.196V106.8H189.876C191.129 106.8 192.156 106.547 192.956 106.04C193.756 105.533 194.156 104.68 194.156 103.48Z" fill="white"/>
<path d="M34.316 270.81C33.5387 270.81 32.842 270.957 32.226 271.25C31.61 271.529 31.082 271.947 30.642 272.504C30.2167 273.047 29.8867 273.714 29.652 274.506C29.432 275.283 29.322 276.163 29.322 277.146C29.322 278.437 29.5053 279.559 29.872 280.512C30.2387 281.465 30.7887 282.199 31.522 282.712C32.27 283.225 33.194 283.482 34.294 283.482C34.9393 283.482 35.548 283.423 36.12 283.306C36.7067 283.189 37.286 283.042 37.858 282.866V284.582C37.3007 284.802 36.7287 284.963 36.142 285.066C35.5553 285.169 34.8513 285.22 34.03 285.22C32.5193 285.22 31.258 284.89 30.246 284.23C29.2487 283.57 28.5007 282.631 28.002 281.414C27.5033 280.197 27.254 278.767 27.254 277.124C27.254 275.936 27.408 274.851 27.716 273.868C28.024 272.885 28.4787 272.035 29.08 271.316C29.6813 270.597 30.422 270.047 31.302 269.666C32.182 269.27 33.194 269.072 34.338 269.072C35.086 269.072 35.812 269.153 36.516 269.314C37.22 269.475 37.858 269.703 38.43 269.996L37.66 271.668C37.2053 271.448 36.692 271.25 36.12 271.074C35.5627 270.898 34.9613 270.81 34.316 270.81ZM43.4556 273.208H45.5236L47.8776 279.918C48.0243 280.314 48.1563 280.695 48.2736 281.062C48.3909 281.429 48.4936 281.788 48.5816 282.14C48.6696 282.477 48.7356 282.807 48.7796 283.13H48.8456C48.9336 282.763 49.0583 282.287 49.2196 281.7C49.3956 281.099 49.5789 280.497 49.7696 279.896L51.9916 273.208H54.0816L49.3076 286.628C49.0436 287.361 48.7283 287.999 48.3616 288.542C48.0096 289.099 47.5769 289.525 47.0636 289.818C46.5503 290.126 45.9343 290.28 45.2156 290.28C44.8929 290.28 44.5996 290.258 44.3356 290.214C44.0863 290.185 43.8736 290.148 43.6976 290.104V288.564C43.8443 288.593 44.0276 288.623 44.2476 288.652C44.4676 288.681 44.6949 288.696 44.9296 288.696C45.3549 288.696 45.7216 288.608 46.0296 288.432C46.3376 288.271 46.6016 288.029 46.8216 287.706C47.0416 287.398 47.2249 287.031 47.3716 286.606L47.9216 285.044L43.4556 273.208ZM63.3016 273.208V283.372H64.9076V289.092H63.0816V285H55.3816V289.092H53.5556V283.372H54.4576C55.0883 282.433 55.609 281.414 56.0196 280.314C56.4303 279.199 56.7383 278.041 56.9436 276.838C57.1636 275.621 57.281 274.411 57.2956 273.208H63.3016ZM58.9896 274.726C58.931 275.723 58.7843 276.757 58.5496 277.828C58.3296 278.884 58.0363 279.896 57.6696 280.864C57.3176 281.832 56.907 282.668 56.4376 283.372H61.4316V274.726H58.9896ZM76.2388 279.082C76.2388 280.065 76.1142 280.937 75.8648 281.7C75.6302 282.448 75.2855 283.086 74.8308 283.614C74.3762 284.142 73.8262 284.545 73.1808 284.824C72.5355 285.088 71.8168 285.22 71.0248 285.22C70.2915 285.22 69.6095 285.088 68.9788 284.824C68.3628 284.545 67.8202 284.142 67.3508 283.614C66.8962 283.086 66.5442 282.448 66.2948 281.7C66.0455 280.937 65.9208 280.065 65.9208 279.082C65.9208 277.777 66.1262 276.677 66.5368 275.782C66.9622 274.873 67.5635 274.183 68.3408 273.714C69.1182 273.23 70.0348 272.988 71.0908 272.988C72.1028 272.988 72.9902 273.23 73.7528 273.714C74.5302 274.183 75.1388 274.873 75.5788 275.782C76.0188 276.677 76.2388 277.777 76.2388 279.082ZM67.9008 279.082C67.9008 280.006 68.0108 280.813 68.2308 281.502C68.4508 282.177 68.7955 282.697 69.2648 283.064C69.7342 283.431 70.3355 283.614 71.0688 283.614C71.8022 283.614 72.4035 283.431 72.8728 283.064C73.3422 282.697 73.6868 282.177 73.9068 281.502C74.1415 280.813 74.2588 280.006 74.2588 279.082C74.2588 278.143 74.1415 277.344 73.9068 276.684C73.6868 276.024 73.3422 275.518 72.8728 275.166C72.4035 274.799 71.7948 274.616 71.0468 274.616C69.9468 274.616 69.1475 275.012 68.6488 275.804C68.1502 276.596 67.9008 277.689 67.9008 279.082ZM78.0117 277.916C78.0117 276.2 78.173 274.741 78.4957 273.538C78.833 272.321 79.3464 271.353 80.0357 270.634C80.7397 269.901 81.6417 269.409 82.7417 269.16C83.6217 268.955 84.487 268.771 85.3377 268.61C86.1884 268.449 86.9877 268.302 87.7357 268.17L88.0657 269.864C87.699 269.923 87.2957 269.996 86.8557 270.084C86.4157 270.157 85.9684 270.238 85.5137 270.326C85.0737 270.399 84.641 270.48 84.2157 270.568C83.805 270.641 83.4384 270.715 83.1157 270.788C82.661 270.891 82.2504 271.067 81.8837 271.316C81.5317 271.551 81.2237 271.873 80.9597 272.284C80.7104 272.695 80.505 273.201 80.3437 273.802C80.197 274.403 80.109 275.115 80.0797 275.936H80.2117C80.4024 275.657 80.6664 275.371 81.0037 275.078C81.341 274.785 81.7444 274.535 82.2137 274.33C82.683 274.125 83.2184 274.022 83.8197 274.022C84.773 274.022 85.5724 274.249 86.2177 274.704C86.863 275.144 87.347 275.76 87.6697 276.552C88.007 277.344 88.1757 278.268 88.1757 279.324C88.1757 280.629 87.9557 281.722 87.5157 282.602C87.0904 283.482 86.4964 284.142 85.7337 284.582C84.971 285.007 84.0837 285.22 83.0717 285.22C82.309 285.22 81.6124 285.066 80.9817 284.758C80.3657 284.435 79.8304 283.966 79.3757 283.35C78.9357 282.734 78.5984 281.971 78.3637 281.062C78.129 280.153 78.0117 279.104 78.0117 277.916ZM83.2257 283.614C83.8124 283.614 84.3257 283.482 84.7657 283.218C85.2057 282.954 85.543 282.521 85.7777 281.92C86.027 281.319 86.1517 280.519 86.1517 279.522C86.1517 278.319 85.9464 277.373 85.5357 276.684C85.125 275.98 84.4504 275.628 83.5117 275.628C82.9104 275.628 82.3677 275.775 81.8837 276.068C81.3997 276.347 80.989 276.669 80.6517 277.036C80.329 277.403 80.1017 277.711 79.9697 277.96C79.9697 278.679 80.0137 279.375 80.1017 280.05C80.2044 280.725 80.373 281.333 80.6077 281.876C80.857 282.404 81.187 282.829 81.5977 283.152C82.023 283.46 82.5657 283.614 83.2257 283.614ZM94.9892 285.22C93.9918 285.22 93.1118 285.007 92.3492 284.582C91.5865 284.157 90.9852 283.497 90.5452 282.602C90.1198 281.707 89.9072 280.563 89.9072 279.17C89.9072 277.718 90.1345 276.537 90.5892 275.628C91.0438 274.719 91.6598 274.051 92.4372 273.626C93.2292 273.201 94.1238 272.988 95.1212 272.988C95.6932 272.988 96.2432 273.054 96.7712 273.186C97.3138 273.303 97.7538 273.45 98.0912 273.626L97.4972 275.232C97.1598 275.1 96.7638 274.975 96.3092 274.858C95.8692 274.741 95.4585 274.682 95.0772 274.682C94.3585 274.682 93.7645 274.851 93.2952 275.188C92.8258 275.525 92.4738 276.024 92.2392 276.684C92.0045 277.344 91.8872 278.165 91.8872 279.148C91.8872 280.087 92.0045 280.886 92.2392 281.546C92.4738 282.206 92.8185 282.705 93.2732 283.042C93.7425 283.379 94.3145 283.548 94.9892 283.548C95.5905 283.548 96.1258 283.482 96.5952 283.35C97.0645 283.218 97.4972 283.057 97.8932 282.866V284.582C97.5118 284.787 97.0938 284.941 96.6392 285.044C96.1845 285.161 95.6345 285.22 94.9892 285.22ZM107.801 274.836H104.171V285H102.279V274.836H98.6934V273.208H107.801V274.836ZM118.48 276.178C118.48 276.911 118.275 277.483 117.864 277.894C117.453 278.305 116.918 278.583 116.258 278.73V278.818C116.947 278.921 117.549 279.185 118.062 279.61C118.575 280.021 118.832 280.666 118.832 281.546C118.832 282.045 118.744 282.507 118.568 282.932C118.407 283.357 118.143 283.724 117.776 284.032C117.409 284.34 116.94 284.582 116.368 284.758C115.796 284.919 115.107 285 114.3 285H109.482V273.208H114.278C115.085 273.208 115.803 273.303 116.434 273.494C117.065 273.67 117.563 273.978 117.93 274.418C118.297 274.843 118.48 275.43 118.48 276.178ZM116.852 281.546C116.852 280.871 116.61 280.387 116.126 280.094C115.657 279.801 114.967 279.654 114.058 279.654H111.396V283.438H114.102C114.982 283.438 115.657 283.299 116.126 283.02C116.61 282.727 116.852 282.235 116.852 281.546ZM116.544 276.42C116.544 275.863 116.353 275.459 115.972 275.21C115.605 274.946 115.011 274.814 114.19 274.814H111.396V278.048H113.838C114.733 278.048 115.407 277.916 115.862 277.652C116.317 277.388 116.544 276.977 116.544 276.42ZM130.672 279.082C130.672 280.065 130.548 280.937 130.298 281.7C130.064 282.448 129.719 283.086 129.264 283.614C128.81 284.142 128.26 284.545 127.614 284.824C126.969 285.088 126.25 285.22 125.458 285.22C124.725 285.22 124.043 285.088 123.412 284.824C122.796 284.545 122.254 284.142 121.784 283.614C121.33 283.086 120.978 282.448 120.728 281.7C120.479 280.937 120.354 280.065 120.354 279.082C120.354 277.777 120.56 276.677 120.97 275.782C121.396 274.873 121.997 274.183 122.774 273.714C123.552 273.23 124.468 272.988 125.524 272.988C126.536 272.988 127.424 273.23 128.186 273.714C128.964 274.183 129.572 274.873 130.012 275.782C130.452 276.677 130.672 277.777 130.672 279.082ZM122.334 279.082C122.334 280.006 122.444 280.813 122.664 281.502C122.884 282.177 123.229 282.697 123.698 283.064C124.168 283.431 124.769 283.614 125.502 283.614C126.236 283.614 126.837 283.431 127.306 283.064C127.776 282.697 128.12 282.177 128.34 281.502C128.575 280.813 128.692 280.006 128.692 279.082C128.692 278.143 128.575 277.344 128.34 276.684C128.12 276.024 127.776 275.518 127.306 275.166C126.837 274.799 126.228 274.616 125.48 274.616C124.38 274.616 123.581 275.012 123.082 275.804C122.584 276.596 122.334 277.689 122.334 279.082ZM145.095 273.208V285H143.357V277.476C143.357 277.168 143.365 276.845 143.379 276.508C143.409 276.171 143.438 275.841 143.467 275.518H143.401L139.815 285H138.231L134.733 275.518H134.667C134.697 275.841 134.719 276.171 134.733 276.508C134.748 276.845 134.755 277.19 134.755 277.542V285H133.017V273.208H135.591L139.023 282.69L142.521 273.208H145.095ZM162.403 273.208V285H160.489V274.858H154.879V285H152.965V273.208H162.403ZM175.1 279.082C175.1 280.065 174.975 280.937 174.726 281.7C174.491 282.448 174.147 283.086 173.692 283.614C173.237 284.142 172.687 284.545 172.042 284.824C171.397 285.088 170.678 285.22 169.886 285.22C169.153 285.22 168.471 285.088 167.84 284.824C167.224 284.545 166.681 284.142 166.212 283.614C165.757 283.086 165.405 282.448 165.156 281.7C164.907 280.937 164.782 280.065 164.782 279.082C164.782 277.777 164.987 276.677 165.398 275.782C165.823 274.873 166.425 274.183 167.202 273.714C167.979 273.23 168.896 272.988 169.952 272.988C170.964 272.988 171.851 273.23 172.614 273.714C173.391 274.183 174 274.873 174.44 275.782C174.88 276.677 175.1 277.777 175.1 279.082ZM166.762 279.082C166.762 280.006 166.872 280.813 167.092 281.502C167.312 282.177 167.657 282.697 168.126 283.064C168.595 283.431 169.197 283.614 169.93 283.614C170.663 283.614 171.265 283.431 171.734 283.064C172.203 282.697 172.548 282.177 172.768 281.502C173.003 280.813 173.12 280.006 173.12 279.082C173.12 278.143 173.003 277.344 172.768 276.684C172.548 276.024 172.203 275.518 171.734 275.166C171.265 274.799 170.656 274.616 169.908 274.616C168.808 274.616 168.009 275.012 167.51 275.804C167.011 276.596 166.762 277.689 166.762 279.082ZM186.443 276.178C186.443 276.911 186.238 277.483 185.827 277.894C185.416 278.305 184.881 278.583 184.221 278.73V278.818C184.91 278.921 185.512 279.185 186.025 279.61C186.538 280.021 186.795 280.666 186.795 281.546C186.795 282.045 186.707 282.507 186.531 282.932C186.37 283.357 186.106 283.724 185.739 284.032C185.372 284.34 184.903 284.582 184.331 284.758C183.759 284.919 183.07 285 182.263 285H177.445V273.208H182.241C183.048 273.208 183.766 273.303 184.397 273.494C185.028 273.67 185.526 273.978 185.893 274.418C186.26 274.843 186.443 275.43 186.443 276.178ZM184.815 281.546C184.815 280.871 184.573 280.387 184.089 280.094C183.62 279.801 182.93 279.654 182.021 279.654H179.359V283.438H182.065C182.945 283.438 183.62 283.299 184.089 283.02C184.573 282.727 184.815 282.235 184.815 281.546ZM184.507 276.42C184.507 275.863 184.316 275.459 183.935 275.21C183.568 274.946 182.974 274.814 182.153 274.814H179.359V278.048H181.801C182.696 278.048 183.37 277.916 183.825 277.652C184.28 277.388 184.507 276.977 184.507 276.42ZM188.933 285V273.208H190.847V278.048H193.619C194.602 278.048 195.409 278.173 196.039 278.422C196.67 278.671 197.139 279.045 197.447 279.544C197.755 280.028 197.909 280.644 197.909 281.392C197.909 282.125 197.755 282.763 197.447 283.306C197.154 283.849 196.685 284.267 196.039 284.56C195.409 284.853 194.58 285 193.553 285H188.933ZM193.377 283.438C194.155 283.438 194.785 283.299 195.269 283.02C195.753 282.727 195.995 282.221 195.995 281.502C195.995 280.783 195.768 280.299 195.313 280.05C194.873 279.786 194.235 279.654 193.399 279.654H190.847V283.438H193.377ZM199.735 285V273.208H201.649V285H199.735ZM219.813 273.208V285H204.633V273.208H206.547V283.372H211.255V273.208H213.169V283.372H217.877V273.208H219.813ZM227.048 273.01C228.398 273.01 229.402 273.325 230.062 273.956C230.737 274.587 231.074 275.591 231.074 276.97V285H229.688L229.314 283.328H229.226C228.904 283.753 228.574 284.113 228.236 284.406C227.914 284.685 227.532 284.89 227.092 285.022C226.667 285.154 226.139 285.22 225.508 285.22C224.848 285.22 224.254 285.095 223.726 284.846C223.198 284.597 222.78 284.215 222.472 283.702C222.164 283.174 222.01 282.514 222.01 281.722C222.01 280.549 222.443 279.647 223.308 279.016C224.174 278.371 225.508 278.019 227.312 277.96L229.182 277.894V277.19C229.182 276.207 228.984 275.525 228.588 275.144C228.207 274.763 227.657 274.572 226.938 274.572C226.366 274.572 225.816 274.667 225.288 274.858C224.775 275.034 224.284 275.239 223.814 275.474L223.22 274.022C223.719 273.743 224.298 273.509 224.958 273.318C225.618 273.113 226.315 273.01 227.048 273.01ZM227.576 279.302C226.227 279.361 225.288 279.595 224.76 280.006C224.247 280.417 223.99 280.996 223.99 281.744C223.99 282.404 224.174 282.888 224.54 283.196C224.907 283.504 225.384 283.658 225.97 283.658C226.88 283.658 227.642 283.387 228.258 282.844C228.874 282.287 229.182 281.436 229.182 280.292V279.236L227.576 279.302ZM238.302 272.988C239.255 272.988 240.077 273.208 240.766 273.648C241.455 274.088 241.983 274.711 242.35 275.518C242.731 276.31 242.922 277.241 242.922 278.312V279.478H235.354C235.383 280.813 235.699 281.832 236.3 282.536C236.901 283.225 237.745 283.57 238.83 283.57C239.534 283.57 240.157 283.504 240.7 283.372C241.257 283.225 241.829 283.02 242.416 282.756V284.45C241.844 284.714 241.279 284.905 240.722 285.022C240.179 285.154 239.519 285.22 238.742 285.22C237.686 285.22 236.755 284.993 235.948 284.538C235.141 284.083 234.511 283.409 234.056 282.514C233.601 281.605 233.374 280.497 233.374 279.192C233.374 277.901 233.579 276.794 233.99 275.87C234.401 274.946 234.973 274.235 235.706 273.736C236.454 273.237 237.319 272.988 238.302 272.988ZM238.302 274.572C237.451 274.572 236.777 274.873 236.278 275.474C235.779 276.061 235.486 276.882 235.398 277.938H240.942C240.942 277.263 240.847 276.677 240.656 276.178C240.465 275.679 240.172 275.291 239.776 275.012C239.395 274.719 238.903 274.572 238.302 274.572ZM252.987 274.836H249.357V285H247.465V274.836H243.879V273.208H252.987V274.836ZM258.94 285.22C257.943 285.22 257.063 285.007 256.3 284.582C255.538 284.157 254.936 283.497 254.496 282.602C254.071 281.707 253.858 280.563 253.858 279.17C253.858 277.718 254.086 276.537 254.54 275.628C254.995 274.719 255.611 274.051 256.388 273.626C257.18 273.201 258.075 272.988 259.072 272.988C259.644 272.988 260.194 273.054 260.722 273.186C261.265 273.303 261.705 273.45 262.042 273.626L261.448 275.232C261.111 275.1 260.715 274.975 260.26 274.858C259.82 274.741 259.41 274.682 259.028 274.682C258.31 274.682 257.716 274.851 257.246 275.188C256.777 275.525 256.425 276.024 256.19 276.684C255.956 277.344 255.838 278.165 255.838 279.148C255.838 280.087 255.956 280.886 256.19 281.546C256.425 282.206 256.77 282.705 257.224 283.042C257.694 283.379 258.266 283.548 258.94 283.548C259.542 283.548 260.077 283.482 260.546 283.35C261.016 283.218 261.448 283.057 261.844 282.866V284.582C261.463 284.787 261.045 284.941 260.59 285.044C260.136 285.161 259.586 285.22 258.94 285.22ZM264.735 285H262.535L265.681 280.05C265.255 279.933 264.845 279.749 264.449 279.5C264.067 279.236 263.752 278.877 263.503 278.422C263.253 277.953 263.129 277.373 263.129 276.684C263.129 275.555 263.488 274.697 264.207 274.11C264.94 273.509 265.908 273.208 267.111 273.208H272.105V285H270.191V280.314H267.573L264.735 285ZM264.999 276.706C264.999 277.381 265.226 277.887 265.681 278.224C266.15 278.547 266.803 278.708 267.639 278.708H270.191V274.814H267.287C266.465 274.814 265.879 274.99 265.527 275.342C265.175 275.694 264.999 276.149 264.999 276.706ZM284.425 285.22C283.427 285.22 282.547 285.007 281.785 284.582C281.022 284.157 280.421 283.497 279.981 282.602C279.555 281.707 279.343 280.563 279.343 279.17C279.343 277.718 279.57 276.537 280.025 275.628C280.479 274.719 281.095 274.051 281.873 273.626C282.665 273.201 283.559 272.988 284.557 272.988C285.129 272.988 285.679 273.054 286.207 273.186C286.749 273.303 287.189 273.45 287.527 273.626L286.933 275.232C286.595 275.1 286.199 274.975 285.745 274.858C285.305 274.741 284.894 274.682 284.513 274.682C283.794 274.682 283.2 274.851 282.731 275.188C282.261 275.525 281.909 276.024 281.675 276.684C281.44 277.344 281.323 278.165 281.323 279.148C281.323 280.087 281.44 280.886 281.675 281.546C281.909 282.206 282.254 282.705 282.709 283.042C283.178 283.379 283.75 283.548 284.425 283.548C285.026 283.548 285.561 283.482 286.031 283.35C286.5 283.218 286.933 283.057 287.329 282.866V284.582C286.947 284.787 286.529 284.941 286.075 285.044C285.62 285.161 285.07 285.22 284.425 285.22ZM296.071 273.208H298.161L293.453 278.884L298.557 285H296.335L291.363 279.016V285H289.449V273.208H291.363V278.928L296.071 273.208ZM309.307 279.082C309.307 280.065 309.183 280.937 308.933 281.7C308.699 282.448 308.354 283.086 307.899 283.614C307.445 284.142 306.895 284.545 306.249 284.824C305.604 285.088 304.885 285.22 304.093 285.22C303.36 285.22 302.678 285.088 302.047 284.824C301.431 284.545 300.889 284.142 300.419 283.614C299.965 283.086 299.613 282.448 299.363 281.7C299.114 280.937 298.989 280.065 298.989 279.082C298.989 277.777 299.195 276.677 299.605 275.782C300.031 274.873 300.632 274.183 301.409 273.714C302.187 273.23 303.103 272.988 304.159 272.988C305.171 272.988 306.059 273.23 306.821 273.714C307.599 274.183 308.207 274.873 308.647 275.782C309.087 276.677 309.307 277.777 309.307 279.082ZM300.969 279.082C300.969 280.006 301.079 280.813 301.299 281.502C301.519 282.177 301.864 282.697 302.333 283.064C302.803 283.431 303.404 283.614 304.137 283.614C304.871 283.614 305.472 283.431 305.941 283.064C306.411 282.697 306.755 282.177 306.975 281.502C307.21 280.813 307.327 280.006 307.327 279.082C307.327 278.143 307.21 277.344 306.975 276.684C306.755 276.024 306.411 275.518 305.941 275.166C305.472 274.799 304.863 274.616 304.115 274.616C303.015 274.616 302.216 275.012 301.717 275.804C301.219 276.596 300.969 277.689 300.969 279.082ZM316.998 272.988C318.362 272.988 319.455 273.494 320.276 274.506C321.112 275.518 321.53 277.043 321.53 279.082C321.53 280.417 321.339 281.546 320.958 282.47C320.577 283.379 320.041 284.069 319.352 284.538C318.677 284.993 317.885 285.22 316.976 285.22C316.404 285.22 315.898 285.139 315.458 284.978C315.033 284.817 314.666 284.611 314.358 284.362C314.05 284.098 313.786 283.812 313.566 283.504H313.434C313.463 283.753 313.493 284.069 313.522 284.45C313.551 284.831 313.566 285.161 313.566 285.44V290.28H311.652V273.208H313.214L313.478 274.814H313.566C313.786 274.477 314.05 274.169 314.358 273.89C314.666 273.611 315.033 273.391 315.458 273.23C315.898 273.069 316.411 272.988 316.998 272.988ZM316.624 274.616C315.891 274.616 315.297 274.77 314.842 275.078C314.402 275.371 314.079 275.819 313.874 276.42C313.669 277.021 313.566 277.784 313.566 278.708V279.082C313.566 280.05 313.654 280.871 313.83 281.546C314.021 282.221 314.343 282.734 314.798 283.086C315.253 283.438 315.876 283.614 316.668 283.614C317.328 283.614 317.871 283.416 318.296 283.02C318.721 282.624 319.037 282.089 319.242 281.414C319.447 280.725 319.55 279.94 319.55 279.06C319.55 277.711 319.308 276.633 318.824 275.826C318.355 275.019 317.621 274.616 316.624 274.616ZM333.594 279.082C333.594 280.065 333.47 280.937 333.22 281.7C332.986 282.448 332.641 283.086 332.186 283.614C331.732 284.142 331.182 284.545 330.536 284.824C329.891 285.088 329.172 285.22 328.38 285.22C327.647 285.22 326.965 285.088 326.334 284.824C325.718 284.545 325.176 284.142 324.706 283.614C324.252 283.086 323.9 282.448 323.65 281.7C323.401 280.937 323.276 280.065 323.276 279.082C323.276 277.777 323.482 276.677 323.892 275.782C324.318 274.873 324.919 274.183 325.696 273.714C326.474 273.23 327.39 272.988 328.446 272.988C329.458 272.988 330.346 273.23 331.108 273.714C331.886 274.183 332.494 274.873 332.934 275.782C333.374 276.677 333.594 277.777 333.594 279.082ZM325.256 279.082C325.256 280.006 325.366 280.813 325.586 281.502C325.806 282.177 326.151 282.697 326.62 283.064C327.09 283.431 327.691 283.614 328.424 283.614C329.158 283.614 329.759 283.431 330.228 283.064C330.698 282.697 331.042 282.177 331.262 281.502C331.497 280.813 331.614 280.006 331.614 279.082C331.614 278.143 331.497 277.344 331.262 276.684C331.042 276.024 330.698 275.518 330.228 275.166C329.759 274.799 329.15 274.616 328.402 274.616C327.302 274.616 326.503 275.012 326.004 275.804C325.506 276.596 325.256 277.689 325.256 279.082ZM340.405 285.22C339.408 285.22 338.528 285.007 337.765 284.582C337.003 284.157 336.401 283.497 335.961 282.602C335.536 281.707 335.323 280.563 335.323 279.17C335.323 277.718 335.551 276.537 336.005 275.628C336.46 274.719 337.076 274.051 337.853 273.626C338.645 273.201 339.54 272.988 340.537 272.988C341.109 272.988 341.659 273.054 342.187 273.186C342.73 273.303 343.17 273.45 343.507 273.626L342.913 275.232C342.576 275.1 342.18 274.975 341.725 274.858C341.285 274.741 340.875 274.682 340.493 274.682C339.775 274.682 339.181 274.851 338.711 275.188C338.242 275.525 337.89 276.024 337.655 276.684C337.421 277.344 337.303 278.165 337.303 279.148C337.303 280.087 337.421 280.886 337.655 281.546C337.89 282.206 338.235 282.705 338.689 283.042C339.159 283.379 339.731 283.548 340.405 283.548C341.007 283.548 341.542 283.482 342.011 283.35C342.481 283.218 342.913 283.057 343.309 282.866V284.582C342.928 284.787 342.51 284.941 342.055 285.044C341.601 285.161 341.051 285.22 340.405 285.22ZM353.217 274.836H349.587V285H347.695V274.836H344.109V273.208H353.217V274.836ZM360.024 278.048C360.992 278.048 361.799 278.173 362.444 278.422C363.089 278.671 363.573 279.045 363.896 279.544C364.233 280.028 364.402 280.644 364.402 281.392C364.402 282.125 364.248 282.763 363.94 283.306C363.632 283.849 363.148 284.267 362.488 284.56C361.843 284.853 360.999 285 359.958 285H354.898V273.208H356.812V278.048H360.024ZM362.488 281.502C362.488 280.783 362.253 280.299 361.784 280.05C361.315 279.786 360.662 279.654 359.826 279.654H356.812V283.438H359.87C360.618 283.438 361.241 283.291 361.74 282.998C362.239 282.705 362.488 282.206 362.488 281.502ZM36.736 300.178C36.736 300.911 36.5307 301.483 36.12 301.894C35.7093 302.305 35.174 302.583 34.514 302.73V302.818C35.2033 302.921 35.8047 303.185 36.318 303.61C36.8313 304.021 37.088 304.666 37.088 305.546C37.088 306.045 37 306.507 36.824 306.932C36.6627 307.357 36.3987 307.724 36.032 308.032C35.6653 308.34 35.196 308.582 34.624 308.758C34.052 308.919 33.3627 309 32.556 309H27.738V297.208H32.534C33.3407 297.208 34.0593 297.303 34.69 297.494C35.3207 297.67 35.8193 297.978 36.186 298.418C36.5527 298.843 36.736 299.43 36.736 300.178ZM35.108 305.546C35.108 304.871 34.866 304.387 34.382 304.094C33.9127 303.801 33.2233 303.654 32.314 303.654H29.652V307.438H32.358C33.238 307.438 33.9127 307.299 34.382 307.02C34.866 306.727 35.108 306.235 35.108 305.546ZM34.8 300.42C34.8 299.863 34.6093 299.459 34.228 299.21C33.8613 298.946 33.2673 298.814 32.446 298.814H29.652V302.048H32.094C32.9887 302.048 33.6633 301.916 34.118 301.652C34.5727 301.388 34.8 300.977 34.8 300.42ZM42.2403 296.988C43.0763 296.988 43.8023 297.113 44.4183 297.362C45.0489 297.597 45.5403 297.949 45.8923 298.418C46.2443 298.873 46.4203 299.43 46.4203 300.09C46.4203 300.809 46.2296 301.381 45.8483 301.806C45.4816 302.217 44.9756 302.517 44.3303 302.708V302.796C44.7703 302.928 45.1736 303.111 45.5403 303.346C45.9216 303.581 46.2223 303.889 46.4423 304.27C46.6769 304.651 46.7943 305.143 46.7943 305.744C46.7943 306.389 46.6256 306.976 46.2883 307.504C45.9509 308.032 45.4229 308.45 44.7043 308.758C44.0003 309.066 43.0983 309.22 41.9983 309.22C41.4703 309.22 40.9643 309.191 40.4803 309.132C40.0109 309.073 39.5783 308.985 39.1823 308.868C38.8009 308.751 38.4636 308.611 38.1703 308.45V306.712C38.6396 306.947 39.1969 307.159 39.8423 307.35C40.4876 307.541 41.1916 307.636 41.9543 307.636C42.5116 307.636 43.0103 307.57 43.4503 307.438C43.8903 307.306 44.2423 307.101 44.5063 306.822C44.7703 306.529 44.9023 306.133 44.9023 305.634C44.9023 305.179 44.7849 304.813 44.5503 304.534C44.3156 304.241 43.9636 304.021 43.4943 303.874C43.0396 303.727 42.4529 303.654 41.7343 303.654H40.2823V302.07H41.4703C42.4236 302.07 43.1863 301.938 43.7583 301.674C44.3303 301.395 44.6163 300.926 44.6163 300.266C44.6163 299.709 44.3963 299.291 43.9563 299.012C43.5309 298.733 42.9149 298.594 42.1083 298.594C41.5069 298.594 40.9643 298.66 40.4803 298.792C40.0109 298.909 39.5049 299.093 38.9623 299.342L38.2803 297.802C38.8816 297.523 39.5123 297.318 40.1723 297.186C40.8323 297.054 41.5216 296.988 42.2403 296.988ZM53.1988 297.01C54.5482 297.01 55.5528 297.325 56.2128 297.956C56.8875 298.587 57.2248 299.591 57.2248 300.97V309H55.8388L55.4648 307.328H55.3768C55.0542 307.753 54.7242 308.113 54.3868 308.406C54.0642 308.685 53.6828 308.89 53.2428 309.022C52.8175 309.154 52.2895 309.22 51.6588 309.22C50.9988 309.22 50.4048 309.095 49.8768 308.846C49.3488 308.597 48.9308 308.215 48.6228 307.702C48.3148 307.174 48.1608 306.514 48.1608 305.722C48.1608 304.549 48.5935 303.647 49.4588 303.016C50.3242 302.371 51.6588 302.019 53.4628 301.96L55.3328 301.894V301.19C55.3328 300.207 55.1348 299.525 54.7388 299.144C54.3575 298.763 53.8075 298.572 53.0888 298.572C52.5168 298.572 51.9668 298.667 51.4388 298.858C50.9255 299.034 50.4342 299.239 49.9648 299.474L49.3708 298.022C49.8695 297.743 50.4488 297.509 51.1088 297.318C51.7688 297.113 52.4655 297.01 53.1988 297.01ZM53.7268 303.302C52.3775 303.361 51.4388 303.595 50.9108 304.006C50.3975 304.417 50.1408 304.996 50.1408 305.744C50.1408 306.404 50.3242 306.888 50.6908 307.196C51.0575 307.504 51.5342 307.658 52.1208 307.658C53.0302 307.658 53.7928 307.387 54.4088 306.844C55.0248 306.287 55.3328 305.436 55.3328 304.292V303.236L53.7268 303.302ZM61.9443 304.402C61.9443 304.534 61.937 304.725 61.9223 304.974C61.9223 305.209 61.915 305.465 61.9003 305.744C61.8857 306.008 61.871 306.265 61.8563 306.514C61.8417 306.749 61.827 306.939 61.8123 307.086L67.7083 297.208H70.0403V309H68.2583V302.048C68.2583 301.813 68.2583 301.505 68.2583 301.124C68.273 300.743 68.2877 300.369 68.3023 300.002C68.317 299.621 68.3317 299.335 68.3463 299.144L62.5163 309H60.1403V297.208H61.9443V304.402ZM85.1246 297.208V309H83.3866V301.476C83.3866 301.168 83.3939 300.845 83.4086 300.508C83.4379 300.171 83.4673 299.841 83.4966 299.518H83.4306L79.8446 309H78.2606L74.7626 299.518H74.6966C74.7259 299.841 74.7479 300.171 74.7626 300.508C74.7773 300.845 74.7846 301.19 74.7846 301.542V309H73.0466V297.208H75.6206L79.0526 306.69L82.5506 297.208H85.1246ZM97.8248 303.082C97.8248 304.065 97.7001 304.937 97.4508 305.7C97.2161 306.448 96.8714 307.086 96.4168 307.614C95.9621 308.142 95.4121 308.545 94.7668 308.824C94.1214 309.088 93.4028 309.22 92.6108 309.22C91.8774 309.22 91.1954 309.088 90.5648 308.824C89.9488 308.545 89.4061 308.142 88.9368 307.614C88.4821 307.086 88.1301 306.448 87.8808 305.7C87.6314 304.937 87.5068 304.065 87.5068 303.082C87.5068 301.777 87.7121 300.677 88.1228 299.782C88.5481 298.873 89.1494 298.183 89.9268 297.714C90.7041 297.23 91.6208 296.988 92.6768 296.988C93.6888 296.988 94.5761 297.23 95.3388 297.714C96.1161 298.183 96.7248 298.873 97.1648 299.782C97.6048 300.677 97.8248 301.777 97.8248 303.082ZM89.4868 303.082C89.4868 304.006 89.5968 304.813 89.8168 305.502C90.0368 306.177 90.3814 306.697 90.8508 307.064C91.3201 307.431 91.9214 307.614 92.6548 307.614C93.3881 307.614 93.9894 307.431 94.4588 307.064C94.9281 306.697 95.2728 306.177 95.4928 305.502C95.7274 304.813 95.8448 304.006 95.8448 303.082C95.8448 302.143 95.7274 301.344 95.4928 300.684C95.2728 300.024 94.9281 299.518 94.4588 299.166C93.9894 298.799 93.3808 298.616 92.6328 298.616C91.5328 298.616 90.7334 299.012 90.2348 299.804C89.7361 300.596 89.4868 301.689 89.4868 303.082ZM108.552 297.208V307.372H110.158V313.092H108.332V309H100.632V313.092H98.8056V307.372H99.7076C100.338 306.433 100.859 305.414 101.27 304.314C101.68 303.199 101.988 302.041 102.194 300.838C102.414 299.621 102.531 298.411 102.546 297.208H108.552ZM104.24 298.726C104.181 299.723 104.034 300.757 103.8 301.828C103.58 302.884 103.286 303.896 102.92 304.864C102.568 305.832 102.157 306.668 101.688 307.372H106.682V298.726H104.24ZM116.099 296.988C117.052 296.988 117.873 297.208 118.563 297.648C119.252 298.088 119.78 298.711 120.147 299.518C120.528 300.31 120.719 301.241 120.719 302.312V303.478H113.151C113.18 304.813 113.495 305.832 114.097 306.536C114.698 307.225 115.541 307.57 116.627 307.57C117.331 307.57 117.954 307.504 118.497 307.372C119.054 307.225 119.626 307.02 120.213 306.756V308.45C119.641 308.714 119.076 308.905 118.519 309.022C117.976 309.154 117.316 309.22 116.539 309.22C115.483 309.22 114.551 308.993 113.745 308.538C112.938 308.083 112.307 307.409 111.853 306.514C111.398 305.605 111.171 304.497 111.171 303.192C111.171 301.901 111.376 300.794 111.787 299.87C112.197 298.946 112.769 298.235 113.503 297.736C114.251 297.237 115.116 296.988 116.099 296.988ZM116.099 298.572C115.248 298.572 114.573 298.873 114.075 299.474C113.576 300.061 113.283 300.882 113.195 301.938H118.739C118.739 301.263 118.643 300.677 118.453 300.178C118.262 299.679 117.969 299.291 117.573 299.012C117.191 298.719 116.7 298.572 116.099 298.572ZM132.104 292.324C132.045 293.057 131.869 293.673 131.576 294.172C131.297 294.671 130.872 295.045 130.3 295.294C129.742 295.543 129.016 295.668 128.122 295.668C127.198 295.668 126.457 295.543 125.9 295.294C125.357 295.045 124.954 294.678 124.69 294.194C124.44 293.695 124.286 293.072 124.228 292.324H126.01C126.083 293.116 126.281 293.651 126.604 293.93C126.926 294.194 127.44 294.326 128.144 294.326C128.789 294.326 129.295 294.187 129.662 293.908C130.028 293.615 130.241 293.087 130.3 292.324H132.104ZM124.8 304.402C124.8 304.534 124.792 304.725 124.778 304.974C124.778 305.209 124.77 305.465 124.756 305.744C124.741 306.008 124.726 306.265 124.712 306.514C124.697 306.749 124.682 306.939 124.668 307.086L130.564 297.208H132.896V309H131.114V302.048C131.114 301.813 131.114 301.505 131.114 301.124C131.128 300.743 131.143 300.369 131.158 300.002C131.172 299.621 131.187 299.335 131.202 299.144L125.372 309H122.996V297.208H124.8V304.402ZM140.368 309.22C139.371 309.22 138.491 309.007 137.728 308.582C136.965 308.157 136.364 307.497 135.924 306.602C135.499 305.707 135.286 304.563 135.286 303.17C135.286 301.718 135.513 300.537 135.968 299.628C136.423 298.719 137.039 298.051 137.816 297.626C138.608 297.201 139.503 296.988 140.5 296.988C141.072 296.988 141.622 297.054 142.15 297.186C142.693 297.303 143.133 297.45 143.47 297.626L142.876 299.232C142.539 299.1 142.143 298.975 141.688 298.858C141.248 298.741 140.837 298.682 140.456 298.682C139.737 298.682 139.143 298.851 138.674 299.188C138.205 299.525 137.853 300.024 137.618 300.684C137.383 301.344 137.266 302.165 137.266 303.148C137.266 304.087 137.383 304.886 137.618 305.546C137.853 306.206 138.197 306.705 138.652 307.042C139.121 307.379 139.693 307.548 140.368 307.548C140.969 307.548 141.505 307.482 141.974 307.35C142.443 307.218 142.876 307.057 143.272 306.866V308.582C142.891 308.787 142.473 308.941 142.018 309.044C141.563 309.161 141.013 309.22 140.368 309.22ZM153.18 298.836H149.55V309H147.658V298.836H144.072V297.208H153.18V298.836ZM163.859 300.178C163.859 300.911 163.654 301.483 163.243 301.894C162.832 302.305 162.297 302.583 161.637 302.73V302.818C162.326 302.921 162.928 303.185 163.441 303.61C163.954 304.021 164.211 304.666 164.211 305.546C164.211 306.045 164.123 306.507 163.947 306.932C163.786 307.357 163.522 307.724 163.155 308.032C162.788 308.34 162.319 308.582 161.747 308.758C161.175 308.919 160.486 309 159.679 309H154.861V297.208H159.657C160.464 297.208 161.182 297.303 161.813 297.494C162.444 297.67 162.942 297.978 163.309 298.418C163.676 298.843 163.859 299.43 163.859 300.178ZM162.231 305.546C162.231 304.871 161.989 304.387 161.505 304.094C161.036 303.801 160.346 303.654 159.437 303.654H156.775V307.438H159.481C160.361 307.438 161.036 307.299 161.505 307.02C161.989 306.727 162.231 306.235 162.231 305.546ZM161.923 300.42C161.923 299.863 161.732 299.459 161.351 299.21C160.984 298.946 160.39 298.814 159.569 298.814H156.775V302.048H159.217C160.112 302.048 160.786 301.916 161.241 301.652C161.696 301.388 161.923 300.977 161.923 300.42ZM168.153 304.402C168.153 304.534 168.146 304.725 168.131 304.974C168.131 305.209 168.124 305.465 168.109 305.744C168.095 306.008 168.08 306.265 168.065 306.514C168.051 306.749 168.036 306.939 168.021 307.086L173.917 297.208H176.249V309H174.467V302.048C174.467 301.813 174.467 301.505 174.467 301.124C174.482 300.743 174.497 300.369 174.511 300.002C174.526 299.621 174.541 299.335 174.555 299.144L168.725 309H166.349V297.208H168.153V304.402ZM180.026 309H177.826L180.972 304.05C180.546 303.933 180.136 303.749 179.74 303.5C179.358 303.236 179.043 302.877 178.794 302.422C178.544 301.953 178.42 301.373 178.42 300.684C178.42 299.555 178.779 298.697 179.498 298.11C180.231 297.509 181.199 297.208 182.402 297.208H187.396V309H185.482V304.314H182.864L180.026 309ZM180.29 300.706C180.29 301.381 180.517 301.887 180.972 302.224C181.441 302.547 182.094 302.708 182.93 302.708H185.482V298.814H182.578C181.756 298.814 181.17 298.99 180.818 299.342C180.466 299.694 180.29 300.149 180.29 300.706ZM192.667 306.69C192.549 307.203 192.388 307.761 192.183 308.362C191.992 308.963 191.779 309.557 191.545 310.144C191.325 310.745 191.105 311.31 190.885 311.838H189.477C189.609 311.281 189.741 310.679 189.873 310.034C190.005 309.403 190.129 308.78 190.247 308.164C190.364 307.533 190.452 306.961 190.511 306.448H192.513L192.667 306.69ZM202.184 309.22C201.553 309.22 201.003 309.161 200.534 309.044C200.064 308.941 199.624 308.787 199.214 308.582V306.91C199.639 307.086 200.094 307.24 200.578 307.372C201.062 307.504 201.612 307.57 202.228 307.57C202.932 307.57 203.533 307.438 204.032 307.174C204.545 306.895 204.948 306.47 205.242 305.898C205.535 305.326 205.704 304.6 205.748 303.72H200.38V302.136H205.726C205.638 300.933 205.322 300.053 204.78 299.496C204.252 298.939 203.482 298.66 202.47 298.66C202.059 298.66 201.619 298.719 201.15 298.836C200.68 298.953 200.255 299.085 199.874 299.232L199.324 297.67C199.72 297.479 200.196 297.318 200.754 297.186C201.311 297.054 201.876 296.988 202.448 296.988C203.489 296.988 204.406 297.193 205.198 297.604C205.99 298.015 206.606 298.667 207.046 299.562C207.5 300.457 207.728 301.637 207.728 303.104C207.728 304.497 207.493 305.649 207.024 306.558C206.554 307.467 205.902 308.142 205.066 308.582C204.23 309.007 203.269 309.22 202.184 309.22ZM216.706 297.208H218.796L214.088 302.884L219.192 309H216.97L211.998 303.016V309H210.084V297.208H211.998V302.928L216.706 297.208ZM229.942 303.082C229.942 304.065 229.817 304.937 229.568 305.7C229.333 306.448 228.989 307.086 228.534 307.614C228.079 308.142 227.529 308.545 226.884 308.824C226.239 309.088 225.52 309.22 224.728 309.22C223.995 309.22 223.313 309.088 222.682 308.824C222.066 308.545 221.523 308.142 221.054 307.614C220.599 307.086 220.247 306.448 219.998 305.7C219.749 304.937 219.624 304.065 219.624 303.082C219.624 301.777 219.829 300.677 220.24 299.782C220.665 298.873 221.267 298.183 222.044 297.714C222.821 297.23 223.738 296.988 224.794 296.988C225.806 296.988 226.693 297.23 227.456 297.714C228.233 298.183 228.842 298.873 229.282 299.782C229.722 300.677 229.942 301.777 229.942 303.082ZM221.604 303.082C221.604 304.006 221.714 304.813 221.934 305.502C222.154 306.177 222.499 306.697 222.968 307.064C223.437 307.431 224.039 307.614 224.772 307.614C225.505 307.614 226.107 307.431 226.576 307.064C227.045 306.697 227.39 306.177 227.61 305.502C227.845 304.813 227.962 304.006 227.962 303.082C227.962 302.143 227.845 301.344 227.61 300.684C227.39 300.024 227.045 299.518 226.576 299.166C226.107 298.799 225.498 298.616 224.75 298.616C223.65 298.616 222.851 299.012 222.352 299.804C221.853 300.596 221.604 301.689 221.604 303.082ZM234.201 297.208V302.114H240.097V297.208H242.011V309H240.097V303.742H234.201V309H232.287V297.208H234.201ZM254.68 303.082C254.68 304.065 254.556 304.937 254.306 305.7C254.072 306.448 253.727 307.086 253.272 307.614C252.818 308.142 252.268 308.545 251.622 308.824C250.977 309.088 250.258 309.22 249.466 309.22C248.733 309.22 248.051 309.088 247.42 308.824C246.804 308.545 246.262 308.142 245.792 307.614C245.338 307.086 244.986 306.448 244.736 305.7C244.487 304.937 244.362 304.065 244.362 303.082C244.362 301.777 244.568 300.677 244.978 299.782C245.404 298.873 246.005 298.183 246.782 297.714C247.56 297.23 248.476 296.988 249.532 296.988C250.544 296.988 251.432 297.23 252.194 297.714C252.972 298.183 253.58 298.873 254.02 299.782C254.46 300.677 254.68 301.777 254.68 303.082ZM246.342 303.082C246.342 304.006 246.452 304.813 246.672 305.502C246.892 306.177 247.237 306.697 247.706 307.064C248.176 307.431 248.777 307.614 249.51 307.614C250.244 307.614 250.845 307.431 251.314 307.064C251.784 306.697 252.128 306.177 252.348 305.502C252.583 304.813 252.7 304.006 252.7 303.082C252.7 302.143 252.583 301.344 252.348 300.684C252.128 300.024 251.784 299.518 251.314 299.166C250.845 298.799 250.236 298.616 249.488 298.616C248.388 298.616 247.589 299.012 247.09 299.804C246.592 300.596 246.342 301.689 246.342 303.082ZM269.103 297.208V309H267.365V301.476C267.365 301.168 267.372 300.845 267.387 300.508C267.416 300.171 267.446 299.841 267.475 299.518H267.409L263.823 309H262.239L258.741 299.518H258.675C258.704 299.841 258.726 300.171 258.741 300.508C258.756 300.845 258.763 301.19 258.763 301.542V309H257.025V297.208H259.599L263.031 306.69L266.529 297.208H269.103ZM272.871 309H270.671L273.817 304.05C273.392 303.933 272.981 303.749 272.585 303.5C272.204 303.236 271.889 302.877 271.639 302.422C271.39 301.953 271.265 301.373 271.265 300.684C271.265 299.555 271.625 298.697 272.343 298.11C273.077 297.509 274.045 297.208 275.247 297.208H280.241V309H278.327V304.314H275.709L272.871 309ZM273.135 300.706C273.135 301.381 273.363 301.887 273.817 302.224C274.287 302.547 274.939 302.708 275.775 302.708H278.327V298.814H275.423C274.602 298.814 274.015 298.99 273.663 299.342C273.311 299.694 273.135 300.149 273.135 300.706ZM298.382 297.208V307.394H299.988V313.07H298.096V309H283.224V297.208H285.138V307.372H289.846V297.208H291.76V307.372H296.468V297.208H298.382ZM305.834 297.01C307.183 297.01 308.188 297.325 308.848 297.956C309.522 298.587 309.86 299.591 309.86 300.97V309H308.474L308.1 307.328H308.012C307.689 307.753 307.359 308.113 307.022 308.406C306.699 308.685 306.318 308.89 305.878 309.022C305.452 309.154 304.924 309.22 304.294 309.22C303.634 309.22 303.04 309.095 302.512 308.846C301.984 308.597 301.566 308.215 301.258 307.702C300.95 307.174 300.796 306.514 300.796 305.722C300.796 304.549 301.228 303.647 302.094 303.016C302.959 302.371 304.294 302.019 306.098 301.96L307.968 301.894V301.19C307.968 300.207 307.77 299.525 307.374 299.144C306.992 298.763 306.442 298.572 305.724 298.572C305.152 298.572 304.602 298.667 304.074 298.858C303.56 299.034 303.069 299.239 302.6 299.474L302.006 298.022C302.504 297.743 303.084 297.509 303.744 297.318C304.404 297.113 305.1 297.01 305.834 297.01ZM306.362 303.302C305.012 303.361 304.074 303.595 303.546 304.006C303.032 304.417 302.776 304.996 302.776 305.744C302.776 306.404 302.959 306.888 303.326 307.196C303.692 307.504 304.169 307.658 304.756 307.658C305.665 307.658 306.428 307.387 307.044 306.844C307.66 306.287 307.968 305.436 307.968 304.292V303.236L306.362 303.302ZM313.545 309H311.345L314.491 304.05C314.066 303.933 313.655 303.749 313.259 303.5C312.878 303.236 312.562 302.877 312.313 302.422C312.064 301.953 311.939 301.373 311.939 300.684C311.939 299.555 312.298 298.697 313.017 298.11C313.75 297.509 314.718 297.208 315.921 297.208H320.915V309H319.001V304.314H316.383L313.545 309ZM313.809 300.706C313.809 301.381 314.036 301.887 314.491 302.224C314.96 302.547 315.613 302.708 316.449 302.708H319.001V298.814H316.097C315.276 298.814 314.689 298.99 314.337 299.342C313.985 299.694 313.809 300.149 313.809 300.706ZM337.767 300.178C337.767 300.911 337.562 301.483 337.151 301.894C336.741 302.305 336.205 302.583 335.545 302.73V302.818C336.235 302.921 336.836 303.185 337.349 303.61C337.863 304.021 338.119 304.666 338.119 305.546C338.119 306.045 338.031 306.507 337.855 306.932C337.694 307.357 337.43 307.724 337.063 308.032C336.697 308.34 336.227 308.582 335.655 308.758C335.083 308.919 334.394 309 333.587 309H328.769V297.208H333.565C334.372 297.208 335.091 297.303 335.721 297.494C336.352 297.67 336.851 297.978 337.217 298.418C337.584 298.843 337.767 299.43 337.767 300.178ZM336.139 305.546C336.139 304.871 335.897 304.387 335.413 304.094C334.944 303.801 334.255 303.654 333.345 303.654H330.683V307.438H333.389C334.269 307.438 334.944 307.299 335.413 307.02C335.897 306.727 336.139 306.235 336.139 305.546ZM335.831 300.42C335.831 299.863 335.641 299.459 335.259 299.21C334.893 298.946 334.299 298.814 333.477 298.814H330.683V302.048H333.125C334.02 302.048 334.695 301.916 335.149 301.652C335.604 301.388 335.831 300.977 335.831 300.42ZM345.604 296.988C346.968 296.988 348.06 297.494 348.882 298.506C349.718 299.518 350.136 301.043 350.136 303.082C350.136 304.417 349.945 305.546 349.564 306.47C349.182 307.379 348.647 308.069 347.958 308.538C347.283 308.993 346.491 309.22 345.582 309.22C345.01 309.22 344.504 309.139 344.064 308.978C343.638 308.817 343.272 308.611 342.964 308.362C342.656 308.098 342.392 307.812 342.172 307.504H342.04C342.069 307.753 342.098 308.069 342.128 308.45C342.157 308.831 342.172 309.161 342.172 309.44V314.28H340.258V297.208H341.82L342.084 298.814H342.172C342.392 298.477 342.656 298.169 342.964 297.89C343.272 297.611 343.638 297.391 344.064 297.23C344.504 297.069 345.017 296.988 345.604 296.988ZM345.23 298.616C344.496 298.616 343.902 298.77 343.448 299.078C343.008 299.371 342.685 299.819 342.48 300.42C342.274 301.021 342.172 301.784 342.172 302.708V303.082C342.172 304.05 342.26 304.871 342.436 305.546C342.626 306.221 342.949 306.734 343.404 307.086C343.858 307.438 344.482 307.614 345.274 307.614C345.934 307.614 346.476 307.416 346.902 307.02C347.327 306.624 347.642 306.089 347.848 305.414C348.053 304.725 348.156 303.94 348.156 303.06C348.156 301.711 347.914 300.633 347.43 299.826C346.96 299.019 346.227 298.616 345.23 298.616ZM356.81 296.988C357.763 296.988 358.584 297.208 359.274 297.648C359.963 298.088 360.491 298.711 360.858 299.518C361.239 300.31 361.43 301.241 361.43 302.312V303.478H353.862C353.891 304.813 354.206 305.832 354.808 306.536C355.409 307.225 356.252 307.57 357.338 307.57C358.042 307.57 358.665 307.504 359.208 307.372C359.765 307.225 360.337 307.02 360.924 306.756V308.45C360.352 308.714 359.787 308.905 359.23 309.022C358.687 309.154 358.027 309.22 357.25 309.22C356.194 309.22 355.262 308.993 354.456 308.538C353.649 308.083 353.018 307.409 352.564 306.514C352.109 305.605 351.882 304.497 351.882 303.192C351.882 301.901 352.087 300.794 352.498 299.87C352.908 298.946 353.48 298.235 354.214 297.736C354.962 297.237 355.827 296.988 356.81 296.988ZM356.81 298.572C355.959 298.572 355.284 298.873 354.786 299.474C354.287 300.061 353.994 300.882 353.906 301.938H359.45C359.45 301.263 359.354 300.677 359.164 300.178C358.973 299.679 358.68 299.291 358.284 299.012C357.902 298.719 357.411 298.572 356.81 298.572ZM375.785 297.208V309H374.047V301.476C374.047 301.168 374.054 300.845 374.069 300.508C374.098 300.171 374.127 299.841 374.157 299.518H374.091L370.505 309H368.921L365.423 299.518H365.357C365.386 299.841 365.408 300.171 365.423 300.508C365.437 300.845 365.445 301.19 365.445 301.542V309H363.707V297.208H366.281L369.713 306.69L373.211 297.208H375.785ZM379.553 309H377.353L380.499 304.05C380.074 303.933 379.663 303.749 379.267 303.5C378.886 303.236 378.57 302.877 378.321 302.422C378.072 301.953 377.947 301.373 377.947 300.684C377.947 299.555 378.306 298.697 379.025 298.11C379.758 297.509 380.726 297.208 381.929 297.208H386.923V309H385.009V304.314H382.391L379.553 309ZM379.817 300.706C379.817 301.381 380.044 301.887 380.499 302.224C380.968 302.547 381.621 302.708 382.457 302.708H385.009V298.814H382.105C381.284 298.814 380.697 298.99 380.345 299.342C379.993 299.694 379.817 300.149 379.817 300.706ZM37.176 321.208V333H35.262V322.858H29.652V333H27.738V321.208H37.176ZM49.8736 327.082C49.8736 328.065 49.7489 328.937 49.4996 329.7C49.2649 330.448 48.9203 331.086 48.4656 331.614C48.0109 332.142 47.4609 332.545 46.8156 332.824C46.1703 333.088 45.4516 333.22 44.6596 333.22C43.9263 333.22 43.2443 333.088 42.6136 332.824C41.9976 332.545 41.4549 332.142 40.9856 331.614C40.5309 331.086 40.1789 330.448 39.9296 329.7C39.6803 328.937 39.5556 328.065 39.5556 327.082C39.5556 325.777 39.7609 324.677 40.1716 323.782C40.5969 322.873 41.1983 322.183 41.9756 321.714C42.7529 321.23 43.6696 320.988 44.7256 320.988C45.7376 320.988 46.6249 321.23 47.3876 321.714C48.1649 322.183 48.7736 322.873 49.2136 323.782C49.6536 324.677 49.8736 325.777 49.8736 327.082ZM41.5356 327.082C41.5356 328.006 41.6456 328.813 41.8656 329.502C42.0856 330.177 42.4303 330.697 42.8996 331.064C43.3689 331.431 43.9703 331.614 44.7036 331.614C45.4369 331.614 46.0383 331.431 46.5076 331.064C46.9769 330.697 47.3216 330.177 47.5416 329.502C47.7763 328.813 47.8936 328.006 47.8936 327.082C47.8936 326.143 47.7763 325.344 47.5416 324.684C47.3216 324.024 46.9769 323.518 46.5076 323.166C46.0383 322.799 45.4296 322.616 44.6816 322.616C43.5816 322.616 42.7823 323.012 42.2836 323.804C41.7849 324.596 41.5356 325.689 41.5356 327.082ZM60.7985 333H58.8625V322.814H55.6285C55.4965 324.677 55.3205 326.268 55.1005 327.588C54.8951 328.893 54.6311 329.957 54.3085 330.778C54.0005 331.599 53.6265 332.201 53.1865 332.582C52.7465 332.963 52.2258 333.154 51.6245 333.154C51.4338 333.154 51.2431 333.139 51.0525 333.11C50.8765 333.095 50.7298 333.059 50.6125 333V331.548C50.7005 331.577 50.7958 331.599 50.8985 331.614C51.0011 331.629 51.1038 331.636 51.2065 331.636C51.4998 331.636 51.7638 331.504 51.9985 331.24C52.2478 330.976 52.4678 330.573 52.6585 330.03C52.8638 329.487 53.0471 328.805 53.2085 327.984C53.3698 327.148 53.5091 326.165 53.6265 325.036C53.7585 323.907 53.8758 322.631 53.9785 321.208H60.7985V333ZM68.8972 326.048C69.8652 326.048 70.6719 326.173 71.3172 326.422C71.9625 326.671 72.4465 327.045 72.7692 327.544C73.1065 328.028 73.2752 328.644 73.2752 329.392C73.2752 330.125 73.1212 330.763 72.8132 331.306C72.5052 331.849 72.0212 332.267 71.3612 332.56C70.7159 332.853 69.8725 333 68.8312 333H63.7712V321.208H65.6852V326.048H68.8972ZM71.3612 329.502C71.3612 328.783 71.1265 328.299 70.6572 328.05C70.1879 327.786 69.5352 327.654 68.6992 327.654H65.6852V331.438H68.7432C69.4912 331.438 70.1145 331.291 70.6132 330.998C71.1119 330.705 71.3612 330.206 71.3612 329.502ZM78.5958 320.988C79.4318 320.988 80.1578 321.113 80.7738 321.362C81.4044 321.597 81.8958 321.949 82.2478 322.418C82.5998 322.873 82.7758 323.43 82.7758 324.09C82.7758 324.809 82.5851 325.381 82.2038 325.806C81.8371 326.217 81.3311 326.517 80.6858 326.708V326.796C81.1258 326.928 81.5291 327.111 81.8958 327.346C82.2771 327.581 82.5778 327.889 82.7978 328.27C83.0324 328.651 83.1498 329.143 83.1498 329.744C83.1498 330.389 82.9811 330.976 82.6438 331.504C82.3064 332.032 81.7784 332.45 81.0598 332.758C80.3558 333.066 79.4538 333.22 78.3538 333.22C77.8258 333.22 77.3198 333.191 76.8358 333.132C76.3664 333.073 75.9338 332.985 75.5378 332.868C75.1564 332.751 74.8191 332.611 74.5258 332.45V330.712C74.9951 330.947 75.5524 331.159 76.1978 331.35C76.8431 331.541 77.5471 331.636 78.3098 331.636C78.8671 331.636 79.3658 331.57 79.8058 331.438C80.2458 331.306 80.5978 331.101 80.8618 330.822C81.1258 330.529 81.2578 330.133 81.2578 329.634C81.2578 329.179 81.1404 328.813 80.9058 328.534C80.6711 328.241 80.3191 328.021 79.8498 327.874C79.3951 327.727 78.8084 327.654 78.0898 327.654H76.6378V326.07H77.8258C78.7791 326.07 79.5418 325.938 80.1138 325.674C80.6858 325.395 80.9718 324.926 80.9718 324.266C80.9718 323.709 80.7518 323.291 80.3117 323.012C79.8864 322.733 79.2704 322.594 78.4638 322.594C77.8624 322.594 77.3198 322.66 76.8358 322.792C76.3664 322.909 75.8604 323.093 75.3178 323.342L74.6358 321.802C75.2371 321.523 75.8678 321.318 76.5278 321.186C77.1878 321.054 77.8771 320.988 78.5958 320.988ZM95.0103 327.082C95.0103 328.065 94.8856 328.937 94.6363 329.7C94.4016 330.448 94.057 331.086 93.6023 331.614C93.1476 332.142 92.5976 332.545 91.9523 332.824C91.307 333.088 90.5883 333.22 89.7963 333.22C89.063 333.22 88.381 333.088 87.7503 332.824C87.1343 332.545 86.5916 332.142 86.1223 331.614C85.6676 331.086 85.3156 330.448 85.0663 329.7C84.817 328.937 84.6923 328.065 84.6923 327.082C84.6923 325.777 84.8976 324.677 85.3083 323.782C85.7336 322.873 86.335 322.183 87.1123 321.714C87.8896 321.23 88.8063 320.988 89.8623 320.988C90.8743 320.988 91.7616 321.23 92.5243 321.714C93.3016 322.183 93.9103 322.873 94.3503 323.782C94.7903 324.677 95.0103 325.777 95.0103 327.082ZM86.6723 327.082C86.6723 328.006 86.7823 328.813 87.0023 329.502C87.2223 330.177 87.567 330.697 88.0363 331.064C88.5056 331.431 89.107 331.614 89.8403 331.614C90.5736 331.614 91.175 331.431 91.6443 331.064C92.1136 330.697 92.4583 330.177 92.6783 329.502C92.913 328.813 93.0303 328.006 93.0303 327.082C93.0303 326.143 92.913 325.344 92.6783 324.684C92.4583 324.024 92.1136 323.518 91.6443 323.166C91.175 322.799 90.5663 322.616 89.8183 322.616C88.7183 322.616 87.919 323.012 87.4203 323.804C86.9216 324.596 86.6723 325.689 86.6723 327.082ZM106.353 324.178C106.353 324.911 106.148 325.483 105.737 325.894C105.327 326.305 104.791 326.583 104.131 326.73V326.818C104.821 326.921 105.422 327.185 105.935 327.61C106.449 328.021 106.705 328.666 106.705 329.546C106.705 330.045 106.617 330.507 106.441 330.932C106.28 331.357 106.016 331.724 105.649 332.032C105.283 332.34 104.813 332.582 104.241 332.758C103.669 332.919 102.98 333 102.173 333H97.3552V321.208H102.151C102.958 321.208 103.677 321.303 104.307 321.494C104.938 321.67 105.437 321.978 105.803 322.418C106.17 322.843 106.353 323.43 106.353 324.178ZM104.725 329.546C104.725 328.871 104.483 328.387 103.999 328.094C103.53 327.801 102.841 327.654 101.931 327.654H99.2692V331.438H101.975C102.855 331.438 103.53 331.299 103.999 331.02C104.483 330.727 104.725 330.235 104.725 329.546ZM104.417 324.42C104.417 323.863 104.227 323.459 103.845 323.21C103.479 322.946 102.885 322.814 102.063 322.814H99.2692V326.048H101.711C102.606 326.048 103.281 325.916 103.735 325.652C104.19 325.388 104.417 324.977 104.417 324.42ZM113.089 321.01C114.439 321.01 115.443 321.325 116.103 321.956C116.778 322.587 117.115 323.591 117.115 324.97V333H115.729L115.355 331.328H115.267C114.945 331.753 114.615 332.113 114.277 332.406C113.955 332.685 113.573 332.89 113.133 333.022C112.708 333.154 112.18 333.22 111.549 333.22C110.889 333.22 110.295 333.095 109.767 332.846C109.239 332.597 108.821 332.215 108.513 331.702C108.205 331.174 108.051 330.514 108.051 329.722C108.051 328.549 108.484 327.647 109.349 327.016C110.215 326.371 111.549 326.019 113.353 325.96L115.223 325.894V325.19C115.223 324.207 115.025 323.525 114.629 323.144C114.248 322.763 113.698 322.572 112.979 322.572C112.407 322.572 111.857 322.667 111.329 322.858C110.816 323.034 110.325 323.239 109.855 323.474L109.261 322.022C109.76 321.743 110.339 321.509 110.999 321.318C111.659 321.113 112.356 321.01 113.089 321.01ZM113.617 327.302C112.268 327.361 111.329 327.595 110.801 328.006C110.288 328.417 110.031 328.996 110.031 329.744C110.031 330.404 110.215 330.888 110.581 331.196C110.948 331.504 111.425 331.658 112.011 331.658C112.921 331.658 113.683 331.387 114.299 330.844C114.915 330.287 115.223 329.436 115.223 328.292V327.236L113.617 327.302ZM127.819 322.836H124.189V333H122.297V322.836H118.711V321.208H127.819V322.836ZM133.618 320.988C134.572 320.988 135.393 321.208 136.082 321.648C136.772 322.088 137.3 322.711 137.666 323.518C138.048 324.31 138.238 325.241 138.238 326.312V327.478H130.67C130.7 328.813 131.015 329.832 131.616 330.536C132.218 331.225 133.061 331.57 134.146 331.57C134.85 331.57 135.474 331.504 136.016 331.372C136.574 331.225 137.146 331.02 137.732 330.756V332.45C137.16 332.714 136.596 332.905 136.038 333.022C135.496 333.154 134.836 333.22 134.058 333.22C133.002 333.22 132.071 332.993 131.264 332.538C130.458 332.083 129.827 331.409 129.372 330.514C128.918 329.605 128.69 328.497 128.69 327.192C128.69 325.901 128.896 324.794 129.306 323.87C129.717 322.946 130.289 322.235 131.022 321.736C131.77 321.237 132.636 320.988 133.618 320.988ZM133.618 322.572C132.768 322.572 132.093 322.873 131.594 323.474C131.096 324.061 130.802 324.882 130.714 325.938H136.258C136.258 325.263 136.163 324.677 135.972 324.178C135.782 323.679 135.488 323.291 135.092 323.012C134.711 322.719 134.22 322.572 133.618 322.572ZM149.095 333H147.159V322.814H143.925C143.793 324.677 143.617 326.268 143.397 327.588C143.192 328.893 142.928 329.957 142.605 330.778C142.297 331.599 141.923 332.201 141.483 332.582C141.043 332.963 140.523 333.154 139.921 333.154C139.731 333.154 139.54 333.139 139.349 333.11C139.173 333.095 139.027 333.059 138.909 333V331.548C138.997 331.577 139.093 331.599 139.195 331.614C139.298 331.629 139.401 331.636 139.503 331.636C139.797 331.636 140.061 331.504 140.295 331.24C140.545 330.976 140.765 330.573 140.955 330.03C141.161 329.487 141.344 328.805 141.505 327.984C141.667 327.148 141.806 326.165 141.923 325.036C142.055 323.907 142.173 322.631 142.275 321.208H149.095V333ZM156.38 320.988C157.333 320.988 158.155 321.208 158.844 321.648C159.533 322.088 160.061 322.711 160.428 323.518C160.809 324.31 161 325.241 161 326.312V327.478H153.432C153.461 328.813 153.777 329.832 154.378 330.536C154.979 331.225 155.823 331.57 156.908 331.57C157.612 331.57 158.235 331.504 158.778 331.372C159.335 331.225 159.907 331.02 160.494 330.756V332.45C159.922 332.714 159.357 332.905 158.8 333.022C158.257 333.154 157.597 333.22 156.82 333.22C155.764 333.22 154.833 332.993 154.026 332.538C153.219 332.083 152.589 331.409 152.134 330.514C151.679 329.605 151.452 328.497 151.452 327.192C151.452 325.901 151.657 324.794 152.068 323.87C152.479 322.946 153.051 322.235 153.784 321.736C154.532 321.237 155.397 320.988 156.38 320.988ZM156.38 322.572C155.529 322.572 154.855 322.873 154.356 323.474C153.857 324.061 153.564 324.882 153.476 325.938H159.02C159.02 325.263 158.925 324.677 158.734 324.178C158.543 323.679 158.25 323.291 157.854 323.012C157.473 322.719 156.981 322.572 156.38 322.572ZM172.385 316.324C172.326 317.057 172.15 317.673 171.857 318.172C171.578 318.671 171.153 319.045 170.581 319.294C170.024 319.543 169.298 319.668 168.403 319.668C167.479 319.668 166.738 319.543 166.181 319.294C165.638 319.045 165.235 318.678 164.971 318.194C164.722 317.695 164.568 317.072 164.509 316.324H166.291C166.364 317.116 166.562 317.651 166.885 317.93C167.208 318.194 167.721 318.326 168.425 318.326C169.07 318.326 169.576 318.187 169.943 317.908C170.31 317.615 170.522 317.087 170.581 316.324H172.385ZM165.081 328.402C165.081 328.534 165.074 328.725 165.059 328.974C165.059 329.209 165.052 329.465 165.037 329.744C165.022 330.008 165.008 330.265 164.993 330.514C164.978 330.749 164.964 330.939 164.949 331.086L170.845 321.208H173.177V333H171.395V326.048C171.395 325.813 171.395 325.505 171.395 325.124C171.41 324.743 171.424 324.369 171.439 324.002C171.454 323.621 171.468 323.335 171.483 323.144L165.653 333H163.277V321.208H165.081V328.402ZM175.919 331.812C175.919 331.269 176.044 330.888 176.293 330.668C176.543 330.448 176.851 330.338 177.217 330.338C177.584 330.338 177.899 330.448 178.163 330.668C178.427 330.888 178.559 331.269 178.559 331.812C178.559 332.34 178.427 332.721 178.163 332.956C177.899 333.191 177.584 333.308 177.217 333.308C176.851 333.308 176.543 333.191 176.293 332.956C176.044 332.721 175.919 332.34 175.919 331.812Z" fill="white"/>
<path d="M617.452 411.395C656.196 411.395 687.604 379.987 687.604 341.243C687.604 302.499 656.196 271.091 617.452 271.091C578.708 271.091 547.3 302.499 547.3 341.243C547.3 379.987 578.708 411.395 617.452 411.395Z" stroke="white" stroke-width="4.08369" stroke-linecap="round" stroke-linejoin="round"/>
<path d="M617.451 314.261V341.243L644.864 373.189" stroke="white" stroke-width="4.08369" stroke-linecap="round" stroke-linejoin="round"/>
<rect x="450.08" y="184.08" width="127.496" height="218.256" rx="11.8852" fill="#1C1C1C" stroke="white" stroke-width="2.16095"/>
<rect x="456.563" y="192.724" width="114.53" height="200.969" rx="11.8852" fill="#1C1C1C" stroke="white" stroke-width="2.16095"/>
<rect x="507.346" y="187.322" width="10.8048" height="2.16095" rx="1.08048" fill="white"/>
<rect x="520.312" y="187.322" width="2.16095" height="2.16095" rx="1.08048" fill="white"/>
<path d="M469.869 258.123V265.548H468.97V258.921H465.228V265.548H464.329V258.123H469.869ZM473.318 265.664C472.816 265.664 472.374 265.545 471.995 265.305C471.618 265.066 471.323 264.731 471.11 264.301C470.9 263.871 470.795 263.368 470.795 262.793C470.795 262.213 470.9 261.706 471.11 261.274C471.323 260.841 471.618 260.505 471.995 260.266C472.374 260.027 472.816 259.907 473.318 259.907C473.821 259.907 474.261 260.027 474.638 260.266C475.017 260.505 475.312 260.841 475.523 261.274C475.735 261.706 475.842 262.213 475.842 262.793C475.842 263.368 475.735 263.871 475.523 264.301C475.312 264.731 475.017 265.066 474.638 265.305C474.261 265.545 473.821 265.664 473.318 265.664ZM473.318 264.896C473.7 264.896 474.014 264.798 474.261 264.602C474.507 264.406 474.69 264.149 474.808 263.83C474.927 263.511 474.986 263.165 474.986 262.793C474.986 262.421 474.927 262.074 474.808 261.752C474.69 261.431 474.507 261.171 474.261 260.973C474.014 260.775 473.7 260.676 473.318 260.676C472.936 260.676 472.622 260.775 472.376 260.973C472.129 261.171 471.947 261.431 471.828 261.752C471.71 262.074 471.651 262.421 471.651 262.793C471.651 263.165 471.71 263.511 471.828 263.83C471.947 264.149 472.129 264.406 472.376 264.602C472.622 264.798 472.936 264.896 473.318 264.896ZM476.043 267.143V264.751H476.507C476.62 264.632 476.718 264.504 476.8 264.366C476.883 264.229 476.954 264.065 477.014 263.877C477.077 263.686 477.13 263.454 477.174 263.181C477.217 262.905 477.256 262.573 477.29 262.184L477.478 259.98H481.017V264.751H481.872V267.143H481.017V265.548H476.898V267.143H476.043ZM477.478 264.751H480.161V260.777H478.276L478.131 262.184C478.07 262.766 477.996 263.275 477.906 263.71C477.817 264.145 477.674 264.492 477.478 264.751ZM482.178 260.777V259.98H486.703V260.777H484.876V265.548H484.02V260.777H482.178ZM487.441 265.548V259.98H489.717C490.317 259.98 490.793 260.115 491.146 260.386C491.499 260.656 491.675 261.014 491.675 261.459C491.675 261.797 491.575 262.059 491.374 262.245C491.174 262.429 490.916 262.554 490.602 262.619C490.807 262.648 491.007 262.72 491.2 262.836C491.396 262.952 491.558 263.112 491.686 263.315C491.814 263.516 491.878 263.762 491.878 264.055C491.878 264.34 491.806 264.595 491.661 264.82C491.516 265.044 491.308 265.222 491.037 265.352C490.766 265.483 490.442 265.548 490.065 265.548H487.441ZM488.253 264.765H490.065C490.36 264.765 490.591 264.695 490.758 264.555C490.925 264.415 491.008 264.224 491.008 263.982C491.008 263.694 490.925 263.468 490.758 263.304C490.591 263.137 490.36 263.054 490.065 263.054H488.253V264.765ZM488.253 262.314H489.717C489.947 262.314 490.144 262.283 490.308 262.22C490.473 262.155 490.598 262.063 490.685 261.945C490.775 261.824 490.82 261.681 490.82 261.517C490.82 261.282 490.722 261.099 490.526 260.966C490.33 260.83 490.061 260.763 489.717 260.763H488.253V262.314ZM494.998 265.664C494.461 265.664 493.998 265.546 493.609 265.309C493.222 265.07 492.924 264.736 492.714 264.308C492.506 263.878 492.402 263.378 492.402 262.807C492.402 262.237 492.506 261.734 492.714 261.299C492.924 260.862 493.216 260.521 493.591 260.277C493.968 260.03 494.408 259.907 494.911 259.907C495.201 259.907 495.487 259.955 495.77 260.052C496.053 260.149 496.31 260.306 496.542 260.523C496.774 260.738 496.959 261.024 497.097 261.379C497.235 261.734 497.303 262.172 497.303 262.691V263.054H493.011V262.314H496.433C496.433 262 496.371 261.72 496.245 261.473C496.122 261.227 495.945 261.032 495.716 260.89C495.488 260.747 495.22 260.676 494.911 260.676C494.57 260.676 494.275 260.76 494.026 260.929C493.78 261.096 493.59 261.314 493.457 261.582C493.324 261.85 493.257 262.138 493.257 262.445V262.938C493.257 263.358 493.33 263.715 493.475 264.007C493.622 264.297 493.827 264.519 494.088 264.671C494.349 264.821 494.652 264.896 494.998 264.896C495.222 264.896 495.425 264.864 495.607 264.801C495.79 264.736 495.949 264.639 496.082 264.511C496.215 264.381 496.317 264.219 496.39 264.026L497.216 264.258C497.129 264.538 496.983 264.784 496.778 264.997C496.572 265.207 496.319 265.372 496.016 265.49C495.714 265.606 495.375 265.664 494.998 265.664ZM498.095 267.636V259.98H498.921V260.864H499.023C499.085 260.767 499.172 260.644 499.284 260.494C499.397 260.342 499.559 260.207 499.769 260.088C499.982 259.967 500.27 259.907 500.632 259.907C501.101 259.907 501.515 260.024 501.872 260.259C502.23 260.493 502.509 260.825 502.71 261.256C502.91 261.686 503.011 262.193 503.011 262.778C503.011 263.368 502.91 263.879 502.71 264.312C502.509 264.742 502.231 265.076 501.876 265.313C501.521 265.547 501.111 265.664 500.647 265.664C500.289 265.664 500.003 265.605 499.788 265.487C499.572 265.366 499.407 265.229 499.291 265.077C499.175 264.922 499.085 264.794 499.023 264.693H498.95V267.636H498.095ZM498.936 262.764C498.936 263.184 498.997 263.555 499.121 263.877C499.244 264.196 499.424 264.446 499.661 264.627C499.898 264.806 500.188 264.896 500.531 264.896C500.889 264.896 501.187 264.801 501.426 264.613C501.668 264.422 501.849 264.166 501.97 263.844C502.093 263.52 502.155 263.16 502.155 262.764C502.155 262.372 502.095 262.019 501.974 261.705C501.855 261.389 501.675 261.138 501.434 260.955C501.194 260.769 500.893 260.676 500.531 260.676C500.183 260.676 499.89 260.764 499.653 260.94C499.417 261.114 499.238 261.358 499.117 261.673C498.996 261.984 498.936 262.348 498.936 262.764ZM503.211 267.143V264.751H503.675C503.788 264.632 503.886 264.504 503.968 264.366C504.051 264.229 504.122 264.065 504.182 263.877C504.245 263.686 504.298 263.454 504.342 263.181C504.385 262.905 504.424 262.573 504.458 262.184L504.646 259.98H508.185V264.751H509.04V267.143H508.185V265.548H504.066V267.143H503.211ZM504.646 264.751H507.329V260.777H505.444L505.299 262.184C505.239 262.766 505.164 263.275 505.074 263.71C504.985 264.145 504.842 264.492 504.646 264.751ZM510.521 264.287L513.204 259.98H514.19V265.548H513.335V261.241L510.666 265.548H509.666V259.98H510.521V264.287ZM514.489 260.777V259.98H519.014V260.777H517.186V265.548H516.331V260.777H514.489ZM520.491 261.995H522.086C522.739 261.995 523.238 262.161 523.583 262.492C523.929 262.823 524.102 263.242 524.102 263.75C524.102 264.084 524.024 264.387 523.87 264.66C523.715 264.931 523.488 265.147 523.188 265.309C522.888 265.468 522.521 265.548 522.086 265.548H519.751V259.98H520.607V264.751H522.086C522.424 264.751 522.702 264.661 522.92 264.482C523.137 264.303 523.246 264.074 523.246 263.794C523.246 263.499 523.137 263.258 522.92 263.072C522.702 262.886 522.424 262.793 522.086 262.793H520.491V261.995ZM527.255 265.548V259.98H531.634V265.548H530.779V260.777H528.11V265.548H527.255ZM532.193 265.548V264.751H532.396C532.563 264.751 532.702 264.718 532.813 264.653C532.924 264.585 533.014 264.468 533.081 264.301C533.152 264.132 533.205 263.897 533.241 263.598C533.28 263.296 533.307 262.911 533.324 262.445L533.426 259.98H537.138V265.548H536.283V260.777H534.238L534.151 262.764C534.132 263.221 534.09 263.623 534.028 263.971C533.967 264.317 533.874 264.607 533.748 264.841C533.625 265.076 533.461 265.252 533.255 265.371C533.05 265.489 532.793 265.548 532.483 265.548H532.193ZM539.836 265.679C539.483 265.679 539.163 265.612 538.876 265.479C538.588 265.344 538.36 265.149 538.19 264.896C538.021 264.639 537.937 264.33 537.937 263.968C537.937 263.648 537.999 263.39 538.125 263.192C538.251 262.991 538.419 262.834 538.629 262.72C538.839 262.607 539.071 262.522 539.325 262.467C539.581 262.409 539.839 262.363 540.097 262.329C540.436 262.285 540.71 262.253 540.92 262.231C541.133 262.207 541.288 262.167 541.384 262.111C541.483 262.056 541.533 261.959 541.533 261.821V261.792C541.533 261.435 541.435 261.157 541.239 260.958C541.046 260.76 540.752 260.661 540.358 260.661C539.95 260.661 539.63 260.751 539.398 260.929C539.166 261.108 539.002 261.299 538.908 261.502L538.096 261.212C538.241 260.874 538.434 260.61 538.676 260.422C538.92 260.231 539.186 260.098 539.474 260.023C539.764 259.946 540.049 259.907 540.329 259.907C540.508 259.907 540.714 259.929 540.946 259.972C541.18 260.013 541.406 260.099 541.624 260.23C541.844 260.36 542.026 260.557 542.171 260.821C542.316 261.084 542.389 261.437 542.389 261.879V265.548H541.533V264.794H541.49C541.432 264.915 541.335 265.044 541.199 265.182C541.064 265.32 540.884 265.437 540.659 265.534C540.435 265.63 540.16 265.679 539.836 265.679ZM539.967 264.91C540.305 264.91 540.59 264.844 540.822 264.711C541.057 264.578 541.233 264.406 541.352 264.196C541.473 263.986 541.533 263.765 541.533 263.532V262.749C541.497 262.793 541.417 262.833 541.294 262.869C541.173 262.903 541.033 262.933 540.873 262.96C540.716 262.984 540.563 263.006 540.413 263.025C540.265 263.042 540.146 263.056 540.054 263.068C539.831 263.097 539.624 263.145 539.43 263.21C539.239 263.273 539.085 263.368 538.966 263.496C538.85 263.622 538.792 263.794 538.792 264.011C538.792 264.308 538.902 264.533 539.122 264.685C539.344 264.835 539.626 264.91 539.967 264.91ZM542.682 260.777V259.98H547.207V260.777H545.379V265.548H544.524V260.777H542.682ZM549.99 265.664C549.453 265.664 548.99 265.546 548.601 265.309C548.215 265.07 547.916 264.736 547.706 264.308C547.498 263.878 547.394 263.378 547.394 262.807C547.394 262.237 547.498 261.734 547.706 261.299C547.916 260.862 548.209 260.521 548.583 260.277C548.96 260.03 549.4 259.907 549.903 259.907C550.193 259.907 550.479 259.955 550.762 260.052C551.045 260.149 551.302 260.306 551.534 260.523C551.766 260.738 551.951 261.024 552.089 261.379C552.227 261.734 552.296 262.172 552.296 262.691V263.054H548.003V262.314H551.426C551.426 262 551.363 261.72 551.237 261.473C551.114 261.227 550.937 261.032 550.708 260.89C550.481 260.747 550.212 260.676 549.903 260.676C549.562 260.676 549.267 260.76 549.018 260.929C548.772 261.096 548.582 261.314 548.449 261.582C548.316 261.85 548.25 262.138 548.25 262.445V262.938C548.25 263.358 548.322 263.715 548.467 264.007C548.615 264.297 548.819 264.519 549.08 264.671C549.341 264.821 549.644 264.896 549.99 264.896C550.215 264.896 550.418 264.864 550.599 264.801C550.783 264.736 550.941 264.639 551.074 264.511C551.207 264.381 551.31 264.219 551.382 264.026L552.209 264.258C552.122 264.538 551.975 264.784 551.77 264.997C551.565 265.207 551.311 265.372 551.009 265.49C550.707 265.606 550.367 265.664 549.99 265.664ZM552.589 265.548L554.851 262.72L552.618 259.98H553.633L555.489 262.358H555.954V259.98H556.809V262.358H557.259L559.115 259.98H560.13L557.911 262.72L560.159 265.548H559.129L557.244 263.155H556.809V265.548H555.954V263.155H555.519L553.619 265.548H552.589ZM561.988 263.46V263.416C561.993 262.955 562.041 262.587 562.133 262.314C562.225 262.041 562.355 261.82 562.524 261.651C562.694 261.482 562.897 261.326 563.134 261.183C563.276 261.096 563.404 260.993 563.518 260.875C563.631 260.754 563.721 260.615 563.786 260.458C563.854 260.301 563.888 260.127 563.888 259.936C563.888 259.699 563.832 259.494 563.721 259.32C563.61 259.146 563.461 259.012 563.275 258.917C563.089 258.823 562.882 258.776 562.655 258.776C562.457 258.776 562.266 258.817 562.082 258.899C561.898 258.981 561.745 259.111 561.622 259.287C561.498 259.464 561.427 259.694 561.408 259.98H560.494C560.514 259.569 560.62 259.217 560.813 258.925C561.009 258.632 561.266 258.409 561.585 258.254C561.907 258.099 562.263 258.022 562.655 258.022C563.08 258.022 563.45 258.106 563.764 258.276C564.081 258.445 564.325 258.677 564.497 258.972C564.671 259.267 564.758 259.603 564.758 259.98C564.758 260.245 564.717 260.486 564.634 260.701C564.555 260.916 564.439 261.108 564.286 261.277C564.137 261.447 563.955 261.596 563.743 261.727C563.53 261.86 563.36 262 563.231 262.148C563.103 262.293 563.01 262.465 562.952 262.666C562.894 262.867 562.863 263.117 562.858 263.416V263.46H561.988ZM562.452 265.606C562.273 265.606 562.12 265.542 561.992 265.414C561.863 265.286 561.799 265.133 561.799 264.954C561.799 264.775 561.863 264.621 561.992 264.493C562.12 264.365 562.273 264.301 562.452 264.301C562.631 264.301 562.784 264.365 562.912 264.493C563.04 264.621 563.105 264.775 563.105 264.954C563.105 265.072 563.074 265.181 563.014 265.28C562.956 265.379 562.877 265.459 562.778 265.519C562.682 265.577 562.573 265.606 562.452 265.606Z" fill="white"/>
<rect x="474.012" y="290.707" width="80.6529" height="10.2092" rx="5.10461" stroke="white" stroke-width="1.02092"/>
<path d="M500.87 293.805V298.26H500.331V294.283H498.086V298.26H497.547V293.805H500.87ZM502.736 298.329C502.434 298.329 502.169 298.257 501.942 298.114C501.716 297.97 501.539 297.769 501.411 297.511C501.285 297.253 501.222 296.952 501.222 296.606C501.222 296.258 501.285 295.955 501.411 295.695C501.539 295.435 501.716 295.234 501.942 295.09C502.169 294.947 502.434 294.875 502.736 294.875C503.037 294.875 503.301 294.947 503.528 295.09C503.755 295.234 503.932 295.435 504.058 295.695C504.186 295.955 504.25 296.258 504.25 296.606C504.25 296.952 504.186 297.253 504.058 297.511C503.932 297.769 503.755 297.97 503.528 298.114C503.301 298.257 503.037 298.329 502.736 298.329ZM502.736 297.868C502.965 297.868 503.153 297.809 503.301 297.692C503.449 297.574 503.559 297.42 503.63 297.229C503.701 297.037 503.736 296.83 503.736 296.606C503.736 296.383 503.701 296.175 503.63 295.982C503.559 295.789 503.449 295.633 503.301 295.514C503.153 295.396 502.965 295.336 502.736 295.336C502.507 295.336 502.318 295.396 502.17 295.514C502.022 295.633 501.913 295.789 501.842 295.982C501.771 296.175 501.735 296.383 501.735 296.606C501.735 296.83 501.771 297.037 501.842 297.229C501.913 297.42 502.022 297.574 502.17 297.692C502.318 297.809 502.507 297.868 502.736 297.868ZM504.166 299.217V297.781H504.445C504.513 297.71 504.572 297.633 504.621 297.551C504.67 297.468 504.713 297.37 504.749 297.257C504.787 297.142 504.819 297.003 504.845 296.839C504.871 296.674 504.894 296.474 504.914 296.241L505.028 294.918H507.151V297.781H507.664V299.217H507.151V298.26H504.68V299.217H504.166ZM505.028 297.781H506.637V295.397H505.506L505.419 296.241C505.383 296.59 505.338 296.896 505.284 297.157C505.231 297.418 505.145 297.626 505.028 297.781ZM507.644 295.397V294.918H510.358V295.397H509.262V298.26H508.749V295.397H507.644ZM510.597 298.26V294.918H511.963C512.322 294.918 512.608 295 512.82 295.162C513.031 295.324 513.137 295.539 513.137 295.806C513.137 296.009 513.077 296.166 512.957 296.278C512.836 296.388 512.682 296.463 512.493 296.502C512.617 296.519 512.736 296.563 512.852 296.633C512.97 296.702 513.067 296.798 513.144 296.92C513.221 297.04 513.259 297.188 513.259 297.363C513.259 297.535 513.216 297.688 513.129 297.822C513.042 297.957 512.917 298.064 512.754 298.142C512.592 298.22 512.398 298.26 512.172 298.26H510.597ZM511.084 297.79H512.172C512.348 297.79 512.487 297.748 512.587 297.664C512.687 297.58 512.737 297.465 512.737 297.32C512.737 297.147 512.687 297.012 512.587 296.913C512.487 296.813 512.348 296.763 512.172 296.763H511.084V297.79ZM511.084 296.319H511.963C512.1 296.319 512.219 296.3 512.317 296.263C512.416 296.224 512.491 296.168 512.543 296.097C512.597 296.025 512.624 295.939 512.624 295.841C512.624 295.7 512.565 295.59 512.448 295.51C512.33 295.429 512.169 295.388 511.963 295.388H511.084V296.319ZM514.927 298.329C514.605 298.329 514.327 298.258 514.094 298.116C513.862 297.973 513.682 297.772 513.556 297.516C513.432 297.258 513.369 296.957 513.369 296.615C513.369 296.273 513.432 295.971 513.556 295.71C513.682 295.448 513.858 295.243 514.083 295.097C514.309 294.949 514.573 294.875 514.874 294.875C515.048 294.875 515.22 294.904 515.39 294.962C515.56 295.02 515.714 295.114 515.853 295.245C515.993 295.374 516.103 295.545 516.186 295.758C516.269 295.971 516.31 296.234 516.31 296.546V296.763H513.735V296.319H515.788C515.788 296.131 515.75 295.963 515.675 295.815C515.601 295.667 515.495 295.55 515.357 295.464C515.221 295.379 515.06 295.336 514.874 295.336C514.67 295.336 514.493 295.387 514.344 295.488C514.196 295.588 514.082 295.719 514.002 295.88C513.922 296.041 513.883 296.213 513.883 296.398V296.693C513.883 296.946 513.926 297.16 514.013 297.335C514.102 297.509 514.224 297.642 514.381 297.733C514.537 297.823 514.719 297.868 514.927 297.868C515.062 297.868 515.183 297.849 515.292 297.812C515.402 297.772 515.497 297.714 515.577 297.638C515.657 297.559 515.718 297.462 515.762 297.346L516.258 297.485C516.206 297.653 516.118 297.801 515.995 297.929C515.871 298.055 515.719 298.154 515.538 298.225C515.357 298.294 515.153 298.329 514.927 298.329ZM516.581 299.513V294.918H517.077V295.449H517.137C517.175 295.391 517.227 295.317 517.294 295.227C517.362 295.136 517.459 295.055 517.586 294.984C517.713 294.911 517.886 294.875 518.103 294.875C518.385 294.875 518.633 294.945 518.847 295.086C519.062 295.227 519.229 295.426 519.35 295.684C519.47 295.942 519.53 296.247 519.53 296.598C519.53 296.952 519.47 297.258 519.35 297.518C519.229 297.776 519.063 297.976 518.849 298.118C518.636 298.259 518.39 298.329 518.112 298.329C517.897 298.329 517.726 298.294 517.596 298.223C517.467 298.15 517.368 298.068 517.298 297.977C517.229 297.884 517.175 297.807 517.137 297.746H517.094V299.513H516.581ZM517.085 296.589C517.085 296.841 517.122 297.064 517.196 297.257C517.27 297.448 517.378 297.598 517.52 297.707C517.662 297.814 517.836 297.868 518.042 297.868C518.257 297.868 518.436 297.812 518.58 297.698C518.725 297.584 518.833 297.43 518.906 297.237C518.98 297.043 519.017 296.827 519.017 296.589C519.017 296.354 518.981 296.142 518.908 295.954C518.837 295.764 518.729 295.614 518.584 295.504C518.44 295.392 518.26 295.336 518.042 295.336C517.834 295.336 517.658 295.389 517.516 295.495C517.374 295.599 517.267 295.746 517.194 295.934C517.122 296.121 517.085 296.34 517.085 296.589ZM519.446 299.217V297.781H519.725C519.793 297.71 519.851 297.633 519.901 297.551C519.95 297.468 519.993 297.37 520.029 297.257C520.067 297.142 520.099 297.003 520.125 296.839C520.151 296.674 520.174 296.474 520.194 296.241L520.308 294.918H522.431V297.781H522.944V299.217H522.431V298.26H519.96V299.217H519.446ZM520.308 297.781H521.917V295.397H520.786L520.699 296.241C520.663 296.59 520.618 296.896 520.564 297.157C520.511 297.418 520.425 297.626 520.308 297.781ZM523.628 297.503L525.238 294.918H525.83V298.26H525.316V295.675L523.715 298.26H523.115V294.918H523.628V297.503ZM525.805 295.397V294.918H528.52V295.397H527.423V298.26H526.91V295.397H525.805ZM529.202 296.128H530.159C530.55 296.128 530.85 296.227 531.057 296.426C531.265 296.625 531.368 296.876 531.368 297.181C531.368 297.381 531.322 297.563 531.229 297.727C531.136 297.889 531 298.019 530.82 298.116C530.64 298.212 530.42 298.26 530.159 298.26H528.758V294.918H529.271V297.781H530.159C530.362 297.781 530.529 297.727 530.659 297.62C530.79 297.513 530.855 297.375 530.855 297.207C530.855 297.03 530.79 296.886 530.659 296.774C530.529 296.662 530.362 296.606 530.159 296.606H529.202V296.128Z" fill="white"/>
<rect x="474.012" y="306.021" width="80.6529" height="10.2092" rx="5.10461" stroke="white" stroke-width="1.02092"/>
<path d="M504.621 311.346C504.621 311.816 504.536 312.222 504.366 312.564C504.196 312.906 503.964 313.17 503.668 313.356C503.372 313.542 503.034 313.634 502.654 313.634C502.274 313.634 501.936 313.542 501.641 313.356C501.345 313.17 501.112 312.906 500.942 312.564C500.773 312.222 500.688 311.816 500.688 311.346C500.688 310.876 500.773 310.47 500.942 310.128C501.112 309.786 501.345 309.522 501.641 309.336C501.936 309.15 502.274 309.058 502.654 309.058C503.034 309.058 503.372 309.15 503.668 309.336C503.964 309.522 504.196 309.786 504.366 310.128C504.536 310.47 504.621 310.876 504.621 311.346ZM504.099 311.346C504.099 310.96 504.034 310.635 503.905 310.369C503.777 310.104 503.604 309.903 503.385 309.767C503.168 309.63 502.924 309.562 502.654 309.562C502.384 309.562 502.14 309.63 501.921 309.767C501.704 309.903 501.53 310.104 501.401 310.369C501.274 310.635 501.21 310.96 501.21 311.346C501.21 311.732 501.274 312.057 501.401 312.323C501.53 312.588 501.704 312.789 501.921 312.925C502.14 313.062 502.384 313.13 502.654 313.13C502.924 313.13 503.168 313.062 503.385 312.925C503.604 312.789 503.777 312.588 503.905 312.323C504.034 312.057 504.099 311.732 504.099 311.346ZM504.756 310.711V310.232H507.471V310.711H506.375V313.573H505.861V310.711H504.756ZM507.709 313.573V310.232H508.223V311.685H508.562L509.763 310.232H510.424L509.075 311.842L510.441 313.573H509.78L508.684 312.164H508.223V313.573H507.709ZM510.193 313.573V313.095H510.315C510.415 313.095 510.498 313.075 510.565 313.036C510.632 312.996 510.685 312.925 510.726 312.825C510.768 312.724 510.8 312.583 510.822 312.403C510.845 312.222 510.862 311.991 510.872 311.711L510.933 310.232H513.16V313.573H512.647V310.711H511.42L511.368 311.903C511.356 312.177 511.332 312.418 511.294 312.627C511.258 312.835 511.202 313.009 511.126 313.149C511.052 313.29 510.954 313.396 510.83 313.467C510.707 313.538 510.553 313.573 510.367 313.573H510.193ZM514.949 313.643C514.647 313.643 514.383 313.571 514.155 313.428C513.929 313.284 513.752 313.083 513.624 312.825C513.498 312.567 513.435 312.265 513.435 311.92C513.435 311.572 513.498 311.268 513.624 311.009C513.752 310.749 513.929 310.548 514.155 310.404C514.383 310.261 514.647 310.189 514.949 310.189C515.251 310.189 515.515 310.261 515.741 310.404C515.968 310.548 516.145 310.749 516.272 311.009C516.399 311.268 516.463 311.572 516.463 311.92C516.463 312.265 516.399 312.567 516.272 312.825C516.145 313.083 515.968 313.284 515.741 313.428C515.515 313.571 515.251 313.643 514.949 313.643ZM514.949 313.182C515.178 313.182 515.367 313.123 515.515 313.006C515.662 312.888 515.772 312.734 515.843 312.542C515.914 312.351 515.95 312.144 515.95 311.92C515.95 311.697 515.914 311.489 515.843 311.296C515.772 311.103 515.662 310.947 515.515 310.828C515.367 310.709 515.178 310.65 514.949 310.65C514.72 310.65 514.531 310.709 514.383 310.828C514.235 310.947 514.126 311.103 514.055 311.296C513.984 311.489 513.948 311.697 513.948 311.92C513.948 312.144 513.984 312.351 514.055 312.542C514.126 312.734 514.235 312.888 514.383 313.006C514.531 313.123 514.72 313.182 514.949 313.182ZM518.972 311.668V312.147H517.128V311.668H518.972ZM517.249 310.232V313.573H516.736V310.232H517.249ZM519.364 310.232V313.573H518.85V310.232H519.364ZM520.304 312.816L521.914 310.232H522.506V313.573H521.992V310.989L520.391 313.573H519.791V310.232H520.304V312.816ZM522.481 310.711V310.232H525.196V310.711H524.099V313.573H523.586V310.711H522.481ZM525.878 311.442H526.835C527.226 311.442 527.526 311.541 527.733 311.74C527.941 311.938 528.044 312.19 528.044 312.495C528.044 312.695 527.998 312.877 527.905 313.041C527.812 313.203 527.676 313.333 527.496 313.43C527.316 313.526 527.096 313.573 526.835 313.573H525.434V310.232H525.947V313.095H526.835C527.038 313.095 527.205 313.041 527.335 312.934C527.466 312.827 527.531 312.689 527.531 312.521C527.531 312.344 527.466 312.199 527.335 312.088C527.205 311.976 527.038 311.92 526.835 311.92H525.878V311.442Z" fill="white"/>
</svg>
