<svg width="75" height="128" viewBox="0 0 75 128" fill="none" xmlns="http://www.w3.org/2000/svg">
<rect x="0.625" y="0.625" width="73.75" height="126.25" rx="6.875" stroke="white" stroke-width="1.25"/>
<rect x="4.375" y="5.625" width="66.25" height="116.25" rx="6.875" stroke="white" stroke-width="1.25"/>
<rect x="33.75" y="2.5" width="6.25" height="1.25" rx="0.625" fill="#D9D9D9"/>
<rect x="41.25" y="2.5" width="1.25" height="1.25" rx="0.625" fill="#D9D9D9"/>
<g clip-path="url(#clip0_44_691)">
<path d="M63.8778 50.6999C63.8003 50.2789 63.6351 49.8789 63.3929 49.5258C63.1506 49.1728 62.8368 48.8747 62.4716 48.6508L54.4359 56.6865C54.061 57.0754 53.6118 57.3847 53.1148 57.596C52.6178 57.8072 52.083 57.9161 51.543 57.9161C51.003 57.9161 50.4686 57.8072 49.9714 57.596C49.4744 57.3847 49.025 57.0754 48.6503 56.6865L45.5967 53.9544C44.8605 53.2033 44.4481 52.1936 44.4481 51.1419C44.4481 50.0902 44.8605 49.0805 45.5967 48.3294L53.6323 40.2937C53.4571 39.882 53.1935 39.5139 52.8604 39.2153C52.527 38.9168 52.1324 38.6951 51.7037 38.566C48.9 38.0069 45.9956 38.2462 43.3212 39.2568C40.6468 40.2673 38.3099 42.0085 36.5764 44.282C34.843 46.5556 33.7828 49.2701 33.5164 52.1167C33.2669 54.7832 33.7235 57.4651 34.8357 59.8944L13.273 81.4569C11.6812 83.0488 11.7076 85.6375 13.3315 87.1964L15.5847 89.3596C17.1562 90.8683 19.6439 90.8499 21.1927 89.3174L43.003 67.7435C45.3619 68.7177 47.9315 69.0883 50.4779 68.8153C53.2932 68.5135 55.9699 67.4367 58.2098 65.7046C60.4502 63.9724 62.1658 61.653 63.1663 59.004C64.1671 56.3551 64.4134 53.4805 63.8778 50.6999Z" stroke="white" stroke-width="2.9625" stroke-linecap="round" stroke-linejoin="round"/>
</g>
<defs>
<clipPath id="clip0_44_691">
<rect width="56.25" height="56.25" fill="white" transform="translate(10 36.25)"/>
</clipPath>
</defs>
</svg>
